<?xml version="1.0" encoding="UTF-8" standalone="no"?>
<!-- Created with Inkscape (http://www.inkscape.org/) -->
<svg
   xmlns:dc="http://purl.org/dc/elements/1.1/"
   xmlns:cc="http://web.resource.org/cc/"
   xmlns:rdf="http://www.w3.org/1999/02/22-rdf-syntax-ns#"
   xmlns:svg="http://www.w3.org/2000/svg"
   xmlns="http://www.w3.org/2000/svg"
   xmlns:sodipodi="http://sodipodi.sourceforge.net/DTD/sodipodi-0.dtd"
   xmlns:inkscape="http://www.inkscape.org/namespaces/inkscape"
   width="210mm"
   height="297mm"
   id="svg2"
   sodipodi:version="0.32"
   inkscape:version="0.45.1"
   sodipodi:docbase="/home/rover/herobot/arte"
   sodipodi:docname="alien1.svg"
   inkscape:output_extension="org.inkscape.output.svg.inkscape">
  <defs
     id="defs4" />
  <sodipodi:namedview
     id="base"
     pagecolor="#ffffff"
     bordercolor="#666666"
     borderopacity="1.0"
     inkscape:pageopacity="0.0"
     inkscape:pageshadow="2"
     inkscape:zoom="0.67953907"
     inkscape:cx="553.18162"
     inkscape:cy="511.42692"
     inkscape:document-units="px"
     inkscape:current-layer="layer1"
     inkscape:window-width="1022"
     inkscape:window-height="713"
     inkscape:window-x="0"
     inkscape:window-y="0" />
  <metadata
     id="metadata7">
    <rdf:RDF>
      <cc:Work
         rdf:about="">
        <dc:format>image/svg+xml</dc:format>
        <dc:type
           rdf:resource="http://purl.org/dc/dcmitype/StillImage" />
      </cc:Work>
    </rdf:RDF>
  </metadata>
  <g
     inkscape:label="Capa 1"
     inkscape:groupmode="layer"
     id="layer1">
    <path
       style="fill:#aaffaa;fill-opacity:1;stroke:#000000;stroke-width:2;stroke-miterlimit:1;stroke-opacity:0"
       d="M 574.32065,532.87538 L 576.40292,518.07916 L 583.70974,515.71109 C 588.78296,516.57105 593.29004,507.71414 591.48601,533.38224 L 583.97201,547.16156 L 582.37009,549.57738 L 574.32065,532.87538 z "
       id="path3614"
       sodipodi:nodetypes="ccccccc"
       inkscape:export-filename="/home/rover/herobot/arte/pre/alien-0-02.png"
       inkscape:export-xdpi="19.008528"
       inkscape:export-ydpi="19.008528" />
    <path
       style="fill:#1a1a1a;fill-opacity:1;stroke:#000000;stroke-width:2;stroke-miterlimit:1;stroke-opacity:0"
       d="M 601.67828,725.14216 L 618.97749,718.62031 L 634.78948,702.80992 L 651.98362,702.11968 L 670.06963,703.45106 L 671.31372,712.90798 L 672.29037,723.14285 L 669.75532,731.02509 L 665.21437,735.1678 L 659.75017,738.25123 L 649.493,738.85863 L 633.12595,740.02247 L 623.16311,739.1072 L 609.92539,738.12234 L 603.80728,732.84699 C 603.49098,732.30197 601.461,731.17631 603.48271,730.25662 L 601.67828,725.14216 z "
       id="path3612"
       sodipodi:nodetypes="ccccccccccccccccc"
       inkscape:export-filename="/home/rover/herobot/arte/pre/alien-0-02.png"
       inkscape:export-xdpi="19.008528"
       inkscape:export-ydpi="19.008528" />
    <path
       style="fill:#4d4d4d;fill-opacity:1;stroke:#000000;stroke-width:2;stroke-miterlimit:1;stroke-opacity:0"
       d="M 598.50852,500.02156 L 668.41868,497.85775 L 674.87217,506.51983 L 668.60309,571.67745 L 664.15218,615.98863 L 671.07926,639.05256 L 673.12068,675.95344 L 674.16461,692.66907 L 668.75201,707.04038 L 646.42962,708.61685 L 625.25536,576.40275 L 612.42196,610.7187 L 637.51268,646.15383 L 644.19573,702.10557 C 644.19573,702.10557 635.06758,704.98138 631.80806,697.58232 C 633.22887,675.42851 574.44713,631.16236 576.26578,620.03293 C 576.26578,620.03293 576.13686,610.89381 578.15637,581.68617 C 587.27595,562.80588 594.40741,530.17039 593.72258,529.17428 L 598.50852,500.02156 z "
       id="path3610"
       sodipodi:nodetypes="ccccccccccccccccccc"
       inkscape:export-filename="/home/rover/herobot/arte/pre/alien-0-02.png"
       inkscape:export-xdpi="19.008528"
       inkscape:export-ydpi="19.008528" />
    <path
       style="fill:#00ccff;fill-opacity:1;stroke:#000000;stroke-width:2;stroke-miterlimit:1;stroke-opacity:0"
       d="M 597.54514,373.14174 L 613.86075,388.07028 L 652.6124,372.4655 L 684.16351,381.27409 L 687.50981,466.10635 L 664.72223,522.40882 L 648.48503,522.11795 L 648.51785,501.9864 L 619.80844,503.68784 L 594.11613,500.18136 C 599.70263,492.75199 601.54971,514.58315 592.32069,512.56894 L 580.82289,512.90401 L 576.56184,472.79368 L 571.77122,425.64838 L 572.91402,384.60125 L 597.54514,373.14174 z "
       id="path3608"
       sodipodi:nodetypes="cccccccccccccccc"
       inkscape:export-filename="/home/rover/herobot/arte/pre/alien-0-02.png"
       inkscape:export-xdpi="19.008528"
       inkscape:export-ydpi="19.008528" />
    <path
       style="fill:#4d4d4d;fill-opacity:1;stroke:#000000;stroke-width:2;stroke-miterlimit:1;stroke-opacity:0"
       d="M 604.52926,369.93438 L 618.85714,373.15959 L 631.93762,372.9232 L 640.29022,367.95892 C 641.01149,367.60731 658.08302,371.22629 643.26898,374.69341 L 620.57513,390.57783 L 614.16921,390.44076 L 598.80028,373.71393 L 604.52926,369.93438 z "
       id="path3606"
       sodipodi:nodetypes="ccccccccc"
       inkscape:export-filename="/home/rover/herobot/arte/pre/alien-0-02.png"
       inkscape:export-xdpi="19.008528"
       inkscape:export-ydpi="19.008528" />
    <path
       style="fill:#1a1a1a;fill-opacity:1;stroke:#000000;stroke-width:2;stroke-miterlimit:1;stroke-opacity:0"
       d="M 391.6891,731.12734 C 397.8636,725.16379 401.99654,729.77482 406.07379,715.07617 L 411.35941,707.3358 L 415.15145,700.94661 L 434.7291,690.95151 L 443.88663,703.96039 L 445.30139,712.12115 L 438.97381,719.98811 L 428.15814,727.50946 L 404.86157,742.31088 L 389.63411,743.19002 L 383.05385,739.3314 L 386.88255,734.60307 L 391.6891,731.12734 z "
       id="path3600"
       sodipodi:nodetypes="cccccccccccccc"
       inkscape:export-filename="/home/rover/herobot/arte/pre/alien-0-01.png"
       inkscape:export-xdpi="18.800928"
       inkscape:export-ydpi="18.800928" />
    <path
       style="fill:#1a1a1a;fill-opacity:1;stroke:#000000;stroke-width:2;stroke-miterlimit:1;stroke-opacity:0"
       d="M 266.8352,724.49945 L 288.13138,722.90597 L 305.73885,715.82461 L 319.37474,705.27974 L 337.1326,708.9587 L 337.1326,718.4971 L 336.76597,728.77192 L 333.2245,736.25618 L 328.182,739.77123 L 322.36231,742.11562 L 312.11354,741.37999 L 295.7345,740.39914 L 285.97615,738.19224 L 272.97997,735.4892 L 267.60218,729.46093 C 267.35967,728.87931 265.49385,727.49849 267.61825,726.85035 L 266.8352,724.49945 z "
       id="path3602"
       sodipodi:nodetypes="ccccccccccccccccc"
       inkscape:export-filename="/home/rover/herobot/arte/pre/alien-0-01.png"
       inkscape:export-xdpi="18.800928"
       inkscape:export-ydpi="18.800928" />
    <path
       style="fill:#1a1a1a;fill-opacity:1;stroke:#000000;stroke-width:2;stroke-miterlimit:1;stroke-opacity:0"
       d="M 136.78294,733.1858 C 144.17908,728.82855 151.57522,733.45465 158.97136,720.11406 L 163.31527,715.79783 L 183.57311,706.76033 L 190.66894,707.88011 L 193.88048,718.95567 L 193.35093,727.22121 L 185.71962,729.93246 L 173.08884,738.182 L 163.33839,743.02306 L 150.08802,743.81993 L 135.89735,739.28216 L 131.29777,735.44334 L 136.78294,733.1858 z "
       id="path3598"
       sodipodi:nodetypes="cccccccccccccc"
       inkscape:export-filename="/home/rover/herobot/arte/pre/alien-0-00.png"
       inkscape:export-xdpi="18.925467"
       inkscape:export-ydpi="18.925467" />
    <path
       style="fill:#1a1a1a;fill-opacity:1;stroke:#000000;stroke-width:2;stroke-miterlimit:1;stroke-opacity:0"
       d="M 64.674411,718.50825 L 97.237386,715.07529 L 103.80799,712.13276 L 116.75408,705.26685 L 136.81129,705.26685 L 136.81129,714.34538 L 130.92622,720.48137 L 133.13312,729.80511 L 129.70017,734.46984 L 124.11041,738.88364 L 113.86164,738.14801 L 97.482597,737.16716 L 87.72425,734.96026 L 74.728064,732.25722 L 62.222301,724.15954 L 58.789346,719.2496 L 64.674411,718.50825 z "
       id="rect3595"
       sodipodi:nodetypes="ccccccccccccccccc"
       inkscape:export-filename="/home/rover/herobot/arte/pre/alien-0-00.png"
       inkscape:export-xdpi="18.925467"
       inkscape:export-ydpi="18.925467" />
    <path
       style="fill:#4d4d4d;fill-opacity:1;stroke:#000000;stroke-width:2;stroke-miterlimit:1;stroke-opacity:0"
       d="M 340.37579,504.15571 L 410.28595,501.9919 L 416.73944,510.65398 L 405.42026,575.8116 L 395.19782,613.6298 L 408.61788,638.13661 L 424.3667,662.05153 L 434.06794,684.5387 L 435.14832,692.41703 L 413.54737,701.92937 L 362.79398,633.92363 L 357.175,664.63237 L 347.63649,689.24586 L 341.33358,709.84693 C 341.33358,709.84693 334.36975,713.44418 316.68139,705.32368 C 318.1022,683.16987 325.69315,661.26843 327.5118,650.139 C 327.5118,650.139 328.82576,632.34258 330.84527,603.13494 C 339.96485,584.25465 336.27468,534.30454 335.58985,533.30843 L 340.37579,504.15571 z "
       id="path3589"
       sodipodi:nodetypes="ccccccccccccccccccc"
       inkscape:export-filename="/home/rover/herobot/arte/pre/alien-0-01.png"
       inkscape:export-xdpi="18.800928"
       inkscape:export-ydpi="18.800928" />
    <path
       style="fill:#008000;fill-opacity:1;stroke:#000000;stroke-width:2;stroke-miterlimit:1;stroke-opacity:0"
       d="M 352.00397,271.88631 L 366.85627,270.69532 L 380.58765,273.70781 L 392.63763,281.48426 L 400.2039,295.14557 L 397.12134,309.43742 L 385.91206,321.76763 L 384.5109,310.24308 C 385.30086,307.42909 382.95648,296.76859 380.58765,295.63598 L 347.80049,299.5242 L 335.75051,297.52755 L 333.50865,293.8495 L 333.50865,285.40751 L 343.31678,277.80621 L 352.00397,271.88631 z "
       id="path3561"
       sodipodi:nodetypes="ccccccccccccccc"
       inkscape:export-filename="/home/rover/herobot/arte/pre/alien-0-01.png"
       inkscape:export-xdpi="18.800928"
       inkscape:export-ydpi="18.800928" />
    <path
       style="fill:#aaffaa;fill-opacity:1;stroke:#000000;stroke-width:2;stroke-miterlimit:1;stroke-opacity:0"
       d="M 332.48505,299.42393 L 382.36638,295.22045 L 386.0094,310.87842 L 386.85009,323.73407 L 401.7024,298.75838 L 404.50472,308.53148 L 405.06518,327.83246 L 398.05938,340.96834 L 394.13613,345.9775 L 390.77334,341.45875 L 385.44893,351.26688 L 385.72916,377.3635 L 376.20127,384.68456 C 366.11009,385.58223 356.86525,382.27923 356.86525,379.11495 L 354.06293,370.74301 L 344.18474,370.40147 L 338.22981,349.60299 L 335.35743,338.89287 L 332.48505,327.90252 L 332.48505,318.40966 L 332.48505,308.91679 L 332.48505,299.42393 z "
       id="path3546"
       sodipodi:nodetypes="cccccccccccccccccccccc"
       inkscape:export-filename="/home/rover/herobot/arte/pre/alien-0-01.png"
       inkscape:export-xdpi="18.800928"
       inkscape:export-ydpi="18.800928" />
    <g
       id="g2574"
       inkscape:label="Capa 1"
       transform="translate(65.47416,73.89885)"
       inkscape:export-filename="/home/rover/herobot/arte/pre/alien-0-01.png"
       inkscape:export-xdpi="18.800928"
       inkscape:export-ydpi="18.800928">
      <path
         sodipodi:nodetypes="csssssssssssssssssssssssssssssscccssssssssssssssssssssssssssssssssssssssssccssccssccsssssccssssssssccssccsssssssc"
         id="path2576"
         d="M 316.76498,308.03101 C 310.804,312.6301 294.58328,312.54731 289.97412,306.9936 C 288.93935,305.74679 288.40716,305.75176 285.93267,307.03137 C 282.70481,308.70056 281.9836,308.83037 281.9836,307.74216 C 281.9836,307.32258 282.9961,306.51861 284.2336,305.95556 C 285.4711,305.39251 286.3765,304.402 286.2456,303.75442 C 286.11052,303.0862 286.65111,302.82395 287.4956,303.14801 C 288.61617,303.57801 288.9836,302.95181 288.9836,300.61202 C 288.9836,297.8906 288.64234,297.50434 286.2336,297.49945 C 279.35359,297.4855 276.10229,295.67244 274.96524,291.21575 C 274.37438,288.89985 273.01179,284.11675 271.93727,280.58662 C 270.86275,277.0565 269.9836,273.209 269.9836,272.03662 C 269.9836,270.86425 269.60798,269.47753 269.14888,268.95503 C 268.10171,267.76323 265.33344,259.98974 264.53236,255.99154 C 264.16184,254.14223 264.6788,250.79751 265.87051,247.33374 C 267.41754,242.83721 267.62082,240.83661 266.87016,237.49565 C 265.28205,230.42749 266.37307,215.17897 268.70506,211.85033 C 269.80142,210.28541 270.54186,208.55503 270.35049,208.00503 C 269.38322,205.22501 284.97346,198.00325 296.06262,196.09458 C 307.20719,194.17637 326.69644,202.05373 330.41138,209.978 C 333.3661,216.28067 334.34047,218.81198 334.15743,219.70981 C 334.0784,220.09744 335.31475,221.83902 336.90488,223.57998 C 341.39584,228.49696 341.53433,252.26358 337.11388,259.44773 C 335.53449,262.01456 333.90584,265.21502 333.49465,266.55986 C 331.74299,272.2889 327.30542,274.23028 324.64471,270.43159 C 323.00033,268.0839 322.52693,268.54375 321.48076,273.50503 C 320.0264,280.40205 318.48401,281.9065 304.63699,289.93447 C 287.39314,299.93179 284.33777,303.57539 296.72677,308.60372 C 309.11577,313.63205 319.4537,308.24664 319.56294,293.69063 C 319.61071,287.32441 320.05638,282.98077 320.68324,282.77182 C 321.37398,282.54157 321.6152,285.97094 321.4002,292.96493 C 321.222,298.76198 321.46279,303.50503 321.93529,303.50503 C 320.92175,305.68089 319.74433,306.2392 316.76498,308.03101 z M 302.46319,289.02284 C 307.95196,285.43804 313.02107,282.50503 313.72789,282.50503 C 315.41335,282.50503 318.97509,276.61106 318.97986,273.81405 C 318.98192,272.60901 319.46428,271.32599 320.05177,270.9629 C 320.63927,270.5998 320.86942,269.64987 320.56323,268.85194 C 320.25703,268.05401 320.41508,267.65366 320.91443,267.96228 C 321.41379,268.2709 322.53493,267.81084 323.40585,266.93992 C 325.09099,265.25478 325.02578,265.18545 326.5647,270.29815 C 327.23266,272.51731 330.9836,269.75724 330.9836,267.04657 C 330.9836,265.73312 332.04174,263.38645 333.33503,261.83175 C 337.44567,256.89024 338.28194,254.33957 338.14914,247.14842 C 338.07866,243.33179 337.87391,240.062 337.69413,239.88223 C 337.09691,239.285 330.98282,251.97344 330.98321,253.80926 C 330.98381,256.59385 325.31081,262.23224 323.91396,260.83539 C 323.07171,259.99314 323.29202,259.54192 324.77539,259.07111 C 325.87161,258.72319 327.29695,256.99099 327.94282,255.22178 C 328.58868,253.45257 331.07909,247.90299 333.47705,242.88938 C 337.74819,233.95939 338.32403,230.72266 336.28867,227.08568 C 335.43773,225.56513 335.17227,225.92371 334.62769,229.32932 C 334.23751,231.76937 332.18956,235.89477 329.48247,239.69389 C 327.00909,243.16502 324.00866,248.03003 322.81485,250.50503 C 320.64429,255.00503 320.64429,255.00503 319.3106,241.08502 C 318.57707,233.42901 317.76429,226.95238 317.50442,226.69252 C 316.81407,226.00217 313.98493,228.55585 313.9759,229.87747 C 313.9565,232.71761 300.01929,238.35041 292.7336,238.46266 C 288.54263,238.52723 289.45455,236.7184 294.2336,235.48732 C 305.01739,232.70943 308.18675,231.23292 313.2336,226.6358 C 316.60354,223.56615 316.83427,221.45399 313.7336,222.05861 C 311.26487,222.54001 307.6145,223.14178 301.4836,224.07807 C 293.44472,225.30573 280.32809,225.99259 274.23346,225.50503 C 265.67126,224.82007 264.56549,229.13783 272.7336,231.36156 C 279.54999,233.21729 281.9836,234.31369 281.9836,235.5289 C 281.9836,236.78951 276.11649,235.91592 271.22968,233.92769 C 267.97576,232.60381 267.97576,232.60381 268.61884,236.80442 C 269.40165,241.91781 269.42075,241.94093 273.00961,242.12143 C 277.22297,242.33333 280.9836,243.41396 280.9836,244.41279 C 280.9836,245.65997 274.31547,246.73683 271.04315,246.01811 C 266.18147,244.95031 265.01819,252.00485 268.47322,261.60307 C 269.93867,265.67415 271.48263,270.36562 271.90425,272.02856 C 272.32586,273.69149 273.13368,275.94149 273.69939,277.02856 C 274.26511,278.11562 275.03931,281.25503 275.41984,284.00503 C 277.43229,298.54855 285.56708,300.05793 302.46319,289.02284 z M 280.9836,280.61444 C 280.9836,279.56927 288.02672,278.52174 289.47352,279.35173 C 290.01797,279.66407 289.34297,280.23148 287.97352,280.61264 C 284.31345,281.63136 280.9836,281.63221 280.9836,280.61444 z M 278.33568,277.00503 C 278.79581,275.69193 292.85495,275.97638 294.20467,277.3261 C 294.92111,278.04254 292.57289,278.308 286.61363,278.18423 C 281.36836,278.07529 278.12266,277.61294 278.33568,277.00503 z M 277.01256,269.54409 C 274.56268,267.99474 276.39342,267.45518 281.11033,268.33639 C 286.38261,269.32136 289.31206,268.27432 290.87377,264.84673 C 291.48886,263.49677 292.44019,262.66919 292.98785,263.00766 C 294.13629,263.71743 294.36053,268.58618 293.2336,268.34355 C 292.8211,268.25473 291.21681,268.70473 289.6685,269.34355 C 286.30476,270.73139 279.0712,270.84601 277.01256,269.54409 z M 291.9836,247.76385 C 289.52547,246.808 287.96,244.15464 289.17592,243.00503 C 289.88675,242.33296 290.3839,242.41495 290.69193,243.25503 C 290.94402,243.94253 291.78777,244.50503 292.56693,244.50503 C 293.3461,244.50503 293.99049,243.94253 293.99891,243.25503 C 294.00912,242.4217 294.33735,242.50503 294.9836,243.50503 C 295.51676,244.33003 295.95987,244.5061 295.96829,243.89629 C 295.97846,243.15944 298.07999,242.92718 302.2336,243.20384 C 311.24872,243.80432 312.13008,244.31602 307.9836,246.54215 C 304.56061,248.37985 295.37203,249.08146 291.9836,247.76385 z M 300.7336,245.8157 C 299.7711,245.56418 298.1961,245.56418 297.2336,245.8157 C 296.2711,246.06723 297.0586,246.27303 298.9836,246.27303 C 300.9086,246.27303 301.6961,246.06723 300.7336,245.8157 z M 323.97177,243.52713 C 324.55397,242.43928 326.0914,240.48814 327.38829,239.19125 C 340.99023,225.58931 330.39672,203.67726 307.9836,199.05379 C 295.51304,196.48132 294.8663,196.61042 280.15006,204.60969 C 268.24515,211.08081 264.10721,221.95832 273.26219,222.71601 C 274.75897,222.83989 275.9836,223.2931 275.9836,223.72314 C 275.9836,225.06931 283.90763,224.60367 300.33495,222.29219 C 319.64496,219.57509 319.99027,219.88836 321.2359,241.25356 C 321.5065,245.89494 322.33575,246.58406 323.97177,243.52713 z "
         style="fill:#000000" />
    </g>
    <path
       style="fill:#008000;fill-opacity:1;stroke:#000000;stroke-width:2;stroke-miterlimit:1;stroke-opacity:0"
       d="M 134.2312,276.11914 L 149.0835,274.92815 L 162.81488,277.94064 L 174.86486,285.71709 L 182.43113,299.3784 L 179.34857,313.67025 L 168.13929,326.00046 L 166.73813,314.47591 C 167.52809,311.66192 165.18371,301.00142 162.81488,299.86881 L 130.02772,303.75703 L 117.97774,301.76038 L 115.73588,298.08233 L 115.73588,289.64034 L 125.54401,282.03904 L 134.2312,276.11914 z "
       id="rect3532"
       sodipodi:nodetypes="ccccccccccccccc"
       inkscape:export-filename="/home/rover/herobot/arte/pre/alien-0-00.png"
       inkscape:export-xdpi="18.925467"
       inkscape:export-ydpi="18.925467" />
    <path
       style="fill:#aaffaa;fill-opacity:1;stroke:#000000;stroke-width:2;stroke-miterlimit:1;stroke-opacity:0"
       d="M 113.77425,304.14236 L 163.65558,299.93888 L 167.2986,315.59685 L 168.13929,328.4525 L 182.9916,303.47681 L 185.79392,313.24991 L 186.35438,332.55089 L 179.34858,345.68677 L 175.42533,350.69593 L 172.06254,346.17718 L 166.73813,355.98531 L 167.01836,382.08193 L 157.49047,389.40299 C 147.39929,390.30066 138.15445,386.99766 138.15445,383.83338 L 135.35213,375.46144 L 125.47394,375.1199 L 119.51901,354.32142 L 116.64663,343.6113 L 113.77425,332.62095 L 113.77425,323.12809 L 113.77425,313.63522 L 113.77425,304.14236 z "
       id="rect3535"
       sodipodi:nodetypes="cccccccccccccccccccccc"
       inkscape:export-filename="/home/rover/herobot/arte/pre/alien-0-00.png"
       inkscape:export-xdpi="18.925467"
       inkscape:export-ydpi="18.925467" />
    <path
       style="fill:#4d4d4d;fill-opacity:1;stroke:#000000;stroke-width:2;stroke-miterlimit:1;stroke-opacity:0"
       d="M 112.60909,516.49823 L 187.16408,511.06193 L 190.0346,521.5155 L 171.84806,578.91001 L 163.11852,617.02679 L 178.03149,647.50522 L 180.94133,666.34427 L 186.76102,685.54705 L 191.12579,698.20267 L 192.21699,708.31217 L 165.35006,717.04171 L 148.98217,673.10524 L 134.06921,716.8279 L 123.88475,719.8127 L 104.60701,715.88661 L 110.06297,682.49834 L 125.33967,613.10071 L 115.15521,542.97562 L 112.60909,516.49823 z "
       id="rect3552"
       sodipodi:nodetypes="ccccccccccccccccccc"
       inkscape:export-filename="/home/rover/herobot/arte/pre/alien-0-00.png"
       inkscape:export-xdpi="18.925467"
       inkscape:export-ydpi="18.925467" />
    <path
       style="fill:#00ccff;fill-opacity:1;stroke:#000000;stroke-width:2;stroke-miterlimit:1;stroke-opacity:0"
       d="M 127.61121,388.94241 L 141.08568,401.02981 L 176.95156,388.3108 L 211.23222,397.78504 L 214.60084,425.48945 L 232.23655,522.15148 L 212.86699,530.96005 L 202.07758,472.25336 L 190.28741,438.35044 L 177.94234,476.89805 L 187.16519,510.67223 L 138.22113,517.37231 L 113.65003,511.67538 L 118.89243,482.86744 L 106.21057,437.88647 L 96.69917,472.95974 L 69.750218,525.27241 L 58.653598,519.7241 L 68.164993,494.95484 C 68.164993,481.41431 72.295602,485.68514 83.2247,444.82186 L 102.24749,396.27412 L 127.61121,388.94241 z "
       id="rect3538"
       sodipodi:nodetypes="cccccccccccccccccccccc"
       inkscape:export-filename="/home/rover/herobot/arte/pre/alien-0-00.png"
       inkscape:export-xdpi="18.925467"
       inkscape:export-ydpi="18.925467" />
    <path
       style="fill:#4d4d4d;fill-opacity:1;stroke:#000000;stroke-width:2;stroke-miterlimit:1;stroke-opacity:0"
       d="M 135.69033,381.94793 L 145.93408,388.72456 L 159.01456,388.48817 L 167.36716,383.52389 C 168.08843,383.17228 182.4964,388.56697 167.68236,392.03409 L 144.98851,403.65681 L 140.89101,402.98702 L 127.65293,387.50319 L 135.69033,381.94793 z "
       id="rect3541"
       sodipodi:nodetypes="ccccccccc"
       inkscape:export-filename="/home/rover/herobot/arte/pre/alien-0-00.png"
       inkscape:export-xdpi="18.925467"
       inkscape:export-ydpi="18.925467" />
    <path
       style="fill:#aaffaa;fill-opacity:1;stroke:#000000;stroke-width:2;stroke-miterlimit:1;stroke-opacity:0"
       d="M 53.527669,532.679 L 61.002142,519.74083 L 71.182299,529.90224 L 69.024609,541.82538 L 58.095559,550.26274 L 54.344462,548.07383 L 53.527669,532.679 z "
       id="path3548"
       sodipodi:nodetypes="ccccccc"
       inkscape:export-filename="/home/rover/herobot/arte/pre/alien-0-00.png"
       inkscape:export-xdpi="18.925467"
       inkscape:export-ydpi="18.925467" />
    <path
       style="fill:#aaffaa;fill-opacity:1;stroke:#000000;stroke-width:2;stroke-miterlimit:1;stroke-opacity:0"
       d="M 209.40134,542.91017 L 216.87581,529.972 L 228.6092,530.03742 L 231.4995,548.56179 L 219.01722,564.76529 L 210.60644,561.41146 L 209.40134,542.91017 z "
       id="path3550"
       sodipodi:nodetypes="ccccccc"
       inkscape:export-filename="/home/rover/herobot/arte/pre/alien-0-00.png"
       inkscape:export-xdpi="18.925467"
       inkscape:export-ydpi="18.925467" />
    <path
       style="fill:#ffffff;fill-opacity:1;stroke:#000000;stroke-width:2;stroke-miterlimit:1;stroke-opacity:0"
       d="M 164.82923,428.43233 L 170.13729,417.25747 L 170.78916,421.54116 L 173.02413,428.80482 L 176.93533,442.58715 L 167.80919,435.50974 L 160.54553,440.72467 L 164.82923,428.43233 z "
       id="rect3582"
       sodipodi:nodetypes="cccccccc"
       inkscape:export-filename="/home/rover/herobot/arte/pre/alien-0-00.png"
       inkscape:export-xdpi="18.925467"
       inkscape:export-ydpi="18.925467" />
    <g
       id="g2421"
       inkscape:label="Capa 1"
       transform="translate(-152.66375,78.391136)"
       inkscape:export-filename="/home/rover/herobot/arte/pre/alien-0-00.png"
       inkscape:export-xdpi="18.925467"
       inkscape:export-ydpi="18.925467">
      <path
         sodipodi:nodetypes="csssssssssssssssssssssccsssssssssssssssssssssssssssssssssssssssssssssssssssssssssssssssssssssssssssssssssssssssssssssssssssssssssssssssssssssssssssssssssssssssssssssssssssssssssssssssssssssssssssssssssssssssssssssssssssssssssssssssssssssssssssssssssssssssssssssssssssssssssssssssssssssccsssccssssssccssssssssssssssssssssssssssssssssssssssssccssccssccsssssccssssssssccssccsssssssccsssssssssccssssc"
         id="path2302"
         d="M 308.9836,665.00244 C 305.4086,664.26569 298.0961,662.89924 292.7336,661.96588 C 284.81855,660.58824 279.55161,658.50503 283.9836,658.50503 C 284.5336,658.50503 284.9836,657.80707 284.9836,656.954 C 284.9836,654.84607 290.951,652.50503 296.32422,652.50503 C 301.01702,652.50503 313.82743,642.67939 312.31827,640.23753 C 311.93187,639.61231 312.16264,639.49765 312.89563,639.95066 C 313.61116,640.39288 314.69696,639.93935 315.51833,638.85517 C 316.33787,637.77341 316.9332,637.52417 316.9518,638.25503 C 316.96929,638.94253 316.15394,640.29253 315.13991,641.25503 C 302.02753,653.70105 302.79086,653.1828 296.4836,653.92132 C 288.23334,654.88733 286.9836,655.35719 286.9836,657.49296 C 286.9836,658.72524 287.90495,659.51566 289.7336,659.85217 C 318.73917,665.1897 316.55662,664.98074 319.04875,662.65896 C 320.30683,661.48688 322.20325,660.2527 323.26301,659.91635 C 324.32277,659.57999 326.83094,658.1822 328.83672,656.81014 C 334.22097,653.12703 343.9836,648.3384 343.9836,649.38051 C 343.9836,649.87786 341.8635,651.28134 339.27226,652.49937 C 336.68102,653.71739 332.17228,656.24195 329.25284,658.1095 C 326.3334,659.97704 323.6114,661.50503 323.20396,661.50503 C 322.79652,661.50503 321.2499,662.63003 319.76703,664.00503 C 318.28415,665.38003 316.71375,666.46834 316.27724,666.4235 C 315.84074,666.37867 312.5586,665.73918 308.9836,665.00244 z M 275.4836,661.87695 C 273.8336,661.69632 267.3086,661.06009 260.9836,660.46311 C 247.76659,659.21564 238.72396,657.41226 231.22287,654.52791 C 228.32947,653.41533 225.22036,652.50503 224.31374,652.50503 C 222.69151,652.50503 211.80268,644.89817 211.14819,643.30766 C 210.96371,642.85936 210.40637,642.74374 209.90964,643.05074 C 209.41292,643.35773 209.27351,642.91312 209.59984,642.06271 C 209.92617,641.2123 210.55758,640.74174 211.00298,641.017 C 211.44837,641.29227 211.99403,640.97373 212.21557,640.30913 C 212.49314,639.47642 217.88226,638.82607 229.55098,638.21713 C 255.37458,636.86949 256.36521,636.43177 257.79863,625.73567 C 258.44214,620.93382 259.85623,614.67923 260.94106,611.83659 C 262.02588,608.99395 263.80511,602.69395 264.89489,597.83659 C 265.98466,592.97923 268.25936,582.92408 269.94976,575.49181 C 271.64015,568.05954 273.49172,557.70954 274.06434,552.49181 C 274.68748,546.81374 275.88395,541.5452 277.04453,539.36888 C 279.34667,535.05189 279.41218,534.50503 277.6272,534.50503 C 276.67138,534.50503 276.07384,532.3639 275.60389,527.25503 C 275.2371,523.26753 274.28473,517.30503 273.48753,514.00503 C 272.69033,510.70503 271.57148,502.60503 271.00121,496.00503 C 270.43094,489.40503 269.54633,481.53003 269.03541,478.50503 C 267.59894,470.00014 266.52987,435.80892 267.7378,437.00503 C 268.30163,437.56334 269.01256,446.39717 269.34735,457.00503 C 269.69089,467.89005 270.59547,478.9946 271.4653,483.00466 C 272.30037,486.85445 272.9836,493.01911 272.9836,496.70389 C 272.9836,500.38868 273.92514,508.26385 275.07591,514.20427 C 276.22668,520.14469 277.17168,526.43665 277.17591,528.18641 C 277.18026,529.9849 277.79216,531.60133 278.5836,531.90503 C 279.46001,532.24134 279.9836,531.77749 279.9836,530.66477 C 279.9836,529.68716 280.64429,528.01378 281.4518,526.94616 C 282.2593,525.87854 282.93696,523.65503 282.95769,522.00503 C 282.97843,520.35503 283.68442,514.50503 284.52656,509.00503 C 285.36871,503.50503 286.47519,494.50503 286.9854,489.00503 C 287.49562,483.50503 288.56634,476.53335 289.36478,473.51241 C 290.45655,469.38167 290.52728,467.84104 289.65005,467.29888 C 289.0085,466.90239 288.46765,466.22407 288.44816,465.7915 C 288.42868,465.35894 287.85034,463.99253 287.16298,462.75503 C 286.47562,461.51753 286.29742,460.50503 286.76699,460.50503 C 287.23656,460.50503 288.32794,461.96753 289.19228,463.75503 C 290.76381,467.00503 290.76381,467.00503 291.47399,464.00503 C 293.41424,455.80879 294.2921,453.10793 294.67246,454.16444 C 294.90204,454.80211 293.90532,460.42711 292.45753,466.66444 C 291.00974,472.90176 289.39485,481.38003 288.86889,485.50503 C 287.0411,499.84001 285.82681,510.0558 284.91165,518.79738 C 284.40538,523.63317 283.30291,528.92067 282.4617,530.54738 C 281.6205,532.17409 281.2813,533.51192 281.70792,533.52034 C 282.13454,533.52876 282.0336,533.86626 281.4836,534.27034 C 279.30177,535.8733 276.76012,543.33611 275.96355,550.47832 C 275.00956,559.03201 273.30303,569.17545 272.63388,570.26951 C 272.38646,570.67404 270.75217,577.98003 269.00213,586.50503 C 267.25209,595.03003 264.75146,605.15503 263.44518,609.00503 C 261.33107,615.23594 259.208,625.39423 258.53371,632.50503 C 258.40333,633.88003 258.22621,635.31063 258.14012,635.68413 C 257.77096,637.28582 244.51247,638.97387 224.00071,640.0307 C 218.23511,640.32777 213.17178,640.91685 212.74886,641.33977 C 211.76342,642.32521 223.46397,650.61704 226.32362,650.9598 C 227.51161,651.10219 230.2836,652.00414 232.4836,652.96413 C 243.74597,657.87854 273.75717,661.51452 278.01769,658.48076 C 288.54961,650.98137 285.36277,642.28669 271.6221,641.03158 C 267.29827,640.63663 261.89827,639.68861 259.6221,638.92487 C 257.34592,638.16112 256.6086,637.72672 257.9836,637.95952 C 269.21105,639.86048 281.34225,640.54517 282.11807,639.3217 C 282.57727,638.59753 282.95987,638.39763 282.96829,638.87747 C 282.97671,639.35732 283.65365,639.19383 284.47259,638.51417 C 285.29153,637.8345 285.672,636.80988 285.31808,636.23721 C 284.96416,635.66455 285.14189,635.48482 285.71304,635.83781 C 286.93692,636.59421 288.52101,632.96081 289.99993,626.00503 C 290.58463,623.25503 293.02507,615.15503 295.42314,608.00503 C 297.8212,600.85503 300.98475,589.83003 302.45325,583.50503 C 303.92174,577.18003 305.79217,569.98003 306.60976,567.50503 C 309.27702,559.43072 309.93551,556.0899 309.96053,550.50503 C 309.97845,546.50656 310.8044,543.27335 312.98592,538.66201 C 314.63632,535.17335 315.69144,531.84132 315.33062,531.2575 C 314.9698,530.67368 315.11357,530.46732 315.6501,530.79892 C 317.25733,531.79224 320.13191,522.09274 320.99877,512.7513 C 321.61052,506.159 323.0891,500.43408 327.00259,489.50503 C 337.10313,461.29768 340.19597,449.00286 339.5804,439.50503 C 339.17039,433.17883 338.54552,432.65224 333.11888,434.0599 C 317.93075,437.99965 284.93172,439.35811 274.8254,436.45966 C 272.99467,435.93461 270.28933,435.50503 268.81353,435.50503 C 265.48126,435.50503 265.01523,433.67871 266.64453,427.00503 C 269.3207,416.04336 270.79954,406.83021 270.41661,403.50503 C 266.45365,369.09263 262.52212,355.89213 258.75516,364.35058 C 252.70782,377.92947 249.1868,388.66714 249.68692,392.00503 C 250.21386,395.52193 245.295,407.23941 232.47563,433.00503 C 225.45932,447.10708 223.84193,451.26075 222.98765,457.37138 C 221.88442,465.26278 221.45354,466.50503 219.81961,466.50503 C 219.24433,466.50503 216.74202,467.87616 214.25892,469.55199 C 211.77581,471.22781 209.55227,472.40703 209.3177,472.17247 C 208.70288,471.55765 217.14124,465.50503 218.61322,465.50503 C 222.55576,465.50503 222.66384,449.41041 218.7324,447.75736 C 210.27263,444.2003 205.03706,452.41733 207.90215,464.75503 C 208.3811,466.81753 208.42662,468.50503 208.00329,468.50503 C 204.91014,468.50503 205.43754,453.76926 208.70185,448.98716 C 210.19688,446.79699 211.50504,443.43003 211.60887,441.50503 C 211.82682,437.46438 215.93381,421.55082 218.83515,413.50503 C 219.92598,410.48003 222.63277,402.92685 224.85023,396.72018 C 227.06769,390.51352 230.77494,382.00614 233.08856,377.8149 C 235.40217,373.62366 236.77504,370.5159 236.13937,370.90876 C 234.52552,371.90617 234.51536,371.94978 239.08324,358.27661 C 250.29511,324.71581 254.96981,316.85309 265.38968,314.02987 C 277.54297,310.73699 281.01852,309.37151 280.2994,308.17209 C 278.22055,304.70476 283.76187,310.75615 286.97736,315.46474 C 294.09133,325.88206 294.65055,326.12941 302.08504,322.14724 C 325.9613,309.3583 326.93984,308.62235 322.92506,306.4737 C 321.17869,305.53907 320.12988,305.80422 316.76498,308.03101 C 309.09146,313.1091 294.58328,312.54731 289.97412,306.9936 C 288.93935,305.74679 288.40716,305.75176 285.93267,307.03137 C 282.70481,308.70056 281.9836,308.83037 281.9836,307.74216 C 281.9836,307.32258 282.9961,306.51861 284.2336,305.95556 C 285.4711,305.39251 286.3765,304.402 286.2456,303.75442 C 286.11052,303.0862 286.65111,302.82395 287.4956,303.14801 C 288.61617,303.57801 288.9836,302.95181 288.9836,300.61202 C 288.9836,297.8906 288.64234,297.50434 286.2336,297.49945 C 279.35359,297.4855 276.10229,295.67244 274.96524,291.21575 C 274.37438,288.89985 273.01179,284.11675 271.93727,280.58662 C 270.86275,277.0565 269.9836,273.209 269.9836,272.03662 C 269.9836,270.86425 269.60798,269.47753 269.14888,268.95503 C 268.10171,267.76323 265.33344,259.98974 264.53236,255.99154 C 264.16184,254.14223 264.6788,250.79751 265.87051,247.33374 C 267.41754,242.83721 267.62082,240.83661 266.87016,237.49565 C 265.28205,230.42749 266.37307,215.17897 268.70506,211.85033 C 269.80142,210.28541 270.54186,208.55503 270.35049,208.00503 C 269.38322,205.22501 284.97346,198.00325 296.06262,196.09458 C 307.20719,194.17637 326.69644,202.05373 330.41138,209.978 C 333.3661,216.28067 334.34047,218.81198 334.15743,219.70981 C 334.0784,220.09744 335.31475,221.83902 336.90488,223.57998 C 341.39584,228.49696 341.53433,252.26358 337.11388,259.44773 C 335.53449,262.01456 333.90584,265.21502 333.49465,266.55986 C 331.74299,272.2889 327.30542,274.23028 324.64471,270.43159 C 323.00033,268.0839 322.52693,268.54375 321.48076,273.50503 C 320.0264,280.40205 318.48401,281.9065 304.63699,289.93447 C 287.39314,299.93179 285.62753,304.09887 296.72677,308.60372 C 310.40553,314.15553 319.4537,308.24664 319.56294,293.69063 C 319.61071,287.32441 320.05638,282.98077 320.68324,282.77182 C 321.37398,282.54157 321.6152,285.97094 321.4002,292.96493 C 321.222,298.76198 321.46279,303.50503 321.93529,303.50503 C 322.40778,303.50503 324.64234,305.04896 326.90097,306.936 C 329.73504,309.30379 332.78563,310.72408 336.74559,311.51942 C 347.93836,313.76744 362.29784,318.59079 361.1663,319.72233 C 360.41167,320.47696 359.13404,320.34584 356.79196,319.2734 C 350.80759,316.53314 344.59473,314.70321 336.9836,313.43906 C 332.8586,312.75393 328.8096,311.8457 327.98581,311.42078 C 327.08339,310.95529 325.29467,311.38178 323.48581,312.49374 C 296.24066,329.24215 294.36421,329.51185 286.32226,317.8353 C 284.30316,314.90365 282.24941,312.50503 281.75837,312.50503 C 281.26733,312.50503 281.16421,312.02181 281.52923,311.43121 C 281.99131,310.68354 281.62956,310.65768 280.33824,311.34605 C 279.31819,311.88982 275.3336,313.1145 271.4836,314.06756 C 257.81171,317.45203 256.83463,318.23976 251.97074,329.79896 C 249.60876,335.4123 246.90374,341.80503 245.95959,344.00503 C 243.06964,350.73903 238.63558,365.86612 238.8139,368.38302 C 238.90657,369.69092 237.22497,373.96592 235.07701,377.88302 C 232.92906,381.80013 229.82716,388.83003 228.1839,393.50503 C 226.54064,398.18003 224.0388,404.93003 222.62426,408.50503 C 217.26601,422.04703 214.73581,435.50503 217.54807,435.50503 C 219.66144,435.50503 224.9836,438.64723 224.9836,439.89496 C 224.9836,440.85669 223.96405,440.90186 220.4836,440.09436 C 218.0086,439.52013 215.9836,438.70262 215.9836,438.27767 C 215.9836,437.85272 215.5336,437.50503 214.9836,437.50503 C 214.4336,437.50503 213.9836,438.87799 213.9836,440.55606 C 213.9836,443.61354 218.09404,446.50503 222.44045,446.50503 C 225.67009,446.50503 246.73351,400.77456 248.0037,391.00503 C 248.85815,384.43315 252.31435,374.2649 257.53639,362.95955 C 259.38902,358.94874 261.20158,354.48473 261.5643,353.03953 C 262.24175,350.34035 263.20005,350.3721 263.60145,353.10702 C 264.3398,358.13777 266.27989,369.65683 267.03696,373.50503 C 267.52388,375.98003 268.21049,380.25503 268.56276,383.00503 C 268.91502,385.75503 270.02273,391.60503 271.02432,396.00503 C 272.70595,403.39238 272.73073,404.61768 271.34799,412.00503 C 268.46401,427.41272 268.44215,429.12701 271.12042,429.85427 C 280.40061,432.37421 325.9836,431.09802 325.9836,428.31826 C 325.9836,427.79686 326.87957,427.65463 327.97465,428.00219 C 329.06973,428.34975 330.53223,428.27947 331.22465,427.84601 C 331.91707,427.41254 333.1586,427.046 333.9836,427.03146 C 336.07691,426.99458 335.72534,423.68217 332.49485,413.00503 C 328.67696,400.38644 328.84642,398.36632 335.31701,379.3628 C 338.43364,370.20957 340.9836,361.33619 340.9836,359.64418 C 340.9836,357.27713 341.34078,356.70486 342.53269,357.16224 C 343.38469,357.48919 343.92017,358.48756 343.72264,359.38086 C 343.52511,360.27415 344.39703,363.8119 345.66024,367.24251 C 350.71129,380.96008 355.20263,392.05474 356.06919,392.95503 C 356.57212,393.47753 356.99051,397.97753 356.99895,402.95503 C 357.00841,408.52789 357.74792,414.88664 358.92368,419.50503 C 367.14774,451.80905 365.81231,449.06283 372.34149,447.09784 C 380.63844,444.60082 381.95827,443.24848 381.45262,437.76228 C 381.21146,435.14579 380.51377,427.60503 379.90219,421.00503 C 379.29061,414.40503 377.7001,404.73003 376.36773,399.50503 C 375.03535,394.28003 373.0565,383.93003 371.97028,376.50503 C 369.129,357.08307 363.44816,327.24158 362.11953,324.75901 C 360.72685,322.15677 360.66323,320.50503 361.95567,320.50503 C 363.88234,320.50503 368.01784,339.43177 372.55292,369.00503 C 373.94432,378.07836 375.95942,388.29286 379.65495,405.00503 C 380.38467,408.30503 381.64408,419.23937 382.45364,429.30356 C 383.26319,439.36775 384.19017,448.03025 384.51359,448.55356 C 384.83702,449.07687 384.15924,449.50503 383.00743,449.50503 C 381.24692,449.50503 381.07816,449.8132 381.94829,451.43905 C 384.7036,456.5874 386.04636,467.48224 384.33561,470.80923 C 381.76882,475.80103 374.11018,485.37154 371.68026,486.62382 C 369.95201,487.51449 370.15072,487.03612 372.61215,484.38046 C 378.83395,477.66769 383.84113,469.19835 383.47632,466.00437 C 382.69219,459.13908 381.67233,454.50503 380.94555,454.50503 C 380.51946,454.50503 380.40811,453.5977 380.69811,452.48875 C 381.22538,450.47247 381.22538,450.47247 376.52158,452.48875 C 373.9345,453.5977 370.96268,454.50503 369.91754,454.50503 C 364.5029,454.50503 361.74182,467.33699 364.94319,477.62301 C 367.06948,484.45479 366.86301,486.90833 364.62463,481.40857 C 360.72558,471.82851 360.5283,465.04426 363.97366,459.02241 C 366.32782,454.90776 366.88966,453.09676 366.10524,452.1516 C 365.5194,451.4457 364.15216,447.29894 363.06694,442.93659 C 361.98171,438.57423 360.39063,432.53003 359.5312,429.50503 C 356.46394,418.70901 354.98522,409.89166 354.98442,402.39335 C 354.98375,396.13742 354.46816,393.6438 352.08973,388.39335 C 350.49811,384.87977 347.99284,378.40503 346.52248,374.00503 C 342.98819,363.42884 342.74305,363.32783 339.77473,371.22486 C 330.29046,396.45711 329.79715,405.82688 337.12756,421.50503 C 337.77045,422.88003 338.46001,425.74543 338.65992,427.87259 C 338.85983,429.99975 339.87074,432.81739 340.90639,434.13401 C 342.37566,436.00188 342.60863,437.23943 341.9667,439.76644 C 341.51422,441.54767 340.68199,446.66844 340.11731,451.14594 C 339.524,455.85031 337.13682,464.92616 334.46224,472.64594 C 331.91664,479.99344 329.21411,488.03003 328.45661,490.50503 C 327.69911,492.98003 326.21098,497.70503 325.14965,501.00503 C 324.08831,504.30503 322.74534,511.1767 322.16527,516.2754 C 321.37078,523.25884 320.28651,527.25392 317.77002,532.47002 C 314.912,538.39405 314.61788,539.65198 315.73391,541.17823 C 325.73602,554.85694 330.48202,566.77697 332.96483,584.4554 C 334.18528,593.14541 336.83787,601.33712 341.25218,610.04834 C 343.99994,615.47079 346.15971,626.85474 345.02345,629.92634 C 344.62088,631.01459 344.92203,633.07889 345.71535,634.66914 C 347.81556,638.87909 348.34254,647.50503 346.49953,647.50503 C 345.61343,647.50503 345.27282,646.9149 345.62669,645.99275 C 346.43561,643.88473 345.15661,636.12389 343.66384,634.08241 C 342.5062,632.49924 341.94285,632.52205 334.95487,634.43509 C 325.39981,637.0509 317.57065,638.50924 318.64642,637.47288 C 319.10687,637.0293 323.40779,635.74167 328.20403,634.61148 C 346.29818,630.34774 347.53198,627.37415 338.8919,608.85246 C 334.03198,598.43426 332.40344,593.16635 331.51964,585.00503 C 330.09679,571.866 324.6906,555.26048 322.48635,557.25862 C 322.03348,557.66915 322.00298,557.41611 322.41858,556.69631 C 322.86659,555.92039 322.14518,553.88482 320.64657,551.69631 C 319.25636,549.66611 317.57267,546.78164 316.90503,545.28639 C 316.23739,543.79113 315.23742,542.84816 314.68286,543.1909 C 314.05191,543.58085 313.99135,543.28844 314.52105,542.40954 C 315.21207,541.26296 315.08837,541.23087 313.8475,542.23477 C 312.87537,543.02126 312.24559,545.48891 312.10027,549.08087 C 311.9753,552.16986 310.28893,560.61648 308.35279,567.85113 C 301.5299,593.34578 301.85233,591.10982 304.16735,596.87569 C 305.30005,599.69683 306.79503,604.03003 307.48953,606.50503 C 308.18403,608.98003 310.42911,615.50503 312.47859,621.00503 C 314.52807,626.50503 316.23012,631.56753 316.26093,632.25503 C 316.29173,632.94253 316.69193,633.50503 317.15027,633.50503 C 317.6086,633.50503 317.9836,633.99253 317.9836,634.58836 C 317.9836,640.32129 314.64175,632.63205 306.86474,609.00503 C 302.39176,595.41584 301.42006,593.58817 300.57183,597.1686 C 300.20224,598.72864 297.8937,606.17627 295.44173,613.71889 C 292.98976,621.26151 290.9836,628.27988 290.9836,629.31525 C 290.9836,631.93599 287.98447,637.7467 285.83528,639.28993 C 284.02751,640.588 283.76845,646.72986 285.40947,649.38509 C 286.20655,650.67479 283.12959,656.15795 280.03947,658.95447 C 278.93468,659.95429 278.27171,661.16218 278.5662,661.63868 C 278.86069,662.11517 278.96258,662.43761 278.79262,662.3552 C 278.62266,662.27279 277.1336,662.05758 275.4836,661.87695 z M 378.56428,449.46597 C 381.07703,448.24957 382.76181,446.89473 382.30825,446.45521 C 381.446,445.61964 367.29764,449.98342 367.7336,450.95047 C 367.8711,451.25548 367.9836,451.75705 367.9836,452.06507 C 367.9836,453.14424 374.03846,451.65688 378.56428,449.46597 z M 308.4836,435.95282 C 326.52487,433.79976 329.33949,433.38023 333.2336,432.26368 C 335.74444,431.54375 336.9836,430.6052 336.9836,429.42339 C 336.9836,427.84226 336.69702,427.79685 334.2336,428.98768 C 329.26298,431.3905 311.29059,432.73952 289.23331,432.36543 C 277.54565,432.16721 267.98315,432.31063 267.98331,432.68413 C 267.98398,434.25359 295.8244,437.83731 300.9836,436.93206 C 301.8086,436.7873 305.1836,436.34664 308.4836,435.95282 z M 302.46319,289.02284 C 307.95196,285.43804 313.02107,282.50503 313.72789,282.50503 C 315.41335,282.50503 318.97509,276.61106 318.97986,273.81405 C 318.98192,272.60901 319.46428,271.32599 320.05177,270.9629 C 320.63927,270.5998 320.86942,269.64987 320.56323,268.85194 C 320.25703,268.05401 320.41508,267.65366 320.91443,267.96228 C 321.41379,268.2709 322.53493,267.81084 323.40585,266.93992 C 325.09099,265.25478 325.02578,265.18545 326.5647,270.29815 C 327.23266,272.51731 330.9836,269.75724 330.9836,267.04657 C 330.9836,265.73312 332.04174,263.38645 333.33503,261.83175 C 337.44567,256.89024 338.28194,254.33957 338.14914,247.14842 C 338.07866,243.33179 337.87391,240.062 337.69413,239.88223 C 337.09691,239.285 330.98282,251.97344 330.98321,253.80926 C 330.98381,256.59385 325.31081,262.23224 323.91396,260.83539 C 323.07171,259.99314 323.29202,259.54192 324.77539,259.07111 C 325.87161,258.72319 327.29695,256.99099 327.94282,255.22178 C 328.58868,253.45257 331.07909,247.90299 333.47705,242.88938 C 337.74819,233.95939 338.32403,230.72266 336.28867,227.08568 C 335.43773,225.56513 335.17227,225.92371 334.62769,229.32932 C 334.23751,231.76937 332.18956,235.89477 329.48247,239.69389 C 327.00909,243.16502 324.00866,248.03003 322.81485,250.50503 C 320.64429,255.00503 320.64429,255.00503 319.3106,241.08502 C 318.57707,233.42901 317.76429,226.95238 317.50442,226.69252 C 316.81407,226.00217 313.98493,228.55585 313.9759,229.87747 C 313.9565,232.71761 300.01929,238.35041 292.7336,238.46266 C 288.54263,238.52723 289.45455,236.7184 294.2336,235.48732 C 305.01739,232.70943 308.18675,231.23292 313.2336,226.6358 C 316.60354,223.56615 316.83427,221.45399 313.7336,222.05861 C 311.26487,222.54001 307.6145,223.14178 301.4836,224.07807 C 293.44472,225.30573 280.32809,225.99259 274.23346,225.50503 C 265.67126,224.82007 264.56549,229.13783 272.7336,231.36156 C 279.54999,233.21729 281.9836,234.31369 281.9836,235.5289 C 281.9836,236.78951 276.11649,235.91592 271.22968,233.92769 C 267.97576,232.60381 267.97576,232.60381 268.61884,236.80442 C 269.40165,241.91781 269.42075,241.94093 273.00961,242.12143 C 277.22297,242.33333 280.9836,243.41396 280.9836,244.41279 C 280.9836,245.65997 274.31547,246.73683 271.04315,246.01811 C 266.18147,244.95031 265.01819,252.00485 268.47322,261.60307 C 269.93867,265.67415 271.48263,270.36562 271.90425,272.02856 C 272.32586,273.69149 273.13368,275.94149 273.69939,277.02856 C 274.26511,278.11562 275.03931,281.25503 275.41984,284.00503 C 277.43229,298.54855 285.56708,300.05793 302.46319,289.02284 z M 280.9836,280.61444 C 280.9836,279.56927 288.02672,278.52174 289.47352,279.35173 C 290.01797,279.66407 289.34297,280.23148 287.97352,280.61264 C 284.31345,281.63136 280.9836,281.63221 280.9836,280.61444 z M 278.33568,277.00503 C 278.79581,275.69193 292.85495,275.97638 294.20467,277.3261 C 294.92111,278.04254 292.57289,278.308 286.61363,278.18423 C 281.36836,278.07529 278.12266,277.61294 278.33568,277.00503 z M 277.01256,269.54409 C 274.56268,267.99474 276.39342,267.45518 281.11033,268.33639 C 286.38261,269.32136 289.31206,268.27432 290.87377,264.84673 C 291.48886,263.49677 292.44019,262.66919 292.98785,263.00766 C 294.13629,263.71743 294.36053,268.58618 293.2336,268.34355 C 292.8211,268.25473 291.21681,268.70473 289.6685,269.34355 C 286.30476,270.73139 279.0712,270.84601 277.01256,269.54409 z M 291.9836,247.76385 C 289.52547,246.808 287.96,244.15464 289.17592,243.00503 C 289.88675,242.33296 290.3839,242.41495 290.69193,243.25503 C 290.94402,243.94253 291.78777,244.50503 292.56693,244.50503 C 293.3461,244.50503 293.99049,243.94253 293.99891,243.25503 C 294.00912,242.4217 294.33735,242.50503 294.9836,243.50503 C 295.51676,244.33003 295.95987,244.5061 295.96829,243.89629 C 295.97846,243.15944 298.07999,242.92718 302.2336,243.20384 C 311.24872,243.80432 312.13008,244.31602 307.9836,246.54215 C 304.56061,248.37985 295.37203,249.08146 291.9836,247.76385 z M 300.7336,245.8157 C 299.7711,245.56418 298.1961,245.56418 297.2336,245.8157 C 296.2711,246.06723 297.0586,246.27303 298.9836,246.27303 C 300.9086,246.27303 301.6961,246.06723 300.7336,245.8157 z M 323.97177,243.52713 C 324.55397,242.43928 326.0914,240.48814 327.38829,239.19125 C 340.99023,225.58931 330.39672,203.67726 307.9836,199.05379 C 295.51304,196.48132 294.8663,196.61042 280.15006,204.60969 C 268.24515,211.08081 264.10721,221.95832 273.26219,222.71601 C 274.75897,222.83989 275.9836,223.2931 275.9836,223.72314 C 275.9836,225.06931 283.90763,224.60367 300.33495,222.29219 C 319.64496,219.57509 319.99027,219.88836 321.2359,241.25356 C 321.5065,245.89494 322.33575,246.58406 323.97177,243.52713 z M 311.23495,367.7872 C 310.27667,367.44343 310.33481,366.8417 311.48495,365.19964 C 312.30921,364.02285 312.9836,362.29643 312.9836,361.36315 C 312.9836,354.70344 322.52026,332.82858 323.05791,338.25503 C 323.51953,342.91407 328.54842,358.27575 330.30484,360.3921 C 331.67747,362.04602 331.2898,365.68497 329.63054,366.72156 C 328.59866,367.36621 323.55517,362.64787 320.84778,358.50503 C 320.08776,357.34205 319.74673,357.29418 319.32991,358.29198 C 319.03423,358.9998 317.71034,360.86476 316.38795,362.43633 C 315.06556,364.00791 313.9836,365.76472 313.9836,366.34037 C 313.9836,367.71637 312.78954,368.34489 311.23495,367.7872 z M 318.97181,355.52274 C 319.66512,354.31552 320.41065,354.65527 322.98924,357.35352 C 324.73062,359.1757 326.29183,360.51773 326.45861,360.33581 C 326.72107,360.0495 323.11952,345.37606 321.88277,341.6929 C 321.47986,340.49299 314.94213,358.01722 315.0154,360.10071 C 315.04717,361.00397 317.3626,358.32478 318.97181,355.52274 z "
         style="fill:#000000" />
    </g>
    <path
       style="fill:#00ccff;fill-opacity:1;stroke:#000000;stroke-width:2;stroke-miterlimit:1;stroke-opacity:0"
       d="M 350.09315,377.92792 L 366.40876,392.85646 L 402.27464,380.13745 L 426.61133,386.06027 L 431.40051,405.24128 L 430.2562,466.59385 L 411.13323,484.33903 L 418.38048,502.44393 L 372.35645,508.47402 L 358.92866,507.13187 C 364.51516,499.7025 349.04762,506.38337 339.8186,504.36916 L 341.30677,488.11106 L 341.37437,474.69409 L 331.53365,429.71312 L 324.01915,398.04474 L 350.09315,377.92792 z "
       id="path3587"
       sodipodi:nodetypes="cccccccccccccccc"
       inkscape:export-filename="/home/rover/herobot/arte/pre/alien-0-01.png"
       inkscape:export-xdpi="18.800928"
       inkscape:export-ydpi="18.800928" />
    <path
       style="fill:#4d4d4d;fill-opacity:1;stroke:#000000;stroke-width:2;stroke-miterlimit:1;stroke-opacity:0"
       d="M 353.10244,379.78232 L 367.43032,383.00753 L 380.5108,382.77114 L 388.8634,377.80686 C 389.58467,377.45525 406.6562,381.07423 391.84216,384.54135 L 369.14831,400.42577 L 362.74239,400.2887 L 347.37346,383.56187 L 353.10244,379.78232 z "
       id="path3585"
       sodipodi:nodetypes="ccccccccc"
       inkscape:export-filename="/home/rover/herobot/arte/pre/alien-0-01.png"
       inkscape:export-xdpi="18.800928"
       inkscape:export-ydpi="18.800928" />
    <path
       style="fill:#aaffaa;fill-opacity:1;stroke:#000000;stroke-width:2;stroke-miterlimit:1;stroke-opacity:0"
       d="M 344.11361,513.47758 L 355.3188,503.59286 L 362.40918,506.54649 C 365.70342,510.49935 374.88751,506.70317 356.82255,525.02701 L 342.15288,530.60648 L 339.36482,531.39961 L 344.11361,513.47758 z "
       id="path3593"
       sodipodi:nodetypes="ccccccc"
       inkscape:export-filename="/home/rover/herobot/arte/pre/alien-0-01.png"
       inkscape:export-xdpi="18.800928"
       inkscape:export-ydpi="18.800928" />
    <path
       style="fill:#ffffff;fill-opacity:1;stroke:#000000;stroke-width:2;stroke-miterlimit:1;stroke-opacity:0"
       d="M 387.92702,422.30517 L 393.23508,411.13031 L 393.88695,415.414 L 396.12192,422.67766 L 400.03312,436.45999 L 390.90698,429.38258 L 383.64332,434.59751 L 387.92702,422.30517 z "
       id="path3604"
       sodipodi:nodetypes="cccccccc"
       inkscape:export-filename="/home/rover/herobot/arte/pre/alien-0-01.png"
       inkscape:export-xdpi="18.800928"
       inkscape:export-ydpi="18.800928" />
    <path
       style="fill:#000000"
       d="M 395.05073,745.31385 C 394.97879,743.71925 393.83392,742.92793 391.59879,742.92793 C 388.0663,742.92793 381.30707,740.32042 381.31254,738.9598 C 381.31432,738.51777 385.33589,735.70203 390.24939,732.70259 C 396.52263,728.87309 400.48019,725.23229 403.53908,720.47661 C 409.41852,711.33577 412.77423,703.65292 411.12713,703.10389 C 410.39269,702.85907 409.65636,701.73616 409.49086,700.60852 C 408.86454,696.34113 388.21103,670.4555 386.35014,671.6056 C 385.51531,672.12156 385.40907,671.75628 386.07877,670.67268 C 386.73955,669.60351 386.40181,668.29341 385.23365,667.39443 C 382.68141,665.43033 374.05145,652.02367 371.97242,646.79309 C 369.97171,641.75963 364.12175,634.25055 363.03702,635.32351 C 362.60098,635.75482 361.8887,639.43594 361.45415,643.50379 C 359.27886,663.86706 352.94692,683.89605 346.97643,689.29928 C 345.41223,690.71486 344.49808,693.44609 344.49808,696.7039 C 344.49808,699.54286 343.96684,702.19397 343.31754,702.59527 C 342.66825,702.99654 342.42217,704.81665 342.77072,706.63991 C 343.23748,709.08158 342.7403,710.08345 340.88366,710.44262 C 338.69949,710.86515 338.36287,712.29297 338.36287,721.13474 C 338.36287,729.8586 337.87552,731.98896 335.00404,735.81731 C 333.15667,738.28027 330.333,740.62477 328.72918,741.02729 C 327.12536,741.42983 319.74079,741.0673 312.31902,740.22168 C 304.89725,739.37606 294.83702,738.38593 289.96294,738.02141 C 274.17685,736.84078 267.53295,734.08064 265.09348,727.6896 C 263.81523,724.34076 266.59168,722.8165 274.28408,722.64399 C 284.98427,722.40404 290.96893,721.32285 295.91912,718.73543 C 317.44667,707.4832 316.82711,707.94925 316.17387,703.49836 C 315.7382,700.53002 316.19217,699.08949 317.75194,698.49098 C 318.95624,698.02884 319.6349,697.15446 319.26006,696.54794 C 318.88522,695.94143 319.47796,691.55769 320.57729,686.80632 C 321.67662,682.05494 323.52237,670.49844 324.67897,661.12521 C 325.83556,651.75199 327.48577,641.62889 328.34609,638.62945 C 329.20642,635.63003 329.81725,627.88776 329.70352,621.42444 C 329.54772,612.5714 330.13164,608.19984 332.07095,603.70052 C 334.27101,598.59624 334.7707,592.77358 335.50857,563.64363 C 336.30978,532.01327 338.28472,511.43536 340.75465,508.98207 C 341.32027,508.42026 341.39027,510.82634 340.91019,514.3289 C 340.313,518.68582 340.52646,520.6972 341.58602,520.6972 C 342.43778,520.6972 343.1347,519.5529 343.1347,518.15431 C 343.1347,516.75572 344.34165,514.07703 345.8168,512.20167 C 348.95448,508.21275 348.26859,507.06341 342.75038,507.06341 L 338.73037,507.06341 L 339.91001,499.22398 C 341.72044,487.1924 341.16815,471.86606 338.57309,462.1241 C 337.28237,457.27873 335.78677,452.98409 335.24954,452.58045 C 334.71229,452.17683 334.13791,451.13535 333.97314,450.26608 C 333.80836,449.39681 333.33865,446.7847 332.92935,444.46139 C 332.52003,442.1381 330.10252,432.18346 327.5571,422.33999 C 320.9947,396.96236 321.58744,394.77514 337.09633,387.14014 C 342.46391,384.49768 345.54199,382.21866 344.97732,381.305 C 344.36843,380.31981 344.88785,380.12703 346.49229,380.74271 C 349.68472,381.96775 352.67835,379.38752 352.67835,375.41088 C 352.67835,373.67232 353.29187,371.87067 354.04173,371.40722 C 354.85257,370.90611 355.40511,372.52056 355.40511,375.39092 C 355.40511,380.56001 355.24068,380.45962 366.74493,382.31473 C 370.06165,382.84957 374.44534,382.32504 378.82996,380.8687 L 385.71036,378.5834 L 385.09709,371.18812 C 384.75978,367.12072 384.99659,363.47593 385.62332,363.08858 C 386.25004,362.70125 386.76282,365.20319 386.76282,368.64845 C 386.76282,374.72544 386.93591,374.98563 392.55718,377.35828 C 395.74408,378.70342 404.17998,380.87698 411.30364,382.18841 C 427.60511,385.18943 429.23063,385.65453 428.35718,387.0678 C 427.96669,387.69961 428.30313,388.43521 429.10484,388.70245 C 429.90654,388.96969 430.8808,391.01603 431.26984,393.24987 C 432.51446,400.39644 431.60846,463.88707 430.22498,466.47215 C 428.96367,468.82892 419.03796,478.50917 414.42143,481.88484 C 412.4658,483.31484 412.52186,484.31076 415.01841,492.48986 C 416.53384,497.4546 417.60267,503.22483 417.39362,505.31258 C 417.18456,507.40031 416.59888,514.63016 416.09211,521.37889 C 415.58533,528.12761 414.56452,536.41013 413.82361,539.7845 C 413.08271,543.15886 412.24624,547.45351 411.96479,549.32815 C 411.68333,551.2028 410.90035,554.57716 410.22482,556.82674 C 409.54928,559.07631 409.26456,561.69733 409.59207,562.6512 C 409.91959,563.60508 408.84379,568.80961 407.2014,574.21681 C 405.55902,579.62402 404.04092,586.38543 403.82785,589.24217 C 403.61479,592.09891 402.51563,595.48368 401.38528,596.76386 C 398.92789,599.54699 397.12648,609.00565 397.42709,617.5471 C 397.62313,623.11731 398.45939,624.59106 405.83758,632.36901 C 410.34363,637.1192 414.03039,641.45976 414.03039,642.01469 C 414.03039,642.56962 416.33718,647.24989 419.15659,652.41528 C 421.97599,657.58067 425.48367,664.56774 426.95141,667.9421 C 428.41917,671.31647 431.42705,677.06812 433.63561,680.72354 C 436.83631,686.02112 437.34702,687.8568 436.15238,689.76975 C 434.94567,691.70201 435.29571,692.77293 437.94878,695.26535 C 442.14132,699.20403 446.76692,708.02485 446.69975,711.95305 C 446.64648,715.06797 440.63898,720.16724 429.81201,726.28769 C 426.76791,728.00849 422.73865,730.84921 420.85808,732.60035 C 416.70821,736.46462 401.95457,744.28433 398.80599,744.28839 C 397.55624,744.28999 396.22425,745.05821 395.84603,745.99553 C 395.43522,747.01363 395.11503,746.73918 395.05073,745.31385 z M 408.49962,738.08338 C 412.58135,736.18339 420.07058,731.27611 425.14236,727.17831 C 430.21414,723.08049 436.53749,718.44523 439.19425,716.87769 C 445.38628,713.22431 445.37271,710.27126 439.11863,700.41679 L 434.2125,692.68632 L 429.91582,695.32807 C 427.55263,696.78104 423.38338,698.582 420.65082,699.33019 C 417.22129,700.26922 415.43927,701.6597 414.89715,703.81968 C 414.46519,705.54072 410.71953,712.18556 406.57343,718.58599 C 400.48444,727.98574 397.72425,730.9366 392.21726,733.93387 C 384.74338,738.00167 383.78767,739.70109 388.46704,740.60238 C 395.85707,742.02576 401.57485,741.30678 408.49962,738.08338 z M 333.62749,734.007 C 335.8983,730.33277 336.3672,727.64395 336.04101,720.16764 L 335.63612,710.88854 L 330.18261,710.14477 C 327.18317,709.73568 323.56679,708.74141 322.14618,707.93525 C 320.02286,706.73031 318.80991,707.20042 315.32929,710.57729 C 313.0006,712.83657 306.4939,716.80106 300.86997,719.38727 C 292.52759,723.22356 288.51305,724.21055 279.0692,724.74706 C 272.70271,725.10874 267.28538,725.61305 267.03069,725.86773 C 266.77601,726.12242 267.55508,727.83785 268.76198,729.67981 C 271.34792,733.62646 278.40951,735.26865 302.23335,737.46365 C 331.63842,740.17289 329.68376,740.3881 333.62749,734.007 z M 334.99589,706.45755 C 335.03472,704.2227 335.12332,704.21912 336.39533,706.40093 C 337.21344,707.8042 338.62803,708.39455 339.9536,707.88588 C 341.91872,707.1318 341.88701,706.8464 339.65695,705.21575 C 338.28364,704.21157 335.77969,703.38995 334.09263,703.38995 C 332.40555,703.38995 330.73938,702.92981 330.39001,702.36742 C 330.04065,701.80502 332.61189,701.34488 336.1039,701.34488 L 342.45301,701.34488 L 342.45301,696.12299 C 342.45301,692.52766 343.27737,690.2981 345.0995,688.96525 C 346.55508,687.90054 347.1686,687.02001 346.46288,687.00853 C 345.75718,686.99705 345.93118,686.51027 346.84957,685.92682 C 347.76796,685.34334 348.72355,683.52799 348.97311,681.89269 C 349.22268,680.25738 349.95005,678.44344 350.5895,677.86173 C 351.22896,677.28002 351.25223,677.66576 350.64122,678.71894 C 349.87045,680.04749 350.04072,680.31835 351.19726,679.60358 C 352.1141,679.03693 352.55013,677.75473 352.1662,676.75424 C 351.78227,675.75374 352.00838,674.74215 352.66866,674.50624 C 354.20715,673.95655 359.49524,648.05875 359.49524,641.07389 C 359.49524,638.15474 360.23585,635.02576 361.14104,634.12057 C 362.42651,632.8351 362.32678,632.01473 360.6855,630.37345 C 359.09959,628.78754 358.8101,626.7835 359.50526,622.20292 C 360.11692,618.17256 359.92644,616.11915 358.93825,616.09035 C 358.11982,616.0665 356.34536,615.20918 354.99504,614.18519 C 352.71424,612.45563 352.77756,612.33769 355.88674,612.52434 C 357.7275,612.63485 358.9495,613.1854 358.60226,613.7478 C 358.25504,614.31019 358.62067,614.77033 359.41478,614.77033 C 360.20889,614.77033 360.87807,612.16287 360.90181,608.97597 C 360.92558,605.78907 361.8112,597.04641 362.86987,589.54783 C 364.9492,574.8199 368.68544,547.20549 369.53732,540.26894 C 369.82693,537.91086 370.48298,535.3034 370.99522,534.47458 C 372.13535,532.6298 375.85579,532.47079 375.85579,534.26684 C 375.85579,536.40706 372.76786,542.51126 371.68519,542.51126 C 371.13179,542.51126 370.27509,546.95928 369.78138,552.39575 C 369.28767,557.83222 367.74645,569.94926 366.35641,579.32248 C 364.96637,588.69571 363.13914,603.33587 362.29589,611.85615 L 360.76267,627.34757 L 366.01953,634.3519 C 368.91081,638.20427 373.0591,644.73058 375.23797,648.8548 C 380.23994,658.32267 396.16413,679.09802 397.69435,678.1523 C 398.3271,677.76124 399.28876,678.1596 399.83137,679.03755 C 400.4475,680.03448 400.22693,680.26857 399.24389,679.66101 C 398.37817,679.12596 397.66986,679.01324 397.66986,679.4105 C 397.66986,680.81751 406.39144,692.48292 407.44338,692.48292 C 408.03099,692.48292 409.72632,694.78363 411.2108,697.59559 C 412.69531,700.40756 413.93701,702.03847 413.97014,701.21984 C 414.00328,700.40122 416.59351,698.96349 419.72619,698.02492 C 426.44345,696.01239 432.00287,692.62471 431.06876,691.11327 C 430.70458,690.524 431.36091,689.67568 432.52729,689.2281 C 434.42666,688.49924 434.43393,688.02196 432.59695,684.65427 C 431.46892,682.58622 428.0186,674.97711 424.92958,667.74512 C 421.84058,660.51313 418.38584,653.45765 417.25239,652.06627 C 416.11894,650.67488 415.63861,650.39819 416.18501,651.45137 C 416.84381,652.72122 416.64075,653.03392 415.5822,652.3797 C 414.70425,651.8371 414.29283,650.89655 414.66796,650.28956 C 415.6286,648.73522 411.32711,640.49909 409.98718,641.32721 C 409.38084,641.70196 408.96885,640.9415 409.07166,639.63733 C 409.18627,638.18333 408.4675,637.44188 407.2135,637.72053 C 406.08872,637.9705 405.63716,637.70627 406.21006,637.13338 C 406.78295,636.56049 405.60525,634.37325 403.59295,632.27287 C 400.58648,629.13478 399.57134,628.75335 397.89864,630.13328 C 396.24016,631.50146 395.98756,631.43596 396.53516,629.77968 C 396.90482,628.66158 396.37492,626.91443 395.35761,625.8971 C 393.80028,624.33977 392.97486,624.3967 390.13537,626.2572 C 388.28046,627.47257 386.76282,627.89991 386.76282,627.20684 C 386.76282,626.51377 389.04812,624.59834 391.84127,622.95034 C 396.3867,620.26847 396.67787,619.77715 394.61547,618.26909 C 393.34813,617.34238 392.8041,616.02268 393.40651,615.33641 C 394.00892,614.65014 395.62067,609.03175 396.98817,602.8511 C 399.39378,591.97859 399.39383,591.52437 396.98994,588.86811 C 395.62342,587.35812 394.96076,585.66724 395.51739,585.11063 C 396.074,584.55401 397.39319,585.27989 398.44893,586.72368 C 399.50466,588.16749 400.63944,589.07776 400.97068,588.74653 C 401.30192,588.41529 402.80046,582.32487 404.30079,575.21227 C 405.80111,568.09966 408.59919,554.918 410.51872,545.9197 C 413.88521,530.13842 415.29507,507.90815 413.00786,506.67146 C 411.88718,506.0655 387.01892,507.8986 380.90069,509.03816 C 378.8013,509.42918 377.41157,509.21849 377.81239,508.56994 C 378.21321,507.9214 384.53229,506.96634 391.8548,506.44757 C 405.63506,505.4713 417.45396,503.09423 414.23288,501.9468 C 412.17477,501.21366 379.53295,504.05753 376.45666,505.23801 C 375.37633,505.65257 374.49241,506.88261 374.49241,507.97143 C 374.49241,509.06025 373.94841,509.61487 373.28352,509.20396 C 372.61862,508.79302 371.32206,509.36358 370.40228,510.47186 C 369.48248,511.58014 368.18593,512.1507 367.52103,511.73976 C 366.85614,511.32884 366.31214,512.23453 366.31214,513.7524 C 366.31214,517.64693 358.39305,526.20032 352.69965,528.4552 C 350.06343,529.49928 345.61286,531.40184 342.80949,532.68309 L 337.71248,535.01268 L 337.51457,558.8718 C 337.21416,595.0917 336.94522,598.92729 334.35161,603.98226 C 332.63164,607.3345 331.85026,612.63676 331.5563,622.95061 C 331.3319,630.82411 330.53539,638.82355 329.78625,640.72713 C 329.03714,642.6307 327.99237,649.07267 327.46457,655.04261 C 326.93678,661.01254 325.34033,672.03223 323.91692,679.53082 C 322.49351,687.0294 321.32703,694.56428 321.32478,696.275 C 321.32249,697.98572 320.40036,699.73853 319.27557,700.17016 C 315.93402,701.45244 316.89417,702.93851 323.02487,705.97316 C 330.21617,709.53279 334.93913,709.7239 334.99589,706.45755 z M 324.41664,701.20286 C 324.86968,700.74982 326.04559,700.70139 327.02979,701.09524 C 328.1174,701.53045 327.79434,701.85352 326.20608,701.91894 C 324.76886,701.97813 323.9636,701.65589 324.41664,701.20286 z M 335.63612,699.29981 C 337.13583,698.65536 339.28316,698.09435 340.40794,698.05315 C 342.22578,697.98652 342.22578,698.12503 340.40794,699.29981 C 339.28316,700.02671 337.13583,700.58771 335.63612,700.54648 C 332.90936,700.47154 332.90936,700.47154 335.63612,699.29981 z M 388.80789,616.13371 C 388.34445,615.38385 388.615,614.77033 389.40912,614.77033 C 390.20323,614.77033 390.85296,615.38385 390.85296,616.13371 C 390.85296,616.88357 390.58241,617.49709 390.25173,617.49709 C 389.92106,617.49709 389.27133,616.88357 388.80789,616.13371 z M 356.76849,550.67065 C 354.95065,549.47732 354.95065,549.17899 356.76849,547.98564 C 359.57091,546.14597 367.67552,546.24856 367.67552,548.12372 C 367.67552,548.99696 366.27534,549.37836 364.39155,549.01825 C 362.03938,548.56861 361.30706,548.91037 361.81065,550.22269 C 362.62923,552.35588 359.72825,552.61361 356.76849,550.67065 z M 373.64925,536.30524 C 374.11483,535.09195 373.88627,534.54468 373.11343,535.02232 C 372.37216,535.48045 371.76565,536.4326 371.76565,537.13821 C 371.76565,539.09934 372.74288,538.66718 373.64925,536.30524 z M 349.66851,527.61756 C 357.10342,524.9 360.91923,521.41891 363.73581,514.78426 C 365.24505,511.22909 365.05735,510.66059 361.414,507.7523 C 357.19167,504.38185 356.62803,504.48791 350.49352,509.80697 C 347.0593,512.78468 341.77132,524.25078 341.77132,528.71961 C 341.77132,530.63029 341.21285,530.70821 349.66851,527.61756 z M 370.30384,507.40425 C 370.14921,505.79778 360.8457,498.44161 360.01687,499.27045 C 359.10886,500.17844 362.06156,506.00203 364.13033,507.38338 C 366.09801,508.69723 370.42972,508.71188 370.30384,507.40425 z M 354.80368,503.69832 C 357.22339,501.86814 356.72363,501.6929 348.97186,501.65325 C 341.98489,501.61752 340.63157,501.96964 341.27829,503.65497 C 342.30745,506.33689 351.27717,506.36565 354.80368,503.69832 z M 383.3527,498.89937 C 400.59407,490.30647 426.15665,471.84528 428.3961,466.36922 C 429.16291,464.49416 430.76057,423.55435 430.6122,409.58183 C 430.54794,403.52982 429.76798,397.49505 428.8501,395.94805 C 428.40519,395.19819 427.63791,392.89748 427.14503,390.83537 C 426.62019,388.63963 425.271,387.02091 423.88892,386.92881 C 420.72302,386.71784 419.18957,386.39984 416.75716,385.44984 C 415.63236,385.01054 411.21722,383.9353 406.94574,383.06041 L 399.1794,381.46972 L 389.22181,388.11833 C 370.7038,400.48269 365.77439,403.2813 364.17207,402.34 C 361.55105,400.80024 348.17694,385.67951 348.84509,385.01137 C 349.18436,384.67211 352.33248,387.71947 355.84094,391.78331 C 359.34939,395.84714 363.33521,399.52605 364.69829,399.95869 C 366.35517,400.48457 372.09101,397.48738 382.00286,390.91644 L 396.82906,381.0876 L 392.82754,379.45198 C 389.32853,378.02177 388.12496,378.22721 383.24366,381.08784 C 377.07933,384.70039 364.74289,385.57154 357.16393,382.92951 C 353.60977,381.69052 351.68833,382.15187 342.76747,386.38626 C 324.39176,395.10847 322.82757,397.89836 327.46947,413.67197 L 329.47555,420.48886 L 328.85931,411.62689 C 328.02263,399.59504 330.14692,405.48024 332.79624,422.53393 C 333.90292,429.65758 336.5007,442.23476 338.56911,450.4832 C 341.66335,462.82251 342.34077,468.56105 342.39143,482.86344 L 342.45301,500.24652 L 349.30738,500.24652 C 357.37994,500.24652 359.38873,499.03969 372.70908,486.18741 C 378.10204,480.98397 384.25884,475.66577 386.39088,474.36919 C 391.40265,471.32136 402.56117,457.99343 402.04106,455.67636 C 401.82072,454.69477 402.66906,453.89164 403.92624,453.89164 C 405.9788,453.89164 406.14775,452.11126 405.582,436.44367 C 405.10576,423.25475 405.38299,418.59307 406.71773,417.34623 C 407.68891,416.43902 408.13212,414.78103 407.70264,413.66182 C 407.16069,412.24953 407.81141,411.62689 409.8294,411.62689 C 412.65613,411.62689 412.67483,411.7472 410.50109,415.95076 C 408.82272,419.19635 408.21901,424.44985 408.08017,437.01723 L 407.89519,453.75987 L 411.04593,451.69478 C 415.16871,448.99259 417.85138,449.87589 414.7973,452.92997 C 413.51852,454.20875 410.62439,455.25502 408.36589,455.25502 C 406.05333,455.25502 404.47209,455.89274 404.74614,456.71488 C 405.38062,458.61831 391.20013,474.08945 386.67399,476.43188 C 384.75049,477.42736 378.73944,482.73275 373.3161,488.22164 L 363.45548,498.20144 L 367.88082,501.93478 C 370.31474,503.98814 372.64466,505.21517 373.05843,504.66155 C 373.47219,504.10793 378.10462,501.51493 383.3527,498.89937 z M 394.91145,434.76875 L 390.28022,429.56073 L 387.03694,434.33363 C 385.25314,436.95872 383.47231,438.78517 383.07953,438.3924 C 381.55906,436.87194 389.68126,410.98077 392.59173,408.0703 C 393.87036,406.79166 395.86259,411.787 398.17864,422.07894 C 399.38789,427.45265 400.96013,433.38227 401.67249,435.25589 C 403.80359,440.86113 400.09124,440.59365 394.91145,434.76875 z M 396.82937,424.40623 C 395.10197,417.93741 393.43688,412.39298 393.12917,412.08528 C 392.61193,411.56803 385.39944,429.85635 385.39944,431.6852 C 385.39944,432.13345 386.58782,431.42473 388.0403,430.11027 C 390.94881,427.47809 392.84089,428.11394 396.74627,433.03598 C 398.11295,434.75843 399.3974,436.16772 399.60062,436.16772 C 399.80384,436.16772 398.55677,430.87505 396.82937,424.40623 z M 412.96596,498.72315 C 414.73476,497.77652 415.15484,496.81354 414.27586,495.72045 C 413.56418,494.83543 412.55554,492.11737 412.03444,489.68033 C 410.94165,484.56968 410.15194,484.32715 405.69315,487.73294 C 403.90484,489.09892 398.60717,492.5177 393.92056,495.33024 C 389.23394,498.14277 385.39944,500.79431 385.39944,501.22253 C 385.39944,502.48613 410.12335,500.24447 412.96596,498.72315 z "
       id="path2482"
       inkscape:export-xdpi="18.800928"
       inkscape:export-ydpi="18.800928"
       inkscape:export-filename="/home/rover/herobot/arte/pre/alien-0-01.png" />
    <path
       style="fill:#aaffaa;fill-opacity:1;stroke:#000000;stroke-width:2;stroke-miterlimit:1;stroke-opacity:0"
       d="M 641.77131,534.5139 L 650.09945,522.10801 L 657.70742,523.16453 C 661.89737,526.1514 669.8166,520.1477 656.99627,542.4579 L 644.22403,551.57929 L 641.72873,553.05435 L 641.77131,534.5139 z "
       id="path3616"
       sodipodi:nodetypes="ccccccc"
       inkscape:export-filename="/home/rover/herobot/arte/pre/alien-0-02.png"
       inkscape:export-xdpi="19.008528"
       inkscape:export-ydpi="19.008528" />
    <path
       style="fill:#ffffff;fill-opacity:1;stroke:#000000;stroke-width:2;stroke-miterlimit:1;stroke-opacity:0"
       d="M 640.11494,413.67557 L 645.423,402.50071 L 646.07487,406.7844 L 648.30984,414.04806 L 652.22104,427.83039 L 643.0949,420.75298 L 635.83124,425.96791 L 640.11494,413.67557 z "
       id="path3618"
       sodipodi:nodetypes="cccccccc"
       inkscape:export-filename="/home/rover/herobot/arte/pre/alien-0-02.png"
       inkscape:export-xdpi="19.008528"
       inkscape:export-ydpi="19.008528" />
    <path
       style="fill:#000000"
       d="M 626.83618,738.6858 C 608.25325,737.59528 603.44661,736.75283 604.22557,734.7229 C 604.65109,733.614 603.67662,731.50438 602.03043,729.97072 L 599.07006,727.21271 L 612.96523,720.29545 C 634.20771,709.72057 638.18516,704.93829 631.84052,697.60078 C 630.29945,695.81856 630.19011,694.83517 631.37432,693.40828 C 632.56645,691.97184 632.42344,691.13085 630.75101,689.74285 C 629.5573,688.75215 626.54135,684.88932 624.0489,681.15877 C 621.55647,677.42821 617.07459,671.0473 614.08918,666.97896 C 611.10377,662.91062 606.65035,656.55594 604.19268,652.85745 C 600.06162,646.64068 594.67623,641.02265 583.40666,631.17351 C 579.15867,627.46094 574.35556,617.27609 576.19163,615.87428 C 576.67732,615.50349 577.16161,612.4545 577.26784,609.09876 C 577.37408,605.743 578.98892,596.66489 580.85637,588.92518 C 582.72383,581.18545 584.5782,573.03733 584.97717,570.81823 C 585.37615,568.59914 586.98415,560.83257 588.55049,553.55917 C 590.11684,546.28579 591.06653,539.47004 590.66093,538.41305 C 590.25532,537.35608 590.58396,535.04166 591.39124,533.26989 C 592.53272,530.76462 592.34576,528.70464 590.55026,524.00317 C 588.53965,518.73847 587.66229,517.89021 583.75583,517.43416 C 579.48572,516.93565 579.20282,517.17778 577.86977,522.47184 C 576.45912,528.07398 577.10149,532.25466 580.49369,539.54919 C 582.57176,544.01782 583.68034,544.1597 586.38182,540.30278 C 587.5163,538.68309 588.88025,537.79361 589.41281,538.32618 C 590.90303,539.81641 583.88802,546.14519 581.68362,545.29929 C 578.90276,544.23216 575.99746,535.53598 576.05571,528.45372 C 576.08307,525.12508 576.18158,516.95478 576.27458,510.2975 C 576.36759,503.64022 576.22503,488.51003 575.95778,476.67487 C 575.67269,464.04962 576.0101,454.4616 576.77418,453.47525 C 577.66427,452.32626 577.5277,451.79412 576.34276,451.79412 C 575.38921,451.79412 574.97386,451.42929 575.41977,450.98338 C 575.86567,450.53747 575.66732,448.69137 574.979,446.88094 C 574.29068,445.07049 573.39552,438.02154 572.98977,431.21658 C 572.58401,424.41163 571.70104,415.33047 571.0276,411.03623 C 569.4243,400.81259 570.0877,386.6234 572.29327,383.96588 C 573.25494,382.80712 575.13735,381.85905 576.47638,381.85905 C 579.99349,381.85905 596.5368,374.97817 601.44035,371.47576 C 603.73988,369.83329 606.00691,368.87505 606.47819,369.34633 C 606.94946,369.81761 607.33505,368.58931 607.33505,366.61679 C 607.33505,364.64426 607.94026,363.03037 608.67996,363.03037 C 609.94638,363.03037 610.5864,365.76985 610.14866,369.31676 C 609.89037,371.40958 613.29492,372.38544 622.19253,372.76894 C 630.97679,373.14756 638.62963,370.41226 637.70636,367.22394 C 637.35977,366.02702 636.66838,362.02169 636.16997,358.3232 C 635.50758,353.40805 635.66665,351.97739 636.76112,353.00614 C 637.58468,353.78024 638.59568,357.41148 639.00779,361.07557 C 639.73708,367.55956 642.17893,371.0998 645.92191,371.0998 C 646.89008,371.0998 647.68221,371.64559 647.68221,372.31265 C 647.68221,372.97973 651.46476,373.92146 656.08787,374.40539 C 660.71098,374.88932 668.86624,376.59604 674.21068,378.19809 L 683.92784,381.11093 L 685.56806,388.54574 C 686.69046,393.63342 687.10204,407.65649 686.87178,432.96545 L 686.5353,469.95034 L 679.66257,487.43411 C 675.88256,497.05018 672.32558,505.53605 671.75818,506.29158 C 671.19078,507.04712 671.03593,512.79659 671.41409,519.06818 C 672.07122,529.96672 669.22317,561.08057 666.40321,573.80984 C 665.71098,576.93462 664.76149,585.75252 664.29326,593.40519 C 663.60629,604.63281 663.83774,607.95006 665.49205,610.58716 C 666.71914,612.54321 667.86028,618.71455 668.33452,625.95935 C 668.7703,632.61663 670.11699,641.69474 671.32718,646.13293 C 672.94694,652.07324 673.36912,657.85425 672.92723,668.04314 C 672.59708,675.65556 672.83396,682.19726 673.45364,682.58024 C 675.24023,683.68442 674.76641,690.41337 672.52417,695.77981 C 671.39329,698.48639 670.46688,702.64544 670.46549,705.02217 C 670.46072,713.10538 668.4435,735.42971 667.64578,736.22743 C 667.20884,736.66439 660.26875,737.32442 652.22338,737.69417 C 644.17801,738.06391 636.68761,738.52708 635.57806,738.72343 C 634.46852,738.91977 630.53467,738.90284 626.83618,738.6858 z M 665.3324,734.59576 C 668.72619,731.20198 667.9089,711.36083 664.37531,711.36083 C 663.33079,711.36083 662.47617,710.79367 662.47617,710.10048 C 662.47617,708.61901 652.5905,709.9301 651.96626,711.49435 C 651.73355,712.07751 650.67003,712.21958 649.60288,711.81008 C 648.50531,711.3889 645.45105,713.06355 642.57055,715.66593 C 635.19653,722.3279 626.14756,726.24579 615.76355,727.27239 C 607.20644,728.11838 606.66034,728.37306 606.62489,731.53441 C 606.59361,734.32305 607.39669,735.05309 611.33206,735.81344 C 617.75265,737.05398 663.91511,736.01305 665.3324,734.59576 z M 621.36191,724.67908 C 625.35213,723.9031 631.68941,720.95375 637.27893,717.27135 C 645.68382,711.73418 646.38024,710.93924 644.60983,708.90331 C 643.53389,707.666 642.92778,705.89674 643.26292,704.97162 C 644.32246,702.04681 639.38471,704.71766 631.54335,711.31079 C 621.93079,719.39316 618.88277,721.2247 610.36109,724.03908 C 606.47768,725.32161 603.30034,726.56734 603.30034,726.80735 C 603.30034,727.41577 613.42285,726.223 621.36191,724.67908 z M 669.43211,704.85644 C 669.10795,703.12826 669.94745,698.46425 671.29767,694.49198 C 673.34672,688.46379 673.4719,686.74513 672.05475,684.09716 C 670.86,681.86476 670.58377,677.22969 671.12255,668.4556 C 671.74515,658.31677 671.35455,653.93479 669.03243,645.00766 C 667.46175,638.96928 665.9979,629.52391 665.77946,624.01796 C 665.38702,614.12594 665.31717,613.95306 659.89452,609.44869 C 653.74939,604.34421 652.36493,600.79397 658.10523,604.86031 L 661.80372,607.48027 L 662.12305,596.54623 C 662.2987,590.53251 663.35586,580.77053 664.47232,574.85295 C 667.81423,557.13979 669.48641,536.18602 667.64872,535.05026 C 666.51001,534.34651 666.69637,533.45572 668.32249,531.82961 C 669.5588,530.5933 670.22417,529.02169 669.8011,528.33714 C 669.37802,527.6526 668.99747,524.59972 668.95543,521.55297 L 668.87897,516.01341 L 666.26762,520.13777 C 663.78241,524.06289 663.76748,524.43183 665.95851,527.77578 C 668.1854,531.17445 668.16609,531.3142 665.36847,532.0458 C 663.65302,532.49439 662.47617,533.87187 662.47617,535.43117 C 662.47617,538.35476 662.09999,538.77437 651.98062,547.13818 C 647.72002,550.65962 645.13105,553.77327 645.55183,554.86981 C 646.08187,556.25107 645.43376,556.16671 642.93455,554.52916 C 639.93182,552.5617 639.61278,551.45879 639.61278,543.04568 C 639.61278,533.73204 641.49875,528.59013 646.26804,524.90076 C 647.84902,523.67777 647.91931,522.96293 646.61327,521.38925 C 645.31363,519.82329 645.39392,518.40689 647.00026,514.56239 C 651.22393,504.45374 652.07256,504.81236 623.59538,504.67181 L 598.16362,504.54629 L 597.34265,508.92248 C 596.89111,511.32939 596.87503,514.21952 597.30692,515.34499 C 598.06259,517.31423 597.19861,522.1363 591.10275,549.9722 C 589.56385,556.99933 587.18201,567.89306 585.80977,574.1805 C 584.43753,580.46793 582.07288,591.13687 580.55501,597.88927 C 575.95871,618.33622 577.41266,623.64938 590.88327,635.63158 C 596.03222,640.21162 602.56609,647.47411 605.40298,651.77045 C 616.01217,667.83759 624.99468,679.13316 626.44815,678.23487 C 627.31885,677.69674 627.54261,677.94008 626.99372,678.82819 C 626.14752,680.19737 632.69082,691.83298 633.72526,690.79855 C 633.96913,690.55469 634.72757,687.97025 635.4107,685.05536 C 636.46551,680.55461 636.67314,680.32326 636.78787,683.52084 C 636.86218,685.59173 635.94407,689.17911 634.74761,691.49278 C 632.85354,695.15552 632.82534,695.88596 634.52943,697.14183 C 635.60588,697.93515 636.23185,699.34042 635.92049,700.26465 C 635.10736,702.67833 638.92325,703.75506 642.15699,702.02442 C 644.35997,700.84542 644.66489,699.94967 643.68012,697.54992 C 641.70701,692.74168 638.26806,669.37453 638.26579,660.76029 C 638.26446,655.7575 637.40079,651.29736 635.91221,648.6061 C 634.61888,646.26786 631.85375,641.2109 629.76748,637.3684 C 627.68121,633.52589 623.16873,627.65538 619.73976,624.3228 L 613.50528,618.26357 L 610.42017,621.85023 C 608.25115,624.37186 607.33505,624.81167 607.33505,623.33138 C 607.33505,622.17333 608.52353,620.20825 609.97613,618.9645 C 611.94858,617.27563 612.24736,616.25754 611.15635,614.94295 C 610.09543,613.66463 610.15399,612.63032 611.37025,611.1648 C 612.78528,609.4598 612.39369,609.01658 608.84513,608.30688 C 605.93384,607.72463 604.64524,606.6932 604.64524,604.9452 C 604.64524,602.59267 604.83882,602.61708 607.53102,605.30928 L 610.4168,608.19506 L 612.49542,604.3006 C 613.63867,602.15865 615.93977,596.77491 617.609,592.33672 C 621.42144,582.20009 621.66965,585.03851 618.03735,597.23512 C 616.52663,602.30782 614.63689,606.45822 613.83795,606.45822 C 612.81028,606.45822 612.81757,606.97906 613.8629,608.23859 C 614.94251,609.53945 614.91105,610.4484 613.74614,611.61333 C 612.51693,612.84253 612.83744,613.68794 615.14554,615.30459 C 616.79211,616.4579 617.85599,617.85989 617.50975,618.42015 C 617.16349,618.98039 619.01726,621.45451 621.62923,623.91819 C 624.2412,626.38186 628.20338,631.63151 630.43407,635.58408 C 634.367,642.55286 636.92297,645.5122 636.92297,643.09705 C 636.92297,639.1507 633.7314,625.7583 632.22773,623.39494 C 631.24259,621.84657 630.14087,617.25109 629.77947,613.18275 C 628.17451,595.11568 625.7198,576.87031 624.89404,576.87031 C 624.39855,576.87031 623.30763,578.53463 622.46977,580.5688 C 621.06313,583.98385 621.00658,583.85501 621.73169,578.88767 C 622.16362,575.92887 623.02375,573.17662 623.64311,572.77155 C 624.26246,572.36648 624.54774,570.85346 624.27704,569.40928 C 624.00635,567.96511 622.99568,560.27754 622.03112,552.32579 C 621.06655,544.37403 619.67387,537.86806 618.93627,537.86806 C 617.14767,537.86806 611.36977,532.37507 611.36977,530.67465 C 611.36977,529.93496 612.73149,530.55563 614.39581,532.05392 C 619.8662,536.9786 620.74194,537.00145 620.41447,532.21093 C 620.24792,529.77462 620.71686,527.62996 621.45656,527.44504 C 622.86406,527.09317 622.95261,527.85296 623.53338,545.26503 C 623.73075,551.18262 624.36075,557.8399 624.93335,560.05899 C 626.37029,565.62767 628.19605,579.06569 629.5015,593.68162 C 631.07095,611.25348 632.76915,621.65961 634.29728,623.06912 C 635.58804,624.25967 635.72529,624.18079 634.89512,622.72551 C 634.2121,621.5282 634.33682,621.1575 635.23577,621.71309 C 636.01579,622.19516 636.65399,624.65289 636.65399,627.1747 C 636.65399,629.69652 637.00984,633.48075 637.44477,635.58411 C 637.87971,637.68747 638.84444,646.97349 639.58863,656.21972 C 641.06353,674.54474 641.32588,676.42305 644.42535,690.84898 C 645.57734,696.21066 646.11142,701.88439 645.61221,703.45725 C 644.30572,707.57367 646.474,708.33598 658.97943,708.15678 C 669.78827,708.0019 670.00904,707.93221 669.43211,704.85644 z M 666.33143,688.57738 C 668.82167,686.24021 671.24155,684.71038 671.70894,685.17776 C 672.58733,686.05614 669.19491,688.99718 664.49353,691.43312 C 663.01413,692.19964 663.84119,690.91456 666.33143,688.57738 z M 600.61053,614.07739 C 600.61053,613.73006 602.56364,612.76502 604.95077,611.93286 C 607.33791,611.1007 608.69962,610.97347 607.9768,611.65014 C 606.44535,613.08382 600.61053,615.00644 600.61053,614.07739 z M 656.33578,541.26896 C 658.00085,539.96159 659.02872,537.34058 659.19133,533.98744 C 659.33107,531.10605 659.88532,528.03673 660.42301,527.16675 C 661.77581,524.97785 661.26764,524.72088 654.65331,524.24903 C 649.12819,523.85491 648.65728,524.11859 644.90275,529.70896 C 640.99287,535.53062 639.98984,541.51762 641.79576,548.25437 L 642.59711,551.24369 L 648.16569,547.27764 C 651.22842,545.09632 654.90496,542.39241 656.33578,541.26896 z M 595.8225,519.03938 C 595.61032,517.92983 595.3904,513.74382 595.33381,509.73712 C 595.2099,500.96494 594.17118,501.13062 593.71228,509.99575 C 593.53138,513.49036 592.87973,516.34957 592.26417,516.34957 C 591.18866,516.34957 592.14567,522.40561 593.63149,525.00218 C 594.54501,526.5986 596.336,521.72444 595.8225,519.03938 z M 660.39157,521.91274 C 658.824,520.48789 650.66751,517.69448 648.0746,517.69448 C 645.49899,517.69448 647.28587,520.30182 650.84587,521.73819 C 654.67183,523.28189 662.04618,523.41673 660.39157,521.91274 z M 667.91881,510.96995 C 668.95653,508.38101 669.72725,505.96018 669.63156,505.59033 C 669.53585,505.22048 669.85366,504.61527 670.3378,504.24542 C 670.82194,503.87558 674.34733,495.70528 678.17199,486.0892 L 685.12595,468.60543 L 684.89652,428.73521 C 684.67904,390.93841 684.52722,388.7087 681.9773,385.86018 C 678.01278,381.43142 669.35445,378.15776 657.20627,376.49445 L 646.44482,375.021 L 634.62314,382.36347 C 628.12122,386.40181 621.65313,390.75303 620.24963,392.03281 C 617.79471,394.27134 617.37266,394.00109 609.13678,384.91708 L 600.57578,375.47447 L 587.68369,380.27356 C 572.27818,386.00828 571.7476,386.84017 572.9481,403.37753 C 573.40452,409.66496 574.13763,420.39873 574.57722,427.23034 C 575.01682,434.06196 575.90295,439.32609 576.54641,438.92842 C 577.18986,438.53073 577.40405,439.01915 577.02237,440.01378 C 576.6407,441.00841 576.81392,444.15896 577.40732,447.015 C 578.44014,451.98602 578.58807,452.10598 580.87053,449.8235 C 582.18191,448.51212 583.67883,447.86316 584.19702,448.38137 C 584.71521,448.89956 583.55576,450.47699 581.62045,451.88676 C 578.6494,454.05102 578.07429,455.55161 577.92549,461.52771 C 577.82857,465.42046 577.43133,470.11845 577.04274,471.9677 C 576.44562,474.80938 576.9649,482.05044 579.64683,508.28014 C 579.94818,511.22745 580.63228,511.6424 585.18983,511.6424 L 590.38906,511.6424 L 592.09517,502.90052 C 593.03353,498.09248 594.66712,488.71177 595.72537,482.05449 C 597.53302,470.6829 597.49488,469.61941 595.09527,464.48233 C 592.14442,458.1651 591.91204,456.62622 594.11456,457.98745 C 595.21693,458.66876 595.38561,458.18921 594.67796,456.38568 C 593.72518,453.95741 592.60249,448.3202 588.47678,425.24818 C 587.40633,419.26202 585.78219,414.65034 584.25894,413.27181 C 581.27321,410.56975 580.99923,408.16905 583.79921,409.24351 C 585.02807,409.71506 585.81657,409.24563 585.81657,408.04248 C 585.81657,406.95616 586.42178,406.06734 587.16148,406.06734 C 587.90117,406.06734 588.50638,407.69523 588.50638,409.68487 C 588.50638,414.03603 590.08675,423.21393 595.29416,449.10431 C 598.72508,466.16236 599.10889,470.34828 598.35772,482.51724 C 597.66718,493.70407 597.86957,496.66367 599.39098,497.62684 C 602.11015,499.34827 638.65709,499.14518 645.70924,497.36942 C 651.11502,496.00824 651.72629,495.4311 652.47552,490.98112 C 652.92854,488.29057 654.69158,479.73453 656.39339,471.9677 C 662.27138,445.14155 663.09002,438.95469 662.88884,422.87866 C 662.77775,414.00228 663.15341,407.95021 663.72365,409.4296 C 666.10514,415.60804 666.23453,433.62082 663.97337,444.19257 C 663.04816,448.51824 662.67448,452.44072 663.14295,452.90919 C 663.61142,453.37768 665.77127,452.74138 667.94262,451.49519 C 670.11395,450.24901 671.89051,449.73237 671.89051,450.3471 C 671.89051,452.06348 668.9202,454.0194 664.82975,454.99655 C 659.96391,456.15894 660.07884,458.51865 665.00131,458.51865 C 667.12982,458.51865 669.58025,459.37284 670.44671,460.41684 C 671.77166,462.01331 671.17175,462.201 666.67273,461.59755 C 661.40318,460.89076 661.30309,460.95774 659.96385,466.08765 C 655.62064,482.72405 654.46921,487.94525 654.2143,492.15943 C 654.0583,494.7384 653.36487,497.59725 652.67333,498.51246 C 651.98181,499.42765 651.74462,501.03281 652.14625,502.07945 C 652.54789,503.1261 652.49721,504.36174 652.03364,504.82532 C 651.57006,505.2889 651.06945,506.40717 650.92116,507.31038 C 650.77287,508.21359 650.2429,510.5274 649.74345,512.45217 C 648.88882,515.74576 649.2566,516.0696 655.99199,517.95431 C 664.04114,520.20662 664.27029,520.07244 667.91881,510.96995 z M 634.25117,427.92205 C 634.34155,422.85994 644.44932,398.35142 645.86343,399.76555 C 647.04505,400.94715 655.57828,428.20748 654.96007,428.82569 C 654.63333,429.15245 651.72048,427.55507 648.48708,425.27596 L 642.60819,421.13214 L 639.72532,425.03143 C 637.01597,428.69602 634.2109,430.17723 634.25117,427.92205 z M 648.82199,414.24286 C 647.08557,409.02095 645.29154,404.74264 644.83526,404.73547 C 644.37899,404.7283 642.51675,408.89972 640.69695,414.00529 C 638.38499,420.49168 637.92588,423.08183 639.17296,422.60329 C 640.15456,422.22661 640.95769,421.37797 640.95769,420.71741 C 640.95769,418.71499 643.70073,419.36305 647.33917,422.22503 C 649.23309,423.7148 651.05186,424.66448 651.38089,424.33544 C 651.70992,424.00641 650.55841,419.46475 648.82199,414.24286 z M 585.45475,514.07266 C 584.1462,513.73167 582.33058,513.75409 581.42003,514.12249 C 580.50949,514.4909 581.58012,514.76989 583.79921,514.74248 C 586.01831,514.71507 586.7633,514.41365 585.45475,514.07266 z M 647.34599,502.11871 C 649.01031,501.78082 650.37202,500.84334 650.37202,500.03541 C 650.37202,499.0982 648.74485,498.87171 645.87703,499.40972 C 640.09128,500.49513 600.96158,500.58641 599.23371,499.51853 C 598.51156,499.07222 597.92072,499.52252 597.92072,500.51919 C 597.92072,501.84937 600.69052,502.43448 608.3349,502.71917 C 614.0627,502.93249 618.96219,503.3201 619.22263,503.58056 C 619.81342,504.17133 643.23121,502.95407 647.34599,502.11871 z M 635.24184,380.16494 C 639.86495,377.22444 643.6475,374.32018 643.6475,373.71102 C 643.6475,371.20715 640.52234,371.02823 634.09231,373.16394 C 628.73712,374.94266 625.3769,375.18902 618.31989,374.32034 C 609.36175,373.21767 604.71373,373.27284 603.49019,374.49636 C 602.3548,375.63175 609.01234,381.81238 610.42816,380.93734 C 611.2061,380.45655 611.36994,380.77072 610.81204,381.67342 C 610.25792,382.57 611.44534,384.95051 613.56904,387.20058 L 617.29936,391.15287 L 622.06777,388.33208 C 624.6904,386.78065 630.61873,383.10544 635.24184,380.16494 z "
       id="path2572"
       inkscape:export-filename="/home/rover/herobot/arte/pre/alien-0-02.png"
       inkscape:export-xdpi="19.008528"
       inkscape:export-ydpi="19.008528" />
    <path
       style="fill:#008000;fill-opacity:1;stroke:#000000;stroke-width:2;stroke-miterlimit:1;stroke-opacity:0"
       d="M 606.03608,261.38224 L 620.88838,260.19125 L 634.61976,263.20374 L 646.66974,270.98019 L 654.23601,284.6415 L 651.15345,298.93335 L 639.94417,311.26356 L 638.54301,299.73901 C 639.33297,296.92502 636.98859,286.26452 634.61976,285.13191 L 601.8326,289.02013 L 589.78262,287.02348 L 587.54076,283.34543 L 587.54076,274.90344 L 597.34889,267.30214 L 606.03608,261.38224 z "
       id="path3574"
       sodipodi:nodetypes="ccccccccccccccc"
       inkscape:export-filename="/home/rover/herobot/arte/pre/alien-0-02.png"
       inkscape:export-xdpi="19.008528"
       inkscape:export-ydpi="19.008528" />
    <path
       style="fill:#aaffaa;fill-opacity:1;stroke:#000000;stroke-width:2;stroke-miterlimit:1;stroke-opacity:0"
       d="M 586.51716,288.91986 L 636.39849,284.71638 L 640.04151,300.37435 L 640.8822,313.23 L 655.73451,288.25431 L 658.53683,298.02741 L 659.09729,317.32839 L 652.09149,330.46427 L 648.16824,335.47343 L 644.80545,330.95468 L 639.48104,340.76281 L 639.76127,366.85943 L 630.23338,374.18049 C 620.1422,375.07816 610.89736,371.77516 610.89736,368.61088 L 608.09504,360.23894 L 598.21685,359.8974 L 592.26192,339.09892 L 589.38954,328.3888 L 586.51716,317.39845 L 586.51716,307.90559 L 586.51716,298.41272 L 586.51716,288.91986 z "
       id="path3576"
       sodipodi:nodetypes="cccccccccccccccccccccc"
       inkscape:export-filename="/home/rover/herobot/arte/pre/alien-0-02.png"
       inkscape:export-xdpi="19.008528"
       inkscape:export-ydpi="19.008528" />
    <g
       id="g3578"
       inkscape:label="Capa 1"
       transform="translate(319.50627,63.394781)"
       inkscape:export-filename="/home/rover/herobot/arte/pre/alien-0-02.png"
       inkscape:export-xdpi="19.008528"
       inkscape:export-ydpi="19.008528">
      <path
         sodipodi:nodetypes="csssssssssssssssssssssssssssssscccssssssssssssssssssssssssssssssssssssssssccssccssccsssssccssssssssccssccsssssssc"
         id="path3580"
         d="M 316.76498,308.03101 C 310.804,312.6301 294.58328,312.54731 289.97412,306.9936 C 288.93935,305.74679 288.40716,305.75176 285.93267,307.03137 C 282.70481,308.70056 281.9836,308.83037 281.9836,307.74216 C 281.9836,307.32258 282.9961,306.51861 284.2336,305.95556 C 285.4711,305.39251 286.3765,304.402 286.2456,303.75442 C 286.11052,303.0862 286.65111,302.82395 287.4956,303.14801 C 288.61617,303.57801 288.9836,302.95181 288.9836,300.61202 C 288.9836,297.8906 288.64234,297.50434 286.2336,297.49945 C 279.35359,297.4855 276.10229,295.67244 274.96524,291.21575 C 274.37438,288.89985 273.01179,284.11675 271.93727,280.58662 C 270.86275,277.0565 269.9836,273.209 269.9836,272.03662 C 269.9836,270.86425 269.60798,269.47753 269.14888,268.95503 C 268.10171,267.76323 265.33344,259.98974 264.53236,255.99154 C 264.16184,254.14223 264.6788,250.79751 265.87051,247.33374 C 267.41754,242.83721 267.62082,240.83661 266.87016,237.49565 C 265.28205,230.42749 266.37307,215.17897 268.70506,211.85033 C 269.80142,210.28541 270.54186,208.55503 270.35049,208.00503 C 269.38322,205.22501 284.97346,198.00325 296.06262,196.09458 C 307.20719,194.17637 326.69644,202.05373 330.41138,209.978 C 333.3661,216.28067 334.34047,218.81198 334.15743,219.70981 C 334.0784,220.09744 335.31475,221.83902 336.90488,223.57998 C 341.39584,228.49696 341.53433,252.26358 337.11388,259.44773 C 335.53449,262.01456 333.90584,265.21502 333.49465,266.55986 C 331.74299,272.2889 327.30542,274.23028 324.64471,270.43159 C 323.00033,268.0839 322.52693,268.54375 321.48076,273.50503 C 320.0264,280.40205 318.48401,281.9065 304.63699,289.93447 C 287.39314,299.93179 284.33777,303.57539 296.72677,308.60372 C 309.11577,313.63205 319.4537,308.24664 319.56294,293.69063 C 319.61071,287.32441 320.05638,282.98077 320.68324,282.77182 C 321.37398,282.54157 321.6152,285.97094 321.4002,292.96493 C 321.222,298.76198 321.46279,303.50503 321.93529,303.50503 C 320.92175,305.68089 319.74433,306.2392 316.76498,308.03101 z M 302.46319,289.02284 C 307.95196,285.43804 313.02107,282.50503 313.72789,282.50503 C 315.41335,282.50503 318.97509,276.61106 318.97986,273.81405 C 318.98192,272.60901 319.46428,271.32599 320.05177,270.9629 C 320.63927,270.5998 320.86942,269.64987 320.56323,268.85194 C 320.25703,268.05401 320.41508,267.65366 320.91443,267.96228 C 321.41379,268.2709 322.53493,267.81084 323.40585,266.93992 C 325.09099,265.25478 325.02578,265.18545 326.5647,270.29815 C 327.23266,272.51731 330.9836,269.75724 330.9836,267.04657 C 330.9836,265.73312 332.04174,263.38645 333.33503,261.83175 C 337.44567,256.89024 338.28194,254.33957 338.14914,247.14842 C 338.07866,243.33179 337.87391,240.062 337.69413,239.88223 C 337.09691,239.285 330.98282,251.97344 330.98321,253.80926 C 330.98381,256.59385 325.31081,262.23224 323.91396,260.83539 C 323.07171,259.99314 323.29202,259.54192 324.77539,259.07111 C 325.87161,258.72319 327.29695,256.99099 327.94282,255.22178 C 328.58868,253.45257 331.07909,247.90299 333.47705,242.88938 C 337.74819,233.95939 338.32403,230.72266 336.28867,227.08568 C 335.43773,225.56513 335.17227,225.92371 334.62769,229.32932 C 334.23751,231.76937 332.18956,235.89477 329.48247,239.69389 C 327.00909,243.16502 324.00866,248.03003 322.81485,250.50503 C 320.64429,255.00503 320.64429,255.00503 319.3106,241.08502 C 318.57707,233.42901 317.76429,226.95238 317.50442,226.69252 C 316.81407,226.00217 313.98493,228.55585 313.9759,229.87747 C 313.9565,232.71761 300.01929,238.35041 292.7336,238.46266 C 288.54263,238.52723 289.45455,236.7184 294.2336,235.48732 C 305.01739,232.70943 308.18675,231.23292 313.2336,226.6358 C 316.60354,223.56615 316.83427,221.45399 313.7336,222.05861 C 311.26487,222.54001 307.6145,223.14178 301.4836,224.07807 C 293.44472,225.30573 280.32809,225.99259 274.23346,225.50503 C 265.67126,224.82007 264.56549,229.13783 272.7336,231.36156 C 279.54999,233.21729 281.9836,234.31369 281.9836,235.5289 C 281.9836,236.78951 276.11649,235.91592 271.22968,233.92769 C 267.97576,232.60381 267.97576,232.60381 268.61884,236.80442 C 269.40165,241.91781 269.42075,241.94093 273.00961,242.12143 C 277.22297,242.33333 280.9836,243.41396 280.9836,244.41279 C 280.9836,245.65997 274.31547,246.73683 271.04315,246.01811 C 266.18147,244.95031 265.01819,252.00485 268.47322,261.60307 C 269.93867,265.67415 271.48263,270.36562 271.90425,272.02856 C 272.32586,273.69149 273.13368,275.94149 273.69939,277.02856 C 274.26511,278.11562 275.03931,281.25503 275.41984,284.00503 C 277.43229,298.54855 285.56708,300.05793 302.46319,289.02284 z M 280.9836,280.61444 C 280.9836,279.56927 288.02672,278.52174 289.47352,279.35173 C 290.01797,279.66407 289.34297,280.23148 287.97352,280.61264 C 284.31345,281.63136 280.9836,281.63221 280.9836,280.61444 z M 278.33568,277.00503 C 278.79581,275.69193 292.85495,275.97638 294.20467,277.3261 C 294.92111,278.04254 292.57289,278.308 286.61363,278.18423 C 281.36836,278.07529 278.12266,277.61294 278.33568,277.00503 z M 277.01256,269.54409 C 274.56268,267.99474 276.39342,267.45518 281.11033,268.33639 C 286.38261,269.32136 289.31206,268.27432 290.87377,264.84673 C 291.48886,263.49677 292.44019,262.66919 292.98785,263.00766 C 294.13629,263.71743 294.36053,268.58618 293.2336,268.34355 C 292.8211,268.25473 291.21681,268.70473 289.6685,269.34355 C 286.30476,270.73139 279.0712,270.84601 277.01256,269.54409 z M 291.9836,247.76385 C 289.52547,246.808 287.96,244.15464 289.17592,243.00503 C 289.88675,242.33296 290.3839,242.41495 290.69193,243.25503 C 290.94402,243.94253 291.78777,244.50503 292.56693,244.50503 C 293.3461,244.50503 293.99049,243.94253 293.99891,243.25503 C 294.00912,242.4217 294.33735,242.50503 294.9836,243.50503 C 295.51676,244.33003 295.95987,244.5061 295.96829,243.89629 C 295.97846,243.15944 298.07999,242.92718 302.2336,243.20384 C 311.24872,243.80432 312.13008,244.31602 307.9836,246.54215 C 304.56061,248.37985 295.37203,249.08146 291.9836,247.76385 z M 300.7336,245.8157 C 299.7711,245.56418 298.1961,245.56418 297.2336,245.8157 C 296.2711,246.06723 297.0586,246.27303 298.9836,246.27303 C 300.9086,246.27303 301.6961,246.06723 300.7336,245.8157 z M 323.97177,243.52713 C 324.55397,242.43928 326.0914,240.48814 327.38829,239.19125 C 340.99023,225.58931 330.39672,203.67726 307.9836,199.05379 C 295.51304,196.48132 294.8663,196.61042 280.15006,204.60969 C 268.24515,211.08081 264.10721,221.95832 273.26219,222.71601 C 274.75897,222.83989 275.9836,223.2931 275.9836,223.72314 C 275.9836,225.06931 283.90763,224.60367 300.33495,222.29219 C 319.64496,219.57509 319.99027,219.88836 321.2359,241.25356 C 321.5065,245.89494 322.33575,246.58406 323.97177,243.52713 z "
         style="fill:#000000" />
    </g>
  </g>
</svg>
