<?xml version="1.0" encoding="UTF-8" standalone="no"?>
<!-- Created with Inkscape (http://www.inkscape.org/) -->
<svg
   xmlns:dc="http://purl.org/dc/elements/1.1/"
   xmlns:cc="http://web.resource.org/cc/"
   xmlns:rdf="http://www.w3.org/1999/02/22-rdf-syntax-ns#"
   xmlns:svg="http://www.w3.org/2000/svg"
   xmlns="http://www.w3.org/2000/svg"
   xmlns:sodipodi="http://sodipodi.sourceforge.net/DTD/sodipodi-0.dtd"
   xmlns:inkscape="http://www.inkscape.org/namespaces/inkscape"
   width="210mm"
   height="297mm"
   id="svg2"
   sodipodi:version="0.32"
   inkscape:version="0.45.1"
   sodipodi:docbase="/home/rover/Desktop/tmp2"
   sodipodi:docname="alien1.svg"
   inkscape:output_extension="org.inkscape.output.svg.inkscape">
  <defs
     id="defs4" />
  <sodipodi:namedview
     id="base"
     pagecolor="#ffffff"
     bordercolor="#666666"
     borderopacity="1.0"
     inkscape:pageopacity="0.0"
     inkscape:pageshadow="2"
     inkscape:zoom="0.47414108"
     inkscape:cx="388.8292"
     inkscape:cy="522.8262"
     inkscape:document-units="px"
     inkscape:current-layer="layer1"
     inkscape:window-width="1022"
     inkscape:window-height="713"
     inkscape:window-x="0"
     inkscape:window-y="0" />
  <metadata
     id="metadata7">
    <rdf:RDF>
      <cc:Work
         rdf:about="">
        <dc:format>image/svg+xml</dc:format>
        <dc:type
           rdf:resource="http://purl.org/dc/dcmitype/StillImage" />
      </cc:Work>
    </rdf:RDF>
  </metadata>
  <g
     inkscape:label="Capa 1"
     inkscape:groupmode="layer"
     id="layer1">
    <path
       style="fill:#000000"
       d="M 308.9836,665.00244 C 305.4086,664.26569 298.0961,662.89924 292.7336,661.96588 C 284.81855,660.58824 279.55161,658.50503 283.9836,658.50503 C 284.5336,658.50503 284.9836,657.80707 284.9836,656.954 C 284.9836,654.84607 290.951,652.50503 296.32422,652.50503 C 301.01702,652.50503 313.82743,642.67939 312.31827,640.23753 C 311.93187,639.61231 312.16264,639.49765 312.89563,639.95066 C 313.61116,640.39288 314.69696,639.93935 315.51833,638.85517 C 316.33787,637.77341 316.9332,637.52417 316.9518,638.25503 C 316.96929,638.94253 316.15394,640.29253 315.13991,641.25503 C 302.02753,653.70105 302.79086,653.1828 296.4836,653.92132 C 288.23334,654.88733 286.9836,655.35719 286.9836,657.49296 C 286.9836,658.72524 287.90495,659.51566 289.7336,659.85217 C 318.73917,665.1897 316.55662,664.98074 319.04875,662.65896 C 320.30683,661.48688 322.20325,660.2527 323.26301,659.91635 C 324.32277,659.57999 326.83094,658.1822 328.83672,656.81014 C 334.22097,653.12703 343.9836,648.3384 343.9836,649.38051 C 343.9836,649.87786 341.8635,651.28134 339.27226,652.49937 C 336.68102,653.71739 332.17228,656.24195 329.25284,658.1095 C 326.3334,659.97704 323.6114,661.50503 323.20396,661.50503 C 322.79652,661.50503 321.2499,662.63003 319.76703,664.00503 C 318.28415,665.38003 316.71375,666.46834 316.27724,666.4235 C 315.84074,666.37867 312.5586,665.73918 308.9836,665.00244 z M 275.4836,661.87695 C 273.8336,661.69632 267.3086,661.06009 260.9836,660.46311 C 247.76659,659.21564 238.72396,657.41226 231.22287,654.52791 C 228.32947,653.41533 225.22036,652.50503 224.31374,652.50503 C 222.69151,652.50503 211.80268,644.89817 211.14819,643.30766 C 210.96371,642.85936 210.40637,642.74374 209.90964,643.05074 C 209.41292,643.35773 209.27351,642.91312 209.59984,642.06271 C 209.92617,641.2123 210.55758,640.74174 211.00298,641.017 C 211.44837,641.29227 211.99403,640.97373 212.21557,640.30913 C 212.49314,639.47642 217.88226,638.82607 229.55098,638.21713 C 255.37458,636.86949 256.36521,636.43177 257.79863,625.73567 C 258.44214,620.93382 259.85623,614.67923 260.94106,611.83659 C 262.02588,608.99395 263.80511,602.69395 264.89489,597.83659 C 265.98466,592.97923 268.25936,582.92408 269.94976,575.49181 C 271.64015,568.05954 273.49172,557.70954 274.06434,552.49181 C 274.68748,546.81374 275.88395,541.5452 277.04453,539.36888 C 279.34667,535.05189 279.41218,534.50503 277.6272,534.50503 C 276.67138,534.50503 276.07384,532.3639 275.60389,527.25503 C 275.2371,523.26753 274.28473,517.30503 273.48753,514.00503 C 272.69033,510.70503 271.57148,502.60503 271.00121,496.00503 C 270.43094,489.40503 269.54633,481.53003 269.03541,478.50503 C 267.59894,470.00014 266.52987,435.80892 267.7378,437.00503 C 268.30163,437.56334 269.01256,446.39717 269.34735,457.00503 C 269.69089,467.89005 270.59547,478.9946 271.4653,483.00466 C 272.30037,486.85445 272.9836,493.01911 272.9836,496.70389 C 272.9836,500.38868 273.92514,508.26385 275.07591,514.20427 C 276.22668,520.14469 277.17168,526.43665 277.17591,528.18641 C 277.18026,529.9849 277.79216,531.60133 278.5836,531.90503 C 279.46001,532.24134 279.9836,531.77749 279.9836,530.66477 C 279.9836,529.68716 280.64429,528.01378 281.4518,526.94616 C 282.2593,525.87854 282.93696,523.65503 282.95769,522.00503 C 282.97843,520.35503 283.68442,514.50503 284.52656,509.00503 C 285.36871,503.50503 286.47519,494.50503 286.9854,489.00503 C 287.49562,483.50503 288.56634,476.53335 289.36478,473.51241 C 290.45655,469.38167 290.52728,467.84104 289.65005,467.29888 C 289.0085,466.90239 288.46765,466.22407 288.44816,465.7915 C 288.42868,465.35894 287.85034,463.99253 287.16298,462.75503 C 286.47562,461.51753 286.29742,460.50503 286.76699,460.50503 C 287.23656,460.50503 288.32794,461.96753 289.19228,463.75503 C 290.76381,467.00503 290.76381,467.00503 291.47399,464.00503 C 293.41424,455.80879 294.2921,453.10793 294.67246,454.16444 C 294.90204,454.80211 293.90532,460.42711 292.45753,466.66444 C 291.00974,472.90176 289.39485,481.38003 288.86889,485.50503 C 287.0411,499.84001 285.82681,510.0558 284.91165,518.79738 C 284.40538,523.63317 283.30291,528.92067 282.4617,530.54738 C 281.6205,532.17409 281.2813,533.51192 281.70792,533.52034 C 282.13454,533.52876 282.0336,533.86626 281.4836,534.27034 C 279.30177,535.8733 276.76012,543.33611 275.96355,550.47832 C 275.00956,559.03201 273.30303,569.17545 272.63388,570.26951 C 272.38646,570.67404 270.75217,577.98003 269.00213,586.50503 C 267.25209,595.03003 264.75146,605.15503 263.44518,609.00503 C 261.33107,615.23594 259.208,625.39423 258.53371,632.50503 C 258.40333,633.88003 258.22621,635.31063 258.14012,635.68413 C 257.77096,637.28582 244.51247,638.97387 224.00071,640.0307 C 218.23511,640.32777 213.17178,640.91685 212.74886,641.33977 C 211.76342,642.32521 223.46397,650.61704 226.32362,650.9598 C 227.51161,651.10219 230.2836,652.00414 232.4836,652.96413 C 243.74597,657.87854 273.75717,661.51452 278.01769,658.48076 C 288.54961,650.98137 285.36277,642.28669 271.6221,641.03158 C 267.29827,640.63663 261.89827,639.68861 259.6221,638.92487 C 257.34592,638.16112 256.6086,637.72672 257.9836,637.95952 C 269.21105,639.86048 281.34225,640.54517 282.11807,639.3217 C 282.57727,638.59753 282.95987,638.39763 282.96829,638.87747 C 282.97671,639.35732 283.65365,639.19383 284.47259,638.51417 C 285.29153,637.8345 285.672,636.80988 285.31808,636.23721 C 284.96416,635.66455 285.14189,635.48482 285.71304,635.83781 C 286.93692,636.59421 288.52101,632.96081 289.99993,626.00503 C 290.58463,623.25503 293.02507,615.15503 295.42314,608.00503 C 297.8212,600.85503 300.98475,589.83003 302.45325,583.50503 C 303.92174,577.18003 305.79217,569.98003 306.60976,567.50503 C 309.27702,559.43072 309.93551,556.0899 309.96053,550.50503 C 309.97845,546.50656 310.8044,543.27335 312.98592,538.66201 C 314.63632,535.17335 315.69144,531.84132 315.33062,531.2575 C 314.9698,530.67368 315.11357,530.46732 315.6501,530.79892 C 317.25733,531.79224 320.13191,522.09274 320.99877,512.7513 C 321.61052,506.159 323.0891,500.43408 327.00259,489.50503 C 337.10313,461.29768 340.19597,449.00286 339.5804,439.50503 C 339.17039,433.17883 338.54552,432.65224 333.11888,434.0599 C 317.93075,437.99965 284.93172,439.35811 274.8254,436.45966 C 272.99467,435.93461 270.28933,435.50503 268.81353,435.50503 C 265.48126,435.50503 265.01523,433.67871 266.64453,427.00503 C 269.3207,416.04336 270.79954,406.83021 270.41661,403.50503 C 266.45365,369.09263 262.52212,355.89213 258.75516,364.35058 C 252.70782,377.92947 249.1868,388.66714 249.68692,392.00503 C 250.21386,395.52193 245.295,407.23941 232.47563,433.00503 C 225.45932,447.10708 223.84193,451.26075 222.98765,457.37138 C 221.88442,465.26278 221.45354,466.50503 219.81961,466.50503 C 219.24433,466.50503 216.74202,467.87616 214.25892,469.55199 C 211.77581,471.22781 209.55227,472.40703 209.3177,472.17247 C 208.70288,471.55765 217.14124,465.50503 218.61322,465.50503 C 222.55576,465.50503 222.66384,449.41041 218.7324,447.75736 C 210.27263,444.2003 205.03706,452.41733 207.90215,464.75503 C 208.3811,466.81753 208.42662,468.50503 208.00329,468.50503 C 204.91014,468.50503 205.43754,453.76926 208.70185,448.98716 C 210.19688,446.79699 211.50504,443.43003 211.60887,441.50503 C 211.82682,437.46438 215.93381,421.55082 218.83515,413.50503 C 219.92598,410.48003 222.63277,402.92685 224.85023,396.72018 C 227.06769,390.51352 230.77494,382.00614 233.08856,377.8149 C 235.40217,373.62366 236.77504,370.5159 236.13937,370.90876 C 234.52552,371.90617 234.51536,371.94978 239.08324,358.27661 C 250.29511,324.71581 254.96981,316.85309 265.38968,314.02987 C 277.54297,310.73699 281.01852,309.37151 280.2994,308.17209 C 278.22055,304.70476 283.76187,310.75615 286.97736,315.46474 C 294.09133,325.88206 294.65055,326.12941 302.08504,322.14724 C 325.9613,309.3583 326.93984,308.62235 322.92506,306.4737 C 321.17869,305.53907 320.12988,305.80422 316.76498,308.03101 C 309.09146,313.1091 294.58328,312.54731 289.97412,306.9936 C 288.93935,305.74679 288.40716,305.75176 285.93267,307.03137 C 282.70481,308.70056 281.9836,308.83037 281.9836,307.74216 C 281.9836,307.32258 282.9961,306.51861 284.2336,305.95556 C 285.4711,305.39251 286.3765,304.402 286.2456,303.75442 C 286.11052,303.0862 286.65111,302.82395 287.4956,303.14801 C 288.61617,303.57801 288.9836,302.95181 288.9836,300.61202 C 288.9836,297.8906 288.64234,297.50434 286.2336,297.49945 C 279.35359,297.4855 276.10229,295.67244 274.96524,291.21575 C 274.37438,288.89985 273.01179,284.11675 271.93727,280.58662 C 270.86275,277.0565 269.9836,273.209 269.9836,272.03662 C 269.9836,270.86425 269.60798,269.47753 269.14888,268.95503 C 268.10171,267.76323 265.33344,259.98974 264.53236,255.99154 C 264.16184,254.14223 264.6788,250.79751 265.87051,247.33374 C 267.41754,242.83721 267.62082,240.83661 266.87016,237.49565 C 265.28205,230.42749 266.37307,215.17897 268.70506,211.85033 C 269.80142,210.28541 270.54186,208.55503 270.35049,208.00503 C 269.38322,205.22501 284.97346,198.00325 296.06262,196.09458 C 307.20719,194.17637 326.69644,202.05373 330.41138,209.978 C 333.3661,216.28067 334.34047,218.81198 334.15743,219.70981 C 334.0784,220.09744 335.31475,221.83902 336.90488,223.57998 C 341.39584,228.49696 341.53433,252.26358 337.11388,259.44773 C 335.53449,262.01456 333.90584,265.21502 333.49465,266.55986 C 331.74299,272.2889 327.30542,274.23028 324.64471,270.43159 C 323.00033,268.0839 322.52693,268.54375 321.48076,273.50503 C 320.0264,280.40205 318.48401,281.9065 304.63699,289.93447 C 287.39314,299.93179 285.62753,304.09887 296.72677,308.60372 C 310.40553,314.15553 319.4537,308.24664 319.56294,293.69063 C 319.61071,287.32441 320.05638,282.98077 320.68324,282.77182 C 321.37398,282.54157 321.6152,285.97094 321.4002,292.96493 C 321.222,298.76198 321.46279,303.50503 321.93529,303.50503 C 322.40778,303.50503 324.64234,305.04896 326.90097,306.936 C 329.73504,309.30379 332.78563,310.72408 336.74559,311.51942 C 347.93836,313.76744 362.29784,318.59079 361.1663,319.72233 C 360.41167,320.47696 359.13404,320.34584 356.79196,319.2734 C 350.80759,316.53314 344.59473,314.70321 336.9836,313.43906 C 332.8586,312.75393 328.8096,311.8457 327.98581,311.42078 C 327.08339,310.95529 325.29467,311.38178 323.48581,312.49374 C 296.24066,329.24215 294.36421,329.51185 286.32226,317.8353 C 284.30316,314.90365 282.24941,312.50503 281.75837,312.50503 C 281.26733,312.50503 281.16421,312.02181 281.52923,311.43121 C 281.99131,310.68354 281.62956,310.65768 280.33824,311.34605 C 279.31819,311.88982 275.3336,313.1145 271.4836,314.06756 C 257.81171,317.45203 256.83463,318.23976 251.97074,329.79896 C 249.60876,335.4123 246.90374,341.80503 245.95959,344.00503 C 243.06964,350.73903 238.63558,365.86612 238.8139,368.38302 C 238.90657,369.69092 237.22497,373.96592 235.07701,377.88302 C 232.92906,381.80013 229.82716,388.83003 228.1839,393.50503 C 226.54064,398.18003 224.0388,404.93003 222.62426,408.50503 C 217.26601,422.04703 214.73581,435.50503 217.54807,435.50503 C 219.66144,435.50503 224.9836,438.64723 224.9836,439.89496 C 224.9836,440.85669 223.96405,440.90186 220.4836,440.09436 C 218.0086,439.52013 215.9836,438.70262 215.9836,438.27767 C 215.9836,437.85272 215.5336,437.50503 214.9836,437.50503 C 214.4336,437.50503 213.9836,438.87799 213.9836,440.55606 C 213.9836,443.61354 218.09404,446.50503 222.44045,446.50503 C 225.67009,446.50503 246.73351,400.77456 248.0037,391.00503 C 248.85815,384.43315 252.31435,374.2649 257.53639,362.95955 C 259.38902,358.94874 261.20158,354.48473 261.5643,353.03953 C 262.24175,350.34035 263.20005,350.3721 263.60145,353.10702 C 264.3398,358.13777 266.27989,369.65683 267.03696,373.50503 C 267.52388,375.98003 268.21049,380.25503 268.56276,383.00503 C 268.91502,385.75503 270.02273,391.60503 271.02432,396.00503 C 272.70595,403.39238 272.73073,404.61768 271.34799,412.00503 C 268.46401,427.41272 268.44215,429.12701 271.12042,429.85427 C 280.40061,432.37421 325.9836,431.09802 325.9836,428.31826 C 325.9836,427.79686 326.87957,427.65463 327.97465,428.00219 C 329.06973,428.34975 330.53223,428.27947 331.22465,427.84601 C 331.91707,427.41254 333.1586,427.046 333.9836,427.03146 C 336.07691,426.99458 335.72534,423.68217 332.49485,413.00503 C 328.67696,400.38644 328.84642,398.36632 335.31701,379.3628 C 338.43364,370.20957 340.9836,361.33619 340.9836,359.64418 C 340.9836,357.27713 341.34078,356.70486 342.53269,357.16224 C 343.38469,357.48919 343.92017,358.48756 343.72264,359.38086 C 343.52511,360.27415 344.39703,363.8119 345.66024,367.24251 C 350.71129,380.96008 355.20263,392.05474 356.06919,392.95503 C 356.57212,393.47753 356.99051,397.97753 356.99895,402.95503 C 357.00841,408.52789 357.74792,414.88664 358.92368,419.50503 C 367.14774,451.80905 365.81231,449.06283 372.34149,447.09784 C 380.63844,444.60082 381.95827,443.24848 381.45262,437.76228 C 381.21146,435.14579 380.51377,427.60503 379.90219,421.00503 C 379.29061,414.40503 377.7001,404.73003 376.36773,399.50503 C 375.03535,394.28003 373.0565,383.93003 371.97028,376.50503 C 369.129,357.08307 363.44816,327.24158 362.11953,324.75901 C 360.72685,322.15677 360.66323,320.50503 361.95567,320.50503 C 363.88234,320.50503 368.01784,339.43177 372.55292,369.00503 C 373.94432,378.07836 375.95942,388.29286 379.65495,405.00503 C 380.38467,408.30503 381.64408,419.23937 382.45364,429.30356 C 383.26319,439.36775 384.19017,448.03025 384.51359,448.55356 C 384.83702,449.07687 384.15924,449.50503 383.00743,449.50503 C 381.24692,449.50503 381.07816,449.8132 381.94829,451.43905 C 384.7036,456.5874 386.04636,467.48224 384.33561,470.80923 C 381.76882,475.80103 374.11018,485.37154 371.68026,486.62382 C 369.95201,487.51449 370.15072,487.03612 372.61215,484.38046 C 378.83395,477.66769 383.84113,469.19835 383.47632,466.00437 C 382.69219,459.13908 381.67233,454.50503 380.94555,454.50503 C 380.51946,454.50503 380.40811,453.5977 380.69811,452.48875 C 381.22538,450.47247 381.22538,450.47247 376.52158,452.48875 C 373.9345,453.5977 370.96268,454.50503 369.91754,454.50503 C 364.5029,454.50503 361.74182,467.33699 364.94319,477.62301 C 367.06948,484.45479 366.86301,486.90833 364.62463,481.40857 C 360.72558,471.82851 360.5283,465.04426 363.97366,459.02241 C 366.32782,454.90776 366.88966,453.09676 366.10524,452.1516 C 365.5194,451.4457 364.15216,447.29894 363.06694,442.93659 C 361.98171,438.57423 360.39063,432.53003 359.5312,429.50503 C 356.46394,418.70901 354.98522,409.89166 354.98442,402.39335 C 354.98375,396.13742 354.46816,393.6438 352.08973,388.39335 C 350.49811,384.87977 347.99284,378.40503 346.52248,374.00503 C 342.98819,363.42884 342.74305,363.32783 339.77473,371.22486 C 330.29046,396.45711 329.79715,405.82688 337.12756,421.50503 C 337.77045,422.88003 338.46001,425.74543 338.65992,427.87259 C 338.85983,429.99975 339.87074,432.81739 340.90639,434.13401 C 342.37566,436.00188 342.60863,437.23943 341.9667,439.76644 C 341.51422,441.54767 340.68199,446.66844 340.11731,451.14594 C 339.524,455.85031 337.13682,464.92616 334.46224,472.64594 C 331.91664,479.99344 329.21411,488.03003 328.45661,490.50503 C 327.69911,492.98003 326.21098,497.70503 325.14965,501.00503 C 324.08831,504.30503 322.74534,511.1767 322.16527,516.2754 C 321.37078,523.25884 320.28651,527.25392 317.77002,532.47002 C 314.912,538.39405 314.61788,539.65198 315.73391,541.17823 C 325.73602,554.85694 330.48202,566.77697 332.96483,584.4554 C 334.18528,593.14541 336.83787,601.33712 341.25218,610.04834 C 343.99994,615.47079 346.15971,626.85474 345.02345,629.92634 C 344.62088,631.01459 344.92203,633.07889 345.71535,634.66914 C 347.81556,638.87909 348.34254,647.50503 346.49953,647.50503 C 345.61343,647.50503 345.27282,646.9149 345.62669,645.99275 C 346.43561,643.88473 345.15661,636.12389 343.66384,634.08241 C 342.5062,632.49924 341.94285,632.52205 334.95487,634.43509 C 325.39981,637.0509 317.57065,638.50924 318.64642,637.47288 C 319.10687,637.0293 323.40779,635.74167 328.20403,634.61148 C 346.29818,630.34774 347.53198,627.37415 338.8919,608.85246 C 334.03198,598.43426 332.40344,593.16635 331.51964,585.00503 C 330.09679,571.866 324.6906,555.26048 322.48635,557.25862 C 322.03348,557.66915 322.00298,557.41611 322.41858,556.69631 C 322.86659,555.92039 322.14518,553.88482 320.64657,551.69631 C 319.25636,549.66611 317.57267,546.78164 316.90503,545.28639 C 316.23739,543.79113 315.23742,542.84816 314.68286,543.1909 C 314.05191,543.58085 313.99135,543.28844 314.52105,542.40954 C 315.21207,541.26296 315.08837,541.23087 313.8475,542.23477 C 312.87537,543.02126 312.24559,545.48891 312.10027,549.08087 C 311.9753,552.16986 310.28893,560.61648 308.35279,567.85113 C 301.5299,593.34578 301.85233,591.10982 304.16735,596.87569 C 305.30005,599.69683 306.79503,604.03003 307.48953,606.50503 C 308.18403,608.98003 310.42911,615.50503 312.47859,621.00503 C 314.52807,626.50503 316.23012,631.56753 316.26093,632.25503 C 316.29173,632.94253 316.69193,633.50503 317.15027,633.50503 C 317.6086,633.50503 317.9836,633.99253 317.9836,634.58836 C 317.9836,640.32129 314.64175,632.63205 306.86474,609.00503 C 302.39176,595.41584 301.42006,593.58817 300.57183,597.1686 C 300.20224,598.72864 297.8937,606.17627 295.44173,613.71889 C 292.98976,621.26151 290.9836,628.27988 290.9836,629.31525 C 290.9836,631.93599 287.98447,637.7467 285.83528,639.28993 C 284.02751,640.588 283.76845,646.72986 285.40947,649.38509 C 286.20655,650.67479 283.12959,656.15795 280.03947,658.95447 C 278.93468,659.95429 278.27171,661.16218 278.5662,661.63868 C 278.86069,662.11517 278.96258,662.43761 278.79262,662.3552 C 278.62266,662.27279 277.1336,662.05758 275.4836,661.87695 z M 378.56428,449.46597 C 381.07703,448.24957 382.76181,446.89473 382.30825,446.45521 C 381.446,445.61964 367.29764,449.98342 367.7336,450.95047 C 367.8711,451.25548 367.9836,451.75705 367.9836,452.06507 C 367.9836,453.14424 374.03846,451.65688 378.56428,449.46597 z M 308.4836,435.95282 C 326.52487,433.79976 329.33949,433.38023 333.2336,432.26368 C 335.74444,431.54375 336.9836,430.6052 336.9836,429.42339 C 336.9836,427.84226 336.69702,427.79685 334.2336,428.98768 C 329.26298,431.3905 311.29059,432.73952 289.23331,432.36543 C 277.54565,432.16721 267.98315,432.31063 267.98331,432.68413 C 267.98398,434.25359 295.8244,437.83731 300.9836,436.93206 C 301.8086,436.7873 305.1836,436.34664 308.4836,435.95282 z M 302.46319,289.02284 C 307.95196,285.43804 313.02107,282.50503 313.72789,282.50503 C 315.41335,282.50503 318.97509,276.61106 318.97986,273.81405 C 318.98192,272.60901 319.46428,271.32599 320.05177,270.9629 C 320.63927,270.5998 320.86942,269.64987 320.56323,268.85194 C 320.25703,268.05401 320.41508,267.65366 320.91443,267.96228 C 321.41379,268.2709 322.53493,267.81084 323.40585,266.93992 C 325.09099,265.25478 325.02578,265.18545 326.5647,270.29815 C 327.23266,272.51731 330.9836,269.75724 330.9836,267.04657 C 330.9836,265.73312 332.04174,263.38645 333.33503,261.83175 C 337.44567,256.89024 338.28194,254.33957 338.14914,247.14842 C 338.07866,243.33179 337.87391,240.062 337.69413,239.88223 C 337.09691,239.285 330.98282,251.97344 330.98321,253.80926 C 330.98381,256.59385 325.31081,262.23224 323.91396,260.83539 C 323.07171,259.99314 323.29202,259.54192 324.77539,259.07111 C 325.87161,258.72319 327.29695,256.99099 327.94282,255.22178 C 328.58868,253.45257 331.07909,247.90299 333.47705,242.88938 C 337.74819,233.95939 338.32403,230.72266 336.28867,227.08568 C 335.43773,225.56513 335.17227,225.92371 334.62769,229.32932 C 334.23751,231.76937 332.18956,235.89477 329.48247,239.69389 C 327.00909,243.16502 324.00866,248.03003 322.81485,250.50503 C 320.64429,255.00503 320.64429,255.00503 319.3106,241.08502 C 318.57707,233.42901 317.76429,226.95238 317.50442,226.69252 C 316.81407,226.00217 313.98493,228.55585 313.9759,229.87747 C 313.9565,232.71761 300.01929,238.35041 292.7336,238.46266 C 288.54263,238.52723 289.45455,236.7184 294.2336,235.48732 C 305.01739,232.70943 308.18675,231.23292 313.2336,226.6358 C 316.60354,223.56615 316.83427,221.45399 313.7336,222.05861 C 311.26487,222.54001 307.6145,223.14178 301.4836,224.07807 C 293.44472,225.30573 280.32809,225.99259 274.23346,225.50503 C 265.67126,224.82007 264.56549,229.13783 272.7336,231.36156 C 279.54999,233.21729 281.9836,234.31369 281.9836,235.5289 C 281.9836,236.78951 276.11649,235.91592 271.22968,233.92769 C 267.97576,232.60381 267.97576,232.60381 268.61884,236.80442 C 269.40165,241.91781 269.42075,241.94093 273.00961,242.12143 C 277.22297,242.33333 280.9836,243.41396 280.9836,244.41279 C 280.9836,245.65997 274.31547,246.73683 271.04315,246.01811 C 266.18147,244.95031 265.01819,252.00485 268.47322,261.60307 C 269.93867,265.67415 271.48263,270.36562 271.90425,272.02856 C 272.32586,273.69149 273.13368,275.94149 273.69939,277.02856 C 274.26511,278.11562 275.03931,281.25503 275.41984,284.00503 C 277.43229,298.54855 285.56708,300.05793 302.46319,289.02284 z M 280.9836,280.61444 C 280.9836,279.56927 288.02672,278.52174 289.47352,279.35173 C 290.01797,279.66407 289.34297,280.23148 287.97352,280.61264 C 284.31345,281.63136 280.9836,281.63221 280.9836,280.61444 z M 278.33568,277.00503 C 278.79581,275.69193 292.85495,275.97638 294.20467,277.3261 C 294.92111,278.04254 292.57289,278.308 286.61363,278.18423 C 281.36836,278.07529 278.12266,277.61294 278.33568,277.00503 z M 277.01256,269.54409 C 274.56268,267.99474 276.39342,267.45518 281.11033,268.33639 C 286.38261,269.32136 289.31206,268.27432 290.87377,264.84673 C 291.48886,263.49677 292.44019,262.66919 292.98785,263.00766 C 294.13629,263.71743 294.36053,268.58618 293.2336,268.34355 C 292.8211,268.25473 291.21681,268.70473 289.6685,269.34355 C 286.30476,270.73139 279.0712,270.84601 277.01256,269.54409 z M 291.9836,247.76385 C 289.52547,246.808 287.96,244.15464 289.17592,243.00503 C 289.88675,242.33296 290.3839,242.41495 290.69193,243.25503 C 290.94402,243.94253 291.78777,244.50503 292.56693,244.50503 C 293.3461,244.50503 293.99049,243.94253 293.99891,243.25503 C 294.00912,242.4217 294.33735,242.50503 294.9836,243.50503 C 295.51676,244.33003 295.95987,244.5061 295.96829,243.89629 C 295.97846,243.15944 298.07999,242.92718 302.2336,243.20384 C 311.24872,243.80432 312.13008,244.31602 307.9836,246.54215 C 304.56061,248.37985 295.37203,249.08146 291.9836,247.76385 z M 300.7336,245.8157 C 299.7711,245.56418 298.1961,245.56418 297.2336,245.8157 C 296.2711,246.06723 297.0586,246.27303 298.9836,246.27303 C 300.9086,246.27303 301.6961,246.06723 300.7336,245.8157 z M 323.97177,243.52713 C 324.55397,242.43928 326.0914,240.48814 327.38829,239.19125 C 340.99023,225.58931 330.39672,203.67726 307.9836,199.05379 C 295.51304,196.48132 294.8663,196.61042 280.15006,204.60969 C 268.24515,211.08081 264.10721,221.95832 273.26219,222.71601 C 274.75897,222.83989 275.9836,223.2931 275.9836,223.72314 C 275.9836,225.06931 283.90763,224.60367 300.33495,222.29219 C 319.64496,219.57509 319.99027,219.88836 321.2359,241.25356 C 321.5065,245.89494 322.33575,246.58406 323.97177,243.52713 z M 311.23495,367.7872 C 310.27667,367.44343 310.33481,366.8417 311.48495,365.19964 C 312.30921,364.02285 312.9836,362.29643 312.9836,361.36315 C 312.9836,354.70344 322.52026,332.82858 323.05791,338.25503 C 323.51953,342.91407 328.54842,358.27575 330.30484,360.3921 C 331.67747,362.04602 331.2898,365.68497 329.63054,366.72156 C 328.59866,367.36621 323.55517,362.64787 320.84778,358.50503 C 320.08776,357.34205 319.74673,357.29418 319.32991,358.29198 C 319.03423,358.9998 317.71034,360.86476 316.38795,362.43633 C 315.06556,364.00791 313.9836,365.76472 313.9836,366.34037 C 313.9836,367.71637 312.78954,368.34489 311.23495,367.7872 z M 318.97181,355.52274 C 319.66512,354.31552 320.41065,354.65527 322.98924,357.35352 C 324.73062,359.1757 326.29183,360.51773 326.45861,360.33581 C 326.72107,360.0495 323.11952,345.37606 321.88277,341.6929 C 321.47986,340.49299 314.94213,358.01722 315.0154,360.10071 C 315.04717,361.00397 317.3626,358.32478 318.97181,355.52274 z "
       id="path2302"
       sodipodi:nodetypes="csssssssssssssssssssssccsssssssssssssssssssssssssssssssssssssssssssssssssssssssssssssssssssssssssssssssssssssssssssssssssssssssssssssssssssssssssssssssssssssssssssssssssssssssssssssssssssssssssssssssssssssssssssssssssssssssssssssssssssssssssssssssssssssssssssssssssssssssssssssssssssssccsssccssssssccssssssssssssssssssssssssssssssssssssssssccssccssccsssssccssssssssccssccsssssssccsssssssssccssssc" />
  </g>
</svg>
