<?xml version="1.0" encoding="UTF-8" standalone="no"?>
<!-- Created with Inkscape (http://www.inkscape.org/) -->
<svg
   xmlns:dc="http://purl.org/dc/elements/1.1/"
   xmlns:cc="http://web.resource.org/cc/"
   xmlns:rdf="http://www.w3.org/1999/02/22-rdf-syntax-ns#"
   xmlns:svg="http://www.w3.org/2000/svg"
   xmlns="http://www.w3.org/2000/svg"
   xmlns:sodipodi="http://sodipodi.sourceforge.net/DTD/sodipodi-0.dtd"
   xmlns:inkscape="http://www.inkscape.org/namespaces/inkscape"
   width="210mm"
   height="297mm"
   id="svg2"
   sodipodi:version="0.32"
   inkscape:version="0.45.1"
   sodipodi:docbase="/home/rover/herobot/arte"
   sodipodi:docname="alien2.svg"
   inkscape:output_extension="org.inkscape.output.svg.inkscape">
  <defs
     id="defs4" />
  <sodipodi:namedview
     id="base"
     pagecolor="#ffffff"
     bordercolor="#666666"
     borderopacity="1.0"
     inkscape:pageopacity="0.0"
     inkscape:pageshadow="2"
     inkscape:zoom="1.1632832"
     inkscape:cx="288.16564"
     inkscape:cy="584.55095"
     inkscape:document-units="px"
     inkscape:current-layer="layer1"
     inkscape:window-width="1022"
     inkscape:window-height="713"
     inkscape:window-x="0"
     inkscape:window-y="0" />
  <metadata
     id="metadata7">
    <rdf:RDF>
      <cc:Work
         rdf:about="">
        <dc:format>image/svg+xml</dc:format>
        <dc:type
           rdf:resource="http://purl.org/dc/dcmitype/StillImage" />
      </cc:Work>
    </rdf:RDF>
  </metadata>
  <g
     inkscape:label="Capa 1"
     inkscape:groupmode="layer"
     id="layer1">
    <path
       style="fill:#aaffaa;fill-opacity:1;stroke:#000000;stroke-width:2;stroke-miterlimit:1;stroke-opacity:0"
       d="M 278.39702,290.88116 L 298.9904,284.60148 L 320.1529,291.85915 L 329.59497,300.85901 L 341.77786,317.70385 L 340.13117,347.94232 L 335.94607,355.08272 L 318.26269,391.05676 L 323.53404,401.40471 L 344.78901,408.45334 L 348.06598,427.45606 L 349.23601,509.31339 L 346.52991,547.4808 C 336.43873,548.37847 336.98168,545.66867 336.98168,542.50439 L 335.95895,484.60033 L 332.13458,448.85728 L 327.71701,475.40013 L 326.85864,493.04499 L 330.15266,517.80824 L 317.43031,578.46004 L 305.00455,642.07783 L 302.36658,664.46828 L 276.89044,680.92675 L 264.54071,677.28543 L 284.53385,649.66556 L 293.2017,639.6628 L 293.06099,596.10363 L 297.60498,557.52179 L 297.53496,540.33215 L 283.62292,626.74791 L 285.23072,645.63141 L 276.35214,664.09546 L 267.47356,673.33149 L 257.33662,680.47025 L 248.45804,677.54208 L 267.77249,642.88429 L 274.25247,532.17928 L 276.36009,494.65663 L 280.24731,461.28637 L 276.12634,456.68627 L 263.40399,544.92182 L 254.83403,527.56794 L 265.24643,441.40297 L 270.02345,410.99871 L 294.91487,395.83562 L 278.99211,394.91328 L 258.91696,347.34976 L 260.10336,322.22855 L 264.84895,307.39689 L 278.39702,290.88116 z "
       id="path3576"
       sodipodi:nodetypes="cccccccccccccccccccccccccccccccccccccccccccccccccc"
       inkscape:export-filename="/home/rover/herobot/arte/pre/alien-1-00.png"
       inkscape:export-xdpi="18.230928"
       inkscape:export-ydpi="18.230928" />
    <path
       style="fill:#4d4d4d;fill-opacity:1;stroke:#000000;stroke-width:2;stroke-miterlimit:1;stroke-opacity:0"
       d="M 280.67677,355.68508 C 280.67677,359.355 282.32162,361.15956 280.31373,363.56629 C 278.30583,365.97301 274.77268,361.38371 271.71091,361.38371 C 263.53025,352.66575 264.86327,356.61208 262.50025,344.76459 C 262.71939,341.46349 259.83526,341.32451 262.89702,341.32451 C 265.95879,341.32451 272.53122,345.24517 274.53911,347.65189 C 276.54701,350.05862 280.67677,352.01515 280.67677,355.68508 z "
       id="path3657"
       sodipodi:nodetypes="csccssc"
       inkscape:export-filename="/home/rover/herobot/arte/pre/alien-1-00.png"
       inkscape:export-xdpi="18.230928"
       inkscape:export-ydpi="18.230928" />
    <path
       style="fill:#4d4d4d;fill-opacity:1;stroke:#000000;stroke-width:2.18413305;stroke-miterlimit:1;stroke-opacity:0"
       d="M 294.22255,357.8204 C 295.08199,361.38827 295.72496,362.38633 298.61662,364.16535 C 301.50829,365.94435 304.53004,360.49589 308.08,359.64076 C 315.52341,348.88044 317.94129,355.21682 317.90657,343.03881 C 316.87942,339.89072 317.15159,336.8226 313.60164,337.67772 C 310.05169,338.53285 303.34948,344.18011 301.58506,347.08069 C 299.82063,349.98128 293.3631,354.25252 294.22255,357.8204 z "
       id="path3660"
       sodipodi:nodetypes="csccssc"
       inkscape:export-filename="/home/rover/herobot/arte/pre/alien-1-00.png"
       inkscape:export-xdpi="18.230928"
       inkscape:export-ydpi="18.230928" />
    <path
       style="fill:#000000"
       d="M 250.16068,679.3527 C 246.14217,677.23606 246.66204,674.11013 252.24444,666.82311 C 269.47223,644.33471 273.02328,631.08018 271.52287,594.86502 C 270.81792,577.84978 270.90994,571.99512 271.95282,567.50881 C 272.89676,563.44811 273.29656,552.81344 273.33822,530.65713 C 273.3949,500.51176 273.48168,499.1607 276.04499,488.51334 C 278.40279,478.71959 278.61182,476.43328 277.95117,467.6641 C 276.98146,454.79256 275.57823,456.42027 274.91434,471.18676 C 274.35791,483.56311 274.09402,485.27774 270.03393,502.89773 C 268.59114,509.15914 267.3676,517.25914 267.31494,520.89773 C 267.1858,529.8214 264.27437,542.61102 262.46329,542.21055 C 261.71016,542.04402 260.77474,542.42428 260.38458,543.05557 C 259.95175,543.7559 259.42128,543.19169 259.02388,541.60836 C 258.66567,540.1811 257.94527,539.01334 257.42301,539.01334 C 256.90075,539.01334 256.75603,539.80084 257.10139,540.76334 C 257.46899,541.78779 257.35233,542.1681 256.82001,541.68064 C 254.65171,539.69505 254.68252,512.20443 256.86126,504.86779 C 257.70971,502.01077 258.18432,499.45365 257.91596,499.18529 C 257.6476,498.91693 257.92057,498.10389 258.52256,497.37853 C 259.12456,496.65317 259.77688,492.78677 259.97216,488.78652 C 260.16745,484.78627 260.7948,477.01334 261.36627,471.51334 C 261.93774,466.01334 262.87345,455.66334 263.44562,448.51334 C 266.1129,415.18249 268.20527,409.10436 278.29953,405.36413 C 280.83566,404.42441 284.03568,402.91462 285.41068,402.00904 C 286.78568,401.10346 289.39822,399.769 291.21631,399.04357 C 293.29987,398.21223 294.17138,397.37404 293.57367,396.77633 C 292.97597,396.17863 291.93874,396.18165 290.76804,396.7845 C 289.0161,397.68666 285.43042,397.58801 280.91068,396.51329 C 279.0013,396.05928 276.90404,392.34575 272.15689,381.01334 C 268.41209,372.07376 263.09664,360.50262 262.51009,360.01334 C 262.18041,359.73834 261.81764,358.83834 261.70393,358.01334 C 261.59022,357.18834 260.63354,352.91334 259.57798,348.51334 C 256.03541,333.7465 257.38155,319.65735 263.39739,308.53791 C 267.50231,299.01969 268.60877,299.09392 274.50588,293.92545 C 301.4571,269.04422 349.46528,299.2006 343.30413,337.14112 C 342.735,340.64584 342.10894,344.75068 341.91288,346.26298 C 341.71682,347.77528 340.62362,350.19846 339.48355,351.64784 C 338.34347,353.09721 337.41068,354.70451 337.41068,355.21963 C 337.41068,355.73474 323.74873,376.76574 324.05478,375.63987 C 324.55207,373.81045 334.02495,358.16348 336.31875,353.44767 C 339.90449,343.96605 341.99324,334.61228 340.31372,323.26334 C 340.25054,319.55412 339.85349,316.39543 337.13725,312.93985 C 336.71187,312.62442 336.1762,311.39207 335.94688,310.20129 C 336.03557,309.03276 322.87184,295.26334 322.00177,294.91012 C 317.06487,290.71746 312.3126,289.82355 304.41068,287.82409 C 304.41068,286.64197 295.35416,286.83294 289.2099,288.14462 C 279.09425,290.30412 268.37097,300.77293 262.93478,313.7962 C 259.61071,321.75956 257.97777,344.50412 261.04445,340.12582 C 266.54758,332.269 287.05773,354.33025 282.37857,363.07334 C 271.21523,371.61927 258.90219,344.92032 265.48411,360.64242 C 266.67481,363.32143 268.44152,367.31334 269.41011,369.51334 C 280.39879,394.47232 280.55577,394.72174 285.57654,395.20055 C 290.55086,395.67493 295.45158,393.60842 302.42567,388.09572 C 305.2662,385.85041 307.95296,384.01334 308.39623,384.01334 C 308.83951,384.01334 310.64601,381.76334 312.41068,379.01334 C 314.17535,376.26334 316.23314,374.01334 316.98354,374.01334 C 318.64363,374.01334 317.78574,376.67985 315.24575,379.41478 C 313.29174,381.93934 312.4328,382.56398 311.41068,384.57236 C 311.41068,385.42982 311.02883,385.89538 310.56212,385.60694 C 310.09542,385.3185 308.83739,385.89878 307.76651,386.89646 C 306.69563,387.89413 305.38999,388.89107 304.86507,389.11188 C 301.58616,390.49115 296.49395,394.70852 296.87252,395.73131 C 297.12047,396.4012 296.88565,397.2198 296.35069,397.55041 C 295.81574,397.88103 295.67993,398.63997 296.04888,399.23695 C 296.41783,399.83392 296.31267,400.07914 295.81519,399.78188 C 265.61294,411.40013 268.56673,420.32293 265.4774,447.01334 C 264.88136,454.43834 263.94379,465.38778 263.39391,471.34544 C 262.84402,477.30309 262.6494,482.59059 262.96142,483.09544 C 263.27343,483.60028 263.05216,484.01334 262.4697,484.01334 C 261.87021,484.01334 261.41068,486.11354 261.41068,488.85338 C 261.41068,491.5154 260.47686,497.2529 259.33553,501.60338 C 257.98688,506.7441 257.23253,512.83924 257.18084,519.01334 C 257.07827,531.26465 257.18411,531.71582 260.75791,534.26059 C 262.41555,535.44094 263.45821,535.89927 263.07493,535.27911 C 262.69165,534.65894 262.8039,533.88835 263.32438,533.56668 C 264.33189,532.944 265.09454,527.1909 265.78388,515.01334 C 266.01738,510.88834 266.71653,506.21343 267.33753,504.62465 C 267.95854,503.03587 268.26336,501.53269 268.01492,501.28424 C 267.76647,501.0358 268.22936,498.96071 269.04355,496.67293 C 271.37858,490.11186 273.19268,478.26952 273.28066,469.01334 C 273.3251,464.33834 273.64813,458.48834 273.99849,456.01334 C 274.95616,449.24827 274.99594,443.25318 274.13283,435.76334 C 273.6189,431.30356 273.70372,429.01334 274.38283,429.01334 C 274.94815,429.01334 275.41068,429.83834 275.41068,430.84667 C 275.41068,431.85501 275.70291,432.97223 276.06007,433.3294 C 276.75918,434.0285 277.38827,439.459 277.39454,444.84891 C 277.39668,446.68348 277.70096,448.674 278.07072,449.27229 C 278.44048,449.87058 278.83674,451.51957 278.9513,452.93671 C 281.03315,478.69143 281.06488,477.56359 277.9264,489.35909 C 275.49278,498.50547 275.41068,499.83937 275.41068,530.23219 C 275.41068,556.15502 275.13009,562.5952 273.80646,567.05233 C 272.71814,570.71711 272.3971,574.23255 272.80816,577.98383 C 274.27064,591.32996 273.58943,622.29545 271.61666,632.14645 C 269.32535,643.58803 264.58203,653.09284 254.56437,666.3163 C 249.46723,673.04461 248.08075,677.01334 250.82735,677.01334 C 251.60651,677.01334 252.42975,677.57055 252.65676,678.25158 C 252.98467,679.2353 253.63004,679.23442 255.79648,678.24733 C 257.29632,677.56396 258.27246,676.59871 257.96569,676.10235 C 257.65892,675.60598 258.1983,675.40655 259.16432,675.65917 C 261.38672,676.24034 265.73033,672.28872 264.98994,670.35928 C 264.68395,669.56188 264.84772,669.16541 265.35389,669.47824 C 271.04455,672.99526 281.14126,654.09892 282.30283,637.75774 C 283.41014,622.17978 285.26498,607.35151 288.40017,589.01334 C 289.01138,585.43834 289.65473,581.61334 289.82986,580.51334 C 290.00498,579.41334 290.68281,577.17948 291.33613,575.54921 C 292.08554,573.6792 292.28828,570.35711 291.8854,566.54921 C 291.37008,561.67863 291.84118,558.10008 294.32555,548.01334 C 298.03135,532.96758 298.00507,533.75774 294.91068,530.41884 C 291.66017,526.91148 291.66017,524.95965 294.91068,528.01334 C 297.41068,530.36197 297.41068,530.36197 297.41068,528.12864 C 297.41068,526.9003 297.75617,526.10883 298.17844,526.36981 C 299.79147,527.36672 299.57982,561.16013 297.91135,569.01334 C 297.03497,573.13834 296.36128,579.21334 296.41425,582.51334 C 296.46723,585.81334 296.04968,596.61334 295.48636,606.51334 C 294.92303,616.41334 294.24015,628.70516 293.96884,633.82849 C 293.41318,644.32125 292.76321,645.51382 281.15755,657.33448 C 277.99333,660.55733 275.6542,663.59835 275.95949,664.09232 C 276.26478,664.58628 275.8913,664.75127 275.12955,664.45895 C 272.27228,663.36252 264.05371,674.05665 266.56217,675.60697 C 267.36004,676.10007 267.14779,676.7324 265.87104,677.66598 C 264.8576,678.40703 264.22693,679.04589 264.46955,679.08567 C 275.2278,680.84974 283.74846,677.17117 292.24558,667.09409 C 295.96726,662.6804 299.79716,659.96095 297.84657,663.11707 C 297.4714,663.72412 298.35012,663.4439 299.7993,662.49436 C 302.96779,660.41829 303.16994,659.55099 303.75722,645.51334 C 304.12165,636.8025 305.09457,631.18366 308.43236,618.51334 C 311.75375,605.90528 312.71145,600.39338 312.9499,592.51334 C 313.18541,584.73076 313.72904,581.54954 315.40155,578.16685 C 316.58353,575.77627 317.29927,573.1654 316.99209,572.36491 C 316.68492,571.56441 316.78548,571.12695 317.21558,571.39276 C 317.64567,571.65857 319.02605,567.29445 320.28309,561.6947 C 321.54013,556.09495 323.45814,547.5259 324.54533,542.65236 C 325.63253,537.77882 326.2759,533.54523 325.97504,533.24437 C 325.67419,532.94351 325.90932,532.11744 326.49757,531.40864 C 327.08582,530.69985 327.71022,528.40845 327.88514,526.31663 C 328.06005,524.22482 328.53426,521.69649 328.93894,520.69811 C 329.92878,518.25608 328.76758,506.02757 326.21506,492.01334 C 323.68709,478.13388 323.70706,477.62084 327.36341,462.51334 C 328.96075,455.91334 330.83057,447.74594 331.51855,444.36356 C 332.88234,437.6587 335.60859,436.27505 335.15193,442.51952 C 335.01924,444.33392 334.49671,445.56347 333.99074,445.25184 C 333.47398,444.93357 333.37272,445.47204 333.7597,446.48049 C 334.4944,448.39509 335.07587,457.53909 335.79668,478.51334 C 336.0424,485.66334 336.79924,493.98834 337.47854,497.01334 C 338.91453,503.40795 339.05891,514.06011 337.91778,529.41961 C 337.1075,540.32589 337.1075,540.32589 339.50909,539.71935 C 341.68865,539.16889 341.74673,539.23555 340.13738,540.44035 C 338.36516,541.76709 340.91028,543.58406 343.81904,543.0687 C 344.31864,542.98019 345.14517,543.49402 345.65579,544.21055 C 346.30197,545.11734 346.43417,544.82899 346.09069,543.26196 C 345.81927,542.0237 345.94455,541.22526 346.3691,541.48764 C 346.79364,541.75003 347.45383,537.29465 347.83617,531.5868 C 348.21852,525.87896 348.86915,519.94582 349.28201,518.40205 C 349.75586,516.63028 349.48549,514.10501 348.54885,511.55426 C 347.37814,508.36608 347.00382,500.76049 346.77503,475.51334 C 346.61554,457.91334 346.46764,443.06334 346.44637,442.51334 C 346.42509,441.96334 346.66524,436.64787 346.98004,430.70118 C 347.38281,423.09255 347.20196,419.46677 346.36966,418.46391 C 345.71916,417.68011 345.44796,416.35858 345.76699,415.52719 C 346.08603,414.6958 345.93989,413.00257 345.44225,411.76445 C 344.94461,410.52634 344.50893,409.85084 344.47407,410.26334 C 344.4392,410.67584 343.51068,410.11334 342.41068,409.01334 C 341.31068,407.91334 339.61081,407.01334 338.63319,407.01334 C 337.65556,407.01334 335.96807,406.39584 334.88319,405.64111 C 333.17378,404.45192 326.48996,402.47262 325.59795,402.89145 C 325.42595,402.97221 324.41345,402.06382 323.34795,400.8728 C 322.28245,399.68179 321.41068,399.06186 321.41068,399.49519 C 321.41068,399.92852 320.52589,399.15822 319.44447,397.78342 C 317.38391,395.16385 317.75848,385.43285 320.49225,380.86093 C 327.19738,369.64736 338.09365,354.27453 321.34087,382.25674 C 316.53606,391.32611 322.22719,399.08742 329.11978,401.57777 C 349.75189,406.18384 348.90702,403.6914 348.92802,460.01334 C 348.94142,495.92061 349.25351,507.65234 350.29806,511.51334 C 351.46324,515.82025 351.42618,518.04015 350.03071,527.52789 C 349.13969,533.5859 348.37905,540.3359 348.34039,542.52789 C 348.252,547.54 347.06688,550.88412 345.99415,549.14841 C 345.40991,548.20308 344.90415,548.18883 343.82165,549.08723 C 342.6824,550.03272 342.41068,549.8495 342.41068,548.13578 C 342.41068,546.17296 340.79207,545.39692 337.91068,545.97825 C 337.36068,546.08922 337.24428,545.84641 337.652,545.43868 C 338.05973,545.03095 337.83473,544.02041 337.152,543.19302 C 336.26155,542.1139 336.03399,538.41333 336.34693,530.10101 C 337.12262,509.49742 336.89403,501.74464 335.13635,489.0432 C 334.18723,482.18462 333.41068,473.58813 333.41068,469.93989 C 333.41068,458.78694 332.15801,449.49084 331.33191,454.51334 C 330.97006,456.71334 329.83837,461.43834 328.81704,465.01334 C 326.47216,473.22121 326.44477,486.3334 328.75542,494.51334 C 332.55985,507.98148 332.19004,515.3517 326.34695,542.51334 C 321.63792,564.40332 318.16714,577.73137 316.23619,581.33937 C 315.63989,582.45357 314.81838,588.57352 314.4106,594.93926 C 313.92875,602.46154 312.79034,609.48898 311.15872,615.01334 C 306.61732,630.38966 305.4652,637.27612 305.2195,650.51334 C 305.07834,658.11825 296.41068,674.60012 296.41068,667.26363 C 296.41068,666.89232 294.27318,668.63712 291.66068,671.14096 C 282.1525,680.25369 267.12672,684.45098 262.61894,679.25347 C 260.89236,677.2627 260.80352,677.25974 257.38661,679.07891 C 253.34451,681.23094 253.70095,681.21743 250.16068,679.3527 z M 291.03903,642.64653 C 291.88813,641.06978 292.34466,638.8689 292.05355,637.75567 C 291.76243,636.64244 291.94293,629.6075 292.45465,622.12248 C 292.96637,614.63745 293.64178,601.76334 293.95556,593.51334 C 294.26934,585.26334 295.3544,574.01334 296.36682,568.51334 C 298.32784,557.85996 298.84483,549.95658 297.7967,546.65423 C 296.55901,542.75461 293.20595,558.78247 293.801,565.75393 C 294.18602,570.26469 293.76447,574.14535 292.2802,579.75393 C 291.15079,584.0216 289.86798,590.66334 289.4295,594.51334 C 288.99102,598.36334 287.6928,608.48834 286.54455,617.01334 C 281.74172,652.67152 282.69933,658.13301 291.03903,642.64653 z M 260.70043,537.01334 C 260.98809,535.91334 260.81557,535.01334 260.31706,535.01334 C 259.81855,535.01334 259.41068,535.91334 259.41068,537.01334 C 259.41068,538.11334 259.5832,539.01334 259.79405,539.01334 C 260.0049,539.01334 260.41277,538.11334 260.70043,537.01334 z M 279.00943,362.24803 C 282.673,355.04798 270.29623,344.98678 264.57122,341.91412 C 259.48745,349.6349 270.12987,362.06734 279.00943,362.24803 z M 285.41068,384.04532 C 287.2061,382.84675 292.41068,382.67761 292.41068,383.81783 C 292.41068,384.2603 290.49818,384.7178 288.16068,384.8345 C 285.04072,384.99026 284.30952,384.78043 285.41068,384.04532 z M 288.91068,375.01334 C 289.2506,374.46334 290.42871,374.01334 291.52871,374.01334 C 292.62871,374.01334 293.2506,374.46334 292.91068,375.01334 C 292.57076,375.56334 291.39265,376.01334 290.29265,376.01334 C 289.19265,376.01334 288.57076,375.56334 288.91068,375.01334 z M 294.22173,363.17127 C 291.53926,360.3292 291.53926,360.3292 294.13889,354.92127 C 298.56,348.59573 299.02234,347.27069 304.16068,342.26334 C 309.3655,337.05852 310.97675,336.01334 313.79567,336.01334 C 326.86608,336.01334 316.76899,359.73123 301.51146,364.86875 C 297.03942,366.37458 297.30308,366.43597 294.22173,363.17127 z M 306.15666,360.18207 C 315.52885,353.46712 320.56389,338.01334 313.37951,338.01334 C 307.27428,340.79235 293.31541,355.75103 295.98027,361.47921 C 297.7524,364.18382 301.18136,363.74675 306.15666,360.18207 z "
       id="path2447"
       sodipodi:nodetypes="csssssssssssssssssssssssssssssssccsssssccccccsssccssssssccssssssccsssssssssssssssssssssssssssssssssssssssssssssssssssssssssssssssssssssssssssssssssssssssssssssssssssssssccsssssssssssssssssssssssssccsssssssssccssscccccssccsssccccssccccc"
       inkscape:export-filename="/home/rover/herobot/arte/pre/alien-1-00.png"
       inkscape:export-xdpi="18.230928"
       inkscape:export-ydpi="18.230928" />
  </g>
</svg>
