<?xml version="1.0" encoding="UTF-8" standalone="no"?>
<!-- Created with Inkscape (http://www.inkscape.org/) -->
<svg
   xmlns:dc="http://purl.org/dc/elements/1.1/"
   xmlns:cc="http://web.resource.org/cc/"
   xmlns:rdf="http://www.w3.org/1999/02/22-rdf-syntax-ns#"
   xmlns:svg="http://www.w3.org/2000/svg"
   xmlns="http://www.w3.org/2000/svg"
   xmlns:sodipodi="http://sodipodi.sourceforge.net/DTD/sodipodi-0.dtd"
   xmlns:inkscape="http://www.inkscape.org/namespaces/inkscape"
   width="210mm"
   height="297mm"
   id="svg2449"
   sodipodi:version="0.32"
   inkscape:version="0.45.1"
   sodipodi:docbase="/home/rover/Desktop/tmp2"
   sodipodi:docname="hombre-2.svg"
   inkscape:output_extension="org.inkscape.output.svg.inkscape">
  <defs
     id="defs2451" />
  <sodipodi:namedview
     id="base"
     pagecolor="#ffffff"
     bordercolor="#666666"
     borderopacity="1.0"
     inkscape:pageopacity="0.0"
     inkscape:pageshadow="2"
     inkscape:zoom="1.208589"
     inkscape:cx="387.80123"
     inkscape:cy="745.33755"
     inkscape:document-units="px"
     inkscape:current-layer="layer1"
     inkscape:window-width="1022"
     inkscape:window-height="713"
     inkscape:window-x="0"
     inkscape:window-y="0" />
  <metadata
     id="metadata2454">
    <rdf:RDF>
      <cc:Work
         rdf:about="">
        <dc:format>image/svg+xml</dc:format>
        <dc:type
           rdf:resource="http://purl.org/dc/dcmitype/StillImage" />
      </cc:Work>
    </rdf:RDF>
  </metadata>
  <g
     inkscape:label="Capa 1"
     inkscape:groupmode="layer"
     id="layer1">
    <path
       style="fill:#000000"
       d="M 197.42855,464.79074 C 194.71044,462.07263 195.46661,460.85847 202.35712,456.87717 C 210.14249,452.37882 217.24379,444.2628 219.34583,437.4609 C 219.94423,435.5246 219.78389,435.17629 218.51781,435.66213 C 217.36289,436.10532 215.74089,434.27688 212.38403,428.74766 C 209.87401,424.61332 208.01765,420.91144 208.2588,420.52126 C 208.49994,420.13108 207.04571,417.4911 205.02718,414.65463 C 194.74119,400.20065 189.74511,393.63676 187.36689,391.45241 C 183.00986,387.45056 181.71283,384.01638 182.71717,379.1411 C 183.20199,376.78769 183.66855,371.26217 183.75399,366.86217 C 183.89854,359.41748 184.50782,354.523 186.8661,341.86217 C 187.37832,339.11217 188.0353,333.03717 188.32604,328.36217 C 188.98508,317.76508 189.13665,316.93521 190.7734,314.96305 C 192.42875,312.96847 198.03198,312.74292 197.28055,314.70112 C 196.99796,315.43754 195.32458,316.67504 193.56193,317.45112 L 190.35712,318.86217 L 189.2336,330.86217 C 188.61566,337.46217 187.63634,345.78717 187.05734,349.36217 C 186.47833,352.93717 185.71116,361.03717 185.35253,367.36217 C 184.99389,373.68717 184.49949,380.12693 184.25386,381.67274 C 183.78137,384.64624 186.92298,389.89807 188.38469,388.57826 C 188.82089,388.18441 188.83004,388.46355 188.40503,389.19858 C 187.91174,390.05169 188.71664,391.67905 190.63075,393.69858 C 194.20992,397.47486 206.10159,413.08194 207.75812,416.17718 C 209.44656,419.33206 211.79988,418.89836 212.51962,415.29967 C 212.90878,413.35389 213.48041,412.58546 214.08726,413.19231 C 215.1803,414.28535 213.40087,418.2204 211.01962,419.9761 C 209.71558,420.93758 210.04011,421.99829 213.39074,427.7261 C 215.5258,431.37594 217.74167,434.35229 218.3149,434.34021 C 220.09996,434.30259 228.15354,430.37169 231.32868,427.98825 C 232.99432,426.73793 235.14462,425.42469 236.10712,425.06994 C 238.37672,424.23343 238.30954,422.5652 235.85712,418.86217 C 234.76437,417.21217 233.88856,415.18717 233.91089,414.36217 C 233.93321,413.53717 235.18539,415.24453 236.6935,418.1563 C 238.20162,421.06807 239.64636,423.31807 239.90403,423.1563 C 240.16171,422.99453 239.13983,423.99372 237.63318,425.37673 L 234.89383,427.89129 L 238.30616,430.61406 C 240.18295,432.11158 242.29009,434.91753 242.9887,436.8495 C 243.68731,438.78147 244.731,440.37585 245.30801,440.39258 C 245.88502,440.4093 245.58831,440.8712 244.64865,441.41903 C 243.60615,442.02681 243.18514,443.0534 243.56859,444.05266 C 243.99929,445.17503 243.81546,445.45446 242.98431,444.94078 C 242.26558,444.49658 240.05792,445.56038 237.56437,447.55246 C 235.25038,449.4011 231.70359,452.01247 229.6826,453.35551 C 227.66161,454.69855 226.27126,456.26198 226.59292,456.82979 C 226.91459,457.3976 226.82645,457.5455 226.39706,457.15845 C 225.96767,456.77141 223.27772,457.95073 220.41941,459.77918 C 215.7734,462.75119 204.90987,466.36217 200.61466,466.36217 C 199.72658,466.36217 198.29283,465.65503 197.42855,464.79074 z M 217.95974,459.79739 C 221.66626,457.45756 234.65036,447.73747 240.28936,443.0811 L 243.2216,440.65982 L 240.58034,436.15286 C 239.12765,433.67403 236.89595,430.96241 235.621,430.12703 C 233.4646,428.7141 232.89116,428.83069 227.39984,431.79854 C 222.35978,434.52251 221.26728,435.63142 219.92695,439.38375 C 217.99308,444.79773 207.9957,455.74989 202.42416,458.5581 C 197.38681,461.09707 197.50551,460.98423 198.38141,462.40147 C 199.63349,464.42738 213.55956,462.5751 217.95974,459.79739 z M 194.35712,315.36217 C 194.69704,314.81217 194.52515,314.36217 193.97515,314.36217 C 193.42515,314.36217 192.69704,314.81217 192.35712,315.36217 C 192.0172,315.91217 192.18909,316.36217 192.73909,316.36217 C 193.28909,316.36217 194.0172,315.91217 194.35712,315.36217 z M 141.35712,461.4198 C 138.05712,460.47618 130.76166,459.10664 125.14499,458.37639 C 119.52832,457.64613 115.1272,456.73419 115.36473,456.34986 C 115.60226,455.96553 114.57272,455.81315 113.07686,456.01122 C 111.58101,456.2093 110.85775,456.12742 111.46962,455.82927 C 112.1296,455.50767 111.16016,453.86521 109.08629,451.79134 C 107.16358,449.86863 105.86221,448.02375 106.19435,447.69161 C 106.52649,447.35947 110.70089,446.73201 115.4708,446.29725 C 125.60465,445.3736 136.66657,442.60104 138.98305,440.40416 C 139.8773,439.55606 140.9518,437.73717 141.37081,436.36217 C 141.78982,434.98717 143.15332,431.61217 144.40081,428.86217 C 146.53406,424.15957 151.26556,408.618 153.73859,398.19031 C 154.34798,395.62078 155.33647,387.74578 155.93523,380.69031 C 156.53399,373.63483 157.86567,365.16217 158.89453,361.86217 C 160.54226,356.57715 161.97517,345.79902 164.70836,318.13133 C 165.21082,313.04506 165.11934,310.28291 164.44094,310.05678 C 163.1782,309.63586 169.01924,297.51139 172.44763,293.43697 L 174.91817,290.50091 L 172.13765,290.18154 C 168.98172,289.81905 169.11168,291.1637 170.31886,271.36217 C 171.04542,259.44432 169.95319,250.9911 166.48875,241.71924 C 163.14461,232.76932 160.85712,221.73028 160.85712,214.54191 C 160.85712,207.38577 160.9872,206.97565 164.2255,203.92154 C 166.44336,201.82983 169.52431,200.28165 173.24563,199.38892 C 177.80267,198.2957 179.28089,197.41258 180.87726,194.82959 C 181.96618,193.06767 182.85712,190.96822 182.85712,190.16414 C 182.85712,189.36006 180.60712,186.42843 177.85712,183.64939 C 174.45455,180.21089 172.85712,177.77227 172.85712,176.01641 C 172.85712,174.5973 171.97908,171.2086 170.90591,168.48595 C 169.60858,165.19458 169.14976,162.33373 169.53676,159.94893 C 170.06796,156.67549 169.91083,156.36174 167.73797,156.3572 C 166.4285,156.35447 164.07599,155.32704 162.51016,154.07402 L 159.6632,151.79581 L 161.83906,147.62134 C 163.03578,145.32538 164.85639,143.17979 165.88487,142.85336 C 168.62688,141.98308 169.36122,139.39511 169.71301,129.36217 C 169.84939,125.47259 170.69032,125.01326 173.17584,122.61217 C 178.12684,117.82368 184.23428,118.74855 185.02524,118.76528 C 185.96588,118.78517 188.64785,118.91694 180.65548,119.49533 C 174.59103,119.93193 170.85963,127.37828 170.85834,136.56686 L 170.85712,145.27154 L 174.45565,145.94663 C 180.80109,147.13704 206.31083,144.42802 213.02707,141.85051 C 215.02611,141.08333 214.78761,139.33629 211.42459,130.11217 C 210.07105,126.39967 209.67233,123.93588 209.48552,123.49125 C 207.41313,118.55868 211.58454,125.68687 212.64443,128.52816 C 214.55998,133.66325 214.60917,133.7037 220.86569,135.2906 C 225.40041,136.44078 227.71924,137.63629 229.161,139.56737 C 231.01643,142.05251 231.04727,142.42302 229.58452,144.65545 C 227.41713,147.96331 222.4298,150.13302 209.97045,153.18841 C 204.13312,154.61989 198.8575,156.44571 198.24685,157.24579 C 196.84997,159.07599 191.34158,159.12151 187.17456,157.3373 C 184.36603,156.13476 183.59748,156.18706 180.6353,157.7823 C 177.0942,159.6893 173.18531,159.56165 173.60712,157.55278 C 173.74462,156.89794 173.29462,156.36283 172.60712,156.36364 C 170.50279,156.3661 170.62687,164.13082 172.82513,170.0062 C 173.94273,172.99325 174.85712,176.26795 174.85712,177.28332 C 174.85712,179.45938 182.15303,186.36217 184.45302,186.36217 C 185.32759,186.36217 190.26647,183.99967 195.42829,181.11217 C 202.21859,177.31372 204.83891,175.3092 204.90556,173.86217 C 204.95623,172.76217 205.40097,170.96217 205.89387,169.86217 C 206.5676,168.35859 206.73632,168.93418 206.57358,172.18117 C 206.36232,176.39642 206.20097,176.58656 199.85712,180.09586 C 188.88819,186.16369 186.47918,187.36217 185.25147,187.36217 C 183.82823,187.36217 183.90584,192.55273 185.3447,193.59686 C 185.90153,194.00094 187.39618,194.33844 188.66614,194.34686 C 189.948,194.35536 190.70023,194.80702 190.35712,195.36217 C 190.00867,195.92598 190.81896,196.36217 192.21477,196.36217 C 193.5764,196.36217 194.84045,196.02467 195.02379,195.61217 C 195.20712,195.19967 197.60712,193.73717 200.35712,192.36217 C 205.2104,189.93553 205.37588,189.70849 205.99635,184.62484 C 206.34793,181.7443 207.64517,177.4693 208.87912,175.12484 C 214.84692,163.78615 216.19065,160.58267 216.63588,156.63266 C 216.90062,154.28389 217.5087,150.77853 217.98717,150.77853 C 220.41416,150.77853 217.17157,163.00912 211.49007,173.69522 C 206.94001,182.25323 206.58489,188.2492 210.32764,193.32221 C 212.53851,196.31887 213.92179,196.95245 223.48958,199.35071 C 232.283,201.55486 234.57883,202.52952 236.42191,204.84096 C 238.88737,207.93294 240.34462,216.11523 239.39364,221.52692 C 238.85744,224.57827 233.85712,267.91129 233.85712,269.50668 C 233.85712,269.88622 231.83851,270.96767 229.37131,271.9099 C 223.06948,274.31659 222.68618,275.05073 224.40724,281.41746 C 226.24919,288.23142 226.15357,305.30016 224.21987,314.86217 C 223.4413,318.71217 221.92656,326.36217 220.8538,331.86217 C 219.78103,337.36217 217.37717,347.93717 215.51189,355.36217 C 212.34378,367.97326 212.23779,368.90732 213.90225,369.54793 C 215.3035,370.08724 215.58747,371.0483 215.23189,374.04793 C 214.73862,378.209 215.72753,380.19165 223.95103,391.52885 C 228.00195,397.11358 234.55231,411.00031 233.58975,411.96287 C 233.3936,412.15903 231.78184,408.77002 230.00808,404.43175 C 227.17644,397.50613 224.99565,393.96823 219.3509,387.14262 C 216.48087,383.67219 213.85712,377.34866 213.85712,373.90201 C 213.85712,371.9551 213.40712,370.36217 212.85712,370.36217 C 212.30712,370.36217 211.85712,370.77768 211.85712,371.28553 C 211.85712,372.13849 210.71696,371.7417 203.85712,368.50147 L 201.35712,367.3206 L 203.85712,367.83357 C 205.23212,368.1157 207.32902,368.61692 208.51691,368.94739 C 210.46817,369.49024 210.79263,368.98411 211.87744,363.70521 C 212.53785,360.49154 214.38733,352.54606 215.98738,346.0486 C 217.58744,339.55113 218.63614,333.81363 218.31783,333.2986 C 217.99952,332.78356 218.12424,332.36217 218.59499,332.36217 C 219.06574,332.36217 219.98088,329.54967 220.62865,326.11217 C 221.27642,322.67467 222.23893,317.80653 222.76758,315.29407 C 223.29622,312.78162 223.78735,306.70662 223.85899,301.79407 C 224.06246,287.83956 224.47595,289.0067 219.60712,289.79235 C 217.26962,290.16954 211.53239,290.72354 206.85772,291.02345 C 202.18304,291.32337 197.14289,292.19727 195.65738,292.96546 C 194.17186,293.73365 191.82493,294.36217 190.44197,294.36217 C 187.71008,294.36217 185.28896,297.57589 186.4712,299.63284 C 186.85982,300.30897 186.82089,300.53993 186.38469,300.14608 C 185.9485,299.75223 184.7489,300.50133 183.71892,301.81074 C 182.68894,303.12015 178.69211,305.39674 174.83709,306.86983 C 170.98206,308.34291 167.43911,310.29382 166.96386,311.20517 C 166.48861,312.11652 165.77701,316.91217 165.38252,321.86217 C 164.18432,336.89709 161.02578,361.1773 160.02127,363.07502 C 159.12418,364.76981 157.69523,375.0171 156.35563,389.36217 C 155.60678,397.38113 150.64017,416.47343 146.86063,425.86217 C 143.28518,434.74392 140.85712,441.24851 140.85712,441.94512 C 140.85712,442.88665 153.12809,448.04138 158.71818,449.44811 L 164.07924,450.7972 L 166.7916,447.76154 C 168.80206,445.51144 169.81155,442.86334 170.6926,437.52838 C 173.09373,422.98897 182.26784,388.43955 183.42118,389.5929 C 183.65104,389.82275 182.69874,393.9443 181.30497,398.75189 C 178.04414,409.99961 172.23383,434.51082 171.40631,440.51012 C 170.73645,445.36642 166.41491,452.26087 164.00014,452.32573 C 163.21045,452.34693 162.88379,452.98927 163.21875,453.86217 C 163.53533,454.68717 163.35848,455.36217 162.82574,455.36217 C 162.293,455.36217 161.85712,455.81851 161.85712,456.37627 C 161.85712,456.93402 160.39462,458.72083 158.60712,460.34695 C 154.76908,463.8385 150.70063,464.09153 141.35712,461.4198 z M 157.78571,459.40039 C 159.4801,458.49358 162.57224,452.68279 161.74173,451.96619 C 160.94947,451.28258 144.32642,445.9553 143.60712,446.15448 C 143.19462,446.26871 142.85712,445.928 142.85712,445.39735 C 142.85712,442.74289 139.07345,442.59962 130.96841,444.94718 C 126.38257,446.27542 120.71276,447.36217 118.36883,447.36217 C 116.02489,447.36217 112.71377,447.64084 111.01077,447.98144 C 108.40026,448.50354 108.06619,448.8843 108.88169,450.40806 C 110.92951,454.23445 130.36316,459.42722 135.6882,457.5709 C 137.31041,457.0054 139.02454,456.90994 139.49739,457.35876 C 140.36703,458.18422 149.41193,460.02479 153.67287,460.24337 C 154.94652,460.30871 156.79731,459.92937 157.78571,459.40039 z M 173.93472,305.76256 C 182.14305,302.44006 182.47213,302.14282 185.89277,294.96106 C 188.99543,288.44692 188.71076,286.94967 184.20588,286.08851 C 182.20633,285.70627 180.75649,286.42208 177.84748,289.22777 C 172.39476,294.4868 164.29032,308.36217 166.6713,308.36217 C 167.13385,308.36217 170.40239,307.19235 173.93472,305.76256 z M 191.85712,292.42119 C 191.85712,291.06393 190.09259,290.17216 189.45341,291.20638 C 188.85576,292.1734 189.72172,293.36217 191.02379,293.36217 C 191.48212,293.36217 191.85712,292.93873 191.85712,292.42119 z M 199.51105,289.04693 C 210.26959,282.94589 222.81601,274.10466 222.17869,273.07347 C 221.8141,272.48354 222.04279,272.35888 222.72085,272.77795 C 224.55743,273.91302 230.94997,269.39015 232.35763,265.9597 C 233.0567,264.25606 233.53414,260.61217 233.4186,257.86217 C 233.30306,255.11217 233.54344,252.40946 233.95278,251.85615 C 234.67536,250.87943 236.56399,234.86914 237.58545,221.06131 C 238.18411,212.96878 236.59809,206.52381 233.43086,204.17866 C 231.29886,202.60004 214.86364,198.02232 214.09339,198.79257 C 213.899,198.98696 214.42994,200.79736 215.27325,202.81568 L 216.80654,206.48536 L 213.22818,207.98049 C 209.88803,209.3761 209.75657,209.59359 211.25347,211.24764 C 212.13548,212.22224 212.85712,213.31177 212.85712,213.66881 C 212.85712,214.02584 209.70919,217.96679 205.86172,222.42648 C 202.01426,226.88617 197.95796,231.68981 196.84772,233.10125 C 195.73749,234.51268 194.59876,235.43715 194.31723,235.15561 C 194.03569,234.87408 197.07949,230.68431 201.08123,225.84502 C 205.08297,221.00573 208.23347,216.63393 208.08234,216.12991 C 207.93122,215.62589 208.27189,215.50048 208.83941,215.85122 C 211.02202,217.20015 211.19009,213.05021 209.02388,211.29612 C 206.89175,209.56963 206.13737,208.13399 207.60712,208.59994 C 208.85293,208.99489 214.85712,206.18641 214.85712,205.20873 C 214.85712,204.70779 214.17764,202.6717 213.34716,200.68408 C 211.87802,197.16795 211.78384,197.11851 209.86435,198.85563 C 208.77929,199.83759 206.44918,204.16868 204.68632,208.48027 C 202.92347,212.79186 201.30645,216.14483 201.09294,215.93132 C 200.87943,215.71782 202.04534,212.35242 203.68385,208.45265 C 205.32236,204.55289 206.41162,201.36217 206.10443,201.36217 C 205.79724,201.36217 204.0867,202.47516 202.30322,203.83548 L 199.06054,206.3088 L 198.37542,203.58548 L 197.69029,200.86217 L 196.3415,204.06575 C 195.42572,206.24086 195.26262,208.32761 195.83348,210.56575 C 196.29591,212.37878 196.98059,215.6552 197.355,217.84668 L 198.03574,221.8312 L 199.41099,219.34668 C 200.16738,217.9802 200.8022,217.19056 200.82168,217.59193 C 200.89141,219.02792 197.42222,226.94805 194.6509,231.67979 C 193.099,234.32949 192.28554,236.21543 192.84319,235.87078 C 193.40085,235.52612 193.85712,235.73034 193.85712,236.32459 C 193.85712,236.91884 192.77026,237.90025 191.44188,238.50551 C 190.11349,239.11076 188.75702,240.56361 188.4275,241.73407 C 188.09798,242.90452 187.53677,251.4783 187.18038,260.7869 L 186.53239,277.71164 L 190.44476,274.79413 C 205.46524,263.59314 217.07098,253.51722 216.33108,252.32004 C 216.05246,251.86922 216.28798,251.21392 216.85445,250.86382 C 217.46926,250.48385 217.84297,245.86133 217.78161,239.39556 C 217.72508,233.43811 218.10813,227.73096 218.63284,226.713 C 219.15756,225.69505 219.38013,224.28454 219.12745,223.57855 C 218.49065,221.79929 220.71722,219.36217 222.97956,219.36217 C 225.46287,219.36217 225.37452,219.80378 221.91197,224.69869 C 219.05829,228.73286 218.95735,229.27511 218.66197,242.15735 L 218.35712,255.45253 L 220.85712,255.99482 C 225.09176,256.91339 225.46796,257.20117 222.54138,257.28322 C 220.99272,257.32664 218.88253,256.91095 217.85207,256.35947 C 216.59965,255.68919 215.77304,255.68919 215.35879,256.35947 C 215.01795,256.91095 215.38554,257.36217 216.17566,257.36217 C 216.96577,257.36217 218.17243,258.03717 218.85712,258.86217 C 220.4768,260.81377 219.41129,260.77138 216.34495,258.76224 C 214.01386,257.23485 213.77338,257.29153 211.04145,260.01224 C 209.46752,261.5797 204.61966,265.56213 200.26844,268.86207 C 195.91721,272.16202 190.21962,276.8361 187.60712,279.24891 C 184.99462,281.66173 182.85712,283.15083 182.85712,282.55803 C 182.85712,281.96523 183.30712,281.20209 183.85712,280.86217 C 184.40712,280.52225 184.85712,277.63513 184.85712,274.44634 C 184.85712,263.4756 187.08573,241.85834 188.5008,239.10314 C 189.45117,237.2527 189.61293,235.77078 188.99198,234.60314 C 185.97061,228.92173 182.62567,204.78502 184.96789,205.56576 C 185.82685,205.85208 186.14286,207.89462 185.97282,212.06104 C 185.72539,218.12364 189.33387,234.36217 190.92852,234.36217 C 192.53363,234.36217 196.83728,225.08228 196.43111,222.497 C 196.20344,221.04784 195.72328,217.83717 195.36409,215.36217 C 194.4176,208.84039 193.87794,207.36217 192.44348,207.36217 C 191.63781,207.36217 190.57178,210.41475 189.5624,215.61217 C 188.04666,223.4169 188.0019,222.48384 189.33455,210.86217 C 189.75861,207.164 189.50045,205.34271 188.34302,203.86704 C 187.01641,202.17568 186.63972,202.0959 185.86895,203.34304 C 185.09585,204.59394 184.50847,204.48052 181.94512,202.58535 C 179.07734,200.46511 178.88297,200.44535 177.95475,202.17975 C 177.16017,203.66444 177.54627,204.33804 180.03425,205.80773 L 183.0895,207.61251 L 180.05623,209.53305 C 177.41384,211.20608 177.13189,211.80208 177.86834,214.15787 C 178.3333,215.64524 179.17228,218.35153 179.73274,220.17185 C 180.29319,221.99218 182.39148,226.41366 184.3956,229.99736 C 186.39972,233.58106 187.82517,236.72746 187.56326,236.98936 C 187.30136,237.25127 185.50764,234.62979 183.57722,231.16386 C 176.13447,217.80092 174.3995,211.21264 177.83854,209.37211 C 180.17837,208.11988 180.51567,206.36217 178.41614,206.36217 C 176.29665,206.36217 175.72057,204.85154 176.77872,202.06839 C 177.70592,199.62967 177.67747,199.61513 173.71791,200.50478 C 168.87607,201.59267 163.95731,205.03282 162.7477,208.17727 C 161.24539,212.08261 161.6287,220.36217 163.31181,220.36217 C 164.22128,220.36217 164.98751,221.76767 165.35618,224.11217 C 165.68051,226.17467 166.34039,229.43717 166.82258,231.36217 C 171.01117,248.08381 172.86526,271.01792 170.96245,282.57002 C 170.53594,285.15934 170.4991,287.78287 170.88056,288.40009 C 171.85375,289.97474 177.42719,289.19984 177.08235,287.53784 C 176.93122,286.80946 177.23793,286.47949 177.76393,286.80457 C 178.28992,287.12965 179.37509,286.46076 180.17541,285.31814 C 181.5335,283.3792 181.85944,283.3363 185.06291,284.67479 C 186.95071,285.46357 189.5892,287.49101 190.9262,289.18022 C 192.26321,290.86943 193.42639,292.27641 193.51105,292.30684 C 193.59572,292.33727 196.29572,290.87031 199.51105,289.04693 z M 190.36427,269.37373 C 189.51564,268.00061 191.61034,265.36217 193.54912,265.36217 C 195.58245,265.36217 194.80464,269.75649 192.70036,270.15732 C 191.78914,270.33089 190.7379,269.97828 190.36427,269.37373 z M 193.85712,267.86217 C 193.85712,267.03717 193.40712,266.36217 192.85712,266.36217 C 192.30712,266.36217 191.85712,267.03717 191.85712,267.86217 C 191.85712,268.68717 192.30712,269.36217 192.85712,269.36217 C 193.40712,269.36217 193.85712,268.68717 193.85712,267.86217 z M 189.8257,248.82431 C 188.75261,247.53132 188.79942,246.9913 190.09706,245.69366 C 191.77409,244.01663 193.85712,244.62884 193.85712,246.79874 C 193.85712,247.52394 193.24183,248.62793 192.4898,249.25206 C 191.44785,250.1168 190.8139,250.01502 189.8257,248.82431 z M 192.85712,247.30315 C 192.85712,246.78561 192.40712,246.36217 191.85712,246.36217 C 191.30712,246.36217 190.85712,247.06373 190.85712,247.92119 C 190.85712,248.77865 191.30712,249.20209 191.85712,248.86217 C 192.40712,248.52225 192.85712,247.82069 192.85712,247.30315 z M 217.58304,288.71704 C 221.40794,288.25759 222.96376,287.60153 223.38641,286.26989 C 224.11023,283.98932 221.86633,276.23844 220.69233,276.96401 C 220.21502,277.25901 220.12637,277.9888 220.49532,278.58578 C 220.89037,279.22499 220.70186,279.38425 220.03675,278.97319 C 218.62718,278.10203 208.58967,284.73287 209.61148,285.86019 C 210.02158,286.31264 209.82167,286.37584 209.16724,286.00063 C 208.5128,285.62543 206.4878,286.2266 204.66724,287.33657 L 201.35712,289.35469 L 206.85712,289.34974 C 209.88212,289.34702 214.70878,289.0623 217.58304,288.71704 z M 164.46129,226.633 C 164.129,226.30071 163.89265,226.89134 163.93607,227.9455 C 163.98406,229.11045 164.22101,229.3474 164.54024,228.54967 C 164.82911,227.8278 164.79358,226.9653 164.46129,226.633 z M 163.46129,221.633 C 163.129,221.30071 162.89265,221.89134 162.93607,222.9455 C 162.98406,224.11045 163.22101,224.3474 163.54024,223.54967 C 163.82911,222.8278 163.79358,221.9653 163.46129,221.633 z M 195.75194,201.23406 C 196.35979,199.49037 196.85712,197.90587 196.85712,197.71295 C 196.85712,197.52002 195.05712,197.36217 192.85712,197.36217 C 189.25137,197.36217 188.85712,197.60991 188.85712,199.87574 C 188.85712,206.5523 193.57404,207.48156 195.75194,201.23406 z M 207.81917,197.61217 C 207.84004,196.92467 208.19462,196.47467 208.60712,196.61217 C 210.19917,197.14285 210.15979,195.75374 208.51146,193.23807 L 206.79209,190.61398 L 201.84331,193.23807 C 196.65197,195.99079 196.66304,195.95658 198.96833,202.11856 L 199.81248,204.37495 L 203.79685,201.61856 C 205.98825,200.10255 207.7983,198.29967 207.81917,197.61217 z M 186.69966,195.24369 C 184.44691,193.8159 182.40418,194.25654 181.02298,196.46821 C 179.87221,198.31088 179.99335,198.87827 181.99165,201.00536 L 184.27556,203.43648 L 186.15887,199.76553 C 187.69668,196.76804 187.79589,195.93848 186.69966,195.24369 z M 196.24529,156.54311 C 196.5237,156.09263 195.42526,155.91871 193.80431,156.15661 C 192.18335,156.39452 190.85712,156.76309 190.85712,156.97567 C 190.85712,157.73765 195.74978,157.34487 196.24529,156.54311 z M 202.12097,153.61652 C 202.80085,153.08436 206.28212,152.11072 209.85712,151.45286 C 224.01902,148.84686 229.73992,145.719 228.35062,141.34168 C 227.60888,139.00467 220.8228,135.42018 217.07194,135.38413 C 215.12059,135.36538 214.93798,135.64474 215.82194,137.29643 C 218.25408,141.84093 216.47971,142.85105 201.54891,145.42188 C 185.42195,148.19866 167.91883,147.7214 168.60712,144.52365 C 168.74462,143.88483 168.1925,143.36217 167.38018,143.36217 C 165.57907,143.36217 163.13925,146.98066 162.68873,150.32006 C 162.08133,154.82221 165.34686,155.54065 184.12097,155.0353 C 193.34109,154.78713 201.44109,154.14867 202.12097,153.61652 z M 180.8851,367.93576 C 180.31971,366.44868 179.8875,364.02377 179.92462,362.54707 C 179.97212,360.65756 180.39029,361.34339 181.33621,364.86217 C 182.80538,370.32743 182.52381,372.24588 180.8851,367.93576 z M 183.30907,316.26924 C 181.09632,311.99026 181.9078,311.78384 184.6281,315.93372 C 185.86418,317.81937 186.43293,319.36217 185.892,319.36217 C 185.35107,319.36217 184.18875,317.97035 183.30907,316.26924 z M 168.31619,299.67056 C 168.31619,298.29556 170.09192,288.62933 170.36934,289.31683 C 170.64675,290.00433 169.04132,297.36218 169.63273,298.37076 C 170.00774,299.01029 167.6929,301.32887 168.31619,299.67056 z M 178.85712,176.47346 C 178.85712,175.20895 185.52277,174.12104 188.15084,174.95662 C 190.29803,175.63931 190.30356,175.67904 188.35712,176.43985 C 185.5746,177.52747 178.85712,177.55124 178.85712,176.47346 z M 180.85712,169.28538 C 179.66028,168.41033 179.85187,168.2988 181.80509,168.73357 C 183.15147,169.03327 184.84984,168.78318 185.57925,168.17782 C 186.76521,167.19356 188.79951,167.75312 187.77174,168.78089 C 186.62544,169.92719 182.1787,170.25162 180.85712,169.28538 z M 206.88608,166.40123 C 206.07701,165.88956 205.76398,165.12198 206.19045,164.6955 C 206.61693,164.26903 207.3289,164.50749 207.77261,165.22543 C 209.0973,167.36882 213.10289,161.49005 212.60928,158.12692 C 212.38611,156.60631 212.53807,155.36217 212.94698,155.36217 C 215.29026,155.36217 214.11427,162.31555 211.23242,165.49996 C 209.31839,167.61494 208.93194,167.69508 206.88608,166.40123 z M 187.35712,125.36092 C 192.85712,124.89336 198.90232,124.03505 200.79089,123.45359 C 202.67946,122.87212 204.40916,122.58088 204.63466,122.80638 C 205.71939,123.89111 196.31168,125.55711 187.35712,125.86604 L 177.35712,126.21104 L 187.35712,125.36092 z M 206.35712,121.08176 C 205.25712,120.41099 199.40712,119.60808 193.35712,119.29753 L 182.35712,118.73289 L 193.69939,118.54753 C 203.69576,118.38417 205.34337,118.59949 207.58425,120.36217 C 210.3659,122.55022 209.54991,123.02871 206.35712,121.08176 z "
       id="path2503"
       sodipodi:nodetypes="cssssssssssssscccsssssssssssssssssscccssssssssssscccccsssssccsssccssssssssssssssscccsssssssssssscccssssscccsscssssssssssssssssssssssssssssssssssssssssssssssssscccsssssssssssssssssssssscccsssssssssccssssssssssccssssccssccsssssssscccssssssssssssssssscccccscccsssssscccssssssscccsssssssssssssssssssssssssscccsssssssssssssssssssssccssccsssccsssccsssccsssssscccccssccssccsssccsccccccccscccccssccsssssssssccssccssccssccssccsssccsssssccsscccccccsc" />
    <path
       style="fill:#000000"
       d="M 353.95037,461.28926 C 356.70917,457.07879 355.54733,455.70103 347.21308,453.29991 C 340.075,451.24341 332.39063,446.80953 332.39063,444.74736 C 332.39063,444.25733 334.26322,439.93413 336.55195,435.14024 C 339.90908,428.10851 340.79517,425.0535 341.13707,419.33208 C 341.40298,414.88232 342.8617,408.32816 345.05241,401.74009 C 350.81183,384.41997 353.42337,365.74009 350.08541,365.74009 C 349.12933,365.74009 348.85811,364.20197 349.07151,359.99009 C 349.23174,356.82759 348.72258,352.21509 347.94005,349.74009 C 345.91181,343.32515 340.66266,309.98502 339.91679,298.78016 C 339.57045,293.57721 338.83173,288.77159 338.27521,288.10102 C 337.71868,287.43044 337.05845,281.33741 336.80802,274.56094 C 336.13933,256.4662 335.30412,245.80466 334.5172,245.31831 C 334.13521,245.08223 332.783,247.66805 331.51228,251.06458 C 330.24156,254.46111 328.56935,258.6581 327.79625,260.39122 C 327.02316,262.12434 326.39662,264.82434 326.40394,266.39122 C 326.42253,270.37115 315.4327,300.69802 313.14162,302.98909 C 311.76057,304.37015 310.47996,304.69898 308.32548,304.22578 C 305.86418,303.68519 305.39063,303.89495 305.39063,305.52578 C 305.39063,306.5953 304.49063,308.61454 303.39063,310.01296 C 302.29063,311.41138 301.39063,312.98727 301.39063,313.51493 C 301.39063,314.37689 294.2585,319.47021 293.09055,319.47021 C 292.82771,319.47021 294.88858,317.30988 297.83519,314.33962 C 303.22118,308.91042 305.31593,305.17125 303.73997,303.79946 C 303.27283,303.39285 301.29009,302.10519 299.33387,300.93799 L 295.77711,298.81583 L 293.87294,302.02796 C 292.82565,303.79463 291.67002,307.04009 291.30487,309.24009 L 290.64096,313.24009 L 290.5158,309.61221 C 290.38572,305.84213 292.59927,299.34721 294.39179,298.23937 C 294.95909,297.88876 295.11105,297.21232 294.84792,296.67099 C 291.02365,288.80339 296.13621,295.84037 298.39206,298.24161 C 300.75585,300.75776 305.92017,302.72416 310.19166,302.73451 C 312.80938,302.74086 313.24313,301.88401 320.03003,283.29948 C 322.42836,276.73214 324.39063,269.89093 324.39063,268.09679 C 324.39063,266.30265 326.45243,259.80067 328.97242,253.64794 C 332.95341,243.92808 333.5107,241.69245 333.22242,236.59881 C 333.03994,233.37451 333.1657,230.73727 333.5019,230.73827 C 334.6936,230.74182 337.71334,253.39882 337.9343,263.99446 C 338.05765,269.90936 338.46836,277.64156 338.84698,281.17712 L 339.53539,287.60541 L 344.21301,288.6543 C 346.7857,289.23118 349.79526,289.96076 350.90093,290.27558 C 352.87027,290.83632 352.90513,290.47174 352.61212,272.38226 C 352.44761,262.22611 352.73263,249.73308 353.24549,244.61997 L 354.17798,235.32341 L 347.7136,221.91027 L 341.24923,208.49712 L 343.99703,205.62904 C 345.50832,204.05159 346.55263,202.62237 346.31773,202.453 C 346.08282,202.28363 344.58467,201.58239 342.9885,200.8947 C 340.79829,199.95106 340.369,199.36172 341.2385,198.49222 C 343.46514,196.26558 342.34783,195.87607 337.99172,197.36035 C 330.61216,199.87481 329.38214,202.11603 318.02581,233.74009 C 313.38439,246.66509 307.12903,262.86509 304.12501,269.74009 C 301.12099,276.61509 297.81434,284.82433 296.7769,287.98285 C 295.73945,291.14137 294.55313,293.72887 294.14063,293.73285 C 293.72813,293.73683 293.39063,293.36641 293.39063,292.90968 C 293.39063,291.6019 304.87152,263.3599 310.12683,251.74009 C 311.2462,249.26509 315.37125,238.10634 319.29361,226.94287 C 323.21596,215.7794 327.56962,204.83271 328.9684,202.61689 C 331.57659,198.48526 337.74835,194.80492 342.14063,194.76205 C 343.26339,194.75109 347.22499,191.15986 348.46266,190.1916 C 349.70032,189.22334 348.56089,184.40368 349.42435,182.86076 C 349.807,182.17701 348.58002,181.79122 349.18171,181.79809 C 351.41687,181.82362 350.26882,188.41081 351.61075,188.87861 C 353.37091,189.49221 356.39063,190.54331 356.39063,191.2859 C 356.39063,192.97288 360.30377,191.73693 367.19337,187.87388 L 371.89063,185.24009 L 372.06528,178.97764 C 372.16852,175.27564 371.85521,172.95296 371.29897,173.29674 C 370.78144,173.61659 370.65988,174.36672 371.02883,174.9637 C 371.43186,175.61583 371.23361,175.76108 370.53218,175.32757 C 369.88165,174.92552 365.96189,176.67194 361.67962,179.27177 C 355.18963,183.21194 353.44218,183.84959 350.44258,183.37221 C 346.32965,182.71764 338.39063,175.12566 338.39063,171.84709 C 338.39063,170.74191 337.71563,167.24617 336.89063,164.07878 C 335.15658,157.42132 334.86507,151.57327 336.30605,152.46384 C 336.85605,152.80376 337.38685,156.06907 337.38223,157.54911 C 337.37761,159.02915 338.16511,163.37117 339.13223,167.19804 C 340.44784,172.4039 341.79594,175.11088 344.48579,177.94804 C 349.34804,183.07656 352.64163,183.00298 361.83246,177.5605 C 370.27307,172.56227 371.40354,171.24172 370.88133,166.99009 C 370.66179,165.20259 370.91156,163.74009 371.43639,163.74009 C 371.96122,163.74009 372.39063,163.03209 372.39063,162.16677 C 372.39063,161.20087 373.06627,160.7294 374.14063,160.9456 C 376.19301,161.35861 379.80985,157.27495 379.07886,155.37001 C 378.49231,153.8415 379.98886,151.00499 380.90074,151.91687 C 382.98876,154.00489 377.58174,165.41114 374.97762,164.41184 C 374.17863,164.10524 373.77198,165.66618 373.70045,169.31435 L 373.5955,174.66668 L 376.93322,169.81449 C 381.06477,163.80828 383.39063,158.36417 383.39063,154.69975 C 383.39063,151.2395 384.81264,147.19925 386.07025,147.19925 C 386.59386,147.19925 386.79826,147.56171 386.52446,148.00473 C 386.25067,148.44774 385.29323,152.1747 385.02456,154.40362 C 384.39203,159.65135 382.3721,164.40252 378.50265,169.74415 C 376.79104,172.10696 375.39063,174.64765 375.39063,175.39013 C 375.39063,176.13261 374.97638,176.74009 374.47008,176.74009 C 373.23918,176.74009 372.08561,182.24027 372.84937,184.46762 C 374.51317,189.31978 385.46459,193.95855 403.07863,197.27205 C 409.75769,198.52849 415.28824,212.57892 419.40134,238.74009 C 420.56871,246.16509 422.35529,255.39009 423.37153,259.24009 C 424.38777,263.09009 426.6305,273.82194 428.35537,283.08865 C 431.23126,298.53909 431.36377,300.13213 429.95234,302.28625 C 429.10581,303.57823 428.67299,305.31233 428.99052,306.13981 C 429.30806,306.96729 429.22887,308.1928 428.81456,308.86317 C 428.29652,309.70139 427.79729,309.36844 427.21599,307.79703 C 426.55073,305.99866 425.89367,305.65999 424.13067,306.2068 C 422.89865,306.58891 420.76563,307.15061 419.39063,307.45502 C 415.20023,308.38271 414.18161,309.77042 414.82428,313.67596 L 420.66099,324.9117 C 419.07853,326.95787 412.51462,311.2161 413.30091,310.42981 C 414.9545,308.77622 414.61118,307.74009 412.40968,307.74009 C 411.14715,307.74009 410.2756,306.9241 410.00647,305.49009 C 409.77423,304.25259 408.13626,295.81509 406.36653,286.74009 C 404.59681,277.66509 402.33876,265.96509 401.34864,260.74009 C 399.76975,252.40809 396.03835,240.18187 394.63431,238.74009 C 394.36651,238.46509 394.35584,245.08308 394.61059,253.44673 C 394.92733,263.84562 395.48436,269.1481 396.37242,270.21815 C 397.08667,271.07877 397.83926,273.30922 398.04483,275.1747 C 398.25041,277.04018 398.82386,280.73573 399.31918,283.38702 C 399.81449,286.03832 400.05364,288.47634 399.8506,288.80485 C 397.90086,291.9596 356.76043,293.50346 347.05494,290.78609 C 344.45803,290.059 342.05278,289.74461 341.70995,290.08744 C 339.80863,291.98875 342.82628,318.11414 347.56065,340.74009 C 348.65395,345.96509 349.77716,352.56036 350.05666,355.39624 C 350.45927,359.48116 350.98281,360.66169 352.57665,361.07848 C 353.68314,361.36784 354.32285,361.33898 353.99822,361.01435 C 353.67359,360.68972 353.90956,359.81974 354.52261,359.08107 C 355.84529,357.48733 360.32146,327.52341 360.36222,319.99009 C 360.38749,315.32053 360.15931,314.74009 358.29836,314.74009 C 355.43439,314.74009 351.94121,311.71782 351.65242,308.99009 C 351.32912,305.93638 352.04082,306.16295 353.86744,309.69524 C 354.95746,311.80311 356.38878,312.83672 358.8596,313.30025 C 362.24386,313.93514 362.31361,314.0455 361.89014,318.09509 C 361.65174,320.37484 361.19175,324.94009 360.86793,328.24009 C 359.20674,345.16905 358.13801,351.98638 355.92978,359.74009 C 354.59837,364.41509 352.80775,373.19009 351.95064,379.24009 C 351.05535,385.55961 348.9552,394.28232 347.0149,399.74009 C 344.91334,405.65145 343.36806,412.26211 342.92418,417.24009 C 342.21158,425.23165 339.06864,435.04022 335.12123,441.59181 C 332.88756,445.29906 332.82571,445.19654 339.39063,448.66846 C 347.03988,452.71384 358.93954,454.94922 362.10794,452.93597 C 364.28077,451.55531 369.19352,433.16438 371.37622,418.24009 C 372.94276,407.52875 376.33596,393.12345 378.8922,386.33216 C 380.26633,382.68141 381.39063,379.256 381.39063,378.72014 C 381.39063,378.18428 379.87695,376.05706 378.0269,373.99297 C 374.20838,369.73268 371.09203,364.13589 371.63365,362.51104 C 371.83412,361.90963 373.24454,363.96514 374.76793,367.07883 C 376.29132,370.19252 377.92399,372.74009 378.39608,372.74009 C 378.86818,372.74009 380.16579,374.01996 381.27965,375.58424 L 383.30487,378.42839 L 380.46485,386.04114 C 378.90284,390.22815 377.0639,396.71079 376.37831,400.44699 C 375.69273,404.1832 374.76401,408.7471 374.31451,410.589 C 373.865,412.4309 373.84866,414.6809 374.27819,415.589 C 377.37992,422.14657 380.47525,427.38188 381.71569,428.16845 C 382.78509,428.84658 383.8735,428.30748 385.75357,426.16845 C 388.8388,422.65828 389.17012,423.94932 386.36486,428.55049 C 384.81252,431.09663 383.88428,431.71415 382.34412,431.22533 C 380.34489,430.5908 380.34492,430.59834 382.36564,435.91493 C 383.47883,438.84377 384.38985,441.27711 384.39013,441.32236 C 384.3904,441.36761 386.97813,441.19701 390.14063,440.94325 C 395.84915,440.48518 403.91162,437.22712 406.2202,434.44545 C 407.14522,433.33086 407.15955,431.76104 406.28203,427.66932 C 404.83032,420.90021 396.38866,398.2931 390.81207,386.24009 C 388.76333,381.81204 386.67721,374.39516 386.95265,372.5185 C 387.22407,370.66921 383.40573,370.40939 382.15594,372.19211 C 380.59714,374.41563 381.50063,369.30649 384.38051,359.61243 C 386.02495,354.07705 389.49747,336.6538 392.09721,320.8941 C 394.69696,305.13439 398.45135,287.19853 398.65258,288.18746 C 399.57204,292.70601 386.33467,363.16537 384.30473,364.74009 C 383.95024,365.01509 383.34597,366.24705 382.96193,367.47779 C 382.32311,369.52499 382.51718,369.66478 385.24171,369.11987 C 388.21628,368.52496 388.2206,368.53109 388.95094,374.38218 C 389.3531,377.60403 391.23999,383.84009 393.14403,388.24009 C 399.00026,401.77312 404.46506,416.82392 406.84217,425.96667 L 409.11108,434.69324 L 406.74529,436.24336 C 404.57395,437.66608 404.4991,437.97622 405.83453,440.01679 C 406.63479,441.2396 407.5779,444.0469 407.93034,446.25522 C 408.55611,450.17623 408.46939,450.32786 404.23088,452.72298 C 401.84374,454.07192 399.44063,455.24788 398.89063,455.33621 C 398.34063,455.42455 394.29583,457.317 389.90219,459.54166 C 385.50854,461.76633 381.68354,463.23854 381.40219,462.81324 C 381.12083,462.38795 380.21563,461.74309 379.39063,461.38022 C 378.56563,461.01735 379.24063,460.90867 380.89063,461.13871 C 382.97997,461.43 386.16728,460.4044 391.39063,457.76006 C 395.51563,455.67176 398.87733,453.57546 398.86108,453.10162 C 398.84482,452.62778 399.45248,452.38269 400.21143,452.55697 C 400.97038,452.73126 401.31464,452.42615 400.97646,451.87897 C 400.63828,451.33178 401.38062,450.57161 402.62611,450.1897 C 406.52522,448.99409 407.60246,447.70025 406.15296,445.95372 C 405.45868,445.11716 405.03476,444.38936 405.21093,444.3364 C 405.66322,444.2004 403.53,438.74009 403.02458,438.74009 C 402.79603,438.74009 400.6474,439.63021 398.24983,440.71813 C 395.54097,441.9473 391.6914,442.70448 388.08161,442.71813 C 383.94954,442.73375 382.47858,443.07337 382.98612,443.8946 C 383.41819,444.5937 383.26147,444.7783 382.58881,444.36257 C 381.97785,443.98498 381.72505,443.03219 382.02702,442.24525 C 382.329,441.45832 381.82654,438.55784 380.91044,435.79975 C 379.99435,433.04165 379.49767,430.37591 379.80672,429.87587 C 380.11576,429.37583 379.69856,428.41062 378.87962,427.73095 C 378.06068,427.05129 377.39063,425.84316 377.39063,425.04622 C 377.39063,424.24928 376.71563,422.92223 375.89063,422.09723 C 375.06563,421.27223 374.39063,419.75593 374.39063,418.72768 C 374.39063,417.69942 373.94063,416.58001 373.39063,416.24009 C 372.84063,415.90017 372.39063,416.59043 372.39063,417.77399 C 372.39063,421.05232 368.52934,439.43526 366.33676,446.59543 C 365.26639,450.09086 364.39063,453.14255 364.39063,453.37697 C 364.39063,453.61138 366.86563,451.97479 369.89063,449.74009 C 372.91563,447.50539 375.39063,445.91713 375.39063,446.21061 C 375.39063,446.5041 372.66372,448.75166 369.33083,451.2052 C 364.4982,454.76278 362.70434,455.55283 360.47273,455.10651 C 358.22938,454.65784 357.5676,454.95536 357.13576,456.6067 C 356.48239,459.1052 357.90351,460.41879 361.89063,461.00177 C 364.6125,461.39976 364.54297,461.45432 361.14063,461.59026 C 358.74236,461.68608 357.37864,461.28951 357.35736,460.49009 C 357.33906,459.80259 356.47943,460.25259 355.44707,461.49009 C 352.93934,464.49612 351.93726,464.36165 353.95037,461.28926 z M 424.89063,304.12054 C 428.86012,302.21494 428.8899,302.15849 428.7951,296.72019 C 428.68355,290.3215 426.45645,278.08243 422.33892,261.24009 C 420.72538,254.64009 418.50407,243.39009 417.40267,236.24009 C 414.66353,218.45828 411.07502,206.56747 407.08305,202.0452 C 404.58436,199.21457 398.91419,197.05613 399.75878,199.25709 C 400.46538,201.09847 399.93879,201.1454 398.19027,199.39687 C 396.56775,197.77435 385.22074,193.74009 382.27966,193.74009 C 380.65835,193.74009 380.34808,194.14093 380.92507,195.49009 C 381.3367,196.45259 381.88607,198.4786 382.14589,199.99232 C 382.56253,202.41974 382.24834,202.81855 379.48365,203.37149 C 376.62239,203.94374 374.08693,205.74009 376.14048,205.74009 C 376.61782,205.74009 377.83802,206.34675 378.85204,207.08821 C 380.56839,208.34324 379.95164,209.3618 369.9207,221.83821 C 357.4641,237.33164 354.77055,240.25652 359.42062,233.24009 C 362.20992,229.03134 369.5985,219.4574 371.38257,217.74009 C 372.80912,216.36693 377.39063,209.77404 377.39063,209.09438 C 377.39063,208.66584 376.15313,207.32371 374.64063,206.11187 L 371.89063,203.90853 L 376.69665,202.69149 C 379.43611,201.99777 381.32435,200.99407 381.08798,200.35727 C 380.85989,199.74282 380.06928,197.55259 379.33107,195.49009 C 378.59285,193.42759 377.67881,191.74009 377.29987,191.74009 C 376.39427,191.74009 373.14568,198.69577 367.72553,212.24009 C 362.07169,226.36834 361.04442,228.51649 357.94881,232.68437 C 356.43105,234.72785 355.42274,237.37142 355.46958,239.18437 C 355.513,240.86502 355.75957,241.72536 356.01752,241.09625 C 356.27547,240.46714 357.38916,240.18845 358.49239,240.47695 C 361.24961,241.19798 360.74621,246.1175 357.87309,246.52918 C 354.00665,247.08319 353.58538,251.26386 354.36231,281.37001 L 354.59792,290.49992 L 362.53265,291.19208 C 376.42529,292.40395 393.84182,290.43176 396.98249,287.29109 C 398.20989,286.06368 397.13607,275.10664 395.40944,271.24009 C 394.91823,270.14009 394.23272,268.22759 393.88609,266.99009 C 393.53946,265.75259 392.49868,264.68789 391.57324,264.62409 C 390.14279,264.52547 390.16389,264.43743 391.71406,264.03662 C 392.95629,263.71543 393.32102,263.03526 392.85835,261.90263 C 392.12317,260.10288 392.2236,232.81937 392.96985,231.61191 C 393.21946,231.20804 392.29124,229.20887 390.90715,227.1693 C 387.29279,221.84324 387.60235,219.61069 391.44477,223.29196 C 393.31191,225.08079 394.32003,226.90206 394.03865,227.97806 C 393.78551,228.94608 393.94699,229.9659 394.3975,230.24433 C 394.84801,230.52276 395.53442,232.66071 395.92286,234.99533 C 396.3113,237.32995 397.74661,242.16509 399.11244,245.74009 C 400.47827,249.31509 401.96735,254.94009 402.42151,258.24009 C 402.87566,261.54009 404.8615,271.44009 406.83449,280.24009 C 411.07652,299.16061 411.09909,299.27978 411.26301,303.61732 L 411.39063,306.99455 L 416.14063,306.51767 C 418.75313,306.25539 422.69063,305.17668 424.89063,304.12054 z M 355.59063,267.54009 C 354.93063,266.88009 354.39063,265.9172 354.39063,265.40033 C 354.39063,264.2354 357.48794,261.8149 359.03364,261.77189 C 360.75728,261.72393 361.51814,264.63332 360.35186,266.81253 C 359.17558,269.01044 357.34128,269.29074 355.59063,267.54009 z M 359.39063,265.18107 C 359.39063,264.38853 358.98877,263.74009 358.49762,263.74009 C 357.39386,263.74009 356.31863,266.33476 357.09901,267.11514 C 357.97433,267.99046 359.39063,266.79514 359.39063,265.18107 z M 359.39063,243.68107 C 359.39063,243.16353 358.71563,242.74009 357.89063,242.74009 C 356.34422,242.74009 355.90393,243.92005 357.03011,245.04624 C 357.82904,245.84517 359.39063,244.94205 359.39063,243.68107 z M 359.1114,228.49009 C 361.28688,225.12292 361.8461,223.0976 361.80353,218.74009 C 361.67832,205.92435 361.4169,203.96415 359.7475,203.32354 C 358.84378,202.97675 357.92655,202.87084 357.70921,203.08818 C 357.49187,203.30552 356.59758,206.99665 355.7219,211.29069 C 354.42769,217.63708 354.34563,220.03325 355.28339,224.09586 C 355.91789,226.84467 356.07195,229.45877 355.62574,229.90498 C 355.17953,230.35119 354.75527,229.93413 354.68295,228.97818 C 354.61063,228.02223 353.82753,224.11971 352.94272,220.30591 C 352.05792,216.49212 351.05661,210.09043 350.7176,206.07994 C 350.26004,200.66696 349.59991,198.33448 348.15561,197.0274 C 346.29333,195.34206 346.14756,195.35174 344.75234,197.25336 C 343.40431,199.09069 343.5239,199.33431 346.34266,200.49296 C 350.15458,202.05985 350.15473,202.79905 346.34375,205.61663 C 343.96935,207.3721 343.4468,208.35164 343.97619,210.05469 C 345.34432,214.45592 354.61308,232.74009 355.47606,232.74009 C 355.96527,232.74009 357.60118,230.82759 359.1114,228.49009 z M 392.20675,226.23586 C 391.5792,224.85854 390.87739,223.92 390.64717,224.15022 C 390.18012,224.61727 392.20764,228.74009 392.90437,228.74009 C 393.14823,228.74009 392.8343,227.61319 392.20675,226.23586 z M 366.78254,210.99009 C 368.19426,207.27759 369.48412,203.34009 369.6489,202.24009 C 369.81367,201.14009 370.33956,199.61281 370.81755,198.84614 C 371.3964,197.91766 370.62129,198.08148 368.49632,199.33673 C 365.75172,200.958 365.17985,201.01708 364.40271,199.75964 C 363.40357,198.143 362.7204,198.46324 362.31115,200.74009 C 362.00911,202.42048 363.45956,217.74009 363.92069,217.74009 C 364.08299,217.74009 365.37082,214.70259 366.78254,210.99009 z M 354.78781,208.80363 C 355.15125,206.0639 355.87635,203.55793 356.39914,203.23483 C 356.9802,202.87572 356.90384,201.93348 356.2027,200.81078 C 355.11576,199.0703 354.95889,199.06441 353.2052,200.69822 C 352.04643,201.77778 351.52052,203.32274 351.79834,204.83117 C 352.04236,206.15607 352.27545,208.95415 352.31632,211.04911 C 352.41858,216.29059 353.98321,214.86904 354.78781,208.80363 z M 360.71402,200.99009 C 360.9568,200.57759 361.46911,198.77759 361.85249,196.99009 C 362.52037,193.87611 362.42066,193.74009 359.47008,193.74009 C 356.76401,193.74009 356.39063,194.07959 356.39063,196.54009 C 356.39063,200.21104 359.36853,203.27615 360.71402,200.99009 z M 369.83623,196.38539 C 371.13132,195.09031 372.91086,193.75444 373.79078,193.41678 C 375.91996,192.59974 375.81568,190.43473 373.5483,188.38278 C 371.81761,186.81653 371.46918,186.87475 367.7983,189.3436 C 365.64908,190.78905 363.7761,192.07162 363.63612,192.19374 C 363.02112,192.73028 365.6814,198.74009 366.53391,198.74009 C 367.05511,198.74009 368.54115,197.68048 369.83623,196.38539 z M 352.39063,195.28978 C 352.39063,193.94211 353.17813,192.38079 354.14063,191.82019 C 355.10313,191.25958 355.36493,190.78722 354.72242,190.7705 C 354.0799,190.75377 352.85286,190.47096 351.99566,190.14202 C 349.72408,189.27033 347.62552,194.11326 349.36605,196.21048 C 351.21778,198.44167 352.39063,198.08465 352.39063,195.28978 z M 333.89063,458.801 C 319.02515,454.88013 313.6227,452.88686 310.08218,450.0167 C 307.54595,447.96067 307.00875,443.00592 309.39063,443.63839 C 310.21563,443.85746 315.50313,444.02569 321.14063,444.01225 C 327.42844,443.99726 331.39063,444.38041 331.39063,445.00343 C 331.39063,445.6618 327.32306,445.83955 319.82732,445.50877 L 308.264,444.99848 L 311.07732,447.99929 C 314.95544,452.13587 319.5829,454.00496 336.35474,458.20921 C 344.31,460.20339 351.0225,462.03863 351.27141,462.28753 C 352.31331,463.32943 347.0778,462.27921 333.89063,458.801 z M 366.39063,462.18173 C 370.17718,461.35789 375.39063,461.21838 375.39063,461.94089 C 375.39063,462.38045 373.02813,462.68789 370.14063,462.62409 C 367.25313,462.56029 365.56563,462.36123 366.39063,462.18173 z M 352.39063,456.79911 C 352.39063,456.21665 352.84063,455.74009 353.39063,455.74009 C 353.94063,455.74009 354.39063,455.93853 354.39063,456.18107 C 354.39063,456.42361 353.94063,456.90017 353.39063,457.24009 C 352.84063,457.58001 352.39063,457.38157 352.39063,456.79911 z M 420.23041,325.09155 C 420.22434,324.50695 421.7808,322.79258 423.47991,321.17718 C 427.14912,317.68872 428.87845,311.12262 428.19556,309.19651 C 427.89472,308.34796 428.1427,308.07905 428.83277,308.50553 C 429.45412,308.88955 430.37115,312.61907 430.34734,313.54911 C 430.30047,315.3797 420.24862,326.84606 420.23041,325.09155 z M 290.33405,313.78345 C 290.33405,312.40845 290.56103,311.84595 290.83844,312.53345 C 291.11585,313.22095 293.54479,318.799 293.26738,319.4865 C 292.98997,320.174 290.33405,315.15845 290.33405,313.78345 z M 347.47111,173.64622 C 345.688,172.93349 345.34563,172.38509 346.16949,171.56123 C 347.5771,170.15362 352.28716,169.89362 354.80845,171.08436 C 356.62799,171.94367 356.60237,172.05874 354.30845,173.32966 C 351.47058,174.90194 350.70177,174.93754 347.47111,173.64622 z M 350.89063,165.79494 C 351.99063,165.35242 353.22813,165.1856 353.64063,165.42424 C 354.05313,165.66288 354.39063,165.15657 354.39063,164.29911 C 354.39063,163.44165 354.88878,162.74009 355.49762,162.74009 C 356.10646,162.74009 356.33146,163.45189 355.99762,164.32188 C 355.66377,165.19186 355.39063,166.09186 355.39063,166.32188 C 355.39063,166.55189 353.92813,166.70846 352.14063,166.6698 C 349.47812,166.61222 349.25216,166.45408 350.89063,165.79494 z M 338.75226,154.24009 C 338.41614,153.36419 336.91805,152.74009 335.15168,152.74009 C 333.48794,152.74009 330.58622,151.78802 328.70341,150.62438 C 323.77859,147.58068 324.39205,144.19751 330.58633,140.24009 L 335.28204,137.24009 L 335.35107,131.24009 C 335.47898,120.12373 338.6446,117.52403 355.00753,115.09766 C 370.1814,112.84761 373.01219,113.67667 377.24007,121.60899 C 380.80453,128.29659 381.72382,129.20282 385.89063,130.13664 C 391.67033,131.43191 394.49742,133.04592 395.96814,135.88997 C 397.56881,138.98533 397.01267,140.98028 393.73325,143.90682 C 391.21983,146.14978 378.18095,150.34475 371.05644,151.20258 C 367.84763,151.58893 365.47814,152.16093 365.79089,152.47369 C 366.76256,153.44536 363.02142,155.67484 360.36314,155.70829 C 358.97301,155.72578 356.89789,155.08326 355.75174,154.28047 C 353.56633,152.74975 346.39063,153.20236 346.39063,154.87093 C 346.39063,156.42728 339.36903,155.84738 338.75226,154.24009 z M 343.39063,153.74009 C 343.39063,153.19009 342.60313,152.74698 341.64063,152.7554 C 340.14508,152.76849 340.10873,152.91166 341.39063,153.74009 C 343.27784,154.9597 343.39063,154.9597 343.39063,153.74009 z M 362.15229,153.05301 C 361.1962,152.80272 359.3962,152.79364 358.15229,153.03283 C 356.90838,153.27202 357.69063,153.47681 359.89063,153.48791 C 362.09063,153.49901 363.10838,153.3033 362.15229,153.05301 z M 370.89063,149.76245 C 373.64063,149.09437 377.14924,147.92485 378.68754,147.16351 C 380.27829,146.37622 381.19459,146.24827 380.81231,146.86681 C 380.03493,148.12465 384.29059,147.07593 385.84063,145.62769 C 386.36313,145.13951 387.68413,144.74009 388.77618,144.74009 C 391.22666,144.74009 395.39063,140.9719 395.39063,138.75434 C 395.39063,135.9878 391.80915,133.0829 386.86259,131.83735 C 384.26921,131.18433 381.99404,130.80335 381.80666,130.99073 C 381.61928,131.17811 382.10009,132.55368 382.87512,134.04755 C 384.18074,136.56415 384.11449,136.87492 381.97321,138.27794 C 379.77379,139.71905 377.40608,140.20866 360.698,142.67735 C 351.58716,144.02351 338.83522,144.0484 336.36213,142.72484 C 335.18932,142.09717 334.69742,141.10418 335.07364,140.12377 C 335.62583,138.68479 335.40733,138.68009 332.71357,140.07309 C 325.92941,143.58132 325.9182,148.6031 332.68986,150.69918 C 336.88255,151.99697 364.47809,151.3203 370.89063,149.76245 z M 365.943,140.80517 C 373.35483,139.8544 381.9807,137.592 381.82561,136.63946 C 381.78984,136.41981 381.28997,134.89009 380.71478,133.24009 C 380.13958,131.59009 379.66961,130.01509 379.67039,129.74009 C 379.67118,129.46509 378.25609,126.43555 376.52575,123.00777 C 372.78145,115.59034 371.79683,115.196 359.36434,116.13453 C 346.8368,117.08023 340.7698,119.07365 338.33922,123.0427 C 336.42273,126.17226 336.38785,126.72477 337.30615,139.40676 C 337.5443,142.69563 347.4389,143.17881 365.943,140.80517 z M 342.78796,123.00942 C 343.18983,122.60756 346.61471,122.42179 350.39882,122.59661 C 357.18206,122.90998 367.37275,120.79948 370.1648,118.50307 C 370.86559,117.92668 371.66396,117.68009 371.93896,117.95509 C 372.78363,118.79975 370.12547,120.37841 364.96249,122.09837 C 360.02727,123.74245 341.28489,124.5125 342.78796,123.00942 z "
       id="path2578"
       sodipodi:nodetypes="csssssssssssssssssssssssccccccsssssssssscccsscccccsssssssssssssssssscccssssssssssssssssssscccssssssssssssssssssccssssssssssssssssssssssssssssssssssssssscccssssssssssssssssssssssscccssssssssssssssssssssssssssssssssssssssssccsssssssssssssssscccssssssssscccssssssssssssssscccccsssccssccssccsssssssssssssssccssccssssssccsssssccsssccsssssccssssccsssscccssccssccsssccssssccssccsssccssssssccsscccssssssssssccssccssccssssssssssssssccsssssssccssssc" />
    <path
       style="fill:#000000"
       d="M 550.72922,460.47397 C 544.17634,460.18273 542.79449,459.79304 540.8049,457.67521 C 539.42917,456.21081 539.01216,455.21481 539.77478,455.21481 C 540.56085,455.21481 540.80838,454.56933 540.41522,453.54476 C 539.68768,451.64882 541.36424,450.25273 544.39576,450.23012 C 546.99157,450.21077 556.44834,445.60006 560.16883,442.53987 C 561.72352,441.26109 562.68617,440.21481 562.30804,440.21481 C 561.92991,440.21481 562.59481,439.42588 563.7856,438.46164 C 565.88122,436.76471 565.89279,436.64316 564.14639,434.6726 C 563.15403,433.55286 562.21353,432.04357 562.05639,431.31862 C 561.89924,430.59367 561.11174,429.3416 560.30639,428.53624 C 559.50103,427.73088 558.8421,426.62754 558.8421,426.08436 C 558.8421,425.54119 558.32257,425.41786 557.68759,425.8103 C 556.99268,426.23978 556.80374,426.0859 557.21297,425.42375 C 557.91656,424.28532 547.58554,406.07549 543.44311,401.15248 C 541.59252,398.95319 540.81357,398.61118 539.76678,399.53836 C 538.66404,400.51509 538.66204,400.41931 539.75502,398.97415 C 540.89709,397.46408 540.56544,396.56993 537.2513,392.22415 C 535.15021,389.46902 533.0736,387.21481 532.63661,387.21481 C 532.19963,387.21481 531.95185,386.87731 532.08599,386.46481 C 532.33286,385.70566 530.19563,382.42281 526.0921,377.258 C 524.8546,375.70046 523.8421,373.56856 523.8421,372.52045 C 523.8421,371.47235 523.3021,370.07481 522.6421,369.41481 C 521.74348,368.51619 521.73583,368.21481 522.61165,368.21481 C 523.28694,368.21481 523.7349,366.84135 523.67166,364.96481 C 523.46969,358.97263 524.94957,348.85317 528.95362,328.84664 C 531.14062,317.91914 532.79771,308.58755 532.63604,308.10978 C 532.47437,307.632 531.00788,309.71018 529.37718,312.72795 C 527.74647,315.74572 526.0342,318.21481 525.57215,318.21481 C 524.33828,318.21481 519.8421,307.57422 519.8421,304.65418 C 519.8421,303.2772 520.49414,300.59003 521.29107,298.68269 C 522.55637,295.65441 522.55637,295.21481 521.29107,295.21481 C 520.12632,295.21481 519.85268,293.4004 519.89602,285.96481 C 519.92567,280.87731 520.37299,273.11481 520.89005,268.71481 C 523.03703,250.44482 523.10213,246.69651 521.44625,236.68953 C 519.31357,223.80107 518.10732,208.20136 518.96254,204.56891 C 519.33211,202.99916 519.91409,200.48005 520.25582,198.97091 C 520.98895,195.73323 524.21999,194.15707 535.07417,191.74225 C 541.28647,190.36014 542.75334,189.63509 544.16214,187.25017 C 546.44593,183.38402 546.38791,179.21481 544.05031,179.21481 C 543.06482,179.21481 540.42337,177.30231 538.18041,174.96481 C 534.79618,171.43793 533.8925,169.60886 532.86921,164.21481 C 530.97248,154.21669 530.73311,151.21481 531.83259,151.21481 C 532.38782,151.21481 532.87653,152.22731 532.91861,153.46481 C 532.96069,154.70231 533.19628,156.61481 533.44214,157.71481 C 533.68801,158.81481 534.16848,162.0962 534.50987,165.00678 C 535.05886,169.68739 535.65004,170.75601 539.62713,174.25678 C 545.7877,179.67954 549.04339,179.5849 559.11301,173.69038 C 565.73877,169.81181 566.84429,168.77687 566.85741,166.44038 C 566.87772,162.82639 568.32177,160.41648 569.15926,162.59894 C 569.48678,163.45244 569.31706,164.42127 568.78211,164.75188 C 568.24716,165.0825 568.08896,165.80522 568.43056,166.35794 C 568.77215,166.91065 568.07065,168.40708 566.87166,169.68334 C 565.58838,171.04933 565.105,172.25926 565.69651,172.62483 C 566.91405,173.37731 575.34581,162.64685 577.39981,157.73092 C 578.21013,155.79157 578.83754,152.96958 578.79408,151.45982 C 578.75061,149.95007 578.85613,147.81481 579.02857,146.71481 C 579.24092,145.36021 578.85805,144.82416 577.8421,145.05368 C 577.0171,145.24006 573.75745,145.85014 570.59843,146.40941 C 567.43941,146.96869 565.10028,147.82354 565.40037,148.30909 C 565.70045,148.79464 565.28396,148.93786 564.47483,148.62737 C 563.66569,148.31687 561.84559,148.82164 560.43015,149.74908 C 558.63932,150.92247 556.78994,151.24972 554.34936,150.82506 C 552.42037,150.48942 549.26365,149.94017 547.33443,149.60451 C 545.01991,149.2018 542.63004,149.56209 540.30858,150.66369 C 536.85956,152.30036 532.26206,151.96235 533.37952,150.15427 C 533.69175,149.64907 533.17583,149.53325 532.22999,149.8962 C 531.06576,150.34296 530.7465,150.17851 531.23707,149.38475 C 531.72422,148.59653 531.03466,148.21481 529.12362,148.21481 C 525.74787,148.21481 521.8421,145.71928 521.8421,143.5624 C 521.8421,140.82934 525.14658,136.33133 528.03267,135.13587 C 530.38897,134.15986 530.86226,133.34659 530.9671,130.09349 C 531.03585,127.96022 531.14835,124.91205 531.2171,123.3198 C 531.40161,119.04652 534.38614,116.436 541.65332,114.1914 C 549.16637,111.87085 563.87591,111.36183 568.07911,113.27694 C 569.74434,114.03567 571.43225,116.12063 572.53008,118.77495 C 573.50275,121.12663 574.71539,122.79312 575.22484,122.47826 C 575.73429,122.1634 575.84398,122.40274 575.4686,123.01013 C 574.63505,124.35885 577.1226,125.73166 581.99065,126.60947 C 590.65601,128.172 593.49245,134.7183 587.91902,140.29173 C 586.31133,141.89942 584.11946,143.21481 583.04819,143.21481 C 581.40247,143.21481 580.99154,144.17733 580.39819,149.42183 C 579.51075,157.2657 577.8506,161.22351 572.99744,167.06517 C 565.80142,175.7269 565.22815,178.67897 569.96767,182.66702 C 571.68673,184.11351 572.81449,185.57575 572.4738,185.91644 C 572.13311,186.25714 571.02867,185.78864 570.01949,184.87535 C 567.664,182.74365 567.52459,182.75889 562.94811,185.64789 C 559.73901,187.67371 559.17647,188.51311 559.58738,190.66267 C 559.85882,192.0826 560.46787,193.48352 560.94084,193.77583 C 562.01679,194.44081 565.6306,192.61313 568.61361,189.89533 C 571.62288,187.1536 572.32214,187.11801 581.4574,189.24161 C 585.76121,190.24209 589.67172,190.82011 590.14743,190.52611 C 592.05851,189.34499 597.66708,193.67487 599.73231,197.92573 C 602.41892,203.45558 603.54099,211.52001 604.43368,231.71481 C 604.87575,241.71531 605.61461,248.46475 606.40414,249.71481 C 607.46537,251.39503 607.14903,253.71341 604.42563,264.21481 C 602.6427,271.08981 599.32647,282.07675 597.05624,288.63024 C 594.786,295.18372 593.20362,300.99075 593.53983,301.53474 C 593.87604,302.07874 593.69739,302.24341 593.14284,301.90068 C 592.58828,301.55794 591.63406,302.376 591.02234,303.71858 C 590.41062,305.06116 588.77292,306.44505 587.38302,306.7939 C 585.99312,307.14274 585.07021,307.77488 585.33212,308.19866 C 586.82909,310.62081 574.27019,322.21481 570.14949,322.21481 C 567.9973,322.21481 569.43667,310.06313 572.3112,303.96481 C 573.8909,300.61348 574.17417,299.21481 573.2732,299.21481 C 571.77986,299.21481 573.34923,293.08659 580.82782,269.71481 C 583.46768,261.46481 585.65996,253.13981 585.69954,251.21481 C 585.9888,237.14786 585.58475,229.72078 584.27779,225.08044 C 583.4466,222.12935 582.67104,219.03981 582.55432,218.21481 C 582.28707,216.32581 585.01312,216.22787 585.6385,218.10401 C 585.91896,218.94538 585.65726,219.2186 584.97485,218.79686 C 584.1428,218.28262 584.13503,218.83462 584.94515,220.90766 C 586.81902,225.70279 587.30505,229.39227 587.32389,238.96496 C 587.33864,246.4592 587.62684,248.23756 588.8421,248.33344 C 591.43796,248.53823 593.33004,248.06447 593.67543,247.12321 C 593.85877,246.62359 594.49101,246.21481 595.08042,246.21481 C 595.66983,246.21481 595.31893,247.13543 594.30063,248.26063 C 593.17103,249.50882 591.48763,250.19112 589.9829,250.01063 C 588.53764,249.83728 587.32049,250.29828 587.0429,251.12416 C 586.74448,252.01204 587.0822,252.34075 587.95565,252.01255 C 588.7182,251.72601 590.2421,251.84768 591.3421,252.28291 C 593.28576,253.05195 593.28216,253.07622 591.21454,253.14452 C 590.04439,253.18318 588.63527,253.77731 588.08318,254.46481 C 587.05076,255.75043 579.69917,276.53154 579.32754,279.21481 C 579.21328,280.03981 578.8468,281.38981 578.51314,282.21481 C 578.17948,283.03981 577.03244,286.93482 575.96417,290.87038 L 574.02185,298.02595 L 577.63546,298.70387 C 579.62295,299.07672 582.93958,300.24422 585.00575,301.2983 C 587.07192,302.35238 589.02134,303.21481 589.3378,303.21481 C 591.17456,303.21481 600.81534,274.53564 604.40896,258.38147 C 606.03768,251.05997 606.03666,251.04473 603.77437,248.93708 C 602.5281,247.77601 601.98638,246.66672 602.57054,246.472 C 603.62289,246.12121 603.56952,241.04009 602.29999,220.71481 C 601.50302,207.95515 601.10325,205.578 598.9645,200.88115 C 595.81038,193.95445 594.58943,192.89721 589.39057,192.59095 C 586.7914,192.43784 584.14221,191.90191 583.50346,191.4 C 582.86471,190.89808 581.6671,190.47968 580.8421,190.47023 C 580.0171,190.46077 578.47648,190.09631 577.41849,189.66031 C 575.90051,189.03475 575.62456,189.20552 576.10986,190.47019 C 576.44809,191.35161 577.02387,193.6668 577.38936,195.61504 C 578.04976,199.13526 578.02825,199.16141 573.93354,199.81618 C 570.59319,200.35032 570.02841,200.73437 570.95009,201.84493 C 571.57539,202.59836 572.70689,203.21481 573.46454,203.21481 C 575.1611,203.21481 575.26292,205.39399 573.6421,207.01481 C 572.9821,207.67481 572.77497,208.21481 573.18181,208.21481 C 573.58864,208.21481 570.39757,212.37731 566.09052,217.46481 C 561.78347,222.55231 556.97785,228.41456 555.41136,230.49203 C 553.84488,232.5695 552.34427,234.05031 552.07669,233.78273 C 551.52497,233.23102 555.87808,227.37535 563.5921,218.29254 C 566.4796,214.89268 568.8421,211.62145 568.8421,211.02314 C 568.8421,210.42482 569.6296,209.35946 570.5921,208.65566 C 573.09122,206.82826 572.80461,205.02398 569.633,202.61805 C 566.55077,200.27992 566.89903,199.22238 570.75877,199.1995 C 572.1796,199.19107 573.79373,198.85357 574.34572,198.4495 C 575.67677,197.47511 576.33381,191.79288 575.02165,192.60384 C 574.43555,192.96607 574.24309,192.39743 574.55199,191.21619 C 574.94413,189.71665 574.58348,189.21481 573.11372,189.21481 C 570.23109,189.21481 568.28494,191.96643 566.39462,198.71481 C 564.64151,204.97334 556.92681,221.81119 553.74305,226.32769 C 552.73003,227.76477 552.18789,229.22727 552.53831,229.57769 C 552.88873,229.92811 552.65043,230.21481 552.00877,230.21481 C 551.3671,230.21481 550.8421,231.61729 550.8421,233.33144 C 550.8421,235.83931 551.19338,236.35621 552.64054,235.97777 C 554.0308,235.61421 554.48834,236.15515 554.65643,238.36114 C 554.86487,241.09673 554.14239,241.68746 551.07872,241.28638 C 550.38385,241.19542 549.61992,241.7046 549.38109,242.4179 C 548.74689,244.312 547.98077,280.02907 548.52934,282.12683 C 549.22223,284.77644 562.62069,287.46368 569.5921,286.35125 C 572.4796,285.89049 574.8421,285.86391 574.8421,286.2922 C 574.8421,288.81728 559.74501,288.09907 539.70149,284.62047 L 536.06088,283.98863 L 535.45621,288.85172 C 535.12364,291.52642 534.94483,294.38981 535.05887,295.21481 C 535.25067,296.60239 534.28974,306.6834 533.29544,313.71481 C 533.06211,315.36481 531.51442,323.20207 529.85612,331.13094 C 528.19782,339.05981 527.06237,345.76841 527.33289,346.03893 C 527.60341,346.30945 527.33538,347.12044 526.73727,347.84112 C 526.11054,348.59629 525.58461,354.16752 525.49595,360.99059 C 525.34485,372.61781 525.39756,372.9182 528.4404,377.77227 C 530.14447,380.49067 532.09042,382.59116 532.76473,382.44003 C 533.43905,382.28891 533.69633,382.64166 533.33647,383.22392 C 532.74797,384.17614 543.27349,399.23987 545.0921,400.04814 C 545.5046,400.23148 545.8421,400.864 545.8421,401.45375 C 545.8421,402.0435 546.85878,403.9185 548.1014,405.62042 C 549.34401,407.32233 551.42685,410.73981 552.72994,413.21481 C 554.03302,415.68981 556.38585,419.3691 557.95845,421.391 C 559.53105,423.41291 561.33416,426.20065 561.96536,427.58599 C 562.59656,428.97133 563.79108,430.36499 564.61984,430.68301 C 565.94294,431.19074 566.061,428.72835 565.58809,410.48803 C 565.21519,396.10524 564.63011,388.79192 563.68619,386.71481 C 561.17044,381.17887 555.46957,373.53756 552.64635,371.91725 C 550.69655,370.79822 549.92334,369.62613 550.09532,368.05022 C 550.29066,366.26025 549.73399,365.67697 547.4246,365.25186 C 545.81997,364.95648 544.30541,364.10861 544.0589,363.3677 C 543.70028,362.28985 544.0377,362.24912 545.74706,363.16395 C 548.23262,364.49418 549.83891,363.80582 549.84971,361.40579 C 549.8539,360.47575 551.3164,355.43981 553.09971,350.21481 C 555.83444,342.20221 556.24131,339.85368 555.69837,335.21481 C 555.34432,332.18981 554.75361,327.01481 554.38568,323.71481 C 553.33608,314.30076 553.11635,313.7568 549.86787,312.53064 C 547.99774,311.82474 546.30925,310.17716 545.51145,308.27975 C 544.79496,306.57572 543.97624,305.414 543.69209,305.69816 C 543.40793,305.98232 543.17543,305.53981 543.17543,304.71481 C 543.17543,303.88981 543.77543,303.21481 544.50877,303.21481 C 545.2421,303.21481 545.8421,304.0288 545.8421,305.02368 C 545.8421,308.0576 548.49161,310.71481 551.51673,310.71481 C 554.19929,310.71481 554.35772,310.96753 554.65119,315.71481 C 554.8212,318.46481 556.09435,328.36481 557.48043,337.71481 C 558.86651,347.06481 560.03992,355.27731 560.08801,355.96481 C 560.20786,357.67846 562.32968,357.53716 563.8421,355.71481 C 564.52679,354.88981 565.47749,354.21481 565.95476,354.21481 C 566.43203,354.21481 566.05192,355.11481 565.11007,356.21481 C 564.16822,357.31481 562.89704,358.21481 562.28523,358.21481 C 560.88352,358.21481 561.50403,373.17188 563.11496,378.21481 C 564.54863,382.70286 564.72124,383.50767 565.79596,390.71481 C 567.63837,403.0702 567.67474,444.84744 565.8421,443.71481 C 565.2921,443.37489 564.8421,443.3713 564.8421,443.70682 C 564.8421,445.18112 572.59782,447.33569 579.94395,447.90218 C 587.58446,448.49138 588.01662,448.41181 589.64147,446.11683 C 590.59956,444.7636 590.50431,432.89688 590.82735,429.23495 L 591.40077,422.73495 L 591.57735,429.92593 C 591.67651,433.964 592.39202,445.37494 591.81558,445.7312 C 591.25099,446.08013 590.91349,447.10909 591.06558,448.01778 C 591.21923,448.93583 590.67561,449.6799 589.8421,449.69237 C 588.82871,449.70753 588.13987,451.17464 587.71873,454.21481 C 587.37587,456.68981 587.25202,458.99097 587.4435,459.32851 C 588.35991,460.94388 572.46216,461.43988 550.72922,460.47397 z M 584.18891,458.34237 C 585.2063,457.49775 585.8421,455.47866 585.8421,453.09237 L 585.8421,449.21481 L 579.96783,449.21481 C 576.73698,449.21481 572.22905,448.55697 569.95021,447.75295 C 565.98511,446.35398 562.8421,446.55362 562.8421,448.20445 C 562.8421,449.69653 552.29558,454.10268 547.0921,454.78453 C 541.86388,455.46962 540.71416,456.36676 543.0921,457.90579 C 546.47951,460.09817 581.62422,460.47151 584.18891,458.34237 z M 550.50965,452.82218 C 553.95959,452.25104 564.28519,446.32456 563.39,445.42937 C 563.08625,445.12563 563.58596,444.05034 564.50045,443.03983 C 565.41495,442.02933 565.88104,440.92042 565.53622,440.5756 C 564.82116,439.86054 557.23072,446.24954 557.55288,447.2953 C 557.66882,447.67162 556.99382,447.91996 556.05288,447.84716 C 555.11195,447.77437 554.46575,448.31076 554.61688,449.03914 C 554.768,449.76752 554.43432,450.08082 553.87536,449.73537 C 552.51568,448.89504 541.79051,452.32232 542.44846,453.3869 C 542.73237,453.84629 543.94959,454.02514 545.15338,453.78436 C 546.35718,453.54357 548.7675,453.11059 550.50965,452.82218 z M 560.71318,369.71481 C 559.97375,360.9043 557.57481,346.61418 556.68595,345.72533 C 555.74159,344.78096 550.65591,363.28169 551.3937,364.97757 C 551.80937,365.93305 552.04639,367.53557 551.92041,368.53872 C 551.78164,369.64367 552.48286,370.56961 553.69933,370.88773 C 554.80373,371.17653 556.9295,373.17643 558.42327,375.33193 C 559.91703,377.48744 561.2133,379.13039 561.30386,378.98292 C 561.39441,378.83546 561.12861,374.66481 560.71318,369.71481 z M 580.93721,313.10828 C 582.63496,311.20668 583.78455,308.61553 584.0184,306.1633 C 584.37447,302.42961 584.21403,302.18067 580.49195,300.69138 C 578.34723,299.83324 576.47894,299.26245 576.3402,299.42296 C 574.15235,301.95415 571.58825,309.71038 571.25121,314.81683 L 570.83247,321.16107 L 574.53076,318.65135 C 576.56482,317.271 579.44772,314.77662 580.93721,313.10828 z M 575.40639,304.92168 C 575.78192,303.93546 576.34108,303.38046 576.64897,303.68835 C 576.95686,303.99624 576.64961,304.80314 575.96619,305.48148 C 574.97857,306.46174 574.86371,306.34688 575.40639,304.92168 z M 527.63543,313.17413 C 528.33636,312.05176 528.60008,310.63223 528.22147,310.01962 C 527.83139,309.38847 527.98309,309.18391 528.57154,309.54759 C 530.17778,310.54031 532.00591,304.97751 531.65633,300.16091 C 531.34871,295.92244 531.2641,295.82809 527.63412,295.67566 C 524.12573,295.52833 523.84889,295.74665 522.49112,299.73149 C 521.66801,302.14717 521.40875,304.51364 521.88312,305.28118 C 522.33798,306.01715 522.50737,306.9474 522.25955,307.34839 C 521.74853,308.17523 524.905,315.21481 525.78677,315.21481 C 526.1026,315.21481 526.9345,314.29651 527.63543,313.17413 z M 533.56559,281.82307 C 533.0179,280.72735 532.89662,275.25711 533.27737,268.82307 C 533.83187,259.45286 533.53693,255.36785 531.39233,242.71481 C 528.89147,227.95983 527.8046,208.51227 529.99515,217.71481 C 530.51884,219.91481 530.73223,222.83981 530.46936,224.21481 C 530.20649,225.58981 531.08282,232.66353 532.41676,239.93419 C 534.25819,249.97099 534.8421,256.61374 534.8421,267.52591 L 534.8421,281.89823 L 538.70812,283.05652 C 547.28043,285.62485 546.79913,286.69025 546.8811,264.96481 C 546.92105,254.37731 547.28136,242.18778 547.68178,237.87696 C 548.37396,230.42523 548.24278,229.63701 545.01895,221.87696 C 543.15397,217.38778 540.7863,211.58619 539.75746,208.98454 L 537.88684,204.25427 L 540.61447,201.64149 L 543.3421,199.02872 L 539.66619,199.41231 L 535.99029,199.79591 L 537.42932,196.35182 C 538.22079,194.45757 538.69218,192.73156 538.47687,192.51624 C 537.96454,192.00391 529.19713,194.19982 525.26433,195.82549 C 522.6209,196.91819 522.00674,197.90125 520.91233,202.79161 C 519.55209,208.8698 519.77293,213.17052 522.53873,234.46481 C 524.14754,246.85127 525.03057,249.34709 526.3421,245.21481 C 526.69123,244.11481 527.42688,243.21481 527.97687,243.21481 C 529.16615,243.21481 528.23395,246.76368 526.19642,249.99306 C 525.40582,251.24609 525.00548,252.67016 525.30677,253.15765 C 525.60805,253.64513 525.42999,254.19492 524.91107,254.3794 C 523.964,254.71608 522.44818,267.75341 521.36063,284.91626 L 520.77757,294.1177 L 527.05983,294.41626 L 533.3421,294.71481 L 533.92663,289.21481 C 534.24812,286.18981 534.08565,282.86353 533.56559,281.82307 z M 553.8421,239.21481 C 553.8421,238.66481 553.41866,238.21481 552.90112,238.21481 C 552.38358,238.21481 551.68202,238.66481 551.3421,239.21481 C 551.00218,239.76481 551.42562,240.21481 552.28308,240.21481 C 553.14054,240.21481 553.8421,239.76481 553.8421,239.21481 z M 550.3974,223.32175 C 548.63364,219.91101 547.04186,210.73845 546.64779,201.71481 C 546.39057,195.82467 545.97701,194.41927 544.03944,192.85081 C 541.36837,190.68858 541.09677,190.84002 539.85014,195.18679 C 538.93604,198.37406 538.97131,198.42285 541.88099,197.99579 C 545.5874,197.45181 545.80016,199.31604 542.3421,202.03615 C 540.9671,203.11773 539.8421,204.40486 539.8421,204.89646 C 539.8421,205.38805 541.46189,209.59829 543.44163,214.25254 C 545.42137,218.90679 547.53733,223.93192 548.14376,225.4195 C 548.97132,227.44949 549.56356,227.86094 550.5179,227.06891 C 551.54305,226.21811 551.5197,225.49205 550.3974,223.32175 z M 555.57436,219.82901 C 557.38499,216.10218 557.61922,214.30714 557.1333,207.88215 C 556.72372,202.46651 556.13505,200.15747 555.05865,199.74442 C 554.23211,199.42724 553.47666,199.29082 553.37987,199.44127 C 552.5885,200.67144 549.8421,212.78897 549.8421,215.05049 C 549.8421,218.34362 551.69908,224.21481 552.74066,224.21481 C 553.12726,224.21481 554.40242,222.2412 555.57436,219.82901 z M 563.18763,202.46552 C 563.27259,201.2284 563.6041,200.2159 563.92432,200.21552 C 564.24454,200.21513 564.98745,198.64784 565.57524,196.73265 C 566.61364,193.34924 566.58295,193.28429 564.49302,194.44246 C 563.31002,195.09803 561.779,195.52014 561.09077,195.38047 C 558.71154,194.89763 557.55691,199.73709 558.34558,206.88659 L 559.09881,213.71481 L 561.06598,209.21481 C 562.14793,206.73981 563.10267,203.70263 563.18763,202.46552 z M 550.83656,198.71481 C 550.44046,197.61481 549.26717,196.55863 548.22924,196.36774 C 546.77089,196.09954 546.60749,196.29676 547.51008,197.23573 C 548.18242,197.93516 548.44817,199.86744 548.13633,201.78911 C 547.83837,203.62519 547.93991,205.9346 548.36196,206.92112 C 548.97682,208.35831 549.37056,207.91979 550.34303,204.71481 C 551.01056,202.51481 551.23265,199.81481 550.83656,198.71481 z M 557.92637,195.49316 C 559.12472,192.34126 557.73693,188.21481 555.47855,188.21481 C 553.28736,188.21481 550.9848,192.51047 551.56082,195.52373 C 552.28692,199.32206 556.47828,199.30192 557.92637,195.49316 z M 551.81206,188.71481 C 551.82,188.16481 550.72335,187.2033 549.37506,186.57813 C 547.21497,185.57654 546.72392,185.74623 545.24331,188.00592 C 543.62751,190.47195 543.6526,190.64295 545.89709,192.46042 C 548.20372,194.32822 548.25216,194.32319 550.01441,192.03263 C 550.99518,190.75783 551.80412,189.26481 551.81206,188.71481 z M 562.58578,184.59758 C 565.4963,182.90819 565.8301,182.24406 565.83578,178.13148 C 565.83926,175.61064 565.54205,173.2481 565.17533,172.88138 C 564.80861,172.51465 561.64312,173.78965 558.14091,175.71471 C 554.6387,177.63976 550.88875,179.21481 549.80768,179.21481 C 546.86953,179.21481 547.09164,184.53578 550.0921,186.02871 C 553.11167,187.53114 558.61854,186.90034 562.58578,184.59758 z M 556.57307,149.52182 C 555.6001,149.26828 554.2501,149.28495 553.57307,149.55887 C 552.89604,149.8328 553.6921,150.04024 555.3421,150.01986 C 556.9921,149.99948 557.54604,149.77536 556.57307,149.52182 z M 559.8421,146.76814 C 583.42873,143.33381 592.20582,138.99998 588.72954,132.5045 C 587.17449,129.59885 582.96599,127.21481 579.39176,127.21481 C 576.68934,127.21481 576.25579,128.25077 577.77232,131.08443 C 579.11144,133.5866 577.99476,134.70517 572.28113,136.58494 C 562.75591,139.71869 551.09521,141.01367 540.3421,140.13192 C 534.8421,139.68092 530.19928,139.29007 530.02471,139.26337 C 529.85015,139.23666 530.00523,138.27619 530.36934,137.12898 C 530.95435,135.2858 530.79578,135.16923 529.00627,136.12695 C 527.89247,136.72303 525.99189,138.60008 524.78275,140.29816 C 522.82258,143.05097 522.74788,143.54917 524.09358,144.89486 C 527.25687,148.05815 544.70355,148.97239 559.8421,146.76814 z M 566.91036,136.8713 C 575.05261,134.83642 577.07545,133.54777 576.2776,130.90391 C 574.13809,123.81423 569.74506,116.21599 566.94984,114.77053 C 559.93854,111.14484 537.65359,114.49853 534.27729,119.68746 C 533.149,121.4215 530.5799,138.81034 531.60319,137.78705 C 531.80418,137.58606 533.17766,137.81769 534.65536,138.30179 C 538.38568,139.52383 560.16084,138.55812 566.91036,136.8713 z M 544.11976,119.475 C 547.29748,119.27609 549.70295,118.79868 549.46526,118.41408 C 549.22756,118.02948 550.67761,117.7129 552.68759,117.71056 C 554.69757,117.70822 558.10326,117.38706 560.25579,116.99687 C 562.40832,116.60667 563.75832,116.6662 563.25579,117.12915 C 562.0199,118.2677 547.77598,120.26043 542.55125,120.02573 C 539.21344,119.87578 539.53814,119.76178 544.11976,119.475 z M 590.97788,425.78253 C 590.9032,423.61978 591.32362,417.99478 591.91215,413.28253 C 593.22142,402.79951 592.44152,394.81149 586.8774,361.71481 C 586.39089,358.82093 586.41703,356.31465 586.93946,355.76481 C 588.67818,353.93486 587.80687,352.39665 583.5921,349.85537 C 579.6081,347.45324 579.79758,346.05025 583.81558,348.20062 C 585.52569,349.11584 585.70063,348.52515 586.25892,339.95062 C 587.29239,324.07803 587.36192,310.10922 587.31229,323.55427 C 587.2859,330.70427 587.81786,350.38981 588.17903,351.21481 C 588.5402,352.03981 588.74046,354.73981 588.62404,357.21481 C 588.34403,363.16789 589.63261,375.03659 591.50112,383.71481 C 593.23492,391.76733 593.5303,411.12443 592.08862,422.21481 C 591.41538,427.39379 591.07164,428.49789 590.97788,425.78253 z M 586.67743,316.61244 C 586.493,312.98113 586.93076,306.91313 587.33484,306.28194 C 587.73892,305.65074 587.81837,311.20231 587.82679,315.46481 C 587.83521,319.72731 587.6555,323.21481 587.42743,323.21481 C 587.19936,323.21481 586.86186,320.24374 586.67743,316.61244 z M 552.8421,307.20011 C 552.8421,305.8628 558.86232,302.22332 561.08231,302.21855 C 562.72668,302.21502 562.72821,302.32496 561.11007,304.21481 C 559.36329,306.25491 557.22094,307.02888 558.3421,305.21481 C 558.68202,304.66481 558.48739,304.21481 557.90959,304.21481 C 557.33179,304.21481 556.29699,305.11481 555.61003,306.21481 C 554.2737,308.35461 552.8421,308.86422 552.8421,307.20011 z M 551.0921,263.46481 C 549.32217,262.87483 549.53767,259.26886 551.38523,258.55989 C 553.3268,257.81484 554.0411,258.52221 554.36967,261.5154 C 554.62057,263.80105 553.71559,264.33931 551.0921,263.46481 z M 552.8421,261.21481 C 552.8421,260.66481 552.36554,260.21481 551.78308,260.21481 C 551.20062,260.21481 551.00218,260.66481 551.3421,261.21481 C 551.68202,261.76481 552.15858,262.21481 552.40112,262.21481 C 552.64366,262.21481 552.8421,261.76481 552.8421,261.21481 z M 541.57625,168.81118 C 539.94908,167.57638 540.02761,167.42772 542.57625,166.91806 C 546.33241,166.16695 553.03024,167.64046 550.5921,168.68154 C 549.6296,169.09253 548.14373,169.1608 547.29016,168.83325 C 546.40024,168.49176 545.99884,168.6594 546.34918,169.22626 C 547.24946,170.68294 543.62775,170.36797 541.57625,168.81118 z M 544.1249,163.13359 C 544.78396,162.07826 546.30245,161.21481 547.49931,161.21481 C 548.69618,161.21481 549.87633,160.65231 550.12186,159.96481 C 550.3674,159.27731 550.91902,159.04143 551.3477,159.44064 C 552.25583,160.28636 549.95918,163.4052 548.90709,162.75498 C 548.51748,162.51418 547.01248,162.93259 545.56265,163.68476 C 543.07017,164.97788 542.99186,164.94786 544.1249,163.13359 z M 568.75142,160.1376 C 567.6804,159.4596 567.87898,159.24176 569.57868,159.23012 C 572.06076,159.21313 574.83012,154.02592 574.85741,149.34269 C 574.86928,147.30599 575.08489,147.05039 575.8158,148.2065 C 576.92087,149.95441 576.20525,153.60914 574.00913,157.43345 C 572.18251,160.61429 570.7049,161.37426 568.75142,160.1376 z "
       id="path2910"
       sodipodi:nodetypes="csssssssssssssssssssssssssssssssssssssssssssssssssssssssssssssssssssssssssssssssssssssssssssssssssssssssssssssssssssssssssssscccsssssssssssssssssssssssssssssssssssssssssscccssssssssssssssssssssssssssssssssssssssssssssssscccssssscccccssssccsssssssssccssssssccssscccccssccssssssssccssssscccssscccccccssssssssscccccccsssccsssssssssccsssssccsssscccccsssssccssccssssccsssssccssccssssssssssccsssssccsssssccsssssssssssccsssccsssssccssccsssccssssccsssssccssssc" />
  </g>
</svg>
