<?xml version="1.0" encoding="UTF-8" standalone="no"?>
<!-- Created with Inkscape (http://www.inkscape.org/) -->
<svg
   xmlns:dc="http://purl.org/dc/elements/1.1/"
   xmlns:cc="http://web.resource.org/cc/"
   xmlns:rdf="http://www.w3.org/1999/02/22-rdf-syntax-ns#"
   xmlns:svg="http://www.w3.org/2000/svg"
   xmlns="http://www.w3.org/2000/svg"
   xmlns:xlink="http://www.w3.org/1999/xlink"
   xmlns:sodipodi="http://sodipodi.sourceforge.net/DTD/sodipodi-0.dtd"
   xmlns:inkscape="http://www.inkscape.org/namespaces/inkscape"
   width="1024px"
   height="768px"
   id="svg2160"
   sodipodi:version="0.32"
   inkscape:version="0.45.1"
   sodipodi:docbase="/home/rover/herobot/arte"
   sodipodi:docname="hombre-1.svg"
   inkscape:output_extension="org.inkscape.output.svg.inkscape">
  <defs
     id="defs2162">
    <linearGradient
       id="linearGradient16829">
      <stop
         style="stop-color:#ff2400;stop-opacity:1;"
         offset="0"
         id="stop16831" />
      <stop
         style="stop-color:#60ff00;stop-opacity:1;"
         offset="1"
         id="stop16833" />
    </linearGradient>
    <linearGradient
       inkscape:collect="always"
       xlink:href="#linearGradient16829"
       id="linearGradient16860"
       gradientUnits="userSpaceOnUse"
       x1="270.49866"
       y1="131.33873"
       x2="290.06024"
       y2="125.15155"
       gradientTransform="translate(-170,-82)" />
    <linearGradient
       inkscape:collect="always"
       xlink:href="#linearGradient16829"
       id="linearGradient3544"
       gradientUnits="userSpaceOnUse"
       gradientTransform="translate(10.4732,-66.396804)"
       x1="270.49866"
       y1="131.33873"
       x2="290.06024"
       y2="125.15155" />
    <linearGradient
       inkscape:collect="always"
       xlink:href="#linearGradient16829"
       id="linearGradient3565"
       gradientUnits="userSpaceOnUse"
       gradientTransform="translate(194.45413,-62.894928)"
       x1="270.49866"
       y1="131.33873"
       x2="290.06024"
       y2="125.15155" />
    <linearGradient
       inkscape:collect="always"
       xlink:href="#linearGradient16829"
       id="linearGradient3139"
       gradientUnits="userSpaceOnUse"
       gradientTransform="translate(-187.76525,-79.990819)"
       x1="270.49866"
       y1="131.33873"
       x2="290.06024"
       y2="125.15155" />
  </defs>
  <sodipodi:namedview
     id="base"
     pagecolor="#ffffff"
     bordercolor="#666666"
     borderopacity="1.0"
     inkscape:pageopacity="0.0"
     inkscape:pageshadow="2"
     inkscape:zoom="1.2635312"
     inkscape:cx="489.77083"
     inkscape:cy="578.26314"
     inkscape:current-layer="layer2"
     inkscape:document-units="px"
     inkscape:window-width="1022"
     inkscape:window-height="713"
     inkscape:window-x="0"
     inkscape:window-y="0" />
  <metadata
     id="metadata2165">
    <rdf:RDF>
      <cc:Work
         rdf:about="">
        <dc:format>image/svg+xml</dc:format>
        <dc:type
           rdf:resource="http://purl.org/dc/dcmitype/StillImage" />
      </cc:Work>
    </rdf:RDF>
  </metadata>
  <g
     id="layer1"
     inkscape:label="Layer 1"
     inkscape:groupmode="layer"
     sodipodi:insensitive="true"
     style="display:none">
    <image
       y="81.525246"
       x="169.9579"
       id="image2226"
       height="383"
       width="189"
       sodipodi:absref="/home/quimera/Desktop/pyweek/personajes/m1.png"
       xlink:href="/home/quimera/Desktop/pyweek/personajes/m1.png"
       inkscape:transform-center-y="15.556349" />
  </g>
  <g
     inkscape:groupmode="layer"
     id="layer2"
     inkscape:label="dibujo"
     style="display:inline">
    <path
       sodipodi:nodetypes="cccccccccccccccc"
       id="path3163"
       d="M 435.80413,121.52682 C 439.59233,119.08033 444.67745,116.04233 451.29407,114.12617 C 464.73067,118.91417 467.00009,116.44889 481.12896,113.75806 L 507.01759,119.12042 C 511.12028,121.51286 507.37852,121.665 511.30444,126.00198 C 512.69656,129.86756 512.02344,133.61585 512.3549,137.48143 L 512.11184,149.6085 C 505.09233,151.89499 500.43041,147.57446 493.4109,153.04293 C 490.91392,160.44404 496.67616,169.55852 496.12373,178.02029 C 496.33734,186.77669 495.19282,201.61148 497.35097,210.36788 L 435.32925,219.45487 L 439.39484,153.82086 L 434.91567,151.17716 C 429.53409,150.08401 435.91753,151.28154 433.51818,142.65561 L 432.44889,130.2988 C 434.00074,126.86487 432.30773,123.19298 435.80413,121.52682 z "
       style="fill:#d80000;fill-opacity:1;stroke:#000000;stroke-width:1;stroke-linecap:butt;stroke-linejoin:miter;stroke-miterlimit:4;stroke-dasharray:none;stroke-opacity:0;display:inline"
       inkscape:export-filename="/home/rover/herobot/arte/pre/hombre-1-02.png"
       inkscape:export-xdpi="24.024195"
       inkscape:export-ydpi="24.024195" />
    <path
       sodipodi:nodetypes="cccccccccccc"
       id="path3159"
       d="M 479.29987,94.799504 L 478.76954,110.17907 L 482.1283,113.0075 L 477.13436,119.32727 C 474.49744,121.10976 471.41858,122.98065 466.04162,123.52571 C 461.28338,122.50924 459.26518,122.02311 455.30244,119.50404 C 453.57887,117.80993 451.94368,116.64615 450.39688,114.42171 L 455.6118,111.59328 L 455.96535,103.108 L 463.21319,103.28478 L 478.06244,93.208514 L 479.29987,94.799504 z "
       style="fill:#ffeeaa;fill-opacity:1;fill-rule:evenodd;stroke:#fff6d5;stroke-width:1px;stroke-linecap:butt;stroke-linejoin:miter;stroke-opacity:0;display:inline"
       inkscape:export-filename="/home/rover/herobot/arte/pre/hombre-1-02.png"
       inkscape:export-xdpi="24.024195"
       inkscape:export-ydpi="24.024195" />
    <path
       sodipodi:nodetypes="ccccccccccccccccc"
       id="path3157"
       d="M 445.13969,58.638737 C 446.80636,54.805407 448.22302,53.347067 451.26469,50.513737 L 456.38969,58.638737 L 463.45219,55.388737 L 472.01469,52.044987 L 482.13969,51.451237 L 486.51469,57.419987 L 489.76469,62.326237 L 490.26469,75.201237 L 486.76469,82.326237 L 479.20219,86.638737 L 476.51469,93.951235 L 461.76469,104.13874 L 452.01469,104.26374 C 449.86886,101.87831 447.59802,99.867905 446.57719,96.607485 C 444.93136,92.597065 445.78552,88.086657 444.76469,84.826237 C 444.01469,76.638737 443.13969,69.826237 445.13969,58.638737 z "
       style="fill:#ffeeaa;fill-opacity:1;stroke:#ffeeaa;stroke-width:1;stroke-linecap:butt;stroke-linejoin:miter;stroke-miterlimit:4;stroke-opacity:1;display:inline"
       inkscape:export-filename="/home/rover/herobot/arte/pre/hombre-1-02.png"
       inkscape:export-xdpi="24.024195"
       inkscape:export-ydpi="24.024195" />
    <path
       style="fill:#d80000;fill-opacity:1;stroke:#000000;stroke-width:1;stroke-linecap:butt;stroke-linejoin:miter;stroke-miterlimit:4;stroke-dasharray:none;stroke-opacity:1"
       d="M 51.282854,104.70588 C 55.071054,102.25939 59.743134,100.87357 66.359754,98.957411 C 77.318084,112.83241 90.326674,109.54104 98.259874,97.350172 L 122.90936,103.53862 C 127.01205,105.93106 128.63987,106.90929 132.56579,111.24627 C 133.95791,115.11185 135.35002,118.44709 135.68148,122.31267 L 135.43842,134.43974 C 128.41891,136.72623 123.34395,137.77529 116.32444,143.24376 C 113.82746,150.64487 112.56793,156.45499 112.0155,164.91676 C 112.22911,173.67316 113.14982,181.89923 115.30797,190.65563 L 50.807974,190.65563 L 55.699664,133.28252 L 52.459624,139.72581 C 47.078044,138.63266 42.580354,136.83241 39.496874,129.55208 L 45.036304,111.82568 C 46.588154,108.39175 47.786454,106.37204 51.282854,104.70588 z "
       id="rect2235"
       sodipodi:nodetypes="cccccccccccccccc"
       inkscape:export-filename="/home/rover/herobot/arte/pre/hombre-1-00.png"
       inkscape:export-xdpi="24.4433"
       inkscape:export-ydpi="24.4433" />
    <path
       style="fill:#ffeeaa;fill-opacity:1;stroke:#000000;stroke-width:1;stroke-linecap:butt;stroke-linejoin:miter;stroke-miterlimit:4;stroke-opacity:1"
       d="M 61.984754,42.009181 C 63.651424,38.175852 65.068084,36.717511 68.109754,33.884181 L 73.234754,42.009181 L 80.297254,38.759181 L 88.859754,35.415431 L 98.984754,34.821681 L 103.35975,40.790431 L 106.60975,45.696681 L 107.10975,58.571681 L 103.60975,65.696681 L 96.047254,70.009181 L 93.359754,77.321681 L 78.609754,87.509181 L 68.859754,87.634181 C 66.713924,85.248762 64.443084,83.238351 63.422254,79.977931 C 61.776424,75.967512 62.630584,71.457101 61.609754,68.196681 C 60.859754,60.009181 59.984754,53.196681 61.984754,42.009181 z "
       id="rect6121"
       sodipodi:nodetypes="ccccccccccccccccc"
       inkscape:export-filename="/home/rover/herobot/arte/pre/hombre-1-00.png"
       inkscape:export-xdpi="24.4433"
       inkscape:export-ydpi="24.4433" />
    <path
       style="fill:#000000;fill-opacity:1;fill-rule:evenodd;stroke:#000000;stroke-width:1px;stroke-linecap:butt;stroke-linejoin:miter;stroke-opacity:1"
       d="M 79.432734,56.032491 C 79.753194,56.022021 80.529324,55.837751 81.023724,55.590551 C 81.614974,55.294921 81.953824,54.927231 82.614714,54.795061 C 83.074424,54.703111 83.424934,54.618281 83.940534,54.618281 C 84.428264,54.618281 84.824774,54.684661 85.266364,54.795061 C 85.733734,54.911901 86.148914,55.037791 86.592184,55.148611 C 87.105174,55.276861 87.606874,55.468571 88.094784,55.590551 C 88.513694,55.695282 89.024034,55.579801 89.420614,55.678941 C 89.789424,55.771141 90.776844,55.575351 90.039334,55.944101 C 89.596664,56.165442 89.108104,56.786941 88.801894,57.093151 C 88.439364,57.455692 87.758524,57.508681 87.299294,57.623481 C 86.761104,57.758031 86.262754,57.838421 85.708304,57.977041 C 85.177674,58.109691 84.683194,58.153811 84.117314,58.153811 C 83.645904,58.153811 83.174504,58.153811 82.703094,58.153811 C 82.185384,58.153811 81.284284,57.665381 80.846944,57.446711 C 80.351054,57.198761 79.895354,56.821411 79.432734,56.474431 C 79.314874,56.386051 79.432734,56.179811 79.432734,56.032491 z "
       id="path10977"
       inkscape:export-filename="/home/rover/herobot/arte/pre/hombre-1-00.png"
       inkscape:export-xdpi="24.4433"
       inkscape:export-ydpi="24.4433" />
    <path
       style="fill:#000000;fill-opacity:1;fill-rule:evenodd;stroke:#000000;stroke-width:1px;stroke-linecap:butt;stroke-linejoin:miter;stroke-opacity:1"
       d="M 83.675374,54.264731 C 83.667904,54.259121 83.852144,53.236201 83.852144,52.850511 C 83.852144,52.291002 83.992324,51.847871 84.117314,51.347911 C 84.233384,50.883631 84.186364,50.364601 84.294084,49.933701 C 84.503334,49.096701 84.372274,48.507571 84.647644,50.022091 C 84.749614,50.582941 84.782884,51.181771 84.912804,51.701461 C 85.031194,52.174991 85.169664,52.543791 85.266364,53.027291 C 85.366204,53.526501 85.354744,54.014821 85.354744,54.529891 C 85.354744,54.977801 85.381104,54.424481 85.266364,54.883441"
       id="path10979"
       inkscape:export-filename="/home/rover/herobot/arte/pre/hombre-1-00.png"
       inkscape:export-xdpi="24.4433"
       inkscape:export-ydpi="24.4433" />
    <path
       style="fill:#000000;fill-opacity:1;fill-rule:evenodd;stroke:#000000;stroke-width:1px;stroke-linecap:butt;stroke-linejoin:miter;stroke-opacity:1"
       d="M 83.410204,58.507371 C 83.410204,59.001251 83.732364,59.442441 83.852144,59.921581 C 83.968114,60.385471 83.937874,60.880561 84.028924,61.335791 C 84.114144,61.761881 84.117314,62.193631 84.117314,62.661621 C 84.117314,62.991791 84.134274,63.259811 84.205704,63.545502 C 84.205704,65.456751 84.360034,61.690741 84.559254,60.893851 C 84.573544,60.836691 84.559254,60.776001 84.559254,60.717081 C 84.559254,60.171352 84.779884,59.568721 85.001194,59.126081 C 85.202734,58.723011 85.443134,58.336951 85.443134,57.977041"
       id="path10981"
       inkscape:export-filename="/home/rover/herobot/arte/pre/hombre-1-00.png"
       inkscape:export-xdpi="24.4433"
       inkscape:export-ydpi="24.4433" />
    <path
       style="fill:#000000;fill-opacity:1;fill-rule:evenodd;stroke:#000000;stroke-width:1px;stroke-linecap:butt;stroke-linejoin:miter;stroke-opacity:1"
       d="M 62.285394,56.297661 C 62.286144,56.296151 63.326764,55.936471 63.787994,55.590551 C 64.391044,55.138261 64.823854,54.712871 65.555754,54.529891 C 65.971814,54.425881 66.538424,54.529891 66.969974,54.529891 C 67.375484,54.529891 67.857014,54.441501 68.295794,54.441501 C 68.678504,54.441501 69.260094,54.704671 69.621624,54.795061 C 70.245244,54.950961 70.773074,55.371381 71.301004,55.767331 C 71.786874,56.131731 72.882034,56.189661 72.096494,56.386051 C 71.622074,56.504651 71.188184,56.638421 70.682284,56.739601 C 70.212014,56.833651 69.726224,57.169382 69.356454,57.446711 C 68.897724,57.790761 68.232934,57.926461 67.677084,58.065421 C 67.181324,58.189361 66.610074,58.153811 66.086094,58.153811 C 65.543294,58.153811 65.173944,57.925781 64.671874,57.800261 C 64.061814,57.647741 63.449294,57.012192 62.904104,56.739601 C 62.558594,56.566841 62.778774,56.692372 62.285394,56.297661 z "
       id="path10983"
       inkscape:export-filename="/home/rover/herobot/arte/pre/hombre-1-00.png"
       inkscape:export-xdpi="24.4433"
       inkscape:export-ydpi="24.4433" />
    <path
       style="fill:#000000;fill-opacity:1;fill-rule:evenodd;stroke:#000000;stroke-width:1px;stroke-linecap:butt;stroke-linejoin:miter;stroke-opacity:1"
       d="M 69.798404,54.529891 C 69.196894,54.229141 70.913744,53.720721 71.566164,53.557621 C 72.388764,53.351971 73.445324,52.744871 74.129424,52.231791 C 75.277674,51.370611 74.075654,52.639121 73.687484,53.027291 C 73.206764,53.508011 72.720734,53.951231 72.184884,54.353111 C 71.896604,54.569321 71.644984,54.893012 71.389394,55.148611"
       id="path10985"
       inkscape:export-filename="/home/rover/herobot/arte/pre/hombre-1-00.png"
       inkscape:export-xdpi="24.4433"
       inkscape:export-ydpi="24.4433" />
    <path
       style="fill:#000000;fill-opacity:1;fill-rule:evenodd;stroke:#000000;stroke-width:1px;stroke-linecap:butt;stroke-linejoin:miter;stroke-opacity:1"
       d="M 63.787994,55.590551 C 63.287994,55.965551 63.674414,54.340731 63.522824,53.734401 C 63.396774,53.230191 63.122084,52.756131 62.904104,52.320181 C 62.556554,51.625082 62.460824,51.342541 62.285394,50.640801 C 62.114834,49.958571 62.903674,51.789421 63.611214,52.496961 C 64.073554,52.959301 64.343234,53.973861 64.760264,54.529891 C 64.852624,54.653031 65.002304,54.771931 65.113814,54.883441"
       id="path10987"
       inkscape:export-filename="/home/rover/herobot/arte/pre/hombre-1-00.png"
       inkscape:export-xdpi="24.4433"
       inkscape:export-ydpi="24.4433" />
    <path
       style="fill:#000000;fill-opacity:1;fill-rule:evenodd;stroke:#000000;stroke-width:1px;stroke-linecap:butt;stroke-linejoin:miter;stroke-opacity:1"
       d="M 64.583484,58.153811 C 64.955134,58.649351 63.938224,59.232271 63.787994,59.833191 C 63.669484,60.307241 63.611214,60.748582 63.611214,61.247411 C 63.611214,61.543501 63.627794,61.844031 63.699604,62.131291 C 63.853524,62.746992 63.957944,60.812291 64.406714,60.363521 C 64.828804,59.941432 65.233434,59.625181 65.644144,59.214471 C 65.851584,59.007041 65.966084,58.747371 66.086094,58.507371"
       id="path10989"
       inkscape:export-filename="/home/rover/herobot/arte/pre/hombre-1-00.png"
       inkscape:export-xdpi="24.4433"
       inkscape:export-ydpi="24.4433" />
    <path
       style="fill:#000000;fill-opacity:1;fill-rule:evenodd;stroke:#000000;stroke-width:1px;stroke-linecap:butt;stroke-linejoin:miter;stroke-opacity:1"
       d="M 68.737744,57.800261 C 68.810694,57.727301 69.815014,58.612361 70.151954,58.949312 C 70.587154,59.384501 70.960064,59.908941 71.301004,60.363521 C 71.494184,60.621101 72.223384,61.904621 71.654554,61.335791 C 71.322504,61.003751 71.323554,60.100161 71.212614,59.656422 C 71.090674,59.168661 71.155984,58.634411 71.035834,58.153811 C 70.925154,57.711071 70.679014,57.355871 70.328734,57.093151"
       id="path10991"
       inkscape:export-filename="/home/rover/herobot/arte/pre/hombre-1-00.png"
       inkscape:export-xdpi="24.4433"
       inkscape:export-ydpi="24.4433" />
    <path
       style="fill:#000000;fill-opacity:1;fill-rule:evenodd;stroke:#000000;stroke-width:1px;stroke-linecap:butt;stroke-linejoin:miter;stroke-opacity:1"
       d="M 64.318324,74.505662 C 63.790004,74.294331 65.357284,74.986371 65.909314,75.124381 C 66.483824,75.268001 66.967834,75.459822 67.500304,75.566322 C 67.943294,75.654922 68.410154,75.550711 68.826124,75.654711 C 69.360034,75.788181 69.965754,75.526832 70.417114,75.301152 C 70.993664,75.012881 71.494774,74.762332 72.008104,74.505662 C 72.372424,74.323501 73.086234,74.598411 73.422324,74.682431 C 73.866764,74.793542 74.306314,74.881282 74.748144,74.770821 C 75.213264,74.654541 75.628134,74.528731 76.073974,74.417271 C 76.649094,74.273491 77.058504,74.429521 77.488184,74.859212 C 77.885304,75.256332 78.353774,75.477931 78.902404,75.477931 C 79.359994,75.477931 79.747584,75.566322 80.228224,75.566322 C 80.773534,75.566322 81.149994,75.512651 81.642434,75.389541 C 82.209024,75.247891 82.648474,74.930721 83.145044,74.682431 C 83.707984,74.400961 84.160284,74.242121 84.559254,73.710161 C 84.844294,73.330101 85.335804,73.118281 85.796694,73.003062 C 86.364044,72.861221 84.909184,73.805802 84.647644,74.328881 C 84.383364,74.857431 84.031984,75.209701 83.586984,75.654711 C 83.243204,75.998492 82.597414,76.255651 82.172764,76.361812 C 81.472034,76.537002 80.679684,76.870661 79.963064,77.157311 C 79.473704,77.353051 78.939894,77.479391 78.460454,77.599251 C 77.962534,77.723731 77.437194,77.744581 76.957854,77.864412 C 76.367524,78.012001 75.806284,78.129582 75.190084,78.129582 C 74.609084,78.129582 73.948334,78.217971 73.333934,78.217971 C 72.685754,78.217971 72.037574,78.217971 71.389394,78.217971 C 70.851334,78.217971 70.306534,78.256611 69.798404,78.129582 C 69.328604,78.012131 68.817494,77.815901 68.384184,77.599251 C 68.266334,77.540321 68.148484,77.481401 68.030634,77.422472 C 67.376944,77.095631 66.706794,76.848941 66.086094,76.538591 C 65.549184,76.270141 64.904684,75.357191 64.495094,74.947601 C 64.382904,74.835411 64.377244,74.652971 64.318324,74.505662 z "
       id="path13902"
       inkscape:export-filename="/home/rover/herobot/arte/pre/hombre-1-00.png"
       inkscape:export-xdpi="24.4433"
       inkscape:export-ydpi="24.4433" />
    <path
       style="fill:#000000;fill-opacity:1;fill-rule:evenodd;stroke:#000000;stroke-width:1px;stroke-linecap:butt;stroke-linejoin:miter;stroke-opacity:1"
       d="M 72.980384,71.235292 C 72.978204,71.233121 71.720584,71.124752 71.389394,71.058511 C 70.881404,70.956912 70.446694,70.410562 70.240344,69.997851 C 70.004154,69.525471 70.019304,68.937061 69.798404,68.495251 C 69.337564,67.573582 69.752334,68.482791 70.240344,68.848801 C 70.741544,69.224701 71.246914,69.219511 71.742944,69.467522 C 72.335374,69.763741 72.435804,70.037791 72.803604,70.528182 C 72.855244,70.597042 72.965964,71.177611 72.980384,71.235292 z "
       id="path14881"
       inkscape:export-filename="/home/rover/herobot/arte/pre/hombre-1-00.png"
       inkscape:export-xdpi="24.4433"
       inkscape:export-ydpi="24.4433" />
    <path
       style="fill:#000000;fill-opacity:1;fill-rule:evenodd;stroke:#000000;stroke-width:1px;stroke-linecap:butt;stroke-linejoin:miter;stroke-opacity:1"
       d="M 76.162364,70.793351 C 76.510574,71.257632 76.459094,69.612731 76.869464,69.202361 C 77.375434,68.696391 77.529934,68.396422 78.195294,68.230081 C 78.611464,68.126041 79.012074,68.499511 79.432734,68.583641 C 79.467374,68.590571 78.538214,69.312001 78.018514,70.351411 C 77.702394,70.983651 77.143474,71.146901 76.515914,71.146901 C 76.349244,71.146901 76.280214,70.911201 76.162364,70.793351 z "
       id="path14883"
       inkscape:export-filename="/home/rover/herobot/arte/pre/hombre-1-00.png"
       inkscape:export-xdpi="24.4433"
       inkscape:export-ydpi="24.4433" />
    <path
       style="fill:none;fill-rule:evenodd;stroke:#000000;stroke-width:1px;stroke-linecap:butt;stroke-linejoin:miter;stroke-opacity:1"
       d="M 98.347834,53.822781 C 98.681974,53.681231 99.489124,53.296331 100.02721,53.027291 C 100.43015,52.825821 100.89256,52.762121 101.35304,52.762121 C 101.9473,52.762121 102.26051,52.773922 102.76725,53.027291 C 103.33614,53.311731 103.80487,53.534581 104.26985,53.999561 C 104.70206,54.431771 104.75193,55.043971 104.88857,55.590551 C 105.01868,56.110981 105.15373,56.456171 105.15373,57.004761 C 105.15373,57.622521 105.27834,58.149482 105.15373,58.772531 C 105.14218,58.830311 105.15373,58.890381 105.15373,58.949312 C 105.15373,59.495781 104.68684,60.236651 104.44663,60.717081 C 104.16306,61.284201 103.99997,61.875561 103.73952,62.396451 C 103.47281,62.929871 103.47708,63.540062 103.20919,64.075832 C 102.8776,64.739022 102.69154,65.300591 102.14853,65.843602 C 101.77787,66.214261 101.29437,65.843602 100.82271,65.843602 C 100.33807,65.843602 99.728624,65.469992 99.320104,65.224881 C 98.917374,64.983242 98.595054,64.676612 98.259444,64.341002"
       id="path15854"
       inkscape:export-filename="/home/rover/herobot/arte/pre/hombre-1-00.png"
       inkscape:export-xdpi="24.4433"
       inkscape:export-ydpi="24.4433" />
    <path
       style="fill:url(#linearGradient3139);fill-opacity:1;fill-rule:evenodd;stroke:#000000;stroke-width:1px;stroke-linecap:butt;stroke-linejoin:miter;stroke-opacity:1"
       d="M 67.853854,32.344421 L 57.954364,10.600884 L 81.288884,31.990862 L 79.344344,4.0601465 L 94.370364,28.808882 L 119.29587,11.131214 L 105.86084,36.587061 L 133.43801,29.869542 L 109.57315,45.249111 L 134.67544,52.673741 L 111.87125,56.739601 L 123.00818,75.477931 L 106.21439,68.937191 L 103.03241,90.150402 L 93.663254,77.599251 L 96.160224,70.296161 L 103.96049,65.998282 L 107.6949,58.695201 L 107.00989,45.381701 L 98.966554,34.200571 L 88.801894,34.863491 L 73.510714,41.360031 L 68.384184,33.935412 L 67.853854,32.344421 z "
       id="path15858"
       sodipodi:nodetypes="cccccccccccccccccccccccc"
       inkscape:export-filename="/home/rover/herobot/arte/pre/hombre-1-00.png"
       inkscape:export-xdpi="24.4433"
       inkscape:export-ydpi="24.4433" />
    <path
       style="fill:#ffeeaa;fill-opacity:1;fill-rule:evenodd;stroke:#000000;stroke-width:1px;stroke-linecap:butt;stroke-linejoin:miter;stroke-opacity:1"
       d="M 95.077464,79.367021 L 94.547134,94.746591 L 97.905894,97.575021 L 92.911954,103.89479 C 90.275034,105.67728 87.196174,107.54817 81.819214,108.09323 C 77.060974,107.07676 75.042774,106.59063 71.080034,104.07156 C 69.356464,102.37745 67.721274,101.21367 66.174474,98.989232 L 71.389394,96.160801 L 71.742944,87.675522 L 78.990784,87.852301 L 93.840034,77.776032 L 95.077464,79.367021 z "
       id="path20746"
       sodipodi:nodetypes="cccccccccccc"
       inkscape:export-filename="/home/rover/herobot/arte/pre/hombre-1-00.png"
       inkscape:export-xdpi="24.4433"
       inkscape:export-ydpi="24.4433" />
    <path
       style="fill:#ffeeaa;fill-opacity:1;fill-rule:evenodd;stroke:#000000;stroke-width:1px;stroke-linecap:butt;stroke-linejoin:miter;stroke-opacity:1"
       d="M 117.70488,142.4763 L 126.01338,163.51272 L 125.65983,175.71032 L 128.66504,188.79179 L 135.7361,208.414 L 132.55412,215.13152 L 132.90768,219.72771 L 137.85742,228.38977 L 141.21618,228.38977 L 147.75692,219.37416 L 148.11047,213.36375 L 145.28204,208.23723 L 143.69105,187.02402 L 142.80717,169.34636 L 139.27164,159.62364 L 137.32709,148.4867 L 135.38255,134.16779 L 117.70488,142.4763 z "
       id="path21717"
       inkscape:export-filename="/home/rover/herobot/arte/pre/hombre-1-00.png"
       inkscape:export-xdpi="24.4433"
       inkscape:export-ydpi="24.4433" />
    <path
       style="fill:#ffeeaa;fill-opacity:1;fill-rule:evenodd;stroke:#000000;stroke-width:1px;stroke-linecap:butt;stroke-linejoin:miter;stroke-opacity:1"
       d="M 39.734754,131.00918 L 31.984754,154.75918 L 25.234754,170.50918 L 19.484754,189.75918 L 16.984754,199.25918 L 14.234754,204.00918 L 14.734754,215.25918 L 18.734754,220.75918 L 25.484754,214.75918 L 24.984754,200.75918 L 33.484754,185.00918 L 40.734754,168.25918 L 41.234754,159.50918 L 51.984754,139.25918 C 45.234754,140.25918 39.734754,131.00918 39.734754,131.00918 z "
       id="path23657"
       sodipodi:nodetypes="ccccccccccccccc"
       inkscape:export-filename="/home/rover/herobot/arte/pre/hombre-1-00.png"
       inkscape:export-xdpi="24.4433"
       inkscape:export-ydpi="24.4433" />
    <path
       style="fill:#afdde9;fill-opacity:1;fill-rule:evenodd;stroke:#000000;stroke-width:1px;stroke-linecap:butt;stroke-linejoin:miter;stroke-opacity:1"
       d="M 53.358164,191.26667 L 61.843444,248.89587 L 67.146744,265.86643 L 77.399794,285.66542 L 87.299294,305.11086 L 90.481274,321.37431 L 93.663254,325.61695 L 118.41199,314.30325 L 111.34092,303.34309 L 104.97696,283.19055 L 93.309704,267.28064 L 86.238634,250.31008 L 86.238634,217.07606 L 85.531524,190.55956 L 53.358164,191.26667 z "
       id="path25604"
       inkscape:export-filename="/home/rover/herobot/arte/pre/hombre-1-00.png"
       inkscape:export-xdpi="24.4433"
       inkscape:export-ydpi="24.4433" />
    <path
       style="fill:#afdde9;fill-opacity:1;fill-rule:evenodd;stroke:#000000;stroke-width:1px;stroke-linecap:butt;stroke-linejoin:miter;stroke-opacity:1"
       d="M 114.91935,190.47377 L 110.57315,212.41185 L 107.03762,233.61464 L 100.02721,255.25983 L 95.431024,273.11428 L 91.188384,297.33268 L 84.470864,310.41416 L 85.531524,315.36391 L 85.885084,320.66721 L 83.410204,327.03116 L 76.515914,324.73306 L 62.904114,321.72786 L 58.838244,324.02597 L 55.833044,317.48523 L 59.015024,311.47482 L 63.611214,309.3535 L 65.378984,301.22177 L 70.682284,281.06923 L 68.914514,269.40196 L 71.510714,256.50247 L 70.803604,244.79967 L 71.632034,226.79358 L 67.571374,211.62632 L 71.389394,196.56997 L 73.510714,190.55956 L 114.91935,190.47377 z "
       id="path25602"
       sodipodi:nodetypes="cccccccccccccccccccccccccc"
       inkscape:export-filename="/home/rover/herobot/arte/pre/hombre-1-00.png"
       inkscape:export-xdpi="24.4433"
       inkscape:export-ydpi="24.4433" />
    <path
       style="fill:#000000;fill-opacity:1;fill-rule:evenodd;stroke:#000000;stroke-width:1px;stroke-linecap:butt;stroke-linejoin:miter;stroke-opacity:1"
       d="M 95.484754,325.50918 L 101.73475,342.50918 L 93.984754,357.25918 L 83.984754,356.75918 L 76.234754,361.50918 L 77.234754,369.50918 L 95.734754,371.25918 L 116.98475,365.75918 L 129.73475,356.25918 L 127.73475,349.25918 L 123.98475,349.25918 L 121.98475,338.50918 L 116.73475,315.00918 L 95.484754,325.50918 z "
       id="path27556"
       inkscape:export-filename="/home/rover/herobot/arte/pre/hombre-1-00.png"
       inkscape:export-xdpi="24.4433"
       inkscape:export-ydpi="24.4433" />
    <path
       style="fill:#000000;fill-opacity:1;fill-rule:evenodd;stroke:#000000;stroke-width:1px;stroke-linecap:butt;stroke-linejoin:miter;stroke-opacity:1"
       d="M 59.484754,323.25918 L 56.484754,339.25918 L 49.734754,346.00918 L 36.234754,349.75918 L 26.484754,347.25918 L 18.984754,351.00918 L 18.984754,357.50918 L 46.984754,366.75918 L 70.484754,369.50918 L 77.484754,355.25918 L 77.734754,339.00918 L 81.734754,327.00918 L 63.609754,321.88418 L 59.484754,323.25918 z "
       id="path28527"
       sodipodi:nodetypes="cccccccccccccc"
       inkscape:export-filename="/home/rover/herobot/arte/pre/hombre-1-00.png"
       inkscape:export-xdpi="24.4433"
       inkscape:export-ydpi="24.4433" />
    <path
       inkscape:transform-center-y="65.83755"
       inkscape:transform-center-x="7.670554"
       id="path29562"
       d="M 251.09628,196.23238 L 234.99008,252.21197 L 232.80068,269.85655 L 233.94828,292.1233 L 234.92019,313.92195 L 231.09177,330.04546 L 232.23441,335.2242 L 259.44647,335.15781 L 257.54081,322.25457 L 260.08038,301.27421 L 256.03687,281.96358 L 256.61674,263.58795 L 270.36031,233.32883 L 280.68211,208.8935 L 251.09628,196.23238 z "
       style="fill:#afdde9;fill-opacity:1;fill-rule:evenodd;stroke:#000000;stroke-width:1px;stroke-linecap:butt;stroke-linejoin:miter;stroke-opacity:1"
       inkscape:export-filename="/home/rover/herobot/arte/pre/hombre-1-01.png"
       inkscape:export-xdpi="24.634604"
       inkscape:export-ydpi="24.634604" />
    <path
       sodipodi:nodetypes="cccccccccccccccc"
       id="path29526"
       d="M 249.5213,118.2999 C 253.3095,115.85341 257.98158,114.46759 264.5982,112.55143 C 275.55653,126.42643 288.56512,123.13506 296.49832,110.94419 L 321.14781,117.13264 C 325.2505,119.52508 326.87832,120.50331 330.80424,124.84029 C 332.19636,128.70587 333.58847,132.04111 333.91993,135.90669 L 333.67687,148.03376 C 326.65736,150.32025 321.5824,151.36931 314.56289,156.83778 C 312.06591,164.23889 310.80638,170.04901 310.25395,178.51078 C 310.46756,187.26718 311.38827,195.49325 313.54642,204.24965 L 249.04642,204.24965 L 253.93811,146.87654 L 250.69807,153.31983 C 245.31649,152.22668 240.8188,150.42643 237.73532,143.1461 L 243.27475,125.4197 C 244.8266,121.98577 246.0249,119.96606 249.5213,118.2999 z "
       style="fill:#d80000;fill-opacity:1;stroke:#000000;stroke-width:1;stroke-linecap:butt;stroke-linejoin:miter;stroke-miterlimit:4;stroke-dasharray:none;stroke-opacity:1"
       inkscape:export-filename="/home/rover/herobot/arte/pre/hombre-1-01.png"
       inkscape:export-xdpi="24.634604"
       inkscape:export-ydpi="24.634604" />
    <path
       sodipodi:nodetypes="ccccccccccccccccc"
       id="path29528"
       d="M 260.2232,55.603196 C 261.88987,51.769866 263.30653,50.311526 266.3482,47.478196 L 271.4732,55.603196 L 278.5357,52.353196 L 287.0982,49.009446 L 297.2232,48.415696 L 301.5982,54.384446 L 304.8482,59.290696 L 305.3482,72.165696 L 301.8482,79.290696 L 294.2857,83.603196 L 291.5982,90.915696 L 276.8482,101.1032 L 267.0982,101.2282 C 264.95237,98.842776 262.68153,96.832366 261.6607,93.571946 C 260.01487,89.561526 260.86903,85.051116 259.8482,81.790696 C 259.0982,73.603196 258.2232,66.790696 260.2232,55.603196 z "
       style="fill:#ffeeaa;fill-opacity:1;stroke:#000000;stroke-width:1;stroke-linecap:butt;stroke-linejoin:miter;stroke-miterlimit:4;stroke-opacity:1"
       inkscape:export-filename="/home/rover/herobot/arte/pre/hombre-1-01.png"
       inkscape:export-xdpi="24.634604"
       inkscape:export-ydpi="24.634604" />
    <path
       id="path29530"
       d="M 277.67118,69.626506 C 277.99164,69.616036 278.76777,69.431766 279.26217,69.184566 C 279.85342,68.888936 280.19227,68.521246 280.85316,68.389076 C 281.31287,68.297126 281.66338,68.212296 282.17898,68.212296 C 282.66671,68.212296 283.06322,68.278676 283.50481,68.389076 C 283.97218,68.505916 284.38736,68.631806 284.83063,68.742626 C 285.34362,68.870876 285.84532,69.062586 286.33323,69.184566 C 286.75214,69.289296 287.26248,69.173816 287.65906,69.272956 C 288.02787,69.365156 289.01529,69.169366 288.27778,69.538116 C 287.83511,69.759456 287.34655,70.380956 287.04034,70.687166 C 286.67781,71.049706 285.99697,71.102696 285.53774,71.217496 C 284.99955,71.352046 284.5012,71.432436 283.94675,71.571056 C 283.41612,71.703706 282.92164,71.747826 282.35576,71.747826 C 281.88435,71.747826 281.41295,71.747826 280.94154,71.747826 C 280.42383,71.747826 279.52273,71.259396 279.08539,71.040726 C 278.5895,70.792776 278.1338,70.415426 277.67118,70.068446 C 277.55332,69.980066 277.67118,69.773826 277.67118,69.626506 z "
       style="fill:#000000;fill-opacity:1;fill-rule:evenodd;stroke:#000000;stroke-width:1px;stroke-linecap:butt;stroke-linejoin:miter;stroke-opacity:1"
       inkscape:export-filename="/home/rover/herobot/arte/pre/hombre-1-01.png"
       inkscape:export-xdpi="24.634604"
       inkscape:export-ydpi="24.634604" />
    <path
       id="path29532"
       d="M 281.91382,67.858746 C 281.90635,67.853136 282.09059,66.830216 282.09059,66.444526 C 282.09059,65.885016 282.23077,65.441886 282.35576,64.941926 C 282.47183,64.477646 282.42481,63.958616 282.53253,63.527716 C 282.74178,62.690716 282.61072,62.101586 282.88609,63.616106 C 282.98806,64.176956 283.02133,64.775786 283.15125,65.295476 C 283.26964,65.769006 283.40811,66.137806 283.50481,66.621306 C 283.60465,67.120516 283.59319,67.608836 283.59319,68.123906 C 283.59319,68.571816 283.61955,68.018496 283.50481,68.477456"
       style="fill:#000000;fill-opacity:1;fill-rule:evenodd;stroke:#000000;stroke-width:1px;stroke-linecap:butt;stroke-linejoin:miter;stroke-opacity:1"
       inkscape:export-filename="/home/rover/herobot/arte/pre/hombre-1-01.png"
       inkscape:export-xdpi="24.634604"
       inkscape:export-ydpi="24.634604" />
    <path
       id="path29534"
       d="M 281.64865,72.101386 C 281.64865,72.595266 281.97081,73.036456 282.09059,73.515596 C 282.20656,73.979486 282.17632,74.474576 282.26737,74.929806 C 282.35259,75.355896 282.35576,75.787646 282.35576,76.255636 C 282.35576,76.585806 282.37272,76.853826 282.44415,77.139516 C 282.44415,79.050766 282.59848,75.284756 282.7977,74.487866 C 282.81199,74.430706 282.7977,74.370016 282.7977,74.311096 C 282.7977,73.765366 283.01833,73.162736 283.23964,72.720096 C 283.44118,72.317026 283.68158,71.930966 283.68158,71.571056"
       style="fill:#000000;fill-opacity:1;fill-rule:evenodd;stroke:#000000;stroke-width:1px;stroke-linecap:butt;stroke-linejoin:miter;stroke-opacity:1"
       inkscape:export-filename="/home/rover/herobot/arte/pre/hombre-1-01.png"
       inkscape:export-xdpi="24.634604"
       inkscape:export-ydpi="24.634604" />
    <path
       id="path29536"
       d="M 260.52384,69.891676 C 260.52459,69.890166 261.56521,69.530486 262.02644,69.184566 C 262.62949,68.732276 263.0623,68.306886 263.7942,68.123906 C 264.21026,68.019896 264.77687,68.123906 265.20842,68.123906 C 265.61393,68.123906 266.09546,68.035516 266.53424,68.035516 C 266.91695,68.035516 267.49854,68.298686 267.86007,68.389076 C 268.48369,68.544976 269.01152,68.965396 269.53945,69.361346 C 270.02532,69.725746 271.12048,69.783676 270.33494,69.980066 C 269.86052,70.098666 269.42663,70.232436 268.92073,70.333616 C 268.45046,70.427666 267.96467,70.763396 267.5949,71.040726 C 267.13617,71.384776 266.47138,71.520476 265.91553,71.659436 C 265.41977,71.783376 264.84852,71.747826 264.32454,71.747826 C 263.78174,71.747826 263.41239,71.519796 262.91032,71.394276 C 262.30026,71.241756 261.68774,70.606206 261.14255,70.333616 C 260.79704,70.160856 261.01722,70.286386 260.52384,69.891676 z "
       style="fill:#000000;fill-opacity:1;fill-rule:evenodd;stroke:#000000;stroke-width:1px;stroke-linecap:butt;stroke-linejoin:miter;stroke-opacity:1"
       inkscape:export-filename="/home/rover/herobot/arte/pre/hombre-1-01.png"
       inkscape:export-xdpi="24.634604"
       inkscape:export-ydpi="24.634604" />
    <path
       id="path29538"
       d="M 268.03685,68.123906 C 267.43534,67.823156 269.15219,67.314736 269.80461,67.151636 C 270.62721,66.945986 271.68377,66.338886 272.36787,65.825806 C 273.51612,64.964626 272.3141,66.233136 271.92593,66.621306 C 271.44521,67.102026 270.95918,67.545246 270.42333,67.947126 C 270.13505,68.163336 269.88343,68.487026 269.62784,68.742626"
       style="fill:#000000;fill-opacity:1;fill-rule:evenodd;stroke:#000000;stroke-width:1px;stroke-linecap:butt;stroke-linejoin:miter;stroke-opacity:1"
       inkscape:export-filename="/home/rover/herobot/arte/pre/hombre-1-01.png"
       inkscape:export-xdpi="24.634604"
       inkscape:export-ydpi="24.634604" />
    <path
       id="path29540"
       d="M 262.02644,69.184566 C 261.52644,69.559566 261.91286,67.934746 261.76127,67.328416 C 261.63522,66.824206 261.36053,66.350146 261.14255,65.914196 C 260.795,65.219096 260.69927,64.936556 260.52384,64.234816 C 260.35328,63.552586 261.14212,65.383436 261.84966,66.090976 C 262.312,66.553316 262.58168,67.567876 262.99871,68.123906 C 263.09107,68.247046 263.24075,68.365946 263.35226,68.477456"
       style="fill:#000000;fill-opacity:1;fill-rule:evenodd;stroke:#000000;stroke-width:1px;stroke-linecap:butt;stroke-linejoin:miter;stroke-opacity:1"
       inkscape:export-filename="/home/rover/herobot/arte/pre/hombre-1-01.png"
       inkscape:export-xdpi="24.634604"
       inkscape:export-ydpi="24.634604" />
    <path
       id="path29542"
       d="M 262.82193,71.747826 C 263.19358,72.243366 262.17667,72.826286 262.02644,73.427206 C 261.90793,73.901256 261.84966,74.342596 261.84966,74.841426 C 261.84966,75.137516 261.86624,75.438046 261.93805,75.725306 C 262.09197,76.341006 262.19639,74.406306 262.64516,73.957536 C 263.06725,73.535446 263.47188,73.219196 263.88259,72.808486 C 264.09003,72.601056 264.20453,72.341386 264.32454,72.101386"
       style="fill:#000000;fill-opacity:1;fill-rule:evenodd;stroke:#000000;stroke-width:1px;stroke-linecap:butt;stroke-linejoin:miter;stroke-opacity:1"
       inkscape:export-filename="/home/rover/herobot/arte/pre/hombre-1-01.png"
       inkscape:export-xdpi="24.634604"
       inkscape:export-ydpi="24.634604" />
    <path
       id="path29544"
       d="M 266.97619,71.394276 C 267.04914,71.321316 268.05346,72.206376 268.3904,72.543326 C 268.8256,72.978516 269.19851,73.502956 269.53945,73.957536 C 269.73263,74.215116 270.46183,75.498636 269.893,74.929806 C 269.56095,74.597766 269.562,73.694176 269.45106,73.250436 C 269.32912,72.762676 269.39443,72.228426 269.27428,71.747826 C 269.1636,71.305086 268.91746,70.949886 268.56718,70.687166"
       style="fill:#000000;fill-opacity:1;fill-rule:evenodd;stroke:#000000;stroke-width:1px;stroke-linecap:butt;stroke-linejoin:miter;stroke-opacity:1"
       inkscape:export-filename="/home/rover/herobot/arte/pre/hombre-1-01.png"
       inkscape:export-xdpi="24.634604"
       inkscape:export-ydpi="24.634604" />
    <path
       id="path29546"
       d="M 262.55677,88.099676 C 262.02845,87.888346 263.59573,88.580386 264.14776,88.718396 C 264.72227,88.862016 265.20628,89.053836 265.73875,89.160336 C 266.18174,89.248936 266.6486,89.144726 267.06457,89.248726 C 267.59848,89.382196 268.2042,89.120846 268.65556,88.895166 C 269.23211,88.606896 269.73322,88.356346 270.24655,88.099676 C 270.61087,87.917516 271.32468,88.192426 271.66077,88.276446 C 272.10521,88.387556 272.54476,88.475296 272.98659,88.364836 C 273.45171,88.248556 273.86658,88.122746 274.31242,88.011286 C 274.88754,87.867506 275.29695,88.023536 275.72663,88.453226 C 276.12375,88.850346 276.59222,89.071946 277.14085,89.071946 C 277.59844,89.071946 277.98603,89.160336 278.46667,89.160336 C 279.01198,89.160336 279.38844,89.106666 279.88088,88.983556 C 280.44747,88.841906 280.88692,88.524736 281.38349,88.276446 C 281.94643,87.994976 282.39873,87.836136 282.7977,87.304176 C 283.08274,86.924116 283.57425,86.712296 284.03514,86.597076 C 284.60249,86.455236 283.14763,87.399816 282.88609,87.922896 C 282.62181,88.451446 282.27043,88.803716 281.82543,89.248726 C 281.48165,89.592506 280.83586,89.849666 280.41121,89.955826 C 279.71048,90.131016 278.91813,90.464676 278.20151,90.751326 C 277.71215,90.947066 277.17834,91.073406 276.6989,91.193266 C 276.20098,91.317746 275.67564,91.338596 275.1963,91.458426 C 274.60597,91.606016 274.04473,91.723596 273.42853,91.723596 C 272.84753,91.723596 272.18678,91.811986 271.57238,91.811986 C 270.9242,91.811986 270.27602,91.811986 269.62784,91.811986 C 269.08978,91.811986 268.54498,91.850626 268.03685,91.723596 C 267.56705,91.606146 267.05594,91.409916 266.62263,91.193266 C 266.50478,91.134336 266.38693,91.075416 266.26908,91.016486 C 265.61539,90.689646 264.94524,90.442956 264.32454,90.132606 C 263.78763,89.864156 263.14313,88.951206 262.73354,88.541616 C 262.62135,88.429426 262.61569,88.246986 262.55677,88.099676 z "
       style="fill:#000000;fill-opacity:1;fill-rule:evenodd;stroke:#000000;stroke-width:1px;stroke-linecap:butt;stroke-linejoin:miter;stroke-opacity:1"
       inkscape:export-filename="/home/rover/herobot/arte/pre/hombre-1-01.png"
       inkscape:export-xdpi="24.634604"
       inkscape:export-ydpi="24.634604" />
    <path
       id="path29548"
       d="M 271.21883,84.829306 C 271.21665,84.827136 269.95903,84.718766 269.62784,84.652526 C 269.11985,84.550926 268.68514,84.004576 268.47879,83.591866 C 268.2426,83.119486 268.25775,82.531076 268.03685,82.089266 C 267.57601,81.167596 267.99078,82.076806 268.47879,82.442816 C 268.97999,82.818716 269.48536,82.813526 269.98139,83.061536 C 270.57382,83.357756 270.67425,83.631806 271.04205,84.122196 C 271.09369,84.191056 271.20441,84.771626 271.21883,84.829306 z "
       style="fill:#000000;fill-opacity:1;fill-rule:evenodd;stroke:#000000;stroke-width:1px;stroke-linecap:butt;stroke-linejoin:miter;stroke-opacity:1"
       inkscape:export-filename="/home/rover/herobot/arte/pre/hombre-1-01.png"
       inkscape:export-xdpi="24.634604"
       inkscape:export-ydpi="24.634604" />
    <path
       id="path29550"
       d="M 274.40081,84.387366 C 274.74902,84.851646 274.69754,83.206746 275.10791,82.796376 C 275.61388,82.290406 275.76838,81.990436 276.43374,81.824096 C 276.84991,81.720056 277.25052,82.093526 277.67118,82.177656 C 277.70582,82.184586 276.77666,82.906016 276.25696,83.945426 C 275.94084,84.577666 275.38192,84.740916 274.75436,84.740916 C 274.58769,84.740916 274.51866,84.505216 274.40081,84.387366 z "
       style="fill:#000000;fill-opacity:1;fill-rule:evenodd;stroke:#000000;stroke-width:1px;stroke-linecap:butt;stroke-linejoin:miter;stroke-opacity:1"
       inkscape:export-filename="/home/rover/herobot/arte/pre/hombre-1-01.png"
       inkscape:export-xdpi="24.634604"
       inkscape:export-ydpi="24.634604" />
    <path
       id="path29552"
       d="M 296.58628,67.416796 C 296.92042,67.275246 297.72757,66.890346 298.26566,66.621306 C 298.6686,66.419836 299.13101,66.356136 299.59149,66.356136 C 300.18575,66.356136 300.49896,66.367936 301.0057,66.621306 C 301.57459,66.905746 302.04332,67.128596 302.5083,67.593576 C 302.94051,68.025786 302.99038,68.637986 303.12702,69.184566 C 303.25713,69.704996 303.39218,70.050186 303.39218,70.598776 C 303.39218,71.216536 303.51679,71.743496 303.39218,72.366546 C 303.38063,72.424326 303.39218,72.484396 303.39218,72.543326 C 303.39218,73.089796 302.92529,73.830666 302.68508,74.311096 C 302.40151,74.878216 302.23842,75.469576 301.97797,75.990466 C 301.71126,76.523886 301.71553,77.134076 301.44764,77.669846 C 301.11605,78.333036 300.92999,78.894606 300.38698,79.437616 C 300.01632,79.808276 299.53282,79.437616 299.06116,79.437616 C 298.57652,79.437616 297.96707,79.064006 297.55855,78.818896 C 297.15582,78.577256 296.8335,78.270626 296.49789,77.935016"
       style="fill:none;fill-rule:evenodd;stroke:#000000;stroke-width:1px;stroke-linecap:butt;stroke-linejoin:miter;stroke-opacity:1"
       inkscape:export-filename="/home/rover/herobot/arte/pre/hombre-1-01.png"
       inkscape:export-xdpi="24.634604"
       inkscape:export-ydpi="24.634604" />
    <path
       sodipodi:nodetypes="cccccccccccccccccccccccc"
       id="path29554"
       d="M 266.0923,45.938436 L 256.19281,24.194898 L 279.52733,45.584876 L 277.58279,17.654161 L 292.60881,42.402896 L 317.53432,24.725228 L 304.09929,50.181076 L 331.67646,43.463556 L 307.8116,58.843126 L 332.91389,66.267756 L 310.1097,70.333616 L 321.24663,89.071946 L 304.45284,82.531206 L 301.27086,103.74442 L 291.9017,91.193266 L 294.39867,83.890176 L 302.19894,79.592296 L 305.93335,72.289216 L 305.24834,58.975716 L 297.205,47.794586 L 287.04034,48.457506 L 271.74916,54.954046 L 266.62263,47.529426 L 266.0923,45.938436 z "
       style="fill:url(#linearGradient3544);fill-opacity:1;fill-rule:evenodd;stroke:#000000;stroke-width:1px;stroke-linecap:butt;stroke-linejoin:miter;stroke-opacity:1"
       inkscape:export-filename="/home/rover/herobot/arte/pre/hombre-1-01.png"
       inkscape:export-xdpi="24.634604"
       inkscape:export-ydpi="24.634604" />
    <path
       sodipodi:nodetypes="cccccccccccc"
       id="path29556"
       d="M 293.31591,92.961036 L 292.78558,108.34061 L 296.14434,111.16904 L 291.1504,117.48881 C 288.51348,119.2713 285.43462,121.14219 280.05766,121.68725 C 275.29942,120.67078 273.28122,120.18465 269.31848,117.66558 C 267.59491,115.97147 265.95972,114.80769 264.41292,112.58325 L 269.62784,109.75482 L 269.98139,101.26954 L 277.22923,101.44632 L 292.07848,91.370046 L 293.31591,92.961036 z "
       style="fill:#ffeeaa;fill-opacity:1;fill-rule:evenodd;stroke:#000000;stroke-width:1px;stroke-linecap:butt;stroke-linejoin:miter;stroke-opacity:1"
       inkscape:export-filename="/home/rover/herobot/arte/pre/hombre-1-01.png"
       inkscape:export-xdpi="24.634604"
       inkscape:export-ydpi="24.634604" />
    <path
       sodipodi:nodetypes="cccccccccccccc"
       inkscape:transform-center-y="158.37148"
       inkscape:transform-center-x="35.181105"
       id="path29566"
       d="M 233.93743,335.87934 L 232.59782,353.94223 L 219.44184,364.66697 L 208.54375,366.07634 L 199.52317,371.69622 L 198.62534,380.39365 L 215.24564,380.63747 L 236.86794,381.41751 L 252.40527,378.04051 L 253.47907,370.84003 L 250.06475,369.28926 L 252.68932,358.67446 L 257.62743,335.10694 L 233.93743,335.87934 z "
       style="fill:#000000;fill-opacity:1;fill-rule:evenodd;stroke:#000000;stroke-width:1px;stroke-linecap:butt;stroke-linejoin:miter;stroke-opacity:1"
       inkscape:export-filename="/home/rover/herobot/arte/pre/hombre-1-01.png"
       inkscape:export-xdpi="24.634604"
       inkscape:export-ydpi="24.634604" />
    <path
       sodipodi:nodetypes="ccccccccccccccc"
       id="path29560"
       d="M 237.73663,144.92721 L 238.51746,169.8975 L 237.52057,187.00396 L 238.6534,207.06242 L 239.53004,216.84667 L 238.5576,222.24846 L 242.85036,232.65925 L 248.48117,236.47291 L 252.79091,228.53638 L 247.56375,215.5392 L 250.20653,197.83812 L 251.3339,179.62125 L 248.83109,171.22194 L 252.061,148.52409 C 246.05236,151.75809 237.73663,144.92721 237.73663,144.92721 z "
       style="fill:#ffeeaa;fill-opacity:1;fill-rule:evenodd;stroke:#000000;stroke-width:1px;stroke-linecap:butt;stroke-linejoin:miter;stroke-opacity:1"
       inkscape:export-filename="/home/rover/herobot/arte/pre/hombre-1-01.png"
       inkscape:export-xdpi="24.634604"
       inkscape:export-ydpi="24.634604" />
    <path
       sodipodi:nodetypes="cccccccccccccccccccccccccc"
       id="path29564"
       d="M 311.55705,196.65519 L 311.04639,219.01381 L 311.20794,240.50874 L 308.02237,263.03678 L 306.56352,281.41552 L 306.54683,306.00272 L 302.17781,320.04416 L 304.07348,324.73793 L 305.33334,329.90152 L 303.98916,336.59616 L 296.80247,335.51729 L 282.87671,334.8965 L 279.26636,337.85927 L 275.18163,331.93243 L 277.28314,325.46453 L 281.4463,322.58476 L 281.79003,314.2702 L 283.55046,293.50604 L 279.80356,282.31627 L 280.14388,269.16251 L 277.43575,257.75543 L 275.15685,239.87493 L 268.54959,225.63138 L 269.72281,210.14285 L 270.77945,203.85727 L 311.55705,196.65519 z "
       style="fill:#afdde9;fill-opacity:1;fill-rule:evenodd;stroke:#000000;stroke-width:1px;stroke-linecap:butt;stroke-linejoin:miter;stroke-opacity:1"
       inkscape:export-filename="/home/rover/herobot/arte/pre/hombre-1-01.png"
       inkscape:export-xdpi="24.634604"
       inkscape:export-ydpi="24.634604" />
    <path
       id="path29558"
       d="M 313.47909,149.7197 L 312.81749,172.32776 L 307.68194,183.39721 L 305.28431,196.60355 L 304.04333,217.424 L 298.46993,222.34205 L 296.98212,226.70513 L 298.11439,236.6172 L 301.20089,237.94187 L 310.76715,232.23668 L 313.46251,226.8529 L 312.88521,221.02641 L 319.78953,200.90523 L 325.94925,184.3119 L 326.53488,173.98289 L 329.14029,162.98178 L 333.00065,149.05662 L 313.47909,149.7197 z "
       style="fill:#ffeeaa;fill-opacity:1;fill-rule:evenodd;stroke:#000000;stroke-width:1px;stroke-linecap:butt;stroke-linejoin:miter;stroke-opacity:1"
       inkscape:export-filename="/home/rover/herobot/arte/pre/hombre-1-01.png"
       inkscape:export-xdpi="24.634604"
       inkscape:export-ydpi="24.634604" />
    <path
       sodipodi:nodetypes="cccccccccccccc"
       id="path29568"
       d="M 279.77145,336.99276 L 279.56628,353.27029 L 274.07697,361.08006 L 261.42246,367.09471 L 251.38786,366.30781 L 244.64405,371.29114 L 245.76131,377.6944 L 274.93453,381.99392 L 298.55746,380.66367 L 303.00391,365.42256 L 300.45704,349.37144 L 302.33487,336.86249 L 283.59871,334.9292 L 279.77145,336.99276 z "
       style="fill:#000000;fill-opacity:1;fill-rule:evenodd;stroke:#000000;stroke-width:1px;stroke-linecap:butt;stroke-linejoin:miter;stroke-opacity:1"
       inkscape:export-filename="/home/rover/herobot/arte/pre/hombre-1-01.png"
       inkscape:export-xdpi="24.634604"
       inkscape:export-ydpi="24.634604" />
    <path
       style="fill:none;fill-rule:evenodd;stroke:#000000;stroke-width:1px;stroke-linecap:butt;stroke-linejoin:miter;stroke-opacity:1"
       d="M 308,569 L 320,570 L 315,537 L 330,494.5 L 330,538 L 341,567 L 330,568"
       id="path29574"
       sodipodi:nodetypes="ccccccc" />
    <path
       style="fill:none;fill-rule:evenodd;stroke:#000000;stroke-width:1px;stroke-linecap:butt;stroke-linejoin:miter;stroke-opacity:1"
       d="M 330,494.5 L 328.5,482.5 L 326,448.5 L 318.5,470.5 L 306,490.5 L 297.5,491"
       id="path29576"
       sodipodi:nodetypes="cccccc" />
    <path
       style="fill:none;fill-rule:evenodd;stroke:#000000;stroke-width:1px;stroke-linecap:butt;stroke-linejoin:miter;stroke-opacity:1"
       d="M 327,448 L 343.5,468 L 344.5,488 L 351,494.5"
       id="path29578" />
    <path
       sodipodi:nodetypes="ccccccc"
       id="path29580"
       d="M 227,569 L 239,569 L 231.5,536 L 241,493.5 L 241.5,529.5 L 268.5,550 L 263.5,558.5"
       style="fill:none;fill-rule:evenodd;stroke:#000000;stroke-width:1px;stroke-linecap:butt;stroke-linejoin:miter;stroke-opacity:1" />
    <path
       sodipodi:nodetypes="cccccc"
       id="path29582"
       d="M 241,493.5 L 239.5,481.5 L 237,447.5 L 233,471.5 L 223.5,487.5 L 216,487.5"
       style="fill:none;fill-rule:evenodd;stroke:#000000;stroke-width:1px;stroke-linecap:butt;stroke-linejoin:miter;stroke-opacity:1" />
    <path
       id="path29584"
       d="M 238,447 L 254.5,467 L 255.5,487 L 262,493.5"
       style="fill:none;fill-rule:evenodd;stroke:#000000;stroke-width:1px;stroke-linecap:butt;stroke-linejoin:miter;stroke-opacity:1" />
    <path
       style="fill:none;fill-rule:evenodd;stroke:#000000;stroke-width:1px;stroke-linecap:butt;stroke-linejoin:miter;stroke-opacity:1"
       d="M 143.87711,570.3235 L 152.1821,570.16894 L 148.37895,534.55181 L 148.59384,494.03676 L 155.54939,529.36197 L 183.79133,531.68108 L 183.39873,541.94068"
       id="path29586"
       sodipodi:nodetypes="ccccccc"
       inkscape:transform-center-y="38.93013"
       inkscape:transform-center-x="-17.58514" />
    <path
       style="fill:none;fill-rule:evenodd;stroke:#000000;stroke-width:1px;stroke-linecap:butt;stroke-linejoin:miter;stroke-opacity:1"
       d="M 148.31902,493.52986 L 143.95338,482.25195 L 133.28181,449.87344 L 135.22209,474.12701 L 129.88631,491.95338 L 122.61024,493.77239"
       id="path29588"
       sodipodi:nodetypes="cccccc"
       inkscape:transform-center-x="11.03537"
       inkscape:transform-center-y="-22.677085" />
    <path
       style="fill:none;fill-rule:evenodd;stroke:#000000;stroke-width:1px;stroke-linecap:butt;stroke-linejoin:miter;stroke-opacity:1"
       d="M 134.13068,449.14584 L 154.98875,464.54685 L 160.8096,483.70716 L 168.69201,488.43661"
       id="path29590"
       inkscape:transform-center-x="-4.911345"
       inkscape:transform-center-y="-25.708775" />
    <path
       inkscape:transform-center-x="-17.58514"
       inkscape:transform-center-y="38.93013"
       sodipodi:nodetypes="ccccccc"
       id="path29592"
       d="M 47.87711,570.3235 L 56.1821,570.16894 L 52.37895,534.55181 L 52.59384,494.03676 L 32.04939,527.36197 L 59.79133,529.18108 L 66.89873,536.94068"
       style="fill:none;fill-rule:evenodd;stroke:#000000;stroke-width:1px;stroke-linecap:butt;stroke-linejoin:miter;stroke-opacity:1" />
    <path
       inkscape:transform-center-y="-22.677085"
       inkscape:transform-center-x="11.03537"
       sodipodi:nodetypes="cccccc"
       id="path29594"
       d="M 52.31902,493.52986 L 47.95338,482.25195 L 37.28181,449.87344 L 48.22209,475.12701 L 39.38631,485.45338 L 31.61024,486.27239"
       style="fill:none;fill-rule:evenodd;stroke:#000000;stroke-width:1px;stroke-linecap:butt;stroke-linejoin:miter;stroke-opacity:1" />
    <path
       inkscape:transform-center-y="-25.708775"
       inkscape:transform-center-x="-4.911345"
       id="path29596"
       d="M 38.13068,449.14584 L 50.98875,468.54685 L 56.8096,484.70716 L 50.69201,492.43661"
       style="fill:none;fill-rule:evenodd;stroke:#000000;stroke-width:1px;stroke-linecap:butt;stroke-linejoin:miter;stroke-opacity:1"
       sodipodi:nodetypes="cccc" />
    <path
       style="fill:#eeffaa;fill-opacity:1;stroke:#fff6d5;stroke-width:2;stroke-miterlimit:1;stroke-opacity:0"
       d="M 491.93661,150.49771 L 501.84969,150.91076 L 509.2845,150.23956 L 505.15405,172.85377 L 501.0236,184.98697 L 477.48004,202.48975 L 460.54519,209.66641 L 455.58865,220.14743 L 438.65381,226.08495 L 438.6538,214.51969 L 450.63211,204.45172 L 466.32782,194.79679 L 475.00176,185.55491 L 482.84962,180.03043 L 491.52356,170.3755 L 491.93661,150.49771 z "
       id="rect5103"
       sodipodi:nodetypes="cccccccccccccccc"
       inkscape:export-filename="/home/rover/herobot/arte/pre/hombre-1-02.png"
       inkscape:export-xdpi="24.024195"
       inkscape:export-ydpi="24.024195" />
    <path
       sodipodi:nodetypes="cccccccccccccc"
       id="path6081"
       d="M 482.60961,332.95122 L 490.50789,347.18559 L 489.6169,356.68986 L 481.61422,368.19072 L 472.51148,372.48637 L 469.12891,380.1591 L 473.27604,385.16422 L 500.73828,374.42232 L 520.58828,361.54639 L 516.88663,346.10747 L 506.7113,333.43515 L 502.13512,321.64284 L 484.90866,329.26062 L 482.60961,332.95122 z "
       style="fill:#000000;fill-opacity:1;fill-rule:evenodd;stroke:#000000;stroke-width:1px;stroke-linecap:butt;stroke-linejoin:miter;stroke-opacity:1;display:inline"
       inkscape:export-filename="/home/rover/herobot/arte/pre/hombre-1-02.png"
       inkscape:export-xdpi="24.024195"
       inkscape:export-ydpi="24.024195" />
    <path
       sodipodi:nodetypes="cccccccccccccccc"
       id="path5106"
       d="M 497.33158,210.00484 L 493.51656,232.36346 L 479.63458,286.48895 L 477.68814,297.03868 L 490.27283,305.0913 L 500.58226,320.59151 L 484.64798,333.39381 L 461.06409,307.68178 C 461.54791,303.52874 455.70343,299.93542 455.25196,295.25287 L 444.02702,335.79497 C 439.22119,351.20071 429.14185,336.17578 424.79709,333.88792 L 434.90954,261.89853 L 435.32405,225.35054 L 452.19298,223.4925 L 453.24962,217.20692 L 497.33158,210.00484 z "
       style="fill:#afdde9;fill-opacity:1;fill-rule:evenodd;stroke:#000000;stroke-width:1px;stroke-linecap:butt;stroke-linejoin:miter;stroke-opacity:0;display:inline"
       inkscape:export-filename="/home/rover/herobot/arte/pre/hombre-1-02.png"
       inkscape:export-xdpi="24.024195"
       inkscape:export-ydpi="24.024195" />
    <path
       sodipodi:nodetypes="ccccccccccccc"
       inkscape:transform-center-y="145.94209"
       inkscape:transform-center-x="76.165315"
       id="path6079"
       d="M 426.08875,336.47779 L 419.96149,353.52241 L 404.41422,360.33286 L 393.5367,358.77267 L 383.34071,361.77197 L 380.14682,369.91141 L 396.09494,374.59661 L 416.71884,381.13781 L 432.59306,384.5227 L 439.29138,370.8964 L 436.72918,354.05519 L 444.21336,339.07081 L 426.08875,336.47779 z "
       style="fill:#000000;fill-opacity:1;fill-rule:evenodd;stroke:#000000;stroke-width:1px;stroke-linecap:butt;stroke-linejoin:miter;stroke-opacity:1;display:inline"
       inkscape:export-filename="/home/rover/herobot/arte/pre/hombre-1-02.png"
       inkscape:export-xdpi="24.024195"
       inkscape:export-ydpi="24.024195" />
    <path
       style="fill:#000000"
       d="M 430.23929,384.64042 C 430.02948,384.43684 427.15781,383.99323 423.85781,383.65461 C 420.55781,383.31599 417.10335,382.95196 416.18123,382.84565 C 415.25911,382.73933 414.6825,382.36458 414.89987,382.01286 C 415.11724,381.66114 414.13384,380.84427 412.71453,380.19759 C 410.76534,379.30948 409.79435,379.30366 408.74589,380.17381 C 407.69521,381.0458 407.00386,381.03205 405.90161,380.11727 C 405.10071,379.45258 403.90618,379.24201 403.24711,379.64934 C 402.54337,380.08427 402.31009,379.96716 402.68188,379.36558 C 403.04971,378.77042 400.91474,377.60434 397.58639,376.58252 C 394.43567,375.61524 391.46547,374.46684 390.98595,374.03052 C 390.50643,373.5942 389.52543,373.4631 388.80595,373.7392 C 386.53591,374.61029 380.37149,371.0735 380.67649,369.07498 C 381.20236,365.62913 383.42014,364.26994 389.65313,363.57353 C 397.38595,362.70954 406.97373,360.55834 411.45083,358.6828 C 416.64738,356.50587 418.95278,353.27023 420.9641,345.33092 C 421.97428,341.34342 425.25583,332.99454 425.68401,332.99454 C 426.81543,332.99454 424.57992,338.80075 421.95147,347.0397 C 419.45784,354.85603 416.8937,357.89548 410.87001,360.17534 C 409.2133,360.80238 406.50781,361.89718 404.85781,362.60824 C 399.25998,365.02059 393.05128,366.246 389.65487,365.60883 C 385.26941,364.78611 382.35781,365.75053 382.35781,368.02586 C 382.35781,370.36273 384.5783,372.17764 387.5279,372.25162 C 388.80935,372.28376 390.75781,372.69266 391.85781,373.1603 C 398.66067,376.05235 406.25436,378.34747 408.71073,378.25392 C 410.27983,378.19417 413.26416,379.01282 415.34257,380.07315 C 417.42098,381.13347 421.98717,382.27703 425.48965,382.61438 L 431.85781,383.22776 L 434.7267,376.90434 C 438.21889,369.20708 438.83916,365.18358 437.58947,358.33467 C 436.69273,353.42013 436.84404,352.67489 439.98245,346.54847 C 443.77138,339.1522 444.02738,339.47872 433.85781,338.73647 C 430.00781,338.45547 426.02865,337.90388 425.01523,337.51072 C 422.85828,336.67393 424.60879,327.05414 429.10942,309.43434 C 434.19411,289.52797 432.68456,302.54447 427.7085,323.94888 C 425.40884,333.84083 425.37989,334.37882 427.07799,335.66707 C 428.99652,337.12254 429.06104,337.13475 437.52567,337.64328 C 444.16777,338.04231 446.25461,336.62513 444.32744,333.02417 C 443.57624,331.62055 443.54095,331.07607 444.22873,331.50114 C 444.85119,331.88585 445.5784,330.99472 445.96638,329.37182 C 446.33334,327.83682 447.11384,325.97359 447.70081,325.23131 C 448.28779,324.48902 448.66751,322.56231 448.54464,320.94974 C 448.42176,319.33717 448.79111,317.13982 449.3654,316.06674 C 450.39791,314.13748 451.90867,303.84072 452.75381,292.97259 C 452.99368,289.888 454.12044,284.35163 455.25773,280.66953 C 456.93199,275.24888 457.31953,271.36317 457.29405,260.25168 C 457.27675,252.70396 457.56068,244.66447 457.92499,242.38614 C 458.4661,239.00227 458.20953,237.83813 456.52388,236.0288 C 454.3514,233.69692 451.96826,228.07373 453.15983,228.09109 C 453.54372,228.09668 454.68355,230.00918 455.69279,232.34109 C 457.41562,236.32177 457.58217,236.44223 458.41758,234.31197 C 459.01651,232.78474 458.84524,230.98679 457.89369,228.81197 C 457.11615,227.03489 456.20463,224.28646 455.86808,222.70435 L 455.25617,219.82778 L 453.05699,221.79104 C 451.84744,222.87084 447.98736,224.7731 444.47904,226.01828 C 439.25727,227.87161 437.94503,228.03727 437.24436,226.93159 C 436.74599,226.14515 436.3557,231.84704 436.31007,240.58092 C 436.2041,260.86596 435.45626,274.7655 434.21176,279.58092 C 432.60133,285.81225 431.67639,293.99778 432.48883,294.82849 C 432.89357,295.24233 432.88695,297.15592 432.47412,299.08092 C 431.7575,302.42253 431.69178,302.30939 431.02171,296.58092 C 430.63571,293.28092 430.7574,288.55592 431.29214,286.08092 C 431.82688,283.60592 432.698,279.55592 433.22796,277.08092 C 434.63073,270.52979 434.88358,240.146 433.56222,236.91603 C 432.77023,234.98007 432.77971,233.20211 433.59687,230.41603 C 434.21553,228.30672 434.62404,226.19605 434.50467,225.72566 C 434.3853,225.25527 434.69138,224.35527 435.18484,223.72566 C 435.67829,223.09605 436.37766,221.34342 436.73897,219.83092 C 437.24064,217.73091 437.02945,217.08092 435.84548,217.08092 C 433.88874,217.08092 432.82035,214.45185 434.1132,212.81819 C 434.65173,212.13769 435.18424,207.99842 435.29654,203.6198 C 435.40884,199.24119 435.64893,195.41619 435.83007,195.1198 C 436.01121,194.82342 436.4466,188.50592 436.79761,181.08092 C 437.14862,173.65592 437.65611,166.84849 437.92536,165.95329 C 438.19461,165.0581 437.24393,159.8831 435.81274,154.45329 C 434.38155,149.02349 433.04394,141.20592 432.84028,137.08092 L 434.04853,125.19611 L 433.71789,136.80157 C 434.40423,140.77293 435.21902,144.27546 435.52853,144.58498 C 435.83805,144.89449 436.39872,142.83017 436.77448,139.99759 C 437.15023,137.16501 437.65704,135.04681 437.90071,135.29049 C 438.14439,135.53416 438.59112,142.28417 438.89346,150.2905 C 439.38033,163.18326 438.70906,180.42981 436.69281,206.83092 C 436.25186,212.60475 436.39716,215.08092 437.1769,215.08092 C 437.78968,215.08092 440.49378,213.12459 443.186,210.73351 C 445.87822,208.34244 450.53559,204.9817 453.5357,203.26521 C 456.53582,201.54872 459.86062,199.17107 460.92414,197.98155 C 462.51413,196.20319 475.29127,185.12591 488.1855,174.34701 C 490.67745,172.26387 490.89156,171.43699 491.35781,162.09515 C 491.63281,156.58528 491.52031,152.07804 491.10781,152.07906 C 490.69531,152.08008 490.35781,150.50592 490.35781,148.58092 C 490.35781,146.65592 490.80781,145.08092 491.35781,145.08092 C 491.90781,145.08092 492.35781,146.48906 492.35781,148.21013 L 492.35781,151.33934 L 499.39193,150.64622 C 503.2607,150.265 507.8234,149.46597 509.53128,148.8706 L 512.63651,147.78811 L 511.99439,138.74182 C 511.64122,133.76636 510.94648,129.44474 510.45053,129.13822 C 509.52226,128.56452 509.35781,128.05218 509.35781,125.73393 C 509.35781,123.5558 505.72237,119.99687 503.19432,119.70015 C 501.90924,119.54932 500.18281,119.17957 499.35781,118.87849 C 498.53281,118.5774 495.60781,117.87665 492.85781,117.32127 C 490.10781,116.76589 486.43043,115.8511 484.68584,115.28839 C 481.80652,114.35969 481.16298,114.57748 477.7105,117.64899 C 473.46465,121.42633 465.49832,123.66147 460.08778,122.59345 C 455.28227,121.64487 451.31952,119.9519 451.85951,119.07817 C 452.12146,118.65432 451.68642,117.76861 450.89274,117.10992 C 449.76288,116.17221 448.24733,116.26183 443.90958,117.52285 C 438.93759,118.96825 438.10793,119.6178 435.81902,123.85716 C 433.72679,127.73223 433.37858,128.04193 433.88091,125.58092 C 434.59268,122.09383 436.95192,118.14742 438.66608,117.57655 C 439.32153,117.35827 441.74985,116.69561 444.06234,116.104 C 449.90344,114.60963 454.35781,110.66731 454.35781,106.99203 C 454.35781,105.24785 453.82882,104.08093 453.03814,104.08093 C 451.27883,104.08093 448.07356,100.29565 446.68735,96.580926 C 444.64085,91.096758 443.51127,82.688051 443.53049,73.080926 C 443.54679,64.932453 443.9549,62.606219 446.39913,56.729626 L 449.24877,49.878326 C 437.91258,12.564248 445.48855,41.517134 453.20089,54.352646 C 455.30586,57.591291 455.87885,57.943064 457.25507,56.841584 C 461.00286,53.841974 465.59125,52.025705 473.39227,50.453832 C 484.37395,51.130272 481.84179,47.416887 490.11258,63.032021 L 489.53249,70.731474 L 488.84836,66.169374 C 488.07174,60.990465 486.00531,56.463427 484.13309,55.839353 C 483.43635,55.607107 482.86438,54.553951 482.86205,53.499006 C 482.85525,50.424355 471.11498,51.182418 463.3189,54.760897 C 460.0403,56.265808 457.35781,57.85346 457.35781,58.289013 C 457.35781,60.275544 454.6327,58.73675 452.43413,55.508746 C 449.64901,51.419548 449.42725,51.607491 446.19865,60.793436 C 444.8608,65.128663 442.91482,72.27545 446.44805,91.580926 C 448.66958,102.61374 454.74019,104.89824 466.81775,99.246466 C 474.93009,95.450248 478.88584,92.273011 478.85164,89.580926 C 478.83767,88.480926 479.20958,87.038138 479.67811,86.374731 C 480.14664,85.711324 480.28604,84.773824 479.98789,84.291398 C 479.68973,83.808972 480.00041,83.414259 480.67828,83.414259 C 481.35615,83.414259 481.89885,84.576759 481.88429,85.997593 C 481.85056,89.28858 485.69065,90.196052 487.25797,87.267477 C 488.07642,85.738184 487.85901,84.939491 486.22064,83.456793 C 485.0806,82.425066 483.89508,81.805926 483.58616,82.080926 C 483.27723,82.355926 482.81307,81.946719 482.55469,81.171576 C 482.23457,80.211215 482.59604,79.958368 483.68934,80.377903 C 485.70449,81.15119 486.53394,79.827626 487.09882,74.937307 C 487.56648,70.888685 487.01248,70.465616 481.87907,70.951221 C 480.40825,71.090357 480.19036,70.848372 481.03023,70.008502 C 482.77577,68.262967 487.99316,69.874197 491.03651,73.09863 C 507.11957,94.24448 503.4963,82.625317 487.69013,80.415271 C 487.39516,80.710247 487.87471,81.980819 488.75581,83.238765 C 491.02595,86.479837 490.74982,88.627413 487.76063,90.97871 C 485.34337,92.880122 485.20872,93.409239 485.81691,98.616188 C 486.17632,101.69318 486.7182,104.85652 487.02109,105.64582 C 487.32397,106.43513 487.07364,107.08093 486.4648,107.08093 C 485.85595,107.08093 485.29118,106.51843 485.20975,105.83093 C 485.12832,105.14343 484.96994,103.90593 484.85781,103.08093 C 484.74568,102.25593 484.5873,99.49591 484.50587,96.947557 C 484.38818,93.264542 483.95742,92.209485 482.40576,91.803715 C 479.5094,91.046301 479.43,92.958183 482.15531,97.83429 C 483.49274,100.22722 486.62307,105.93695 486.32481,106.23521 C 486.02655,106.53347 482.63814,101.585 481.5818,99.525984 L 479.66118,95.782313 L 479.01403,99.829322 C 478.20198,104.90762 479.09814,109.57433 481.22259,111.33029 C 483.01847,112.81467 494.60446,116.5107 500.75401,117.56097 C 509.59567,119.07104 512.7468,124.33515 513.74239,139.25874 C 514.35065,148.37625 514.27136,148.97358 512.37292,149.57612 C 511.26461,149.92789 510.34211,150.74787 510.32292,151.39831 C 510.30373,152.04874 509.6496,156.16428 508.86928,160.54395 C 508.08897,164.92362 507.65077,168.70721 507.8955,168.95194 C 508.14023,169.19667 507.9182,169.90569 507.40212,170.52753 C 506.88603,171.14938 506.34653,173.66579 506.20323,176.11954 C 505.97917,179.95627 505.29327,181.21098 501.30437,185.08092 L 496.66604,189.58092 L 497.81542,199.21572 C 498.44758,204.51486 498.71573,209.46486 498.41131,210.21572 C 497.78562,211.75897 497.93855,211.71773 489.83276,212.52883 C 484.44665,213.06778 473.0708,214.49742 464.70631,215.68656 L 461.5548,216.13459 L 461.00768,224.85776 C 460.70675,229.6555 460.01054,236.73092 459.46053,240.58092 C 458.91052,244.43092 458.4374,254.01915 458.40916,261.8881 C 458.36049,275.44944 457.38216,283.42909 455.29148,287.31735 C 453.84551,290.00655 454.1823,294.3163 456.1356,298.11948 C 457.9637,301.67888 459.29522,303.45942 465.39353,310.49929 C 467.33818,312.74419 470.2554,316.38092 471.87625,318.58092 C 473.4971,320.78092 476.06853,323.80325 477.59053,325.29722 C 479.11254,326.79118 480.35781,328.37043 480.35781,328.80667 C 480.35781,329.24291 481.28215,330.17709 482.41191,330.88263 C 484.23015,332.01814 485.32095,331.62385 491.91191,327.44864 C 496.73124,324.39571 499.35781,322.08791 499.35781,320.90638 C 499.35781,319.90238 498.93236,319.08092 498.41238,319.08092 C 497.89239,319.08092 496.87989,318.01862 496.16238,316.72026 C 491.294,307.91077 485.90163,302.20063 478.54756,298.06741 C 476.06129,296.67005 474.72456,295.28876 475.04654,294.4497 C 475.333,293.70319 475.97023,293.34138 476.46259,293.64568 C 478.38806,294.83568 477.22092,291.41285 474.81734,288.8207 C 472.39009,286.20302 472.68109,284.8042 475.14114,287.26425 C 475.79198,287.91509 476.48252,288.25259 476.67569,288.01425 C 477.37987,287.14544 483.24202,271.44547 484.67859,266.58092 C 487.39488,257.38301 494.94538,224.15778 496.09801,216.33092 C 496.36125,214.54342 497.59934,209.74847 497.99184,209.74847 C 499.82286,209.74847 487.10792,266.93675 483.34869,275.58092 C 482.87032,276.68092 481.49296,280.38907 480.2879,283.82125 C 478.43309,289.104 478.30292,290.30986 479.4396,291.67947 C 480.57953,293.053 480.51859,293.49019 479.0361,294.57421 C 477.45847,295.7278 477.73051,296.10929 481.85399,298.52581 C 484.36424,299.99692 488.6956,304.09863 491.47923,307.64074 C 494.26286,311.18284 496.9493,314.08092 497.44909,314.08092 C 497.94889,314.08092 498.35781,314.77004 498.35781,315.6123 C 498.35781,316.45457 499.06629,317.41556 499.9322,317.74784 C 501.00072,318.15787 501.32085,319.09203 500.92853,320.65517 C 500.6106,321.92192 500.80855,323.24146 501.36843,323.58748 C 502.36447,324.20307 506.35781,331.41648 506.35781,332.6001 C 506.35781,332.92947 505.87718,332.90191 505.28974,332.53885 C 503.8114,331.62519 508.86596,341.41411 512.90269,347.28248 C 515.51157,351.07513 520.35781,361.61314 520.35781,363.49343 C 520.35781,363.67905 519.05285,364.09191 517.45791,364.4109 C 515.86296,364.72989 513.27546,366.14143 511.70791,367.54766 C 510.14035,368.95388 507.61798,371.21908 506.10263,372.58142 C 503.06192,375.31511 497.22559,378.0411 493.35781,378.53417 C 491.98281,378.70946 490.85781,378.93862 490.85781,379.04341 C 490.85781,379.1482 490.18281,379.38167 489.35781,379.56223 C 488.53281,379.74279 486.50781,380.2025 484.85781,380.58381 C 478.07987,382.15017 470.1322,382.33321 469.25155,380.94322 C 467.62479,378.3756 468.30198,375.42739 470.7776,374.29942 C 475.34657,372.21766 487.57072,359.73969 489.54257,355.14482 C 491.15173,351.39508 491.25928,350.23467 490.23768,347.64482 C 487.95673,341.86239 482.11989,333.11091 480.97855,333.76211 C 480.36214,334.11381 480.17942,334.04531 480.5725,333.60988 C 481.34818,332.75064 479.99418,330.52271 475.38912,325.08092 C 466.14686,314.15937 456.56968,302.3209 455.56893,300.58092 C 454.47302,298.67549 454.41581,298.69914 454.3591,301.08092 C 454.32636,302.45592 453.36636,306.73092 452.22577,310.58092 C 451.08517,314.43092 450.19602,319.01825 450.24989,320.77499 C 450.30375,322.53173 449.90006,324.24579 449.35281,324.58401 C 448.80556,324.92223 448.35781,326.27084 448.35781,327.58092 C 448.35781,328.891 447.88124,330.25742 447.29876,330.61741 C 446.71628,330.97741 446.36308,332.24146 446.51387,333.42643 C 446.66465,334.6114 444.93001,339.46337 442.65909,344.20858 C 438.63717,352.61263 438.54422,353.0413 439.0725,360.74884 C 439.55944,367.85305 439.3463,369.2291 436.98633,374.21767 C 435.54064,377.2736 434.35781,380.50215 434.35781,381.39223 C 434.35781,382.89605 431.09425,385.46995 430.23929,384.64042 z M 488.36279,378.27978 C 498.02899,376.15163 504.00854,373.61306 505.68744,370.92471 C 506.32075,369.91062 507.25541,369.08092 507.76447,369.08092 C 508.27353,369.08092 509.40278,368.41289 510.27392,367.5964 C 511.14506,366.77992 513.2017,365.02414 514.84423,363.69467 C 517.772,361.32492 517.80337,361.20187 516.44148,357.42918 C 515.67743,355.31264 512.9717,350.20592 510.42875,346.08092 C 505.61382,338.27049 503.33102,333.82684 501.31018,328.33092 C 500.65293,326.54342 499.60726,325.08395 498.98649,325.08766 C 496.78386,325.10081 484.4262,333.74916 485.29911,334.6666 C 487.53733,337.01899 492.35546,347.41761 492.33585,349.85346 C 492.29555,354.85797 488.74022,360.5396 481.39118,367.34368 C 477.38892,371.04916 473.69256,374.08092 473.17706,374.08092 C 472.66155,374.08092 472.48649,374.48011 472.78803,374.96802 C 473.08957,375.45592 472.69248,375.79342 471.90561,375.71802 C 471.11873,375.64261 470.44858,375.91842 470.41637,376.33092 C 470.17681,379.39916 470.64566,379.98874 473.60781,380.34412 C 477.22836,380.77849 476.63871,380.86099 488.36279,378.27978 z M 460.23949,219.2576 C 460.33452,216.58839 460.01336,216.00598 458.60781,216.29858 C 456.7836,216.67834 456.67645,218.24808 458.00834,225.08092 L 458.69057,228.58092 L 459.40588,225.58092 C 459.79929,223.93092 460.17442,221.08542 460.23949,219.2576 z M 444.98569,224.5361 C 452.09154,221.70114 453.15363,220.87206 455.72009,216.15662 C 459.13026,209.89101 460.16195,209.09169 472.35781,203.2661 C 478.31207,200.42193 485.45538,196.05615 488.85781,193.18179 C 492.15781,190.39396 496.56246,186.96431 498.64593,185.56036 C 500.72939,184.1564 502.82378,182.01168 503.30011,180.79431 C 504.19212,178.5146 506.85001,164.3517 508.01425,155.67445 L 508.67255,150.76797 L 505.39018,151.42445 C 503.58488,151.78551 500.13906,152.08092 497.73281,152.08092 L 493.35781,152.08092 L 493.35781,157.94135 C 493.35781,171.69937 493.54392,171.36528 479.0744,183.58092 C 471.90812,189.63092 463.68904,196.60592 460.80978,199.08092 C 457.93052,201.55592 453.47404,204.81786 450.9065,206.32967 C 448.00563,208.03774 446.50866,209.51599 446.95253,210.23418 C 447.41943,210.98964 447.22528,211.11704 446.39194,210.60202 C 444.42515,209.38647 438.35781,216.54234 438.35781,220.07755 C 438.35781,221.66449 438.81515,223.24554 439.37412,223.591 C 439.93309,223.93646 440.13154,224.63802 439.8151,225.15002 C 438.98801,226.48828 440.56047,226.30158 444.98569,224.5361 z M 475.85781,213.0043 C 480.25781,212.43408 486.95521,211.49228 490.74093,210.91142 L 497.62404,209.85531 L 496.99959,203.13641 C 496.65613,199.44102 496.09548,195.01928 495.75369,193.31031 L 495.13225,190.20311 L 487.99503,195.4969 C 484.06956,198.40848 476.80781,202.70744 471.85781,205.05013 C 462.92584,209.27738 458.00659,212.70362 458.86804,214.09747 C 459.35273,214.88172 463.36143,214.62379 475.85781,213.0043 z M 437.35781,150.08092 C 437.35781,148.43092 436.98575,147.08092 436.531,147.08092 C 436.07626,147.08092 435.90233,148.43092 436.1445,150.08092 C 436.38667,151.73092 436.75873,153.08092 436.97131,153.08092 C 437.18388,153.08092 437.35781,151.73092 437.35781,150.08092 z M 471.28335,119.85562 C 473.16739,119.2805 476.20354,117.44984 478.03035,115.78749 C 481.2679,112.84139 481.30136,112.72969 479.35481,111.36627 C 477.65833,110.17801 477.35781,108.83012 477.35781,102.40921 L 477.35781,94.850906 L 474.60781,96.665678 C 469.93085,99.752082 462.13952,103.24209 458.66881,103.80531 C 455.64254,104.29641 455.35781,104.6483 455.35781,107.89732 C 455.35781,110.11783 454.57949,112.28051 453.28411,113.65937 L 451.21042,115.86672 L 454.53411,118.38337 C 459.4202,122.08305 462.96558,122.39469 471.28335,119.85562 z M 487.80017,90.174185 C 488.10839,89.675477 487.45995,89.502961 486.35919,89.790816 C 484.0242,90.401429 483.72904,91.080926 485.79879,91.080926 C 486.59133,91.080926 487.49195,90.672892 487.80017,90.174185 z M 493.84678,78.194865 L 489.88846,73.004371 L 489.1562,75.742382 C 488.75346,77.248288 488.5775,78.633945 488.76517,78.82162 C 500.68123,86.722488 503.64087,90.872624 493.84678,78.194865 z M 490.35781,64.343463 L 490.35781,66.545528 C 490.35781,67.756663 490.65781,69.047593 491.02448,69.414259 L 490.35781,64.343463 z M 465.10781,73.3916 C 462.27285,72.650747 463.10375,70.381738 466.45549,69.71139 C 469.17792,69.166903 474.35781,69.754324 474.35781,70.607547 C 474.35781,73.697807 470.6035,74.827774 465.10781,73.3916 z M 463.86311,47.908959 C 464.37353,9.7162963 467.17883,22.601153 464.49971,49.339028 C 456.05956,43.870754 447.97593,38.369186 463.86311,47.908959 z "
       id="path3532"
       sodipodi:nodetypes="cssssssssssssssssssssssssscccssssssssssssssssssssssscccssssssssssssssssssssscccssssssssssssssccccccssssssssssssssssssscccsccccsssssccssssssssssssssccssssssssssscccssssssssscccsscccsssssssssssssssssssssssssssssssssssssssssssssssssssssssssssssssccssssssssssssssssccscccccsssssccccccssssssssccccccccssccsssccsscccsscccccsscccccccccccsscccc"
       inkscape:export-filename="/home/rover/herobot/arte/pre/hombre-1-02.png"
       inkscape:export-xdpi="24.024195"
       inkscape:export-ydpi="24.024195" />
    <path
       sodipodi:nodetypes="cccccccccccccccccccccccc"
       id="path3563"
       d="M 450.07322,49.440312 L 440.17373,27.696773 L 463.50825,49.086752 L 461.56371,21.156036 L 476.58973,45.904772 L 501.51524,28.227103 L 488.08021,53.682952 L 515.65738,46.965432 L 491.79252,62.345002 L 516.89481,69.769632 L 494.09062,73.835492 L 505.22755,92.573825 L 488.43376,86.033082 L 485.25178,107.24628 L 475.88262,94.695145 L 478.37959,87.392052 L 486.17986,83.094172 L 489.91427,75.791092 L 489.22926,62.477592 L 481.18592,51.296462 L 471.02126,51.959382 L 455.73008,58.455922 L 450.60355,51.031302 L 450.07322,49.440312 z "
       style="fill:url(#linearGradient3565);fill-opacity:1;fill-rule:evenodd;stroke:#000000;stroke-width:1px;stroke-linecap:butt;stroke-linejoin:miter;stroke-opacity:1;display:inline"
       inkscape:export-filename="/home/rover/herobot/arte/pre/hombre-1-02.png"
       inkscape:export-xdpi="24.024195"
       inkscape:export-ydpi="24.024195" />
    <path
       id="path3581"
       d="M 463.63649,70.515076 C 463.95695,70.504606 464.73308,70.320336 465.22748,70.073136 C 465.81873,69.777506 466.15758,69.409816 466.81847,69.277646 C 467.27818,69.185696 467.62869,69.100866 468.14429,69.100866 C 468.63202,69.100866 469.02853,69.167246 469.47012,69.277646 C 469.93749,69.394486 470.35267,69.520376 470.79594,69.631196 C 471.30893,69.759446 471.81063,69.951156 472.29854,70.073136 C 472.71745,70.177866 473.22779,70.062386 473.62437,70.161526 C 473.99318,70.253726 474.9806,70.057936 474.24309,70.426686 C 473.80042,70.648026 473.31186,71.269526 473.00565,71.575736 C 472.64312,71.938276 471.96228,71.991266 471.50305,72.106066 C 470.96486,72.240616 470.46651,72.321006 469.91206,72.459626 C 469.38143,72.592276 468.88695,72.636396 468.32107,72.636396 C 467.84966,72.636396 467.37826,72.636396 466.90685,72.636396 C 466.38914,72.636396 465.48804,72.147966 465.0507,71.929296 C 464.55481,71.681346 464.09911,71.303996 463.63649,70.957016 C 463.51863,70.868636 463.63649,70.662396 463.63649,70.515076 z "
       style="fill:#000000;fill-opacity:1;fill-rule:evenodd;stroke:#000000;stroke-width:1px;stroke-linecap:butt;stroke-linejoin:miter;stroke-opacity:1;display:inline"
       inkscape:export-filename="/home/rover/herobot/arte/pre/hombre-1-02.png"
       inkscape:export-xdpi="24.024195"
       inkscape:export-ydpi="24.024195" />
    <path
       id="path3583"
       d="M 467.87913,68.747316 C 467.87166,68.741706 468.0559,67.718786 468.0559,67.333096 C 468.0559,66.773586 468.19608,66.330456 468.32107,65.830496 C 468.43714,65.366216 468.39012,64.847186 468.49784,64.416286 C 468.70709,63.579286 468.57603,62.990156 468.8514,64.504676 C 468.95337,65.065526 468.98664,65.664356 469.11656,66.184046 C 469.23495,66.657576 469.37342,67.026376 469.47012,67.509876 C 469.56996,68.009086 469.5585,68.497406 469.5585,69.012476 C 469.5585,69.460386 469.58486,68.907066 469.47012,69.366026"
       style="fill:#000000;fill-opacity:1;fill-rule:evenodd;stroke:#000000;stroke-width:1px;stroke-linecap:butt;stroke-linejoin:miter;stroke-opacity:1;display:inline"
       inkscape:export-filename="/home/rover/herobot/arte/pre/hombre-1-02.png"
       inkscape:export-xdpi="24.024195"
       inkscape:export-ydpi="24.024195" />
    <path
       id="path3585"
       d="M 467.61396,72.989956 C 467.61396,73.483836 467.93612,73.925026 468.0559,74.404166 C 468.17187,74.868056 468.14163,75.363146 468.23268,75.818376 C 468.3179,76.244466 468.32107,76.676216 468.32107,77.144206 C 468.32107,77.474376 468.33803,77.742396 468.40946,78.028086 C 468.40946,79.939336 468.56379,76.173326 468.76301,75.376436 C 468.7773,75.319276 468.76301,75.258586 468.76301,75.199666 C 468.76301,74.653936 468.98364,74.051306 469.20495,73.608666 C 469.40649,73.205596 469.64689,72.819536 469.64689,72.459626"
       style="fill:#000000;fill-opacity:1;fill-rule:evenodd;stroke:#000000;stroke-width:1px;stroke-linecap:butt;stroke-linejoin:miter;stroke-opacity:1;display:inline"
       inkscape:export-filename="/home/rover/herobot/arte/pre/hombre-1-02.png"
       inkscape:export-xdpi="24.024195"
       inkscape:export-ydpi="24.024195" />
    <path
       id="path3587"
       d="M 446.48915,70.780246 C 446.4899,70.778736 447.53052,70.419056 447.99175,70.073136 C 448.5948,69.620846 449.02761,69.195456 449.75951,69.012476 C 450.17557,68.908466 450.74218,69.012476 451.17373,69.012476 C 451.57924,69.012476 452.06077,68.924086 452.49955,68.924086 C 452.88226,68.924086 453.46385,69.187256 453.82538,69.277646 C 454.449,69.433546 454.97683,69.853966 455.50476,70.249916 C 455.99063,70.614316 457.08579,70.672246 456.30025,70.868636 C 455.82583,70.987236 455.39194,71.121006 454.88604,71.222186 C 454.41577,71.316236 453.92998,71.651966 453.56021,71.929296 C 453.10148,72.273346 452.43669,72.409046 451.88084,72.548006 C 451.38508,72.671946 450.81383,72.636396 450.28985,72.636396 C 449.74705,72.636396 449.3777,72.408366 448.87563,72.282846 C 448.26557,72.130326 447.65305,71.494776 447.10786,71.222186 C 446.76235,71.049426 446.98253,71.174956 446.48915,70.780246 z "
       style="fill:#000000;fill-opacity:1;fill-rule:evenodd;stroke:#000000;stroke-width:1px;stroke-linecap:butt;stroke-linejoin:miter;stroke-opacity:1;display:inline"
       inkscape:export-filename="/home/rover/herobot/arte/pre/hombre-1-02.png"
       inkscape:export-xdpi="24.024195"
       inkscape:export-ydpi="24.024195" />
    <path
       id="path3589"
       d="M 454.00216,69.012476 C 453.40065,68.711726 455.1175,68.203306 455.76992,68.040206 C 456.59252,67.834556 457.64908,67.227456 458.33318,66.714376 C 459.48143,65.853196 458.27941,67.121706 457.89124,67.509876 C 457.41052,67.990596 456.92449,68.433816 456.38864,68.835696 C 456.10036,69.051906 455.84874,69.375596 455.59315,69.631196"
       style="fill:#000000;fill-opacity:1;fill-rule:evenodd;stroke:#000000;stroke-width:1px;stroke-linecap:butt;stroke-linejoin:miter;stroke-opacity:1;display:inline"
       inkscape:export-filename="/home/rover/herobot/arte/pre/hombre-1-02.png"
       inkscape:export-xdpi="24.024195"
       inkscape:export-ydpi="24.024195" />
    <path
       id="path3591"
       d="M 447.99175,70.073136 C 447.49175,70.448136 447.87817,68.823316 447.72658,68.216986 C 447.60053,67.712776 447.32584,67.238716 447.10786,66.802766 C 446.76031,66.107666 446.66458,65.825126 446.48915,65.123386 C 446.31859,64.441156 447.10743,66.272006 447.81497,66.979546 C 448.27731,67.441886 448.54699,68.456446 448.96402,69.012476 C 449.05638,69.135616 449.20606,69.254516 449.31757,69.366026"
       style="fill:#000000;fill-opacity:1;fill-rule:evenodd;stroke:#000000;stroke-width:1px;stroke-linecap:butt;stroke-linejoin:miter;stroke-opacity:1;display:inline"
       inkscape:export-filename="/home/rover/herobot/arte/pre/hombre-1-02.png"
       inkscape:export-xdpi="24.024195"
       inkscape:export-ydpi="24.024195" />
    <path
       id="path3593"
       d="M 448.78724,72.636396 C 449.15889,73.131936 448.14198,73.714856 447.99175,74.315776 C 447.87324,74.789826 447.81497,75.231166 447.81497,75.729996 C 447.81497,76.026086 447.83155,76.326616 447.90336,76.613876 C 448.05728,77.229576 448.1617,75.294876 448.61047,74.846106 C 449.03256,74.424016 449.43719,74.107766 449.8479,73.697056 C 450.05534,73.489626 450.16984,73.229956 450.28985,72.989956"
       style="fill:#000000;fill-opacity:1;fill-rule:evenodd;stroke:#000000;stroke-width:1px;stroke-linecap:butt;stroke-linejoin:miter;stroke-opacity:1;display:inline"
       inkscape:export-filename="/home/rover/herobot/arte/pre/hombre-1-02.png"
       inkscape:export-xdpi="24.024195"
       inkscape:export-ydpi="24.024195" />
    <path
       id="path3595"
       d="M 452.9415,72.282846 C 453.01445,72.209886 454.01877,73.094946 454.35571,73.431896 C 454.79091,73.867086 455.16382,74.391526 455.50476,74.846106 C 455.69794,75.103686 456.42714,76.387206 455.85831,75.818376 C 455.52626,75.486336 455.52731,74.582746 455.41637,74.139006 C 455.29443,73.651246 455.35974,73.116996 455.23959,72.636396 C 455.12891,72.193656 454.88277,71.838456 454.53249,71.575736"
       style="fill:#000000;fill-opacity:1;fill-rule:evenodd;stroke:#000000;stroke-width:1px;stroke-linecap:butt;stroke-linejoin:miter;stroke-opacity:1;display:inline"
       inkscape:export-filename="/home/rover/herobot/arte/pre/hombre-1-02.png"
       inkscape:export-xdpi="24.024195"
       inkscape:export-ydpi="24.024195" />
    <path
       id="path3597"
       d="M 458.28354,87.315427 C 458.28136,87.313257 457.02374,87.204887 456.69255,87.138647 C 456.18456,87.03705 455.74985,86.4907 455.5435,86.07799 C 455.30731,85.60561 455.32246,85.0172 455.10156,84.57539 C 454.64072,83.65372 455.05549,84.56293 455.5435,84.92894 C 456.0447,85.30484 456.55007,85.29965 457.0461,85.54766 C 457.63853,85.84388 457.73896,86.11793 458.10676,86.60832 C 458.1584,86.67718 458.26912,87.257747 458.28354,87.315427 z "
       style="fill:#000000;fill-opacity:1;fill-rule:evenodd;stroke:#000000;stroke-width:1px;stroke-linecap:butt;stroke-linejoin:miter;stroke-opacity:1;display:inline"
       inkscape:export-filename="/home/rover/herobot/arte/pre/hombre-1-02.png"
       inkscape:export-xdpi="24.024195"
       inkscape:export-ydpi="24.024195" />
    <path
       id="path3599"
       d="M 461.46552,86.87349 C 461.81373,87.337767 461.76225,85.69287 462.17262,85.2825 C 462.67859,84.77653 462.83309,84.47656 463.49845,84.31022 C 463.91462,84.20618 464.31523,84.57965 464.73589,84.66378 C 464.77053,84.67071 463.84137,85.39214 463.32167,86.43155 C 463.00555,87.06379 462.44663,87.227037 461.81907,87.227037 C 461.6524,87.227037 461.58337,86.99134 461.46552,86.87349 z "
       style="fill:#000000;fill-opacity:1;fill-rule:evenodd;stroke:#000000;stroke-width:1px;stroke-linecap:butt;stroke-linejoin:miter;stroke-opacity:1;display:inline"
       inkscape:export-filename="/home/rover/herobot/arte/pre/hombre-1-02.png"
       inkscape:export-xdpi="24.024195"
       inkscape:export-ydpi="24.024195" />
    <path
       id="path3601"
       d="M 449.94375,90.795921 C 449.41543,90.584591 450.98271,91.276631 451.53474,91.414641 C 452.10925,91.558261 452.59326,91.750081 453.12573,91.856581 C 453.56872,91.945181 454.03558,91.840971 454.45155,91.944971 C 454.98546,92.078441 455.59118,91.817091 456.04254,91.591411 C 456.61909,91.303141 457.1202,91.052591 457.63353,90.795921 C 457.99785,90.613761 458.71166,90.888671 459.04775,90.972691 C 459.49219,91.083801 459.93174,91.171541 460.37357,91.061081 C 460.83869,90.944801 461.25356,90.818991 461.6994,90.707531 C 462.27452,90.563751 462.68393,90.719781 463.11361,91.149471 C 463.51073,91.546591 463.9792,91.768191 464.52783,91.768191 C 464.98542,91.768191 465.37301,91.856581 465.85365,91.856581 C 466.39896,91.856581 466.77542,91.802911 467.26786,91.679801 C 467.83445,91.538151 468.2739,91.220981 468.77047,90.972691 C 469.33341,90.691221 469.78571,90.532381 470.18468,90.000421 C 470.46972,89.620361 470.96123,89.408541 471.42212,89.293321 C 471.98947,89.151481 470.53461,90.096061 470.27307,90.619141 C 470.00879,91.147691 469.65741,91.499961 469.21241,91.944971 C 468.86863,92.288751 468.22284,92.545911 467.79819,92.652071 C 467.09746,92.827261 466.30511,93.160921 465.58849,93.447571 C 465.09913,93.643311 464.56532,93.769651 464.08588,93.889511 C 463.58796,94.013991 463.06262,94.034841 462.58328,94.154671 C 461.99295,94.302261 461.43171,94.419841 460.81551,94.419841 C 460.23451,94.419841 459.57376,94.508231 458.95936,94.508231 C 458.31118,94.508231 457.663,94.508231 457.01482,94.508231 C 456.47676,94.508231 455.93196,94.546871 455.42383,94.419841 C 454.95403,94.302391 454.44292,94.106161 454.00961,93.889511 C 453.89176,93.830581 453.77391,93.771661 453.65606,93.712731 C 453.00237,93.385891 452.33222,93.139201 451.71152,92.828851 C 451.17461,92.560401 450.53011,91.647451 450.12052,91.237861 C 450.00833,91.125671 450.00267,90.943231 449.94375,90.795921 z "
       style="fill:#000000;fill-opacity:1;fill-rule:evenodd;stroke:#000000;stroke-width:1px;stroke-linecap:butt;stroke-linejoin:miter;stroke-opacity:1;display:inline"
       inkscape:export-filename="/home/rover/herobot/arte/pre/hombre-1-02.png"
       inkscape:export-xdpi="24.024195"
       inkscape:export-ydpi="24.024195" />
  </g>
</svg>
