<?xml version="1.0" encoding="UTF-8" standalone="no"?>
<!-- Created with Inkscape (http://www.inkscape.org/) -->
<svg
   xmlns:dc="http://purl.org/dc/elements/1.1/"
   xmlns:cc="http://web.resource.org/cc/"
   xmlns:rdf="http://www.w3.org/1999/02/22-rdf-syntax-ns#"
   xmlns:svg="http://www.w3.org/2000/svg"
   xmlns="http://www.w3.org/2000/svg"
   xmlns:xlink="http://www.w3.org/1999/xlink"
   xmlns:sodipodi="http://sodipodi.sourceforge.net/DTD/sodipodi-0.dtd"
   xmlns:inkscape="http://www.inkscape.org/namespaces/inkscape"
   width="1024px"
   height="768px"
   id="svg2160"
   sodipodi:version="0.32"
   inkscape:version="0.45.1"
   sodipodi:docbase="/home/quimera/Desktop/menttes refactoring"
   sodipodi:docname="m1.svg"
   inkscape:output_extension="org.inkscape.output.svg.inkscape">
  <defs
     id="defs2162">
    <linearGradient
       id="linearGradient16829">
      <stop
         style="stop-color:#ff2400;stop-opacity:1;"
         offset="0"
         id="stop16831" />
      <stop
         style="stop-color:#60ff00;stop-opacity:1;"
         offset="1"
         id="stop16833" />
    </linearGradient>
    <linearGradient
       inkscape:collect="always"
       xlink:href="#linearGradient16829"
       id="linearGradient16860"
       gradientUnits="userSpaceOnUse"
       x1="270.49866"
       y1="131.33873"
       x2="290.06024"
       y2="125.15155"
       gradientTransform="translate(-170,-82)" />
    <linearGradient
       inkscape:collect="always"
       xlink:href="#linearGradient16829"
       id="linearGradient29522"
       gradientUnits="userSpaceOnUse"
       gradientTransform="translate(-170,-82)"
       x1="270.49866"
       y1="131.33873"
       x2="290.06024"
       y2="125.15155" />
    <linearGradient
       inkscape:collect="always"
       xlink:href="#linearGradient16829"
       id="linearGradient29570"
       gradientUnits="userSpaceOnUse"
       gradientTransform="translate(-170,-82)"
       x1="270.49866"
       y1="131.33873"
       x2="290.06024"
       y2="125.15155" />
  </defs>
  <sodipodi:namedview
     id="base"
     pagecolor="#ffffff"
     bordercolor="#666666"
     borderopacity="1.0"
     inkscape:pageopacity="0.0"
     inkscape:pageshadow="2"
     inkscape:zoom="0.5"
     inkscape:cx="754.202"
     inkscape:cy="126.84826"
     inkscape:current-layer="layer2"
     inkscape:document-units="px"
     inkscape:window-width="1680"
     inkscape:window-height="936"
     inkscape:window-x="0"
     inkscape:window-y="50" />
  <metadata
     id="metadata2165">
    <rdf:RDF>
      <cc:Work
         rdf:about="">
        <dc:format>image/svg+xml</dc:format>
        <dc:type
           rdf:resource="http://purl.org/dc/dcmitype/StillImage" />
      </cc:Work>
    </rdf:RDF>
  </metadata>
  <g
     id="layer1"
     inkscape:label="Layer 1"
     inkscape:groupmode="layer"
     sodipodi:insensitive="true"
     style="display:none">
    <image
       y="81.525246"
       x="169.9579"
       id="image2226"
       height="383"
       width="189"
       sodipodi:absref="/home/quimera/Desktop/pyweek/personajes/m1.png"
       xlink:href="/home/quimera/Desktop/pyweek/personajes/m1.png"
       inkscape:transform-center-y="15.556349" />
  </g>
  <g
     inkscape:groupmode="layer"
     id="layer2"
     inkscape:label="dibujo"
     style="display:inline">
    <g
       id="g29498"
       transform="translate(-18,6)">
      <path
         sodipodi:nodetypes="cccccccccccccccc"
         id="rect2235"
         d="M 69.0481,102.6967 C 72.8363,100.25021 77.50838,98.86439 84.125,96.94823 C 95.08333,110.82323 108.09192,107.53186 116.02512,95.34099 L 140.67461,101.52944 C 144.7773,103.92188 146.40512,104.90011 150.33104,109.23709 C 151.72316,113.10267 153.11527,116.43791 153.44673,120.30349 L 153.20367,132.43056 C 146.18416,134.71705 141.1092,135.76611 134.08969,141.23458 C 131.59271,148.63569 130.33318,154.44581 129.78075,162.90758 C 129.99436,171.66398 130.91507,179.89005 133.07322,188.64645 L 68.57322,188.64645 L 73.46491,131.27334 L 70.22487,137.71663 C 64.84329,136.62348 60.3456,134.82323 57.26212,127.5429 L 62.80155,109.8165 C 64.3534,106.38257 65.5517,104.36286 69.0481,102.6967 z "
         style="opacity:1;fill:#d80000;fill-opacity:1;stroke:#000000;stroke-width:1;stroke-linecap:butt;stroke-linejoin:miter;stroke-miterlimit:4;stroke-dasharray:none;stroke-opacity:1" />
      <path
         sodipodi:nodetypes="ccccccccccccccccc"
         id="rect6121"
         d="M 79.75,40 C 81.41667,36.16667 82.83333,34.70833 85.875,31.875 L 91,40 L 98.0625,36.75 L 106.625,33.40625 L 116.75,32.8125 L 121.125,38.78125 L 124.375,43.6875 L 124.875,56.5625 L 121.375,63.6875 L 113.8125,68 L 111.125,75.3125 L 96.375,85.5 L 86.625,85.625 C 84.47917,83.23958 82.20833,81.22917 81.1875,77.96875 C 79.54167,73.95833 80.39583,69.44792 79.375,66.1875 C 78.625,58 77.75,51.1875 79.75,40 z "
         style="opacity:1;fill:#eeeeee;fill-opacity:1;stroke:#000000;stroke-width:1;stroke-linecap:butt;stroke-linejoin:miter;stroke-miterlimit:4;stroke-opacity:1" />
      <path
         id="path10977"
         d="M 97.19798,54.02331 C 97.51844,54.01284 98.29457,53.82857 98.78897,53.58137 C 99.38022,53.28574 99.71907,52.91805 100.37996,52.78588 C 100.83967,52.69393 101.19018,52.6091 101.70578,52.6091 C 102.19351,52.6091 102.59002,52.67548 103.03161,52.78588 C 103.49898,52.90272 103.91416,53.02861 104.35743,53.13943 C 104.87042,53.26768 105.37212,53.45939 105.86003,53.58137 C 106.27894,53.6861 106.78928,53.57062 107.18586,53.66976 C 107.55467,53.76196 108.54209,53.56617 107.80458,53.93492 C 107.36191,54.15626 106.87335,54.77776 106.56714,55.08397 C 106.20461,55.44651 105.52377,55.4995 105.06454,55.6143 C 104.52635,55.74885 104.028,55.82924 103.47355,55.96786 C 102.94292,56.10051 102.44844,56.14463 101.88256,56.14463 C 101.41115,56.14463 100.93975,56.14463 100.46834,56.14463 C 99.95063,56.14463 99.04953,55.6562 98.61219,55.43753 C 98.1163,55.18958 97.6606,54.81223 97.19798,54.46525 C 97.08012,54.37687 97.19798,54.17063 97.19798,54.02331 z "
         style="fill:#000000;fill-opacity:1;fill-rule:evenodd;stroke:#000000;stroke-width:1px;stroke-linecap:butt;stroke-linejoin:miter;stroke-opacity:1" />
      <path
         id="path10979"
         d="M 101.44062,52.25555 C 101.43315,52.24994 101.61739,51.22702 101.61739,50.84133 C 101.61739,50.28182 101.75757,49.83869 101.88256,49.33873 C 101.99863,48.87445 101.95161,48.35542 102.05933,47.92452 C 102.26858,47.08752 102.13752,46.49839 102.41289,48.01291 C 102.51486,48.57376 102.54813,49.17259 102.67805,49.69228 C 102.79644,50.16581 102.93491,50.53461 103.03161,51.01811 C 103.13145,51.51732 103.11999,52.00564 103.11999,52.52071 C 103.11999,52.96862 103.14635,52.4153 103.03161,52.87426"
         style="fill:#000000;fill-opacity:1;fill-rule:evenodd;stroke:#000000;stroke-width:1px;stroke-linecap:butt;stroke-linejoin:miter;stroke-opacity:1" />
      <path
         id="path10981"
         d="M 101.17545,56.49819 C 101.17545,56.99207 101.49761,57.43326 101.61739,57.9124 C 101.73336,58.37629 101.70312,58.87138 101.79417,59.32661 C 101.87939,59.7527 101.88256,60.18445 101.88256,60.65244 C 101.88256,60.98261 101.89952,61.25063 101.97095,61.53632 C 101.97095,63.44757 102.12528,59.68156 102.3245,58.88467 C 102.33879,58.82751 102.3245,58.76682 102.3245,58.7079 C 102.3245,58.16217 102.54513,57.55954 102.76644,57.1169 C 102.96798,56.71383 103.20838,56.32777 103.20838,55.96786"
         style="fill:#000000;fill-opacity:1;fill-rule:evenodd;stroke:#000000;stroke-width:1px;stroke-linecap:butt;stroke-linejoin:miter;stroke-opacity:1" />
      <path
         id="path10983"
         d="M 80.05064,54.28848 C 80.05139,54.28697 81.09201,53.92729 81.55324,53.58137 C 82.15629,53.12908 82.5891,52.70369 83.321,52.52071 C 83.73706,52.4167 84.30367,52.52071 84.73522,52.52071 C 85.14073,52.52071 85.62226,52.43232 86.06104,52.43232 C 86.44375,52.43232 87.02534,52.69549 87.38687,52.78588 C 88.01049,52.94178 88.53832,53.3622 89.06625,53.75815 C 89.55212,54.12255 90.64728,54.18048 89.86174,54.37687 C 89.38732,54.49547 88.95343,54.62924 88.44753,54.73042 C 87.97726,54.82447 87.49147,55.1602 87.1217,55.43753 C 86.66297,55.78158 85.99818,55.91728 85.44233,56.05624 C 84.94657,56.18018 84.37532,56.14463 83.85134,56.14463 C 83.30854,56.14463 82.93919,55.9166 82.43712,55.79108 C 81.82706,55.63856 81.21454,55.00301 80.66935,54.73042 C 80.32384,54.55766 80.54402,54.68319 80.05064,54.28848 z "
         style="fill:#000000;fill-opacity:1;fill-rule:evenodd;stroke:#000000;stroke-width:1px;stroke-linecap:butt;stroke-linejoin:miter;stroke-opacity:1" />
      <path
         id="path10985"
         d="M 87.56365,52.52071 C 86.96214,52.21996 88.67899,51.71154 89.33141,51.54844 C 90.15401,51.34279 91.21057,50.73569 91.89467,50.22261 C 93.04292,49.36143 91.8409,50.62994 91.45273,51.01811 C 90.97201,51.49883 90.48598,51.94205 89.95013,52.34393 C 89.66185,52.56014 89.41023,52.88383 89.15464,53.13943"
         style="fill:#000000;fill-opacity:1;fill-rule:evenodd;stroke:#000000;stroke-width:1px;stroke-linecap:butt;stroke-linejoin:miter;stroke-opacity:1" />
      <path
         id="path10987"
         d="M 81.55324,53.58137 C 81.05324,53.95637 81.43966,52.33155 81.28807,51.72522 C 81.16202,51.22101 80.88733,50.74695 80.66935,50.311 C 80.3218,49.6159 80.22607,49.33336 80.05064,48.63162 C 79.88008,47.94939 80.66892,49.78024 81.37646,50.48778 C 81.8388,50.95012 82.10848,51.96468 82.52551,52.52071 C 82.61787,52.64385 82.76755,52.76275 82.87906,52.87426"
         style="fill:#000000;fill-opacity:1;fill-rule:evenodd;stroke:#000000;stroke-width:1px;stroke-linecap:butt;stroke-linejoin:miter;stroke-opacity:1" />
      <path
         id="path10989"
         d="M 82.34873,56.14463 C 82.72038,56.64017 81.70347,57.22309 81.55324,57.82401 C 81.43473,58.29806 81.37646,58.7394 81.37646,59.23823 C 81.37646,59.53432 81.39304,59.83485 81.46485,60.12211 C 81.61877,60.73781 81.72319,58.80311 82.17196,58.35434 C 82.59405,57.93225 82.99868,57.616 83.40939,57.20529 C 83.61683,56.99786 83.73133,56.73819 83.85134,56.49819"
         style="fill:#000000;fill-opacity:1;fill-rule:evenodd;stroke:#000000;stroke-width:1px;stroke-linecap:butt;stroke-linejoin:miter;stroke-opacity:1" />
      <path
         id="path10991"
         d="M 86.50299,55.79108 C 86.57594,55.71812 87.58026,56.60318 87.9172,56.94013 C 88.3524,57.37532 88.72531,57.89976 89.06625,58.35434 C 89.25943,58.61192 89.98863,59.89544 89.4198,59.32661 C 89.08775,58.99457 89.0888,58.09098 88.97786,57.64724 C 88.85592,57.15948 88.92123,56.62523 88.80108,56.14463 C 88.6904,55.70189 88.44426,55.34669 88.09398,55.08397"
         style="fill:#000000;fill-opacity:1;fill-rule:evenodd;stroke:#000000;stroke-width:1px;stroke-linecap:butt;stroke-linejoin:miter;stroke-opacity:1" />
      <path
         id="path13902"
         d="M 82.08357,72.49648 C 81.55525,72.28515 83.12253,72.97719 83.67456,73.1152 C 84.24907,73.25882 84.73308,73.45064 85.26555,73.55714 C 85.70854,73.64574 86.1754,73.54153 86.59137,73.64553 C 87.12528,73.779 87.731,73.51765 88.18236,73.29197 C 88.75891,73.0037 89.26002,72.75315 89.77335,72.49648 C 90.13767,72.31432 90.85148,72.58923 91.18757,72.67325 C 91.63201,72.78436 92.07156,72.8721 92.51339,72.76164 C 92.97851,72.64536 93.39338,72.51955 93.83922,72.40809 C 94.41434,72.26431 94.82375,72.42034 95.25343,72.85003 C 95.65055,73.24715 96.11902,73.46875 96.66765,73.46875 C 97.12524,73.46875 97.51283,73.55714 97.99347,73.55714 C 98.53878,73.55714 98.91524,73.50347 99.40768,73.38036 C 99.97427,73.23871 100.41372,72.92154 100.91029,72.67325 C 101.47323,72.39178 101.92553,72.23294 102.3245,71.70098 C 102.60954,71.32092 103.10105,71.1091 103.56194,70.99388 C 104.12929,70.85204 102.67443,71.79662 102.41289,72.3197 C 102.14861,72.84825 101.79723,73.20052 101.35223,73.64553 C 101.00845,73.98931 100.36266,74.24647 99.93801,74.35263 C 99.23728,74.52782 98.44493,74.86148 97.72831,75.14813 C 97.23895,75.34387 96.70514,75.47021 96.2257,75.59007 C 95.72778,75.71455 95.20244,75.7354 94.7231,75.85523 C 94.13277,76.00282 93.57153,76.1204 92.95533,76.1204 C 92.37433,76.1204 91.71358,76.20879 91.09918,76.20879 C 90.451,76.20879 89.80282,76.20879 89.15464,76.20879 C 88.61658,76.20879 88.07178,76.24743 87.56365,76.1204 C 87.09385,76.00295 86.58274,75.80672 86.14943,75.59007 C 86.03158,75.53114 85.91373,75.47222 85.79588,75.41329 C 85.14219,75.08645 84.47204,74.83976 83.85134,74.52941 C 83.31443,74.26096 82.66993,73.34801 82.26034,72.93842 C 82.14815,72.82623 82.14249,72.64379 82.08357,72.49648 z "
         style="fill:#000000;fill-opacity:1;fill-rule:evenodd;stroke:#000000;stroke-width:1px;stroke-linecap:butt;stroke-linejoin:miter;stroke-opacity:1" />
      <path
         id="path14881"
         d="M 90.74563,69.22611 C 90.74345,69.22394 89.48583,69.11557 89.15464,69.04933 C 88.64665,68.94773 88.21194,68.40138 88.00559,67.98867 C 87.7694,67.51629 87.78455,66.92788 87.56365,66.48607 C 87.10281,65.5644 87.51758,66.47361 88.00559,66.83962 C 88.50679,67.21552 89.01216,67.21033 89.50819,67.45834 C 90.10062,67.75456 90.20105,68.02861 90.56885,68.519 C 90.62049,68.58786 90.73121,69.16843 90.74563,69.22611 z "
         style="fill:#000000;fill-opacity:1;fill-rule:evenodd;stroke:#000000;stroke-width:1px;stroke-linecap:butt;stroke-linejoin:miter;stroke-opacity:1" />
      <path
         id="path14883"
         d="M 93.92761,68.78417 C 94.27582,69.24845 94.22434,67.60355 94.63471,67.19318 C 95.14068,66.68721 95.29518,66.38724 95.96054,66.2209 C 96.37671,66.11686 96.77732,66.49033 97.19798,66.57446 C 97.23262,66.58139 96.30346,67.30282 95.78376,68.34223 C 95.46764,68.97447 94.90872,69.13772 94.28116,69.13772 C 94.11449,69.13772 94.04546,68.90202 93.92761,68.78417 z "
         style="fill:#000000;fill-opacity:1;fill-rule:evenodd;stroke:#000000;stroke-width:1px;stroke-linecap:butt;stroke-linejoin:miter;stroke-opacity:1" />
      <path
         id="path15854"
         d="M 116.11308,51.8136 C 116.44722,51.67205 117.25437,51.28715 117.79246,51.01811 C 118.1954,50.81664 118.65781,50.75294 119.11829,50.75294 C 119.71255,50.75294 120.02576,50.76474 120.5325,51.01811 C 121.10139,51.30255 121.57012,51.5254 122.0351,51.99038 C 122.46731,52.42259 122.51718,53.03479 122.65382,53.58137 C 122.78393,54.1018 122.91898,54.44699 122.91898,54.99558 C 122.91898,55.61334 123.04359,56.1403 122.91898,56.76335 C 122.90743,56.82113 122.91898,56.8812 122.91898,56.94013 C 122.91898,57.4866 122.45209,58.22747 122.21188,58.7079 C 121.92831,59.27502 121.76522,59.86638 121.50477,60.38727 C 121.23806,60.92069 121.24233,61.53088 120.97444,62.06665 C 120.64285,62.72984 120.45679,63.29141 119.91378,63.83442 C 119.54312,64.20508 119.05962,63.83442 118.58796,63.83442 C 118.10332,63.83442 117.49387,63.46081 117.08535,63.2157 C 116.68262,62.97406 116.3603,62.66743 116.02469,62.33182"
         style="fill:none;fill-rule:evenodd;stroke:#000000;stroke-width:1px;stroke-linecap:butt;stroke-linejoin:miter;stroke-opacity:1" />
      <path
         sodipodi:nodetypes="cccccccccccccccccccccccc"
         id="path15858"
         d="M 85.6191,30.33524 L 75.71961,8.591702 L 99.05413,29.98168 L 97.10959,2.050965 L 112.13561,26.7997 L 137.06112,9.122032 L 123.62609,34.57788 L 151.20326,27.86036 L 127.3384,43.23993 L 152.44069,50.66456 L 129.6365,54.73042 L 140.77343,73.46875 L 123.97964,66.92801 L 120.79766,88.14122 L 111.4285,75.59007 L 113.92547,68.28698 L 121.72574,63.9891 L 125.46015,56.68602 L 124.77514,43.37252 L 116.7318,32.19139 L 106.56714,32.85431 L 91.27596,39.35085 L 86.14943,31.92623 L 85.6191,30.33524 z "
         style="fill:url(#linearGradient29522);fill-opacity:1;fill-rule:evenodd;stroke:#000000;stroke-width:1px;stroke-linecap:butt;stroke-linejoin:miter;stroke-opacity:1" />
      <path
         sodipodi:nodetypes="cccccccccccc"
         id="path20746"
         d="M 112.84271,77.35784 L 112.31238,92.73741 L 115.67114,95.56584 L 110.6772,101.88561 C 108.04028,103.6681 104.96142,105.53899 99.58446,106.08405 C 94.82622,105.06758 92.80802,104.58145 88.84528,102.06238 C 87.12171,100.36827 85.48652,99.20449 83.93972,96.98005 L 89.15464,94.15162 L 89.50819,85.66634 L 96.75603,85.84312 L 111.60528,75.76685 L 112.84271,77.35784 z "
         style="fill:#d7d7d7;fill-opacity:1;fill-rule:evenodd;stroke:#000000;stroke-width:1px;stroke-linecap:butt;stroke-linejoin:miter;stroke-opacity:1" />
      <path
         id="path21717"
         d="M 135.47013,140.46712 L 143.77863,161.50354 L 143.42508,173.70114 L 146.43029,186.78261 L 153.50135,206.40482 L 150.31937,213.12234 L 150.67293,217.71853 L 155.62267,226.38059 L 158.98143,226.38059 L 165.52217,217.36498 L 165.87572,211.35457 L 163.04729,206.22805 L 161.4563,185.01484 L 160.57242,167.33718 L 157.03689,157.61446 L 155.09234,146.47752 L 153.1478,132.15861 L 135.47013,140.46712 z "
         style="fill:#ffffff;fill-opacity:1;fill-rule:evenodd;stroke:#000000;stroke-width:1px;stroke-linecap:butt;stroke-linejoin:miter;stroke-opacity:1" />
      <path
         sodipodi:nodetypes="ccccccccccccccc"
         id="path23657"
         d="M 57.5,129 L 49.75,152.75 L 43,168.5 L 37.25,187.75 L 34.75,197.25 L 32,202 L 32.5,213.25 L 36.5,218.75 L 43.25,212.75 L 42.75,198.75 L 51.25,183 L 58.5,166.25 L 59,157.5 L 69.75,137.25 C 63,138.25 57.5,129 57.5,129 z "
         style="fill:#eaeaea;fill-opacity:1;fill-rule:evenodd;stroke:#000000;stroke-width:1px;stroke-linecap:butt;stroke-linejoin:miter;stroke-opacity:1" />
      <path
         id="path25604"
         d="M 71.12341,189.25749 L 79.60869,246.88669 L 84.91199,263.85725 L 95.16504,283.65624 L 105.06454,303.10168 L 108.24652,319.36513 L 111.4285,323.60777 L 136.17724,312.29407 L 129.10617,301.33391 L 122.74221,281.18137 L 111.07495,265.27146 L 104.00388,248.3009 L 104.00388,215.06688 L 103.29677,188.55038 L 71.12341,189.25749 z "
         style="fill:#cfcfcf;fill-opacity:1;fill-rule:evenodd;stroke:#000000;stroke-width:1px;stroke-linecap:butt;stroke-linejoin:miter;stroke-opacity:1" />
      <path
         sodipodi:nodetypes="cccccccccccccccccccccccccc"
         id="path25602"
         d="M 132.6846,188.46459 L 128.3384,210.40267 L 124.80287,231.60546 L 117.79246,253.25065 L 113.19627,271.1051 L 108.95363,295.3235 L 102.23611,308.40498 L 103.29677,313.35473 L 103.65033,318.65803 L 101.17545,325.02198 L 94.28116,322.72388 L 80.66936,319.71868 L 76.60349,322.01679 L 73.59829,315.47605 L 76.78027,309.46564 L 81.37646,307.34432 L 83.14423,299.21259 L 88.44753,279.06005 L 86.67976,267.39278 L 89.27596,254.49329 L 88.56885,242.79049 L 89.39728,224.7844 L 85.33662,209.61714 L 89.15464,194.56079 L 91.27596,188.55038 L 132.6846,188.46459 z "
         style="fill:#b9b8c4;fill-opacity:1;fill-rule:evenodd;stroke:#000000;stroke-width:1px;stroke-linecap:butt;stroke-linejoin:miter;stroke-opacity:1" />
      <path
         id="path27556"
         d="M 113.25,323.5 L 119.5,340.5 L 111.75,355.25 L 101.75,354.75 L 94,359.5 L 95,367.5 L 113.5,369.25 L 134.75,363.75 L 147.5,354.25 L 145.5,347.25 L 141.75,347.25 L 139.75,336.5 L 134.5,313 L 113.25,323.5 z "
         style="fill:#000000;fill-opacity:1;fill-rule:evenodd;stroke:#000000;stroke-width:1px;stroke-linecap:butt;stroke-linejoin:miter;stroke-opacity:1" />
      <path
         sodipodi:nodetypes="cccccccccccccc"
         id="path28527"
         d="M 77.25,321.25 L 74.25,337.25 L 67.5,344 L 54,347.75 L 44.25,345.25 L 36.75,349 L 36.75,355.5 L 64.75,364.75 L 88.25,367.5 L 95.25,353.25 L 95.5,337 L 99.5,325 L 81.375,319.875 L 77.25,321.25 z "
         style="fill:#000000;fill-opacity:1;fill-rule:evenodd;stroke:#000000;stroke-width:1px;stroke-linecap:butt;stroke-linejoin:miter;stroke-opacity:1" />
    </g>
    <g
       transform="translate(187,4)"
       id="g29524">
      <path
         style="fill:#cfcfcf;fill-opacity:1;fill-rule:evenodd;stroke:#000000;stroke-width:1px;stroke-linecap:butt;stroke-linejoin:miter;stroke-opacity:1"
         d="M 70.623084,180.62918 L 54.516884,236.60877 L 52.327478,254.25335 L 53.475085,276.5201 L 54.446993,298.31875 L 50.618572,314.44226 L 51.761215,319.621 L 78.973268,319.55461 L 77.067614,306.65137 L 79.607176,285.67101 L 75.563669,266.36038 L 76.14354,247.98475 L 89.887114,217.72563 L 100.20891,193.2903 L 70.623084,180.62918 z "
         id="path29562"
         inkscape:transform-center-x="7.670554"
         inkscape:transform-center-y="65.83755" />
      <path
         style="opacity:1;fill:#d80000;fill-opacity:1;stroke:#000000;stroke-width:1;stroke-linecap:butt;stroke-linejoin:miter;stroke-miterlimit:4;stroke-dasharray:none;stroke-opacity:1"
         d="M 69.0481,102.6967 C 72.8363,100.25021 77.50838,98.86439 84.125,96.94823 C 95.08333,110.82323 108.09192,107.53186 116.02512,95.34099 L 140.67461,101.52944 C 144.7773,103.92188 146.40512,104.90011 150.33104,109.23709 C 151.72316,113.10267 153.11527,116.43791 153.44673,120.30349 L 153.20367,132.43056 C 146.18416,134.71705 141.1092,135.76611 134.08969,141.23458 C 131.59271,148.63569 130.33318,154.44581 129.78075,162.90758 C 129.99436,171.66398 130.91507,179.89005 133.07322,188.64645 L 68.57322,188.64645 L 73.46491,131.27334 L 70.22487,137.71663 C 64.84329,136.62348 60.3456,134.82323 57.26212,127.5429 L 62.80155,109.8165 C 64.3534,106.38257 65.5517,104.36286 69.0481,102.6967 z "
         id="path29526"
         sodipodi:nodetypes="cccccccccccccccc" />
      <path
         style="opacity:1;fill:#eeeeee;fill-opacity:1;stroke:#000000;stroke-width:1;stroke-linecap:butt;stroke-linejoin:miter;stroke-miterlimit:4;stroke-opacity:1"
         d="M 79.75,40 C 81.41667,36.16667 82.83333,34.70833 85.875,31.875 L 91,40 L 98.0625,36.75 L 106.625,33.40625 L 116.75,32.8125 L 121.125,38.78125 L 124.375,43.6875 L 124.875,56.5625 L 121.375,63.6875 L 113.8125,68 L 111.125,75.3125 L 96.375,85.5 L 86.625,85.625 C 84.47917,83.23958 82.20833,81.22917 81.1875,77.96875 C 79.54167,73.95833 80.39583,69.44792 79.375,66.1875 C 78.625,58 77.75,51.1875 79.75,40 z "
         id="path29528"
         sodipodi:nodetypes="ccccccccccccccccc" />
      <path
         style="fill:#000000;fill-opacity:1;fill-rule:evenodd;stroke:#000000;stroke-width:1px;stroke-linecap:butt;stroke-linejoin:miter;stroke-opacity:1"
         d="M 97.19798,54.02331 C 97.51844,54.01284 98.29457,53.82857 98.78897,53.58137 C 99.38022,53.28574 99.71907,52.91805 100.37996,52.78588 C 100.83967,52.69393 101.19018,52.6091 101.70578,52.6091 C 102.19351,52.6091 102.59002,52.67548 103.03161,52.78588 C 103.49898,52.90272 103.91416,53.02861 104.35743,53.13943 C 104.87042,53.26768 105.37212,53.45939 105.86003,53.58137 C 106.27894,53.6861 106.78928,53.57062 107.18586,53.66976 C 107.55467,53.76196 108.54209,53.56617 107.80458,53.93492 C 107.36191,54.15626 106.87335,54.77776 106.56714,55.08397 C 106.20461,55.44651 105.52377,55.4995 105.06454,55.6143 C 104.52635,55.74885 104.028,55.82924 103.47355,55.96786 C 102.94292,56.10051 102.44844,56.14463 101.88256,56.14463 C 101.41115,56.14463 100.93975,56.14463 100.46834,56.14463 C 99.95063,56.14463 99.04953,55.6562 98.61219,55.43753 C 98.1163,55.18958 97.6606,54.81223 97.19798,54.46525 C 97.08012,54.37687 97.19798,54.17063 97.19798,54.02331 z "
         id="path29530" />
      <path
         style="fill:#000000;fill-opacity:1;fill-rule:evenodd;stroke:#000000;stroke-width:1px;stroke-linecap:butt;stroke-linejoin:miter;stroke-opacity:1"
         d="M 101.44062,52.25555 C 101.43315,52.24994 101.61739,51.22702 101.61739,50.84133 C 101.61739,50.28182 101.75757,49.83869 101.88256,49.33873 C 101.99863,48.87445 101.95161,48.35542 102.05933,47.92452 C 102.26858,47.08752 102.13752,46.49839 102.41289,48.01291 C 102.51486,48.57376 102.54813,49.17259 102.67805,49.69228 C 102.79644,50.16581 102.93491,50.53461 103.03161,51.01811 C 103.13145,51.51732 103.11999,52.00564 103.11999,52.52071 C 103.11999,52.96862 103.14635,52.4153 103.03161,52.87426"
         id="path29532" />
      <path
         style="fill:#000000;fill-opacity:1;fill-rule:evenodd;stroke:#000000;stroke-width:1px;stroke-linecap:butt;stroke-linejoin:miter;stroke-opacity:1"
         d="M 101.17545,56.49819 C 101.17545,56.99207 101.49761,57.43326 101.61739,57.9124 C 101.73336,58.37629 101.70312,58.87138 101.79417,59.32661 C 101.87939,59.7527 101.88256,60.18445 101.88256,60.65244 C 101.88256,60.98261 101.89952,61.25063 101.97095,61.53632 C 101.97095,63.44757 102.12528,59.68156 102.3245,58.88467 C 102.33879,58.82751 102.3245,58.76682 102.3245,58.7079 C 102.3245,58.16217 102.54513,57.55954 102.76644,57.1169 C 102.96798,56.71383 103.20838,56.32777 103.20838,55.96786"
         id="path29534" />
      <path
         style="fill:#000000;fill-opacity:1;fill-rule:evenodd;stroke:#000000;stroke-width:1px;stroke-linecap:butt;stroke-linejoin:miter;stroke-opacity:1"
         d="M 80.05064,54.28848 C 80.05139,54.28697 81.09201,53.92729 81.55324,53.58137 C 82.15629,53.12908 82.5891,52.70369 83.321,52.52071 C 83.73706,52.4167 84.30367,52.52071 84.73522,52.52071 C 85.14073,52.52071 85.62226,52.43232 86.06104,52.43232 C 86.44375,52.43232 87.02534,52.69549 87.38687,52.78588 C 88.01049,52.94178 88.53832,53.3622 89.06625,53.75815 C 89.55212,54.12255 90.64728,54.18048 89.86174,54.37687 C 89.38732,54.49547 88.95343,54.62924 88.44753,54.73042 C 87.97726,54.82447 87.49147,55.1602 87.1217,55.43753 C 86.66297,55.78158 85.99818,55.91728 85.44233,56.05624 C 84.94657,56.18018 84.37532,56.14463 83.85134,56.14463 C 83.30854,56.14463 82.93919,55.9166 82.43712,55.79108 C 81.82706,55.63856 81.21454,55.00301 80.66935,54.73042 C 80.32384,54.55766 80.54402,54.68319 80.05064,54.28848 z "
         id="path29536" />
      <path
         style="fill:#000000;fill-opacity:1;fill-rule:evenodd;stroke:#000000;stroke-width:1px;stroke-linecap:butt;stroke-linejoin:miter;stroke-opacity:1"
         d="M 87.56365,52.52071 C 86.96214,52.21996 88.67899,51.71154 89.33141,51.54844 C 90.15401,51.34279 91.21057,50.73569 91.89467,50.22261 C 93.04292,49.36143 91.8409,50.62994 91.45273,51.01811 C 90.97201,51.49883 90.48598,51.94205 89.95013,52.34393 C 89.66185,52.56014 89.41023,52.88383 89.15464,53.13943"
         id="path29538" />
      <path
         style="fill:#000000;fill-opacity:1;fill-rule:evenodd;stroke:#000000;stroke-width:1px;stroke-linecap:butt;stroke-linejoin:miter;stroke-opacity:1"
         d="M 81.55324,53.58137 C 81.05324,53.95637 81.43966,52.33155 81.28807,51.72522 C 81.16202,51.22101 80.88733,50.74695 80.66935,50.311 C 80.3218,49.6159 80.22607,49.33336 80.05064,48.63162 C 79.88008,47.94939 80.66892,49.78024 81.37646,50.48778 C 81.8388,50.95012 82.10848,51.96468 82.52551,52.52071 C 82.61787,52.64385 82.76755,52.76275 82.87906,52.87426"
         id="path29540" />
      <path
         style="fill:#000000;fill-opacity:1;fill-rule:evenodd;stroke:#000000;stroke-width:1px;stroke-linecap:butt;stroke-linejoin:miter;stroke-opacity:1"
         d="M 82.34873,56.14463 C 82.72038,56.64017 81.70347,57.22309 81.55324,57.82401 C 81.43473,58.29806 81.37646,58.7394 81.37646,59.23823 C 81.37646,59.53432 81.39304,59.83485 81.46485,60.12211 C 81.61877,60.73781 81.72319,58.80311 82.17196,58.35434 C 82.59405,57.93225 82.99868,57.616 83.40939,57.20529 C 83.61683,56.99786 83.73133,56.73819 83.85134,56.49819"
         id="path29542" />
      <path
         style="fill:#000000;fill-opacity:1;fill-rule:evenodd;stroke:#000000;stroke-width:1px;stroke-linecap:butt;stroke-linejoin:miter;stroke-opacity:1"
         d="M 86.50299,55.79108 C 86.57594,55.71812 87.58026,56.60318 87.9172,56.94013 C 88.3524,57.37532 88.72531,57.89976 89.06625,58.35434 C 89.25943,58.61192 89.98863,59.89544 89.4198,59.32661 C 89.08775,58.99457 89.0888,58.09098 88.97786,57.64724 C 88.85592,57.15948 88.92123,56.62523 88.80108,56.14463 C 88.6904,55.70189 88.44426,55.34669 88.09398,55.08397"
         id="path29544" />
      <path
         style="fill:#000000;fill-opacity:1;fill-rule:evenodd;stroke:#000000;stroke-width:1px;stroke-linecap:butt;stroke-linejoin:miter;stroke-opacity:1"
         d="M 82.08357,72.49648 C 81.55525,72.28515 83.12253,72.97719 83.67456,73.1152 C 84.24907,73.25882 84.73308,73.45064 85.26555,73.55714 C 85.70854,73.64574 86.1754,73.54153 86.59137,73.64553 C 87.12528,73.779 87.731,73.51765 88.18236,73.29197 C 88.75891,73.0037 89.26002,72.75315 89.77335,72.49648 C 90.13767,72.31432 90.85148,72.58923 91.18757,72.67325 C 91.63201,72.78436 92.07156,72.8721 92.51339,72.76164 C 92.97851,72.64536 93.39338,72.51955 93.83922,72.40809 C 94.41434,72.26431 94.82375,72.42034 95.25343,72.85003 C 95.65055,73.24715 96.11902,73.46875 96.66765,73.46875 C 97.12524,73.46875 97.51283,73.55714 97.99347,73.55714 C 98.53878,73.55714 98.91524,73.50347 99.40768,73.38036 C 99.97427,73.23871 100.41372,72.92154 100.91029,72.67325 C 101.47323,72.39178 101.92553,72.23294 102.3245,71.70098 C 102.60954,71.32092 103.10105,71.1091 103.56194,70.99388 C 104.12929,70.85204 102.67443,71.79662 102.41289,72.3197 C 102.14861,72.84825 101.79723,73.20052 101.35223,73.64553 C 101.00845,73.98931 100.36266,74.24647 99.93801,74.35263 C 99.23728,74.52782 98.44493,74.86148 97.72831,75.14813 C 97.23895,75.34387 96.70514,75.47021 96.2257,75.59007 C 95.72778,75.71455 95.20244,75.7354 94.7231,75.85523 C 94.13277,76.00282 93.57153,76.1204 92.95533,76.1204 C 92.37433,76.1204 91.71358,76.20879 91.09918,76.20879 C 90.451,76.20879 89.80282,76.20879 89.15464,76.20879 C 88.61658,76.20879 88.07178,76.24743 87.56365,76.1204 C 87.09385,76.00295 86.58274,75.80672 86.14943,75.59007 C 86.03158,75.53114 85.91373,75.47222 85.79588,75.41329 C 85.14219,75.08645 84.47204,74.83976 83.85134,74.52941 C 83.31443,74.26096 82.66993,73.34801 82.26034,72.93842 C 82.14815,72.82623 82.14249,72.64379 82.08357,72.49648 z "
         id="path29546" />
      <path
         style="fill:#000000;fill-opacity:1;fill-rule:evenodd;stroke:#000000;stroke-width:1px;stroke-linecap:butt;stroke-linejoin:miter;stroke-opacity:1"
         d="M 90.74563,69.22611 C 90.74345,69.22394 89.48583,69.11557 89.15464,69.04933 C 88.64665,68.94773 88.21194,68.40138 88.00559,67.98867 C 87.7694,67.51629 87.78455,66.92788 87.56365,66.48607 C 87.10281,65.5644 87.51758,66.47361 88.00559,66.83962 C 88.50679,67.21552 89.01216,67.21033 89.50819,67.45834 C 90.10062,67.75456 90.20105,68.02861 90.56885,68.519 C 90.62049,68.58786 90.73121,69.16843 90.74563,69.22611 z "
         id="path29548" />
      <path
         style="fill:#000000;fill-opacity:1;fill-rule:evenodd;stroke:#000000;stroke-width:1px;stroke-linecap:butt;stroke-linejoin:miter;stroke-opacity:1"
         d="M 93.92761,68.78417 C 94.27582,69.24845 94.22434,67.60355 94.63471,67.19318 C 95.14068,66.68721 95.29518,66.38724 95.96054,66.2209 C 96.37671,66.11686 96.77732,66.49033 97.19798,66.57446 C 97.23262,66.58139 96.30346,67.30282 95.78376,68.34223 C 95.46764,68.97447 94.90872,69.13772 94.28116,69.13772 C 94.11449,69.13772 94.04546,68.90202 93.92761,68.78417 z "
         id="path29550" />
      <path
         style="fill:none;fill-rule:evenodd;stroke:#000000;stroke-width:1px;stroke-linecap:butt;stroke-linejoin:miter;stroke-opacity:1"
         d="M 116.11308,51.8136 C 116.44722,51.67205 117.25437,51.28715 117.79246,51.01811 C 118.1954,50.81664 118.65781,50.75294 119.11829,50.75294 C 119.71255,50.75294 120.02576,50.76474 120.5325,51.01811 C 121.10139,51.30255 121.57012,51.5254 122.0351,51.99038 C 122.46731,52.42259 122.51718,53.03479 122.65382,53.58137 C 122.78393,54.1018 122.91898,54.44699 122.91898,54.99558 C 122.91898,55.61334 123.04359,56.1403 122.91898,56.76335 C 122.90743,56.82113 122.91898,56.8812 122.91898,56.94013 C 122.91898,57.4866 122.45209,58.22747 122.21188,58.7079 C 121.92831,59.27502 121.76522,59.86638 121.50477,60.38727 C 121.23806,60.92069 121.24233,61.53088 120.97444,62.06665 C 120.64285,62.72984 120.45679,63.29141 119.91378,63.83442 C 119.54312,64.20508 119.05962,63.83442 118.58796,63.83442 C 118.10332,63.83442 117.49387,63.46081 117.08535,63.2157 C 116.68262,62.97406 116.3603,62.66743 116.02469,62.33182"
         id="path29552" />
      <path
         style="fill:url(#linearGradient29570);fill-opacity:1;fill-rule:evenodd;stroke:#000000;stroke-width:1px;stroke-linecap:butt;stroke-linejoin:miter;stroke-opacity:1"
         d="M 85.6191,30.33524 L 75.71961,8.591702 L 99.05413,29.98168 L 97.10959,2.050965 L 112.13561,26.7997 L 137.06112,9.122032 L 123.62609,34.57788 L 151.20326,27.86036 L 127.3384,43.23993 L 152.44069,50.66456 L 129.6365,54.73042 L 140.77343,73.46875 L 123.97964,66.92801 L 120.79766,88.14122 L 111.4285,75.59007 L 113.92547,68.28698 L 121.72574,63.9891 L 125.46015,56.68602 L 124.77514,43.37252 L 116.7318,32.19139 L 106.56714,32.85431 L 91.27596,39.35085 L 86.14943,31.92623 L 85.6191,30.33524 z "
         id="path29554"
         sodipodi:nodetypes="cccccccccccccccccccccccc" />
      <path
         style="fill:#d7d7d7;fill-opacity:1;fill-rule:evenodd;stroke:#000000;stroke-width:1px;stroke-linecap:butt;stroke-linejoin:miter;stroke-opacity:1"
         d="M 112.84271,77.35784 L 112.31238,92.73741 L 115.67114,95.56584 L 110.6772,101.88561 C 108.04028,103.6681 104.96142,105.53899 99.58446,106.08405 C 94.82622,105.06758 92.80802,104.58145 88.84528,102.06238 C 87.12171,100.36827 85.48652,99.20449 83.93972,96.98005 L 89.15464,94.15162 L 89.50819,85.66634 L 96.75603,85.84312 L 111.60528,75.76685 L 112.84271,77.35784 z "
         id="path29556"
         sodipodi:nodetypes="cccccccccccc" />
      <path
         style="fill:#000000;fill-opacity:1;fill-rule:evenodd;stroke:#000000;stroke-width:1px;stroke-linecap:butt;stroke-linejoin:miter;stroke-opacity:1"
         d="M 53.464235,320.27614 L 52.124616,338.33903 L 38.968638,349.06377 L 28.07055,350.47314 L 19.049966,356.09302 L 18.152142,364.79045 L 34.772443,365.03427 L 56.394741,365.81431 L 71.932069,362.43731 L 73.005869,355.23683 L 69.591547,353.68606 L 72.21612,343.07126 L 77.154234,319.50374 L 53.464235,320.27614 z "
         id="path29566"
         inkscape:transform-center-x="35.181105"
         inkscape:transform-center-y="158.37148"
         sodipodi:nodetypes="cccccccccccccc" />
      <path
         style="fill:#eaeaea;fill-opacity:1;fill-rule:evenodd;stroke:#000000;stroke-width:1px;stroke-linecap:butt;stroke-linejoin:miter;stroke-opacity:1"
         d="M 57.263431,129.32401 L 58.044262,154.2943 L 57.047367,171.40076 L 58.180204,191.45922 L 59.05684,201.24347 L 58.084399,206.64526 L 62.377164,217.05605 L 68.007968,220.86971 L 72.317707,212.93318 L 67.090551,199.936 L 69.733329,182.23492 L 70.860697,164.01805 L 68.357886,155.61874 L 71.587797,132.92089 C 65.579164,136.15489 57.263431,129.32401 57.263431,129.32401 z "
         id="path29560"
         sodipodi:nodetypes="ccccccccccccccc" />
      <path
         style="fill:#b9b8c4;fill-opacity:1;fill-rule:evenodd;stroke:#000000;stroke-width:1px;stroke-linecap:butt;stroke-linejoin:miter;stroke-opacity:1"
         d="M 131.08385,181.05199 L 130.57319,203.41061 L 130.73474,224.90554 L 127.54917,247.43358 L 126.09032,265.81232 L 126.07363,290.39952 L 121.70461,304.44096 L 123.60028,309.13473 L 124.86014,314.29832 L 123.51596,320.99296 L 116.32927,319.91409 L 102.40351,319.2933 L 98.793163,322.25607 L 94.708428,316.32923 L 96.809945,309.86133 L 100.9731,306.98156 L 101.31683,298.667 L 103.07726,277.90284 L 99.330363,266.71307 L 99.670681,253.55931 L 96.962548,242.15223 L 94.683653,224.27173 L 88.076389,210.02818 L 89.249609,194.53965 L 90.306252,188.25407 L 131.08385,181.05199 z "
         id="path29564"
         sodipodi:nodetypes="cccccccccccccccccccccccccc" />
      <path
         style="fill:#ffffff;fill-opacity:1;fill-rule:evenodd;stroke:#000000;stroke-width:1px;stroke-linecap:butt;stroke-linejoin:miter;stroke-opacity:1"
         d="M 133.00589,134.1165 L 132.34429,156.72456 L 127.20874,167.79401 L 124.81111,181.00035 L 123.57013,201.8208 L 117.99673,206.73885 L 116.50892,211.10193 L 117.64119,221.014 L 120.72769,222.33867 L 130.29395,216.63348 L 132.98931,211.2497 L 132.41201,205.42321 L 139.31633,185.30203 L 145.47605,168.7087 L 146.06168,158.37969 L 148.66709,147.37858 L 152.52745,133.45342 L 133.00589,134.1165 z "
         id="path29558" />
      <path
         style="fill:#000000;fill-opacity:1;fill-rule:evenodd;stroke:#000000;stroke-width:1px;stroke-linecap:butt;stroke-linejoin:miter;stroke-opacity:1"
         d="M 99.29825,321.38956 L 99.093076,337.66709 L 93.603768,345.47686 L 80.949263,351.49151 L 70.914658,350.70461 L 64.170855,355.68794 L 65.288114,362.0912 L 94.461331,366.39072 L 118.08426,365.06047 L 122.53071,349.81936 L 119.98384,333.76824 L 121.86167,321.25929 L 103.12551,319.326 L 99.29825,321.38956 z "
         id="path29568"
         sodipodi:nodetypes="cccccccccccccc" />
    </g>
    <path
       style="fill:none;fill-rule:evenodd;stroke:#000000;stroke-width:1px;stroke-linecap:butt;stroke-linejoin:miter;stroke-opacity:1"
       d="M 308,569 L 320,570 L 315,537 L 330,494.5 L 330,538 L 341,567 L 330,568"
       id="path29574"
       sodipodi:nodetypes="ccccccc" />
    <path
       style="fill:none;fill-rule:evenodd;stroke:#000000;stroke-width:1px;stroke-linecap:butt;stroke-linejoin:miter;stroke-opacity:1"
       d="M 330,494.5 L 328.5,482.5 L 326,448.5 L 318.5,470.5 L 306,490.5 L 297.5,491"
       id="path29576"
       sodipodi:nodetypes="cccccc" />
    <path
       style="fill:none;fill-rule:evenodd;stroke:#000000;stroke-width:1px;stroke-linecap:butt;stroke-linejoin:miter;stroke-opacity:1"
       d="M 327,448 L 343.5,468 L 344.5,488 L 351,494.5"
       id="path29578" />
    <path
       sodipodi:nodetypes="ccccccc"
       id="path29580"
       d="M 227,569 L 239,569 L 231.5,536 L 241,493.5 L 241.5,529.5 L 268.5,550 L 263.5,558.5"
       style="fill:none;fill-rule:evenodd;stroke:#000000;stroke-width:1px;stroke-linecap:butt;stroke-linejoin:miter;stroke-opacity:1" />
    <path
       sodipodi:nodetypes="cccccc"
       id="path29582"
       d="M 241,493.5 L 239.5,481.5 L 237,447.5 L 233,471.5 L 223.5,487.5 L 216,487.5"
       style="fill:none;fill-rule:evenodd;stroke:#000000;stroke-width:1px;stroke-linecap:butt;stroke-linejoin:miter;stroke-opacity:1" />
    <path
       id="path29584"
       d="M 238,447 L 254.5,467 L 255.5,487 L 262,493.5"
       style="fill:none;fill-rule:evenodd;stroke:#000000;stroke-width:1px;stroke-linecap:butt;stroke-linejoin:miter;stroke-opacity:1" />
    <path
       style="fill:none;fill-rule:evenodd;stroke:#000000;stroke-width:1px;stroke-linecap:butt;stroke-linejoin:miter;stroke-opacity:1"
       d="M 143.87711,570.3235 L 152.1821,570.16894 L 148.37895,534.55181 L 148.59384,494.03676 L 155.54939,529.36197 L 183.79133,531.68108 L 183.39873,541.94068"
       id="path29586"
       sodipodi:nodetypes="ccccccc"
       inkscape:transform-center-y="38.93013"
       inkscape:transform-center-x="-17.58514" />
    <path
       style="fill:none;fill-rule:evenodd;stroke:#000000;stroke-width:1px;stroke-linecap:butt;stroke-linejoin:miter;stroke-opacity:1"
       d="M 148.31902,493.52986 L 143.95338,482.25195 L 133.28181,449.87344 L 135.22209,474.12701 L 129.88631,491.95338 L 122.61024,493.77239"
       id="path29588"
       sodipodi:nodetypes="cccccc"
       inkscape:transform-center-x="11.03537"
       inkscape:transform-center-y="-22.677085" />
    <path
       style="fill:none;fill-rule:evenodd;stroke:#000000;stroke-width:1px;stroke-linecap:butt;stroke-linejoin:miter;stroke-opacity:1"
       d="M 134.13068,449.14584 L 154.98875,464.54685 L 160.8096,483.70716 L 168.69201,488.43661"
       id="path29590"
       inkscape:transform-center-x="-4.911345"
       inkscape:transform-center-y="-25.708775" />
    <path
       inkscape:transform-center-x="-17.58514"
       inkscape:transform-center-y="38.93013"
       sodipodi:nodetypes="ccccccc"
       id="path29592"
       d="M 47.87711,570.3235 L 56.1821,570.16894 L 52.37895,534.55181 L 52.59384,494.03676 L 32.04939,527.36197 L 59.79133,529.18108 L 66.89873,536.94068"
       style="fill:none;fill-rule:evenodd;stroke:#000000;stroke-width:1px;stroke-linecap:butt;stroke-linejoin:miter;stroke-opacity:1" />
    <path
       inkscape:transform-center-y="-22.677085"
       inkscape:transform-center-x="11.03537"
       sodipodi:nodetypes="cccccc"
       id="path29594"
       d="M 52.31902,493.52986 L 47.95338,482.25195 L 37.28181,449.87344 L 48.22209,475.12701 L 39.38631,485.45338 L 31.61024,486.27239"
       style="fill:none;fill-rule:evenodd;stroke:#000000;stroke-width:1px;stroke-linecap:butt;stroke-linejoin:miter;stroke-opacity:1" />
    <path
       inkscape:transform-center-y="-25.708775"
       inkscape:transform-center-x="-4.911345"
       id="path29596"
       d="M 38.13068,449.14584 L 50.98875,468.54685 L 56.8096,484.70716 L 50.69201,492.43661"
       style="fill:none;fill-rule:evenodd;stroke:#000000;stroke-width:1px;stroke-linecap:butt;stroke-linejoin:miter;stroke-opacity:1"
       sodipodi:nodetypes="cccc" />
  </g>
</svg>
