<?xml version="1.0" encoding="UTF-8" standalone="no"?>
<!-- Created with Inkscape (http://www.inkscape.org/) -->
<svg
   xmlns:dc="http://purl.org/dc/elements/1.1/"
   xmlns:cc="http://web.resource.org/cc/"
   xmlns:rdf="http://www.w3.org/1999/02/22-rdf-syntax-ns#"
   xmlns:svg="http://www.w3.org/2000/svg"
   xmlns="http://www.w3.org/2000/svg"
   xmlns:sodipodi="http://sodipodi.sourceforge.net/DTD/sodipodi-0.dtd"
   xmlns:inkscape="http://www.inkscape.org/namespaces/inkscape"
   width="210mm"
   height="297mm"
   id="svg2934"
   sodipodi:version="0.32"
   inkscape:version="0.45.1"
   sodipodi:docbase="/home/rover/Desktop/tmp2"
   sodipodi:docname="hombre-3.svg"
   inkscape:output_extension="org.inkscape.output.svg.inkscape">
  <defs
     id="defs2936" />
  <sodipodi:namedview
     id="base"
     pagecolor="#ffffff"
     bordercolor="#666666"
     borderopacity="1.0"
     inkscape:pageopacity="0.0"
     inkscape:pageshadow="2"
     inkscape:zoom="2.9615069"
     inkscape:cx="107.08986"
     inkscape:cy="840.00069"
     inkscape:document-units="px"
     inkscape:current-layer="layer1"
     inkscape:window-width="1022"
     inkscape:window-height="713"
     inkscape:window-x="0"
     inkscape:window-y="0" />
  <metadata
     id="metadata2939">
    <rdf:RDF>
      <cc:Work
         rdf:about="">
        <dc:format>image/svg+xml</dc:format>
        <dc:type
           rdf:resource="http://purl.org/dc/dcmitype/StillImage" />
      </cc:Work>
    </rdf:RDF>
  </metadata>
  <g
     inkscape:label="Capa 1"
     inkscape:groupmode="layer"
     id="layer1">
    <path
       style="fill:#000000"
       d="M 125.10715,493.84566 C 120.67422,493.59044 119.85715,493.24027 119.85715,491.59566 C 119.85715,490.5244 119.77017,489.31042 119.66387,488.89792 C 119.3193,487.56089 127.26936,483.6813 130.38845,483.66437 C 132.74464,483.65158 134.69873,482.35546 139.1624,477.84473 L 144.90504,472.04153 L 142.41976,469.70674 C 140.46064,467.86624 140.14545,466.97774 140.931,465.50993 C 141.61065,464.23999 141.59154,463.64792 140.87089,463.64792 C 140.28975,463.64792 139.30812,462.53703 138.68948,461.17928 C 138.07085,459.82152 137.11097,458.99105 136.55641,459.33379 C 136.00186,459.67652 135.83727,459.4891 136.19067,458.9173 C 136.54406,458.3455 136.33486,456.44812 135.72577,454.70091 L 134.61835,451.52416 L 131.11259,457.33604 C 129.18442,460.53257 127.37898,464.94792 127.1005,467.14792 C 126.56853,471.35043 124.43702,474.64792 122.25248,474.64792 C 121.46328,474.64792 120.48159,477.06839 119.73812,480.8474 C 118.85312,485.34578 117.67314,487.94471 115.4378,490.31896 C 111.98483,493.98649 112.49597,494.01039 96.357147,489.42687 C 83.926463,485.89648 79.477695,484.38415 73.036282,481.49907 C 67.68453,479.10204 66.764612,478.32147 67.036282,476.40795 C 67.338162,474.28164 67.830496,474.14474 75.357147,474.09418 C 79.757147,474.06462 86.957147,473.25314 91.357147,472.29088 C 103.34943,469.66824 106.25787,468.88618 105.29019,469.82822 C 103.80553,471.27355 84.704718,475.06225 79.357147,474.8874 C 73.372958,474.69173 67.857147,475.45493 67.857147,476.4786 C 67.857147,479.13702 98.222588,489.80291 105.85715,489.82614 C 107.78215,489.832 109.88516,490.27077 110.53051,490.8012 C 111.73681,491.79268 115.54087,486.31128 117.7955,480.33282 C 119.52818,475.73837 119.11865,474.7849 115.10715,474.07384 C 113.04465,473.70825 108.95924,472.05958 106.02846,470.41012 C 101.66969,467.95697 100.79186,467.02311 101.20569,465.27951 C 101.48394,464.10713 102.67468,457.97292 103.85177,451.64792 C 105.02885,445.32292 106.44092,438.34792 106.9897,436.14792 C 107.53848,433.94792 108.00502,431.47292 108.02645,430.64792 C 108.04788,429.82292 108.66428,426.67292 109.39621,423.64792 C 113.25803,407.68757 113.97695,402.45875 112.47132,401.28203 C 111.6732,400.65827 109.81637,395.64792 108.34503,390.14792 C 106.87369,384.64792 104.31117,375.19792 102.65055,369.14792 C 97.359672,349.87214 95.378428,332.58398 97.905032,331.02245 C 98.464003,330.67699 98.504581,334.64823 98.18815,334.13623 C 97.871719,333.62424 97.847153,333.29606 98.383779,333.29606 C 98.920405,333.29606 99.879069,331.21042 100.10957,331.89792 C 100.75102,333.81118 135.62026,333.32495 148.35715,331.22514 C 162.33001,328.92157 162.56327,328.85613 163.25826,327.04502 C 163.6002,326.15394 163.23755,321.53755 162.45236,316.78639 C 161.66717,312.03523 160.70979,303.19792 160.32484,297.14792 C 159.49219,284.06185 159.443,283.65557 158.4129,281.35479 C 157.97134,280.36857 157.85194,279.31979 158.14756,279.02417 C 158.44318,278.72855 157.80387,275.30685 156.72688,271.42038 C 154.93498,264.9541 154.89826,264.08105 156.29447,261.13876 C 157.8901,257.77622 160.85715,254.68857 160.85715,256.39062 C 160.85715,256.93379 159.95715,258.52237 158.85715,259.92079 C 156.57679,262.8198 156.40344,264.96044 157.95128,271.10748 L 159.04542,275.45268 L 165.1522,272.42279 C 172.29389,268.87942 179.27557,262.17808 178.34467,259.76004 C 178.00331,258.87337 177.0493,254.59534 176.22462,250.2533 C 175.39995,245.91125 174.0085,240.56741 173.13251,238.37809 C 171.35318,233.93112 168.30881,232.23618 153.02585,227.18377 L 144.69454,224.42952 L 142.02585,226.90927 C 140.55806,228.27313 138.23215,230.09734 136.85715,230.96306 C 130.02602,235.26407 114.69315,235.38308 108.50418,231.18314 C 105.48837,229.13655 104.84558,229.05649 100.43051,230.17752 C 94.895238,231.58298 91.790211,234.84462 89.510863,241.64792 C 88.68165,244.12292 86.159617,250.98489 83.906344,256.89673 C 79.983648,267.1886 79.879154,267.75187 81.448326,270.14673 C 83.058213,272.60373 84.016559,273.06891 86.707499,272.69952 C 87.450193,272.59757 87.761135,272.99425 87.398482,273.58104 C 86.987742,274.24563 87.861741,274.64792 89.716343,274.64792 C 91.353819,274.64792 93.405376,274.92106 94.27536,275.25491 C 96.346137,276.04954 96.346466,273.44027 94.276356,267.36483 C 93.406921,264.81318 92.870968,261.92052 93.08535,260.93669 C 93.306174,259.9233 94.258492,261.74875 95.282302,265.14792 C 96.874462,270.43407 96.993821,273.11101 96.28553,287.64792 C 95.321012,307.44363 95.457476,311.31685 97.38099,318.73993 C 98.192876,321.8731 98.480189,328.36979 98.424041,329.9404 L 98.321953,332.79606 L 97.517516,329.79606 C 93.707334,315.58669 93.590785,309.35053 94.254733,298.3374 C 94.625752,292.18319 95.14673,285.57292 95.412462,283.64792 C 95.83651,280.57606 95.544311,280.88187 93.023764,286.14792 C 91.444248,289.44792 89.351632,294.62292 88.373507,297.64792 C 87.395383,300.67292 83.34537,308.09792 79.373479,314.14792 C 73.052614,323.77589 72.070969,325.8963 71.503343,331.14792 C 70.901028,336.72048 70.516516,337.44923 66.105987,341.37735 C 63.494125,343.70354 58.447775,344.36104 57.622775,344.35562 C 56.586019,344.34882 56.555751,343.43461 58.122775,343.24234 C 63.940866,342.53356 67.812084,338.38402 67.167081,337.34039 C 66.823104,336.78382 67.048006,336.64784 67.673322,337.03431 C 68.348749,337.45175 68.991649,336.81399 69.281687,335.43882 C 69.547433,334.17882 70.252674,330.68378 70.84889,327.67204 C 71.445106,324.66031 72.740438,321.28531 73.727407,320.17204 C 77.663327,315.73246 86.648952,299.85545 87.889863,295.14792 C 88.614767,292.39792 90.043215,288.52024 91.064192,286.53084 C 92.08517,284.54145 93.324845,281.50395 93.819025,279.78084 C 94.571367,277.15758 94.444203,276.64701 93.037341,276.64234 C 89.654633,276.63112 83.67607,274.46684 81.774281,272.56505 C 79.836948,270.62772 79.813403,270.63278 78.839214,273.19509 C 78.299077,274.61575 77.857147,276.09436 77.857147,276.48089 C 77.857147,276.86741 76.750796,278.81179 75.398589,280.80174 C 74.046382,282.7917 71.80827,287.28366 70.425007,290.78388 C 67.828333,297.35453 62.88238,315.77662 62.866269,318.93776 C 62.861252,319.92217 61.894951,322.61366 60.718933,324.91884 C 59.459359,327.38781 57.746163,333.4411 57.858803,336.629 L 57.136888,344.14792 L 56.812093,343.89589 C 56.730477,339.39658 57.496757,329.83554 58.836377,326.88416 C 59.900796,324.53909 61.060956,320.93909 61.414512,318.88416 C 63.692209,305.64575 68.540106,291.02185 74.413347,279.67261 C 76.342521,275.94474 78.11821,271.60165 78.359324,270.02129 C 79.385054,263.29825 89.398082,237.11634 92.497671,233.05257 C 94.336879,230.64124 96.056082,229.62993 99.166433,229.1297 C 101.47133,228.75902 104.35381,227.82397 105.57196,227.05182 C 106.79011,226.27968 108.40787,225.64792 109.16698,225.64792 C 111.02641,225.64792 113.88869,220.18152 113.1203,218.93824 C 112.78245,218.39159 112.99533,217.64192 113.59337,217.27231 C 114.31464,216.82654 114.89113,219.57091 114.67818,221.795 C 114.40941,224.60211 113.82809,225.30367 111.10715,226.10472 C 103.5644,228.32529 110.49135,232.65146 121.57503,232.64234 C 125.30519,232.63928 129.95182,232.19376 131.90086,231.6523 C 135.71014,230.59405 144.14234,223.64792 141.6177,223.64792 C 140.79774,223.64792 138.94118,222.71526 137.49201,221.57534 C 135.38634,219.91902 134.85715,218.65193 134.85715,215.26647 C 134.85715,212.93651 134.22711,210.16855 133.45706,209.11545 C 132.30535,207.54038 132.28574,206.87411 133.34652,205.35962 C 134.05578,204.34703 134.39949,202.61384 134.11033,201.5081 C 133.70414,199.95481 134.01351,199.57159 135.47087,199.82279 C 136.79886,200.05169 137.35715,199.55597 137.35715,198.14792 C 137.35715,197.04792 136.81084,196.25502 136.14314,196.38592 C 135.42399,196.52691 135.17087,195.99395 135.52218,195.07845 C 135.84836,194.22844 136.71914,193.76472 137.45725,194.04796 C 138.19536,194.3312 139.46962,193.8926 140.28893,193.07328 C 142.12542,191.23679 143.43072,184.82149 142.21521,183.60598 C 141.16238,182.55315 136.85715,183.48407 136.85715,184.76455 C 136.85715,185.2504 136.37683,185.64792 135.78976,185.64792 C 135.1736,185.64792 134.99365,184.79319 135.36409,183.62604 C 135.71704,182.514 135.01443,178.26468 133.80275,174.18311 C 131.77464,167.35141 131.3121,166.64809 127.97842,165.3269 C 122.30312,163.0777 117.68733,162.30466 116.95996,163.48156 C 116.60393,164.05764 113.10138,164.62275 109.17653,164.73735 C 101.2185,164.96972 101.73282,164.38806 100.19587,174.89385 C 99.652118,178.61062 99.671324,178.63509 102.66298,178.03675 C 106.13892,177.34157 113.75749,179.47344 111.89991,180.62149 C 111.24182,181.02821 108.6631,180.97982 106.16941,180.51395 C 100.97071,179.54272 99.857147,179.94872 99.857147,182.81535 C 99.857147,184.48641 100.30584,184.75212 102.28775,184.25469 C 103.62458,183.91917 105.98708,184.12703 107.53775,184.7166 C 110.12721,185.70113 110.20526,185.87356 108.49473,186.83084 C 107.4704,187.40409 105.10791,187.62574 103.24473,187.32339 C 99.201019,186.66719 99.012171,187.24995 100.20039,196.71794 C 100.8654,202.01685 103.79603,209.29367 107.02278,213.65808 C 108.94774,216.26173 109.86203,216.67643 113.31604,216.51252 C 115.53865,216.40705 117.80715,216.01978 118.35715,215.65193 C 118.90715,215.28408 120.93215,214.37913 122.85715,213.64092 C 124.78215,212.90272 127.55161,211.4773 129.01152,210.47332 C 132.48524,208.08445 133.62041,208.14704 131.39616,210.60481 C 128.90082,213.36213 117.1313,217.64792 112.05455,217.64792 C 108.91914,217.64792 107.61749,217.18589 107.12439,215.89792 C 106.7559,214.93542 105.70488,213.47292 104.78879,212.64792 C 103.87271,211.82292 102.10342,208.5416 100.85705,205.3561 C 98.902666,200.36106 98.594258,197.74722 98.615234,186.3561 C 98.65501,164.7548 98.752643,163.66591 100.66383,163.50814 C 101.59516,163.43126 104.09837,163.47522 106.22653,163.60581 C 108.79023,163.76313 109.87072,163.4789 109.42856,162.76347 C 108.96385,162.01156 111.12899,161.82224 116.55918,162.13999 C 120.84806,162.39095 125.13579,162.63654 126.08746,162.68574 C 127.03913,162.73493 128.06604,163.1769 128.36948,163.66788 C 128.67292,164.15886 129.50969,164.33475 130.22896,164.05874 C 131.86837,163.42964 133.92449,165.82901 134.33495,168.85017 C 134.50664,170.11393 135.18167,173.51042 135.835,176.39792 C 136.9745,181.4341 137.15763,181.64792 140.33161,181.64792 C 142.99796,181.64792 143.75828,182.11785 144.24785,184.06846 C 144.58198,185.39975 144.5543,187.27357 144.18632,188.2325 C 143.73034,189.42076 143.88986,189.74574 144.68721,189.25295 C 145.33068,188.85526 145.85715,187.233 145.85715,185.64792 C 145.85715,184.06284 146.31776,182.48128 146.88074,182.13334 C 148.80897,180.94163 146.62906,190.08359 144.65011,191.48801 C 143.16442,192.54238 143.01129,193.12873 143.93192,194.23801 C 144.57549,195.01346 144.6798,195.64792 144.16374,195.64792 C 143.64767,195.64792 142.21378,197.44792 140.97731,199.64792 C 138.81163,203.50122 137.49078,204.48289 136.60438,202.89792 C 136.37369,202.48542 136.33619,202.74722 136.52105,203.47971 C 136.7059,204.21219 136.85715,208.27218 136.85715,212.50189 L 136.85715,220.19229 L 150.60715,224.96059 C 174.74984,233.33292 173.34152,232.05617 177.40541,249.25529 C 178.78829,255.10788 180.40055,260.79476 180.98821,261.89281 C 181.79929,263.40832 181.76594,263.70958 180.84978,263.14337 C 180.01416,262.62693 179.81718,262.97434 180.20947,264.27269 C 180.52109,265.30407 181.48131,270.64792 182.34329,276.14792 C 183.20528,281.64792 184.63295,289.52292 185.51589,293.64792 C 186.39883,297.77292 187.43801,307.44792 187.82519,315.14792 C 188.22967,323.19219 189.29071,331.98928 190.31934,335.82703 C 191.30396,339.50055 191.83798,343.55055 191.50607,344.82703 C 190.98615,346.82656 184.59114,354.80501 183.49626,354.80501 C 182.27676,354.80501 183.46724,351.58906 184.84579,351.15152 C 185.75621,350.86257 187.42066,348.94355 188.54457,346.88703 C 190.56825,343.18413 190.57008,343.08014 188.73341,336.14792 C 187.66252,332.10603 186.64557,323.86558 186.32693,316.64792 C 185.84771,305.79305 185.27184,300.02509 184.28022,296.14792 C 183.93155,294.78465 180.79557,275.80682 180.36037,272.42639 C 179.8284,268.29429 178.82593,265.64792 177.79264,265.64792 C 177.28129,265.64792 175.17412,267.16321 173.11003,269.01524 C 171.04595,270.86726 168.23215,272.73212 166.85715,273.15937 C 159.88544,275.32566 159.39954,276.58823 162.27645,285.06197 C 163.14583,287.62268 163.85715,291.40207 163.85715,293.46061 C 163.85715,299.25439 169.60921,315.98046 175.35616,326.89792 C 178.29754,332.48564 177.19553,333.38718 174.13381,327.89792 C 168.69926,318.15452 164.09162,304.35904 162.02643,291.64792 C 160.42038,281.76278 161.73887,301.63895 163.57578,315.00435 C 164.8469,324.25301 164.94521,327.27727 164.02275,328.75435 C 163.20392,330.06551 163.17566,330.64792 163.93087,330.64792 C 165.45607,330.64792 164.41619,337.3944 160.38572,353.64792 C 156.43397,369.58399 154.75315,374.04557 147.25748,388.49562 C 141.81551,398.98656 141.66687,399.47972 142.91035,402.91849 C 144.03285,406.02273 143.97355,406.82132 142.4476,409.15023 C 140.3277,412.3856 139.33701,411.8836 140.93227,408.38239 C 141.98693,406.06766 141.69987,405.48141 137.46971,401.31115 C 133.23753,397.13889 132.13823,395.64792 133.29417,395.64792 C 133.53453,395.64792 135.33063,397.33542 137.2855,399.39792 C 140.72191,403.02353 140.84009,403.06601 140.84848,400.67835 C 140.85325,399.32008 144.01255,391.89508 147.86916,384.17835 C 153.61462,372.68216 155.50236,367.61918 158.32031,356.14792 C 162.06153,340.91824 163.2656,332.01839 161.7145,331.05976 C 161.17155,330.72419 155.91903,331.14375 150.04223,331.9921 C 133.19716,334.42379 114.138,335.55298 106.4748,334.57332 C 102.6895,334.08941 99.215388,333.92652 98.754536,334.21134 C 97.518948,334.97497 98.566625,348.23201 100.40911,355.14792 C 101.28827,358.44792 103.08181,365.19792 104.39474,370.14792 C 112.11006,399.23606 112.67854,401.15986 113.35793,400.48047 C 113.82037,400.01803 114.25409,397.40289 117.80802,373.64792 C 118.91886,366.22292 120.03829,359.02292 120.29565,357.64792 C 120.553,356.27292 121.00964,353.10348 121.31039,350.60473 C 121.8416,346.19133 121.76625,346.0342 118.67289,345.10473 C 116.92151,344.57848 115.31191,343.59416 115.096,342.91735 C 114.81364,342.03224 115.49702,342.09923 117.53029,343.15598 C 120.16676,344.52623 120.4704,344.47542 122.03875,342.40149 C 123.77313,340.10802 125.702,340.486 124.2326,342.83139 C 123.77895,343.55548 123.27997,345.27292 123.12375,346.64792 C 122.83483,349.19084 119.81557,369.43881 117.83018,382.14792 C 117.22875,385.99792 116.10234,393.98442 115.32706,399.8957 C 114.55177,405.80698 112.96235,414.71171 111.795,419.68398 C 110.62765,424.65624 109.93778,429.41568 110.26197,430.26049 C 110.58616,431.10531 110.17769,432.47023 109.35427,433.29365 C 108.53085,434.11707 107.85715,435.80764 107.85715,437.05048 C 107.85715,438.29332 106.7374,444.89868 105.36882,451.72905 C 104.00024,458.55943 102.87524,464.9051 102.86882,465.83053 C 102.85798,467.39251 106.29982,469.33008 108.18148,468.82127 C 108.63486,468.69867 108.74321,469.02325 108.42227,469.54255 C 107.61864,470.84285 113.96233,472.79822 119.60575,472.98971 L 124.26804,473.14792 L 125.61086,467.19222 C 126.34941,463.91659 127.4207,460.6738 127.99151,459.98603 C 128.56231,459.29825 128.69606,458.19629 128.28873,457.53722 C 127.83222,456.79857 127.97175,456.60071 128.65247,457.02142 C 130.47412,458.14726 132.23812,453.536 132.42949,447.14792 C 132.56054,442.7738 133.47564,439.28094 135.80652,434.25815 C 137.84518,429.86509 138.79493,426.53614 138.42739,425.07177 C 137.74407,422.34919 139.65157,412.64792 140.87021,412.64792 C 141.33624,412.64792 141.29895,414.10745 140.78734,415.89132 C 140.27574,417.67519 139.85715,421.29015 139.85715,423.92456 C 139.85715,427.06159 138.98759,430.43041 137.33717,433.68734 C 133.16196,441.92672 133.13657,445.93169 137.20333,454.79404 C 139.13308,458.99941 141.1524,462.71236 141.69068,463.04504 C 142.22897,463.37772 142.45535,464.4684 142.19375,465.46877 C 140.88881,470.45887 150.28174,471.4846 159.09643,467.31459 C 162.19671,465.84792 165.1403,464.64792 165.63774,464.64792 C 166.13519,464.64792 166.4316,460.71042 166.29644,455.89792 C 166.0944,448.7044 165.34463,445.10225 162.0815,435.64792 C 159.89845,429.32292 156.97187,421.67292 155.57799,418.64792 C 154.1841,415.62292 152.31142,410.67292 151.41647,407.64792 C 149.75981,402.04826 146.02791,397.42666 144.06182,397.42666 C 142.71451,397.42666 142.62856,395.75702 143.93432,394.95001 C 145.40701,394.03984 150.54704,401.38587 153.2145,409.2285 C 154.53078,413.09854 156.31776,417.63796 157.18555,419.31609 C 158.05335,420.99422 160.65548,427.71789 162.96808,434.25758 C 166.27879,443.61979 167.19277,447.63626 167.26673,453.14792 C 167.31839,456.99792 167.72172,460.70686 168.16303,461.39 C 169.19428,462.98639 167.55761,465.92784 165.4674,466.23462 C 164.5794,466.36495 161.78808,467.47113 159.26445,468.69279 C 156.74082,469.91446 152.72562,471.13385 150.34177,471.40254 C 146.60413,471.82383 145.15509,472.76908 139.81492,478.2695 C 133.80327,484.46154 133.03572,484.96497 129.85715,484.80072 C 126.91101,484.64848 121.36069,488.13385 121.04677,490.33327 C 120.74874,492.42138 121.12646,492.52057 130.54677,492.82788 C 139.65996,493.12518 140.89741,492.92376 147.95933,489.99366 C 152.14053,488.25881 157.54053,485.82977 159.95933,484.59579 C 162.37813,483.36181 164.58215,482.41335 164.85715,482.4881 C 167.88941,483.3123 170.81344,477.00421 168.48053,474.6713 C 167.91767,474.10844 167.80429,473.64792 168.22858,473.64792 C 168.65286,473.64792 168.27039,472.9183 167.37863,472.02654 C 165.65646,470.30438 165.11293,465.22047 166.84311,464.64452 C 168.04305,464.24508 170.85715,474.24009 170.85715,478.71116 C 170.85715,481.28576 170.25154,482.01684 166.86158,483.53457 C 164.66402,484.51845 163.20152,485.6936 163.61158,486.14601 C 164.02164,486.59842 163.82539,486.66387 163.17546,486.29145 C 162.01943,485.62902 148.93126,490.24327 143.73594,493.14488 C 141.22679,494.54625 138.8372,494.63614 125.10715,493.84566 z M 115.9847,487.89792 C 117.22857,486.31186 117.1932,486.27649 115.60715,487.52036 C 114.64465,488.27521 113.85715,489.06271 113.85715,489.27036 C 113.85715,490.0934 114.67833,489.56367 115.9847,487.89792 z M 139.85715,199.41764 C 139.85715,198.80591 140.60439,197.47971 141.51769,196.47053 C 143.58973,194.18094 142.61879,192.97283 140.17182,194.79592 C 138.45873,196.07224 137.40358,202.04628 139.07353,201.01419 C 139.50452,200.74782 139.85715,200.02938 139.85715,199.41764 z M 181.64611,353.51078 C 178.89674,352.33601 176.08392,346.7078 175.29068,344.45953 C 174.02653,340.87654 174.03222,340.00336 175.33674,337.38838 C 176.15531,335.74752 176.34508,331.65337 176.04645,331.17018 C 175.74782,330.68698 176.03253,330.29164 176.67913,330.29164 C 177.44206,330.29164 177.84112,333.4378 177.38029,334.89792 C 175.73768,340.10251 178.96048,344.21169 180.94958,348.84594 C 183.07385,353.79508 185.24369,356.81617 181.64611,353.51078 z M 112.60715,208.98564 C 113.29465,208.70823 114.41965,208.70823 115.10715,208.98564 C 115.79465,209.26305 115.23215,209.49003 113.85715,209.49003 C 112.48215,209.49003 111.91965,209.26305 112.60715,208.98564 z M 107.08227,204.05318 C 107.98965,202.06169 108.39152,201.82053 108.81083,203.01588 C 109.1113,203.87247 109.69465,204.5901 110.10715,204.61061 C 110.51965,204.63113 112.74715,204.64792 115.05715,204.64792 C 117.59185,204.64792 118.88047,205.00608 118.30715,205.55122 C 117.78283,206.04975 115.22872,206.12079 112.60715,205.70975 C 109.99465,205.30013 107.85715,205.34365 107.85715,205.80645 C 107.85715,206.26926 107.41679,206.64792 106.87859,206.64792 C 106.29284,206.64792 106.3746,205.60635 107.08227,204.05318 z M 121.60715,204.25587 C 119.78964,202.87619 119.30832,201.63165 120.60715,201.67016 C 121.01965,201.68239 122.48215,202.57238 123.85715,203.64792 C 125.50285,204.93521 125.84457,205.60018 124.85715,205.59388 C 124.03215,205.58862 122.56965,204.98652 121.60715,204.25587 z M 109.85715,199.64792 C 108.56446,198.81252 108.59086,198.67643 110.04813,198.66323 C 110.97817,198.65481 112.01723,199.09792 112.35715,199.64792 C 113.13933,200.91352 111.81552,200.91352 109.85715,199.64792 z M 114.85715,199.64792 C 114.85715,199.09792 115.55871,198.64792 116.41616,198.64792 C 117.27362,198.64792 117.69707,199.09792 117.35715,199.64792 C 117.01723,200.19792 116.31567,200.64792 115.79813,200.64792 C 115.28059,200.64792 114.85715,200.19792 114.85715,199.64792 z M 118.94612,186.72407 C 116.77339,185.34866 123.7088,183.77143 128.43204,184.56681 L 132.35715,185.22778 L 128.95792,186.43785 C 124.96112,187.86065 120.9239,187.97607 118.94612,186.72407 z M 117.32049,180.59318 C 115.11969,179.77423 115.47396,179.59255 122.441,177.9672 C 125.37122,177.28361 127.6311,177.38138 130.441,178.31331 C 133.9681,179.48311 134.03881,179.56763 131.15272,179.16414 C 129.39029,178.91775 125.9988,179.30286 123.61607,180.01996 C 121.23334,180.73705 118.40033,180.995 117.32049,180.59318 z M 146.92483,173.83218 C 146.84762,166.62743 145.97741,164.53119 141.05756,159.69868 C 138.3298,157.01935 136.40885,156.10103 132.45156,155.58455 C 129.20951,155.16141 127.10707,155.30961 126.66937,155.99212 C 126.21124,156.7065 124.42066,156.28501 121.30657,154.72976 C 118.47275,153.31448 116.38058,152.78393 115.99434,153.38263 C 115.64388,153.92587 113.23014,154.68379 110.63045,155.0669 C 108.03077,155.45002 106.64914,159.83543 106.35038,160.31882 C 106.05163,160.80222 104.35364,161.89502 102.57708,162.74727 L 99.34696,164.29681 L 102.34696,161.78756 C 103.99696,160.40747 107.36127,154.67853 111.03298,153.55001 C 116.6401,151.82665 118.08089,151.70087 120.03298,152.76433 C 121.31127,153.46072 123.93215,154.085 125.85715,154.15161 C 138.02659,154.5727 137.37769,154.35178 142.71875,159.89242 C 147.11531,164.45327 147.861,165.83058 148.43919,170.45824 C 148.83063,173.59124 148.03381,181.07716 147.41222,182.36313 C 146.5472,184.15269 146.98028,179.00685 146.92483,173.83218 z "
       id="path4879"
       sodipodi:nodetypes="cssscccssssscccssssssssssssssssssssssssssssssssssssssscccssscccssssssssssssssscccssssssssssssssssssssssssscccsssssssssssssssssssssssssssssssssssssssssssssssssssssssssssssssssssssssssssscccsssssssssssssssssssssssssssssssssssssssssssssssssssssssssssssssscccsssssssssssssssssssssssssssssssssssssssssssssccssccsssccssssssccssccsssssssccsssccssccssscccccccssssccssssssscccssssssc" />
  </g>
</svg>
