<?xml version="1.0" encoding="UTF-8" standalone="no"?>
<!-- Created with Inkscape (http://www.inkscape.org/) -->
<svg
   xmlns:dc="http://purl.org/dc/elements/1.1/"
   xmlns:cc="http://web.resource.org/cc/"
   xmlns:rdf="http://www.w3.org/1999/02/22-rdf-syntax-ns#"
   xmlns:svg="http://www.w3.org/2000/svg"
   xmlns="http://www.w3.org/2000/svg"
   xmlns:sodipodi="http://sodipodi.sourceforge.net/DTD/sodipodi-0.dtd"
   xmlns:inkscape="http://www.inkscape.org/namespaces/inkscape"
   width="210mm"
   height="297mm"
   id="svg2580"
   sodipodi:version="0.32"
   inkscape:version="0.45.1"
   sodipodi:docbase="/home/rover/code/python/herobot/arte"
   sodipodi:docname="hombre-0.svg"
   inkscape:output_extension="org.inkscape.output.svg.inkscape">
  <defs
     id="defs2582" />
  <sodipodi:namedview
     id="base"
     pagecolor="#ffffff"
     bordercolor="#666666"
     borderopacity="1.0"
     inkscape:pageopacity="0.0"
     inkscape:pageshadow="2"
     inkscape:zoom="0.94861986"
     inkscape:cx="429.13304"
     inkscape:cy="633.04368"
     inkscape:document-units="px"
     inkscape:current-layer="layer1"
     inkscape:window-width="1022"
     inkscape:window-height="713"
     inkscape:window-x="0"
     inkscape:window-y="0" />
  <metadata
     id="metadata2585">
    <rdf:RDF>
      <cc:Work
         rdf:about="">
        <dc:format>image/svg+xml</dc:format>
        <dc:type
           rdf:resource="http://purl.org/dc/dcmitype/StillImage" />
      </cc:Work>
    </rdf:RDF>
  </metadata>
  <g
     inkscape:label="Capa 1"
     inkscape:groupmode="layer"
     id="layer1">
    <path
       style="fill:#808080;fill-opacity:1;stroke:#999999;stroke-width:2;stroke-miterlimit:1;stroke-opacity:0"
       d="M 591.94909,544.21889 L 597.93751,548.00815 C 605.30295,551.71222 616.9298,551.71766 620.95214,556.93529 L 616.35091,565.91697 C 612.82627,572.97388 602.69156,570.01345 595.82101,570.77489 L 583.36948,570.44624 C 576.49893,571.20768 570.67543,569.79714 567.21979,565.80823 L 567.17167,559.90287 C 578.85976,558.54075 585.07855,544.98033 591.94909,544.21889 z "
       id="path2228"
       sodipodi:nodetypes="ccccccccc"
       inkscape:export-filename="/home/rover/code/python/herobot/arte/pre/hombre-0-2.png"
       inkscape:export-xdpi="25.698784"
       inkscape:export-ydpi="25.698784" />
    <path
       style="fill:#afe9dd;fill-opacity:1;stroke:#999999;stroke-width:2;stroke-miterlimit:1;stroke-opacity:0"
       d="M 561.17254,391.94593 L 579.70814,394.76912 C 587.42199,394.76912 614.60236,390.1334 616.51645,389.96788 C 618.43054,399.04506 618.41777,417.61837 618.41777,425.33222 L 614.55041,474.94343 C 625.64165,481.73301 620.57984,554.78848 617.28827,554.88465 C 615.64248,554.93274 613.60297,553.10434 595.96563,549.78645 C 582.33161,534.01373 605.44646,499.28842 592.60762,531.73553 C 607.09626,555.02642 574.28653,510.84942 563.31092,496.52342 L 551.36643,476.65413 C 557.70488,448.93427 555.83711,400.7701 561.17254,391.94593 z "
       id="path2224"
       sodipodi:nodetypes="cccccsccccc"
       inkscape:export-filename="/home/rover/code/python/herobot/arte/pre/hombre-0-2.png"
       inkscape:export-xdpi="25.698784"
       inkscape:export-ydpi="25.698784" />
    <path
       style="fill:#808080;fill-opacity:1;stroke:#999999;stroke-width:2;stroke-miterlimit:1;stroke-opacity:0"
       d="M 418.77903,549.7253 L 422.14106,541.50894 C 430.34164,540.66019 436.28787,535.25518 442.48787,537.48294 L 447.30283,546.67269 C 451.6466,552.05005 429.90949,561.8921 424.53214,566.23586 L 412.89004,563.85351 C 407.51269,568.19727 402.74214,563.04442 397.68164,561.54636 L 397.81914,558.31188 C 409.92628,554.7171 413.40167,554.06906 418.77903,549.7253 z "
       id="path2220"
       sodipodi:nodetypes="ccccccccc"
       inkscape:export-filename="/home/rover/code/python/herobot/arte/pre/hombre-0-1.png"
       inkscape:export-xdpi="26"
       inkscape:export-ydpi="26" />
    <path
       style="fill:#808080;fill-opacity:1;stroke:#999999;stroke-width:2;stroke-miterlimit:1;stroke-opacity:0"
       d="M 367.6844,544.58868 L 375.46275,540.30978 C 382.37536,544.80263 393.93086,546.08875 397.35399,551.7177 L 391.79141,560.13789 C 391.79141,567.05051 377.45462,560.42065 370.54201,560.42065 L 351.2106,557.63936 C 344.29799,557.63936 347.07683,555.7114 344.0816,551.36612 L 346.22105,548.93641 C 357.98805,548.87004 360.77179,544.58868 367.6844,544.58868 z "
       id="path2222"
       sodipodi:nodetypes="ccccccccc"
       inkscape:export-filename="/home/rover/code/python/herobot/arte/pre/hombre-0-1.png"
       inkscape:export-xdpi="26"
       inkscape:export-ydpi="26" />
    <path
       style="fill:#afe9dd;fill-opacity:1;stroke:#999999;stroke-width:2;stroke-miterlimit:1;stroke-opacity:0"
       d="M 381.21983,393.53031 L 400.50084,393.37188 C 408.21469,393.37188 435.39506,388.73616 437.30915,388.57064 C 439.22324,397.64782 433.93902,416.88995 430.21199,423.67204 L 422.02792,475.4531 C 433.11916,482.24268 446.90692,537.54371 443.61535,537.63988 C 441.96956,537.68797 437.39771,545.06481 419.38767,545.10125 C 415.58167,538.18744 406.61391,518.92872 412.50892,507.62017 C 420.95401,502.56376 409.5592,519.21668 407.67959,520.1681 C 405.32188,540.83837 411.00774,538.872 398.79612,548.87194 C 391.43692,547.08743 383.30745,544.22955 374.71054,540.97708 C 371.62533,534.05367 383.11797,505.99566 386.71254,492.88996 L 390.59261,457.45905 C 389.93905,434.18865 375.8844,402.35448 381.21983,393.53031 z "
       id="path2216"
       sodipodi:nodetypes="cccccscccccccc"
       inkscape:export-filename="/home/rover/code/python/herobot/arte/pre/hombre-0-1.png"
       inkscape:export-xdpi="26"
       inkscape:export-ydpi="26" />
    <path
       style="fill:#ffeeaa;fill-opacity:1;stroke:#999999;stroke-width:2;stroke-miterlimit:1;stroke-opacity:0"
       d="M 552.72746,331.36643 L 570.18148,324.33858 C 576.42695,330.80329 559.06841,337.29214 561.65033,343.70447 L 561.5004,371.81454 C 559.17529,389.74912 560.56888,414.01218 558.01751,425.75789 L 551.37862,421.61648 C 544.96629,424.1984 550.49564,406.30998 547.91372,399.89765 L 546.79532,353.49451 C 544.2134,347.08218 546.31514,333.94835 552.72746,331.36643 z "
       id="path2210"
       sodipodi:nodetypes="ccccccccc"
       inkscape:export-filename="/home/rover/code/python/herobot/arte/pre/hombre-0-2.png"
       inkscape:export-xdpi="25.698784"
       inkscape:export-ydpi="25.698784" />
    <path
       style="fill:#ffaaaa;fill-opacity:1;stroke:#999999;stroke-width:2;stroke-miterlimit:1;stroke-opacity:0"
       d="M 580.16595,298.92211 L 601.13173,293.30328 C 633.54397,294.04869 633.79457,317.30012 633.79457,332.72783 L 620.37243,337.87771 L 614.42279,336.19349 C 611.66688,355.96835 613.84439,388.83572 615.26834,397.00722 C 607.92826,400.62142 591.47004,393.43612 591.47004,393.43612 L 565.91894,394.55147 C 558.6607,394.22469 558.51256,394.07072 558.60442,367.37478 C 562.12876,353.52257 553.65827,337.18622 553.65827,337.18622 L 542.03132,335.0602 C 541.70455,337.14972 539.73697,307.88681 548.19158,302.90416 C 563.62587,293.80811 562.64874,292.71331 580.16595,298.92211 z "
       id="path2194"
       sodipodi:nodetypes="cccccccccccsc"
       inkscape:export-filename="/home/rover/code/python/herobot/arte/pre/hombre-0-2.png"
       inkscape:export-xdpi="25.698784"
       inkscape:export-ydpi="25.698784" />
    <path
       style="fill:#ffeeaa;fill-opacity:1;stroke:#999999;stroke-width:1.84532511;stroke-miterlimit:1;stroke-opacity:0"
       d="M 596.8405,428.58262 L 598.46064,419.51 C 594.5359,415.31026 598.59161,417.04653 603.23814,407.75352 L 610.14337,387.89159 C 618.50428,372.60454 617.94269,351.27276 614.54409,334.6762 L 633.92311,333.75359 C 631.20159,344.47211 632.07189,351.00583 632.16029,357.71612 L 630.72204,375.13751 C 630.81043,381.84782 612.57581,425.52514 596.8405,428.58262 z "
       id="path2214"
       sodipodi:nodetypes="ccccccccc"
       inkscape:export-filename="/home/rover/code/python/herobot/arte/pre/hombre-0-2.png"
       inkscape:export-xdpi="25.698784"
       inkscape:export-ydpi="25.698784" />
    <path
       style="fill:#ffffff;fill-opacity:1;stroke:#999999;stroke-width:2;stroke-miterlimit:1;stroke-opacity:0"
       d="M 585.19841,222.24059 L 595.86366,228.35961 C 600.35371,232.6457 600.5333,233.92955 603.51492,241.02851 L 603.31674,258.62916 C 603.31674,265.54177 598.11749,264.1241 599.11443,261.36431 L 567.02481,260.10225 C 560.11219,260.10225 554.54716,254.53722 554.54716,247.62461 C 554.54716,247.62461 553.05005,237.32425 561.07437,229.85636 C 569.09868,222.38847 578.28579,222.24059 585.19841,222.24059 z "
       id="path2208"
       sodipodi:nodetypes="ccccccccc"
       inkscape:export-filename="/home/rover/code/python/herobot/arte/pre/hombre-0-2.png"
       inkscape:export-xdpi="25.698784"
       inkscape:export-ydpi="25.698784" />
    <path
       style="fill:#ffffff;fill-opacity:1;stroke:#999999;stroke-width:2;stroke-miterlimit:1;stroke-opacity:0"
       d="M 407.39838,222.84173 L 417.13187,227.09724 C 424.04449,227.09724 428.32381,239.00313 428.32381,245.91574 L 426.07577,264.44814 C 422.16239,269.49724 422.74003,264.72524 421.12805,266.99694 L 390.34289,262.93961 C 383.43027,262.93961 377.86524,257.37458 377.86524,250.46197 L 382.15623,232.50737 C 382.15623,225.59476 400.48576,222.84173 407.39838,222.84173 z "
       id="path2206"
       sodipodi:nodetypes="ccccccccc"
       inkscape:export-filename="/home/rover/code/python/herobot/arte/pre/hombre-0-1.png"
       inkscape:export-xdpi="26"
       inkscape:export-ydpi="26" />
    <path
       style="fill:#ffeeaa;fill-opacity:1;stroke:#999999;stroke-width:2;stroke-miterlimit:1;stroke-opacity:0"
       d="M 593.57616,254.1474 C 603.16778,255.54475 597.01299,267.33084 592.4369,278.90792 C 592.95048,291.00362 597.8948,297.94107 589.66378,299.18865 C 577.17398,301.08173 558.73611,303.00208 568.74862,287.52146 C 557.69391,288.87429 552.85336,273.31893 553.46645,262.51606 C 554.54013,243.59749 550.89356,250.78325 555.77821,237.30987 C 562.86334,236.50386 564.79387,236.6416 568.3777,238.26731 C 573.33406,237.48187 581.04731,235.90149 584.97602,236.31052 C 589.5521,245.20574 587.26588,246.9446 593.57616,254.1474 z "
       id="path2204"
       sodipodi:nodetypes="ccscscccc"
       inkscape:export-filename="/home/rover/code/python/herobot/arte/pre/hombre-0-2.png"
       inkscape:export-xdpi="25.698784"
       inkscape:export-ydpi="25.698784" />
    <path
       style="fill:#ffeeaa;fill-opacity:1;stroke:#999999;stroke-width:2;stroke-miterlimit:1;stroke-opacity:0"
       d="M 416.88855,254.38808 C 426.48017,255.78543 420.32538,270.23597 415.74929,281.81305 C 416.26287,293.90875 430.33841,300.4735 412.97617,302.09378 C 400.39837,303.26757 378.32147,303.85735 392.06101,290.42659 C 383.42887,290.66131 377.65656,279.57839 378.26965,268.77552 C 379.34333,249.85695 378.0546,250.94992 382.93925,237.47654 C 395.55526,240.37927 399.24678,236.39925 407.10421,237.21731 C 411.68029,246.11253 410.57827,247.18528 416.88855,254.38808 z "
       id="path2202"
       sodipodi:nodetypes="ccscsccc"
       inkscape:export-filename="/home/rover/code/python/herobot/arte/pre/hombre-0-1.png"
       inkscape:export-xdpi="26"
       inkscape:export-ydpi="26" />
    <path
       style="fill:#ffeeaa;fill-opacity:1;stroke:#999999;stroke-width:2;stroke-miterlimit:1;stroke-opacity:0"
       d="M 463.59784,423.93125 L 459.15338,425.75317 C 452.28412,419.95561 458.84236,421.55167 455.62307,415.43444 L 454.83441,393.1984 C 447.90805,375.83846 442.38416,352.79943 441.0977,340.37677 L 458.53041,337.21448 C 460.57888,348.11618 460.36717,352.02017 463.58646,358.13738 L 469.40793,404.1875 C 472.62723,410.30472 469.71506,420.71196 463.59784,423.93125 z "
       id="path2200"
       sodipodi:nodetypes="ccccccccc"
       inkscape:export-filename="/home/rover/code/python/herobot/arte/pre/hombre-0-1.png"
       inkscape:export-xdpi="26"
       inkscape:export-ydpi="26" />
    <path
       style="fill:#ffeeaa;fill-opacity:1;stroke:#999999;stroke-width:2;stroke-miterlimit:1;stroke-opacity:0"
       d="M 368.50178,333.81578 L 387.31755,333.81578 C 390.6964,342.14535 372.17051,341.68102 372.17051,348.59364 L 361.53208,374.6133 C 352.67654,390.38145 344.90681,413.40903 338.15297,423.35171 L 336.4579,412.78062 C 329.54529,412.78062 338.43944,402.50182 338.43944,395.58921 L 354.73394,352.12668 C 354.73394,345.21406 361.58917,333.81578 368.50178,333.81578 z "
       id="path2196"
       sodipodi:nodetypes="ccccccccc"
       inkscape:export-filename="/home/rover/code/python/herobot/arte/pre/hombre-0-1.png"
       inkscape:export-xdpi="26"
       inkscape:export-ydpi="26" />
    <path
       style="fill:#ffaaaa;fill-opacity:1;stroke:#999999;stroke-width:2;stroke-miterlimit:1;stroke-opacity:0"
       d="M 401.85419,301.81758 L 425.10969,294.04189 C 453.60855,294.04189 459.68954,319.49447 459.68954,334.92218 L 440.75621,341.33223 L 434.24752,336.10734 C 432.42336,356.06855 436.93487,379.81211 438.35882,387.98361 C 431.01874,391.59781 413.15828,394.46808 413.15828,394.46808 L 387.60718,397.44694 C 380.34894,397.12016 380.2008,396.96619 380.29266,370.27025 C 383.817,356.41804 375.34651,340.08169 375.34651,340.08169 L 358.94456,335.57739 C 358.61779,337.66691 363.66143,309.29147 372.11604,304.30882 C 387.55033,295.21277 384.33698,295.60878 401.85419,301.81758 z "
       id="path2192"
       sodipodi:nodetypes="cccccccccccsc"
       inkscape:export-filename="/home/rover/code/python/herobot/arte/pre/hombre-0-1.png"
       inkscape:export-xdpi="26"
       inkscape:export-ydpi="26" />
    <path
       style="fill:#808080;fill-opacity:1;stroke:#999999;stroke-width:2;stroke-miterlimit:1;stroke-opacity:0"
       d="M 234.01291,550.1678 L 237.37494,541.95144 C 245.57552,541.10269 251.52175,535.69768 257.72175,537.92544 L 262.53671,547.11519 C 266.88048,552.49255 245.14337,562.3346 239.76602,566.67836 L 221.0548,570.02998 C 215.67745,574.37374 216.62763,571.1278 211.56713,569.62974 L 211.70463,566.39526 C 223.81177,562.80048 228.63555,554.51156 234.01291,550.1678 z "
       id="path2190"
       sodipodi:nodetypes="ccccccccc"
       inkscape:export-filename="/home/rover/code/python/herobot/arte/pre/hombre-0-0.png"
       inkscape:export-xdpi="25.870693"
       inkscape:export-ydpi="25.870693" />
    <path
       style="fill:#afe9dd;fill-opacity:1;stroke:#999999;stroke-width:2;stroke-miterlimit:1;stroke-opacity:0"
       d="M 201.36742,407.95434 L 204.91721,399.70557 C 212.63106,399.70557 239.81143,395.06985 241.72552,394.90433 C 243.63961,403.98151 238.54174,421.91918 238.54174,429.63303 L 225.13983,481.78679 C 236.23107,488.57637 263.00934,533.09028 259.71777,533.18645 C 258.07198,533.23454 257.22716,541.35679 239.21712,541.39323 C 235.41112,534.47942 227.66042,523.46456 216.92529,513.95386 C 215.49375,502.74785 206.33469,492.73955 204.45508,493.69097 C 194.27061,516.78381 196.09719,547.00354 183.88557,557.00348 C 176.52637,555.21897 168.3969,549.21485 159.79999,545.96238 C 161.00086,540.90248 174.4999,492.55296 178.09447,479.44726 L 183.32293,431.88084 C 182.66937,408.61044 181.74812,413.5555 201.36742,407.95434 z "
       id="rect2163"
       sodipodi:nodetypes="cccccscccccccc"
       inkscape:export-filename="/home/rover/code/python/herobot/arte/pre/hombre-0-0.png"
       inkscape:export-xdpi="25.870693"
       inkscape:export-ydpi="25.870693" />
    <path
       style="fill:#808080;fill-opacity:1;stroke:#999999;stroke-width:2;stroke-miterlimit:1;stroke-opacity:0"
       d="M 153.2537,550.8742 L 161.03205,546.5953 C 167.94466,551.08815 179.50016,552.37427 182.92329,558.00322 L 177.36071,566.42341 C 177.36071,573.33603 163.02392,566.70617 156.11131,566.70617 L 136.7799,563.92488 C 129.86729,563.92488 132.64613,561.99692 129.6509,557.65164 L 131.79035,555.22193 C 143.55735,555.15556 146.34109,550.8742 153.2537,550.8742 z "
       id="rect2187"
       sodipodi:nodetypes="ccccccccc"
       inkscape:export-filename="/home/rover/code/python/herobot/arte/pre/hombre-0-0.png"
       inkscape:export-xdpi="25.870693"
       inkscape:export-ydpi="25.870693" />
    <path
       style="fill:#ffffff;fill-opacity:1;stroke:#999999;stroke-width:2;stroke-miterlimit:1;stroke-opacity:0"
       d="M 213.64931,229.50196 L 222.26469,231.52125 C 229.17731,231.52125 231.96582,241.37727 231.96582,248.28988 L 231.20859,263.46796 C 231.20859,270.38057 229.17731,266.35398 227.56533,268.62568 L 195.47571,267.36362 C 188.56309,267.36362 182.99806,261.79859 182.99806,254.88598 L 187.28905,236.93138 C 187.28905,230.01877 206.73669,229.50196 213.64931,229.50196 z "
       id="rect2184"
       sodipodi:nodetypes="ccccccccc"
       inkscape:export-filename="/home/rover/code/python/herobot/arte/pre/hombre-0-0.png"
       inkscape:export-xdpi="25.870693"
       inkscape:export-ydpi="25.870693" />
    <path
       style="fill:#ffeeaa;fill-opacity:1;stroke:#999999;stroke-width:2;stroke-miterlimit:1;stroke-opacity:0"
       d="M 221.61696,258.78163 C 231.20858,260.17898 225.05379,274.62952 220.4777,286.2066 C 220.99128,298.3023 230.59439,305.23975 217.70458,306.48733 C 205.13089,307.70431 176.15488,316.26401 196.78942,294.82014 C 188.15728,295.05486 182.38497,283.97194 182.99806,273.16907 C 184.07174,254.2505 182.78301,255.34347 187.66766,241.87009 C 200.28367,244.77282 203.97519,240.7928 211.83262,241.61086 C 216.4087,250.50608 215.30668,251.57883 221.61696,258.78163 z "
       id="path2181"
       sodipodi:nodetypes="ccscsccc"
       inkscape:export-filename="/home/rover/code/python/herobot/arte/pre/hombre-0-0.png"
       inkscape:export-xdpi="25.870693"
       inkscape:export-ydpi="25.870693" />
    <path
       style="fill:#ffeeaa;fill-opacity:1;stroke:#999999;stroke-width:2;stroke-miterlimit:1;stroke-opacity:0"
       d="M 232.80725,332.83437 L 251.62302,332.83437 C 255.00187,341.16394 248.43935,360.55245 248.43935,367.46507 L 229.50852,379.68473 C 229.50852,386.59734 195.79727,411.87752 184.97467,414.87937 L 187.10902,400.23952 C 180.19641,400.23952 193.93289,391.7047 201.38695,388.51912 L 216.27921,345.75771 C 216.27921,338.84509 225.89464,332.83437 232.80725,332.83437 z "
       id="rect2178"
       sodipodi:nodetypes="ccccccccc"
       inkscape:export-filename="/home/rover/code/python/herobot/arte/pre/hombre-0-0.png"
       inkscape:export-xdpi="25.870693"
       inkscape:export-ydpi="25.870693" />
    <path
       style="fill:#ffaaaa;fill-opacity:1;stroke:#999999;stroke-width:2;stroke-miterlimit:1;stroke-opacity:0"
       d="M 208.88504,392.89546 L 238.69275,375.79647 C 241.44615,382.95956 241.69662,385.98285 241.69662,392.89547 C 241.69662,399.80808 239.36654,398.67215 232.45393,398.67215 L 227.60151,398.67215 C 220.68889,398.67215 202.76541,406.38353 204.95689,399.82749 C 207.26756,392.91487 205.20737,396.13041 208.88504,392.89546 z "
       id="rect2166"
       sodipodi:nodetypes="ccsccsc"
       inkscape:export-filename="/home/rover/code/python/herobot/arte/pre/hombre-0-0.png"
       inkscape:export-xdpi="25.870693"
       inkscape:export-ydpi="25.870693" />
    <path
       style="fill:#ffaaaa;fill-opacity:1;stroke:#999999;stroke-width:2;stroke-miterlimit:1;stroke-opacity:0"
       d="M 210.38909,306.76501 L 225.58168,301.09269 C 254.08054,301.09269 254.87176,318.54879 254.87176,333.9765 L 231.88366,334.46054 C 232.86399,350.21502 235.1489,359.69416 232.13879,359.69416 C 232.13879,359.69416 198.90384,392.1388 186.99613,398.25406 C 177.51099,400.08323 186.34115,388.83332 185.29059,375.63467 C 188.81493,361.78246 178.59163,337.38321 178.59163,337.38321 L 175.16044,336.38452 C 174.83367,338.47404 168.3088,314.30533 176.76341,309.32268 C 192.1977,300.22663 192.87188,300.55621 210.38909,306.76501 z "
       id="rect2160"
       sodipodi:nodetypes="cccccccccsc"
       inkscape:export-filename="/home/rover/code/python/herobot/arte/pre/hombre-0-0.png"
       inkscape:export-xdpi="25.870693"
       inkscape:export-ydpi="25.870693" />
    <path
       style="fill:#000000"
       d="M 218.35716,572.02238 C 212.93725,571.64125 211.64756,570.8877 211.18082,567.82934 C 210.93287,566.20467 211.8478,565.55865 216.18061,564.29907 C 219.79759,563.24759 222.59584,561.57029 224.98092,559.02407 C 229.50762,554.19154 237.39817,543.49596 237.10955,542.58381 C 236.86582,541.81353 243.31411,539.80534 246.06011,539.79635 C 247.92886,539.79023 253.06316,537.72567 253.85716,536.66107 C 254.13216,536.29235 255.25716,535.83319 256.35716,535.64072 C 259.0117,535.17624 259.87681,533.82529 258.76524,531.88025 C 258.26564,531.00603 256.96058,528.12446 255.86511,525.47675 C 254.76964,522.82904 253.42486,520.93991 252.87671,521.27869 C 252.32856,521.61746 252.10984,521.29587 252.39067,520.56403 C 252.6715,519.8322 250.89355,516.32132 248.43965,512.7621 C 245.98576,509.20287 242.41022,503.57913 240.49399,500.2649 C 238.57777,496.95067 236.02951,493.35173 234.83118,492.26726 C 233.63285,491.18279 232.01192,489.05693 231.2291,487.54313 C 230.09761,485.35507 229.10558,484.79077 226.3905,484.79077 C 224.51208,484.79077 222.69254,484.33343 222.34708,483.77446 C 222.00162,483.21549 221.30006,483.01704 220.78806,483.33348 C 220.27607,483.64991 219.85716,483.4435 219.85716,482.87479 C 219.85716,482.25921 221.07119,482.08358 222.85716,482.44077 C 225.20588,482.91051 225.85716,482.68799 225.85716,481.41577 C 225.85716,480.4892 225.04517,479.79077 223.96794,479.79077 C 221.9657,479.79077 216.56093,475.8808 218.48472,475.82404 C 219.10487,475.80574 220.19049,476.48749 220.89721,477.33903 C 221.60393,478.19057 223.09175,478.75307 224.20348,478.58903 C 225.92969,478.33432 226.79079,476.02764 230.10111,462.79077 C 239.04359,427.03278 240.62671,419.49118 240.91185,411.29077 C 241.16663,403.96386 241.27167,404.11485 235.44331,403.42984 C 232.46569,403.07988 227.85319,401.85954 225.19331,400.71797 C 221.19289,399.00106 219.21246,398.75696 213.73308,399.30542 C 209.68539,399.71058 207.13505,400.42009 207.17598,401.12962 C 207.34422,404.04618 205.50875,412.79077 204.72833,412.79077 C 204.24919,412.79077 202.93414,411.86775 201.80601,410.73962 C 199.55435,408.48796 197.65064,408.72589 192.42594,411.91194 C 190.73811,412.94118 188.37122,413.78498 187.16618,413.78703 C 185.96114,413.78909 184.68555,414.25942 184.33155,414.8322 C 183.97755,415.40499 183.34205,426.99249 182.91934,440.5822 C 182.30081,460.46708 181.83262,465.87526 180.52109,468.28471 C 178.68107,471.66506 177.50555,477.22251 175.86631,490.29077 C 175.113,496.29627 172.89822,504.61433 169.20978,515.29077 C 166.1696,524.09077 163.10025,533.99077 162.389,537.29077 C 161.67775,540.59077 160.77763,544.05573 160.38872,544.99068 C 159.8437,546.30096 160.53754,547.04821 163.41591,548.25087 C 165.46976,549.10903 167.64676,549.73559 168.25367,549.64324 C 169.76835,549.41276 172.50802,550.64181 178.12068,554.06968 L 182.88419,556.97895 L 184.81781,554.63486 C 185.8813,553.34561 187.74891,549.65294 188.96805,546.42892 C 191.32422,540.19802 191.30851,540.00482 187.18862,524.54077 C 186.93219,523.57827 187.20271,522.79077 187.78977,522.79077 C 188.37684,522.79077 188.77267,523.12827 188.6694,523.54077 C 188.56614,523.95327 188.8547,526.31577 189.31066,528.79077 L 190.13967,533.29077 L 192.01458,528.90615 C 193.04578,526.49462 195.46504,519.32429 197.39071,512.97211 C 200.86866,501.49941 205.88252,488.88828 204.46091,495.59053 C 204.0526,497.51553 198.59261,513.36013 196.13178,520.77823 C 192.96142,530.33514 191.79731,535.30791 192.13721,537.842 C 192.44714,540.15269 191.95163,542.78601 190.73702,545.2831 C 189.7031,547.40873 188.85716,549.65511 188.85716,550.27505 C 188.85716,550.89499 187.70543,552.95214 186.29776,554.84649 C 184.89009,556.74084 182.3524,560.87827 180.65843,564.04077 C 177.92492,569.14404 177.22864,569.79151 174.46783,569.79738 C 170.32313,569.80618 158.0177,568.1292 143.53584,565.58197 C 133.56188,563.82764 131.47832,563.14222 130.20305,561.19591 C 128.12202,558.01986 128.84021,555.35109 131.86738,555.01131 C 141.72392,553.90496 157.88442,548.98456 158.51656,546.89741 C 158.78419,546.01376 159.42031,544.50938 159.93016,543.55434 C 160.44001,542.5993 160.85716,540.75832 160.85716,539.46327 C 160.85716,536.88705 161.54854,534.58943 168.13094,515.29077 C 173.67095,499.04823 174.71919,494.76098 175.52474,485.0506 C 175.87879,480.78269 177.38837,473.69077 178.87935,469.29077 C 181.35618,461.98144 181.5987,459.90944 181.68847,445.29077 C 181.74251,436.49077 182.01318,427.26577 182.28997,424.79077 C 182.56676,422.31577 183.11294,417.59077 183.50371,414.29077 C 183.89448,410.99077 184.24637,407.09077 184.28568,405.6241 C 184.32499,404.15744 184.53785,403.13813 184.75869,403.35897 C 185.06706,403.66734 187.85716,399.197 187.85716,398.39457 C 187.85716,398.3024 186.65589,398.12757 185.18767,398.00605 C 183.71945,397.88454 182.41483,397.67389 182.28852,397.53794 C 182.1622,397.402 182.45027,394.84028 182.92866,391.84524 C 183.75513,386.67096 184.30964,362.74339 183.71036,358.11419 C 183.55539,356.91707 183.10993,356.13455 182.72046,356.37525 C 181.94314,356.85567 175.85716,344.56132 175.85716,342.51061 C 175.85716,341.80945 175.21085,340.31304 174.42091,339.18525 C 173.63097,338.05746 172.44897,332.37407 171.79424,326.5555 C 170.69726,316.80678 170.75114,315.67984 172.48049,312.20003 C 173.51266,310.12308 175.17961,308.31603 176.18483,308.18435 C 177.19005,308.05268 179.44005,307.27411 181.18483,306.45421 C 182.92961,305.6343 186.8924,303.81033 189.99104,302.40093 C 197.44029,299.01267 199.13686,295.45039 193.85391,294.29006 C 189.95193,293.43304 185.33129,288.75742 183.79948,284.11599 C 183.1321,282.09383 182.53457,276.9169 182.47162,272.61169 C 182.37775,266.19207 182.05158,264.68552 180.65831,264.23626 C 178.0145,263.38376 177.27751,259.68779 179.43654,258.10906 C 181.37923,256.68854 183.79637,248.85661 184.29889,242.3543 C 184.53854,239.25324 185.45508,237.62311 188.61761,234.67314 C 190.82558,232.61357 194.47511,230.43219 196.72768,229.82564 C 201.88593,228.43666 216.52969,228.33557 220.02582,229.66479 C 222.76324,230.70556 227.0819,235.78176 228.73439,238.81482 C 230.38177,241.83851 227.86943,240.79994 226.03846,237.70036 C 223.1689,232.84257 219.05613,229.79014 209.20287,229.79635 C 195.53429,229.80497 192.16262,231.26692 187.30606,239.29077 C 186.30737,240.94077 186.06957,241.77152 186.77761,241.13687 C 187.75545,240.2604 189.13888,240.34889 192.53164,241.50492 C 196.59136,242.88821 197.64155,242.87053 204.05824,241.31096 C 209.83625,239.90661 211.26617,239.83452 211.93329,240.91395 C 213.02617,242.68227 212.22165,243.33816 210.60522,241.99664 C 209.66203,241.21386 207.96287,241.35934 204.41797,242.52637 C 200.3283,243.87274 198.62618,243.94544 193.98511,242.97196 C 190.60505,242.26299 188.07956,242.16837 187.51824,242.72969 C 186.09379,244.15414 182.99146,253.97717 183.52605,255.3703 C 183.78796,256.05282 186.7821,256.95943 190.1797,257.385 C 196.18121,258.13672 215.70425,258.00266 217.00238,257.20081 C 217.35724,256.9816 217.90562,257.47467 218.22099,258.29651 C 218.53636,259.11836 219.26417,259.79077 219.83835,259.79077 C 220.41252,259.79077 216.4625,252.71055 214.50025,248.81405 C 209.49251,238.87001 210.66618,238.03787 215.8849,247.83233 C 219.54858,254.70832 223.37575,259.79077 225.56306,259.79077 C 228.04354,259.79077 228.10859,259.94899 227.51615,264.54077 C 226.96552,268.80846 227.04883,269.09972 228.33663,267.40926 C 232.05647,262.52632 232.60868,249.07851 229.34825,242.77354 C 228.4999,241.13302 228.22505,239.79077 228.73748,239.79077 C 230.36308,239.79077 232.85716,248.9295 232.85716,254.886 C 232.85716,261.50025 230.72683,267.1331 225.04298,275.54765 C 220.87472,281.71849 219.44628,287.36908 220.45691,293.68921 C 220.98281,296.97802 221.64926,297.82994 224.71873,299.13708 C 226.71987,299.98927 230.38216,300.97483 232.85716,301.32721 C 245.26663,303.09404 251.28867,306.5215 253.87703,313.29077 C 254.50795,314.94077 255.27915,320.47773 255.59082,325.59512 C 256.1397,334.6073 256.08732,334.91782 253.92279,335.48386 C 252.69371,335.80527 252.14194,336.34874 252.69665,336.69157 C 253.3602,337.10167 253.22643,339.36326 252.30558,343.30283 C 251.53579,346.5962 250.60551,353.22688 250.23831,358.03769 L 249.57067,366.78461 L 244.96391,370.45852 C 242.4302,372.47917 239.9989,374.43632 239.56102,374.80774 C 239.12314,375.17916 239.60006,378.58979 240.62085,382.38691 C 242.05843,387.73441 242.435,392.33411 242.29126,402.79077 C 242.07832,418.28174 240.57526,427.39825 234.29498,451.29077 C 228.19703,474.48965 226.65956,482.79077 228.46079,482.79077 C 229.21499,482.79077 231.03273,484.70327 232.50019,487.04077 C 233.96766,489.37827 236.61727,493.09077 238.38821,495.29077 C 240.15915,497.49077 242.40556,500.86577 243.38024,502.79077 C 244.35491,504.71577 246.61975,508.09077 248.4132,510.29077 C 252.15589,514.88185 258.84503,527.48384 258.85228,529.95744 C 258.85496,530.8741 259.41966,531.82781 260.10716,532.07678 C 261.09263,532.43366 261.07271,533.00939 260.01303,534.79727 C 258.83029,536.79278 258.97058,537.67897 261.18144,542.17792 C 265.66057,551.29266 265.66778,551.24536 259.16014,555.44391 C 255.9685,557.50306 250.3259,561.1539 246.62102,563.55688 C 239.67077,568.06481 235.19985,568.53499 240.49877,564.20073 C 243.6418,561.62987 245.37588,561.0945 244.25585,563.04077 C 243.86021,563.72827 243.79616,564.06577 244.1135,563.79077 C 244.43085,563.51577 244.76626,562.84077 244.85886,562.29077 C 244.95147,561.74077 245.55147,560.64189 246.1922,559.84881 C 247.07967,558.75032 247.07871,558.57381 246.18815,559.10778 C 245.54519,559.49328 241.38269,558.96195 236.93815,557.92704 C 232.4936,556.89213 228.84294,556.3256 228.82556,556.66808 C 228.71818,558.7839 222.91751,563.37871 218.56074,564.799 C 215.75953,565.71219 213.2937,566.98114 213.08112,567.6189 C 211.99407,570.88005 226.70068,569.0421 235.51518,565.97285 C 240.71643,564.16175 242.96717,565.97728 238.0116,567.98656 C 233.90888,569.65004 225.1804,572.50218 218.35716,572.02238 z M 175.10716,568.12849 C 174.41966,567.85108 173.29466,567.85108 172.60716,568.12849 C 171.91966,568.4059 172.48216,568.63288 173.85716,568.63288 C 175.23216,568.63288 175.79466,568.4059 175.10716,568.12849 z M 153.85716,565.79077 C 151.89879,564.52517 150.57498,564.52517 151.35716,565.79077 C 151.69708,566.34077 152.73614,566.78388 153.66618,566.77546 C 155.12345,566.76226 155.14985,566.62617 153.85716,565.79077 z M 148.35716,564.79077 C 147.25716,564.31808 145.45716,563.93134 144.35716,563.93134 C 142.35716,563.93134 142.35716,563.93134 144.35716,564.79077 C 145.45716,565.26346 147.25716,565.6502 148.35716,565.6502 C 150.35716,565.6502 150.35716,565.6502 148.35716,564.79077 z M 161.85716,563.90234 C 161.85716,563.542 159.89337,561.10821 157.49319,558.49392 C 155.09301,555.87962 153.41907,553.56152 153.77333,553.34258 C 154.12758,553.12364 156.82538,555.83491 159.76844,559.36764 C 165.53851,566.2938 169.09116,568.39923 163.85716,561.79077 C 162.11473,559.59077 161.16536,557.79077 161.74745,557.79077 C 162.32954,557.79077 163.46268,559.06104 164.26554,560.6136 C 166.04469,564.05409 168.39289,566.11219 169.94781,565.59389 C 170.58465,565.38161 169.03215,563.2317 166.4978,560.81631 C 163.96346,558.40092 162.11867,556.19593 162.39827,555.91633 C 162.67787,555.63672 165.31674,557.78812 168.26241,560.6972 C 171.32959,563.72628 173.8932,565.54147 174.26177,564.94512 C 174.61574,564.37238 172.10136,561.57028 168.67427,558.71823 C 165.24718,555.86617 162.2729,554.04355 162.06477,554.66795 C 161.85663,555.29236 161.22673,555.51918 160.66499,555.172 C 160.00247,554.76255 160.06999,554.27727 160.85716,553.79077 C 161.72434,553.25482 161.75482,552.84555 160.96392,552.35675 C 160.3552,551.98054 159.85716,552.17585 159.85716,552.79077 C 159.85716,553.40835 159.29763,553.58163 158.60716,553.17789 C 157.91966,552.77589 158.2169,553.42709 159.2677,554.62501 C 160.31849,555.82292 160.92643,557.05483 160.61868,557.36258 C 160.31093,557.67033 158.81731,556.29401 157.29952,554.30409 C 155.78174,552.31417 154.27379,551.04712 153.94854,551.48841 C 153.62328,551.92971 152.45716,552.36799 151.35716,552.46237 C 148.0906,552.74263 143.58807,553.63843 139.86376,554.74903 C 137.94239,555.32199 134.94702,555.79077 133.20738,555.79077 C 130.58945,555.79077 130.13023,556.119 130.5425,557.69552 C 131.04564,559.61951 131.30036,559.69524 152.35716,564.18142 C 158.10795,565.40663 161.85716,565.29649 161.85716,563.90234 z M 180.53567,561.04366 L 181.86054,557.79655 L 177.10885,554.79675 C 174.49542,553.14686 170.65969,551.51145 168.585,551.16251 C 166.51031,550.81356 164.57125,550.13717 164.27598,549.65942 C 163.51181,548.42296 159.85716,548.58041 159.85716,549.84979 C 159.85716,550.43225 159.33763,550.58772 158.70265,550.19528 C 157.98161,549.74965 157.81983,549.92135 158.27175,550.65257 C 158.66973,551.29652 159.37273,551.59016 159.83396,551.30511 C 160.7828,550.71869 168.8469,556.92965 173.32441,561.69544 C 176.91296,565.51503 178.78014,565.34626 180.53567,561.04366 z M 140.10716,563.12849 C 139.41966,562.85108 138.29466,562.85108 137.60716,563.12849 C 136.91966,563.4059 137.48216,563.63288 138.85716,563.63288 C 140.23216,563.63288 140.79466,563.4059 140.10716,563.12849 z M 251.29226,556.689 C 251.78845,556.19281 236.06789,552.32475 233.45249,552.2995 C 232.95492,552.2947 232.43514,553.05848 232.29743,553.99678 C 232.09307,555.3892 232.627,555.60349 235.2021,555.16259 C 237.67606,554.739 238.03335,554.86299 236.85716,555.73695 C 235.68599,556.60719 235.99272,556.70328 238.25631,556.1753 C 239.89141,555.79392 240.91409,555.88968 240.60186,556.39493 C 240.00258,557.36467 250.33243,557.64883 251.29226,556.689 z M 253.36724,553.77446 C 253.7127,553.21549 254.30922,552.95212 254.69283,553.18921 C 255.07644,553.4263 256.95785,552.32889 258.87373,550.75054 L 262.35716,547.88081 L 259.63677,543.08579 C 258.12322,540.41797 256.34872,538.46566 255.63677,538.68501 C 252.98546,539.50186 244.25271,541.73394 241.63502,542.26384 C 239.08849,542.77934 233.25737,549.52431 234.38414,550.65108 C 234.90947,551.17641 237.88606,551.58046 242.16618,551.70744 C 243.71114,551.75327 244.72353,552.19796 244.41595,552.69564 C 244.09669,553.21222 245.63895,553.36147 248.01002,553.04344 C 251.00123,552.64224 251.96408,552.80875 251.45123,553.63857 C 251.05957,554.27228 251.18913,554.79077 251.73913,554.79077 C 252.28913,554.79077 253.02178,554.33343 253.36724,553.77446 z M 262.419,551.01927 C 262.0838,550.68407 261.03276,551.2231 260.08335,552.21711 C 258.43313,553.94486 258.45995,553.97168 260.69281,552.82656 C 261.97741,552.16776 262.7542,551.35447 262.419,551.01927 z M 193.25566,410.14684 C 199.56306,407.55658 199.75876,407.36191 202.89487,400.55804 C 205.61933,394.64724 206.88997,393.10525 211.42852,390.20197 C 214.36143,388.32581 217.0668,386.79077 217.44045,386.79077 C 218.86327,386.79077 236.13497,376.43691 238.68446,374.05563 C 240.15444,372.68263 242.85452,370.31714 244.68462,368.79898 C 247.91606,366.11834 248.05252,365.69605 249.41369,354.16473 C 250.18458,347.63405 250.82473,340.82484 250.83623,339.03316 L 250.85716,335.77555 L 242.21981,335.9368 L 233.58246,336.09805 L 234.23553,346.19946 C 235.07587,359.19742 236.47752,356.97583 214.85716,376.914 C 207.43216,383.76129 198.77174,391.27239 195.61178,393.60532 C 192.45182,395.93826 189.10161,399.01426 188.16685,400.44087 C 186.34898,403.2153 184.68181,412.79077 186.01664,412.79077 C 186.45714,412.79077 189.71471,411.601 193.25566,410.14684 z M 205.73884,402.54077 C 205.90714,398.62914 204.63268,399.15511 202.68057,403.80293 C 201.11179,407.53807 201.11179,407.9026 202.68057,409.47214 C 204.24956,411.04189 204.3977,410.96154 204.98884,408.22015 C 205.33627,406.60899 205.67377,404.05327 205.73884,402.54077 z M 240.66466,398.54077 C 240.31552,393.71526 240.69836,393.78973 230.38846,396.54205 C 222.43441,398.66546 222.79693,399.27659 233.24247,401.35324 C 234.27939,401.55938 235.36689,401.96716 235.65913,402.25941 C 235.95138,402.55166 237.26637,402.79077 238.58132,402.79077 C 240.77564,402.79077 240.94688,402.44143 240.66466,398.54077 z M 226.69699,396.16736 C 232.76386,394.93196 235.70993,393.9572 241.61167,391.23258 C 241.75165,391.16796 241.43615,389.80461 240.91056,388.20293 C 240.38498,386.60124 239.46682,383.3828 238.87022,381.05084 L 237.7855,376.81092 L 234.07133,379.13287 C 232.02854,380.40994 225.85716,383.83001 220.35716,386.73302 C 209.81503,392.29737 207.3105,394.07519 205.65439,397.16964 C 204.68291,398.98487 204.96989,399.03902 211.99702,398.36644 C 216.0451,397.97898 222.66008,396.9894 226.69699,396.16736 z M 196.50702,391.04077 C 207.49039,382.13883 230.82864,360.71257 232.07187,358.38958 C 233.29161,356.11047 233.24085,336.4661 232.01409,336.02754 C 230.45216,335.46915 231.6659,326.84937 233.66415,324.30901 C 234.78261,322.88712 235.93448,322.10687 236.22387,322.57511 C 236.51326,323.04335 235.87414,324.05777 234.8036,324.82937 C 233.39681,325.84333 232.85716,327.41871 232.85716,330.51153 L 232.85716,334.79077 L 242.60716,334.77546 C 247.96966,334.76704 252.86372,334.42954 253.48286,334.02546 C 255.4625,332.73345 253.47402,315.66063 250.78708,310.87987 C 248.22334,306.31832 247.58174,305.99329 235.85716,303.31646 C 227.10168,301.3175 226.44388,301.37422 221.65775,304.54077 C 217.87958,307.04044 216.70612,307.282 208.76674,307.1944 C 201.79156,307.11745 199.37965,306.68483 196.79224,305.0466 L 193.55223,302.99517 L 187.45126,305.29157 C 173.82672,310.41984 172.5812,311.54087 172.53626,318.71598 C 172.4998,324.53788 174.2663,335.34277 175.44774,336.52421 C 177.49747,338.57394 178.61689,337.98473 178.0735,335.14215 C 177.75918,333.49788 177.95138,332.73097 178.58036,333.1197 C 179.13761,333.4641 179.89067,335.98571 180.25382,338.72329 C 180.61697,341.46086 181.60089,345.63346 182.44031,347.99573 C 185.90203,357.73767 188.2051,377.09704 186.00468,377.95744 C 185.53581,378.14077 184.84464,382.45327 184.46875,387.54077 L 183.7853,396.79077 L 186.59893,396.79077 C 188.53501,396.79077 191.62528,394.99739 196.50702,391.04077 z M 181.28627,348.63341 C 178.53025,340.06738 177.95909,338.79077 176.88268,338.79077 C 175.93061,338.79077 177.58931,344.04606 180.90713,351.54153 C 183.01055,356.29348 183.22402,354.65612 181.28627,348.63341 z M 215.94468,305.39602 C 217.36781,305.08703 219.72359,303.89708 221.17973,302.75167 L 223.82727,300.66912 L 221.35491,298.47995 C 219.16538,296.54121 218.86592,295.42112 218.73723,288.68897 C 218.60393,281.71634 219.82847,276.56383 221.32727,277.79077 C 221.6632,278.06577 222.88752,276.71577 224.04797,274.79077 L 226.15789,271.29077 L 223.46706,274.04077 C 220.51443,277.05831 218.85716,277.54764 218.85716,275.40188 C 218.85716,274.63799 219.60589,274.07549 220.52101,274.15188 C 222.54121,274.32052 225.40239,269.60025 226.26411,264.67713 L 226.89662,261.0635 L 222.62689,261.05465 C 220.27854,261.04978 218.05047,261.52763 217.67562,262.11653 C 217.30077,262.70544 214.08756,263.37234 210.53514,263.59854 C 204.97355,263.95267 203.78312,263.71673 201.96668,261.90029 C 199.60876,259.54237 195.85716,259.06952 195.85716,261.13026 C 195.85716,262.93688 191.53811,264.79077 187.32916,264.79077 C 184.59987,264.79077 183.78091,265.25245 183.33797,267.04077 C 182.55347,270.2081 185.44092,284.3933 187.63477,288.14969 C 189.31273,291.02275 189.94652,291.30675 195.20698,291.54279 C 200.04714,291.75997 201.84309,291.30812 206.65256,288.66316 C 209.79009,286.93768 212.93873,285.06458 213.64954,284.50073 C 214.5485,283.78762 215.30955,283.84968 216.14954,284.70458 C 216.81373,285.38056 216.90716,285.78989 216.35716,285.61421 C 215.10345,285.21375 203.85716,290.84646 203.85716,291.87483 C 203.85716,292.2912 202.50323,292.92923 200.84843,293.29269 C 199.18589,293.65784 198.12002,294.40707 198.46621,294.96721 C 198.81078,295.52474 198.16253,297.23903 197.02565,298.77675 C 195.0738,301.41676 195.05476,301.65962 196.684,303.13407 C 198.21582,304.52034 209.76125,306.76597 212.35716,306.18256 C 212.90716,306.05895 214.52154,305.70501 215.94468,305.39602 z M 192.94148,283.62626 C 191.02928,282.91889 190.84298,282.51279 191.86546,281.28077 C 193.54443,279.25773 201.85716,279.63948 201.85716,281.73962 C 201.85716,283.10471 195.28887,284.49462 192.94148,283.62626 z M 198.65913,282.25941 C 197.61477,281.21505 193.88857,280.93093 193.31917,281.85224 C 193.00015,282.36843 194.19068,282.79077 195.96481,282.79077 C 197.73894,282.79077 198.95138,282.55166 198.65913,282.25941 z M 215.85716,279.29077 C 215.85716,274.72387 217.3342,274.72663 217.43219,279.29371 C 217.47345,281.21709 217.13595,282.79077 216.68219,282.79077 C 216.22842,282.79077 215.85716,281.21577 215.85716,279.29077 z M 192.85716,275.1241 C 192.85716,274.20744 193.19466,273.8647 193.60716,274.36247 C 194.01966,274.86024 194.80716,275.60335 195.35716,276.01382 C 195.92784,276.43973 195.60584,276.76672 194.60716,276.77546 C 193.63437,276.78397 192.85716,276.05057 192.85716,275.1241 z M 197.35716,275.79077 C 197.69708,275.24077 198.73614,274.79766 199.66618,274.80608 C 201.12345,274.81928 201.14985,274.95537 199.85716,275.79077 C 197.89879,277.05637 196.57498,277.05637 197.35716,275.79077 z M 235.2597,537.98544 C 232.16957,534.01547 230.68456,530.87906 231.36993,529.7701 C 231.70283,529.23147 231.57532,528.79077 231.08659,528.79077 C 229.44113,528.79077 217.85716,517.63873 217.85716,516.05462 C 217.85716,514.37573 207.79676,498.22518 202.11997,490.79077 C 199.20534,486.97373 198.77918,485.75958 199.312,482.79077 C 201.32167,471.59328 201.95532,465.41582 202.85084,448.29077 C 203.39731,437.84077 204.1122,427.39593 204.43949,425.08001 C 204.99936,421.11836 204.83704,420.74884 201.69586,418.83375 C 199.85958,417.71422 199.05466,416.79656 199.90716,416.79451 C 200.75966,416.79245 201.95795,417.29156 202.57003,417.90364 C 204.13494,419.46855 205.66418,418.23054 206.7848,414.49154 C 207.64582,411.6187 207.72625,411.85426 207.56979,416.79077 C 207.47392,419.81577 207.12993,422.51577 206.80537,422.79077 C 205.67978,423.7445 204.18311,437.25465 203.93033,448.74335 C 203.60177,463.67553 202.39677,477.43916 201.05944,481.53482 C 200.10544,484.45651 200.33013,485.25147 203.32059,489.53482 C 205.14682,492.15059 208.80739,497.7475 211.4552,501.9724 C 214.103,506.1973 216.63779,509.42635 217.08805,509.14807 C 217.53832,508.86979 217.80332,509.01306 217.67695,509.46644 C 217.23302,511.05914 219.94213,517.31727 222.14629,519.79077 C 223.37156,521.16577 226.27012,523.78108 228.58753,525.60256 L 232.801,528.91435 L 234.24751,525.60256 C 235.32943,523.12548 235.71457,522.80178 235.77559,524.31826 C 235.82045,525.43339 235.14797,527.35827 234.28118,528.59578 C 232.82946,530.66841 232.85773,531.09988 234.63973,534.06829 C 235.70372,535.84065 237.04176,537.19365 237.61315,537.07496 C 238.18454,536.95626 238.42071,537.74376 238.13797,538.82496 C 237.85523,539.90615 237.56388,540.76587 237.49053,540.73544 C 237.41718,540.70501 236.4133,539.46751 235.2597,537.98544 z "
       id="path2704"
       sodipodi:nodetypes="csssssssssssssssssssssssssssssssssssssssssssscccsssscccssssssssssssssssssssssssssssssssssssssssssssssssssssssssssssssssssssssssssssssscccsssssssssssssssssssssssssssccssccssccsssccsssssssssssssssssssssssssssccccsssssssccssccssssssccscccssssssssccssccsssssscccccssssccsssccssssccsscccsssccssssscccssssscccssssssscccccsscccccsscccsscccssssssssssssssssssccssccssccssccsssccssccsssssssssssssssssssscccssssssc"
       inkscape:export-xdpi="25.870693"
       inkscape:export-ydpi="25.870693"
       inkscape:export-filename="/home/rover/code/python/herobot/arte/pre/hombre-0-0.png" />
    <path
       style="fill:#000000"
       d="M 407.34513,564.44364 C 401.98303,563.49624 397.35794,562.48317 397.06715,562.19238 C 396.77636,561.90159 396.9899,560.47626 397.54167,559.02498 C 398.31004,557.00401 399.19447,556.40963 401.31965,556.48597 L 404.0944,556.58565 L 401.5944,557.27696 C 400.05922,557.70148 398.97108,558.8208 398.77485,560.17728 C 398.49698,562.09814 398.9145,562.38629 401.97563,562.38629 C 403.91181,562.38629 407.65561,562.84058 410.29518,563.39582 C 420.28401,565.497 420.90132,565.38971 433.20784,559.41374 C 440.45177,555.89613 444.47217,553.42878 443.71875,552.96314 C 443.04768,552.5484 441.84518,552.45982 441.04651,552.76629 C 438.46143,553.75828 439.50849,552.48207 442.58495,550.89118 C 444.63235,549.83243 445.48024,548.72048 445.27345,547.36543 C 444.96553,545.34776 441.87506,542.04844 439.95312,541.68554 C 438.64856,541.43922 424.1479,544.92618 422.66465,545.84288 C 421.13487,546.78833 421.34249,548.38629 422.9951,548.38629 C 425.66627,548.38629 434.73301,553.11912 433.19355,553.70987 C 431.53868,554.3449 423.42911,551.46276 424.04893,550.45986 C 424.26818,550.10511 423.6931,549.78695 422.77098,549.75283 C 421.84886,549.71871 420.4194,549.50979 419.5944,549.28855 C 418.7694,549.06731 418.0944,549.51511 418.0944,550.28367 C 418.0944,551.16211 420.64855,552.38073 424.97199,553.56508 C 431.04287,555.22812 432.10814,555.27969 434.05389,554.00479 C 435.4301,553.10306 436.78479,552.88592 437.65993,553.42679 C 438.70278,554.07131 438.04173,554.71837 435.07803,555.95409 C 432.88703,556.86763 429.89993,558.4636 428.44003,559.50068 C 425.30024,561.73112 423.33921,562.06117 426.15327,559.88555 C 428.04195,558.42537 428.04387,558.35466 426.22442,557.26872 C 424.69913,556.35835 424.60697,555.97776 425.72442,555.20395 C 426.71394,554.51873 426.51428,554.41684 425.00546,554.83705 C 423.85654,555.15703 421.37093,554.77304 419.48187,553.98374 C 416.30219,552.65518 415.68286,552.72425 411.13906,554.91416 C 408.43958,556.2152 405.7502,556.97571 405.16266,556.60419 C 404.57191,556.23064 405.21191,555.69561 406.5944,555.40724 C 407.9694,555.12045 410.4444,554.14364 412.0944,553.23657 C 415.46378,551.38429 420.89107,545.68908 419.75051,545.20252 C 419.34279,545.0286 417.97916,543.19876 416.7202,541.13622 C 414.72392,537.86571 414.63345,537.30853 416.0128,536.77923 C 417.98645,536.02187 418.05032,534.00956 416.15074,532.43305 C 415.35673,531.77408 413.74505,528.34398 412.56921,524.81061 C 411.39338,521.27723 410.10843,518.38629 409.71376,518.38629 C 408.22321,518.38629 406.5944,525.27158 406.5944,531.57243 C 406.5944,536.60238 406.13164,538.70488 404.5944,540.65916 C 403.4944,542.05758 402.5944,544.36827 402.5944,545.79402 C 402.5944,547.68949 402.07492,548.38629 400.66179,548.38629 C 398.73085,548.38629 396.95662,551.62207 397.4619,554.22213 C 397.60468,554.95685 396.9054,557.54266 395.90795,559.96839 C 393.70025,565.33734 393.93086,565.31716 373.99711,561.88629 C 366.0082,560.51129 358.43781,559.38629 357.17403,559.38629 C 355.91025,559.38629 352.22533,558.04199 348.98532,556.39896 C 343.00863,553.45208 341.83449,553.25279 342.5944,551.19328 C 342.5944,549.20764 344.64754,548.38629 349.61109,548.38629 C 351.7303,548.38629 354.731,547.87264 356.2793,547.24484 C 357.82761,546.61704 359.7694,545.99183 360.5944,545.85549 C 373.9878,543.64203 373.25282,544.04054 373.96037,538.60843 C 375.39425,527.60003 377.17027,519.26541 378.22402,518.59981 C 378.8453,518.20737 380.49467,513.83629 381.88927,508.88629 C 383.28387,503.93629 385.38513,496.73629 386.55874,492.88629 C 387.73235,489.03629 388.87314,482.80986 389.09382,479.04978 C 389.3145,475.2897 390.2561,470.22051 391.18627,467.78491 C 392.74013,463.71619 392.74705,463.21245 391.27156,461.58205 C 390.33086,460.54258 389.02894,455.68161 388.12854,449.84691 C 387.28313,444.36857 385.73208,436.51129 384.68177,432.38629 C 381.00811,417.95837 379.39677,409.22429 379.04087,401.81041 C 378.84355,397.70016 378.46538,393.98654 378.20048,393.55793 C 377.93558,393.12931 378.12995,390.94892 378.63242,388.71261 C 380.25321,381.49897 380.02916,362.52344 378.22121,353.88629 C 375.62044,341.46157 375.59998,341.38625 374.82535,341.38696 C 373.34222,341.38833 366.70765,357.0528 366.08233,362.02957 C 365.69453,365.11595 363.85809,370.11495 361.49032,374.52957 C 352.34841,391.57429 348.74883,399.95292 348.03337,405.85284 C 347.47529,410.45504 346.49323,412.91321 343.73867,416.60284 C 341.77452,419.23374 339.30982,422.96322 338.83977,422.96322 C 338.02539,422.96322 340.14208,418.87276 344.54408,413.38629 C 345.86634,411.73828 346.56167,409.3527 346.58437,406.38629 C 346.6221,401.45703 350.88437,390.71286 356.64268,381.03166 C 362.45101,371.26637 363.70448,368.33614 364.78669,361.99344 C 365.3598,358.63451 367.32335,352.75877 369.15013,348.93626 L 372.47156,341.98622 L 368.78298,340.60483 C 359.78453,337.23488 359.08934,337.57672 358.05171,345.88169 C 357.64977,349.09871 356.38218,352.32574 354.5131,354.8903 C 349.56722,361.67652 346.81702,368.27724 343.92081,380.31267 C 342.38902,386.67816 340.40435,395.21451 340.22593,394.30796 C 340.04751,393.4014 341.20913,385.73145 342.09182,382.23801 C 345.56202,368.50393 348.15459,361.70744 351.72845,356.97539 C 355.13595,352.46361 357.04611,346.69285 358.04706,337.88629 C 358.85093,330.81368 362.57095,316.48806 364.78943,311.92176 C 366.6294,308.13454 375.15383,300.88629 377.76788,300.88629 C 378.26259,300.88629 378.98843,300.41074 379.38088,299.82952 C 379.77331,299.24829 381.6694,298.15192 383.5944,297.39314 C 391.76229,294.17358 395.65383,288.38629 389.65087,288.38629 C 384.64543,288.38629 380.61184,282.44287 378.41976,271.83749 C 377.41274,266.96545 376.82154,262.24601 377.10597,261.34983 C 377.44673,260.27618 376.74313,259.31946 375.04316,258.5449 C 371.73765,257.03881 371.85305,252.06349 375.20458,251.58506 C 377.02926,251.32459 377.39706,250.4025 377.92305,244.76975 C 378.41391,239.51331 379.26143,237.14103 382.31287,232.48229 C 387.40463,224.70855 389.51871,223.86642 403.66806,223.97559 C 420.34348,224.10425 423.25535,226.28542 426.91144,241.38629 C 429.48665,252.02278 429.86448,255.10134 428.68421,255.83079 C 428.08481,256.20123 427.5944,257.40011 427.5944,258.49497 C 427.5944,260.77809 424.8309,266.55445 423.25261,267.57031 C 422.66812,267.94652 421.76138,267.98949 421.23764,267.6658 C 420.7139,267.34211 420.58073,267.55516 420.94172,268.13925 C 421.65515,269.29361 417.22298,277.15489 416.22263,276.16376 C 415.74805,275.69356 414.61959,275.58629 414.7494,273.38629 C 414.93136,270.30244 415.39406,269.38629 416.76958,269.38629 C 418.9412,269.38629 422.97723,261.95825 422.27165,259.26011 C 422.00175,258.22799 422.18895,257.63571 422.68766,257.94393 C 423.18637,258.25215 423.5944,257.83128 423.5944,257.00866 C 423.5944,256.0522 422.42275,255.40004 420.3444,255.19965 C 417.34797,254.91074 416.78231,254.2393 413.0944,246.59396 C 410.8944,242.03318 408.4194,237.87757 407.5944,237.35928 C 405.69063,236.16325 398.88963,236.09958 398.16566,237.27099 C 397.12074,238.96171 391.14487,239.1817 388.46999,237.62792 C 386.06643,236.23174 385.62815,236.26262 383.26172,237.99487 C 380.69107,239.87662 378.9318,243.52484 379.21516,246.38629 C 379.29686,247.21129 379.41561,248.67379 379.47905,249.63629 C 379.57075,251.02744 380.51994,251.38629 384.10797,251.38629 C 386.59043,251.38629 389.49871,251.93409 390.57081,252.60363 C 392.10234,253.56009 393.49551,253.56009 397.0716,252.60363 C 399.57492,251.93409 404.54164,251.38629 408.10875,251.38629 C 413.62473,251.38629 414.59211,251.64793 414.57909,253.13629 C 414.54809,256.67837 412.89678,257.63169 405.92873,258.13026 C 400.37823,258.52739 398.77453,258.30825 397.6928,257.00486 C 396.01259,254.98033 391.24428,254.8983 389.61137,256.86584 C 388.93602,257.67959 386.18092,258.63756 383.48893,258.99467 C 378.61632,259.64104 378.5944,259.66073 378.5944,263.38939 C 378.5944,265.44939 379.2694,269.04799 380.0944,271.38629 C 380.9194,273.72459 381.5944,276.50755 381.5944,277.57065 C 381.5944,278.63376 382.97649,281.22339 384.66571,283.3254 C 387.42896,286.7639 388.10601,287.0995 391.41571,286.67126 C 396.02158,286.07532 399.78415,284.29687 405.8444,279.85129 C 409.67525,277.04111 410.5944,275.78822 410.5944,273.37657 C 410.5944,271.73192 411.0444,270.38629 411.5944,270.38629 C 412.86386,270.38629 412.8912,273.96319 411.63962,276.3018 C 410.56694,278.30612 397.58339,287.38629 395.79013,287.38629 C 395.15343,287.38629 394.32499,288.61153 393.94913,290.10905 C 393.57328,291.60658 392.40472,293.52905 391.35234,294.38122 C 389.51921,295.86559 389.61996,296.03237 393.75269,298.3551 C 399.87033,301.7934 409.4134,301.83341 415.3444,298.44562 C 420.22426,295.65823 420.53953,294.77404 417.19661,293.25091 C 415.73002,292.58268 414.56495,290.98903 414.19661,289.14735 C 413.28402,284.58439 415.1651,275.55093 416.28487,275.55093 C 416.83487,275.55093 416.07074,278.8764 416.07825,280.9389 C 416.10446,288.13557 416.04249,291.77461 424.90509,294.19437 C 429.40921,295.42414 434.27565,296.42041 435.7194,296.4083 C 441.16456,296.36264 444.93773,297.79409 448.57108,301.2839 C 451.65019,304.24138 452.86657,306.67653 455.36558,314.88629 C 459.48181,328.4089 459.79454,330.19939 460.06861,341.81289 C 460.23857,349.01467 460.95049,353.88178 462.56597,358.88629 C 464.20806,363.97323 465.03882,369.77015 465.60577,380.09754 C 466.11625,389.39654 467.16157,397.24492 468.62989,402.8031 C 471.14229,412.31358 470.83717,414.11716 465.52305,421.16795 C 459.51801,429.13544 459.49931,429.14437 457.97631,424.76944 C 456.08284,419.3303 456.31118,418.14071 458.37062,422.71515 L 460.0944,426.54402 L 464.16797,420.71515 C 469.57584,412.97705 469.64324,412.70084 467.93141,405.29255 C 465.40313,394.35095 464.74272,389.19997 464.67404,379.88629 C 464.62843,373.70043 463.85261,368.07215 462.19288,361.88629 C 460.86475,356.93629 459.32313,349.58516 458.76706,345.55044 C 458.211,341.51573 457.52438,337.98294 457.24124,337.69979 C 456.9581,337.41665 453.99494,338.13028 450.65644,339.28564 C 447.31794,340.441 443.91323,341.38629 443.09042,341.38629 C 441.08066,341.38629 441.18048,342.24096 444.0944,349.98252 C 445.71954,354.30011 446.5944,358.67214 446.5944,362.47599 C 446.5944,366.66286 447.88927,372.38989 451.14597,382.60693 C 453.64933,390.46058 456.10736,397.88272 456.60826,399.10058 C 457.18009,400.49091 457.15168,401.54187 456.53191,401.92491 C 455.98903,402.26043 455.66299,402.164 455.80739,401.71062 C 455.95179,401.25724 455.54253,399.53629 454.89791,397.88629 C 450.54967,386.75629 445.50045,368.32611 445.20605,362.51002 C 444.86755,355.82273 441.15149,343.00378 438.8444,340.56486 C 438.1569,339.83808 437.5944,338.82558 437.5944,338.31486 C 437.5944,337.80415 437.21712,337.38629 436.75599,337.38629 C 436.29487,337.38629 435.11347,342.0776 434.13066,347.81143 C 432.30496,358.46278 432.45946,361.99472 435.11815,370.38629 C 437.37139,377.49815 439.48188,387.38629 438.74656,387.38629 C 438.04583,387.38629 434.26437,374.148 432.05265,363.95195 C 430.918,358.72117 430.9998,356.78097 432.74268,347.58677 C 433.8302,341.84981 434.48638,336.54718 434.20086,335.80314 C 433.91535,335.0591 434.09244,334.19652 434.5944,333.88629 C 435.09636,333.57606 435.25356,332.66165 434.94374,331.85426 C 434.63391,331.04688 434.87857,330.38629 435.48741,330.38629 C 436.09626,330.38629 436.5944,331.04602 436.5944,331.85236 C 436.5944,334.14886 439.84681,340.389 441.02961,340.36184 C 443.47732,340.30565 450.60518,338.3106 454.83299,336.49834 L 459.37065,334.55327 L 458.0184,328.73608 C 456.04792,320.25937 452.35329,309.38629 451.44341,309.38629 C 451.01098,309.38629 450.88816,308.78434 451.17048,308.04863 C 451.4528,307.31292 449.81073,304.83792 447.52145,302.54863 C 443.88038,298.90757 442.79952,298.38629 438.89089,298.38629 C 436.43337,298.38629 431.5493,297.62065 428.0374,296.68486 C 421.72539,295.00295 421.62583,295.00813 419.35962,297.13713 C 412.63133,303.45803 398.4438,304.13368 391.44513,298.4665 C 389.15523,296.61226 389.0632,296.633 380.49948,300.93396 C 368.44254,306.98932 366.46932,309.24009 363.29963,320.55311 C 359.60737,333.73128 359.50257,335.80267 362.50664,336.2271 C 363.83337,336.41455 365.47755,337.12658 366.16036,337.8094 C 366.84318,338.49221 369.20169,339.1214 371.40149,339.2076 L 375.40114,339.36432 L 374.86018,335.12531 C 373.7912,326.74858 375.70056,332.34586 377.54749,343.00313 C 378.58483,348.98887 379.90875,355.91129 380.48953,358.38629 C 381.90812,364.43155 381.92521,390.65548 380.51149,392.0692 C 379.2591,393.32159 389.37489,395.39196 396.67631,395.3776 C 404.73761,395.36175 425.00076,392.54284 431.3444,390.55475 C 434.7819,389.47744 438.62885,387.33458 438.62885,387.74679 C 438.62885,388.59089 424.04806,394.39435 421.3444,394.38946 C 417.97328,394.38336 419.64158,396.51825 424.8444,398.86833 C 430.2234,401.298 431.79165,401.71146 434.8444,401.50477 C 436.26194,401.4088 436.5944,400.43639 436.5944,396.38629 C 436.5944,393.63629 438.26735,386.77829 438.70293,386.77829 C 440.61367,386.77829 437.50947,403.9792 433.69553,417.38629 C 431.42686,425.36129 427.99421,437.73629 426.06741,444.88629 C 424.14062,452.03629 421.89596,460.17584 421.07928,462.97418 C 419.15112,469.58095 419.20428,471.19503 421.3444,471.02518 C 422.74293,470.91418 423.03934,471.56914 422.82026,474.28622 C 422.61729,476.80356 423.59674,479.42499 426.59327,484.38442 C 430.93729,491.57401 435.21372,503.40305 436.64243,512.1814 C 437.16599,515.39827 438.58277,518.99333 440.12249,521.012 C 441.88113,523.3177 442.51011,525.07651 442.07089,526.46035 C 441.70513,527.61278 442.15655,530.05115 443.10613,532.05224 C 444.07782,534.09994 444.59032,536.92979 444.31793,538.74346 C 444.00199,540.84715 444.4859,542.79241 445.78149,544.62679 C 447.61691,547.22549 449.69282,555.63658 448.14791,554.21492 C 447.12456,553.27322 429.44761,562.33976 430.13584,563.45335 C 430.44518,563.95387 430.08861,564.12943 429.34347,563.84349 C 428.59833,563.55756 426.33941,564.01271 424.32365,564.85495 C 419.99601,566.66316 419.89297,566.66066 407.34513,564.44364 z M 391.93989,562.63629 C 392.19483,562.22379 391.43389,561.86803 390.24891,561.8457 C 389.06393,561.82338 386.08629,561.46527 383.63194,561.04991 C 378.30385,560.14821 378.93089,561.37922 384.33336,562.42691 C 389.61555,563.45129 391.40574,563.50056 391.93989,562.63629 z M 378.15892,560.49068 C 377.85449,559.9981 373.79462,559.02813 369.13699,558.33519 C 364.47936,557.64225 360.85842,556.76811 361.09047,556.39266 C 361.32251,556.0172 364.51955,556.32843 368.195,557.08428 C 371.87045,557.84012 375.24666,558.32979 375.69769,558.17242 C 376.14872,558.01505 374.66793,555.51585 372.40705,552.61865 C 370.14616,549.72145 368.49871,547.14865 368.74604,546.90132 C 368.99337,546.65399 371.39406,549.36193 374.08092,552.91896 C 379.07627,559.53213 379.5944,560.05519 379.5944,558.48486 C 379.5944,557.06668 369.40569,545.38489 368.602,545.88159 C 368.20593,546.12638 366.07718,546.5534 363.87144,546.83054 C 361.6657,547.10768 358.64672,547.7961 357.1626,548.36036 C 355.67848,548.92462 353.11694,549.38629 351.47028,549.38629 C 347.38386,549.38629 348.63653,551.03173 354.96694,553.9793 C 358.02922,555.40516 359.26702,556.37069 358.04018,556.37652 C 356.91036,556.38189 353.85723,555.03629 351.25545,553.38629 C 346.00538,550.05679 344.5944,549.71573 344.5944,551.77616 C 344.5944,553.96322 352.39039,557.07225 362.15157,558.77794 C 378.17498,561.5779 378.8773,561.65305 378.15892,560.49068 z M 386.05465,558.26106 C 385.53898,556.63633 385.69974,556.32828 386.73727,556.95302 C 387.86122,557.6298 387.85859,557.4795 386.72195,556.07825 C 385.23613,554.24652 384.08841,553.75856 385.0944,555.38629 C 385.43432,555.93629 385.23588,556.38629 384.65342,556.38629 C 384.07096,556.38629 383.5944,555.90973 383.5944,555.32727 C 383.5944,554.74481 383.07487,554.58934 382.43989,554.98178 C 381.72459,555.42386 381.55683,555.2561 381.99891,554.5408 C 382.42919,553.84458 382.0511,553.38629 381.04643,553.38629 C 380.08268,553.38629 379.59259,552.83339 379.88376,552.07461 C 380.1606,551.35318 379.48034,549.66568 378.37208,548.32461 L 376.35706,545.88629 L 378.13053,548.88629 L 379.904,551.88629 L 377.7492,549.9813 C 376.56406,548.93356 375.5944,547.22505 375.5944,546.18462 C 375.5944,544.35541 375.67369,544.35227 377.99464,546.08961 C 379.31477,547.07778 381.17179,549.03579 382.12135,550.44074 C 383.07092,551.84569 385.1899,553.76543 386.8302,554.70684 C 389.13122,556.02744 389.56117,556.7214 388.71216,557.7444 C 387.60689,559.07617 388.15631,560.38629 389.82008,560.38629 C 390.31088,560.38629 390.39486,559.82379 390.00671,559.13629 C 389.44214,558.13629 389.57033,558.13629 390.6477,559.13629 C 391.38838,559.82379 392.4669,560.38278 393.0444,560.37849 C 394.49798,560.36769 396.69514,555.35413 395.84156,553.99582 C 395.45808,553.38558 395.27387,552.09879 395.43222,551.13629 C 395.59056,550.17379 395.21527,549.38629 394.59824,549.38629 C 393.98121,549.38629 393.71884,548.99395 394.01521,548.51443 C 394.56116,547.63106 384.72981,544.0565 378.93485,543.03139 C 376.7134,542.63842 375.61124,542.90003 375.22271,543.91252 C 374.91226,544.72153 373.99621,545.09397 373.13225,544.76244 C 372.28643,544.43787 371.5944,544.6131 371.5944,545.15184 C 371.5944,547.01747 381.77478,558.88914 383.92986,559.53661 C 385.12036,559.89429 386.23722,560.23179 386.41179,560.28661 C 386.58635,560.34143 386.42564,559.42994 386.05465,558.26106 z M 430.0944,556.38629 C 429.75448,555.83629 428.80137,555.38629 427.97637,555.38629 C 427.15137,555.38629 426.75448,555.83629 427.0944,556.38629 C 427.43432,556.93629 428.38743,557.38629 429.21243,557.38629 C 430.03743,557.38629 430.43432,556.93629 430.0944,556.38629 z M 446.5944,551.41767 C 446.5944,550.88494 445.9194,550.70808 445.0944,551.02466 C 444.2694,551.34125 443.5944,551.77712 443.5944,551.99328 C 443.5944,552.20943 444.2694,552.38629 445.0944,552.38629 C 445.9194,552.38629 446.5944,551.95041 446.5944,551.41767 z M 402.81232,541.47769 C 404.99348,536.7931 405.42961,534.67709 405.02069,530.76327 C 404.59769,526.71475 405.11924,524.44239 408.09096,517.38629 C 410.05986,512.71129 412.61881,506.14305 413.7775,502.7902 L 415.88422,496.69411 L 411.73931,491.4504 C 409.45961,488.56636 407.5944,485.7221 407.5944,485.12983 C 407.5944,483.84977 407.60807,483.86234 411.36913,488.59939 L 414.3172,492.31249 L 414.94678,486.28899 C 415.63076,479.74502 423.59763,446.38235 426.66649,437.21062 C 427.71099,434.089 430.09352,425.989 431.96101,419.21062 C 433.8285,412.43224 435.71311,406.02067 436.14903,404.96268 C 436.78705,403.4142 436.61103,403.16593 435.24642,403.68958 C 433.13874,404.49837 424.18082,401.0548 419.87689,397.78128 C 416.87484,395.49795 416.12806,395.37838 408.72477,395.9958 C 400.90845,396.64765 400.78124,396.70208 400.19228,399.6469 C 399.86344,401.29107 399.5944,404.15504 399.5944,406.01129 C 399.5944,408.30859 399.12666,409.38629 398.12958,409.38629 C 396.16379,409.38629 394.69835,406.42381 393.94487,400.92661 C 393.35213,396.60209 393.1686,396.38629 390.08348,396.38629 C 388.30198,396.38629 385.36818,396.09105 383.56391,395.73019 C 381.31706,395.28082 380.49509,395.41659 380.95522,396.16109 C 381.32471,396.75894 381.16803,397.53177 380.60704,397.87848 C 380.04605,398.22519 379.82532,399.49378 380.11653,400.69758 C 380.40773,401.90137 380.80872,404.68629 381.00761,406.88629 C 381.42663,411.52135 385.45642,431.35402 386.23525,432.61419 C 386.52471,433.08255 387.63497,438.9087 388.7025,445.5612 C 389.77003,452.2137 390.90821,458.08503 391.2318,458.60861 C 393.0754,461.59162 395.1771,453.74324 397.58433,434.88629 C 399.40884,420.59409 399.41641,419.81551 397.74475,418.38629 C 395.52139,416.48537 392.43452,410.38629 393.6958,410.38629 C 394.21725,410.38629 395.11092,411.61463 395.68171,413.11594 C 397.08284,416.80117 400.26107,418.87601 400.26107,416.10547 C 400.26107,414.53853 403.69369,409.15225 404.30359,409.76215 C 404.54465,410.0032 404.05863,411.52168 403.22355,413.13654 C 402.38848,414.7514 400.58281,423.90572 399.21096,433.47947 C 397.83912,443.05322 395.98357,453.29318 395.08752,456.23492 C 394.19147,459.17667 393.66924,461.79447 393.92702,462.05224 C 394.1848,462.31002 393.54041,464.95439 392.49505,467.92863 C 391.44969,470.90286 390.5944,475.65985 390.5944,478.49971 C 390.5944,483.8424 383.1326,511.36776 379.64607,518.88629 C 378.62588,521.08629 377.23444,525.81129 376.554,529.38629 C 375.87355,532.96129 375.10753,536.86888 374.85174,538.06983 C 374.47176,539.85379 374.75298,540.15758 376.38845,539.7299 C 377.48944,539.44198 379.56118,539.97364 380.99232,540.91136 C 382.42347,541.84908 383.5944,542.2878 383.5944,541.88629 C 383.5944,541.48478 384.71652,541.89151 386.08799,542.79014 C 388.07308,544.09082 397.24403,547.14279 399.5944,547.2849 C 399.8694,547.30153 401.31747,544.68828 402.81232,541.47769 z M 433.5944,541.39723 C 443.507,539.21683 445.15327,536.61397 440.46335,530.53693 C 438.84717,528.44274 438.81409,528.02375 440.15875,526.67908 C 441.50342,525.33442 441.38868,524.80535 439.10229,521.80775 C 437.60291,519.84196 436.10754,516.04399 435.50276,512.6656 C 433.50832,501.52442 426.67092,485.01155 421.43886,478.70021 C 420.78933,477.91669 420.83321,476.80859 421.56813,475.43538 C 422.4616,473.76592 422.36832,473.23677 421.0944,472.74791 C 420.22196,472.41313 419.31983,472.32752 419.08968,472.55768 C 418.85952,472.78784 417.89148,477.37674 416.93848,482.75524 C 415.56886,490.48506 415.45648,492.9358 416.40221,494.45016 C 417.36979,495.9995 417.18969,497.56352 415.4607,502.62614 C 414.28481,506.06922 412.70885,510.10144 411.95856,511.58663 C 410.20175,515.06421 410.27552,517.39687 412.22103,519.88629 C 413.69707,521.77499 413.76335,521.64927 413.41194,517.62719 C 413.18274,515.00397 413.43439,513.49994 414.06711,513.71137 C 414.67003,513.91283 414.95612,516.54956 414.75966,520.0942 C 414.50233,524.73724 414.91168,527.08788 416.52999,530.26003 C 418.72873,534.56992 420.25881,535.42439 421.23277,532.88629 C 421.54936,532.06129 422.4143,531.38629 423.15488,531.38629 C 424.20405,531.38629 424.12522,532.04735 422.79789,534.37997 C 421.86097,536.02649 420.55846,537.37649 419.90342,537.37997 C 417.9325,537.39043 417.44791,539.17602 418.81052,541.40703 C 420.22793,543.72776 423.00764,543.72591 433.5944,541.39723 z M 398.5944,401.31297 C 398.5944,397.01533 398.32683,396.29285 396.8444,396.58762 C 395.10462,396.93356 394.94815,398.62098 396.14446,404.13629 C 397.03737,408.25284 398.5944,406.45851 398.5944,401.31297 z M 418.5944,271.32727 C 418.5944,270.80973 418.1444,270.38629 417.5944,270.38629 C 417.0444,270.38629 416.5944,271.08785 416.5944,271.94531 C 416.5944,272.80277 417.0444,273.22621 417.5944,272.88629 C 418.1444,272.54637 418.5944,271.84481 418.5944,271.32727 z M 425.6101,260.83872 C 429.32588,249.57979 424.90932,233.27014 416.66776,227.81614 C 413.06475,225.43178 411.74669,225.17414 402.88902,225.12282 C 391.23856,225.05531 388.63765,225.96344 384.6278,231.49888 C 380.93221,236.6005 380.76932,237.97301 384.12002,235.77754 C 386.48204,234.22989 386.77151,234.2366 388.58867,235.8811 C 390.2714,237.40395 391.13105,237.48859 395.00586,236.5129 C 397.46666,235.89327 401.26577,235.38629 403.44833,235.38629 C 407.97228,235.38629 410.74806,237.96009 413.99627,245.16671 C 415.04231,247.48748 416.30636,249.38629 416.80529,249.38629 C 417.30422,249.38629 417.45942,249.79568 417.15017,250.29605 C 416.20777,251.82089 417.68399,254.33673 419.44034,254.19906 C 425.05421,253.75901 426.00805,256.06719 423.09419,263.04102 C 421.81167,266.11054 421.80424,266.45702 423.04304,265.42891 C 423.84002,264.76748 424.9952,262.70189 425.6101,260.83872 z M 414.0944,562.38629 C 411.32679,561.68205 411.28806,561.61494 413.5944,561.51992 C 414.9694,561.46327 416.7694,561.85313 417.5944,562.38629 C 419.29634,563.48617 418.41686,563.48617 414.0944,562.38629 z M 419.5944,563.00292 C 419.5944,562.79207 420.49502,562.38404 421.59578,562.09618 C 422.69654,561.80833 423.34498,561.98084 423.03676,562.47955 C 422.49851,563.35046 419.5944,563.79199 419.5944,563.00292 z M 406.86523,560.78212 C 407.19753,560.44983 408.06003,560.41431 408.7819,560.70318 C 409.57963,561.0224 409.34268,561.25936 408.17773,561.30734 C 407.12357,561.35076 406.53294,561.11441 406.86523,560.78212 z M 456.0685,417.53872 C 455.77155,415.70883 455.32736,402.703 455.77105,400.82039 C 456.45357,397.92441 457.15777,408.40493 457.24437,414.1158 C 457.35588,421.46907 456.91471,422.7533 456.0685,417.53872 z M 335.3444,413.51129 C 334.9319,411.65504 334.62034,408.95504 334.65204,407.51129 C 334.71136,404.81017 340.44266,391.11317 340.50656,393.53115 C 340.52616,394.27303 338.93378,399.00204 338.12635,400.73516 C 337.31892,402.46828 335.70717,406.87106 336.37635,410.38629 C 337.94799,418.64213 341.27039,432.333 335.3444,413.51129 z M 387.71629,278.48278 C 385.14413,276.85361 387.67951,275.35257 392.70314,275.53037 C 398.89659,275.74958 399.82688,276.9501 394.87,278.32664 C 390.31363,279.59196 389.49565,279.60981 387.71629,278.48278 z M 393.5944,276.7793 C 393.5944,276.56315 392.66784,276.38629 391.53538,276.38629 C 390.40292,276.38629 389.74234,276.81664 390.06741,277.34262 C 390.60102,278.20602 393.5944,277.72793 393.5944,276.7793 z M 388.0944,270.38629 C 387.75448,269.83629 387.92637,269.38629 388.47637,269.38629 C 389.02637,269.38629 389.75448,269.83629 390.0944,270.38629 C 390.43432,270.93629 390.26243,271.38629 389.71243,271.38629 C 389.16243,271.38629 388.43432,270.93629 388.0944,270.38629 z M 393.5944,269.88629 C 394.27909,269.06129 395.57169,268.4006 396.46684,268.41809 C 397.83416,268.44481 397.78403,268.68465 396.15327,269.91809 C 393.62673,271.82907 391.99883,271.80884 393.5944,269.88629 z "
       id="path2749"
       sodipodi:nodetypes="csscccssssssssssssssssssssssssssssssssssssssssssssccsssssssssssssssssssssssssscccsssssssssssssssssssssssssssssssssssssssssssssssssssssssssssssssssssssssssssscccssssssssssssssssssssssssssssscccssssssssssscccsssssssssssssssssssssssssssccsssccsssssssssssssssssccssssssssscccccsssssssssssssssssssccsssccsssccsscccscccsssssssssssssssssssssssssssssssssssssssccssssssssssssssssssssssccssccsssccsssssssssssssccssccssccssccssccssssccssccssccsssccssc"
       inkscape:export-filename="/home/rover/code/python/herobot/arte/pre/hombre-0-1.png"
       inkscape:export-xdpi="26.567476"
       inkscape:export-ydpi="26.567476" />
    <path
       style="fill:#000000"
       d="M 576.60024,570.17067 C 572.7375,569.65437 569.10775,568.59817 568.50136,567.81402 C 567.89698,567.03246 567.22198,566.57218 567.00136,566.79118 C 566.78075,567.01018 566.50586,565.87818 566.3905,564.27563 C 566.27514,562.67309 566.61264,561.36191 567.1405,561.36191 C 567.66836,561.36191 568.10557,560.79941 568.11209,560.11191 C 568.11861,559.42441 571.95125,556.86989 576.62907,554.4352 C 587.69411,548.67611 592.17937,544.69546 592.60477,540.25681 C 592.98419,536.29804 589.39665,528.08859 587.70791,529.05118 C 587.09869,529.39844 586.91739,529.33076 587.30502,528.90078 C 588.77681,527.26822 568.80353,500.05931 557.95151,488.91349 C 550.65339,481.41779 549.18889,476.50577 551.61996,476.50577 C 552.16996,476.50577 552.61996,477.13603 552.61996,477.90634 C 552.61996,478.67666 555.71409,484.9203 560.13101,489.51248 C 567.11685,496.77552 586.26029,521.84453 592.81903,532.31858 C 594.17468,534.48351 595.04996,535.21355 595.06903,534.19524 C 595.0862,533.27858 594.68739,532.37858 594.18279,532.19524 C 593.63299,531.99549 593.67069,529.65787 594.27687,526.36191 C 594.98732,522.49897 594.93152,516.9925 594.08941,507.86191 C 592.95627,495.57588 591.27183,489.36191 589.07456,489.36191 C 588.53868,489.36191 588.19276,489.02441 588.30584,488.61191 C 588.8047,486.79219 584.86738,481.42207 581.63679,479.51598 C 579.06761,478.00012 578.10024,476.7363 578.10024,474.89564 C 578.10024,472.09032 577.7888,471.92304 575.17264,473.32316 C 573.91239,473.99763 572.8132,473.85794 571.48838,472.85497 C 569.71983,471.51605 569.79627,471.4235 572.69525,471.39371 C 576.07194,471.35902 578.46795,469.25756 579.57253,465.36191 C 579.9624,463.98691 581.40964,459.97516 582.7886,456.44692 L 585.29582,450.03192 L 583.19312,441.94692 C 580.5588,431.8178 579.08029,422.1542 579.76455,419.53759 C 580.12057,418.17617 579.61689,417.1736 578.19448,416.41235 C 577.04265,415.7959 576.10024,414.78763 576.10024,414.17174 C 576.10024,413.54043 576.898,413.7739 577.92898,414.70692 C 580.46525,417.00222 580.78799,416.8399 581.52768,412.89699 C 581.88519,410.99128 582.68116,409.12092 583.2965,408.74062 C 584.06757,408.26407 584.1976,408.79706 583.71486,410.45554 C 583.32963,411.77904 582.58844,415.65422 582.06776,419.06704 C 581.04301,425.78394 582.35538,433.96772 587.55928,453.31133 C 589.12809,459.14283 589.74501,463.11714 589.17057,463.69158 C 588.59613,464.26602 587.98816,463.13677 587.58267,460.74216 C 586.22034,452.69707 586.01427,452.74321 582.10805,461.96803 C 579.35234,468.47584 578.64697,471.13019 579.47883,471.86191 C 580.1041,472.41191 580.47376,473.83364 580.30029,475.0213 C 580.07557,476.55985 580.87778,477.70814 583.09048,479.01522 C 584.79856,480.02421 587.33919,482.80031 588.73632,485.18433 C 591.84128,490.48255 592.76474,490.22987 590.11411,484.80734 C 588.06875,480.62304 587.18095,470.65837 588.64278,468.29308 C 589.12184,467.51795 590.28868,464.17884 591.23577,460.87283 C 592.18286,457.56682 592.98981,455.88861 593.029,457.14346 C 593.06818,458.39831 592.19398,462.11518 591.08633,465.40319 C 588.65135,472.63133 589.04156,481.43869 591.97242,485.4029 C 593.13352,486.97337 594.12915,490.50249 594.51697,494.42238 C 596.39205,513.37455 596.9779,524.8518 596.65988,536.40336 L 596.30663,549.23428 L 603.66241,551.91708 C 608.81259,553.79545 612.005,554.41426 614.30922,553.98083 L 617.60024,553.36178 L 617.92151,538.11185 C 618.09821,529.72438 618.40853,515.01991 618.61111,505.43524 C 618.89923,491.80374 618.66304,487.25132 617.52662,484.53146 C 616.72756,482.61906 616.00165,479.21333 615.91348,476.96318 C 615.72841,472.24005 615.12478,471.50237 609.35024,468.94232 C 607.01274,467.90603 605.10024,466.6925 605.10024,466.24557 C 605.10024,465.79865 607.06699,466.27603 609.47081,467.30643 L 613.84137,469.17987 L 613.96817,463.67966 C 614.03791,460.65455 614.38872,457.70416 614.74775,457.12324 C 615.10677,456.54232 615.76053,448.14587 616.20055,438.46447 C 616.64056,428.78306 617.25702,416.13691 617.57046,410.36191 C 618.09757,400.64996 618.03012,400.08707 616.67176,402.86191 C 615.86405,404.51191 614.92871,408.40084 614.59324,411.50397 C 614.00656,416.93087 613.74718,417.34587 607.79177,422.38631 C 601.50251,427.7093 597.51796,430.11296 596.56426,429.15926 C 596.27412,428.86912 596.56502,425.30852 597.21071,421.24682 C 598.03473,416.06334 599.16206,412.86347 600.99247,410.51253 C 604.29993,406.26449 607.08817,402.03763 607.09497,401.26139 C 607.09787,400.9311 604.95804,399.3292 602.33979,397.7016 C 598.23804,395.15182 596.51621,394.72066 589.89604,394.58563 L 582.21274,394.42892 L 581.58184,399.14542 C 580.48235,407.36499 579.23822,408.51893 576.76626,403.61191 C 574.74795,399.60543 573.88121,395.36191 575.08119,395.36191 C 575.64167,395.36191 576.10024,396.24074 576.10024,397.31486 C 576.10024,398.38898 576.62829,400.42675 577.27368,401.84323 C 578.75658,405.09784 580.06323,403.39654 580.08493,398.18288 L 580.10024,394.50385 L 570.85024,394.18255 C 565.76274,394.00583 561.52664,393.8614 561.43669,393.86158 C 561.34674,393.86176 560.79686,401.06191 560.21475,409.86191 C 559.63264,418.66191 558.2304,431.93691 557.09867,439.36191 C 553.4557,463.26249 553.14019,465.77566 553.12005,471.05289 C 553.10915,473.90793 552.59821,476.55415 551.98461,476.93337 C 550.56328,477.8118 551.51752,465.60425 554.1789,448.86191 C 556.2614,435.76116 559.12855,414.61976 559.0525,412.92549 C 559.02625,412.34052 558.30929,413.84851 557.45927,416.27657 C 556.60925,418.70463 555.28714,421.31786 554.52125,422.08375 C 553.33122,423.27379 552.69042,422.78514 550.11448,418.72332 C 546.71489,413.36272 546.63916,412.78922 548.42254,405.91025 C 549.51723,401.68776 549.44458,399.18435 547.92917,388.91025 C 545.85346,374.83744 545.68382,368.40206 547.20196,361.32319 C 548.02207,357.49919 547.99301,353.6499 547.08831,346.2645 C 546.01234,337.48102 545.62787,336.28162 543.73658,335.80819 C 541.6823,335.29397 541.61303,334.8238 541.93323,323.56767 C 542.28801,311.09588 543.74366,305.92725 547.21126,304.82667 C 553.55623,298.27037 564.14733,297.61143 568.91979,289.61191 C 569.19532,287.67186 568.78205,287.35696 565.91979,287.32595 C 563.96894,287.30481 561.42674,286.33002 559.75412,284.96174 C 557.35899,283.00243 556.60794,281.14621 555.01442,273.2477 C 553.97295,268.08552 553.1162,262.64024 553.11054,261.14709 C 553.10405,259.43629 552.33814,258.02442 551.03956,257.32943 C 548.26722,255.84572 548.80956,251.9742 551.85024,251.54236 C 553.82943,251.26127 553.75515,247.49257 553.88695,242.93565 C 553.97364,239.93847 554.19456,239.01953 554.41116,240.7552 C 555.30029,247.88014 555.91497,251.3593 559.86929,251.40546 C 561.92131,251.42941 565.62524,251.84016 568.10024,252.31824 C 570.57722,252.7967 573.06238,252.80491 573.62821,252.33651 C 574.1936,251.86848 578.1311,251.17066 582.37821,250.7858 C 586.62533,250.40094 590.10024,249.88461 590.10024,249.63841 C 590.10024,249.39221 588.67407,246.32516 586.93097,242.82273 L 583.76171,236.45469 L 571.26327,237.69094 L 572.23082,236.53071 L 579.33599,235.54689 L 585.07174,235.36191 L 589.83599,245.11191 C 593.94868,253.52851 594.9381,254.86191 597.07071,254.86191 C 598.70193,254.86191 599.97084,255.71119 600.80596,257.36191 C 601.55607,258.84458 602.10699,259.25151 602.15981,258.36191 C 602.24358,256.95084 602.8347,253.39176 603.27514,251.64663 C 603.78044,249.64452 601.69042,239.39507 599.93248,235.25417 C 598.85661,232.71991 596.63743,229.65653 595.00098,228.44665 C 584.66669,220.80617 567.17072,221.97903 560.69616,230.7463 C 556.57193,236.33095 556.57629,236.46933 560.85488,235.78516 C 563.88466,235.30067 565.16825,235.57277 566.59811,237.00264 C 567.90293,238.30746 568.56008,238.4824 568.85322,237.60298 C 569.08075,236.92039 570.24191,236.37622 571.43357,236.39371 C 573.55386,236.42484 573.55869,236.45694 571.65911,237.89371 C 569.48808,239.5358 566.10024,239.86221 566.10024,238.4293 C 566.10024,236.88464 562.10566,236.11252 560.59606,237.36538 C 559.82154,238.00817 558.76913,238.2753 558.25735,237.95901 C 557.74558,237.64272 556.77076,238.05398 556.0911,238.87292 C 553.25245,242.29328 553.42817,239.96864 556.40192,234.76104 C 562.35184,224.3416 569.77153,220.75083 582.15181,222.29934 C 589.56214,223.22622 595.96732,226.10618 598.89435,229.8273 C 602.04172,233.82853 605.38701,247.703 604.65449,253.71727 C 604.00667,259.03604 600.71911,265.62733 595.98504,271.09878 C 591.311,276.50086 589.78479,286.86703 593.07907,290.8364 C 594.48695,292.53279 606.06564,295.42859 613.33644,295.90271 C 625.79587,296.71519 630.08813,302.34918 634.03073,323.06592 C 635.33521,329.92047 635.48279,332.38487 634.60884,332.72024 C 633.91287,332.98731 633.3542,335.75274 633.23594,339.51623 C 633.12627,343.00635 632.62062,348.33691 632.11228,351.36191 C 631.60394,354.38691 631.24702,360.60699 631.31913,365.18431 L 631.45024,373.50671 L 624.86524,386.43431 C 621.24348,393.54449 618.57723,399.36173 618.94024,399.36151 C 619.30324,399.36129 619.27689,404.19879 618.88168,410.11151 C 618.48647,416.02423 617.93666,427.72407 617.65989,436.11116 C 617.38312,444.49824 616.68072,455.19056 616.099,459.87186 C 615.37211,465.7214 615.36329,468.9849 616.07078,470.30687 C 616.63698,471.36483 617.10024,474.00505 617.10024,476.17404 C 617.10024,478.34303 617.85671,481.86012 618.78127,483.98979 C 620.60823,488.19804 620.73539,494.94315 619.58947,526.86191 C 619.25379,536.21191 618.84885,547.91191 618.6896,552.86191 C 618.53034,557.81191 618.2793,562.31191 618.13172,562.86191 C 617.98414,563.41191 617.91385,564.1909 617.97551,564.59299 C 618.25832,566.43715 612.7418,568.3805 603.1741,569.8072 C 591.73556,571.51288 587.11505,571.57607 576.60024,570.17067 z M 606.91883,567.7696 C 614.24943,566.36703 616.91764,565.43554 614.01691,565.29162 C 613.18022,565.25011 613.41903,564.86949 614.60024,564.36191 C 616.35092,563.60962 616.37818,563.49372 614.81885,563.4322 C 613.83909,563.39354 612.77944,564.03433 612.46407,564.85617 C 612.1487,565.67801 611.45543,566.08143 610.92346,565.75266 C 609.35203,564.78145 589.83976,567.57345 591.31096,568.559 C 592.14217,569.11581 591.712,569.25569 590.10024,568.95272 C 588.72524,568.69425 585.12524,568.21488 582.10024,567.88746 C 579.07524,567.56004 575.13774,567.03277 573.35024,566.71574 C 571.56274,566.39871 570.10024,566.54126 570.10024,567.03251 C 570.10024,567.52376 571.11274,568.03429 572.35024,568.16703 C 573.58774,568.29976 577.07524,568.81508 580.10024,569.31219 C 586.51718,570.36671 596.27994,569.80516 606.91883,567.7696 z M 593.85713,565.93835 C 594.06112,565.73437 592.73677,563.52346 590.91413,561.02522 C 588.74441,558.05125 587.08234,556.67409 586.10024,557.03653 C 585.27524,557.34099 582.12524,558.23264 579.10024,559.01799 C 572.05721,560.84648 568.10024,562.40599 568.10024,563.35327 C 568.10024,564.30085 575.35205,566.23432 580.60024,566.686 C 584.80005,567.04746 593.22306,566.57242 593.85713,565.93835 z M 597.10024,564.97233 C 597.10024,564.75806 595.53568,562.84556 593.62344,560.72233 C 590.32562,557.06063 589.00829,554.56901 591.03114,555.8192 C 591.54314,556.13564 592.24469,555.93719 592.59016,555.37822 C 592.93562,554.81925 592.54327,554.36191 591.71827,554.36191 C 588.88297,554.36191 588.99838,556.35352 592.09446,560.85351 C 594.67841,564.60916 597.10024,566.60187 597.10024,564.97233 z M 603.6046,564.35485 C 603.94692,563.80096 603.49762,563.06789 602.60615,562.7258 C 601.71468,562.38372 601.20581,561.52917 601.47533,560.82682 C 601.74485,560.12447 600.98321,558.72004 599.7828,557.70587 L 597.60024,555.86191 L 599.50523,558.11191 C 601.88572,560.92354 600.08724,561.11002 597.55682,558.31394 C 595.43857,555.97329 594.66702,553.00675 596.43803,554.01223 C 599.48016,555.73939 606.07417,561.59508 605.68537,562.22417 C 604.97984,563.36573 609.28352,563.30184 613.39964,562.10964 C 616.66774,561.16307 617.15718,560.64928 616.89964,558.43555 C 616.63434,556.15506 616.03072,555.78985 611.60024,555.22931 C 608.85024,554.88138 604.75708,553.84776 602.50434,552.93239 C 600.25159,552.01701 596.65159,551.13706 594.50434,550.97695 C 592.35708,550.81683 590.69736,550.20909 590.81605,549.62643 C 590.93754,549.03009 590.15514,548.7963 589.02608,549.09156 C 587.14395,549.58374 587.12299,549.72957 588.68613,551.45682 C 589.93017,552.83147 590.80987,553.0525 592.16036,552.32973 C 593.15498,551.79743 594.24307,551.36191 594.57834,551.36191 C 595.62997,551.36191 594.66205,554.81323 593.31229,555.87624 C 592.31629,556.66065 592.97497,557.85069 596.2181,561.12624 C 600.41253,565.36261 602.43534,566.24676 603.6046,564.35485 z M 577.86145,558.30337 C 587.13132,556.22595 591.3426,553.43636 587.4588,551.94601 C 586.06358,551.41061 586.01382,551.55286 587.12708,552.89426 C 588.29314,554.29927 588.16369,554.34794 585.94702,553.33796 C 583.78954,552.35495 582.56583,552.6935 576.77873,555.87449 C 570.54318,559.30198 567.95788,561.39799 571.77031,559.93502 C 572.68885,559.58254 575.42987,558.8483 577.86145,558.30337 z M 594.66438,546.44461 C 594.6291,544.8401 594.26274,543.2651 593.85024,542.94461 C 593.43774,542.62413 593.32134,542.65801 593.59156,543.0199 C 593.86179,543.3818 593.58645,544.27606 592.97969,545.00717 C 592.37293,545.73827 592.13771,547.01717 592.45698,547.84918 C 593.42618,550.37487 594.73252,549.54365 594.66438,546.44461 z M 606.14667,421.9011 C 610.82118,417.94567 612.68033,415.67139 612.89075,413.6511 C 613.05054,412.11704 613.32519,409.28691 613.5011,407.36191 C 613.67701,405.43691 616.61797,398.68691 620.03656,392.36191 C 630.54271,372.92368 629.73571,376.53002 631.63509,340.53007 C 631.93281,334.88731 631.78585,334.28327 630.2847,334.97964 C 629.35825,335.40942 625.58104,335.93245 621.8909,336.14195 L 615.18156,336.52284 L 615.70807,340.69238 C 615.99765,342.98562 616.86784,348.6377 617.64183,353.25256 L 619.04909,361.64322 L 616.19389,368.25256 C 613.30558,374.93857 612.69562,377.29325 609.44241,394.31599 C 607.90852,402.3422 607.05776,404.50115 603.8094,408.61063 C 600.84808,412.35698 599.68358,415.02345 598.65787,420.40655 C 597.65502,425.66973 597.61974,427.36191 598.51285,427.36191 C 599.16199,427.36191 602.59721,424.90454 606.14667,421.9011 z M 557.10281,411.85121 C 558.11096,407.64877 558.15629,405.49024 557.29679,402.61456 C 556.49966,399.94751 556.46685,396.83689 557.1834,391.86191 C 558.5452,382.40696 558.14017,359.69636 556.53835,355.69347 C 555.841,353.95083 555.4864,352.30908 555.75034,352.04514 C 556.01428,351.7812 555.43435,348.14433 554.46162,343.96321 C 552.74061,336.56579 552.61556,336.36707 549.8159,336.5804 C 546.98723,336.79594 546.95057,336.87591 547.63822,341.33077 C 549.26279,351.85525 549.66661,357.30182 548.96331,359.20302 C 547.0469,364.38357 547.04346,373.44336 548.95279,386.86191 C 550.67602,398.97248 550.7755,401.67166 549.68992,406.86191 C 548.53208,412.39768 548.59516,413.14741 550.50527,416.55182 C 552.35221,419.84363 552.74881,420.08494 554.18139,418.78847 C 555.06459,417.98918 556.37923,414.86742 557.10281,411.85121 z M 558.78732,396.60025 C 558.53703,395.64416 558.34132,396.66191 558.35242,398.86191 C 558.36352,401.06191 558.56831,401.84416 558.8075,400.60025 C 559.04669,399.35634 559.03761,397.55634 558.78732,396.60025 z M 608.9758,391.11191 C 609.63352,387.12441 610.4604,382.28691 610.8133,380.36191 C 611.16621,378.43691 611.32978,371.63922 611.1768,365.25593 C 611.02381,358.87265 611.43809,351.05145 612.09742,347.8755 C 613.03389,343.36454 613.03119,341.93727 612.08506,341.35253 C 611.18934,340.79894 611.17539,340.50353 612.03152,340.21815 C 613.2834,339.80086 613.40446,338.07073 612.61621,331.86191 L 612.10839,327.86191 L 613.4379,331.36191 C 614.64456,334.53853 615.17271,334.89132 619.15418,335.18018 C 624.01226,335.53263 631.51574,333.77111 633.0546,331.9169 C 634.29852,330.41807 632.88417,321.11066 629.98723,311.73145 C 627.23478,302.82006 623.32741,298.7924 616.53996,297.87021 C 613.82312,297.50108 608.34659,296.61643 604.3699,295.90434 C 598.36561,294.82916 596.9512,294.83656 596.02879,295.948 C 595.41787,296.68411 592.55885,298.16907 589.67541,299.2479 C 585.09869,300.96027 583.44681,301.08701 576.67035,300.24571 C 572.40101,299.71567 567.87404,298.60458 566.61041,297.77662 C 564.4822,296.38216 563.88141,296.50291 558.45658,299.41542 C 543.87297,307.24513 543.96818,307.0921 543.93968,322.74715 C 543.91797,334.66362 544.33691,335.57949 549.60024,335.12243 C 552.46626,334.87354 552.60024,334.65418 552.60024,330.21043 C 552.60024,321.77704 553.78482,324.15227 554.42282,333.86492 C 554.76722,339.10793 555.5227,344.28277 556.10167,345.36457 C 557.08798,347.20752 557.60609,350.39971 558.69812,361.36191 C 558.94468,363.83691 559.14324,371.62151 559.13937,378.66101 C 559.13534,385.97758 559.51722,391.22223 560.03087,390.90478 C 560.52507,390.59935 561.1182,390.91475 561.34892,391.60568 C 561.6695,392.56569 567.22242,392.86191 584.89788,392.86191 C 597.61908,392.86191 607.25624,393.16778 606.31379,393.54162 C 605.37134,393.91547 603.47524,394.25593 602.10024,394.29821 L 599.60024,394.37509 L 602.60024,396.36191 C 604.25024,397.45466 606.09067,398.3517 606.69009,398.35532 C 607.2895,398.35894 608.31807,395.09941 608.9758,391.11191 z M 616.57342,357.36191 C 616.24469,354.33691 615.70557,349.61191 615.37539,346.86191 L 614.77505,341.86191 L 613.48001,347.36191 C 612.00486,353.62686 611.80364,358.9299 612.77386,365.97234 L 613.44749,370.86191 L 615.3093,366.86191 C 616.73394,363.80115 617.03077,361.57045 616.57342,357.36191 z M 588.80319,298.16855 C 590.34157,297.5122 592.34039,296.36031 593.24502,295.60878 C 594.75209,294.35678 594.6893,294.04188 592.49502,291.8476 C 589.43017,288.78275 589.23637,280.86182 592.07331,274.61191 C 594.00622,270.35362 593.67457,269.2719 591.15354,271.61191 C 590.2454,272.45484 590.02275,272.47734 590.46985,271.68101 C 590.83451,271.03151 590.67552,270.21746 590.11655,269.87199 C 589.55758,269.52653 589.06581,269.60793 589.02373,270.05289 C 588.46736,275.93587 586.19021,278.58293 577.65672,283.26638 C 571.47565,286.65874 570.10024,287.85363 570.10024,289.83106 C 570.10024,291.19121 569.134,292.92528 567.89097,293.79594 C 565.15642,295.71129 566.20833,296.96255 571.61751,298.22873 C 577.37738,299.577 585.56924,299.54831 588.80319,298.16855 z M 577.12365,282.41731 C 584.84532,277.82995 586.11578,276.50708 587.02675,272.10575 C 587.57138,269.47441 588.17799,268.86191 590.23941,268.86191 C 593.06601,268.86191 596.10024,266.79106 596.10024,264.86191 C 596.10024,264.1716 596.67475,263.13 597.37693,262.54724 C 598.97196,261.22349 599.42108,256.67824 598.04113,255.82538 C 597.47546,255.47577 596.3489,255.74058 595.53768,256.41383 C 594.35498,257.39538 593.69463,257.30481 592.20504,255.95675 C 590.67749,254.57434 590.25214,254.52368 589.81162,255.67164 C 589.46616,256.57192 586.84832,257.31644 582.44038,257.76804 C 576.3668,258.3903 575.42789,258.24982 574.01728,256.50778 C 571.82919,253.80561 566.55476,253.35806 564.82215,255.72754 C 563.9823,256.8761 561.72066,257.76308 558.78943,258.09347 C 553.28744,258.71363 553.33938,258.48149 555.98915,270.60699 C 557.02804,275.36107 557.70029,279.42853 557.48302,279.6458 C 556.27658,280.85223 565.33045,286.34556 568.54207,286.35575 C 569.61008,286.35914 573.47179,284.58684 577.12365,282.41731 z M 563.3085,277.68572 C 562.31658,277.28772 562.28697,276.84184 563.18095,275.76466 C 564.48166,274.1974 573.63153,273.79451 574.54004,275.2645 C 575.68006,277.10909 566.69745,279.0455 563.3085,277.68572 z M 563.60024,269.36191 C 563.26032,268.81191 563.68376,268.36191 564.54122,268.36191 C 565.39868,268.36191 566.10024,268.81191 566.10024,269.36191 C 566.10024,269.91191 565.6768,270.36191 565.15926,270.36191 C 564.64172,270.36191 563.94016,269.91191 563.60024,269.36191 z M 569.10024,269.36191 C 571.05861,268.09631 572.38242,268.09631 571.60024,269.36191 C 571.26032,269.91191 570.22126,270.35502 569.29122,270.3466 C 567.83395,270.3334 567.80755,270.19731 569.10024,269.36191 z M 600.90711,260.83545 C 600.59923,260.52756 600.04006,261.08256 599.66453,262.06878 C 599.12185,263.49398 599.23671,263.60884 600.22433,262.62858 C 600.90775,261.95024 601.215,261.14334 600.90711,260.83545 z "
       id="path6037"
       sodipodi:nodetypes="csssssssssssssssssssssssssscccsssssssssssssssssssssssccccccssssscccssssssssssscccsssscccssssssssssssssssccssssssssssssscccccccssssssssssssssssssssssssssscccssssssssssssccssssssssssssccsssssccsssssccsscccsssssssssssssssccsssssccssssccsssssccccccssssccssssssssssssccssccssssscccssssssssssssssssssssscccsccccccccccsssssssssssccsssssssssssssssccssccsssccssccssc"
       inkscape:export-filename="/home/rover/code/python/herobot/arte/pre/hombre-0-2.png"
       inkscape:export-xdpi="25.698784"
       inkscape:export-ydpi="25.698784" />
  </g>
</svg>
