<?xml version="1.0" encoding="UTF-8" standalone="no"?>
<!-- Created with Inkscape (http://www.inkscape.org/) -->
<svg
   xmlns:dc="http://purl.org/dc/elements/1.1/"
   xmlns:cc="http://web.resource.org/cc/"
   xmlns:rdf="http://www.w3.org/1999/02/22-rdf-syntax-ns#"
   xmlns:svg="http://www.w3.org/2000/svg"
   xmlns="http://www.w3.org/2000/svg"
   xmlns:sodipodi="http://sodipodi.sourceforge.net/DTD/sodipodi-0.dtd"
   xmlns:inkscape="http://www.inkscape.org/namespaces/inkscape"
   width="210mm"
   height="297mm"
   id="svg5046"
   sodipodi:version="0.32"
   inkscape:version="0.45.1"
   sodipodi:docbase="/home/rover/Desktop/tmp2"
   sodipodi:docname="hombre-5.svg"
   inkscape:output_extension="org.inkscape.output.svg.inkscape">
  <defs
     id="defs5048" />
  <sodipodi:namedview
     id="base"
     pagecolor="#ffffff"
     bordercolor="#666666"
     borderopacity="1.0"
     inkscape:pageopacity="0.0"
     inkscape:pageshadow="2"
     inkscape:zoom="1.5416668"
     inkscape:cx="271.00102"
     inkscape:cy="590.80194"
     inkscape:document-units="px"
     inkscape:current-layer="layer1"
     inkscape:window-width="1022"
     inkscape:window-height="713"
     inkscape:window-x="0"
     inkscape:window-y="0" />
  <metadata
     id="metadata5051">
    <rdf:RDF>
      <cc:Work
         rdf:about="">
        <dc:format>image/svg+xml</dc:format>
        <dc:type
           rdf:resource="http://purl.org/dc/dcmitype/StillImage" />
      </cc:Work>
    </rdf:RDF>
  </metadata>
  <g
     inkscape:label="Capa 1"
     inkscape:groupmode="layer"
     id="layer1">
    <path
       style="fill:#000000"
       d="M 283.43991,619.54872 C 282.06546,619.00065 278.04151,618.65733 274.49781,618.7858 C 270.69481,618.92367 265.56884,617.90158 265.363,617.28405 C 264.93694,616.00588 279.77736,617.22032 286.58655,618.76681 L 291.23417,619.82236 L 296.58655,614.61609 C 304.52213,606.89713 305.54192,606.08458 310.25636,603.72418 C 314.31907,601.69008 314.53339,601.37403 313.88906,598.36727 C 313.51246,596.60987 311.50897,590.672 309.43686,585.172 C 305.57887,574.93175 304.81788,571.63277 303.90069,561.172 C 303.3088,554.4214 301.93456,552.7602 297.38061,553.29043 C 294.14747,553.66688 286.4111,557.79566 284.40133,560.21729 C 283.73731,561.01738 282.57413,561.672 281.81647,561.672 C 280.11971,561.672 280.04333,562.87642 281.63892,564.472 C 282.29892,565.132 282.55073,565.672 282.19849,565.672 C 281.17003,565.672 286.5419,581.07281 289.66941,587.09069 C 292.45529,592.45119 291.5455,596.34587 286.20844,601.90674 C 284.9602,603.20732 282.93109,605.57844 281.69929,607.17589 L 279.45967,610.08034 L 282.19929,611.29495 L 284.93892,612.50956 L 282.12318,612.59078 C 280.57452,612.63545 278.49086,612.23498 277.49282,611.70085 C 276.25642,611.03914 274.28584,611.16696 271.30856,612.10198 C 268.90526,612.85673 267.61392,613.53244 268.43892,613.60354 C 269.64209,613.70724 269.59262,613.93452 268.18892,614.7521 C 267.22642,615.3127 266.43892,616.48929 266.43892,617.36673 C 266.43892,618.73194 265.46519,618.87106 259.68892,618.33118 C 250.59653,617.48135 249.10346,617.16563 248.71872,616.0114 C 248.53798,615.46918 247.0529,615.22181 245.41855,615.46168 C 243.78419,615.70155 238.50767,614.9719 233.69295,613.84022 C 228.87823,612.70854 223.1928,611.50135 221.05867,611.15756 C 218.27259,610.70876 217.48393,610.22699 218.26186,609.44906 C 218.99508,608.71583 219.02581,607.76863 218.35693,606.5188 C 217.5342,604.98153 217.73965,604.672 219.58274,604.672 C 222.42559,604.672 227.86131,602.97236 232.93892,600.49579 C 235.13892,599.42276 239.18892,597.98431 241.93892,597.29924 C 245.54242,596.40155 247.26822,595.37194 248.11795,593.61283 C 249.85175,590.02352 254.57986,566.27549 255.17403,558.172 C 255.46754,554.169 256.52084,549.52386 257.63419,547.3225 C 259.05421,544.51477 259.40695,542.44228 258.93763,539.66438 C 258.58373,537.56964 258.76602,534.14685 259.34273,532.05818 C 260.10385,529.30164 260.08154,528.06916 259.26132,527.56224 C 258.55167,527.12365 258.1879,523.88782 258.28339,518.8633 C 258.3837,513.58499 257.57686,506.83223 255.91215,499.01736 C 248.47894,464.12273 246.3567,446.85036 248.43615,438.172 C 248.56793,437.622 248.58804,436.947 248.48083,436.672 C 247.38793,433.86873 247.11468,430.7842 247.2406,422.672 C 247.34828,415.73449 246.81096,411.02622 245.24858,405.21686 L 243.10911,397.26173 L 241.74061,401.21455 C 240.98793,403.38861 236.65444,409.42679 235.8165,410.25306 C 234.90534,411.15153 238.34886,405.96132 239.87221,402.672 C 241.84658,398.40883 242.43738,395.48541 242.49943,389.672 C 242.55038,384.89903 242.86719,382.89921 243.37075,384.172 C 243.80595,385.272 243.94479,387.82428 243.6793,389.84374 C 243.37679,392.14467 244.07019,396.25141 245.53658,400.84374 C 247.31034,406.39866 247.94447,410.95485 248.15712,419.672 C 248.54797,435.69497 248.54167,435.65968 251.13066,436.30948 C 252.3754,436.62189 262.19591,436.32321 272.95403,435.64574 C 283.71214,434.96827 292.79729,434.69704 293.14324,435.04299 C 293.4892,435.38895 291.96006,435.672 289.74516,435.672 C 287.53026,435.672 283.63026,435.95817 281.07849,436.30792 C 276.5779,436.9248 276.43892,437.04725 276.43892,440.39582 L 276.43892,443.8478 L 280.68892,443.09749 C 283.02642,442.68481 285.69729,442.3901 286.62419,442.44256 C 287.71116,442.50409 288.53815,441.4967 288.95364,439.60497 C 289.69496,436.22978 290.23276,436.0078 291.95673,438.36547 C 293.05744,439.87078 293.27103,439.7129 293.87907,436.94448 C 294.66437,433.36907 298.62604,428.672 300.85637,428.672 C 301.6885,428.672 303.95999,430.06862 305.90412,431.77559 C 309.80841,435.2036 310.62183,439.16178 307.61795,440.11518 C 306.61642,440.43305 304.34637,442.11137 302.5734,443.84478 L 299.34982,446.99643 L 302.82072,450.58421 C 305.68512,453.54507 306.19228,454.69622 305.72309,457.172 C 305.4104,458.822 304.40717,461.297 303.49369,462.672 C 302.58021,464.047 301.04441,469.09572 300.0808,473.89137 C 299.11719,478.68703 296.51656,488.13703 294.30162,494.89137 C 292.08668,501.64572 289.86327,510.097 289.36071,513.672 C 288.85815,517.247 288.17561,521.59004 287.84395,523.32319 C 287.34437,525.93382 287.60099,526.58866 289.33992,527.14058 C 290.72352,527.57972 291.43892,528.64631 291.43892,530.26997 C 291.43892,531.62473 293.23892,536.19016 295.43892,540.41538 C 299.36386,547.95344 300.97438,553.3278 298.99021,552.10151 C 298.44021,551.76159 297.99021,550.79825 297.99021,549.96076 C 297.99021,549.12326 295.86392,543.8212 293.93892,540.53669 C 292.01392,537.25218 290.43203,533.80146 290.42361,532.86842 C 290.41519,531.93539 289.98392,530.50076 289.46525,529.68036 C 288.03992,527.42588 286.24149,529.77035 285.88286,534.35041 C 285.43547,540.06417 280.22633,559.672 279.15577,559.672 C 278.64381,559.672 278.55346,558.8845 278.95497,557.922 C 279.35649,556.9595 280.08406,554.147 280.57179,551.672 C 281.05952,549.197 282.19034,544.95915 283.08473,542.25456 C 284.40537,538.26097 284.478,536.96423 283.47132,535.35228 C 282.44314,533.70589 282.50521,533.2144 283.83534,532.47003 C 286.22218,531.13429 285.7918,528.83794 282.43892,525.01922 C 279.36229,521.51514 278.67291,519.672 280.43892,519.672 C 280.98892,519.672 281.43892,520.27726 281.43892,521.01701 C 281.43892,521.75677 282.2933,523.13523 283.33755,524.08026 C 285.16787,525.73668 285.29643,525.61706 286.91128,520.75523 C 287.83258,517.98143 288.32132,514.87683 287.99735,513.85611 C 287.67339,512.83539 289.21824,506.41389 291.43036,499.58612 C 295.97441,485.56079 300.8045,466.70425 300.04706,465.94681 C 299.77066,465.6704 297.3381,467.7455 294.64138,470.55813 C 291.83182,473.48844 288.85312,475.672 287.66531,475.672 C 284.63245,475.672 279.61628,471.03462 279.24342,467.88608 C 279.06153,466.35016 280.73033,460.72329 283.08775,454.92372 C 285.37891,449.28716 286.93745,444.48011 286.55118,444.24138 C 285.37508,443.51451 277.43892,444.87516 277.43892,445.80367 C 277.43892,446.28125 276.53892,446.672 275.43892,446.672 C 274.33892,446.672 273.43892,446.222 273.43892,445.672 C 273.43892,445.122 273.05576,444.672 272.58745,444.672 C 271.7584,444.672 270.13104,461.69745 270.88776,462.45417 C 271.09668,462.6631 272.20617,462.33175 273.35327,461.71784 C 276.10715,460.24401 275.98574,461.09018 272.68892,466.34817 C 269.51294,471.41343 266.24292,471.88962 263.598,467.672 L 262.03022,465.172 L 264.54902,467.422 C 267.76175,470.29187 268.82899,470.25181 270.83784,467.18593 C 272.37422,464.84111 272.34747,464.58055 270.36713,462.60021 C 267.53732,459.77041 263.46076,450.82193 263.44869,447.41353 C 263.43975,444.8894 263.2643,444.76197 261.38344,445.91353 C 259.6437,446.97869 259.17525,446.90319 258.33375,445.422 C 257.04663,443.15642 249.65035,442.95744 248.803,445.16559 C 248.26152,446.57667 249.30314,456.09427 251.59447,470.672 C 252.15638,474.247 254.22022,484.372 256.18078,493.172 C 258.90654,505.40666 259.71796,511.23117 259.62875,517.922 C 259.56458,522.7345 259.73175,526.672 260.00025,526.672 C 261.27684,526.672 262.71225,520.48205 262.89892,514.172 C 263.01282,510.322 263.84205,502.65476 264.74166,497.13369 C 266.07687,488.93923 266.80898,482.11735 267.39369,472.422 C 267.41857,472.0095 267.85912,471.672 268.3727,471.672 C 268.88628,471.672 269.14959,472.6845 268.95784,473.922 C 268.76608,475.1595 268.30704,479.322 267.93774,483.172 C 267.56844,487.022 266.38465,495.30206 265.30711,501.57212 C 263.83868,510.11666 263.60462,513.70858 264.3727,515.91187 C 265.16791,518.19301 265.03409,519.55418 263.7753,521.98841 C 261.29255,526.78951 259.50302,535.71071 260.11348,540.24339 C 260.51579,543.23059 260.09954,545.41692 258.55036,548.45355 C 255.90364,553.64156 255.90931,555.03665 258.59187,558.66501 L 260.74483,561.57703 L 264.92973,559.12452 C 270.17059,556.05317 272.24148,556.04879 276.73704,559.09957 C 279.56208,561.01668 280.53581,561.26018 281.36791,560.25756 C 281.94742,559.55929 282.20047,558.69189 281.93024,558.32999 C 281.66001,557.9681 281.72155,557.87963 282.06698,558.1334 C 282.41242,558.38717 285.63024,557.03717 289.21769,555.1334 C 295.99397,551.5374 298.64246,551.03849 302.72198,552.58952 C 304.97105,553.44461 305.17449,554.14195 305.71233,562.83952 C 306.10585,569.20308 307.13726,574.55796 308.95448,579.672 C 312.77169,590.41445 317.46456,604.98758 317.18081,605.21785 C 314.61171,607.30268 301.75665,613.62417 300.81834,613.2641 C 300.10958,612.99213 298.12145,614.54764 296.40027,616.7208 C 293.74564,620.07254 292.71468,620.66238 289.60489,620.60861 C 287.58861,620.57375 284.81437,620.0968 283.43991,619.54872 z M 264.43892,615.19418 C 264.43892,613.35028 252.41397,612.09434 251.34347,613.82643 C 250.24556,615.6029 250.58141,615.77806 256.62351,616.58012 C 262.5864,617.37167 264.43892,617.04316 264.43892,615.19418 z M 247.62647,613.07501 C 249.95353,611.87164 252.63133,611.5891 258.49093,611.92865 L 266.26717,612.37928 L 267.96575,608.61251 C 268.89996,606.54078 269.31908,604.28711 268.89711,603.60436 C 268.39476,602.79154 268.54023,602.61658 269.31849,603.09757 C 270.15564,603.61496 270.36963,603.07418 270.04221,601.26857 C 269.30222,597.18779 268.75102,596.86656 264.45589,598.01299 C 261.10019,598.90868 260.1573,598.81896 258.81452,597.47617 C 257.02221,595.68387 257.71283,593.672 260.12038,593.672 C 261.37024,593.672 261.44329,593.3822 260.4846,592.22704 C 259.82503,591.43232 259.48365,589.74482 259.72597,588.47704 C 260.13168,586.35448 260.17734,586.38123 260.30274,588.81501 C 260.42401,591.16857 262.03165,592.672 264.42709,592.672 C 265.78044,592.672 264.38356,588.93187 262.33922,587.08178 C 260.10762,585.06221 259.92172,583.34613 261.76851,581.81343 C 262.52959,581.18179 262.95785,579.31219 262.7701,577.44098 C 262.47347,574.48479 262.851,574.80251 264.01108,578.48538 C 264.23862,579.20774 264.87632,579.5197 265.42819,579.17863 C 266.06668,578.78403 265.88874,577.50875 264.93892,575.672 C 264.04982,573.95268 263.83147,572.54743 264.39891,572.19673 C 264.92287,571.8729 265.12143,571.00822 264.84016,570.27522 C 264.33229,568.95174 269.70616,563.672 271.5611,563.672 C 273.13311,563.672 277.43892,568.44352 277.43892,570.18556 C 277.43892,571.06802 277.83519,571.54513 278.31952,571.24579 C 279.5608,570.47864 280.35565,565.672 279.24123,565.672 C 278.73504,565.672 278.59667,565.22577 278.93374,564.68038 C 279.89717,563.12151 274.79903,558.672 272.04947,558.672 C 268.68983,558.672 265.385,560.05652 262.73073,562.57597 C 259.97906,565.18788 259.80538,565.18136 259.0883,562.43925 C 258.01151,558.32158 256.67108,561.9254 253.60851,577.172 C 251.95135,585.422 250.14975,593.33493 249.60496,594.75628 C 248.8077,596.83633 246.69497,598.0772 238.77668,601.11605 C 233.36591,603.19257 226.91878,605.18451 224.44973,605.54258 L 219.96054,606.19362 L 222.07003,608.30311 C 223.35309,609.58618 226.67889,610.89291 230.55922,611.63859 C 236.41138,612.7632 243.51147,614.27796 244.23858,614.557 C 244.40339,614.62025 245.92794,613.95336 247.62647,613.07501 z M 309.55336,608.0205 C 315.50475,604.3471 316.49073,602.89264 312.23549,604.06399 C 309.87249,604.71447 301.26764,611.63049 302.78819,611.65712 C 303.25529,611.66531 306.29962,610.02883 309.55336,608.0205 z M 278.45429,607.96592 C 279.83774,607.16956 281.96445,605.09014 283.18032,603.34499 C 284.39619,601.59985 286.47908,598.822 287.80898,597.172 C 289.82474,594.67104 290.05353,593.75613 289.18431,591.672 C 288.61084,590.297 288.01819,588.57436 287.8673,587.84391 C 287.71642,587.11346 287.26534,585.76346 286.8649,584.84391 C 286.46447,583.92436 286.02491,582.722 285.88812,582.172 C 285.6802,581.33604 283.9583,576.04397 281.8448,569.7453 C 281.57291,568.93499 280.04776,571.0952 278.31469,574.7453 C 272.85755,586.2389 271.43995,590.92119 271.43942,597.45412 C 271.43915,600.90928 270.77959,605.31423 269.97374,607.2429 L 268.50857,610.74956 L 272.22374,610.0817 C 274.26709,609.71438 277.07083,608.76228 278.45429,607.96592 z M 264.43892,596.172 C 264.43892,595.347 263.98892,594.672 263.43892,594.672 C 262.88892,594.672 262.43892,595.212 262.43892,595.872 C 262.43892,596.80533 262.17225,596.80533 261.23892,595.872 C 259.80907,594.44216 258.43892,594.30841 258.43892,595.59868 C 258.43892,596.47703 260.43775,597.30069 263.18892,597.556 C 263.87642,597.6198 264.43892,596.997 264.43892,596.172 z M 270.1012,590.422 C 269.82379,589.7345 269.59681,590.297 269.59681,591.672 C 269.59681,593.047 269.82379,593.6095 270.1012,592.922 C 270.37861,592.2345 270.37861,591.1095 270.1012,590.422 z M 267.0991,584.90361 C 265.55219,583.3567 265.43892,583.42294 265.43892,585.87438 C 265.43892,587.3214 266.00142,588.73231 266.68892,589.00972 C 267.63746,589.39246 267.64503,589.53314 266.7203,589.59305 C 265.97668,589.64123 265.76537,590.35411 266.17819,591.422 C 266.71229,592.80361 267.05516,592.47646 267.80699,589.86789 C 268.5671,587.23055 268.42425,586.22876 267.0991,584.90361 z M 276.91678,572.81653 C 276.65396,572.5537 276.43892,572.83152 276.43892,573.4339 C 276.43892,575.55841 273.27009,577.7516 271.08355,577.14044 C 269.38147,576.66468 269.24845,576.7577 270.43892,577.59118 C 271.72719,578.49314 271.68694,578.64354 270.15373,578.65669 C 268.69968,578.66916 268.56057,579.03078 269.40373,580.60626 C 269.97309,581.6701 270.44441,584.0326 270.45113,585.85626 C 270.46172,588.73196 270.92328,588.11841 273.92899,581.23319 C 275.8351,576.86685 277.1796,573.07935 276.91678,572.81653 z M 264.40851,583.922 C 264.38243,581.56304 264.23253,581.42197 263.35439,582.92992 C 262.79135,583.89678 262.60659,585.13428 262.94381,585.67992 C 263.97776,587.35288 264.44031,586.79774 264.40851,583.922 z M 268.35239,581.51031 C 267.56235,580.03412 266.947,579.64776 266.67682,580.45829 C 266.23774,581.77554 268.37738,585.06687 269.16244,584.28181 C 269.40363,584.04063 269.0391,582.79345 268.35239,581.51031 z M 269.43892,573.172 C 269.43892,572.33867 268.55003,571.672 267.43892,571.672 C 266.32781,571.672 265.43892,572.33867 265.43892,573.172 C 265.43892,574.00533 266.32781,574.672 267.43892,574.672 C 268.55003,574.672 269.43892,574.00533 269.43892,573.172 z M 275.83476,572.08283 C 276.62837,570.01472 274.50921,565.92364 272.35212,565.35955 C 271.27699,565.0784 269.4529,565.85647 267.97402,567.22705 C 265.13712,569.8562 264.73472,570.87946 266.85813,570.06463 C 268.57262,569.40672 273.64541,572.52887 272.87839,573.76993 C 272.57955,574.25347 272.99862,574.39445 273.80966,574.08323 C 274.6207,573.772 275.532,572.87182 275.83476,572.08283 z M 293.3187,467.7218 C 295.03482,467.01096 296.43892,466.03395 296.43892,465.55068 C 296.43892,465.06741 297.06407,464.672 297.82814,464.672 C 300.33882,464.672 303.32607,461.23644 303.96297,457.6165 C 304.54734,454.29508 304.16513,453.60522 298.1575,447.13812 L 291.72647,440.21525 L 290.13049,443.30155 C 288.3566,446.73187 285.31472,455.62494 283.39607,462.98995 C 282.5461,466.25266 281.87118,467.38247 281.30524,466.48995 C 280.68619,465.51366 280.46558,465.66075 280.45423,467.05733 C 280.4389,468.94482 284.16531,473.07768 286.62896,473.90555 C 287.3543,474.14929 288.44313,473.15604 289.0687,471.67999 C 289.69007,470.21383 291.60257,468.43264 293.3187,467.7218 z M 270.3206,448.422 C 270.43288,444.86343 270.2794,444.672 267.31392,444.672 C 264.34725,444.672 264.22059,444.83033 264.81392,447.797 C 265.15767,449.51575 265.43892,451.34231 265.43892,451.85602 C 265.43892,452.36973 265.95845,452.46895 266.59343,452.07651 C 267.30122,451.63907 267.47679,451.80171 267.04718,452.49682 C 266.66177,453.12044 266.91107,454.65247 267.6012,455.90133 C 268.85425,458.1689 268.85688,458.1679 269.52913,455.172 C 269.89936,453.522 270.25553,450.4845 270.3206,448.422 z M 299.43892,444.72004 C 299.43892,444.19646 301.45714,442.37951 303.92386,440.68236 C 307.81614,438.0044 308.25647,437.35272 307.25606,435.7508 C 306.01919,433.77027 301.32122,430.672 299.55495,430.672 C 298.44546,430.672 294.43892,437.73748 294.43892,439.69405 C 294.43892,441.06982 297.6753,445.5981 298.68892,445.64058 C 299.10142,445.65786 299.43892,445.24362 299.43892,444.72004 z M 273.2187,440.03787 L 274.33405,436.40373 L 268.13649,437.08561 C 264.72782,437.46064 261.37642,437.821 260.68892,437.88641 C 260.00142,437.95182 259.49112,439.16783 259.55492,440.58867 C 259.63101,442.28322 259.82826,442.56993 260.12825,441.422 C 260.63805,439.47116 262.58322,438.96899 262.18892,440.89 C 261.96846,441.96406 265.64989,443.13507 270.52114,443.54036 C 271.52171,443.62361 272.51338,442.33603 273.2187,440.03787 z M 275.09486,439.40297 C 274.82093,438.72594 274.61349,439.522 274.63387,441.172 C 274.65425,442.822 274.87837,443.37594 275.13191,442.40297 C 275.38545,441.43 275.36878,440.08 275.09486,439.40297 z M 258.43892,440.172 C 258.43892,437.8757 258.07225,437.672 253.93892,437.672 C 250.16267,437.672 249.43892,437.98187 249.43892,439.59868 C 249.43892,441.60476 251.03432,442.35966 255.68892,442.556 C 257.98652,442.65292 258.43892,442.26073 258.43892,440.172 z M 299.59212,586.4252 C 297.82391,584.65699 298.2103,583.67538 300.68892,583.63873 L 302.93892,583.60546 L 300.43892,581.58508 C 299.06392,580.47386 297.1767,578.93988 296.24509,578.17623 C 295.31349,577.41257 294.24399,575.07422 293.86843,572.97988 C 293.49287,570.88555 292.62252,568.497 291.93433,567.672 C 291.24613,566.847 290.74063,564.62222 290.81099,562.72805 C 290.91302,559.98137 291.58243,558.90827 294.11732,557.42781 L 297.29573,555.57152 L 300.00114,560.18795 C 302.17855,563.90343 302.45663,565.03541 301.42603,565.98819 C 300.43377,566.90551 300.30438,566.89061 300.85123,565.922 C 301.87977,564.10021 300.42479,562.08622 299.32923,563.81524 C 297.98859,565.93105 298.25555,566.63133 300.85417,567.81534 C 303.71613,569.11933 304.79837,572.25815 302.973,573.9606 C 301.91975,574.94293 302.21919,575.79315 304.55653,578.4568 C 307.22144,581.49375 308.6653,586.54798 306.48259,585.19899 C 305.95661,584.87392 305.74783,584.03057 306.01863,583.32488 C 306.76013,581.39256 301.87194,576.56861 299.9282,577.31449 C 298.566,577.83721 298.79873,578.44802 301.37152,581.10246 C 304.95353,584.79816 305.0585,585.27005 302.59212,586.59001 C 301.32148,587.27003 300.38553,587.21861 299.59212,586.4252 z M 301.62642,584.98889 C 300.90455,584.70002 300.04205,584.73554 299.70975,585.06783 C 299.37746,585.40012 299.96809,585.63647 301.02225,585.59305 C 302.1872,585.54507 302.42415,585.30811 301.62642,584.98889 z M 300.43892,572.79444 C 300.43892,570.5692 297.95115,568.23739 296.52043,569.12162 C 295.15072,569.96815 297.33637,574.672 299.09944,574.672 C 299.83615,574.672 300.43892,573.8271 300.43892,572.79444 z M 301.65688,569.48996 C 301.03074,568.86382 300.89137,569.52136 301.26342,571.34618 C 301.69015,573.43914 301.94161,573.6906 302.23303,572.31578 C 302.44943,571.29486 302.19016,570.02324 301.65688,569.48996 z M 294.93892,565.07426 C 293.02008,563.60237 293.05051,563.56748 295.68892,564.21447 C 297.82859,564.73915 298.43892,564.53185 298.43892,563.28041 C 298.43892,561.28502 295.11087,561.15742 293.50591,563.09128 C 292.57547,564.21239 292.70731,564.73121 294.13347,565.56087 C 296.78967,567.1061 297.23613,566.83637 294.93892,565.07426 z M 297.62642,559.98889 C 296.90455,559.70002 296.04205,559.73554 295.70975,560.06783 C 295.37746,560.40012 295.96809,560.63647 297.02225,560.59305 C 298.1872,560.54507 298.42415,560.30811 297.62642,559.98889 z M 296.62642,557.98889 C 295.90455,557.70002 295.04205,557.73554 294.70975,558.06783 C 294.37746,558.40012 294.96809,558.63647 296.02225,558.59305 C 297.1872,558.54507 297.42415,558.30811 296.62642,557.98889 z M 331.5972,481.97915 C 330.65221,481.60237 331.32575,480.34813 333.87509,477.73737 L 337.4947,474.03055 L 336.36614,468.76826 C 335.74544,465.87399 335.13872,462.83234 335.01788,462.00901 C 334.71204,459.9252 332.4745,458.70535 328.925,458.68731 C 326.29332,458.67394 325.61537,459.29486 323.57942,463.58316 C 321.08417,468.83887 321.55707,469.70027 326.01521,475.91633 C 328.32341,479.1347 332.55542,481.77992 332.28042,482.05492 C 331.6001,482.73525 321.89787,475.02653 320.64398,470.46719 C 319.86023,467.61739 319.93188,466.50777 320.95442,465.65914 C 321.68555,465.05235 322.73595,463.25869 323.28865,461.67322 C 324.11022,459.31646 324.03316,458.89047 322.86624,459.33826 C 322.0255,459.66089 321.43892,459.27693 321.43892,458.40399 C 321.43892,457.58889 321.2095,455.40325 320.92911,453.547 L 320.41929,448.51814 L 320.6143,448.07259 C 322.15958,452.06983 324.02563,457.63871 330.18892,457.65669 L 335.43892,457.672 L 335.43892,454.172 C 335.43892,452.247 335.55142,450.36669 335.68892,449.99353 C 335.82642,449.62037 331.90353,449.28287 326.97139,449.24353 L 318.00386,449.172 L 317.27141,445.172 C 316.86856,442.972 315.39502,435.772 313.99687,429.172 C 312.59872,422.572 311.45121,415.08559 311.44685,412.53553 C 311.43983,408.43099 306.50354,395.60675 301.39527,386.422 C 300.65923,385.0986 300.78969,384.672 301.93045,384.672 C 302.76011,384.672 303.43892,385.16649 303.43892,385.77087 C 303.43892,387.0623 305.44138,391.79509 309.58816,400.30456 C 311.56095,404.35283 312.70509,408.43129 312.95456,412.30456 C 313.35456,418.51471 315.79664,433.50533 317.3947,439.56014 C 317.91901,441.54667 318.60202,444.4095 318.91251,445.922 C 319.43493,448.46695 319.83909,448.672 324.33297,448.672 C 327.00374,448.672 330.55245,448.39929 332.21899,448.06599 C 334.88333,447.53312 335.29413,446.9875 335.62236,443.54564 C 335.82767,441.39276 335.62927,438.97662 335.18147,438.17644 C 334.73367,437.37627 333.91197,430.29792 333.35546,422.44679 L 332.34364,408.172 L 327.89128,404.08104 C 325.44248,401.83101 323.43892,399.60808 323.43892,399.1412 C 323.43892,398.67432 324.82335,399.70836 326.51544,401.43906 C 328.20752,403.16976 330.40063,404.84246 331.38902,405.15616 C 333.49172,405.82353 334.40922,410.19781 334.43371,419.672 C 334.44295,423.247 334.97808,428.872 335.6229,432.172 C 336.26771,435.472 336.85097,444.472 336.91903,452.172 C 336.98709,459.872 337.38786,468.03359 337.80963,470.30886 C 338.50096,474.0383 338.27649,474.7874 335.53046,477.91496 C 333.85515,479.82303 332.7742,481.67394 333.12835,482.02809 C 333.85799,482.75774 333.52312,482.74703 331.5972,481.97915 z M 204.10635,474.88168 C 203.76749,474.33339 201.22083,469.59694 200.99331,466.8905 C 200.6756,463.11108 201.07052,461.18135 202.69594,458.57086 C 203.8599,456.70149 204.71016,454.26731 204.58541,453.16158 C 204.46065,452.05585 205.03169,449.24335 205.85439,446.91158 C 206.67708,444.57981 207.03266,442.66511 206.64456,442.65669 C 206.25646,442.64827 206.39171,442.31077 206.94513,441.90669 C 207.49855,441.50261 209.22372,437.122 210.77884,432.172 C 212.33397,427.222 214.89549,419.572 216.4711,415.172 C 218.04672,410.772 219.6431,405.822 220.01863,404.172 C 220.39415,402.522 221.51236,400.272 222.50354,399.172 C 225.02109,396.37806 226.06598,393.32896 230.52912,375.75252 C 232.6826,367.27181 234.55578,360.23748 234.69173,360.12069 C 235.98791,359.00717 245.59965,354.63184 247.93892,354.09049 C 251.99682,353.1514 254.4356,347.51002 255.1945,344.05478 C 255.80769,341.26294 256.70865,344.68139 257.85909,346.54284 C 258.15511,347.0218 259.71668,347.67755 261.32926,348.00007 C 263.57907,348.45003 264.41618,349.292 264.92727,351.61894 C 265.38375,353.69731 266.59158,355.12514 268.76611,356.15702 L 271.93892,357.66262 L 271.93892,369.41731 C 271.93892,375.88239 272.24912,384.772 272.62826,389.172 C 273.11083,394.77242 273.04807,395.97221 272.41903,393.172 C 271.92483,390.972 271.20768,383.6595 270.82537,376.922 C 270.3003,367.66851 269.8011,364.672 268.7846,364.672 C 267.32458,364.672 266.95206,366.25307 268.22649,367.04071 C 268.65965,367.30842 268.92703,377.12248 268.82067,388.84973 C 268.64756,407.93552 269.35557,421.35512 271.00078,430.172 C 271.41939,432.41533 271.30676,432.77758 270.55427,431.60822 C 268.73804,428.78583 267.44162,413.5693 267.28182,393.19823 C 267.18147,380.4077 266.86346,374.97856 266.40165,378.172 C 265.83666,382.07893 265.66897,380.76724 265.63462,372.172 C 265.56622,355.0562 265.59949,355.45473 264.3058,356.25427 C 263.58702,356.6985 263.39623,356.55009 263.815,355.8725 C 265.29366,353.47998 263.32275,349.97191 259.91178,348.92505 C 256.87133,347.99191 256.3717,348.12564 254.98361,350.24413 C 253.04981,353.19549 253.01834,354.672 254.88923,354.672 C 255.6869,354.672 256.79822,355.4595 257.35882,356.422 C 257.91943,357.3845 258.40179,357.722 258.43075,357.172 C 258.4597,356.622 259.40159,355.047 260.52384,353.672 L 262.56428,351.172 L 261.89428,353.672 C 261.52577,355.047 260.60435,356.82414 259.84668,357.62121 C 258.64861,358.88155 258.06471,358.77145 255.36623,356.77638 C 251.59973,353.99169 247.41025,354.46957 240.16711,358.51009 C 236.41631,360.60244 235.20875,361.92088 234.52341,364.672 C 234.04387,366.597 232.14118,374.40527 230.29522,382.02371 C 227.85415,392.09817 226.28568,396.58629 224.54339,398.48226 C 223.22585,399.91602 221.57184,403.13275 220.86781,405.63055 C 220.16377,408.12835 217.30426,416.8917 214.51333,425.10467 C 211.7224,433.31763 209.43892,440.58199 209.43892,441.24768 C 209.43892,443.44366 218.21675,445.93546 220.82016,444.47852 C 222.24776,443.6796 228.84222,432.05259 228.65077,430.672 C 228.61264,430.397 229.17194,429.497 229.89366,428.672 C 230.61539,427.847 232.15189,425.29003 233.30812,422.98985 C 234.46434,420.68967 237.18079,416.13714 237.82862,415.73675 C 238.47646,415.33637 235.1187,422.26131 231.88297,428.26187 C 228.64725,434.26244 225.31113,440.63537 224.46938,442.42393 C 222.52437,446.5567 219.45177,447.37764 213.29627,445.40919 C 210.62674,444.55551 208.26493,444.15291 208.04779,444.51452 C 206.96336,446.3205 205.74673,452.55127 206.30361,453.44705 C 206.65303,454.00912 209.49038,454.78702 212.60883,455.17571 C 218.22688,455.87597 218.29356,455.85376 219.89969,452.74785 C 220.79122,451.02383 221.27985,447.29412 220.98553,446.81791 C 220.69121,446.34169 221.10841,445.69956 221.91264,445.39095 C 222.71686,445.08234 223.86543,441.86985 224.12811,442.29488 C 224.82566,443.42354 218.68211,457.172 217.20642,457.172 C 216.51707,457.172 215.49987,459.24001 214.94598,461.76757 C 213.9598,466.26785 205.34122,476.11863 204.19376,474.97118 C 203.8744,474.65182 207.81544,471.05823 209.5022,469.27897 C 213.03336,465.55415 215.78394,456.672 213.12519,456.672 C 212.33524,456.672 210.28559,456.39133 208.57041,456.0483 C 205.66814,455.46785 205.32379,455.71074 203.60438,459.55117 C 202.18399,462.72371 201.84949,464.78793 202.4899,468.42487 C 203.36984,473.42211 205.4657,475.36031 204.10635,474.88168 z M 269.94366,361.66433 C 270.52449,360.72453 268.28168,357.672 267.01035,357.672 C 266.69606,357.672 266.43892,358.797 266.43892,360.172 C 266.43892,362.68872 268.71229,363.65673 269.94366,361.66433 z M 300.40471,428.91628 C 300.32548,428.22878 299.19278,421.82051 298.83666,418.94647 C 298.4665,415.95914 298.69079,411.67595 299.36031,408.94647 C 300.87462,402.77298 304.76462,391.22882 305.34572,391.80991 C 305.59503,392.05923 303.65482,399.15176 302.45774,402.35126 C 300.15163,408.51487 300.1661,421.51386 301.54489,426.91628 C 302.02949,428.81507 301.99484,430.16628 301.46155,430.16628 C 300.95952,430.16628 300.48394,429.60378 300.40471,428.91628 z M 237.43892,415.4101 C 237.43892,414.53271 236.77646,413.1524 235.9668,412.34274 C 234.73306,411.109 234.71425,410.68838 235.85062,409.74528 C 236.93682,408.84382 237.34198,409.34174 237.88723,412.24815 C 238.26159,414.24367 238.31387,416.13038 238.0034,416.44085 C 237.69293,416.75132 237.43892,416.28748 237.43892,415.4101 z M 326.71175,398.172 C 326.1625,395.972 324.96974,389.897 324.06116,384.672 C 321.57141,370.35409 319.22392,362.68829 316.3966,359.64324 C 313.92428,356.98053 310.75075,355.77905 296.57402,352.13852 L 290.20912,350.50404 L 283.56072,355.08802 C 276.08069,360.2454 274.44493,360.66331 274.42526,357.422 C 274.41775,356.1845 274.12565,354.10357 273.77613,352.79772 L 273.14066,350.42344 L 271.8595,353.29772 L 270.11213,358.05714 L 271.13221,352.672 C 271.73574,348.8581 273.76284,346.672 276.69579,346.672 C 281.02436,346.672 282.43892,344.8571 282.43892,339.30348 C 282.43892,336.3895 282.17732,333.74373 281.85758,333.424 C 281.53785,333.10427 279.72291,333.89679 277.82437,335.18517 C 275.92584,336.47355 273.03351,337.82177 271.39698,338.18121 C 269.63886,338.56736 268.69282,339.2738 269.0847,339.90788 C 269.4715,340.53373 269.27897,340.69118 268.6228,340.28564 C 268.00397,339.90319 266.16294,340.28047 264.53163,341.12406 C 262.90032,341.96764 260.84668,342.38197 259.96799,342.04478 C 258.9195,341.64244 260.53039,340.66585 264.65465,339.20353 C 277.8659,334.51928 278.43892,334.14596 278.43892,330.22303 C 278.43892,328.26996 278.88892,326.672 279.43892,326.672 C 279.98892,326.672 280.43892,327.48599 280.43892,328.48087 C 280.43892,329.47575 281.06697,331.14866 281.83459,332.19844 C 283.15858,334.00909 283.31225,333.92902 284.8263,330.63957 C 285.70412,328.73241 288.0588,325.01276 290.05893,322.37368 C 293.46615,317.87802 293.72771,317.01099 294.20572,308.62743 L 294.7159,299.67948 L 291.82741,300.64032 C 288.0566,301.89465 267.52032,305.67338 264.93892,305.58787 C 263.83892,305.55143 261.13892,305.99472 258.93892,306.57295 C 256.73892,307.15119 252.27642,307.63502 249.02225,307.64814 C 245.76809,307.66127 243.44625,308.0095 243.86261,308.422 C 244.27897,308.8345 245.36647,309.21787 246.27928,309.27394 C 247.19208,309.33001 248.95142,309.44251 250.18892,309.52394 C 254.45064,309.80438 252.43158,311.672 247.86668,311.672 L 243.29444,311.672 L 243.98213,323.422 C 244.64571,334.7599 244.77788,335.28598 247.75054,338.422 C 249.99328,340.78799 251.71386,341.672 254.07607,341.672 C 255.86072,341.672 257.599,342.122 257.93892,342.672 C 258.30733,343.2681 257.09945,343.672 254.94837,343.672 C 252.17739,343.672 250.50329,342.8596 247.73595,340.172 C 245.75384,338.247 243.86365,336.672 243.53552,336.672 C 242.97405,336.672 242.73587,332.13398 242.39395,314.922 C 242.31473,310.9345 241.95495,307.635 241.59442,307.58977 C 230.15374,306.15458 226.05171,303.18934 228.65537,298.23651 C 230.30047,295.10713 241.69433,285.22306 245.44983,283.66748 C 247.42853,282.84788 248.42065,281.64964 248.63193,279.82429 C 248.88785,277.6132 250.18652,276.57019 256.43892,273.55417 C 262.67841,270.54438 265.43439,269.83016 272.83694,269.30457 C 278.67101,268.89034 282.18541,269.04664 283.04313,269.75849 C 283.76263,270.35562 284.83217,270.54699 285.41989,270.18376 C 286.00761,269.82053 286.37062,269.89429 286.22657,270.34767 C 286.08253,270.80105 287.443,273.3095 289.24984,275.922 C 291.73556,279.5161 293.80613,284.25537 292.61607,284.25537 C 291.75103,284.25537 288.99985,279.64736 288.52371,278.39502 C 288.04757,277.14268 286.33785,274.70481 284.72433,272.97753 L 281.79064,269.83701 L 273.36478,270.40963 C 266.70195,270.86244 263.41414,271.68533 257.65168,274.34238 C 253.6437,276.19044 250.20774,278.25813 250.01621,278.93725 C 249.82468,279.61636 248.90595,282.872 247.97459,286.172 C 247.04322,289.472 246.20419,293.74313 246.11006,295.66339 L 245.93892,299.15479 L 251.93892,299.84981 C 255.23892,300.23207 260.82601,300.10289 264.35469,299.56275 C 269.53933,298.76911 271.65013,297.84572 275.35469,294.75065 C 280.75969,290.23492 294.01858,282.2453 297.59864,281.34676 C 301.25179,280.42988 305.45841,281.93968 311.02857,286.16691 C 313.72926,288.21648 316.05945,290.00162 316.20676,290.13387 C 316.76739,290.63721 304.75038,296.53469 300.77055,297.70935 C 295.98653,299.12137 295.47269,300.24679 295.45257,309.3569 C 295.43636,316.69945 294.38309,319.83262 290.4096,324.35818 C 285.49544,329.95509 283.50657,334.75747 284.1417,339.49276 C 284.45001,341.79134 285.20551,343.67485 285.82059,343.67832 C 286.43567,343.6818 287.65893,344.95067 288.53893,346.49803 C 289.93345,348.95008 291.41045,349.61471 300.03893,351.67292 C 316.01087,355.4828 318.1599,356.79543 320.83394,364.37446 C 322.7835,369.90009 329.65113,402.62336 329.10762,404.13724 C 328.86975,404.7998 327.26099,400.372 326.71175,398.172 z M 283.48657,353.49941 C 286.78874,351.08329 287.92612,349.62425 287.63951,348.172 C 287.00527,344.95836 285.9669,344.51619 282.85965,346.13657 C 281.25325,346.97428 278.95298,347.66245 277.74794,347.66584 C 274.82132,347.67407 274.53659,348.35896 275.1601,353.89068 C 275.76023,359.21503 275.66903,359.21932 283.48657,353.49941 z M 262.94982,303.56187 C 265.41882,302.4013 267.43892,301.23675 267.43892,300.97398 C 267.43892,300.7112 265.61621,300.80415 263.38846,301.18053 C 258.99299,301.92314 246.54406,300.97305 244.55397,299.74311 C 243.5905,299.14765 243.66153,297.52375 244.88107,292.26518 C 245.73789,288.57067 246.43892,285.33926 246.43892,285.08427 C 246.43892,283.79902 240.28014,288.17948 235.18892,293.08589 C 229.56211,298.50844 228.71798,300.0616 230.20423,302.25746 C 231.98699,304.8914 235.50259,305.61264 246.69982,305.64159 C 256.62166,305.66724 259.16268,305.34204 262.94982,303.56187 z M 287.43892,300.1136 C 298.09206,297.42967 305.7495,294.67 310.41305,291.83392 L 313.55176,289.92517 L 308.47513,286.19858 C 301.63582,281.17807 298.43956,281.26583 289.16541,286.72877 C 281.91614,290.99897 270.88857,299.22035 268.41933,302.1956 C 267.23113,303.6273 267.64004,303.72213 272.51921,303.14646 C 275.50005,302.79476 282.21392,301.42997 287.43892,300.1136 z M 264.73858,392.672 C 264.73858,389.647 264.92605,388.4095 265.15517,389.922 C 265.3843,391.4345 265.3843,393.9095 265.15517,395.422 C 264.92605,396.9345 264.73858,395.697 264.73858,392.672 z M 260.43892,345.23102 C 260.43892,344.37356 260.88892,343.672 261.43892,343.672 C 261.98892,343.672 262.43892,344.09544 262.43892,344.61298 C 262.43892,345.13052 261.98892,345.83208 261.43892,346.172 C 260.88892,346.51192 260.43892,346.08848 260.43892,345.23102 z M 250.43892,332.54368 C 248.11999,331.61467 248.07219,331.46715 249.77891,330.50701 C 251.80207,329.36885 260.43892,330.27569 260.43892,331.62628 C 260.43892,333.68988 254.63016,334.22277 250.43892,332.54368 z M 254.16989,330.97901 C 253.19692,330.72547 251.84692,330.74214 251.16989,331.01606 C 250.49286,331.28999 251.28892,331.49743 252.93892,331.47705 C 254.58892,331.45667 255.14286,331.23255 254.16989,330.97901 z M 250.43892,325.672 C 249.14623,324.8366 249.17263,324.70051 250.6299,324.68731 C 251.55994,324.67889 252.599,325.122 252.93892,325.672 C 253.7211,326.9376 252.39729,326.9376 250.43892,325.672 z M 256.70975,325.06783 C 257.04204,324.73554 257.90454,324.70002 258.62642,324.98889 C 259.42415,325.30811 259.1872,325.54507 258.02225,325.59305 C 256.96809,325.63647 256.37746,325.40013 256.70975,325.06783 z M 282.10559,323.00533 C 281.73892,322.63867 281.43892,321.87367 281.43892,321.30533 C 281.43892,320.69162 281.93033,320.76341 282.64904,321.48212 C 283.59587,322.42895 284.46387,321.3601 286.63848,316.56954 C 288.1671,313.20205 289.17099,310.04749 288.86934,309.55941 C 288.03223,308.20494 286.29168,308.49527 284.26766,310.32699 C 282.26741,312.13719 281.69601,310.81491 283.63892,308.872 C 285.31757,307.19335 289.38722,307.37369 290.07156,309.15705 C 290.71181,310.82553 285.0356,323.672 283.65813,323.672 C 283.1709,323.672 282.47225,323.372 282.10559,323.00533 z M 262.18892,312.91668 C 260.18662,312.46893 259.8094,310.71341 261.68892,310.58977 C 262.37642,310.54454 264.26316,310.29253 265.88169,310.02974 C 269.48651,309.44446 274.06094,310.47837 272.83356,311.60101 C 271.75763,312.58513 264.64025,313.46483 262.18892,312.91668 z M 269.68892,283.00972 C 269.00142,282.73231 268.43892,281.49476 268.43892,280.2596 C 268.43892,277.35217 277.73844,272.57152 279.65871,274.49179 C 280.56566,275.39874 280.27165,275.67287 278.38892,275.67574 C 275.7122,275.67982 269.43892,279.09554 269.43892,280.54889 C 269.43892,281.87055 274.03726,282.81091 276.93892,282.08264 C 278.47932,281.69603 279.43892,281.88063 279.43892,282.56359 C 279.43892,283.67056 272.15288,284.00395 269.68892,283.00972 z "
       id="path5127"
       sodipodi:nodetypes="csscccssssssssssscccccsssssssssssssssssssssssssscccsssssssssssscccssssssscccssssssssssssssssssssssssssssssssssssssssscccssssssssssssssssssssscccssssssssssssccsscccccssssssssssssssssssssssssssssscccssccssccssssssssscccccsssssccssccsssssccsssssssccssccssccsssccsssssccssscccsssssccsssssssccsssssccccsssssccssccssscccccsssscccsssssssssssccssccssccssccssssccssccsscccccssssssssssccccccscccssssssssssssscccsssssssssccssssssssssssssssscccsssssssssssssssssscccssssssssssssssssssssssssssssssssccssccssssssccssssccsscccscccccsssssssssssssssscccsssssscccssssssssssssssssssscccssscccssssssssssssssccssssccsssssssscccccsssccssccsssccssccssccssccssccssssssssccsssccssssssc" />
  </g>
</svg>
