<?xml version="1.0" encoding="UTF-8" standalone="no"?>
<!-- Created with Inkscape (http://www.inkscape.org/) -->
<svg
   xmlns:dc="http://purl.org/dc/elements/1.1/"
   xmlns:cc="http://web.resource.org/cc/"
   xmlns:rdf="http://www.w3.org/1999/02/22-rdf-syntax-ns#"
   xmlns:svg="http://www.w3.org/2000/svg"
   xmlns="http://www.w3.org/2000/svg"
   xmlns:xlink="http://www.w3.org/1999/xlink"
   xmlns:sodipodi="http://sodipodi.sourceforge.net/DTD/sodipodi-0.dtd"
   xmlns:inkscape="http://www.inkscape.org/namespaces/inkscape"
   width="1024px"
   height="768px"
   id="svg2160"
   sodipodi:version="0.32"
   inkscape:version="0.45.1"
   sodipodi:docbase="/home/rover/code/python/herobot/arte"
   sodipodi:docname="hombre-1.svg"
   inkscape:output_extension="org.inkscape.output.svg.inkscape">
  <defs
     id="defs2162">
    <linearGradient
       id="linearGradient16829">
      <stop
         style="stop-color:#ff2400;stop-opacity:1;"
         offset="0"
         id="stop16831" />
      <stop
         style="stop-color:#60ff00;stop-opacity:1;"
         offset="1"
         id="stop16833" />
    </linearGradient>
    <linearGradient
       inkscape:collect="always"
       xlink:href="#linearGradient16829"
       id="linearGradient16860"
       gradientUnits="userSpaceOnUse"
       x1="270.49866"
       y1="131.33873"
       x2="290.06024"
       y2="125.15155"
       gradientTransform="translate(-170,-82)" />
    <linearGradient
       inkscape:collect="always"
       xlink:href="#linearGradient16829"
       id="linearGradient29522"
       gradientUnits="userSpaceOnUse"
       gradientTransform="translate(-170,-82)"
       x1="270.49866"
       y1="131.33873"
       x2="290.06024"
       y2="125.15155" />
    <linearGradient
       inkscape:collect="always"
       xlink:href="#linearGradient16829"
       id="linearGradient3544"
       gradientUnits="userSpaceOnUse"
       gradientTransform="translate(10.4732,-66.396804)"
       x1="270.49866"
       y1="131.33873"
       x2="290.06024"
       y2="125.15155" />
    <linearGradient
       inkscape:collect="always"
       xlink:href="#linearGradient16829"
       id="linearGradient3565"
       gradientUnits="userSpaceOnUse"
       gradientTransform="translate(194.14304,-61.236635)"
       x1="270.49866"
       y1="131.33873"
       x2="290.06024"
       y2="125.15155" />
  </defs>
  <sodipodi:namedview
     id="base"
     pagecolor="#ffffff"
     bordercolor="#666666"
     borderopacity="1.0"
     inkscape:pageopacity="0.0"
     inkscape:pageshadow="2"
     inkscape:zoom="1.0047429"
     inkscape:cx="469.20422"
     inkscape:cy="562.49701"
     inkscape:current-layer="layer2"
     inkscape:document-units="px"
     inkscape:window-width="1022"
     inkscape:window-height="713"
     inkscape:window-x="0"
     inkscape:window-y="0" />
  <metadata
     id="metadata2165">
    <rdf:RDF>
      <cc:Work
         rdf:about="">
        <dc:format>image/svg+xml</dc:format>
        <dc:type
           rdf:resource="http://purl.org/dc/dcmitype/StillImage" />
      </cc:Work>
    </rdf:RDF>
  </metadata>
  <g
     id="layer1"
     inkscape:label="Layer 1"
     inkscape:groupmode="layer"
     sodipodi:insensitive="true"
     style="display:none">
    <image
       y="81.525246"
       x="169.9579"
       id="image2226"
       height="383"
       width="189"
       sodipodi:absref="/home/quimera/Desktop/pyweek/personajes/m1.png"
       xlink:href="/home/quimera/Desktop/pyweek/personajes/m1.png"
       inkscape:transform-center-y="15.556349" />
  </g>
  <g
     inkscape:groupmode="layer"
     id="layer2"
     inkscape:label="dibujo"
     style="display:inline">
    <g
       id="g29498"
       transform="translate(-18,6)">
      <path
         sodipodi:nodetypes="cccccccccccccccc"
         id="rect2235"
         d="M 69.0481,102.6967 C 72.8363,100.25021 77.50838,98.86439 84.125,96.94823 C 95.08333,110.82323 108.09192,107.53186 116.02512,95.34099 L 140.67461,101.52944 C 144.7773,103.92188 146.40512,104.90011 150.33104,109.23709 C 151.72316,113.10267 153.11527,116.43791 153.44673,120.30349 L 153.20367,132.43056 C 146.18416,134.71705 141.1092,135.76611 134.08969,141.23458 C 131.59271,148.63569 130.33318,154.44581 129.78075,162.90758 C 129.99436,171.66398 130.91507,179.89005 133.07322,188.64645 L 68.57322,188.64645 L 73.46491,131.27334 L 70.22487,137.71663 C 64.84329,136.62348 60.3456,134.82323 57.26212,127.5429 L 62.80155,109.8165 C 64.3534,106.38257 65.5517,104.36286 69.0481,102.6967 z "
         style="opacity:1;fill:#d80000;fill-opacity:1;stroke:#000000;stroke-width:1;stroke-linecap:butt;stroke-linejoin:miter;stroke-miterlimit:4;stroke-dasharray:none;stroke-opacity:1" />
      <path
         sodipodi:nodetypes="ccccccccccccccccc"
         id="rect6121"
         d="M 79.75,40 C 81.41667,36.16667 82.83333,34.70833 85.875,31.875 L 91,40 L 98.0625,36.75 L 106.625,33.40625 L 116.75,32.8125 L 121.125,38.78125 L 124.375,43.6875 L 124.875,56.5625 L 121.375,63.6875 L 113.8125,68 L 111.125,75.3125 L 96.375,85.5 L 86.625,85.625 C 84.47917,83.23958 82.20833,81.22917 81.1875,77.96875 C 79.54167,73.95833 80.39583,69.44792 79.375,66.1875 C 78.625,58 77.75,51.1875 79.75,40 z "
         style="opacity:1;fill:#eeeeee;fill-opacity:1;stroke:#000000;stroke-width:1;stroke-linecap:butt;stroke-linejoin:miter;stroke-miterlimit:4;stroke-opacity:1" />
      <path
         id="path10977"
         d="M 97.19798,54.02331 C 97.51844,54.01284 98.29457,53.82857 98.78897,53.58137 C 99.38022,53.28574 99.71907,52.91805 100.37996,52.78588 C 100.83967,52.69393 101.19018,52.6091 101.70578,52.6091 C 102.19351,52.6091 102.59002,52.67548 103.03161,52.78588 C 103.49898,52.90272 103.91416,53.02861 104.35743,53.13943 C 104.87042,53.26768 105.37212,53.45939 105.86003,53.58137 C 106.27894,53.6861 106.78928,53.57062 107.18586,53.66976 C 107.55467,53.76196 108.54209,53.56617 107.80458,53.93492 C 107.36191,54.15626 106.87335,54.77776 106.56714,55.08397 C 106.20461,55.44651 105.52377,55.4995 105.06454,55.6143 C 104.52635,55.74885 104.028,55.82924 103.47355,55.96786 C 102.94292,56.10051 102.44844,56.14463 101.88256,56.14463 C 101.41115,56.14463 100.93975,56.14463 100.46834,56.14463 C 99.95063,56.14463 99.04953,55.6562 98.61219,55.43753 C 98.1163,55.18958 97.6606,54.81223 97.19798,54.46525 C 97.08012,54.37687 97.19798,54.17063 97.19798,54.02331 z "
         style="fill:#000000;fill-opacity:1;fill-rule:evenodd;stroke:#000000;stroke-width:1px;stroke-linecap:butt;stroke-linejoin:miter;stroke-opacity:1" />
      <path
         id="path10979"
         d="M 101.44062,52.25555 C 101.43315,52.24994 101.61739,51.22702 101.61739,50.84133 C 101.61739,50.28182 101.75757,49.83869 101.88256,49.33873 C 101.99863,48.87445 101.95161,48.35542 102.05933,47.92452 C 102.26858,47.08752 102.13752,46.49839 102.41289,48.01291 C 102.51486,48.57376 102.54813,49.17259 102.67805,49.69228 C 102.79644,50.16581 102.93491,50.53461 103.03161,51.01811 C 103.13145,51.51732 103.11999,52.00564 103.11999,52.52071 C 103.11999,52.96862 103.14635,52.4153 103.03161,52.87426"
         style="fill:#000000;fill-opacity:1;fill-rule:evenodd;stroke:#000000;stroke-width:1px;stroke-linecap:butt;stroke-linejoin:miter;stroke-opacity:1" />
      <path
         id="path10981"
         d="M 101.17545,56.49819 C 101.17545,56.99207 101.49761,57.43326 101.61739,57.9124 C 101.73336,58.37629 101.70312,58.87138 101.79417,59.32661 C 101.87939,59.7527 101.88256,60.18445 101.88256,60.65244 C 101.88256,60.98261 101.89952,61.25063 101.97095,61.53632 C 101.97095,63.44757 102.12528,59.68156 102.3245,58.88467 C 102.33879,58.82751 102.3245,58.76682 102.3245,58.7079 C 102.3245,58.16217 102.54513,57.55954 102.76644,57.1169 C 102.96798,56.71383 103.20838,56.32777 103.20838,55.96786"
         style="fill:#000000;fill-opacity:1;fill-rule:evenodd;stroke:#000000;stroke-width:1px;stroke-linecap:butt;stroke-linejoin:miter;stroke-opacity:1" />
      <path
         id="path10983"
         d="M 80.05064,54.28848 C 80.05139,54.28697 81.09201,53.92729 81.55324,53.58137 C 82.15629,53.12908 82.5891,52.70369 83.321,52.52071 C 83.73706,52.4167 84.30367,52.52071 84.73522,52.52071 C 85.14073,52.52071 85.62226,52.43232 86.06104,52.43232 C 86.44375,52.43232 87.02534,52.69549 87.38687,52.78588 C 88.01049,52.94178 88.53832,53.3622 89.06625,53.75815 C 89.55212,54.12255 90.64728,54.18048 89.86174,54.37687 C 89.38732,54.49547 88.95343,54.62924 88.44753,54.73042 C 87.97726,54.82447 87.49147,55.1602 87.1217,55.43753 C 86.66297,55.78158 85.99818,55.91728 85.44233,56.05624 C 84.94657,56.18018 84.37532,56.14463 83.85134,56.14463 C 83.30854,56.14463 82.93919,55.9166 82.43712,55.79108 C 81.82706,55.63856 81.21454,55.00301 80.66935,54.73042 C 80.32384,54.55766 80.54402,54.68319 80.05064,54.28848 z "
         style="fill:#000000;fill-opacity:1;fill-rule:evenodd;stroke:#000000;stroke-width:1px;stroke-linecap:butt;stroke-linejoin:miter;stroke-opacity:1" />
      <path
         id="path10985"
         d="M 87.56365,52.52071 C 86.96214,52.21996 88.67899,51.71154 89.33141,51.54844 C 90.15401,51.34279 91.21057,50.73569 91.89467,50.22261 C 93.04292,49.36143 91.8409,50.62994 91.45273,51.01811 C 90.97201,51.49883 90.48598,51.94205 89.95013,52.34393 C 89.66185,52.56014 89.41023,52.88383 89.15464,53.13943"
         style="fill:#000000;fill-opacity:1;fill-rule:evenodd;stroke:#000000;stroke-width:1px;stroke-linecap:butt;stroke-linejoin:miter;stroke-opacity:1" />
      <path
         id="path10987"
         d="M 81.55324,53.58137 C 81.05324,53.95637 81.43966,52.33155 81.28807,51.72522 C 81.16202,51.22101 80.88733,50.74695 80.66935,50.311 C 80.3218,49.6159 80.22607,49.33336 80.05064,48.63162 C 79.88008,47.94939 80.66892,49.78024 81.37646,50.48778 C 81.8388,50.95012 82.10848,51.96468 82.52551,52.52071 C 82.61787,52.64385 82.76755,52.76275 82.87906,52.87426"
         style="fill:#000000;fill-opacity:1;fill-rule:evenodd;stroke:#000000;stroke-width:1px;stroke-linecap:butt;stroke-linejoin:miter;stroke-opacity:1" />
      <path
         id="path10989"
         d="M 82.34873,56.14463 C 82.72038,56.64017 81.70347,57.22309 81.55324,57.82401 C 81.43473,58.29806 81.37646,58.7394 81.37646,59.23823 C 81.37646,59.53432 81.39304,59.83485 81.46485,60.12211 C 81.61877,60.73781 81.72319,58.80311 82.17196,58.35434 C 82.59405,57.93225 82.99868,57.616 83.40939,57.20529 C 83.61683,56.99786 83.73133,56.73819 83.85134,56.49819"
         style="fill:#000000;fill-opacity:1;fill-rule:evenodd;stroke:#000000;stroke-width:1px;stroke-linecap:butt;stroke-linejoin:miter;stroke-opacity:1" />
      <path
         id="path10991"
         d="M 86.50299,55.79108 C 86.57594,55.71812 87.58026,56.60318 87.9172,56.94013 C 88.3524,57.37532 88.72531,57.89976 89.06625,58.35434 C 89.25943,58.61192 89.98863,59.89544 89.4198,59.32661 C 89.08775,58.99457 89.0888,58.09098 88.97786,57.64724 C 88.85592,57.15948 88.92123,56.62523 88.80108,56.14463 C 88.6904,55.70189 88.44426,55.34669 88.09398,55.08397"
         style="fill:#000000;fill-opacity:1;fill-rule:evenodd;stroke:#000000;stroke-width:1px;stroke-linecap:butt;stroke-linejoin:miter;stroke-opacity:1" />
      <path
         id="path13902"
         d="M 82.08357,72.49648 C 81.55525,72.28515 83.12253,72.97719 83.67456,73.1152 C 84.24907,73.25882 84.73308,73.45064 85.26555,73.55714 C 85.70854,73.64574 86.1754,73.54153 86.59137,73.64553 C 87.12528,73.779 87.731,73.51765 88.18236,73.29197 C 88.75891,73.0037 89.26002,72.75315 89.77335,72.49648 C 90.13767,72.31432 90.85148,72.58923 91.18757,72.67325 C 91.63201,72.78436 92.07156,72.8721 92.51339,72.76164 C 92.97851,72.64536 93.39338,72.51955 93.83922,72.40809 C 94.41434,72.26431 94.82375,72.42034 95.25343,72.85003 C 95.65055,73.24715 96.11902,73.46875 96.66765,73.46875 C 97.12524,73.46875 97.51283,73.55714 97.99347,73.55714 C 98.53878,73.55714 98.91524,73.50347 99.40768,73.38036 C 99.97427,73.23871 100.41372,72.92154 100.91029,72.67325 C 101.47323,72.39178 101.92553,72.23294 102.3245,71.70098 C 102.60954,71.32092 103.10105,71.1091 103.56194,70.99388 C 104.12929,70.85204 102.67443,71.79662 102.41289,72.3197 C 102.14861,72.84825 101.79723,73.20052 101.35223,73.64553 C 101.00845,73.98931 100.36266,74.24647 99.93801,74.35263 C 99.23728,74.52782 98.44493,74.86148 97.72831,75.14813 C 97.23895,75.34387 96.70514,75.47021 96.2257,75.59007 C 95.72778,75.71455 95.20244,75.7354 94.7231,75.85523 C 94.13277,76.00282 93.57153,76.1204 92.95533,76.1204 C 92.37433,76.1204 91.71358,76.20879 91.09918,76.20879 C 90.451,76.20879 89.80282,76.20879 89.15464,76.20879 C 88.61658,76.20879 88.07178,76.24743 87.56365,76.1204 C 87.09385,76.00295 86.58274,75.80672 86.14943,75.59007 C 86.03158,75.53114 85.91373,75.47222 85.79588,75.41329 C 85.14219,75.08645 84.47204,74.83976 83.85134,74.52941 C 83.31443,74.26096 82.66993,73.34801 82.26034,72.93842 C 82.14815,72.82623 82.14249,72.64379 82.08357,72.49648 z "
         style="fill:#000000;fill-opacity:1;fill-rule:evenodd;stroke:#000000;stroke-width:1px;stroke-linecap:butt;stroke-linejoin:miter;stroke-opacity:1" />
      <path
         id="path14881"
         d="M 90.74563,69.22611 C 90.74345,69.22394 89.48583,69.11557 89.15464,69.04933 C 88.64665,68.94773 88.21194,68.40138 88.00559,67.98867 C 87.7694,67.51629 87.78455,66.92788 87.56365,66.48607 C 87.10281,65.5644 87.51758,66.47361 88.00559,66.83962 C 88.50679,67.21552 89.01216,67.21033 89.50819,67.45834 C 90.10062,67.75456 90.20105,68.02861 90.56885,68.519 C 90.62049,68.58786 90.73121,69.16843 90.74563,69.22611 z "
         style="fill:#000000;fill-opacity:1;fill-rule:evenodd;stroke:#000000;stroke-width:1px;stroke-linecap:butt;stroke-linejoin:miter;stroke-opacity:1" />
      <path
         id="path14883"
         d="M 93.92761,68.78417 C 94.27582,69.24845 94.22434,67.60355 94.63471,67.19318 C 95.14068,66.68721 95.29518,66.38724 95.96054,66.2209 C 96.37671,66.11686 96.77732,66.49033 97.19798,66.57446 C 97.23262,66.58139 96.30346,67.30282 95.78376,68.34223 C 95.46764,68.97447 94.90872,69.13772 94.28116,69.13772 C 94.11449,69.13772 94.04546,68.90202 93.92761,68.78417 z "
         style="fill:#000000;fill-opacity:1;fill-rule:evenodd;stroke:#000000;stroke-width:1px;stroke-linecap:butt;stroke-linejoin:miter;stroke-opacity:1" />
      <path
         id="path15854"
         d="M 116.11308,51.8136 C 116.44722,51.67205 117.25437,51.28715 117.79246,51.01811 C 118.1954,50.81664 118.65781,50.75294 119.11829,50.75294 C 119.71255,50.75294 120.02576,50.76474 120.5325,51.01811 C 121.10139,51.30255 121.57012,51.5254 122.0351,51.99038 C 122.46731,52.42259 122.51718,53.03479 122.65382,53.58137 C 122.78393,54.1018 122.91898,54.44699 122.91898,54.99558 C 122.91898,55.61334 123.04359,56.1403 122.91898,56.76335 C 122.90743,56.82113 122.91898,56.8812 122.91898,56.94013 C 122.91898,57.4866 122.45209,58.22747 122.21188,58.7079 C 121.92831,59.27502 121.76522,59.86638 121.50477,60.38727 C 121.23806,60.92069 121.24233,61.53088 120.97444,62.06665 C 120.64285,62.72984 120.45679,63.29141 119.91378,63.83442 C 119.54312,64.20508 119.05962,63.83442 118.58796,63.83442 C 118.10332,63.83442 117.49387,63.46081 117.08535,63.2157 C 116.68262,62.97406 116.3603,62.66743 116.02469,62.33182"
         style="fill:none;fill-rule:evenodd;stroke:#000000;stroke-width:1px;stroke-linecap:butt;stroke-linejoin:miter;stroke-opacity:1" />
      <path
         sodipodi:nodetypes="cccccccccccccccccccccccc"
         id="path15858"
         d="M 85.6191,30.33524 L 75.71961,8.591702 L 99.05413,29.98168 L 97.10959,2.050965 L 112.13561,26.7997 L 137.06112,9.122032 L 123.62609,34.57788 L 151.20326,27.86036 L 127.3384,43.23993 L 152.44069,50.66456 L 129.6365,54.73042 L 140.77343,73.46875 L 123.97964,66.92801 L 120.79766,88.14122 L 111.4285,75.59007 L 113.92547,68.28698 L 121.72574,63.9891 L 125.46015,56.68602 L 124.77514,43.37252 L 116.7318,32.19139 L 106.56714,32.85431 L 91.27596,39.35085 L 86.14943,31.92623 L 85.6191,30.33524 z "
         style="fill:url(#linearGradient29522);fill-opacity:1;fill-rule:evenodd;stroke:#000000;stroke-width:1px;stroke-linecap:butt;stroke-linejoin:miter;stroke-opacity:1" />
      <path
         sodipodi:nodetypes="cccccccccccc"
         id="path20746"
         d="M 112.84271,77.35784 L 112.31238,92.73741 L 115.67114,95.56584 L 110.6772,101.88561 C 108.04028,103.6681 104.96142,105.53899 99.58446,106.08405 C 94.82622,105.06758 92.80802,104.58145 88.84528,102.06238 C 87.12171,100.36827 85.48652,99.20449 83.93972,96.98005 L 89.15464,94.15162 L 89.50819,85.66634 L 96.75603,85.84312 L 111.60528,75.76685 L 112.84271,77.35784 z "
         style="fill:#d7d7d7;fill-opacity:1;fill-rule:evenodd;stroke:#000000;stroke-width:1px;stroke-linecap:butt;stroke-linejoin:miter;stroke-opacity:1" />
      <path
         id="path21717"
         d="M 135.47013,140.46712 L 143.77863,161.50354 L 143.42508,173.70114 L 146.43029,186.78261 L 153.50135,206.40482 L 150.31937,213.12234 L 150.67293,217.71853 L 155.62267,226.38059 L 158.98143,226.38059 L 165.52217,217.36498 L 165.87572,211.35457 L 163.04729,206.22805 L 161.4563,185.01484 L 160.57242,167.33718 L 157.03689,157.61446 L 155.09234,146.47752 L 153.1478,132.15861 L 135.47013,140.46712 z "
         style="fill:#ffffff;fill-opacity:1;fill-rule:evenodd;stroke:#000000;stroke-width:1px;stroke-linecap:butt;stroke-linejoin:miter;stroke-opacity:1" />
      <path
         sodipodi:nodetypes="ccccccccccccccc"
         id="path23657"
         d="M 57.5,129 L 49.75,152.75 L 43,168.5 L 37.25,187.75 L 34.75,197.25 L 32,202 L 32.5,213.25 L 36.5,218.75 L 43.25,212.75 L 42.75,198.75 L 51.25,183 L 58.5,166.25 L 59,157.5 L 69.75,137.25 C 63,138.25 57.5,129 57.5,129 z "
         style="fill:#eaeaea;fill-opacity:1;fill-rule:evenodd;stroke:#000000;stroke-width:1px;stroke-linecap:butt;stroke-linejoin:miter;stroke-opacity:1" />
      <path
         id="path25604"
         d="M 71.12341,189.25749 L 79.60869,246.88669 L 84.91199,263.85725 L 95.16504,283.65624 L 105.06454,303.10168 L 108.24652,319.36513 L 111.4285,323.60777 L 136.17724,312.29407 L 129.10617,301.33391 L 122.74221,281.18137 L 111.07495,265.27146 L 104.00388,248.3009 L 104.00388,215.06688 L 103.29677,188.55038 L 71.12341,189.25749 z "
         style="fill:#cfcfcf;fill-opacity:1;fill-rule:evenodd;stroke:#000000;stroke-width:1px;stroke-linecap:butt;stroke-linejoin:miter;stroke-opacity:1" />
      <path
         sodipodi:nodetypes="cccccccccccccccccccccccccc"
         id="path25602"
         d="M 132.6846,188.46459 L 128.3384,210.40267 L 124.80287,231.60546 L 117.79246,253.25065 L 113.19627,271.1051 L 108.95363,295.3235 L 102.23611,308.40498 L 103.29677,313.35473 L 103.65033,318.65803 L 101.17545,325.02198 L 94.28116,322.72388 L 80.66936,319.71868 L 76.60349,322.01679 L 73.59829,315.47605 L 76.78027,309.46564 L 81.37646,307.34432 L 83.14423,299.21259 L 88.44753,279.06005 L 86.67976,267.39278 L 89.27596,254.49329 L 88.56885,242.79049 L 89.39728,224.7844 L 85.33662,209.61714 L 89.15464,194.56079 L 91.27596,188.55038 L 132.6846,188.46459 z "
         style="fill:#b9b8c4;fill-opacity:1;fill-rule:evenodd;stroke:#000000;stroke-width:1px;stroke-linecap:butt;stroke-linejoin:miter;stroke-opacity:1" />
      <path
         id="path27556"
         d="M 113.25,323.5 L 119.5,340.5 L 111.75,355.25 L 101.75,354.75 L 94,359.5 L 95,367.5 L 113.5,369.25 L 134.75,363.75 L 147.5,354.25 L 145.5,347.25 L 141.75,347.25 L 139.75,336.5 L 134.5,313 L 113.25,323.5 z "
         style="fill:#000000;fill-opacity:1;fill-rule:evenodd;stroke:#000000;stroke-width:1px;stroke-linecap:butt;stroke-linejoin:miter;stroke-opacity:1" />
      <path
         sodipodi:nodetypes="cccccccccccccc"
         id="path28527"
         d="M 77.25,321.25 L 74.25,337.25 L 67.5,344 L 54,347.75 L 44.25,345.25 L 36.75,349 L 36.75,355.5 L 64.75,364.75 L 88.25,367.5 L 95.25,353.25 L 95.5,337 L 99.5,325 L 81.375,319.875 L 77.25,321.25 z "
         style="fill:#000000;fill-opacity:1;fill-rule:evenodd;stroke:#000000;stroke-width:1px;stroke-linecap:butt;stroke-linejoin:miter;stroke-opacity:1" />
    </g>
    <path
       inkscape:transform-center-y="65.83755"
       inkscape:transform-center-x="7.670554"
       id="path29562"
       d="M 251.09628,196.23238 L 234.99008,252.21197 L 232.80068,269.85655 L 233.94828,292.1233 L 234.92019,313.92195 L 231.09177,330.04546 L 232.23441,335.2242 L 259.44647,335.15781 L 257.54081,322.25457 L 260.08038,301.27421 L 256.03687,281.96358 L 256.61674,263.58795 L 270.36031,233.32883 L 280.68211,208.8935 L 251.09628,196.23238 z "
       style="fill:#cfcfcf;fill-opacity:1;fill-rule:evenodd;stroke:#000000;stroke-width:1px;stroke-linecap:butt;stroke-linejoin:miter;stroke-opacity:1" />
    <path
       sodipodi:nodetypes="cccccccccccccccc"
       id="path29526"
       d="M 249.5213,118.2999 C 253.3095,115.85341 257.98158,114.46759 264.5982,112.55143 C 275.55653,126.42643 288.56512,123.13506 296.49832,110.94419 L 321.14781,117.13264 C 325.2505,119.52508 326.87832,120.50331 330.80424,124.84029 C 332.19636,128.70587 333.58847,132.04111 333.91993,135.90669 L 333.67687,148.03376 C 326.65736,150.32025 321.5824,151.36931 314.56289,156.83778 C 312.06591,164.23889 310.80638,170.04901 310.25395,178.51078 C 310.46756,187.26718 311.38827,195.49325 313.54642,204.24965 L 249.04642,204.24965 L 253.93811,146.87654 L 250.69807,153.31983 C 245.31649,152.22668 240.8188,150.42643 237.73532,143.1461 L 243.27475,125.4197 C 244.8266,121.98577 246.0249,119.96606 249.5213,118.2999 z "
       style="fill:#d80000;fill-opacity:1;stroke:#000000;stroke-width:1;stroke-linecap:butt;stroke-linejoin:miter;stroke-miterlimit:4;stroke-dasharray:none;stroke-opacity:1" />
    <path
       sodipodi:nodetypes="ccccccccccccccccc"
       id="path29528"
       d="M 260.2232,55.603196 C 261.88987,51.769866 263.30653,50.311526 266.3482,47.478196 L 271.4732,55.603196 L 278.5357,52.353196 L 287.0982,49.009446 L 297.2232,48.415696 L 301.5982,54.384446 L 304.8482,59.290696 L 305.3482,72.165696 L 301.8482,79.290696 L 294.2857,83.603196 L 291.5982,90.915696 L 276.8482,101.1032 L 267.0982,101.2282 C 264.95237,98.842776 262.68153,96.832366 261.6607,93.571946 C 260.01487,89.561526 260.86903,85.051116 259.8482,81.790696 C 259.0982,73.603196 258.2232,66.790696 260.2232,55.603196 z "
       style="fill:#eeeeee;fill-opacity:1;stroke:#000000;stroke-width:1;stroke-linecap:butt;stroke-linejoin:miter;stroke-miterlimit:4;stroke-opacity:1" />
    <path
       id="path29530"
       d="M 277.67118,69.626506 C 277.99164,69.616036 278.76777,69.431766 279.26217,69.184566 C 279.85342,68.888936 280.19227,68.521246 280.85316,68.389076 C 281.31287,68.297126 281.66338,68.212296 282.17898,68.212296 C 282.66671,68.212296 283.06322,68.278676 283.50481,68.389076 C 283.97218,68.505916 284.38736,68.631806 284.83063,68.742626 C 285.34362,68.870876 285.84532,69.062586 286.33323,69.184566 C 286.75214,69.289296 287.26248,69.173816 287.65906,69.272956 C 288.02787,69.365156 289.01529,69.169366 288.27778,69.538116 C 287.83511,69.759456 287.34655,70.380956 287.04034,70.687166 C 286.67781,71.049706 285.99697,71.102696 285.53774,71.217496 C 284.99955,71.352046 284.5012,71.432436 283.94675,71.571056 C 283.41612,71.703706 282.92164,71.747826 282.35576,71.747826 C 281.88435,71.747826 281.41295,71.747826 280.94154,71.747826 C 280.42383,71.747826 279.52273,71.259396 279.08539,71.040726 C 278.5895,70.792776 278.1338,70.415426 277.67118,70.068446 C 277.55332,69.980066 277.67118,69.773826 277.67118,69.626506 z "
       style="fill:#000000;fill-opacity:1;fill-rule:evenodd;stroke:#000000;stroke-width:1px;stroke-linecap:butt;stroke-linejoin:miter;stroke-opacity:1" />
    <path
       id="path29532"
       d="M 281.91382,67.858746 C 281.90635,67.853136 282.09059,66.830216 282.09059,66.444526 C 282.09059,65.885016 282.23077,65.441886 282.35576,64.941926 C 282.47183,64.477646 282.42481,63.958616 282.53253,63.527716 C 282.74178,62.690716 282.61072,62.101586 282.88609,63.616106 C 282.98806,64.176956 283.02133,64.775786 283.15125,65.295476 C 283.26964,65.769006 283.40811,66.137806 283.50481,66.621306 C 283.60465,67.120516 283.59319,67.608836 283.59319,68.123906 C 283.59319,68.571816 283.61955,68.018496 283.50481,68.477456"
       style="fill:#000000;fill-opacity:1;fill-rule:evenodd;stroke:#000000;stroke-width:1px;stroke-linecap:butt;stroke-linejoin:miter;stroke-opacity:1" />
    <path
       id="path29534"
       d="M 281.64865,72.101386 C 281.64865,72.595266 281.97081,73.036456 282.09059,73.515596 C 282.20656,73.979486 282.17632,74.474576 282.26737,74.929806 C 282.35259,75.355896 282.35576,75.787646 282.35576,76.255636 C 282.35576,76.585806 282.37272,76.853826 282.44415,77.139516 C 282.44415,79.050766 282.59848,75.284756 282.7977,74.487866 C 282.81199,74.430706 282.7977,74.370016 282.7977,74.311096 C 282.7977,73.765366 283.01833,73.162736 283.23964,72.720096 C 283.44118,72.317026 283.68158,71.930966 283.68158,71.571056"
       style="fill:#000000;fill-opacity:1;fill-rule:evenodd;stroke:#000000;stroke-width:1px;stroke-linecap:butt;stroke-linejoin:miter;stroke-opacity:1" />
    <path
       id="path29536"
       d="M 260.52384,69.891676 C 260.52459,69.890166 261.56521,69.530486 262.02644,69.184566 C 262.62949,68.732276 263.0623,68.306886 263.7942,68.123906 C 264.21026,68.019896 264.77687,68.123906 265.20842,68.123906 C 265.61393,68.123906 266.09546,68.035516 266.53424,68.035516 C 266.91695,68.035516 267.49854,68.298686 267.86007,68.389076 C 268.48369,68.544976 269.01152,68.965396 269.53945,69.361346 C 270.02532,69.725746 271.12048,69.783676 270.33494,69.980066 C 269.86052,70.098666 269.42663,70.232436 268.92073,70.333616 C 268.45046,70.427666 267.96467,70.763396 267.5949,71.040726 C 267.13617,71.384776 266.47138,71.520476 265.91553,71.659436 C 265.41977,71.783376 264.84852,71.747826 264.32454,71.747826 C 263.78174,71.747826 263.41239,71.519796 262.91032,71.394276 C 262.30026,71.241756 261.68774,70.606206 261.14255,70.333616 C 260.79704,70.160856 261.01722,70.286386 260.52384,69.891676 z "
       style="fill:#000000;fill-opacity:1;fill-rule:evenodd;stroke:#000000;stroke-width:1px;stroke-linecap:butt;stroke-linejoin:miter;stroke-opacity:1" />
    <path
       id="path29538"
       d="M 268.03685,68.123906 C 267.43534,67.823156 269.15219,67.314736 269.80461,67.151636 C 270.62721,66.945986 271.68377,66.338886 272.36787,65.825806 C 273.51612,64.964626 272.3141,66.233136 271.92593,66.621306 C 271.44521,67.102026 270.95918,67.545246 270.42333,67.947126 C 270.13505,68.163336 269.88343,68.487026 269.62784,68.742626"
       style="fill:#000000;fill-opacity:1;fill-rule:evenodd;stroke:#000000;stroke-width:1px;stroke-linecap:butt;stroke-linejoin:miter;stroke-opacity:1" />
    <path
       id="path29540"
       d="M 262.02644,69.184566 C 261.52644,69.559566 261.91286,67.934746 261.76127,67.328416 C 261.63522,66.824206 261.36053,66.350146 261.14255,65.914196 C 260.795,65.219096 260.69927,64.936556 260.52384,64.234816 C 260.35328,63.552586 261.14212,65.383436 261.84966,66.090976 C 262.312,66.553316 262.58168,67.567876 262.99871,68.123906 C 263.09107,68.247046 263.24075,68.365946 263.35226,68.477456"
       style="fill:#000000;fill-opacity:1;fill-rule:evenodd;stroke:#000000;stroke-width:1px;stroke-linecap:butt;stroke-linejoin:miter;stroke-opacity:1" />
    <path
       id="path29542"
       d="M 262.82193,71.747826 C 263.19358,72.243366 262.17667,72.826286 262.02644,73.427206 C 261.90793,73.901256 261.84966,74.342596 261.84966,74.841426 C 261.84966,75.137516 261.86624,75.438046 261.93805,75.725306 C 262.09197,76.341006 262.19639,74.406306 262.64516,73.957536 C 263.06725,73.535446 263.47188,73.219196 263.88259,72.808486 C 264.09003,72.601056 264.20453,72.341386 264.32454,72.101386"
       style="fill:#000000;fill-opacity:1;fill-rule:evenodd;stroke:#000000;stroke-width:1px;stroke-linecap:butt;stroke-linejoin:miter;stroke-opacity:1" />
    <path
       id="path29544"
       d="M 266.97619,71.394276 C 267.04914,71.321316 268.05346,72.206376 268.3904,72.543326 C 268.8256,72.978516 269.19851,73.502956 269.53945,73.957536 C 269.73263,74.215116 270.46183,75.498636 269.893,74.929806 C 269.56095,74.597766 269.562,73.694176 269.45106,73.250436 C 269.32912,72.762676 269.39443,72.228426 269.27428,71.747826 C 269.1636,71.305086 268.91746,70.949886 268.56718,70.687166"
       style="fill:#000000;fill-opacity:1;fill-rule:evenodd;stroke:#000000;stroke-width:1px;stroke-linecap:butt;stroke-linejoin:miter;stroke-opacity:1" />
    <path
       id="path29546"
       d="M 262.55677,88.099676 C 262.02845,87.888346 263.59573,88.580386 264.14776,88.718396 C 264.72227,88.862016 265.20628,89.053836 265.73875,89.160336 C 266.18174,89.248936 266.6486,89.144726 267.06457,89.248726 C 267.59848,89.382196 268.2042,89.120846 268.65556,88.895166 C 269.23211,88.606896 269.73322,88.356346 270.24655,88.099676 C 270.61087,87.917516 271.32468,88.192426 271.66077,88.276446 C 272.10521,88.387556 272.54476,88.475296 272.98659,88.364836 C 273.45171,88.248556 273.86658,88.122746 274.31242,88.011286 C 274.88754,87.867506 275.29695,88.023536 275.72663,88.453226 C 276.12375,88.850346 276.59222,89.071946 277.14085,89.071946 C 277.59844,89.071946 277.98603,89.160336 278.46667,89.160336 C 279.01198,89.160336 279.38844,89.106666 279.88088,88.983556 C 280.44747,88.841906 280.88692,88.524736 281.38349,88.276446 C 281.94643,87.994976 282.39873,87.836136 282.7977,87.304176 C 283.08274,86.924116 283.57425,86.712296 284.03514,86.597076 C 284.60249,86.455236 283.14763,87.399816 282.88609,87.922896 C 282.62181,88.451446 282.27043,88.803716 281.82543,89.248726 C 281.48165,89.592506 280.83586,89.849666 280.41121,89.955826 C 279.71048,90.131016 278.91813,90.464676 278.20151,90.751326 C 277.71215,90.947066 277.17834,91.073406 276.6989,91.193266 C 276.20098,91.317746 275.67564,91.338596 275.1963,91.458426 C 274.60597,91.606016 274.04473,91.723596 273.42853,91.723596 C 272.84753,91.723596 272.18678,91.811986 271.57238,91.811986 C 270.9242,91.811986 270.27602,91.811986 269.62784,91.811986 C 269.08978,91.811986 268.54498,91.850626 268.03685,91.723596 C 267.56705,91.606146 267.05594,91.409916 266.62263,91.193266 C 266.50478,91.134336 266.38693,91.075416 266.26908,91.016486 C 265.61539,90.689646 264.94524,90.442956 264.32454,90.132606 C 263.78763,89.864156 263.14313,88.951206 262.73354,88.541616 C 262.62135,88.429426 262.61569,88.246986 262.55677,88.099676 z "
       style="fill:#000000;fill-opacity:1;fill-rule:evenodd;stroke:#000000;stroke-width:1px;stroke-linecap:butt;stroke-linejoin:miter;stroke-opacity:1" />
    <path
       id="path29548"
       d="M 271.21883,84.829306 C 271.21665,84.827136 269.95903,84.718766 269.62784,84.652526 C 269.11985,84.550926 268.68514,84.004576 268.47879,83.591866 C 268.2426,83.119486 268.25775,82.531076 268.03685,82.089266 C 267.57601,81.167596 267.99078,82.076806 268.47879,82.442816 C 268.97999,82.818716 269.48536,82.813526 269.98139,83.061536 C 270.57382,83.357756 270.67425,83.631806 271.04205,84.122196 C 271.09369,84.191056 271.20441,84.771626 271.21883,84.829306 z "
       style="fill:#000000;fill-opacity:1;fill-rule:evenodd;stroke:#000000;stroke-width:1px;stroke-linecap:butt;stroke-linejoin:miter;stroke-opacity:1" />
    <path
       id="path29550"
       d="M 274.40081,84.387366 C 274.74902,84.851646 274.69754,83.206746 275.10791,82.796376 C 275.61388,82.290406 275.76838,81.990436 276.43374,81.824096 C 276.84991,81.720056 277.25052,82.093526 277.67118,82.177656 C 277.70582,82.184586 276.77666,82.906016 276.25696,83.945426 C 275.94084,84.577666 275.38192,84.740916 274.75436,84.740916 C 274.58769,84.740916 274.51866,84.505216 274.40081,84.387366 z "
       style="fill:#000000;fill-opacity:1;fill-rule:evenodd;stroke:#000000;stroke-width:1px;stroke-linecap:butt;stroke-linejoin:miter;stroke-opacity:1" />
    <path
       id="path29552"
       d="M 296.58628,67.416796 C 296.92042,67.275246 297.72757,66.890346 298.26566,66.621306 C 298.6686,66.419836 299.13101,66.356136 299.59149,66.356136 C 300.18575,66.356136 300.49896,66.367936 301.0057,66.621306 C 301.57459,66.905746 302.04332,67.128596 302.5083,67.593576 C 302.94051,68.025786 302.99038,68.637986 303.12702,69.184566 C 303.25713,69.704996 303.39218,70.050186 303.39218,70.598776 C 303.39218,71.216536 303.51679,71.743496 303.39218,72.366546 C 303.38063,72.424326 303.39218,72.484396 303.39218,72.543326 C 303.39218,73.089796 302.92529,73.830666 302.68508,74.311096 C 302.40151,74.878216 302.23842,75.469576 301.97797,75.990466 C 301.71126,76.523886 301.71553,77.134076 301.44764,77.669846 C 301.11605,78.333036 300.92999,78.894606 300.38698,79.437616 C 300.01632,79.808276 299.53282,79.437616 299.06116,79.437616 C 298.57652,79.437616 297.96707,79.064006 297.55855,78.818896 C 297.15582,78.577256 296.8335,78.270626 296.49789,77.935016"
       style="fill:none;fill-rule:evenodd;stroke:#000000;stroke-width:1px;stroke-linecap:butt;stroke-linejoin:miter;stroke-opacity:1" />
    <path
       sodipodi:nodetypes="cccccccccccccccccccccccc"
       id="path29554"
       d="M 266.0923,45.938436 L 256.19281,24.194898 L 279.52733,45.584876 L 277.58279,17.654161 L 292.60881,42.402896 L 317.53432,24.725228 L 304.09929,50.181076 L 331.67646,43.463556 L 307.8116,58.843126 L 332.91389,66.267756 L 310.1097,70.333616 L 321.24663,89.071946 L 304.45284,82.531206 L 301.27086,103.74442 L 291.9017,91.193266 L 294.39867,83.890176 L 302.19894,79.592296 L 305.93335,72.289216 L 305.24834,58.975716 L 297.205,47.794586 L 287.04034,48.457506 L 271.74916,54.954046 L 266.62263,47.529426 L 266.0923,45.938436 z "
       style="fill:url(#linearGradient3544);fill-opacity:1;fill-rule:evenodd;stroke:#000000;stroke-width:1px;stroke-linecap:butt;stroke-linejoin:miter;stroke-opacity:1" />
    <path
       sodipodi:nodetypes="cccccccccccc"
       id="path29556"
       d="M 293.31591,92.961036 L 292.78558,108.34061 L 296.14434,111.16904 L 291.1504,117.48881 C 288.51348,119.2713 285.43462,121.14219 280.05766,121.68725 C 275.29942,120.67078 273.28122,120.18465 269.31848,117.66558 C 267.59491,115.97147 265.95972,114.80769 264.41292,112.58325 L 269.62784,109.75482 L 269.98139,101.26954 L 277.22923,101.44632 L 292.07848,91.370046 L 293.31591,92.961036 z "
       style="fill:#d7d7d7;fill-opacity:1;fill-rule:evenodd;stroke:#000000;stroke-width:1px;stroke-linecap:butt;stroke-linejoin:miter;stroke-opacity:1" />
    <path
       sodipodi:nodetypes="cccccccccccccc"
       inkscape:transform-center-y="158.37148"
       inkscape:transform-center-x="35.181105"
       id="path29566"
       d="M 233.93743,335.87934 L 232.59782,353.94223 L 219.44184,364.66697 L 208.54375,366.07634 L 199.52317,371.69622 L 198.62534,380.39365 L 215.24564,380.63747 L 236.86794,381.41751 L 252.40527,378.04051 L 253.47907,370.84003 L 250.06475,369.28926 L 252.68932,358.67446 L 257.62743,335.10694 L 233.93743,335.87934 z "
       style="fill:#000000;fill-opacity:1;fill-rule:evenodd;stroke:#000000;stroke-width:1px;stroke-linecap:butt;stroke-linejoin:miter;stroke-opacity:1" />
    <path
       sodipodi:nodetypes="ccccccccccccccc"
       id="path29560"
       d="M 237.73663,144.92721 L 238.51746,169.8975 L 237.52057,187.00396 L 238.6534,207.06242 L 239.53004,216.84667 L 238.5576,222.24846 L 242.85036,232.65925 L 248.48117,236.47291 L 252.79091,228.53638 L 247.56375,215.5392 L 250.20653,197.83812 L 251.3339,179.62125 L 248.83109,171.22194 L 252.061,148.52409 C 246.05236,151.75809 237.73663,144.92721 237.73663,144.92721 z "
       style="fill:#eaeaea;fill-opacity:1;fill-rule:evenodd;stroke:#000000;stroke-width:1px;stroke-linecap:butt;stroke-linejoin:miter;stroke-opacity:1" />
    <path
       sodipodi:nodetypes="cccccccccccccccccccccccccc"
       id="path29564"
       d="M 311.55705,196.65519 L 311.04639,219.01381 L 311.20794,240.50874 L 308.02237,263.03678 L 306.56352,281.41552 L 306.54683,306.00272 L 302.17781,320.04416 L 304.07348,324.73793 L 305.33334,329.90152 L 303.98916,336.59616 L 296.80247,335.51729 L 282.87671,334.8965 L 279.26636,337.85927 L 275.18163,331.93243 L 277.28314,325.46453 L 281.4463,322.58476 L 281.79003,314.2702 L 283.55046,293.50604 L 279.80356,282.31627 L 280.14388,269.16251 L 277.43575,257.75543 L 275.15685,239.87493 L 268.54959,225.63138 L 269.72281,210.14285 L 270.77945,203.85727 L 311.55705,196.65519 z "
       style="fill:#b9b8c4;fill-opacity:1;fill-rule:evenodd;stroke:#000000;stroke-width:1px;stroke-linecap:butt;stroke-linejoin:miter;stroke-opacity:1" />
    <path
       id="path29558"
       d="M 313.47909,149.7197 L 312.81749,172.32776 L 307.68194,183.39721 L 305.28431,196.60355 L 304.04333,217.424 L 298.46993,222.34205 L 296.98212,226.70513 L 298.11439,236.6172 L 301.20089,237.94187 L 310.76715,232.23668 L 313.46251,226.8529 L 312.88521,221.02641 L 319.78953,200.90523 L 325.94925,184.3119 L 326.53488,173.98289 L 329.14029,162.98178 L 333.00065,149.05662 L 313.47909,149.7197 z "
       style="fill:#ffffff;fill-opacity:1;fill-rule:evenodd;stroke:#000000;stroke-width:1px;stroke-linecap:butt;stroke-linejoin:miter;stroke-opacity:1" />
    <path
       sodipodi:nodetypes="cccccccccccccc"
       id="path29568"
       d="M 279.77145,336.99276 L 279.56628,353.27029 L 274.07697,361.08006 L 261.42246,367.09471 L 251.38786,366.30781 L 244.64405,371.29114 L 245.76131,377.6944 L 274.93453,381.99392 L 298.55746,380.66367 L 303.00391,365.42256 L 300.45704,349.37144 L 302.33487,336.86249 L 283.59871,334.9292 L 279.77145,336.99276 z "
       style="fill:#000000;fill-opacity:1;fill-rule:evenodd;stroke:#000000;stroke-width:1px;stroke-linecap:butt;stroke-linejoin:miter;stroke-opacity:1" />
    <path
       style="fill:none;fill-rule:evenodd;stroke:#000000;stroke-width:1px;stroke-linecap:butt;stroke-linejoin:miter;stroke-opacity:1"
       d="M 308,569 L 320,570 L 315,537 L 330,494.5 L 330,538 L 341,567 L 330,568"
       id="path29574"
       sodipodi:nodetypes="ccccccc" />
    <path
       style="fill:none;fill-rule:evenodd;stroke:#000000;stroke-width:1px;stroke-linecap:butt;stroke-linejoin:miter;stroke-opacity:1"
       d="M 330,494.5 L 328.5,482.5 L 326,448.5 L 318.5,470.5 L 306,490.5 L 297.5,491"
       id="path29576"
       sodipodi:nodetypes="cccccc" />
    <path
       style="fill:none;fill-rule:evenodd;stroke:#000000;stroke-width:1px;stroke-linecap:butt;stroke-linejoin:miter;stroke-opacity:1"
       d="M 327,448 L 343.5,468 L 344.5,488 L 351,494.5"
       id="path29578" />
    <path
       sodipodi:nodetypes="ccccccc"
       id="path29580"
       d="M 227,569 L 239,569 L 231.5,536 L 241,493.5 L 241.5,529.5 L 268.5,550 L 263.5,558.5"
       style="fill:none;fill-rule:evenodd;stroke:#000000;stroke-width:1px;stroke-linecap:butt;stroke-linejoin:miter;stroke-opacity:1" />
    <path
       sodipodi:nodetypes="cccccc"
       id="path29582"
       d="M 241,493.5 L 239.5,481.5 L 237,447.5 L 233,471.5 L 223.5,487.5 L 216,487.5"
       style="fill:none;fill-rule:evenodd;stroke:#000000;stroke-width:1px;stroke-linecap:butt;stroke-linejoin:miter;stroke-opacity:1" />
    <path
       id="path29584"
       d="M 238,447 L 254.5,467 L 255.5,487 L 262,493.5"
       style="fill:none;fill-rule:evenodd;stroke:#000000;stroke-width:1px;stroke-linecap:butt;stroke-linejoin:miter;stroke-opacity:1" />
    <path
       style="fill:none;fill-rule:evenodd;stroke:#000000;stroke-width:1px;stroke-linecap:butt;stroke-linejoin:miter;stroke-opacity:1"
       d="M 143.87711,570.3235 L 152.1821,570.16894 L 148.37895,534.55181 L 148.59384,494.03676 L 155.54939,529.36197 L 183.79133,531.68108 L 183.39873,541.94068"
       id="path29586"
       sodipodi:nodetypes="ccccccc"
       inkscape:transform-center-y="38.93013"
       inkscape:transform-center-x="-17.58514" />
    <path
       style="fill:none;fill-rule:evenodd;stroke:#000000;stroke-width:1px;stroke-linecap:butt;stroke-linejoin:miter;stroke-opacity:1"
       d="M 148.31902,493.52986 L 143.95338,482.25195 L 133.28181,449.87344 L 135.22209,474.12701 L 129.88631,491.95338 L 122.61024,493.77239"
       id="path29588"
       sodipodi:nodetypes="cccccc"
       inkscape:transform-center-x="11.03537"
       inkscape:transform-center-y="-22.677085" />
    <path
       style="fill:none;fill-rule:evenodd;stroke:#000000;stroke-width:1px;stroke-linecap:butt;stroke-linejoin:miter;stroke-opacity:1"
       d="M 134.13068,449.14584 L 154.98875,464.54685 L 160.8096,483.70716 L 168.69201,488.43661"
       id="path29590"
       inkscape:transform-center-x="-4.911345"
       inkscape:transform-center-y="-25.708775" />
    <path
       inkscape:transform-center-x="-17.58514"
       inkscape:transform-center-y="38.93013"
       sodipodi:nodetypes="ccccccc"
       id="path29592"
       d="M 47.87711,570.3235 L 56.1821,570.16894 L 52.37895,534.55181 L 52.59384,494.03676 L 32.04939,527.36197 L 59.79133,529.18108 L 66.89873,536.94068"
       style="fill:none;fill-rule:evenodd;stroke:#000000;stroke-width:1px;stroke-linecap:butt;stroke-linejoin:miter;stroke-opacity:1" />
    <path
       inkscape:transform-center-y="-22.677085"
       inkscape:transform-center-x="11.03537"
       sodipodi:nodetypes="cccccc"
       id="path29594"
       d="M 52.31902,493.52986 L 47.95338,482.25195 L 37.28181,449.87344 L 48.22209,475.12701 L 39.38631,485.45338 L 31.61024,486.27239"
       style="fill:none;fill-rule:evenodd;stroke:#000000;stroke-width:1px;stroke-linecap:butt;stroke-linejoin:miter;stroke-opacity:1" />
    <path
       inkscape:transform-center-y="-25.708775"
       inkscape:transform-center-x="-4.911345"
       id="path29596"
       d="M 38.13068,449.14584 L 50.98875,468.54685 L 56.8096,484.70716 L 50.69201,492.43661"
       style="fill:none;fill-rule:evenodd;stroke:#000000;stroke-width:1px;stroke-linecap:butt;stroke-linejoin:miter;stroke-opacity:1"
       sodipodi:nodetypes="cccc" />
    <path
       style="fill:#000000"
       d="M 430.23929,384.64042 C 430.02948,384.43684 427.15781,383.99323 423.85781,383.65461 C 420.55781,383.31599 417.10335,382.95196 416.18123,382.84565 C 415.25911,382.73933 414.6825,382.36458 414.89987,382.01286 C 415.11724,381.66114 414.13384,380.84427 412.71453,380.19759 C 410.76534,379.30948 409.79435,379.30366 408.74589,380.17381 C 407.69521,381.0458 407.00386,381.03205 405.90161,380.11727 C 405.10071,379.45258 403.90618,379.24201 403.24711,379.64934 C 402.54337,380.08427 402.31009,379.96716 402.68188,379.36558 C 403.04971,378.77042 400.91474,377.60434 397.58639,376.58252 C 394.43567,375.61524 391.46547,374.46684 390.98595,374.03052 C 390.50643,373.5942 389.52543,373.4631 388.80595,373.7392 C 386.53591,374.61029 380.37149,371.0735 380.67649,369.07498 C 381.20236,365.62913 383.42014,364.26994 389.65313,363.57353 C 397.38595,362.70954 406.97373,360.55834 411.45083,358.6828 C 416.64738,356.50587 418.95278,353.27023 420.9641,345.33092 C 421.97428,341.34342 425.25583,332.99454 425.68401,332.99454 C 426.81543,332.99454 424.57992,338.80075 421.95147,347.0397 C 419.45784,354.85603 416.8937,357.89548 410.87001,360.17534 C 409.2133,360.80238 406.50781,361.89718 404.85781,362.60824 C 399.25998,365.02059 393.05128,366.246 389.65487,365.60883 C 385.26941,364.78611 382.35781,365.75053 382.35781,368.02586 C 382.35781,370.36273 384.5783,372.17764 387.5279,372.25162 C 388.80935,372.28376 390.75781,372.69266 391.85781,373.1603 C 398.66067,376.05235 406.25436,378.34747 408.71073,378.25392 C 410.27983,378.19417 413.26416,379.01282 415.34257,380.07315 C 417.42098,381.13347 421.98717,382.27703 425.48965,382.61438 L 431.85781,383.22776 L 434.7267,376.90434 C 438.21889,369.20708 438.83916,365.18358 437.58947,358.33467 C 436.69273,353.42013 436.84404,352.67489 439.98245,346.54847 C 443.77138,339.1522 444.02738,339.47872 433.85781,338.73647 C 430.00781,338.45547 426.02865,337.90388 425.01523,337.51072 C 422.85828,336.67393 424.60879,327.05414 429.10942,309.43434 C 434.19411,289.52797 432.68456,302.54447 427.7085,323.94888 C 425.40884,333.84083 425.37989,334.37882 427.07799,335.66707 C 428.99652,337.12254 429.06104,337.13475 437.52567,337.64328 C 444.16777,338.04231 446.25461,336.62513 444.32744,333.02417 C 443.57624,331.62055 443.54095,331.07607 444.22873,331.50114 C 444.85119,331.88585 445.5784,330.99472 445.96638,329.37182 C 446.33334,327.83682 447.11384,325.97359 447.70081,325.23131 C 448.28779,324.48902 448.66751,322.56231 448.54464,320.94974 C 448.42176,319.33717 448.79111,317.13982 449.3654,316.06674 C 450.39791,314.13748 451.90867,303.84072 452.75381,292.97259 C 452.99368,289.888 454.12044,284.35163 455.25773,280.66953 C 456.93199,275.24888 457.31953,271.36317 457.29405,260.25168 C 457.27675,252.70396 457.56068,244.66447 457.92499,242.38614 C 458.4661,239.00227 458.20953,237.83813 456.52388,236.0288 C 454.3514,233.69692 451.96826,228.07373 453.15983,228.09109 C 453.54372,228.09668 454.68355,230.00918 455.69279,232.34109 C 457.41562,236.32177 457.58217,236.44223 458.41758,234.31197 C 459.01651,232.78474 458.84524,230.98679 457.89369,228.81197 C 457.11615,227.03489 456.20463,224.28646 455.86808,222.70435 L 455.25617,219.82778 L 453.05699,221.79104 C 451.84744,222.87084 447.98736,224.7731 444.47904,226.01828 C 439.25727,227.87161 437.94503,228.03727 437.24436,226.93159 C 436.74599,226.14515 436.3557,231.84704 436.31007,240.58092 C 436.2041,260.86596 435.45626,274.7655 434.21176,279.58092 C 432.60133,285.81225 431.67639,293.99778 432.48883,294.82849 C 432.89357,295.24233 432.88695,297.15592 432.47412,299.08092 C 431.7575,302.42253 431.69178,302.30939 431.02171,296.58092 C 430.63571,293.28092 430.7574,288.55592 431.29214,286.08092 C 431.82688,283.60592 432.698,279.55592 433.22796,277.08092 C 434.63073,270.52979 434.88358,240.146 433.56222,236.91603 C 432.77023,234.98007 432.77971,233.20211 433.59687,230.41603 C 434.21553,228.30672 434.62404,226.19605 434.50467,225.72566 C 434.3853,225.25527 434.69138,224.35527 435.18484,223.72566 C 435.67829,223.09605 436.37766,221.34342 436.73897,219.83092 C 437.24064,217.73091 437.02945,217.08092 435.84548,217.08092 C 433.88874,217.08092 432.82035,214.45185 434.1132,212.81819 C 434.65173,212.13769 435.18424,207.99842 435.29654,203.6198 C 435.40884,199.24119 435.64893,195.41619 435.83007,195.1198 C 436.01121,194.82342 436.4466,188.50592 436.79761,181.08092 C 437.14862,173.65592 437.65611,166.84849 437.92536,165.95329 C 438.19461,165.0581 437.24393,159.8831 435.81274,154.45329 C 434.38155,149.02349 433.04394,141.20592 432.84028,137.08092 L 434.04853,125.19611 L 433.71789,136.80157 C 434.40423,140.77293 435.21902,144.27546 435.52853,144.58498 C 435.83805,144.89449 436.39872,142.83017 436.77448,139.99759 C 437.15023,137.16501 437.65704,135.04681 437.90071,135.29049 C 438.14439,135.53416 438.59112,142.28417 438.89346,150.2905 C 439.38033,163.18326 438.70906,180.42981 436.69281,206.83092 C 436.25186,212.60475 436.39716,215.08092 437.1769,215.08092 C 437.78968,215.08092 440.49378,213.12459 443.186,210.73351 C 445.87822,208.34244 450.53559,204.9817 453.5357,203.26521 C 456.53582,201.54872 459.86062,199.17107 460.92414,197.98155 C 462.51413,196.20319 475.29127,185.12591 488.1855,174.34701 C 490.67745,172.26387 490.89156,171.43699 491.35781,162.09515 C 491.63281,156.58528 491.52031,152.07804 491.10781,152.07906 C 490.69531,152.08008 490.35781,150.50592 490.35781,148.58092 C 490.35781,146.65592 490.80781,145.08092 491.35781,145.08092 C 491.90781,145.08092 492.35781,146.48906 492.35781,148.21013 L 492.35781,151.33934 L 499.39193,150.64622 C 503.2607,150.265 507.8234,149.46597 509.53128,148.8706 L 512.63651,147.78811 L 511.99439,138.74182 C 511.64122,133.76636 510.94648,129.44474 510.45053,129.13822 C 509.52226,128.56452 509.35781,128.05218 509.35781,125.73393 C 509.35781,123.5558 505.72237,119.99687 503.19432,119.70015 C 501.90924,119.54932 500.18281,119.17957 499.35781,118.87849 C 498.53281,118.5774 495.60781,117.87665 492.85781,117.32127 C 490.10781,116.76589 486.43043,115.8511 484.68584,115.28839 C 481.80652,114.35969 481.16298,114.57748 477.7105,117.64899 C 473.46465,121.42633 465.49832,123.66147 460.08778,122.59345 C 455.28227,121.64487 451.31952,119.9519 451.85951,119.07817 C 452.12146,118.65432 451.68642,117.76861 450.89274,117.10992 C 449.76288,116.17221 448.24733,116.26183 443.90958,117.52285 C 438.93759,118.96825 438.10793,119.6178 435.81902,123.85716 C 433.72679,127.73223 433.37858,128.04193 433.88091,125.58092 C 434.59268,122.09383 436.95192,118.14742 438.66608,117.57655 C 439.32153,117.35827 441.74985,116.69561 444.06234,116.104 C 449.90344,114.60963 454.35781,110.66731 454.35781,106.99203 C 454.35781,105.24785 453.82882,104.08093 453.03814,104.08093 C 451.27883,104.08093 448.07356,100.29565 446.68735,96.580926 C 444.64085,91.096758 443.51127,82.688051 443.53049,73.080926 C 443.54679,64.932453 443.9549,62.606219 446.39913,56.729626 L 449.24877,49.878326 L 447.24082,44.78411 C 446.13644,41.982291 443.47072,36.402876 441.317,32.38541 C 439.16327,28.367944 437.50389,25.083559 437.62947,25.086776 C 438.41158,25.106812 456.62799,42.711811 455.86627,42.711811 C 455.34791,42.711811 450.24392,38.422666 448.16833,36.395903 C 443.76033,32.091606 442.47424,32.438756 445.14025,37.213263 C 446.1745,39.065478 447.85967,42.830926 448.88507,45.580926 C 449.91048,48.330926 451.8526,52.2782 453.20089,54.352646 C 455.30586,57.591291 455.87885,57.943064 457.25507,56.841584 C 461.00286,53.841974 465.59125,52.025705 473.39227,50.453832 C 481.65943,48.788034 481.70393,48.790147 483.43731,50.930774 C 485.70848,53.735557 487.79229,53.650407 501.9873,50.172764 C 519.13514,45.971707 519.35781,45.931828 519.35781,47.061874 C 519.35781,47.622353 518.8195,48.080926 518.16156,48.080926 C 517.50362,48.080926 515.36612,49.139377 513.41156,50.433039 C 502.70309,57.520627 493.33379,63.286342 491.81705,63.765255 C 490.87481,64.062769 496.21328,60.39696 501.53663,56.905224 C 506.85999,53.413488 511.58499,50.18445 512.03663,49.729585 C 513.14701,48.611299 506.27593,49.855463 498.50247,52.180252 C 495.00704,53.225623 490.84454,54.080926 489.25247,54.080926 C 487.66041,54.080926 486.35781,54.290659 486.35781,54.546999 C 486.35781,55.020507 489.53764,62.206268 490.11258,63.032021 C 490.28533,63.280124 492.77367,63.789395 495.64224,64.163736 C 508.16313,65.797684 517.35781,67.441255 517.35781,68.045447 C 517.35781,69.045206 500.36831,71.225904 494.62207,70.963707 L 489.53249,70.731474 L 488.84836,66.169374 C 488.07174,60.990465 486.00531,56.463427 484.13309,55.839353 C 483.43635,55.607107 482.86438,54.553951 482.86205,53.499006 C 482.85525,50.424355 471.11498,51.182418 463.3189,54.760897 C 460.0403,56.265808 457.35781,57.85346 457.35781,58.289013 C 457.35781,60.275544 454.6327,58.73675 452.43413,55.508746 C 449.64901,51.419548 449.42725,51.607491 446.19865,60.793436 C 444.8608,65.128663 442.91482,72.27545 446.44805,91.580926 C 448.66958,102.61374 454.74019,104.89824 466.81775,99.246466 C 474.93009,95.450248 478.88584,92.273011 478.85164,89.580926 C 478.83767,88.480926 479.20958,87.038138 479.67811,86.374731 C 480.14664,85.711324 480.28604,84.773824 479.98789,84.291398 C 479.68973,83.808972 480.00041,83.414259 480.67828,83.414259 C 481.35615,83.414259 481.89885,84.576759 481.88429,85.997593 C 481.85056,89.28858 485.69065,90.196052 487.25797,87.267477 C 488.07642,85.738184 487.85901,84.939491 486.22064,83.456793 C 485.0806,82.425066 483.89508,81.805926 483.58616,82.080926 C 483.27723,82.355926 482.81307,81.946719 482.55469,81.171576 C 482.23457,80.211215 482.59604,79.958368 483.68934,80.377903 C 485.70449,81.15119 486.53394,79.827626 487.09882,74.937307 C 487.56648,70.888685 487.01248,70.465616 481.87907,70.951221 C 480.40825,71.090357 480.19036,70.848372 481.03023,70.008502 C 482.77577,68.262967 487.99316,69.874197 491.03651,73.09863 C 492.52335,74.673945 494.17343,75.69488 494.70334,75.367374 C 495.23326,75.039868 495.37101,75.250548 495.00946,75.835551 C 494.64791,76.420554 496.65874,79.659724 499.47797,83.033707 C 502.2972,86.40769 504.40529,89.366776 504.16262,89.609454 C 503.91994,89.852132 501.99802,89.172068 499.89169,88.0982 C 497.78536,87.024332 495.60903,86.425664 495.0554,86.767828 C 494.50176,87.109991 494.33894,86.92048 494.69356,86.346692 C 495.37761,85.239875 488.60308,79.502319 487.69013,80.415271 C 487.39516,80.710247 487.87471,81.980819 488.75581,83.238765 C 491.02595,86.479837 490.74982,88.627413 487.76063,90.97871 C 485.34337,92.880122 485.20872,93.409239 485.81691,98.616188 C 486.17632,101.69318 486.7182,104.85652 487.02109,105.64582 C 487.32397,106.43513 487.07364,107.08093 486.4648,107.08093 C 485.85595,107.08093 485.29118,106.51843 485.20975,105.83093 C 485.12832,105.14343 484.96994,103.90593 484.85781,103.08093 C 484.74568,102.25593 484.5873,99.49591 484.50587,96.947557 C 484.38818,93.264542 483.95742,92.209485 482.40576,91.803715 C 479.5094,91.046301 479.43,92.958183 482.15531,97.83429 C 483.49274,100.22722 486.62307,105.93695 486.32481,106.23521 C 486.02655,106.53347 482.63814,101.585 481.5818,99.525984 L 479.66118,95.782313 L 479.01403,99.829322 C 478.20198,104.90762 479.09814,109.57433 481.22259,111.33029 C 483.01847,112.81467 494.60446,116.5107 500.75401,117.56097 C 509.59567,119.07104 512.7468,124.33515 513.74239,139.25874 C 514.35065,148.37625 514.27136,148.97358 512.37292,149.57612 C 511.26461,149.92789 510.34211,150.74787 510.32292,151.39831 C 510.30373,152.04874 509.6496,156.16428 508.86928,160.54395 C 508.08897,164.92362 507.65077,168.70721 507.8955,168.95194 C 508.14023,169.19667 507.9182,169.90569 507.40212,170.52753 C 506.88603,171.14938 506.34653,173.66579 506.20323,176.11954 C 505.97917,179.95627 505.29327,181.21098 501.30437,185.08092 L 496.66604,189.58092 L 497.81542,199.21572 C 498.44758,204.51486 498.71573,209.46486 498.41131,210.21572 C 497.78562,211.75897 497.93855,211.71773 489.83276,212.52883 C 484.44665,213.06778 473.0708,214.49742 464.70631,215.68656 L 461.5548,216.13459 L 461.00768,224.85776 C 460.70675,229.6555 460.01054,236.73092 459.46053,240.58092 C 458.91052,244.43092 458.4374,254.01915 458.40916,261.8881 C 458.36049,275.44944 457.38216,283.42909 455.29148,287.31735 C 453.84551,290.00655 454.1823,294.3163 456.1356,298.11948 C 457.9637,301.67888 459.29522,303.45942 465.39353,310.49929 C 467.33818,312.74419 470.2554,316.38092 471.87625,318.58092 C 473.4971,320.78092 476.06853,323.80325 477.59053,325.29722 C 479.11254,326.79118 480.35781,328.37043 480.35781,328.80667 C 480.35781,329.24291 481.28215,330.17709 482.41191,330.88263 C 484.23015,332.01814 485.32095,331.62385 491.91191,327.44864 C 496.73124,324.39571 499.35781,322.08791 499.35781,320.90638 C 499.35781,319.90238 498.93236,319.08092 498.41238,319.08092 C 497.89239,319.08092 496.87989,318.01862 496.16238,316.72026 C 491.294,307.91077 485.90163,302.20063 478.54756,298.06741 C 476.06129,296.67005 474.72456,295.28876 475.04654,294.4497 C 475.333,293.70319 475.97023,293.34138 476.46259,293.64568 C 478.38806,294.83568 477.22092,291.41285 474.81734,288.8207 C 472.39009,286.20302 472.68109,284.8042 475.14114,287.26425 C 475.79198,287.91509 476.48252,288.25259 476.67569,288.01425 C 477.37987,287.14544 483.24202,271.44547 484.67859,266.58092 C 487.39488,257.38301 494.94538,224.15778 496.09801,216.33092 C 496.36125,214.54342 497.59934,209.74847 497.99184,209.74847 C 499.82286,209.74847 487.10792,266.93675 483.34869,275.58092 C 482.87032,276.68092 481.49296,280.38907 480.2879,283.82125 C 478.43309,289.104 478.30292,290.30986 479.4396,291.67947 C 480.57953,293.053 480.51859,293.49019 479.0361,294.57421 C 477.45847,295.7278 477.73051,296.10929 481.85399,298.52581 C 484.36424,299.99692 488.6956,304.09863 491.47923,307.64074 C 494.26286,311.18284 496.9493,314.08092 497.44909,314.08092 C 497.94889,314.08092 498.35781,314.77004 498.35781,315.6123 C 498.35781,316.45457 499.06629,317.41556 499.9322,317.74784 C 501.00072,318.15787 501.32085,319.09203 500.92853,320.65517 C 500.6106,321.92192 500.80855,323.24146 501.36843,323.58748 C 502.36447,324.20307 506.35781,331.41648 506.35781,332.6001 C 506.35781,332.92947 505.87718,332.90191 505.28974,332.53885 C 503.8114,331.62519 508.86596,341.41411 512.90269,347.28248 C 515.51157,351.07513 520.35781,361.61314 520.35781,363.49343 C 520.35781,363.67905 519.05285,364.09191 517.45791,364.4109 C 515.86296,364.72989 513.27546,366.14143 511.70791,367.54766 C 510.14035,368.95388 507.61798,371.21908 506.10263,372.58142 C 503.06192,375.31511 497.22559,378.0411 493.35781,378.53417 C 491.98281,378.70946 490.85781,378.93862 490.85781,379.04341 C 490.85781,379.1482 490.18281,379.38167 489.35781,379.56223 C 488.53281,379.74279 486.50781,380.2025 484.85781,380.58381 C 478.07987,382.15017 470.1322,382.33321 469.25155,380.94322 C 467.62479,378.3756 468.30198,375.42739 470.7776,374.29942 C 475.34657,372.21766 487.57072,359.73969 489.54257,355.14482 C 491.15173,351.39508 491.25928,350.23467 490.23768,347.64482 C 487.95673,341.86239 482.11989,333.11091 480.97855,333.76211 C 480.36214,334.11381 480.17942,334.04531 480.5725,333.60988 C 481.34818,332.75064 479.99418,330.52271 475.38912,325.08092 C 466.14686,314.15937 456.56968,302.3209 455.56893,300.58092 C 454.47302,298.67549 454.41581,298.69914 454.3591,301.08092 C 454.32636,302.45592 453.36636,306.73092 452.22577,310.58092 C 451.08517,314.43092 450.19602,319.01825 450.24989,320.77499 C 450.30375,322.53173 449.90006,324.24579 449.35281,324.58401 C 448.80556,324.92223 448.35781,326.27084 448.35781,327.58092 C 448.35781,328.891 447.88124,330.25742 447.29876,330.61741 C 446.71628,330.97741 446.36308,332.24146 446.51387,333.42643 C 446.66465,334.6114 444.93001,339.46337 442.65909,344.20858 C 438.63717,352.61263 438.54422,353.0413 439.0725,360.74884 C 439.55944,367.85305 439.3463,369.2291 436.98633,374.21767 C 435.54064,377.2736 434.35781,380.50215 434.35781,381.39223 C 434.35781,382.89605 431.09425,385.46995 430.23929,384.64042 z M 488.36279,378.27978 C 498.02899,376.15163 504.00854,373.61306 505.68744,370.92471 C 506.32075,369.91062 507.25541,369.08092 507.76447,369.08092 C 508.27353,369.08092 509.40278,368.41289 510.27392,367.5964 C 511.14506,366.77992 513.2017,365.02414 514.84423,363.69467 C 517.772,361.32492 517.80337,361.20187 516.44148,357.42918 C 515.67743,355.31264 512.9717,350.20592 510.42875,346.08092 C 505.61382,338.27049 503.33102,333.82684 501.31018,328.33092 C 500.65293,326.54342 499.60726,325.08395 498.98649,325.08766 C 496.78386,325.10081 484.4262,333.74916 485.29911,334.6666 C 487.53733,337.01899 492.35546,347.41761 492.33585,349.85346 C 492.29555,354.85797 488.74022,360.5396 481.39118,367.34368 C 477.38892,371.04916 473.69256,374.08092 473.17706,374.08092 C 472.66155,374.08092 472.48649,374.48011 472.78803,374.96802 C 473.08957,375.45592 472.69248,375.79342 471.90561,375.71802 C 471.11873,375.64261 470.44858,375.91842 470.41637,376.33092 C 470.17681,379.39916 470.64566,379.98874 473.60781,380.34412 C 477.22836,380.77849 476.63871,380.86099 488.36279,378.27978 z M 460.23949,219.2576 C 460.33452,216.58839 460.01336,216.00598 458.60781,216.29858 C 456.7836,216.67834 456.67645,218.24808 458.00834,225.08092 L 458.69057,228.58092 L 459.40588,225.58092 C 459.79929,223.93092 460.17442,221.08542 460.23949,219.2576 z M 444.98569,224.5361 C 452.09154,221.70114 453.15363,220.87206 455.72009,216.15662 C 459.13026,209.89101 460.16195,209.09169 472.35781,203.2661 C 478.31207,200.42193 485.45538,196.05615 488.85781,193.18179 C 492.15781,190.39396 496.56246,186.96431 498.64593,185.56036 C 500.72939,184.1564 502.82378,182.01168 503.30011,180.79431 C 504.19212,178.5146 506.85001,164.3517 508.01425,155.67445 L 508.67255,150.76797 L 505.39018,151.42445 C 503.58488,151.78551 500.13906,152.08092 497.73281,152.08092 L 493.35781,152.08092 L 493.35781,157.94135 C 493.35781,171.69937 493.54392,171.36528 479.0744,183.58092 C 471.90812,189.63092 463.68904,196.60592 460.80978,199.08092 C 457.93052,201.55592 453.47404,204.81786 450.9065,206.32967 C 448.00563,208.03774 446.50866,209.51599 446.95253,210.23418 C 447.41943,210.98964 447.22528,211.11704 446.39194,210.60202 C 444.42515,209.38647 438.35781,216.54234 438.35781,220.07755 C 438.35781,221.66449 438.81515,223.24554 439.37412,223.591 C 439.93309,223.93646 440.13154,224.63802 439.8151,225.15002 C 438.98801,226.48828 440.56047,226.30158 444.98569,224.5361 z M 475.85781,213.0043 C 480.25781,212.43408 486.95521,211.49228 490.74093,210.91142 L 497.62404,209.85531 L 496.99959,203.13641 C 496.65613,199.44102 496.09548,195.01928 495.75369,193.31031 L 495.13225,190.20311 L 487.99503,195.4969 C 484.06956,198.40848 476.80781,202.70744 471.85781,205.05013 C 462.92584,209.27738 458.00659,212.70362 458.86804,214.09747 C 459.35273,214.88172 463.36143,214.62379 475.85781,213.0043 z M 437.35781,150.08092 C 437.35781,148.43092 436.98575,147.08092 436.531,147.08092 C 436.07626,147.08092 435.90233,148.43092 436.1445,150.08092 C 436.38667,151.73092 436.75873,153.08092 436.97131,153.08092 C 437.18388,153.08092 437.35781,151.73092 437.35781,150.08092 z M 471.28335,119.85562 C 473.16739,119.2805 476.20354,117.44984 478.03035,115.78749 C 481.2679,112.84139 481.30136,112.72969 479.35481,111.36627 C 477.65833,110.17801 477.35781,108.83012 477.35781,102.40921 L 477.35781,94.850906 L 474.60781,96.665678 C 469.93085,99.752082 462.13952,103.24209 458.66881,103.80531 C 455.64254,104.29641 455.35781,104.6483 455.35781,107.89732 C 455.35781,110.11783 454.57949,112.28051 453.28411,113.65937 L 451.21042,115.86672 L 454.53411,118.38337 C 459.4202,122.08305 462.96558,122.39469 471.28335,119.85562 z M 487.80017,90.174185 C 488.10839,89.675477 487.45995,89.502961 486.35919,89.790816 C 484.0242,90.401429 483.72904,91.080926 485.79879,91.080926 C 486.59133,91.080926 487.49195,90.672892 487.80017,90.174185 z M 499.2005,84.780761 C 498.43303,84.013289 496.02385,81.049636 493.84678,78.194865 L 489.88846,73.004371 L 489.1562,75.742382 C 488.75346,77.248288 488.5775,78.633945 488.76517,78.82162 C 490.59835,80.654803 499.80709,86.964983 500.14948,86.622589 C 500.39501,86.377055 499.96797,85.548233 499.2005,84.780761 z M 504.85781,69.166414 C 510.7508,68.295076 509.70093,67.727363 498.60781,65.786724 L 490.35781,64.343463 L 490.35781,66.545528 C 490.35781,67.756663 490.65781,69.047593 491.02448,69.414259 C 491.86037,70.25015 498.30984,70.134598 504.85781,69.166414 z M 465.10781,73.3916 C 462.27285,72.650747 463.10375,70.381738 466.45549,69.71139 C 469.17792,69.166903 474.35781,69.754324 474.35781,70.607547 C 474.35781,73.697807 470.6035,74.827774 465.10781,73.3916 z M 486.70354,53.237988 C 487.60529,49.670279 491.47749,42.157911 497.28769,34.671272 C 500.07626,31.078118 502.35781,27.914487 502.35781,27.64098 C 502.35781,26.493253 498.3746,28.861562 489.52692,35.269876 C 484.35487,39.015953 479.57942,42.080926 478.91482,42.080926 C 477.44092,42.080926 474.17225,37.41049 473.55174,36.553661 C 466.4796,26.788142 474.83322,37.157553 475.7454,38.549718 C 476.65759,39.941882 477.8545,41.080926 478.40522,41.080926 C 478.95594,41.080926 481.98306,39.253125 485.13217,37.019147 C 506.27988,22.016927 508.54052,21.894785 497.4588,36.353138 C 494.77599,39.853406 491.39261,44.936586 489.94018,47.649094 C 488.48775,50.361602 486.356,54.612988 486.70354,53.237988 z M 458.44606,45.659301 C 452.37199,40.264673 453.0579,39.420433 459.22563,44.699777 C 461.55092,46.690146 463.63779,48.134277 463.86311,47.908959 C 464.08843,47.683641 463.66347,43.242658 462.91875,38.040108 C 460.35955,20.161582 460.29173,19.118339 461.72443,19.668119 C 463.04955,20.176615 472.27203,33.070148 472.26506,34.68042 C 472.26301,35.155535 466.36487,28.005926 465.16041,26.080926 C 462.15519,21.277898 461.90231,23.374828 463.82465,37.157378 C 464.75546,43.831017 465.03124,48.807499 464.49971,49.339028 C 463.96818,49.870558 461.49512,48.367305 458.44606,45.659301 z "
       id="path3532"
       sodipodi:nodetypes="cssssssssssssssssssssssssscccssssssssssssssssssssssscccssssssssssssssssssssscccssssssssssssssccccccssssssssssssssssssscccssssssssssssssssssssssscccsssssccsssssssssssssssssssssssssssssssssscccssssssssscccsscccsssssssssssssssssssssssssssssssssssssssssssssssssssssssssssssssccssssssssssssssssccscccccsssssccccccssssssssccccccccssccsssccsscccsscccccsscccccsscccccsccssccssssssssssccssssssssc" />
    <rect
       style="opacity:1;fill:#ffffff;fill-opacity:1;stroke:#999999;stroke-width:2;stroke-miterlimit:1;stroke-dasharray:none;stroke-opacity:0"
       id="rect3567"
       width="93.550766"
       height="36.985188"
       x="429.108"
       y="12.041883" />
    <rect
       style="opacity:1;fill:#ffffff;fill-opacity:1;stroke:#999999;stroke-width:2;stroke-miterlimit:1;stroke-dasharray:none;stroke-opacity:0"
       id="rect3569"
       width="56.565578"
       height="73.970375"
       x="490.74994"
       y="30.897076" />
    <path
       sodipodi:nodetypes="cccccccccccccccccccccccc"
       id="path3563"
       d="M 449.76213,51.098605 L 439.86264,29.355066 L 463.19716,50.745045 L 461.25262,22.814329 L 476.27864,47.563065 L 501.20415,29.885396 L 487.76912,55.341245 L 515.34629,48.623725 L 491.48143,64.003295 L 516.58372,71.427925 L 493.77953,75.493785 L 504.91646,94.232118 L 488.12267,87.691375 L 484.94069,108.90458 L 475.57153,96.353438 L 478.0685,89.050345 L 485.86877,84.752465 L 489.60318,77.449385 L 488.91817,64.135885 L 480.87483,52.954755 L 470.71017,53.617675 L 455.41899,60.114215 L 450.29246,52.689595 L 449.76213,51.098605 z "
       style="fill:url(#linearGradient3565);fill-opacity:1;fill-rule:evenodd;stroke:#000000;stroke-width:1px;stroke-linecap:butt;stroke-linejoin:miter;stroke-opacity:1;display:inline" />
    <path
       id="path3581"
       d="M 463.63649,70.515076 C 463.95695,70.504606 464.73308,70.320336 465.22748,70.073136 C 465.81873,69.777506 466.15758,69.409816 466.81847,69.277646 C 467.27818,69.185696 467.62869,69.100866 468.14429,69.100866 C 468.63202,69.100866 469.02853,69.167246 469.47012,69.277646 C 469.93749,69.394486 470.35267,69.520376 470.79594,69.631196 C 471.30893,69.759446 471.81063,69.951156 472.29854,70.073136 C 472.71745,70.177866 473.22779,70.062386 473.62437,70.161526 C 473.99318,70.253726 474.9806,70.057936 474.24309,70.426686 C 473.80042,70.648026 473.31186,71.269526 473.00565,71.575736 C 472.64312,71.938276 471.96228,71.991266 471.50305,72.106066 C 470.96486,72.240616 470.46651,72.321006 469.91206,72.459626 C 469.38143,72.592276 468.88695,72.636396 468.32107,72.636396 C 467.84966,72.636396 467.37826,72.636396 466.90685,72.636396 C 466.38914,72.636396 465.48804,72.147966 465.0507,71.929296 C 464.55481,71.681346 464.09911,71.303996 463.63649,70.957016 C 463.51863,70.868636 463.63649,70.662396 463.63649,70.515076 z "
       style="fill:#000000;fill-opacity:1;fill-rule:evenodd;stroke:#000000;stroke-width:1px;stroke-linecap:butt;stroke-linejoin:miter;stroke-opacity:1;display:inline" />
    <path
       id="path3583"
       d="M 467.87913,68.747316 C 467.87166,68.741706 468.0559,67.718786 468.0559,67.333096 C 468.0559,66.773586 468.19608,66.330456 468.32107,65.830496 C 468.43714,65.366216 468.39012,64.847186 468.49784,64.416286 C 468.70709,63.579286 468.57603,62.990156 468.8514,64.504676 C 468.95337,65.065526 468.98664,65.664356 469.11656,66.184046 C 469.23495,66.657576 469.37342,67.026376 469.47012,67.509876 C 469.56996,68.009086 469.5585,68.497406 469.5585,69.012476 C 469.5585,69.460386 469.58486,68.907066 469.47012,69.366026"
       style="fill:#000000;fill-opacity:1;fill-rule:evenodd;stroke:#000000;stroke-width:1px;stroke-linecap:butt;stroke-linejoin:miter;stroke-opacity:1;display:inline" />
    <path
       id="path3585"
       d="M 467.61396,72.989956 C 467.61396,73.483836 467.93612,73.925026 468.0559,74.404166 C 468.17187,74.868056 468.14163,75.363146 468.23268,75.818376 C 468.3179,76.244466 468.32107,76.676216 468.32107,77.144206 C 468.32107,77.474376 468.33803,77.742396 468.40946,78.028086 C 468.40946,79.939336 468.56379,76.173326 468.76301,75.376436 C 468.7773,75.319276 468.76301,75.258586 468.76301,75.199666 C 468.76301,74.653936 468.98364,74.051306 469.20495,73.608666 C 469.40649,73.205596 469.64689,72.819536 469.64689,72.459626"
       style="fill:#000000;fill-opacity:1;fill-rule:evenodd;stroke:#000000;stroke-width:1px;stroke-linecap:butt;stroke-linejoin:miter;stroke-opacity:1;display:inline" />
    <path
       id="path3587"
       d="M 446.48915,70.780246 C 446.4899,70.778736 447.53052,70.419056 447.99175,70.073136 C 448.5948,69.620846 449.02761,69.195456 449.75951,69.012476 C 450.17557,68.908466 450.74218,69.012476 451.17373,69.012476 C 451.57924,69.012476 452.06077,68.924086 452.49955,68.924086 C 452.88226,68.924086 453.46385,69.187256 453.82538,69.277646 C 454.449,69.433546 454.97683,69.853966 455.50476,70.249916 C 455.99063,70.614316 457.08579,70.672246 456.30025,70.868636 C 455.82583,70.987236 455.39194,71.121006 454.88604,71.222186 C 454.41577,71.316236 453.92998,71.651966 453.56021,71.929296 C 453.10148,72.273346 452.43669,72.409046 451.88084,72.548006 C 451.38508,72.671946 450.81383,72.636396 450.28985,72.636396 C 449.74705,72.636396 449.3777,72.408366 448.87563,72.282846 C 448.26557,72.130326 447.65305,71.494776 447.10786,71.222186 C 446.76235,71.049426 446.98253,71.174956 446.48915,70.780246 z "
       style="fill:#000000;fill-opacity:1;fill-rule:evenodd;stroke:#000000;stroke-width:1px;stroke-linecap:butt;stroke-linejoin:miter;stroke-opacity:1;display:inline" />
    <path
       id="path3589"
       d="M 454.00216,69.012476 C 453.40065,68.711726 455.1175,68.203306 455.76992,68.040206 C 456.59252,67.834556 457.64908,67.227456 458.33318,66.714376 C 459.48143,65.853196 458.27941,67.121706 457.89124,67.509876 C 457.41052,67.990596 456.92449,68.433816 456.38864,68.835696 C 456.10036,69.051906 455.84874,69.375596 455.59315,69.631196"
       style="fill:#000000;fill-opacity:1;fill-rule:evenodd;stroke:#000000;stroke-width:1px;stroke-linecap:butt;stroke-linejoin:miter;stroke-opacity:1;display:inline" />
    <path
       id="path3591"
       d="M 447.99175,70.073136 C 447.49175,70.448136 447.87817,68.823316 447.72658,68.216986 C 447.60053,67.712776 447.32584,67.238716 447.10786,66.802766 C 446.76031,66.107666 446.66458,65.825126 446.48915,65.123386 C 446.31859,64.441156 447.10743,66.272006 447.81497,66.979546 C 448.27731,67.441886 448.54699,68.456446 448.96402,69.012476 C 449.05638,69.135616 449.20606,69.254516 449.31757,69.366026"
       style="fill:#000000;fill-opacity:1;fill-rule:evenodd;stroke:#000000;stroke-width:1px;stroke-linecap:butt;stroke-linejoin:miter;stroke-opacity:1;display:inline" />
    <path
       id="path3593"
       d="M 448.78724,72.636396 C 449.15889,73.131936 448.14198,73.714856 447.99175,74.315776 C 447.87324,74.789826 447.81497,75.231166 447.81497,75.729996 C 447.81497,76.026086 447.83155,76.326616 447.90336,76.613876 C 448.05728,77.229576 448.1617,75.294876 448.61047,74.846106 C 449.03256,74.424016 449.43719,74.107766 449.8479,73.697056 C 450.05534,73.489626 450.16984,73.229956 450.28985,72.989956"
       style="fill:#000000;fill-opacity:1;fill-rule:evenodd;stroke:#000000;stroke-width:1px;stroke-linecap:butt;stroke-linejoin:miter;stroke-opacity:1;display:inline" />
    <path
       id="path3595"
       d="M 452.9415,72.282846 C 453.01445,72.209886 454.01877,73.094946 454.35571,73.431896 C 454.79091,73.867086 455.16382,74.391526 455.50476,74.846106 C 455.69794,75.103686 456.42714,76.387206 455.85831,75.818376 C 455.52626,75.486336 455.52731,74.582746 455.41637,74.139006 C 455.29443,73.651246 455.35974,73.116996 455.23959,72.636396 C 455.12891,72.193656 454.88277,71.838456 454.53249,71.575736"
       style="fill:#000000;fill-opacity:1;fill-rule:evenodd;stroke:#000000;stroke-width:1px;stroke-linecap:butt;stroke-linejoin:miter;stroke-opacity:1;display:inline" />
    <path
       id="path3597"
       d="M 458.28354,87.315427 C 458.28136,87.313257 457.02374,87.204887 456.69255,87.138647 C 456.18456,87.03705 455.74985,86.4907 455.5435,86.07799 C 455.30731,85.60561 455.32246,85.0172 455.10156,84.57539 C 454.64072,83.65372 455.05549,84.56293 455.5435,84.92894 C 456.0447,85.30484 456.55007,85.29965 457.0461,85.54766 C 457.63853,85.84388 457.73896,86.11793 458.10676,86.60832 C 458.1584,86.67718 458.26912,87.257747 458.28354,87.315427 z "
       style="fill:#000000;fill-opacity:1;fill-rule:evenodd;stroke:#000000;stroke-width:1px;stroke-linecap:butt;stroke-linejoin:miter;stroke-opacity:1;display:inline" />
    <path
       id="path3599"
       d="M 461.46552,86.87349 C 461.81373,87.337767 461.76225,85.69287 462.17262,85.2825 C 462.67859,84.77653 462.83309,84.47656 463.49845,84.31022 C 463.91462,84.20618 464.31523,84.57965 464.73589,84.66378 C 464.77053,84.67071 463.84137,85.39214 463.32167,86.43155 C 463.00555,87.06379 462.44663,87.227037 461.81907,87.227037 C 461.6524,87.227037 461.58337,86.99134 461.46552,86.87349 z "
       style="fill:#000000;fill-opacity:1;fill-rule:evenodd;stroke:#000000;stroke-width:1px;stroke-linecap:butt;stroke-linejoin:miter;stroke-opacity:1;display:inline" />
    <path
       id="path3601"
       d="M 449.94375,90.795921 C 449.41543,90.584591 450.98271,91.276631 451.53474,91.414641 C 452.10925,91.558261 452.59326,91.750081 453.12573,91.856581 C 453.56872,91.945181 454.03558,91.840971 454.45155,91.944971 C 454.98546,92.078441 455.59118,91.817091 456.04254,91.591411 C 456.61909,91.303141 457.1202,91.052591 457.63353,90.795921 C 457.99785,90.613761 458.71166,90.888671 459.04775,90.972691 C 459.49219,91.083801 459.93174,91.171541 460.37357,91.061081 C 460.83869,90.944801 461.25356,90.818991 461.6994,90.707531 C 462.27452,90.563751 462.68393,90.719781 463.11361,91.149471 C 463.51073,91.546591 463.9792,91.768191 464.52783,91.768191 C 464.98542,91.768191 465.37301,91.856581 465.85365,91.856581 C 466.39896,91.856581 466.77542,91.802911 467.26786,91.679801 C 467.83445,91.538151 468.2739,91.220981 468.77047,90.972691 C 469.33341,90.691221 469.78571,90.532381 470.18468,90.000421 C 470.46972,89.620361 470.96123,89.408541 471.42212,89.293321 C 471.98947,89.151481 470.53461,90.096061 470.27307,90.619141 C 470.00879,91.147691 469.65741,91.499961 469.21241,91.944971 C 468.86863,92.288751 468.22284,92.545911 467.79819,92.652071 C 467.09746,92.827261 466.30511,93.160921 465.58849,93.447571 C 465.09913,93.643311 464.56532,93.769651 464.08588,93.889511 C 463.58796,94.013991 463.06262,94.034841 462.58328,94.154671 C 461.99295,94.302261 461.43171,94.419841 460.81551,94.419841 C 460.23451,94.419841 459.57376,94.508231 458.95936,94.508231 C 458.31118,94.508231 457.663,94.508231 457.01482,94.508231 C 456.47676,94.508231 455.93196,94.546871 455.42383,94.419841 C 454.95403,94.302391 454.44292,94.106161 454.00961,93.889511 C 453.89176,93.830581 453.77391,93.771661 453.65606,93.712731 C 453.00237,93.385891 452.33222,93.139201 451.71152,92.828851 C 451.17461,92.560401 450.53011,91.647451 450.12052,91.237861 C 450.00833,91.125671 450.00267,90.943231 449.94375,90.795921 z "
       style="fill:#000000;fill-opacity:1;fill-rule:evenodd;stroke:#000000;stroke-width:1px;stroke-linecap:butt;stroke-linejoin:miter;stroke-opacity:1;display:inline" />
  </g>
</svg>
