<?xml version="1.0" encoding="UTF-8" standalone="no"?>
<!-- Created with Inkscape (http://www.inkscape.org/) -->
<svg
   xmlns:dc="http://purl.org/dc/elements/1.1/"
   xmlns:cc="http://web.resource.org/cc/"
   xmlns:rdf="http://www.w3.org/1999/02/22-rdf-syntax-ns#"
   xmlns:svg="http://www.w3.org/2000/svg"
   xmlns="http://www.w3.org/2000/svg"
   xmlns:sodipodi="http://sodipodi.sourceforge.net/DTD/sodipodi-0.dtd"
   xmlns:inkscape="http://www.inkscape.org/namespaces/inkscape"
   width="210mm"
   height="297mm"
   id="svg4907"
   sodipodi:version="0.32"
   inkscape:version="0.45.1"
   sodipodi:docbase="/home/rover/Desktop/tmp2"
   sodipodi:docname="hombre-4.svg"
   inkscape:output_extension="org.inkscape.output.svg.inkscape">
  <defs
     id="defs4909" />
  <sodipodi:namedview
     id="base"
     pagecolor="#ffffff"
     bordercolor="#666666"
     borderopacity="1.0"
     inkscape:pageopacity="0.0"
     inkscape:pageshadow="2"
     inkscape:zoom="3.2817465"
     inkscape:cx="74.079904"
     inkscape:cy="704.90926"
     inkscape:document-units="px"
     inkscape:current-layer="layer1"
     inkscape:window-width="1022"
     inkscape:window-height="713"
     inkscape:window-x="0"
     inkscape:window-y="0" />
  <metadata
     id="metadata4912">
    <rdf:RDF>
      <cc:Work
         rdf:about="">
        <dc:format>image/svg+xml</dc:format>
        <dc:type
           rdf:resource="http://purl.org/dc/dcmitype/StillImage" />
      </cc:Work>
    </rdf:RDF>
  </metadata>
  <g
     inkscape:label="Capa 1"
     inkscape:groupmode="layer"
     id="layer1">
    <path
       style="fill:#000000"
       d="M 134.87471,578.55907 C 129.89506,577.62758 125.32481,576.55891 124.71859,576.18425 C 122.53404,574.83412 124.58846,571.77373 128.45752,570.61453 C 130.65761,569.95536 133.53072,568.00631 135.12588,566.09085 C 136.66739,564.23981 140.17862,561.05026 142.92862,559.00296 C 145.67862,556.95565 148.37862,554.72959 148.92862,554.05616 C 149.47862,553.38272 152.32524,550.79828 153.70024,550.0892 C 155.07524,549.38011 151.65415,553.34738 147.65203,557.12913 C 142.31301,562.17416 140.61802,564.37038 141.28647,565.37707 C 142.03898,566.51037 143.04408,566.53655 147.06306,565.52753 C 150.60488,564.6383 153.83306,564.57318 158.92862,565.28818 L 165.92862,566.27039 L 169.95059,563.00762 C 172.42841,560.99752 174.05092,558.79803 174.17666,557.27872 C 174.29918,555.79836 171.81583,550.31746 167.96399,543.56702 C 164.43476,537.38196 161.22536,530.90026 160.83199,529.16325 C 159.90668,525.07734 159.74464,518.50489 160.56921,518.50497 C 161.83236,518.50511 162.08602,510.96417 160.88878,509.00504 C 160.21656,507.90504 159.40473,505.88004 159.08472,504.50504 C 158.76471,503.13004 157.59059,501.44148 156.47556,500.75269 C 154.68997,499.64967 153.79172,500.00738 148.94224,503.75269 C 144.11464,507.48111 143.43577,508.43966 143.43243,511.53253 C 143.43034,513.47266 142.8005,515.9568 142.03279,517.05286 C 140.78101,518.84003 141.1164,520.02895 145.28279,528.57357 C 150.46495,539.2014 154.7866,550.78714 153.7207,550.75136 C 152.97116,550.7262 148.68798,540.79141 144.73673,531.00504 C 140.03505,519.36003 140.7045,519.82328 135.66457,524.72726 C 130.6319,529.62419 129.37013,531.77577 125.91677,541.34928 C 123.99275,546.68311 123.42862,550.19885 123.42862,556.85579 C 123.42862,562.4164 122.86178,566.88126 121.8277,569.46567 C 119.52987,575.20851 116.89929,575.67789 100.18554,573.3273 C 88.144982,571.63395 85.871538,570.9966 80.500721,567.8088 C 74.93657,564.50625 74.428623,563.91547 74.428623,560.74649 C 74.428623,557.6631 74.672525,557.34812 76.678623,557.84072 C 84.254765,559.70107 89.252865,559.64109 95.977712,557.60911 C 99.800713,556.45395 103.4149,555.17047 104.00923,554.75693 C 106.23199,553.21033 111.24339,532.2022 111.82206,522.00504 C 112.10111,517.08761 114.00589,508.43268 115.0381,503.7367 C 116.07031,499.04073 117.28969,495.31718 118.31743,494.28944 C 118.89338,493.71348 117.39284,499.10344 116.27811,502.61691 C 115.07891,506.39665 113.91679,513.90487 113.43201,521.00504 C 112.97446,527.70649 111.67619,536.31663 110.49174,540.50504 C 109.32521,544.63004 108.10197,549.45491 107.77342,551.22697 C 107.3035,553.76151 106.29115,554.87727 103.02834,556.45677 C 100.7471,557.5611 97.419567,558.75685 95.633819,559.114 C 92.018959,559.83697 90.305558,561.4877 93.119606,561.53625 C 95.533072,561.57789 101.48869,565.31411 106.43159,569.88746 C 109.96743,573.15894 110.94392,573.55862 114.57433,573.22026 C 120.44155,572.67343 121.9442,569.58145 121.65936,558.64152 C 121.46958,551.35218 121.89495,548.95124 124.97125,539.94797 C 128.23199,530.40496 128.98586,529.13298 134.86631,523.25254 C 141.15517,516.96368 141.23591,516.81265 141.58017,510.69426 C 141.77182,507.28819 141.69173,504.50222 141.4022,504.50322 C 141.11266,504.50422 141.03449,502.81754 141.22849,500.75504 L 141.58121,497.00504 L 131.5441,496.89572 C 123.86587,496.8121 120.88895,496.38145 118.8772,495.0633 L 116.2474,493.34019 L 116.95531,482.67262 C 117.34466,476.80545 118.04973,471.52183 118.52213,470.93125 C 118.99453,470.34066 118.99924,469.44066 118.5326,468.93125 C 115.99161,466.15736 110.46257,432.81179 110.0056,417.50504 C 109.80035,410.63004 109.22174,403.88004 108.71981,402.50504 C 108.21787,401.13004 107.85939,399.55504 107.92317,399.00504 C 107.98695,398.45504 108.39203,394.18004 108.82334,389.50504 C 109.25464,384.83004 109.76161,379.68591 109.94994,378.07363 C 110.1851,376.06028 109.39049,373.86801 107.41269,371.07363 C 105.82888,368.83591 104.21336,365.65504 103.82264,364.00504 C 103.43193,362.35504 102.43921,359.96588 101.61661,358.6958 C 100.13423,356.40703 100.09204,356.4407 96.858844,362.49206 C 95.064678,365.85009 93.066717,369.23618 92.418932,370.01672 C 91.668689,370.9207 91.486322,372.88708 91.916554,375.4336 C 93.169912,382.85217 88.952651,393.77615 80.635253,404.65559 C 75.408073,411.49292 73.428623,415.97074 73.428623,420.9581 C 73.428623,423.21366 72.488823,426.20867 70.131016,428.49394 C 66.35792,432.15097 58.005861,431.03575 62.738656,430.12005 C 65.447826,429.59588 69.2178,425.55255 68.937769,425.18085 C 68.657739,424.80916 68.724719,424.72614 69.086614,424.99636 C 70.450924,426.0151 72.428835,423.14136 72.4342,420.1326 C 72.442511,415.47151 74.175165,410.10012 76.541364,407.4 C 80.580124,402.7913 84.635907,396.32459 87.647145,389.69249 C 90.466723,383.48251 90.642871,382.42568 90.114296,374.89037 C 89.480368,365.85316 90.423883,359.18607 91.442492,365.50504 L 92.006688,369.00504 L 95.811507,361.00504 C 99.123845,354.04053 99.642482,351.96955 99.8184,345.00504 C 99.958214,339.46982 100.58848,335.93589 101.86407,333.53489 C 102.87805,331.62631 105.19585,325.84606 107.01475,320.68989 L 110.32182,311.31503 L 107.62522,311.94101 C 106.14209,312.2853 101.70325,314.13428 97.761124,316.04987 C 91.642135,319.02324 90.286962,320.16622 88.497311,323.86315 C 86.579412,327.825 86.234545,334.64429 87.869405,336.27916 C 88.57133,336.98108 93.428623,333.66335 93.428623,332.48199 C 93.428623,331.94467 94.103623,331.50504 94.928623,331.50504 C 97.494814,331.50504 96.622504,333.01362 90.82448,338.60278 C 82.632568,346.49959 79.509321,354.45889 82.637168,359.46737 C 83.667006,361.1164 83.394107,361.96464 80.791616,365.2038 C 79.111862,367.29448 77.055659,370.35504 76.222276,372.00504 C 74.262513,375.88514 71.110532,389.41821 69.955292,398.91242 C 69.138665,405.62377 67.335994,409.59767 63.258495,413.67517 C 59.533756,417.39991 59.335827,417.90467 59.613599,422.9705 C 59.775146,425.9167 60.198453,428.14729 60.554282,427.92738 C 60.91011,427.70746 61.428243,428.39559 61.705688,429.45654 C 62.132447,431.08846 61.937376,431.2152 60.43903,430.27947 C 59.296265,429.5658 58.457465,427.39638 58.074697,424.1645 C 57.446058,418.85663 59.006178,415.0073 63.396337,411.03426 C 64.514094,410.0227 65.428623,408.58981 65.428623,407.85005 C 65.428623,407.1103 65.878623,406.50504 66.428623,406.50504 C 66.978623,406.50504 67.434535,405.49254 67.44176,404.25504 C 67.448986,403.01754 68.377498,397.73004 69.505122,392.50504 C 70.632745,387.28004 71.819776,380.98004 72.142968,378.50504 C 72.46616,376.03004 73.389401,372.99254 74.194616,371.75504 C 74.999831,370.51754 75.269388,369.49073 74.793633,369.47324 C 74.317877,369.45574 74.802131,368.78074 75.869753,367.97324 C 76.937374,367.16573 77.43013,366.50504 76.964765,366.50504 C 76.499401,366.50504 76.936179,365.60168 77.935384,364.49757 C 79.092257,363.21924 79.697852,361.13076 79.602707,358.74757 C 79.52053,356.68918 80.196274,352.75504 81.104362,350.00504 C 82.012449,347.25504 82.569398,344.91191 82.342026,344.79809 C 82.114655,344.68426 82.815409,343.9427 83.899258,343.15017 C 85.569862,341.9286 85.838064,340.66597 85.660845,334.85712 C 85.545869,331.08848 85.924058,326.56503 86.501266,324.80502 C 87.952901,320.37873 92.822889,316.40542 100.99768,312.97775 C 104.8097,311.37937 108.15362,309.81658 108.42862,309.50487 C 109.24646,308.57786 114.42156,308.43306 114.25936,309.46685 C 113.93965,311.50462 112.65708,309.63812 111.73052,311.22797 C 109.40614,315.21629 105.41832,329.53701 104.18805,331.97631 C 101.35054,337.60238 101.20537,338.45482 101.67676,346.72229 C 101.95193,351.54838 102.73877,356.17382 103.42529,357.00102 C 104.90774,358.78727 108.37708,358.94128 111.8178,357.37358 C 113.21344,356.73768 115.09549,356.5875 116.11485,357.03067 C 117.64623,357.69645 117.46153,357.93204 114.92862,358.54382 C 113.27862,358.94234 110.19234,359.32165 108.07022,359.38673 C 104.37817,359.49994 104.24152,359.62361 104.90093,362.25504 C 105.27995,363.76754 107.08583,367.39738 108.91401,370.32134 C 110.78867,373.31966 112.08839,376.58976 111.89494,377.82134 C 110.39951,387.34135 109.17468,399.58443 109.66831,400.07806 C 112.04901,402.45876 130.90733,403.30914 139.16427,401.40814 C 150.64359,398.76523 157.08356,397.14783 159.16373,396.38524 L 161.39885,395.56586 L 158.56274,387.78545 C 157.00288,383.50622 155.41907,379.30257 155.04315,378.444 C 154.60569,377.44487 155.65104,375.19169 157.94725,372.18444 C 159.9235,369.59622 161.21702,366.97167 160.82722,366.34097 C 160.43296,365.70304 160.55788,365.46689 161.10932,365.8077 C 162.16029,366.45724 166.01227,359.06014 166.01227,356.48946 C 166.01227,355.65066 166.45261,355.23651 166.99081,355.56914 C 168.52364,356.51648 164.03277,367.06178 159.97138,372.01816 L 156.36418,376.42028 L 159.5876,385.71266 C 161.36049,390.82347 163.14971,395.14661 163.56365,395.31965 C 163.97759,395.49268 164.08587,396.23466 163.80427,396.9685 C 163.52267,397.70233 163.72375,398.56941 164.25111,398.89533 C 165.78766,399.84497 164.62118,412.03436 162.39637,418.2767 C 156.18436,435.7063 148.95369,466.92751 149.75152,472.87574 C 150.03945,475.02243 149.85389,477.88648 149.33918,479.2403 C 148.57264,481.25643 149.02928,482.73222 151.8631,487.39718 C 153.76598,490.52965 157.19134,496.98658 159.47502,501.7459 L 163.62717,510.39921 L 162.42763,517.5109 C 161.76788,521.42233 161.50543,526.05864 161.8444,527.81381 C 162.18337,529.56899 165.16619,535.73004 168.47288,541.50504 C 171.77958,547.28004 174.72454,553.13004 175.01724,554.50504 C 175.30994,555.88004 176.03132,557.90504 176.6203,559.00504 C 177.20928,560.10504 177.36121,560.69665 176.95792,560.31973 C 176.55463,559.9428 171.20805,563.56197 165.07664,568.36233 C 147.20203,582.35656 150.04486,581.39677 134.87471,578.55907 z M 157.74988,572.60843 L 164.57114,567.00504 L 157.76927,566.40639 C 151.07067,565.81682 144.23066,566.93507 139.69824,569.36075 C 136.47065,571.0881 136.22801,570.79366 138.02131,567.3258 L 139.66537,564.14655 L 135.29699,567.89514 C 132.89439,569.95686 129.69112,571.89377 128.17862,572.19938 C 126.66612,572.50499 125.42862,573.31524 125.42862,573.99993 C 125.42862,575.18497 130.99142,576.59213 141.42862,578.04729 C 143.90362,578.39236 146.12107,578.86647 146.35629,579.10086 C 147.37642,580.11744 151.39966,577.82487 157.74988,572.60843 z M 102.9132,568.79617 C 96.541324,562.78603 91.480549,561.6338 83.98003,564.48549 C 82.576756,565.01902 81.428623,565.64723 81.428623,565.88151 C 81.428623,566.71404 88.594695,570.52044 89.319137,570.07271 C 89.724473,569.82219 92.238496,570.17396 94.905857,570.85441 C 97.573217,571.53486 101.29567,572.13263 103.17797,572.18279 L 106.60034,572.27399 L 102.9132,568.79617 z M 84.2794,563.40721 C 88.449299,561.95358 88.255793,560.90345 83.678623,560.14689 C 77.31676,559.09534 75.427263,559.34961 75.443936,561.25504 C 75.457022,562.75059 75.600197,562.78694 76.428623,561.50504 C 77.265785,560.20962 77.400086,560.23372 77.41331,561.68172 C 77.421732,562.60389 78.216123,563.56419 79.178623,563.81571 C 80.141123,564.06724 80.973973,564.32524 81.0294,564.38904 C 81.084827,564.45284 82.547327,564.01102 84.2794,563.40721 z M 151.04103,497.86064 C 151.18128,496.54521 150.90826,495.70861 150.43432,496.00152 C 149.96038,496.29443 149.28489,495.62755 148.93323,494.51956 C 148.58157,493.41157 147.665,492.50504 146.89642,492.50504 C 144.68549,492.50504 143.3748,496.02241 143.56659,501.44098 L 143.74338,506.43587 L 147.26471,503.3441 C 149.20144,501.64362 150.90079,499.17607 151.04103,497.86064 z M 140.64419,495.36226 C 142.13776,495.27447 143.2027,494.93318 143.01073,494.60384 C 142.81876,494.2745 143.77045,490.85504 145.1256,487.00504 C 146.72698,482.45549 147.67425,477.37956 147.83158,472.50504 C 148.09961,464.20107 156.37584,428.45753 159.40882,422.50504 C 161.4351,418.52829 163.40587,408.24583 162.85875,404.50504 C 162.20773,400.05384 161.83187,398.57495 161.18794,397.93103 C 160.8404,397.58349 157.48988,398.20306 153.74233,399.30785 C 141.45253,402.93095 134.96278,403.77059 122.64386,403.33138 L 110.75106,402.90735 L 111.12233,415.4562 C 111.5987,431.55773 117.24617,465.50504 119.44844,465.50504 C 119.89086,465.50504 120.54008,463.59254 120.89118,461.25504 C 122.82055,448.4096 124.56674,438.51027 125.44083,435.46249 C 126.81356,430.67604 126.67498,428.50504 124.99672,428.50504 C 123.46676,428.50504 120.58116,424.75333 118.65131,420.25504 C 118.00241,418.74254 117.88153,417.50504 118.38267,417.50504 C 118.88382,417.50504 119.61244,418.50884 120.00183,419.7357 C 121.16196,423.39093 124.67482,427.50504 126.63573,427.50504 C 128.57491,427.50504 128.57356,427.55755 126.3922,437.00504 C 123.39034,450.00611 121.50142,467.50504 123.09988,467.50504 C 123.46908,467.50504 124.59408,466.7603 125.59988,465.85005 C 126.60569,464.93981 127.42862,464.68825 127.42862,465.29104 C 127.42862,465.89382 126.97128,466.66966 126.41231,467.01512 C 125.85334,467.36058 125.69787,468.13167 126.06682,468.72865 C 126.44843,469.34611 126.27608,469.5288 125.66705,469.15239 C 123.89677,468.05831 119.15275,470.34375 119.78329,471.98691 C 120.09018,472.78666 119.91093,473.70696 119.38495,474.03203 C 118.85897,474.35711 118.42862,478.81692 118.42862,483.94274 C 118.42862,493.17985 118.45298,493.27201 121.17862,494.3478 C 124.30652,495.58235 129.30901,496.11683 134.42862,495.76347 C 136.35362,495.6306 139.15063,495.45006 140.64419,495.36226 z M 153.39966,493.46598 C 152.59059,492.95431 152.28234,492.52877 152.71467,492.52035 C 153.147,492.51193 152.3595,490.82558 150.96467,488.77291 C 149.56984,486.72023 148.39691,484.35773 148.35816,483.52291 C 148.3194,482.68808 147.6393,483.77533 146.84681,485.93901 C 145.34449,490.04073 145.98034,491.45336 149.34529,491.48973 C 150.12445,491.49815 150.44784,491.81915 150.06392,492.20307 C 149.68001,492.58699 150.39183,493.45017 151.64575,494.12124 C 154.19358,495.4848 155.70123,494.92154 153.39966,493.46598 z M 89.928623,338.50504 C 90.268542,337.95504 89.845099,337.50504 88.98764,337.50504 C 88.130181,337.50504 87.428623,337.95504 87.428623,338.50504 C 87.428623,339.05504 87.852065,339.50504 88.369606,339.50504 C 88.887147,339.50504 89.588704,339.05504 89.928623,338.50504 z M 192.96002,434.58678 C 196.97891,427.72959 197.1316,426.27267 194.45058,420.36424 C 193.36266,417.96668 191.9367,412.60513 191.94787,411.78013 C 191.95539,411.22456 192.51268,412.28893 193.27628,414.07372 C 194.85036,417.75284 197.30113,424.49324 197.62022,426.41576 C 197.94464,428.37031 191.61632,440.50504 190.2726,440.50504 C 189.84295,440.50504 191.05229,437.84182 192.96002,434.58678 z M 188.53958,436.07262 C 186.90498,431.2637 181.21182,426.08559 182.37286,421.82292 C 184.65739,413.43547 184.06941,410.25999 177.9702,398.04541 C 172.32476,386.73959 172.32098,386.72582 172.50991,378.15384 C 172.65914,371.38318 172.21773,368.25164 170.41482,363.29047 C 169.15854,359.83349 167.63521,356.55504 167.02965,356.00504 C 166.42408,355.45504 165.92862,354.55504 165.92862,354.00504 C 165.92862,351.34276 163.03529,343.50357 162.04866,343.49266 C 159.98077,343.46981 156.30821,336.38885 155.25082,330.38591 C 154.60693,326.73052 154.52135,321.84762 155.02883,317.72098 C 155.48309,314.02721 155.77237,310.2638 155.67169,309.35785 C 155.51875,307.98166 156.0184,307.84849 158.70863,308.54839 C 160.47962,309.00915 165.04914,310.09052 168.86311,310.95145 C 177.54785,312.91187 180.10461,314.57822 182.49045,319.833 C 184.55668,324.38384 185.09113,334.63231 183.48282,338.86248 C 182.77084,340.73513 182.91075,341.66028 184.04876,342.60475 C 187.80743,345.72417 188.71556,349.57756 188.13989,359.96428 C 187.61024,369.5207 187.72672,370.332 190.55449,376.7831 C 192.28576,380.73272 193.53294,385.32295 193.54323,387.7831 C 193.57018,394.22656 192.52882,411.73818 192.09276,412.17423 C 191.21596,413.05103 190.69893,398.92426 191.52801,396.74361 C 193.80563,390.75302 191.86424,381.14581 186.27633,370.75504 C 184.7235,367.86754 183.89752,365.50504 184.44081,365.50504 C 184.98411,365.50504 185.48186,366.06754 185.54693,366.75504 C 185.78606,369.28135 187.19551,361.86439 187.30473,357.50504 C 187.52007,348.90954 185.28885,344.39684 178.02596,338.73844 C 176.42949,337.49467 175.41877,336.18156 175.7799,335.82043 C 176.14103,335.45929 177.47623,336.14059 178.74701,337.33443 C 180.01779,338.52827 181.33364,339.50504 181.67111,339.50504 C 183.01804,339.50504 183.59902,328.38507 182.49179,323.79748 C 180.65637,316.19283 178.85507,314.57097 169.85169,312.41655 C 157.76582,309.52453 157.79875,309.51497 156.6323,316.25504 C 154.92385,326.12701 157.09844,338.35086 161.15466,341.67627 C 162.57859,342.84365 162.70503,342.73176 162.19565,340.75504 C 161.87677,339.51754 161.97495,338.50504 162.41383,338.50504 C 162.85272,338.50504 163.49167,339.74254 163.83373,341.25504 C 164.95193,346.19943 170.82587,361.50504 171.60521,361.50504 C 172.02356,361.50504 172.10683,360.83004 171.79025,360.00504 C 171.47366,359.18004 171.6603,358.50504 172.205,358.50504 C 173.8869,358.50504 174.40078,362.51274 174.41497,375.74034 L 174.42862,388.47564 L 179.36238,397.8788 C 185.48957,409.55648 186.19389,412.94246 183.96789,420.01948 C 182.38047,425.06632 188.00777,429.80979 189.53769,435.07252 C 191.66466,442.38902 190.93507,443.12005 188.53958,436.07262 z M 144.06565,358.72676 C 143.8011,358.2987 146.65148,358.12177 150.39982,358.33357 C 156.29882,358.66689 157.49822,358.43544 159.32181,356.61185 C 160.48055,355.45311 161.42862,353.6316 161.42862,352.56406 C 161.42862,351.49652 161.87862,350.34496 162.42862,350.00504 C 163.72304,349.20504 163.69315,350.44777 162.32344,354.37693 C 161.71559,356.12061 160.39517,357.98776 159.38918,358.52615 C 157.2218,359.68609 144.75939,359.84925 144.06565,358.72676 z M 117.37174,330.66006 C 112.48611,326.70392 110.44775,308.50504 114.89027,308.50504 C 116.59572,308.50504 119.42862,305.19066 119.42862,303.19535 C 119.42862,302.22231 118.29819,301.26726 116.67862,300.872 C 113.56037,300.11098 109.12834,296.62133 108.52665,294.45338 C 108.30557,293.65679 107.62421,290.53004 107.01252,287.50504 C 106.40084,284.48004 105.31593,280.96926 104.60162,279.7033 C 103.61383,277.95265 103.47164,274.29688 104.00777,264.43443 C 104.63019,252.98466 105.00445,251.01731 107.20621,247.6217 C 110.33374,242.79833 114.14349,240.52531 121.76655,238.93452 C 126.99306,237.84385 128.62939,237.91605 134.67869,239.50424 C 142.87581,241.65633 145.82837,244.09547 149.20555,251.50504 C 151.16403,255.80197 151.73602,258.75496 151.82049,265.00504 C 151.92196,272.51245 151.6623,273.54975 147.60333,281.85154 C 143.61253,290.01392 143.30321,291.21256 143.60334,297.35154 C 143.90694,303.56154 144.09338,304.02828 146.40036,304.35365 C 149.32533,304.76618 159.10494,308.97274 156.79987,308.94898 C 153.66798,308.91669 141.90492,304.90274 141.43612,303.48961 C 140.56736,300.87085 141.13298,292.10146 142.37037,289.00504 C 143.02974,287.35504 143.60543,285.78004 143.64969,285.50504 C 143.69394,285.23004 144.27978,284.55504 144.95154,284.00504 C 146.05075,283.10507 146.64542,281.74613 148.88999,275.00504 C 149.25626,273.90504 148.83791,274.24254 147.96034,275.75504 C 146.94798,277.49984 145.55398,278.48187 144.14669,278.44165 L 141.92862,278.37827 L 144.05342,277.52019 C 147.69936,276.04782 149.82874,266.91193 147.0613,264.61515 C 146.0213,263.75202 145.39352,263.8424 144.43886,264.99271 C 143.74854,265.82449 142.71909,266.50504 142.15119,266.50504 C 141.58329,266.50504 141.93314,265.60504 142.92862,264.50504 C 143.92411,263.40504 145.27411,262.50504 145.92862,262.50504 C 148.22938,262.50504 150.21662,265.96158 149.92168,269.45044 C 149.70549,272.00775 149.87093,272.46606 150.56352,271.22848 C 152.89891,267.05536 148.76601,251.26495 143.97385,246.05161 C 135.59818,236.93983 116.43572,238.07385 108.76135,248.13546 C 104.16816,254.15744 104.19624,268.55226 108.80107,268.48973 C 109.42122,268.48131 109.25362,268.0382 108.42862,267.50504 C 107.30382,266.77814 107.80408,266.53567 110.42862,266.53567 C 114.76141,266.53567 117.4188,267.9111 114.93068,268.86588 C 114.01458,269.21742 111.27685,269.50504 108.84684,269.50504 C 104.52245,269.50504 104.42929,269.57406 104.45983,272.75504 C 104.477,274.54254 105.55363,277.73392 106.85234,279.847 C 108.64667,282.76648 109.08944,284.61497 108.69636,287.54557 C 108.25925,290.80444 108.67641,292.03008 111.38788,295.4536 C 114.16642,298.96178 115.1256,299.50504 118.54117,299.50504 C 122.76098,299.50504 133.03101,294.90265 136.45769,291.47597 C 137.5417,290.39196 138.43551,288.26754 138.44394,286.75504 C 138.46074,283.73656 139.95785,280.70093 140.94356,281.68664 C 141.87717,282.62025 139.34087,290.75883 137.51788,292.67913 C 136.64379,293.59989 132.41974,296.18739 128.13112,298.42913 C 123.84248,300.67088 120.81536,302.50504 121.40417,302.50504 C 122.03443,302.50504 121.84689,303.46324 120.94817,304.83487 C 120.10856,306.11627 119.76069,307.50377 120.17512,307.9182 C 120.58955,308.33263 120.47862,308.5386 119.92862,308.37592 C 119.37862,308.21324 117.86093,308.67111 116.55597,309.39341 C 114.30458,310.63957 114.20653,311.10752 114.63738,318.55026 C 115.15726,327.5309 116.31306,329.50504 121.05107,329.50504 C 122.90872,329.50504 124.42862,329.95146 124.42862,330.4971 C 124.42862,332.22353 135.74965,330.99359 138.96494,328.91784 C 144.4003,325.40884 145.33985,324.16758 148.50618,316.31263 C 150.23716,312.01846 152.43123,306.7541 152.84688,306.7541 C 154.20054,306.7541 146.90048,324.37346 144.3803,327.07093 C 140.26685,331.47374 137.17505,332.50504 128.08907,332.50504 C 121.37651,332.50504 119.18409,332.12762 117.37174,330.66006 z M 125.68138,316.25504 C 125.91206,315.56754 126.73706,314.98424 127.51471,314.95881 C 128.29236,314.93338 129.91154,314.37088 131.11288,313.70881 C 132.31422,313.04674 134.78922,312.4943 136.61288,312.48118 C 138.43654,312.46806 141.61612,312.06545 143.67862,311.58649 C 145.74112,311.10754 147.42862,311.06579 147.42862,311.49372 C 147.42862,312.62198 143.59945,313.47471 138.42862,313.49797 C 135.64048,313.51052 132.78738,314.27403 130.92862,315.50504 C 127.5258,317.75864 125.05854,318.11129 125.68138,316.25504 z M 117.67862,313.81571 C 118.64112,313.56419 120.21612,313.56419 121.17862,313.81571 C 122.14112,314.06724 121.35362,314.27304 119.42862,314.27304 C 117.50362,314.27304 116.71612,314.06724 117.67862,313.81571 z M 114.86975,289.07358 C 116.05481,288.11599 118.76185,287.50504 121.81975,287.50504 C 128.63394,287.50504 126.62303,289.25799 118.91516,290.03704 C 113.36636,290.59787 113.07056,290.52742 114.86975,289.07358 z M 135.16501,280.50504 C 137.69177,276.64574 139.42862,275.42364 139.42862,277.50504 C 139.42862,278.05504 139.07565,278.50504 138.64423,278.50504 C 138.21282,278.50504 137.06237,279.85504 136.08769,281.50504 C 135.11302,283.15504 133.91743,284.50504 133.43084,284.50504 C 132.94425,284.50504 133.72463,282.70504 135.16501,280.50504 z M 120.69946,282.90087 C 121.03175,282.56858 121.89425,282.53305 122.61612,282.82193 C 123.41386,283.14115 123.1769,283.37811 122.01196,283.42609 C 120.95779,283.46951 120.36716,283.23316 120.69946,282.90087 z M 123.42862,268.61203 C 123.42862,267.29943 126.07639,266.50504 130.45139,266.50504 C 134.5356,266.50504 136.48791,267.88458 133.84109,268.90026 C 131.40468,269.83519 123.42862,269.61441 123.42862,268.61203 z "
       id="path5018"
       sodipodi:nodetypes="cssssssssscccssssssssssssssssssssssssssssssssssssssssccccccssssssssssssssssssssssscccsscccssssssssssssssssssssssssssssssssssssssssssssssssscccsssssscccssssssscccssssssccccscccssssccssssccccssssssccssscccccssssssscccssssssssssssssssssssccsssssssccsssccsssssccsssssssssssssssssssssssssssssssssssssscccssccssssssccsssssssssssssssssssssscccsssssssssssssssssssssssssssssssssssssccsssssssccssccssccssssccssccssc" />
  </g>
</svg>
