<?xml version="1.0" encoding="UTF-8" standalone="no"?>
<!-- Created with Inkscape (http://www.inkscape.org/) -->
<svg
   xmlns:dc="http://purl.org/dc/elements/1.1/"
   xmlns:cc="http://web.resource.org/cc/"
   xmlns:rdf="http://www.w3.org/1999/02/22-rdf-syntax-ns#"
   xmlns:svg="http://www.w3.org/2000/svg"
   xmlns="http://www.w3.org/2000/svg"
   xmlns:sodipodi="http://sodipodi.sourceforge.net/DTD/sodipodi-0.dtd"
   xmlns:inkscape="http://www.inkscape.org/namespaces/inkscape"
   width="1052.3622"
   height="744.09448"
   id="svg3054"
   sodipodi:version="0.32"
   inkscape:version="0.45.1"
   version="1.0"
   sodipodi:docbase="/home/flecox/pyweek/herobot/arte"
   sodipodi:docname="mujer-5.svg"
   inkscape:output_extension="org.inkscape.output.svg.inkscape">
  <defs
     id="defs3056" />
  <sodipodi:namedview
     id="base"
     pagecolor="#ffffff"
     bordercolor="#666666"
     borderopacity="1.0"
     gridtolerance="10000"
     guidetolerance="10"
     objecttolerance="10"
     inkscape:pageopacity="0.0"
     inkscape:pageshadow="2"
     inkscape:zoom="0.49497475"
     inkscape:cx="167.16924"
     inkscape:cy="529.5939"
     inkscape:document-units="px"
     inkscape:current-layer="layer1"
     width="1052.3622px"
     height="744.09448px"
     inkscape:window-width="1280"
     inkscape:window-height="740"
     inkscape:window-x="0"
     inkscape:window-y="0" />
  <metadata
     id="metadata3059">
    <rdf:RDF>
      <cc:Work
         rdf:about="">
        <dc:format>image/svg+xml</dc:format>
        <dc:type
           rdf:resource="http://purl.org/dc/dcmitype/StillImage" />
      </cc:Work>
    </rdf:RDF>
  </metadata>
  <g
     inkscape:label="Layer 1"
     inkscape:groupmode="layer"
     id="layer1">
    <path
       style="fill:#000000"
       d="M 199.87031,498.43519 C 198.32213,496.17214 196.38046,493.59402 195.55545,492.70605 C 194.20591,491.2535 194.45669,490.73578 198.05545,487.5448 C 200.25546,485.59409 203.74295,483.22949 205.80545,482.29012 C 207.86795,481.35076 209.55545,480.09835 209.55545,479.50699 C 209.55545,478.91563 210.00546,478.70991 210.55545,479.04983 C 211.10545,479.38975 211.55545,479.15916 211.55545,478.53742 C 211.55545,477.91567 212.23045,476.73197 213.05545,475.90697 C 213.88045,475.08197 214.59246,473.20162 214.63769,471.7284 C 214.68292,470.25519 214.93032,467.76002 215.18747,466.18358 C 215.47455,464.42364 215.05577,462.65517 214.10251,461.60183 C 211.90455,459.17311 212.43475,454.98453 214.96426,454.79399 C 216.06718,454.71091 218.86284,453.30843 221.17684,451.67738 C 223.49085,450.04632 225.65557,448.98328 225.98736,449.31508 C 227.1361,450.46381 220.20312,456.54983 217.74578,456.54983 C 215.54861,456.54983 215.38911,456.84582 215.99436,459.79983 C 217.01654,464.78855 216.58201,472.55051 215.07923,476.14719 C 214.33477,477.92892 213.92325,479.58428 214.16473,479.82577 C 214.9591,480.62015 212.13636,482.25824 207.05545,483.95138 C 201.66835,485.74656 196.82375,489.15146 197.99298,490.32068 C 198.38944,490.71715 202.84068,490.92346 207.88463,490.77914 C 217.52107,490.50343 226.32913,488.3032 227.23376,485.94578 C 227.52837,485.17801 228.38045,484.54983 229.12726,484.54983 C 230.7541,484.54983 232.55545,481.46147 232.55545,478.67228 C 232.55545,477.5673 233.4526,476.03486 234.54909,475.26684 C 235.64559,474.49882 236.20809,473.5016 235.79909,473.05081 C 235.3901,472.60001 235.84295,472.51375 236.80545,472.85912 C 237.93828,473.2656 238.55545,472.99289 238.55545,472.08583 C 238.55545,471.31516 239.45546,470.39896 240.55545,470.04983 C 241.65545,469.7007 242.55545,468.99538 242.55545,468.48244 C 242.55545,467.96951 243.42294,467.54983 244.4832,467.54983 C 246.22328,467.54983 246.36064,466.99005 245.89415,461.79983 C 245.11508,453.1319 243.9057,450.32486 239.65629,447.32144 C 235.2694,444.22083 232.47767,438.86481 230.6538,430.04983 C 229.34545,423.7265 225.67145,409.46133 222.54093,398.54983 C 221.51526,394.97483 219.61331,388.1267 218.31437,383.33177 C 217.01543,378.53684 215.66992,374.33096 215.32433,373.98538 C 214.97876,373.6398 212.75188,374.68714 210.37573,376.31281 C 203.81698,380.80005 199.96192,382.54983 196.63452,382.54983 C 193.66772,382.54983 193.62332,382.47461 194.12572,378.29983 C 194.40703,375.96233 194.8832,372.92483 195.18386,371.54983 C 195.48452,370.17483 196.11995,365.67483 196.59592,361.54983 C 197.0719,357.42483 197.73783,352.02483 198.07579,349.54983 C 198.41463,347.06848 200.91202,340.85948 203.64305,335.70864 C 206.36709,330.57099 208.73254,325.62099 208.89963,324.70864 C 209.06672,323.7963 209.88388,321.47483 210.71555,319.54983 C 211.54721,317.62483 213.70546,311.77483 215.51162,306.54983 C 217.31779,301.32483 219.42209,295.62013 220.18784,293.87272 C 220.95359,292.12532 221.68706,288.75172 221.81778,286.37585 L 222.05545,282.05609 L 217.05545,280.78414 C 214.30545,280.08458 206.94958,279.29542 200.70906,279.03046 C 194.46854,278.7655 189.01539,278.33409 188.59094,278.07176 C 187.72056,277.53384 186.1715,284.95207 184.52357,297.54983 C 183.07925,308.59104 181.87006,315.22997 179.51484,325.04983 C 177.77185,332.31707 175.10743,347.47364 174.19445,355.31491 C 173.99596,357.0197 172.42098,360.54711 170.6945,363.15362 C 168.37281,366.65874 167.55545,369.03517 167.55545,372.28029 C 167.55545,374.9168 167.94998,376.42403 168.544,376.05691 C 169.0894,375.71983 169.29005,376.07788 168.9916,376.85564 C 168.34122,378.5505 178.7872,382.0268 188.05545,383.19987 C 191.35545,383.61754 196.1126,381.54024 196.66259,381.6392 C 197.21259,381.73816 196.89541,384.37104 197.92203,384.43448 C 199.44357,384.52851 199.66272,385.05818 199.10759,387.29983 C 198.73304,388.81233 198.35914,390.8159 198.27672,391.75221 C 198.19431,392.68852 197.92214,393.24985 197.67191,392.99961 C 197.42166,392.74937 195.75242,395.12854 193.96246,398.28666 C 191.66669,402.33719 191.00587,404.38762 191.71919,405.24712 C 192.27535,405.91726 194.45926,409.74702 196.57229,413.75769 C 198.68533,417.76837 200.82217,420.96193 201.3208,420.8545 C 201.81945,420.74707 202.14969,421.96573 202.0547,423.56262 C 201.95969,425.15952 202.2585,426.23336 202.71872,425.94893 C 203.17892,425.66451 203.55545,425.90835 203.55545,426.49081 C 203.55545,427.07327 203.57963,427.88733 203.60919,428.29983 C 203.79054,430.83051 216.06108,450.71087 216.91479,449.85715 C 217.26716,449.50479 218.98402,451.62007 218.98402,452.81173 C 218.98402,456.0456 215.9988,454.00388 214.11146,450.02662 C 213.1346,447.96804 211.98373,446.78514 211.34302,447.18113 C 210.73461,447.55714 210.52788,447.40345 210.87866,446.8359 C 211.22637,446.27329 209.48968,442.26626 207.01936,437.9314 C 204.54903,433.59654 199.94656,424.77884 196.79165,418.3365 C 193.63674,411.89417 190.48182,406.60667 189.7807,406.5865 C 189.0796,406.56633 188.05588,407.7336 187.5058,409.18044 C 186.95571,410.62727 185.63014,413.04056 184.56009,414.54331 C 183.49004,416.04606 182.93875,417.67479 183.335,418.16271 C 183.73125,418.65063 183.64319,418.71256 183.13931,418.30035 C 182.20841,417.5388 169.3343,436.15323 166.36787,442.54983 C 162.99488,449.82313 162.11322,454.43796 163.41101,458.02691 C 165.40575,463.54329 163.31826,472.92363 157.50986,484.54426 C 154.75288,490.06003 152.05403,495.73848 151.51241,497.16304 C 150.84005,498.93148 150.03027,499.56228 148.95977,499.15149 C 148.09743,498.82057 146.84945,498.54983 146.18647,498.54983 C 144.39127,498.54983 144.4591,494.99304 146.3347,490.77728 C 147.24679,488.72718 148.06768,486.59983 148.1589,486.04983 C 148.422,484.46353 148.54915,483.60545 148.64049,482.79983 C 148.68726,482.38733 149.24976,481.41366 149.89049,480.63611 C 150.86507,479.45343 150.72677,479.39744 149.04427,480.29349 C 146.10444,481.85914 144.22452,484.27232 140.2753,491.54983 C 138.33529,495.12483 135.69219,498.6057 134.40173,499.28509 C 133.11128,499.96448 129.13045,500.52258 125.55545,500.52532 C 117.95091,500.53114 108.7205,496.89698 107.84599,493.55282 C 107.5579,492.45118 107.00131,491.54983 106.60912,491.54983 C 106.21693,491.54983 106.34174,489.09092 106.88648,486.08558 L 107.87691,480.62132 L 113.21159,479.42747 C 120.32651,477.83522 123.65865,475.65874 127.41846,470.14784 C 129.14381,467.61893 131.9294,463.53659 133.60867,461.07596 C 135.28793,458.61533 137.08793,456.33877 137.60867,456.01694 C 138.1294,455.69511 138.55545,454.9818 138.55545,454.4318 C 138.55545,453.8818 138.03593,453.75288 137.40095,454.14532 C 136.67991,454.59095 136.51812,454.41925 136.97004,453.68803 C 137.36803,453.04408 138.0447,452.73416 138.47375,452.99933 C 138.90281,453.2645 140.06815,450.90934 141.06342,447.76565 C 142.05868,444.62195 143.89787,438.89983 145.15052,435.04983 C 151.36136,415.96087 154.57344,404.38795 153.94361,403.36886 C 153.54283,402.72038 153.69191,402.51613 154.29427,402.88841 C 154.88065,403.25081 155.68347,402.32798 156.11725,400.79292 C 157.10368,397.3021 157.03598,397.49896 158.26429,394.54983 C 159.49518,391.59453 162.24165,382.2388 163.06135,378.20891 C 163.4188,376.45153 164.12807,375.55559 164.92096,375.85985 C 165.86663,376.22273 166.17941,375.01361 166.11379,371.24856 C 166.04384,367.23458 166.53849,365.53501 168.43142,363.28538 L 170.83799,360.42535 L 169.05664,354.73759 C 168.0769,351.60932 166.90565,348.14983 166.45387,347.04983 C 164.62614,342.59968 162.5109,333.4849 161.00028,323.54983 C 159.63275,314.55578 159.09794,301.87762 158.4493,263.07631 C 158.41277,260.89087 158.84469,257.51587 159.40913,255.57631 C 159.97357,253.63674 160.95696,249.12483 161.59444,245.54983 C 162.23191,241.97483 163.44018,236.85186 164.27947,234.16545 C 165.11876,231.47904 165.80545,228.19779 165.80545,226.87378 C 165.80545,225.54978 166.07852,224.73956 166.41227,225.07331 C 167.99436,226.65541 169.19618,216.76898 168.18084,210.5245 C 167.27263,204.93884 165.22738,200.48896 164.11611,201.68078 C 162.1793,203.75799 157.45221,217.12898 156.48513,223.26571 C 155.33863,230.54093 153.71814,236.02701 148.72128,249.54983 C 146.99686,254.21657 146.9124,255.10003 148.16378,255.38116 C 149.01479,255.57235 149.42866,256.41829 149.14225,257.38116 C 148.86925,258.29893 148.09388,261.29983 147.4192,264.04983 C 146.18596,269.07652 142.9503,275.54983 141.67096,275.54983 C 141.29315,275.54983 140.92627,276.33733 140.85568,277.29983 C 140.45351,282.78358 138.45196,286.87068 134.40494,290.47198 C 132.01272,292.60072 125.72121,294.45254 125.22539,294.15062 C 124.72957,293.84871 129.10814,292.61886 130.15396,291.85414 C 131.19978,291.08942 132.05545,290.15548 132.05545,289.77873 C 132.05545,289.40197 132.66504,289.00425 133.41008,288.8949 C 135.81226,288.54234 138.0537,284.16637 138.12104,279.69768 C 138.1902,275.10815 138.00774,274.92169 132.71117,274.16952 C 130.87181,273.9083 129.13073,273.45844 128.84212,273.16983 C 128.09764,272.42535 126.24493,274.56924 124.78655,277.86278 C 123.76892,280.16095 123.82041,281.88063 125.06791,287.25975 C 125.90772,290.88096 126.37157,294.06705 126.09869,294.33993 C 125.8258,294.61282 125.40035,292.67482 125.16707,293.44296 C 124.74899,294.8196 124.24197,290.52018 123.64353,288.65061 C 122.03671,283.63077 122.31155,279.45112 124.53527,275.08942 C 125.74959,272.7076 126.16997,270.78926 125.62249,270.12797 C 124.74487,269.06791 125.02679,267.02779 127.67162,255.29983 C 128.62207,251.08524 129.41869,249.54983 130.6549,249.54983 C 132.88614,249.54983 133.33316,248.14772 134.57381,237.25809 C 136.44698,220.81668 138.92912,212.42469 142.71206,209.74313 C 144.74202,208.30417 145.20548,206.40538 143.43045,206.79983 C 142.8117,206.93733 142.07833,206.42469 141.80072,205.66063 C 141.51058,204.86206 141.74171,204.54691 142.34435,204.91936 C 142.95503,205.29678 143.68372,204.2068 144.08975,202.30856 C 144.47313,200.51626 146.10446,194.99983 147.71493,190.04983 C 151.03888,179.83324 154.78152,165.58556 157.04023,154.54975 C 157.88449,150.42479 158.72135,146.37483 158.89991,145.54983 C 159.07847,144.72483 160.31152,143.5183 161.64001,142.86865 C 164.61712,141.4128 178.88539,137.40777 183.30545,136.78726 C 185.67826,136.45416 186.55545,135.81559 186.55545,134.42137 C 186.55545,132.82171 186.10905,132.63431 183.80545,133.26691 C 176.88239,135.16807 168.02024,132.18156 166.34771,127.38373 C 165.80436,125.82508 164.84133,124.54546 164.20763,124.54012 C 163.57393,124.53479 161.08855,122.96685 158.68456,121.05582 C 156.28057,119.1448 153.84854,117.86869 153.28005,118.22004 C 152.71156,118.57138 152.54217,118.38034 152.90363,117.79549 C 153.26508,117.21064 152.21221,115.59735 150.56392,114.2104 L 147.56701,111.68868 L 149.40354,107.36925 C 152.24421,100.68815 152.60442,98.368031 153.07355,83.730611 C 153.74009,62.933984 155.1143,57.894024 162.92336,47.606035 C 168.84673,39.802329 174.03618,34.718269 176.78161,34.029209 C 180.65764,33.056388 189.85556,33.920271 190.31018,35.299835 C 190.53675,35.987335 190.00962,36.549835 189.13879,36.549835 C 188.26796,36.549835 187.55545,36.099835 187.55545,35.549835 C 187.55545,33.985327 179.98067,34.377778 176.33938,36.130942 C 173.57898,37.459986 166.16997,45.591585 166.00488,47.473354 C 165.97706,47.790419 164.26408,49.796394 162.19825,51.931078 C 160.13242,54.065762 158.67856,56.428262 158.96744,57.181078 C 159.25633,57.933894 159.11023,58.549835 158.64278,58.549835 C 156.90797,58.549835 155.35362,68.519721 154.58926,84.549831 C 153.96178,97.709611 153.37558,102.11263 151.69357,106.29983 C 150.53366,109.18733 149.92778,111.54983 150.34718,111.54983 C 150.76657,111.54983 153.68548,114.02483 156.83364,117.04983 C 159.9818,120.07483 163.25864,122.54983 164.11552,122.54983 C 165.03847,122.54983 165.38268,122.07929 164.96,121.39539 C 164.56759,120.76045 164.1423,119.29156 164.01493,118.13119 C 163.88755,116.97083 163.09049,112.42783 162.24367,108.03563 C 160.28032,97.852361 161.73904,80.629847 162.1729,76.177492 C 162.37601,74.093176 171.63602,79.549831 174.73359,79.549831 C 175.73562,79.549831 176.55545,79.999831 176.55545,80.549831 C 176.55545,81.963751 174.55169,81.797411 168.65913,79.894321 C 165.83984,78.983791 163.27034,78.501611 162.94914,78.822821 C 162.62794,79.144021 162.64451,80.678821 162.98597,82.233491 C 163.57041,84.894421 163.86916,85.039301 168.08113,84.704301 C 170.88576,84.481241 172.55545,84.759201 172.55545,85.449141 C 172.55545,86.054521 173.23045,86.549831 174.05545,86.549831 C 176.4095,86.549831 175.80881,89.248671 173.30545,89.919551 C 172.06796,90.251191 169.37653,90.528671 167.32451,90.536181 C 164.17554,90.547701 163.49483,90.943191 162.96065,93.071541 C 161.45098,99.086561 167.26241,126.46701 169.72564,124.94465 C 170.16944,124.67037 170.25812,125.16109 169.92272,126.03514 C 169.58729,126.90926 170.10842,128.50337 171.08092,129.57796 C 172.53361,131.18317 173.75912,131.44287 177.9522,131.03407 C 187.44855,130.10822 193.03775,128.50074 197.99553,125.26952 C 200.71257,123.49869 204.98756,120.88438 207.49553,119.45995 C 211.73257,117.05345 212.13674,116.46472 213.20336,111.14537 C 214.779,103.28763 217.50578,98.426184 217.14333,105.77192 C 216.97714,109.14015 214.86433,116.17429 214.63072,115.94699 C 214.39713,115.71969 213.39183,116.77484 212.39674,118.29177 C 211.40165,119.8087 210.24277,120.97548 209.82146,120.88461 C 209.40016,120.79374 205.87731,122.70024 201.9929,125.12128 C 198.10849,127.54233 193.50897,130.01867 191.77174,130.62427 C 189.30018,131.48587 188.47426,132.46567 187.97466,135.12885 C 187.62348,137.00076 186.93549,138.28471 186.4458,137.98206 C 185.95611,137.67942 185.55545,137.9565 185.55545,138.5978 C 185.55545,139.26652 184.85767,139.49604 183.91935,139.13597 C 182.05063,138.41888 163.64914,143.27592 161.90344,144.94704 C 161.26984,145.55357 159.321,152.12483 157.57269,159.54983 C 154.66827,171.88476 151.78437,182.10491 146.32322,199.41644 C 144.66286,204.67968 144.55027,205.92859 145.67356,206.62282 C 146.73458,207.27857 146.35918,208.18435 143.96046,210.75621 C 140.53588,214.428 138.08211,222.17404 137.05675,232.54983 C 136.11504,242.07917 134.54523,249.54983 133.48456,249.54983 C 132.97355,249.54983 132.55545,249.98433 132.55545,250.51539 C 132.55545,251.04644 134.80545,251.77942 137.55545,252.14422 C 140.30545,252.50902 142.55545,253.19952 142.55545,253.67866 C 142.55545,254.1578 143.19556,254.54983 143.9779,254.54983 C 144.76025,254.54983 145.92898,252.86233 146.57508,250.79983 C 147.22118,248.73733 148.80853,244.32944 150.10252,241.00453 C 152.61015,234.56117 154.01841,228.90836 154.98432,221.4088 C 155.31308,218.85624 156.89709,213.86754 158.50435,210.32282 C 160.1116,206.77809 161.32559,203.18941 161.20209,202.34797 C 161.07859,201.50653 159.59565,199.43618 157.90665,197.74718 C 155.79092,195.63145 154.65732,193.34592 154.26206,190.39911 C 153.47264,184.51355 155.13095,176.66578 157.81148,173.60187 C 161.35975,169.54612 170.55545,160.62414 170.55545,161.23724 C 170.55545,161.54385 171.20933,161.25205 172.0085,160.58879 C 173.45583,159.38762 191.54174,159.40199 191.55112,160.60432 C 191.55351,160.90929 193.30578,161.26209 195.44508,161.38832 C 205.21968,161.96506 223.1283,167.76043 228.3359,172.03203 C 229.28166,172.8078 231.07541,174.25417 232.32203,175.24618 C 234.05489,176.62512 234.92806,178.999 236.03018,185.32761 C 236.82305,189.88039 237.7017,193.97744 237.98273,194.43216 C 239.89341,197.5237 244.43867,219.5461 244.92118,228.04983 C 245.23324,233.54983 246.18523,240.52483 247.0367,243.54983 C 247.88815,246.57483 250.13438,254.92646 252.02829,262.10901 C 253.92221,269.29156 255.7657,275.93417 256.12495,276.87035 C 256.58572,278.0711 256.3666,278.41459 255.38108,278.03641 C 254.61271,277.74156 253.93115,276.72395 253.86655,275.77507 C 253.69752,273.29297 249.74542,258.08665 247.44049,251.04983 C 244.42495,241.84358 243.61405,237.45697 242.96419,226.83531 C 242.41026,217.78156 237.89396,196.76397 235.63506,192.72763 C 234.82681,191.28342 234.54708,191.44176 233.62578,193.86493 C 233.03709,195.41323 232.55545,197.11429 232.55545,197.64506 C 232.55545,198.51601 229.91981,205.05519 225.74193,214.54983 C 224.89488,216.47483 224.0827,218.70455 223.93705,219.50475 C 223.59405,221.38943 227.19189,232.17047 229.4718,236.08982 C 232.09905,240.60627 237.55545,256.93577 237.55545,260.28194 C 237.55545,264.29703 234.67419,272.61945 232.42042,275.11428 C 231.39469,276.24973 230.55545,277.43964 230.55545,277.75853 C 230.55545,278.07741 229.31795,279.67051 227.80545,281.29875 C 226.10124,283.13338 224.35381,286.88136 223.21042,291.15451 C 220.34188,301.87489 216.66788,312.26848 212.46606,321.54983 C 210.3496,326.22483 206.85124,334.59073 204.69188,340.14071 C 200.35403,351.28995 200.32203,353.76616 204.40239,362.54983 C 207.05722,368.26482 211.48286,373.51499 212.19969,371.79983 C 212.48703,371.11233 213.53002,370.54983 214.51746,370.54983 C 216.41314,370.54983 217.85493,373.31893 219.46383,380.04983 C 219.9897,382.24983 222.52542,391.69983 225.09876,401.04983 C 227.67211,410.39983 230.66062,422.32233 231.73991,427.54427 C 234.01283,438.54141 236.64541,443.82428 241.28001,446.68862 C 243.09543,447.8106 245.0933,449.6863 245.71975,450.85683 C 246.96397,453.18166 248.58441,463.96706 248.5328,469.58014 C 248.50304,472.81869 249.87453,483.84872 250.98808,489.32654 C 251.24264,490.57873 251.05552,491.35889 250.57227,491.06023 C 250.08903,490.76157 249.41099,490.97455 249.06553,491.53352 C 248.72008,492.09249 247.48897,492.54983 246.32977,492.54983 C 245.17056,492.54983 244.50628,492.26566 244.8536,491.91835 C 245.20092,491.57103 245.01396,490.40656 244.43814,489.33063 C 243.86232,488.25471 243.18953,486.17638 242.94303,484.71212 C 242.69653,483.24786 239.69427,478.21947 238.89039,476.15697 C 236.69273,470.51847 240.9821,473.78956 243.47432,479.58288 C 244.66517,482.35106 246.06741,484.35146 246.59042,484.02821 C 247.40776,483.52308 246.92142,471.66788 246.0448,470.72764 C 245.56028,470.20796 238.21103,475.11625 236.34359,477.20672 C 234.10197,479.71605 231.79874,485.31698 230.4802,491.46511 C 229.17081,497.57062 227.42822,498.80942 217.16304,500.93231 C 204.79475,503.49013 203.1677,503.25518 199.87031,498.43519 z M 217.96322,499.05169 C 225.43104,497.46962 227.99264,495.56592 228.31638,491.35753 C 228.52117,488.69543 228.48704,488.68046 225.27292,490.02341 C 219.69912,492.3523 205.39823,494.38236 202.2544,493.29098 C 198.27048,491.90795 197.9546,492.89552 201.07316,496.98415 C 204.23801,501.13348 206.70884,501.43594 217.96322,499.05169 z M 136.56148,494.81505 C 137.65816,493.42083 138.55545,491.96628 138.55545,491.5827 C 138.55545,491.19912 136.03043,491.09468 132.9443,491.35061 C 129.85816,491.60653 125.02066,491.32229 122.1943,490.71895 C 119.36793,490.11562 115.16578,489.37908 112.85618,489.0822 L 108.65691,488.54242 L 109.7415,491.65369 C 111.02851,495.34559 115.41378,497.51415 123.55545,498.48481 C 130.15618,499.27176 133.88297,498.22021 136.56148,494.81505 z M 150.23558,494.43461 C 149.96381,493.39539 150.26211,492.20868 150.89846,491.79747 C 151.9151,491.14053 158.55545,479.14209 158.55545,477.96207 C 158.55545,477.39925 153.49221,478.27974 152.8109,478.96105 C 151.88983,479.88212 148.60057,492.81381 149.08712,493.60106 C 149.35156,494.02893 149.03544,494.5565 148.38464,494.77344 C 147.73383,494.99037 147.53712,495.71115 147.9475,496.37516 C 149.04073,498.14404 150.81263,496.64127 150.23558,494.43461 z M 139.16592,488.78452 C 139.77668,488.38044 141.01371,486.61059 141.91487,484.85152 C 144.37334,480.05261 149.52204,476.55266 154.14985,476.53452 C 156.29793,476.5261 158.64447,476.14565 159.36437,475.68909 C 161.23895,474.50023 163.15758,460.74363 161.76076,458.50697 C 158.93036,453.97478 163.13615,442.86244 173.4304,427.67396 C 177.85537,421.14521 181.1779,415.5056 180.81378,415.14149 C 180.44967,414.77738 181.3676,413.35209 182.85361,411.97418 C 185.3601,409.65004 186.01134,408.3108 185.64909,406.2255 C 185.57035,405.77212 186.04352,405.73344 186.70061,406.13955 C 187.51359,406.64199 187.69278,406.35006 187.26138,405.22587 C 186.91164,404.31448 187.08532,403.68053 187.64876,403.81183 C 188.2105,403.94273 189.76253,402.13733 191.0977,399.79983 C 192.43288,397.46233 193.28955,395.54983 193.00143,395.54983 C 192.71329,395.54983 193.39507,394.56498 194.51649,393.36127 C 198.62501,388.9513 196.88674,387.24651 186.55545,385.55352 C 179.76159,384.44021 170.87383,381.74991 166.30545,379.4239 C 164.88032,378.69829 164.55545,378.97301 164.55545,380.90382 C 164.55545,382.20783 163.1638,386.59915 161.46289,390.66229 C 157.78784,399.4413 156.55187,403.15375 149.01563,428.04983 C 141.29616,453.55121 140.37294,455.53781 129.962,469.04983 C 129.11445,470.14983 127.70547,472.24292 126.83092,473.70114 C 125.02002,476.72063 118.30737,480.39127 113.03039,481.24761 C 110.4583,481.665 109.54876,482.27658 109.77248,483.43825 C 109.94318,484.32462 110.30168,484.9176 110.56915,484.75598 C 110.83662,484.59437 113.08045,485.21726 115.55545,486.14019 C 123.37314,489.05542 136.52934,490.52889 139.16592,488.78452 z M 249.05545,487.77288 C 248.50545,487.36241 247.71795,486.6193 247.30545,486.12153 C 246.89296,485.62376 246.55545,485.9665 246.55545,486.88316 C 246.55545,487.80963 247.33266,488.54303 248.30545,488.53452 C 249.30414,488.52578 249.62614,488.19879 249.05545,487.77288 z M 204.71791,377.44558 C 207.37855,375.73825 209.55545,374.09323 209.55545,373.78998 C 209.55545,373.48673 208.41754,371.74672 207.02674,369.9233 C 205.63595,368.09988 203.2274,363.92123 201.67439,360.63741 L 198.85075,354.66682 L 197.62175,364.85832 C 196.9458,370.46365 196.14811,376.28733 195.8491,377.79983 C 195.38315,380.1568 195.63237,380.54983 197.59291,380.54983 C 198.85101,380.54983 202.05725,379.15292 204.71791,377.44558 z M 172.05545,354.54983 C 172.02613,352.34983 172.38383,350.54983 172.85036,350.54983 C 173.31688,350.54983 173.59947,349.53733 173.47833,348.29983 C 173.3572,347.06233 173.50037,345.37483 173.79651,344.54983 C 174.09264,343.72483 175.11375,338.54983 176.06564,333.04983 C 177.01754,327.54983 178.1895,322.14983 178.67002,321.04983 C 179.15053,319.94983 180.24957,314.32483 181.11232,308.54983 C 184.58856,285.28113 185.46152,279.95819 186.05504,278.41153 C 186.56339,277.08676 185.67822,276.67067 181.14728,276.10457 C 178.1069,275.7247 172.49177,275.54158 168.66923,275.69764 C 161.88036,275.9748 161.70565,276.04887 161.1373,278.89061 C 159.15342,288.80999 161.63801,324.43222 165.15893,336.54983 C 166.03788,339.57483 167.5758,345.11931 168.57652,348.87089 C 171.51609,359.891 172.14024,360.90984 172.05545,354.54983 z M 233.11979,269.98811 C 235.82592,264.47848 235.93369,259.6819 233.52881,251.78504 C 232.30188,247.75623 232.0592,247.55095 229.14273,248.07501 C 216.68429,250.31366 207.99966,251.25893 201.51275,251.08237 L 193.97005,250.87708 L 192.26275,256.67015 C 191.32373,259.85635 190.55545,264.50772 190.55545,267.00653 C 190.55545,271.89469 189.77752,272.55768 187.28005,269.798 C 184.69063,266.93672 183.4817,262.60205 183.43101,255.99703 L 183.38326,249.77616 L 177.24396,248.56833 C 173.86734,247.90402 169.44004,246.51127 167.40552,245.47334 L 163.70638,243.58618 L 163.06607,246.818 C 162.7139,248.59551 161.73209,253.03386 160.88428,256.68101 C 159.6901,261.81816 159.57517,264.40169 160.37414,268.14783 C 160.94138,270.80743 161.23351,273.26173 161.02332,273.60183 C 160.81312,273.94193 166.02187,274.2353 172.5983,274.25376 C 179.17474,274.27222 184.55545,273.89639 184.55545,273.41858 C 184.55545,272.94077 183.45701,272.54983 182.11447,272.54983 C 180.77193,272.54983 179.39537,272.09983 179.05545,271.54983 C 178.07794,269.96818 182.6942,270.44499 186.64509,272.33376 C 188.61939,273.2776 190.06413,274.5531 189.85563,275.16821 C 189.5153,276.17222 204.03555,277.994 212.71872,278.03673 C 214.1835,278.04393 215.721,278.38733 216.13537,278.79983 C 217.24953,279.90894 218.77284,279.71059 218.05545,278.54983 C 217.11508,277.02829 218.72477,277.35954 222.03248,279.36825 L 225.0095,281.17615 L 227.82157,278.11299 C 229.36821,276.42825 231.7524,272.77206 233.11979,269.98811 z M 143.60103,269.71529 C 146.6271,264.73931 146.18504,264.04189 139.11409,262.63641 C 135.57134,261.93222 131.85884,260.68793 130.86409,259.87131 C 129.14342,258.45877 129.15273,258.42045 131.05545,259.08345 C 138.90928,261.82006 146.06534,262.26942 146.90598,260.07877 C 147.81242,257.71662 145.15707,255.95079 138.60896,254.56119 C 135.24733,253.8478 132.21542,252.80866 131.87138,252.25199 C 131.52734,251.69532 130.37977,253.44475 129.32122,256.1396 L 127.39658,261.03934 L 131.22602,264.27971 C 135.39246,267.80524 134.48451,268.85507 130.19031,265.47725 L 127.55545,263.40467 L 127.57077,266.22725 C 127.59221,270.18029 128.77603,271.63424 132.67619,272.49765 C 138.84215,273.86266 141.48878,273.18861 143.60103,269.71529 z M 188.52608,262.79983 C 188.56731,259.63733 188.70327,255.70631 188.82825,254.06423 C 189.11272,250.32607 186.13638,249.24959 185.1984,252.75141 C 184.31126,256.06344 184.4174,258.75319 185.411,258.13911 C 185.88154,257.84829 186.05853,258.69848 185.8043,260.02841 C 185.4393,261.93779 187.33498,268.54983 188.2474,268.54983 C 188.35945,268.54983 188.48486,265.96233 188.52608,262.79983 z M 225.47326,247.3438 C 230.60079,246.41962 230.78204,246.30389 230.05782,244.41658 C 229.44475,242.81897 228.29076,242.82789 209.55545,244.57506 C 193.16379,246.10368 177.76058,245.42605 170.30545,242.84836 C 167.14296,241.7549 164.55545,241.18498 164.55545,241.58189 C 164.55545,243.12776 175.34147,246.83155 182.02244,247.57985 C 190.82128,248.56536 219.56208,248.40922 225.47326,247.3438 z M 209.64099,243.17273 C 218.16258,242.67417 228.55545,240.52614 228.55545,239.26343 C 228.55545,238.80603 228.03592,238.75288 227.40095,239.14532 C 226.73974,239.55397 226.51593,239.42279 226.87715,238.83832 C 227.22405,238.27703 226.17746,234.045 224.55139,229.43381 C 221.00503,219.37704 220.96466,218.66547 223.67943,214.06429 C 224.8476,212.08437 225.56163,210.22268 225.26617,209.9272 C 224.43177,209.09281 210.78093,205.76348 203.55545,204.63213 C 198.26167,203.80324 179.40383,203.12698 171.20137,203.47187 C 169.49629,203.54356 169.40377,204.18788 170.0501,211.48936 C 170.6327,218.07087 170.41273,220.42276 168.7641,225.23936 C 167.67025,228.43512 166.46915,232.91565 166.095,235.19609 L 165.41471,239.34235 L 170.73508,241.15863 C 175.79349,242.88548 191.03253,244.36138 198.55545,243.85303 C 200.48045,243.72295 205.46894,243.41682 209.64099,243.17273 z M 187.12548,219.66314 C 186.82407,219.17546 187.24752,218.22036 188.06646,217.54069 C 189.30558,216.51232 189.55545,216.66113 189.55545,218.42739 C 189.55545,220.57275 188.13431,221.29546 187.12548,219.66314 z M 230.12654,199.04983 C 234.21846,186.31741 234.48754,184.63154 232.99721,181.06468 C 232.22294,179.21157 230.66979,177.40351 229.54581,177.04677 C 228.42181,176.69002 226.78741,175.30727 225.9138,173.97399 C 225.0402,172.6407 223.90896,171.54983 223.39996,171.54983 C 222.89093,171.54983 221.25519,170.67378 219.76496,169.60305 C 215.11822,166.26436 193.2993,161.82577 178.90545,161.29106 L 175.79115,160.34831 L 164.65545,169.20622 C 158.03276,175.86459 156.52054,177.96083 156.36404,180.69984 C 155.81512,190.30686 157.27822,195.83203 160.93402,197.95759 C 162.34217,198.77631 162.92648,198.73681 163.26736,197.79983 C 163.9239,195.9952 164.93271,196.24335 167.82074,198.91989 C 170.19742,201.12252 171.41003,201.32996 184.98655,201.8564 C 194.65721,202.2314 199.38513,202.08327 198.97408,201.41817 C 198.63258,200.86559 197.7003,200.66401 196.90237,200.9702 C 196.10443,201.2764 195.7073,201.11317 196.01982,200.60747 C 196.33237,200.10178 196.15169,199.41832 195.61832,199.08869 C 193.51584,197.78928 190.54484,192.67442 191.53654,192.06151 C 192.09606,191.71572 193.44763,192.94764 194.54003,194.79913 C 195.63244,196.65061 198.12307,198.92695 200.07476,199.85765 C 204.56017,201.99658 212.90664,202.04616 216.44688,199.9549 C 219.58983,198.0983 223.55545,192.67758 223.55545,190.23795 C 223.55545,189.30948 224.00545,188.54983 224.55545,188.54983 C 226.44725,188.54983 225.55058,192.25646 222.71694,196.14979 C 221.15574,198.29481 217.93641,201.02631 215.56284,202.2198 L 211.24729,204.38976 L 215.65138,205.48665 C 218.07361,206.08994 221.40545,206.94313 223.05545,207.38262 C 226.54502,208.31211 227.51856,207.16485 230.12654,199.04983 z M 166.80545,87.887551 C 166.11795,87.610141 164.99295,87.610141 164.30545,87.887551 C 163.61795,88.164971 164.18045,88.391941 165.55545,88.391941 C 166.93045,88.391941 167.49295,88.164971 166.80545,87.887551 z M 259.1926,308.34839 C 258.83618,307.77168 264.83769,308.54983 265.32691,308.54983 C 265.81615,308.54983 267.6898,306.49818 269.49059,303.99061 C 272.46036,299.85528 272.70059,298.99527 272.07443,294.74061 C 271.69474,292.16068 269.99564,287.79983 268.29868,285.04983 L 265.21326,280.04983 L 265.1181,251.54983 C 265.02586,223.9214 264.955,222.94089 262.80122,219.48762 C 260.67821,216.08368 260.03482,212.39112 258.02047,192.04983 C 257.74813,189.29983 257.09108,184.34983 256.56034,181.04983 C 256.02962,177.74983 255.12735,170.88867 254.55533,165.80281 C 253.98332,160.71695 253.00324,155.43196 252.3774,154.05838 C 251.11058,151.27803 245.474,147.54983 242.53724,147.54983 C 241.49012,147.54983 239.79895,146.65419 238.7791,145.55951 C 237.75925,144.46484 234.47922,142.68857 231.49014,141.61226 C 212.84235,134.89753 213.14825,135.06557 212.32058,131.08198 C 211.51676,127.21319 213.06959,122.72497 214.12823,125.72841 C 214.41903,126.55341 214.60823,128.5537 214.76691,130.39176 C 215.04926,133.66205 215.29126,133.82535 226.05545,138.00943 C 238.475,142.83696 250.63833,148.73418 252.27263,150.72047 C 255.20306,154.28205 256.99946,165.02509 260.10323,197.54983 C 261.45101,211.67347 262.06014,214.76994 264.3327,219.04983 L 266.98761,224.04983 L 267.02153,251.54983 L 267.05545,279.04983 L 270.30466,285.54983 C 273.87486,292.69196 274.57239,299.62232 272.05568,302.94715 C 271.26579,303.99068 270.86355,305.23933 271.16181,305.72193 C 271.46008,306.20453 271.10816,306.47573 270.37978,306.32461 C 269.62816,306.16866 269.12033,306.83545 269.20546,307.8665 C 269.28795,308.86566 269.10435,309.43207 268.79746,309.12517 C 268.49057,308.81828 267.67563,309.03513 266.98649,309.60706 C 266.11838,310.32753 259.6416,309.07486 259.1926,308.34839 z M 259.6344,309.54161 C 259.59098,309.26209 258.1952,305.21209 256.53267,300.54161 C 254.02616,293.50017 253.61915,291.15091 254.14954,286.78661 C 254.50135,283.89185 254.82947,276.09922 255.31519,275.79903 C 256.40417,275.126 256.76305,280.18222 255.59637,286.33406 C 254.7425,290.83648 254.96614,292.29233 257.63492,299.60494 C 259.2836,304.12245 260.42571,308.32063 260.17293,308.93422 C 259.92016,309.5478 259.67782,309.82113 259.6344,309.54161 z M 211.48402,126.83533 C 217.0973,125.10878 243.22047,117.51526 245.19697,116.07001 C 246.90299,114.82254 246.91607,114.52925 245.40682,111.36435 C 243.01923,106.3575 239.5923,93.189651 238.85563,86.191531 C 238.27241,80.651351 238.12563,80.343651 237.35697,83.049831 C 236.20683,87.098971 235.85459,110.09997 236.86924,114.89826 C 237.38504,117.3376 238.0421,119.24146 237.4272,118.86144 C 235.9932,117.97517 234.28088,108.30362 234.6518,99.648521 C 234.83091,95.469241 234.96905,84.624831 234.9588,75.549831 C 234.93579,55.184489 233.57038,49.618278 226.83012,42.412379 C 224.36431,39.776229 222.05626,37.675173 221.70113,37.743366 C 221.34601,37.811558 220.38045,37.596412 219.55545,37.265262 C 217.58178,36.473043 205.65537,34.496171 197.87162,33.67104 C 194.47052,33.3105 186.60157,35.607866 186.27794,35.284234 C 185.95432,34.960603 194.23346,31.569172 198.7832,31.239785 C 208.40062,30.543512 218.11544,32.132539 221.05545,34.882798 C 222.15545,35.911803 224.58823,37.939861 226.46165,39.389595 C 228.33505,40.839328 230.95049,44.280955 232.27374,47.037654 C 234.51815,51.713365 234.64159,51.814878 234.11263,48.549835 C 233.60103,45.392034 233.65006,45.294263 234.61396,47.549835 C 236.52982,52.033059 238.35676,62.835782 239.01101,73.549831 C 239.36368,79.324831 239.88126,85.399831 240.16123,87.049831 C 241.4409,94.591831 245.04645,108.19448 246.1251,109.54983 C 248.588,112.64448 248.64927,115.11654 246.31474,117.20182 C 243.06346,120.106 234.39002,123.50381 228.83503,124.0495 C 224.17879,124.50689 208.07433,127.88409 211.48402,126.83533 z M 237.21139,70.280801 C 236.93747,69.603771 236.73002,70.399831 236.75041,72.049831 C 236.77078,73.699831 236.9949,74.253771 237.24845,73.280801 C 237.50198,72.307831 237.48531,70.957841 237.21139,70.280801 z M 212.55545,33.549835 C 212.55545,32.999835 210.64296,32.603077 208.30545,32.66815 C 204.31685,32.779188 204.23997,32.833414 207.05545,33.549835 C 211.44595,34.667029 212.55545,34.667029 212.55545,33.549835 z M 175.92861,122.11075 C 174.20885,121.36231 172.1419,119.4272 171.33538,117.8105 C 169.98975,115.11313 170.02792,114.74211 171.79882,113.30521 C 174.85545,110.82508 184.91477,111.59931 188.0631,114.55701 C 190.97629,117.29382 190.28844,118.62508 184.41219,121.62292 C 179.99132,123.87828 179.99019,123.87834 175.92861,122.11075 z M 185.3964,118.94868 C 187.54108,117.44649 187.57974,117.23415 186.02203,115.51289 C 184.72365,114.0782 183.2051,113.7472 179.05636,113.99458 C 171.85604,114.42391 170.8657,115.18672 173.65456,118.15533 C 176.33471,121.00821 181.91748,121.38542 185.3964,118.94868 z M 176.5354,107.02566 C 175.83968,106.18737 175.5487,105.22325 175.88879,104.88316 C 176.61508,104.15687 179.55545,106.39352 179.55545,107.67227 C 179.55545,109.04972 177.92561,108.70076 176.5354,107.02566 z M 182.55545,106.08501 C 182.55545,105.2165 183.42397,104.54983 184.55545,104.54983 C 185.65545,104.54983 186.55545,104.759 186.55545,105.01465 C 186.55545,105.2703 185.65545,105.96113 184.55545,106.54983 C 182.95916,107.40414 182.55545,107.31032 182.55545,106.08501 z M 216.30398,104.07834 C 215.22054,102.58839 214.93717,101.43195 215.56104,101.04638 C 216.11574,100.70356 216.83954,101.12659 217.1695,101.98645 C 218.20619,104.68798 221.26564,103.69463 223.70667,99.863951 C 228.72742,91.984991 228.76589,91.857461 227.09613,88.628481 C 225.2072,84.975711 225.20512,84.883171 227.01146,84.883171 C 227.81227,84.883171 228.25493,85.227071 227.99515,85.647401 C 227.73538,86.067731 227.98018,86.694291 228.53914,87.039751 C 229.09812,87.385221 229.55545,88.676311 229.55545,89.908851 C 229.55545,91.141391 230.11795,92.721981 230.80545,93.421261 C 231.53008,94.158311 231.59775,94.557601 230.96645,94.371261 C 229.74788,94.011591 225.86703,98.365251 223.00754,103.29983 C 220.77996,107.14396 218.70815,107.38456 216.30398,104.07834 z M 190.77725,91.316761 C 183.7427,87.927261 198.08469,84.129541 206.1833,87.237271 C 208.78934,88.237301 207.53718,89.477781 202.37395,91.011091 C 196.39874,92.785541 193.95902,92.849841 190.77725,91.316761 z M 195.55545,89.544401 C 196.71003,88.794091 196.43876,88.616181 194.37754,88.771861 C 192.90469,88.883101 191.91876,89.328651 192.18657,89.761981 C 192.82451,90.794181 193.72149,90.736251 195.55545,89.544401 z M 199.74295,88.866721 C 199.02108,88.577851 198.15858,88.613381 197.82629,88.945671 C 197.494,89.277961 198.08462,89.514311 199.13879,89.470891 C 200.30373,89.422901 200.54068,89.185951 199.74295,88.866721 z M 216.97839,84.761711 C 212.51386,80.618331 203.55545,74.672671 203.55545,75.852961 C 203.55545,76.090071 205.39674,77.502571 207.64721,78.991861 C 212.28099,82.058351 212.31564,83.511421 207.69805,81.123571 C 204.34579,79.390061 198.95575,79.078001 195.37055,80.409871 C 191.02089,82.025741 185.55545,82.685751 185.55545,81.595151 C 185.55545,81.020231 186.37529,80.549831 187.37731,80.549831 C 188.37933,80.549831 191.41683,79.788471 194.12731,78.857911 L 199.05545,77.165991 L 193.55545,75.537121 C 190.53045,74.641241 187.7878,74.303651 187.46068,74.786901 C 187.13356,75.270161 185.22105,74.695071 183.21068,73.508921 C 179.36785,71.241591 178.89241,71.442411 180.59064,74.615581 C 182.09415,77.424911 180.95693,77.046321 173.7107,72.325221 C 165.25539,66.816371 161.41819,61.093142 162.61636,55.77791 C 163.07857,53.727469 164.42881,51.262335 165.61689,50.299835 C 167.90233,48.448322 174.12392,47.821025 173.05545,49.549835 C 172.71554,50.099835 171.40872,50.549835 170.15143,50.549835 C 167.27423,50.549835 164.97884,53.105078 164.08711,57.30066 C 163.56023,59.779619 163.76988,60.694888 164.97007,61.155445 C 165.83572,61.487623 168.28756,63.366501 168.01782,63.802951 C 167.18257,65.154419 171.3739,69.774821 172.77777,68.965631 C 173.4805,68.560591 173.72082,68.598471 173.31182,69.049811 C 172.48909,69.957721 176.35934,73.079291 177.22921,72.209411 C 177.52865,71.909981 176.83784,70.350781 175.69409,68.744531 C 173.12837,65.141311 174.07875,63.674088 176.76576,67.090071 C 177.8354,68.449891 179.68816,70.075111 180.88301,70.701661 C 183.04071,71.833121 183.04249,71.826251 181.14492,69.689211 C 180.09412,68.505811 179.53627,67.235681 179.90525,66.866701 C 180.27423,66.497731 181.23216,67.062981 182.03398,68.122841 C 182.83581,69.182681 183.50616,69.642591 183.52365,69.144851 C 183.54114,68.647101 184.4271,69.028691 185.49244,69.992811 C 186.58127,70.978191 187.96255,71.416271 188.64695,70.993291 C 189.34957,70.559041 189.60673,70.657851 189.25503,71.226911 C 188.91984,71.769261 191.02737,72.963791 193.93841,73.881421 C 200.22804,75.864051 201.36088,75.955271 199.75546,74.349831 C 199.09545,73.689831 198.55545,72.759511 198.55545,72.282451 C 198.55545,71.224091 202.81866,72.451751 203.65556,73.751101 C 203.98562,74.263541 204.95273,74.785111 205.80468,74.910151 C 206.65663,75.035191 207.96158,75.611791 208.70458,76.191491 C 209.44755,76.771181 211.92162,78.270771 214.20246,79.523921 C 216.48333,80.777061 218.84194,82.883161 219.44382,84.204161 C 220.0457,85.525151 221.21704,86.866481 222.04681,87.184891 C 223.58246,87.774181 224.17163,89.581151 222.80545,89.511711 C 222.39296,89.490751 219.77077,87.353241 216.97839,84.761711 z "
       id="path3150"
       sodipodi:nodetypes="cssssssssssssssssssssssssssssssssssssssssssssssscccssssssssssssssssssssssssssssssssssssssssssssssssssscccsssssssssssssssscccsssssssssssssssssssssssssssssssssssssssssssssssssssscccsssssssssssssssssssssssssssssssssssssssssssssssssssssssssssssssssssssssssssssssssssssssssssssssssssssssssssssssssssssssccssssccssscccsccssssssccsssssssssssssssssssssssssccsssccsscccssccssssssssssssccsscccssccccccsssssssssssscccccssssssccccccsccsssssccsssssccsssssssssscccsccssccssssscccsssssssssssssssscccsccssccssscccsssssssssssssscccccssssssccssssssccssssssssssssssssssssssssccssccssccssssccsssccssccsssccsssssssssssccssccssccssccsssssscccssssssssssssssssssssssssssssssssssc" />
    <path
       style="fill:none;fill-rule:evenodd;stroke:#000000;stroke-width:1px;stroke-linecap:butt;stroke-linejoin:miter;stroke-opacity:1"
       d="M 162.14286,75.523052 C 161.93828,74.958345 161.71282,73.85034 161.96429,72.844481 C 162.21393,71.84592 161.97631,71.213285 162.32143,70.523052 C 162.7666,69.632719 163.01688,69.470459 163.75,68.737338 C 164.61629,67.871045 165.28194,67.252445 165.53571,66.237338 C 165.74697,65.39233 165.78102,65.634893 166.25,65.16591"
       id="path3152" />
    <path
       style="fill:none;fill-rule:evenodd;stroke:#000000;stroke-width:1px;stroke-linecap:butt;stroke-linejoin:miter;stroke-opacity:1"
       d="M 162.67857,69.451624 C 162.873,68.673922 163.39654,68.015681 163.75,67.308767 C 164.12064,66.567481 164.17521,65.990702 164.64286,65.523052 C 164.99875,65.167165 165,65.014142 165,64.451624"
       id="path3154" />
    <path
       style="fill:none;fill-rule:evenodd;stroke:#000000;stroke-width:1px;stroke-linecap:butt;stroke-linejoin:miter;stroke-opacity:1"
       d="M 164.64286,67.130195 C 164.64746,67.125594 165.29705,65.642811 165.53571,65.344481"
       id="path3156" />
    <path
       style="fill:none;fill-rule:evenodd;stroke:#000000;stroke-width:1px;stroke-linecap:butt;stroke-linejoin:miter;stroke-opacity:1"
       d="M 161.78571,74.808767 C 162.18279,74.411693 162.2815,75.840265 162.67857,76.237338"
       id="path3158" />
  </g>
</svg>
