<?xml version="1.0" encoding="UTF-8" standalone="no"?>
<!-- Created with Inkscape (http://www.inkscape.org/) -->
<svg
   xmlns:dc="http://purl.org/dc/elements/1.1/"
   xmlns:cc="http://web.resource.org/cc/"
   xmlns:rdf="http://www.w3.org/1999/02/22-rdf-syntax-ns#"
   xmlns:svg="http://www.w3.org/2000/svg"
   xmlns="http://www.w3.org/2000/svg"
   xmlns:sodipodi="http://sodipodi.sourceforge.net/DTD/sodipodi-0.dtd"
   xmlns:inkscape="http://www.inkscape.org/namespaces/inkscape"
   width="1052.3622"
   height="744.09448"
   id="svg3184"
   sodipodi:version="0.32"
   inkscape:version="0.45.1"
   version="1.0"
   sodipodi:docbase="/home/flecox/pyweek/herobot/arte"
   sodipodi:docname="mujer-6.svg"
   inkscape:output_extension="org.inkscape.output.svg.inkscape">
  <defs
     id="defs3186" />
  <sodipodi:namedview
     id="base"
     pagecolor="#ffffff"
     bordercolor="#666666"
     borderopacity="1.0"
     gridtolerance="10000"
     guidetolerance="10"
     objecttolerance="10"
     inkscape:pageopacity="0.0"
     inkscape:pageshadow="2"
     inkscape:zoom="2.8"
     inkscape:cx="281.71127"
     inkscape:cy="270.21027"
     inkscape:document-units="px"
     inkscape:current-layer="layer1"
     width="1052.3622px"
     height="744.09448px"
     inkscape:window-width="1280"
     inkscape:window-height="740"
     inkscape:window-x="0"
     inkscape:window-y="0" />
  <metadata
     id="metadata3189">
    <rdf:RDF>
      <cc:Work
         rdf:about="">
        <dc:format>image/svg+xml</dc:format>
        <dc:type
           rdf:resource="http://purl.org/dc/dcmitype/StillImage" />
      </cc:Work>
    </rdf:RDF>
  </metadata>
  <g
     inkscape:label="Layer 1"
     inkscape:groupmode="layer"
     id="layer1">
    <path
       style="fill:#000000"
       d="M 230.65259,630.29098 C 230.87821,630.06537 230.60117,629.32455 230.03696,628.64472 C 228.62737,626.94627 231.48829,624.19676 234.66515,624.19676 C 240.07657,624.19676 245.28357,619.62583 248.17028,612.34137 C 249.40055,609.23684 250.74373,606.24676 251.15511,605.69676 C 251.56648,605.14676 252.81945,602.28221 253.93948,599.3311 L 255.9759,593.96544 L 253.55246,587.52696 C 251.19783,581.27128 238.99684,555.2132 237.01006,552.19676 C 236.46668,551.37176 235.75767,549.90926 235.43449,548.94676 C 235.11131,547.98426 234.4797,547.19676 234.03091,547.19676 C 233.58212,547.19676 232.91401,546.24866 232.54622,545.08986 C 231.81347,542.78115 229.02781,539.19676 227.96632,539.19676 C 227.59817,539.19676 227.02236,540.2909 226.68672,541.62818 C 225.7902,545.20019 219.32999,555.82278 213.87369,562.69676 C 197.13548,583.78399 196.37457,586.09278 201.548,600.09632 C 203.47415,605.31006 202.97894,608.41493 198.93956,616.45091 C 197.34875,619.61569 195.68692,623.89069 195.24661,625.95091 C 194.51052,629.39512 194.18396,629.68426 191.19116,629.54149 C 189.40097,629.45609 187.75028,629.20022 187.52296,628.9729 C 187.29563,628.74558 187.6428,626.01774 188.29443,622.91105 C 188.94607,619.80435 189.20625,616.98953 188.87262,616.6559 C 187.82285,615.60613 182.73452,618.86814 178.66532,623.19956 C 172.31977,629.95401 171.43931,630.30838 164.03912,629.08625 C 160.48668,628.49957 155.78604,628.0327 153.59324,628.04875 C 147.06052,628.09658 143.02979,622.86352 149.33463,622.51985 C 157.45173,622.07738 159.45055,620.45068 168.16294,607.19676 C 172.68219,600.32176 176.19984,594.55261 175.97995,594.37642 C 175.76006,594.20023 176.36765,593.61537 177.33015,593.07673 C 178.29265,592.53809 179.08015,591.41658 179.08015,590.58449 C 179.08015,589.75239 179.96551,586.28725 181.04762,582.88418 C 182.12973,579.4811 184.40229,571.97176 186.09777,566.19676 C 187.79324,560.42176 189.8299,554.34676 190.62368,552.69676 C 191.41746,551.04676 192.92368,547.22176 193.97084,544.19676 C 195.018,541.17176 196.19412,537.90926 196.58445,536.94676 C 197.17614,535.4877 196.73603,535.19496 193.93714,535.18594 C 192.09079,535.17998 188.33015,534.49 185.58015,533.65263 C 182.83015,532.81527 179.64837,532.24978 178.50952,532.39599 C 177.37067,532.54221 175.34567,531.96634 174.00952,531.11628 C 172.67337,530.26622 170.11765,528.98199 168.33015,528.26242 C 166.54265,527.54286 165.08015,526.61298 165.08015,526.19602 C 165.08015,525.77907 163.26151,523.56395 161.03874,521.27353 C 157.09578,517.21057 155.08015,513.59076 155.08015,510.57264 C 155.08015,509.75099 155.48818,509.3309 155.98689,509.63912 C 156.4856,509.94734 156.64415,509.1864 156.33924,507.94814 C 156.03432,506.70988 156.16451,506.04748 156.62853,506.47613 C 157.35602,507.14815 162.79982,487.46213 167.76705,466.19676 C 169.71677,457.84972 174.54352,442.77058 178.33016,433.19676 C 179.96168,429.07176 181.4049,425.24676 181.53731,424.69676 C 181.66973,424.14676 182.0365,423.02176 182.35236,422.19676 C 182.66822,421.37176 183.89816,417.32176 185.08556,413.19676 C 189.78388,396.87487 200.07646,374.90782 196.14168,384.65873 C 195.67694,385.81042 196.12493,387.13092 193.24748,393.08655 C 192.20656,395.24102 189.68733,402.5597 187.64921,409.35027 C 185.61109,416.14084 182.80255,424.84676 181.40801,428.69676 C 180.01347,432.54676 177.35824,439.89839 175.5075,445.03372 C 173.65676,450.16905 170.96139,459.16905 169.51777,465.03372 C 168.07416,470.89839 166.08772,478.62176 165.10346,482.19676 C 161.37703,495.73181 158.82324,507.27318 159.42221,507.87216 C 159.76407,508.21402 159.09401,509.31745 157.93318,510.32422 C 155.98527,512.01364 155.94078,512.32977 157.35598,514.42575 C 160.26125,518.72857 168.86974,527.19676 170.33858,527.19676 C 171.1481,527.19676 172.95614,528.09798 174.35646,529.19946 C 175.75677,530.30095 177.59342,530.93703 178.43789,530.61298 C 179.28237,530.28892 182.4291,530.7377 185.43063,531.61027 C 191.34587,533.32988 197.65437,533.69471 198.47634,532.36473 C 198.75916,531.90711 202.94822,531.73111 207.78536,531.97363 C 220.81124,532.6267 222.72763,532.4968 227.61754,530.62933 C 231.35892,529.20049 233.9576,529.0405 243.69027,529.63985 L 255.30004,530.35478 L 259.0163,527.36831 C 262.52485,524.54877 262.96823,524.44475 266.94901,525.50728 C 270.16525,526.36574 271.57048,526.34591 272.87281,525.42366 C 276.50491,522.85158 283.77782,519.36545 288.08015,518.1343 C 294.33236,516.34518 295.08015,515.54901 295.08015,510.6813 C 295.08015,506.27731 296.08754,505.19676 300.19332,505.19676 C 301.2656,505.19676 302.41642,504.48403 302.7507,503.61291 C 303.08498,502.7418 303.63335,502.44276 303.96931,502.94838 C 304.30527,503.454 305.48015,504.37804 306.58015,505.00181 C 308.31039,505.98297 307.99805,506.14004 304.26441,506.16635 C 297.68979,506.21268 296.08015,507.48472 296.08015,512.63412 C 296.08015,517.41872 296.91757,516.78599 285.21988,520.83987 C 282.82174,521.67096 278.64205,523.71543 275.93169,525.38313 C 272.44099,527.53098 270.28578,528.23762 268.54196,527.80604 C 267.18796,527.47093 265.06765,526.94625 263.83015,526.64006 C 260.59575,525.8398 258.86842,528.98648 260.14084,533.36086 C 260.67453,535.19561 262.22362,544.12176 263.58327,553.19676 C 266.33873,571.58811 267.90794,578.42122 269.19357,577.62666 C 269.66859,577.33308 269.82544,577.69695 269.54212,578.43526 C 269.25881,579.17357 271.5656,583.12847 274.66833,587.22393 C 277.77106,591.31939 280.75533,595.80119 281.30003,597.18349 C 281.84474,598.56579 282.58094,604.52612 282.93604,610.42868 L 283.58167,621.1606 L 280.89127,622.275 C 277.45669,623.69764 276.08015,622.81691 276.08015,619.19676 C 276.08015,614.31022 274.35836,614.91492 271.40528,620.8386 C 266.68942,630.29827 265.68715,630.69638 246.58092,630.69898 C 237.59473,630.70019 230.42698,630.5166 230.65259,630.29098 z M 265.7323,626.44676 C 267.13846,624.93426 269.36042,621.58716 270.66998,619.00875 L 273.05101,614.32075 L 267.37883,616.91756 C 262.11714,619.32644 261.20614,619.44519 254.79051,618.55845 L 247.87438,617.60253 L 244.37726,620.79965 C 238.11988,626.52024 237.14707,627.15967 235.60283,626.56709 C 234.76536,626.24572 233.29265,626.33292 232.33015,626.76087 C 229.42337,628.05329 236.20665,628.91935 250.3779,629.06512 C 263.1258,629.19625 263.18561,629.18605 265.7323,626.44676 z M 177.57225,622.20474 C 180.83347,618.90913 184.98188,615.72423 186.79095,615.12719 C 188.60001,614.53015 190.08015,613.61072 190.08015,613.08402 C 190.08015,612.54289 189.11519,612.64282 187.86147,613.31379 C 185.22615,614.72418 172.09678,617.1492 166.94516,617.17709 C 164.22237,617.19182 162.91463,617.80043 161.734,619.6023 C 160.67088,621.22482 158.78659,622.23951 155.94522,622.71956 L 151.73261,623.43127 L 155.00969,624.80918 C 156.81209,625.56703 158.75981,625.89474 159.33797,625.53742 C 159.99475,625.13151 160.08737,625.37606 159.58483,626.18919 C 158.95252,627.21229 159.77835,627.37817 163.44612,626.96476 C 166.01221,626.67552 168.3562,626.8344 168.65497,627.31782 C 169.79845,629.16801 171.84007,627.99736 177.57225,622.20474 z M 194.36586,622.93693 C 196.86281,615.60967 196.8692,615.7303 193.96605,615.39345 C 191.52376,615.11008 191.30779,615.42306 190.67999,620.15563 C 190.31041,622.94165 189.75111,625.89064 189.4371,626.70894 C 189.05742,627.69838 189.48822,628.19347 190.72316,628.18693 C 192.06575,628.17982 193.07481,626.72553 194.36586,622.93693 z M 280.72114,619.94676 C 281.20838,619.25926 281.37598,616.29279 281.09359,613.3546 L 280.58015,608.01244 L 278.28299,610.46925 C 276.13855,612.76273 276.07163,613.20097 277.27647,617.06141 C 278.64105,621.43369 279.28505,621.97312 280.72114,619.94676 z M 267.26141,615.33339 C 269.6523,614.30853 272.22173,612.7311 272.97126,611.82797 C 274.69983,609.74517 273.83998,603.81422 270.94582,597.85716 C 268.85721,593.55818 268.79027,593.51832 264.86557,594.236 C 262.68295,594.63512 260.05875,594.74242 259.03401,594.47444 C 257.62143,594.10505 257.02138,594.67761 256.55283,596.84199 C 256.21292,598.41211 254.39251,603.09175 252.50748,607.24118 C 250.62245,611.3906 249.08015,615.07181 249.08015,615.42163 C 249.08015,617.58581 262.15476,617.52235 267.26141,615.33339 z M 173.38733,615.24941 C 175.69338,614.72837 179.25318,614.03569 181.298,613.71013 C 183.34282,613.38457 185.70532,612.42873 186.548,611.58605 C 187.39068,610.74337 188.11178,610.42355 188.15043,610.87533 C 188.3385,613.0733 189.9466,607.24947 189.99455,604.19676 C 190.06207,599.89796 189.58369,599.18894 184.71071,596.36536 C 181.10552,594.27639 180.67651,594.23122 178.42884,595.70394 C 177.10201,596.57332 176.26548,597.68762 176.5699,598.18018 C 176.87432,598.67273 176.04651,600.11546 174.73034,601.38625 C 172.15924,603.86867 165.08015,614.17326 165.08015,615.43341 C 165.08015,616.46588 168.32112,616.3941 173.38733,615.24941 z M 200.0809,609.19395 C 201.21348,604.9879 199.924,598.10083 197.6683,596.30828 C 197.06982,595.83267 193.88015,595.16666 190.58015,594.82825 L 184.58015,594.21295 L 187.76792,595.85681 C 191.39994,597.72976 192.64818,602.03594 191.59872,609.07227 L 190.98355,613.19676 L 194.99331,613.19676 C 198.82564,613.19676 199.05075,613.01965 200.0809,609.19395 z M 277.82355,607.32353 C 277.45749,605.92371 277.77311,605.56521 279.07242,605.90499 C 282.27848,606.74339 280.7575,598.69756 276.55698,592.59859 C 274.54857,589.68247 272.33502,586.82325 271.63798,586.24476 C 270.04892,584.92595 260.83503,588.8175 259.11712,591.53303 C 258.01868,593.26935 258.31266,593.33105 264.5178,592.66653 C 270.53842,592.02178 271.08015,592.12012 271.08015,593.85776 C 271.08015,594.89945 271.68475,596.63938 272.4237,597.72425 C 273.16266,598.80913 274.3859,601.83426 275.14202,604.44676 C 275.89814,607.05926 276.92102,609.19676 277.4151,609.19676 C 277.90917,609.19676 278.09298,608.35381 277.82355,607.32353 z M 197.08015,588.66298 C 197.08015,583.27632 198.741,579.74991 204.97578,571.89858 C 207.50818,568.70959 210.58007,564.65959 211.80221,562.89858 C 213.02434,561.13758 214.66336,559.02176 215.44448,558.19676 C 216.68939,556.88192 221.04243,549.51256 223.12351,545.19676 C 224.91911,541.47299 225.96339,538.48434 226.37889,535.88014 C 226.82471,533.08585 226.79558,533.06913 222.70421,533.7716 C 217.13588,534.72766 217.33703,534.72708 210.93395,533.80518 C 207.82854,533.35807 203.92974,533.29052 202.26994,533.65508 C 199.44144,534.27632 199.05415,534.95712 196.09638,544.50733 C 191.16539,560.42873 183.03136,586.16033 182.45289,587.66779 C 181.72346,589.56866 188.31561,592.56069 194.22518,593.01099 C 196.98002,593.2209 197.08015,593.0684 197.08015,588.66298 z M 263.55164,586.75179 C 266.59232,585.40705 269.08015,584.03913 269.08015,583.71195 C 269.08015,583.38477 268.16837,581.32985 267.05398,579.14546 C 265.17139,575.45528 262.81301,563.19222 261.4867,550.19676 C 261.17797,547.17176 260.4427,543.13548 259.85276,541.22724 C 259.26283,539.31901 258.73515,536.42486 258.68015,534.79581 L 258.58015,531.83389 L 250.58015,531.43824 C 238.32751,530.83227 231.28188,530.90468 229.34236,531.65651 C 227.7049,532.29124 227.69836,532.42669 229.25004,533.56985 C 230.16848,534.24648 233.21372,539.46506 236.01725,545.16669 C 238.82077,550.86832 241.61865,556.14068 242.23475,556.88305 C 242.85086,557.62541 243.40562,559.04985 243.46755,560.04846 C 243.61642,562.44901 256.27,589.19676 257.25676,589.19676 C 257.67826,589.19676 260.51095,588.09652 263.55164,586.75179 z M 138.774,592.55728 C 138.00792,591.7912 138.85777,590.19676 140.03218,590.19676 C 140.49087,590.19676 141.12519,590.87176 141.44177,591.69676 C 142.01231,593.18355 140.03732,593.8206 138.774,592.55728 z M 301.56487,497.1063 C 300.83568,492.79027 296.22512,476.99409 289.7702,456.69676 C 287.8462,450.64676 285.2763,442.38552 284.05932,438.33844 C 282.84234,434.29137 280.74266,428.21637 279.39336,424.83844 C 278.04405,421.46052 276.74889,417.74544 276.51521,416.58271 C 276.28153,415.41999 274.90705,411.81999 273.4608,408.58271 C 272.01456,405.34544 269.51381,398.64676 267.9036,393.69676 C 264.01165,381.73247 259.0673,371.08667 257.77382,371.88608 C 257.141,372.27718 256.98864,371.87761 257.38085,370.85552 C 257.95261,369.36556 257.40675,369.26735 252.30079,369.94147 C 249.15444,370.35688 236.87317,370.69676 225.00909,370.69676 L 203.43803,370.69676 L 200.58448,376.93881 C 197.19667,384.34953 195.83126,384.52736 199.00741,377.14421 C 200.21726,374.33183 201.46215,369.93064 201.77382,367.36378 C 202.0855,364.79692 202.6515,361.8494 203.0316,360.81374 C 203.41171,359.77809 203.34138,356.85309 202.87533,354.31374 C 202.40927,351.7744 201.75744,347.55926 201.42682,344.94676 C 201.0962,342.33426 200.47309,340.19676 200.04212,340.19676 C 198.30367,340.19676 195.15371,349.11825 194.56944,355.69676 C 193.74717,364.95503 193.03745,367.47244 186.4905,384.35315 C 183.43086,392.24213 180.43815,400.04676 179.84003,401.69676 C 179.24192,403.34676 175.16935,408.15805 174.71846,408.45993 C 174.26757,408.76182 177.0461,408.87738 176.9644,412.64532 C 176.81245,419.65234 171.67159,424.66546 166.59488,431.11946 C 163.15531,435.49215 171.88235,427.7496 175.82602,421.81001 C 179.09856,416.88121 172.73783,412.68465 176.92134,407.42487 C 184.86252,397.44071 176.61563,404.39908 178.87748,399.11765 C 187.09462,379.93058 192.0956,364.24829 192.65541,355.91208 C 192.95884,351.39365 193.59946,346.79676 194.07901,345.69676 C 197.97669,336.75613 198.98455,333.85111 198.47485,333.02639 C 197.77896,331.90042 193.89627,330.27503 189.25726,329.16769 C 186.54795,328.52097 186.03805,328.64466 186.49581,329.83757 C 186.8046,330.64226 186.64553,331.04619 186.14234,330.73519 C 185.63914,330.4242 184.93859,332.76333 184.58556,335.93326 C 184.23253,339.10318 182.39939,345.1668 180.51192,349.40796 C 178.62444,353.64912 177.08015,357.74517 177.08015,358.51029 C 177.08015,359.27541 175.06805,368.97613 172.60882,380.06745 C 170.14959,391.15876 168.37333,401.46272 168.66158,402.96512 C 169.08791,405.18719 168.28976,406.71272 164.38291,411.14302 C 159.61606,416.54856 159.57932,416.64409 159.46919,423.92065 C 159.40816,427.9529 166.21352,431.53958 165.86205,431.89105 C 165.51058,432.24253 158.04265,431.66759 157.99681,430.61343 C 157.95098,429.55926 157.77157,427.57176 157.59812,426.19676 C 157.00207,421.47174 159.11435,414.77583 162.21227,411.5699 C 164.26416,409.44646 165.34918,407.20013 165.59338,404.5699 C 165.79116,402.43967 166.82749,397.32176 167.89633,393.19676 C 168.96518,389.07176 170.53517,382.32176 171.38522,378.19676 C 175.32623,359.07227 176.59251,354.26111 179.26865,348.24405 C 180.84709,344.69505 181.88517,341.13103 181.57548,340.324 C 181.26579,339.51696 181.54485,338.52759 182.19561,338.1254 C 182.94261,337.66373 183.4333,334.13191 183.5266,328.54545 C 183.64736,321.31476 184.25153,318.14252 186.83076,311.19676 C 188.56677,306.52176 191.4284,298.7312 193.18993,293.88441 C 196.29521,285.34034 196.54778,284.99024 201.48643,282.38441 C 204.28798,280.9062 208.80885,278.97316 211.53281,278.08876 C 217.96915,275.99906 218.33714,274.5078 212.62777,273.65163 C 210.11305,273.27452 207.73776,272.45541 207.34935,271.83137 C 205.94134,269.56921 200.17036,251.13983 199.10049,245.48899 C 198.49734,242.30326 197.76722,234.79948 197.478,228.81391 C 197.11669,221.33623 196.45945,217.17909 195.37747,215.52778 C 194.1831,213.70494 193.95069,211.70942 194.41519,207.26536 C 195.15513,200.18595 196.44283,196.99197 200.74512,191.56476 C 203.9718,187.49439 207.8416,185.9788 215.58015,185.75468 C 216.68015,185.72283 218.81109,184.8618 220.31557,183.8413 C 224.10947,181.26787 239.02994,181.42589 246.10563,184.11445 C 260.17828,189.46163 269.88297,205.04767 266.86009,217.44676 C 265.12804,224.5512 264.20145,223.18625 264.80259,214.41587 C 265.2796,207.45635 265.06669,206.10372 262.78571,201.60241 C 257.71231,191.59054 246.0827,184.07021 235.57981,184.00962 C 232.03073,183.98914 227.90713,184.67938 225.56363,185.6862 C 223.37271,186.62747 220.00515,187.50794 218.08015,187.64281 C 205.5746,188.51898 201.54025,190.6359 198.43159,197.95286 C 196.13757,203.35236 195.54985,212.73848 197.33515,215.46319 C 200.40123,220.14262 224.42267,222.01894 238.83015,218.70438 C 244.99355,217.28643 246.10149,216.71124 246.22255,214.86661 C 246.30088,213.67319 246.491,211.12584 246.64504,209.20583 C 246.79909,207.28581 246.44588,205.13744 245.86014,204.43166 C 244.3177,202.57313 245.41786,201.992 247.54046,203.54408 C 249.14975,204.72082 249.2545,205.64218 248.46745,211.69806 L 247.58015,218.52539 L 243.58015,219.75622 C 241.38015,220.43318 240.14265,221.03424 240.83015,221.09191 C 241.51765,221.14958 242.08015,221.58362 242.08015,222.05645 C 242.08015,222.52928 240.36867,222.79424 238.27687,222.64525 C 236.18507,222.49625 231.85803,223.25735 228.66124,224.33659 C 222.24763,226.50181 219.90638,226.1501 225.21382,223.81871 L 228.58015,222.33998 L 225.08015,222.46698 C 223.15515,222.53683 217.98015,222.30723 213.58015,221.95676 C 209.18015,221.60629 206.48015,221.5606 207.58015,221.85522 C 212.22003,223.09795 210.86309,223.98742 205.12159,223.4668 L 198.93171,222.90552 L 199.25593,226.26115 C 199.57985,229.61365 199.58481,229.61656 204.58015,229.38683 C 207.33015,229.26036 210.202,229.5666 210.96204,230.06735 C 213.37978,231.66029 207.78733,234.47427 203.09344,234.02664 C 200.88613,233.81614 199.08015,233.99806 199.08015,234.43092 C 199.08015,238.76756 207.71546,269.16541 209.43623,270.88617 C 210.91222,272.36216 219.93287,271.73099 224.58015,269.82656 C 229.46795,267.82357 238.99609,262.48191 242.17647,259.96172 C 244.27126,258.30177 246.91825,253.01035 246.39016,251.5384 C 245.79481,249.87897 247.98838,248.79403 248.61855,250.43624 C 249.43906,252.57444 246.44489,258.7146 243.30778,261.32708 C 241.74273,262.63041 236.77627,265.71525 232.27119,268.18228 C 227.76612,270.64932 224.08015,273.24796 224.08015,273.95704 C 224.08015,274.66611 222.85181,275.71328 221.3505,276.28407 C 217.87519,277.60538 217.11441,278.85186 217.09546,283.25563 C 217.07007,289.1558 218.87992,290.58748 227.1398,291.20119 C 232.64788,291.61044 235.24817,291.34333 237.98282,290.08736 C 241.97636,288.2532 247.8217,282.47948 250.88376,277.34448 L 252.88276,273.9922 L 249.94059,271.34448 C 247.49338,269.14219 246.98371,267.88559 246.91102,263.87502 C 246.86295,261.22307 247.33134,258.54557 247.95189,257.92502 C 248.78957,257.08734 249.08015,258.11493 249.08015,261.91497 C 249.08015,264.72999 249.35968,267.76163 249.70133,268.65196 C 250.48928,270.70533 254.46214,272.72671 259.50871,273.64192 C 261.66942,274.03378 265.26942,275.18262 267.50871,276.1949 C 269.748,277.20719 272.70515,278.34326 274.08015,278.7195 C 275.45515,279.09574 279.08627,280.50697 282.14929,281.85557 C 288.00825,284.43516 288.51032,285.16974 291.02268,294.83839 C 293.18303,303.15231 295.07833,320.04076 295.43965,334.19676 C 295.74252,346.06256 296.26922,350.24095 298.33888,357.19676 C 302.39779,370.83817 302.48045,371.64143 302.2016,394.73176 C 301.94132,416.2833 301.99192,416.91671 304.50782,423.60082 C 308.12477,433.21019 307.909,437.4014 303.43432,444.45208 C 300.0293,449.8173 298.08015,451.54457 298.08015,449.19676 C 298.08015,448.64676 298.49983,448.19676 299.01276,448.19676 C 300.05892,448.19676 301.6291,444.23927 301.19494,442.69676 C 301.04014,442.14676 301.25461,442.03789 301.67154,442.45482 C 302.77737,443.56065 306.06769,438.12218 306.06274,435.19676 C 306.05772,432.23601 303.73635,424.25804 301.9321,421.00076 C 300.99627,419.31128 300.64397,412.02877 300.61124,393.69676 L 300.56661,368.69676 L 297.3074,357.69676 C 294.7608,349.10185 293.8877,343.90617 293.31417,333.93365 L 292.58015,321.17053 L 287.41728,324.65154 C 284.5777,326.56609 280.4152,328.70656 278.16728,329.40813 C 275.91936,330.1097 274.08015,331.07515 274.08015,331.55357 C 274.08015,333.29996 278.2633,349.67045 279.11731,351.26619 C 279.6009,352.16978 280.23715,356.62336 280.5312,361.16304 C 280.82526,365.70271 281.49735,371.05494 282.02474,373.05688 C 284.21489,381.37055 288.02256,399.04194 288.62675,403.69676 C 288.9837,406.44676 289.9247,410.6096 290.71786,412.94752 C 291.88339,416.38303 291.9326,417.95719 290.97445,421.15523 C 289.71354,425.36375 293.08398,434.44834 295.8966,441.27178 C 296.62612,443.04162 300.77542,447.20948 300.75217,447.91464 C 300.68903,449.82984 290.08015,435.14631 290.08015,433.07394 C 290.08015,432.09325 289.5739,430.17977 288.95515,428.82176 C 288.13547,427.02276 288.12587,425.50435 288.91978,423.22694 C 290.16569,419.65292 287.01361,399.0227 282.55389,381.56249 C 281.16793,376.13634 279.62026,368.09676 279.11462,363.69676 C 278.60899,359.29676 277.03753,350.74676 275.6225,344.69676 C 274.20746,338.64676 272.82298,332.68426 272.54588,331.44676 C 272.26877,330.20926 271.66489,329.19676 271.20392,329.19676 C 270.32778,329.19676 263.63459,343.82888 259.56487,354.64112 C 257.33786,360.55773 257.28231,361.21812 258.63387,365.70899 C 259.42439,368.33569 261.25604,372.98939 262.70419,376.05055 C 264.15235,379.1117 267.25426,387.03439 269.59732,393.65652 C 271.94038,400.27865 275.93813,411.31041 278.48121,418.17154 C 283.3759,431.37724 291.7623,457.31242 299.61006,483.51311 C 302.85897,494.35998 304.73826,505.01008 304.03219,505.71615 C 303.32612,506.42222 302.06103,500.04308 301.56487,497.1063 z M 252.89373,367.49874 C 254.92126,366.50765 256.35515,365.24676 256.08015,364.69676 C 255.7818,364.10006 249.53067,363.67748 240.58015,363.64895 C 228.50965,363.61048 211.5558,362.73709 205.58015,361.8459 C 204.63857,361.70547 204.72078,367.17073 205.67459,368.12454 C 207.02678,369.47673 216.56401,370.04892 231.89373,369.69756 C 245.97357,369.37484 249.89583,368.96416 252.89373,367.49874 z M 252.852,360.58775 C 255.21045,360.11204 256.10067,358.76794 259.42128,350.66907 C 261.53389,345.51645 262.92687,340.75776 262.51677,340.0942 C 262.09303,339.40858 262.19111,339.14731 262.74398,339.489 C 263.27905,339.81968 265.10124,337.06547 266.79329,333.36853 C 269.22556,328.05431 269.76453,325.7358 269.36721,322.29618 C 268.69406,316.46859 270.63071,317.714 271.52604,323.68446 C 272.14177,327.79048 272.45313,328.19676 274.98414,328.19676 C 278.44013,328.19676 286.67782,323.86551 286.30537,322.24423 C 286.15425,321.58636 286.44487,321.30414 286.95121,321.61707 C 287.45755,321.93 288.89429,321.35809 290.14397,320.34616 C 291.99884,318.84418 292.38778,317.60551 292.26178,313.60152 C 291.89611,301.98145 288.09486,287.57613 284.73594,285.08144 C 282.57822,283.47889 266.07923,277.28907 258.77559,275.34207 C 255.20411,274.38998 254.86717,274.49756 253.27559,277.09803 C 249.76954,282.82657 242.25522,290.1429 238.21906,291.75786 C 235.22796,292.95466 231.96136,293.30837 226.46364,293.03074 C 219.54201,292.68122 218.64716,292.39149 216.61409,289.84179 C 214.73037,287.47937 214.49835,286.3799 215.14222,282.86702 C 215.56263,280.57338 215.83314,278.63018 215.74337,278.5488 C 215.35207,278.1941 202.20206,283.83933 200.2576,285.19676 C 198.94099,286.11589 196.69428,290.56923 194.45585,296.69676 C 192.44667,302.19676 189.29019,310.58436 187.44147,315.33587 C 183.8653,324.52717 183.57524,325.62685 184.95134,324.77637 C 185.4305,324.48023 188.018,325.35179 190.70134,326.71316 C 193.38468,328.07454 195.65645,329.19027 195.7497,329.19257 C 195.84296,329.19488 195.20897,327.38854 194.34083,325.17848 C 192.89049,321.48626 192.90075,320.66262 194.46732,315.028 C 196.25162,308.61021 200.62412,300.19676 202.17517,300.19676 C 203.52177,300.19676 203.31621,300.86256 200.68054,305.03772 C 197.87199,309.48676 195.08015,317.25971 195.08015,320.63016 C 195.08015,321.93009 196.39631,325.49573 198.00495,328.55381 C 200.8709,334.00206 205.68751,354.17162 204.72292,356.6853 C 203.71377,359.31511 206.08932,360.23972 216.14189,361.12981 C 226.23891,362.02382 247.27196,361.71325 252.852,360.58775 z M 241.17883,339.64227 C 236.96777,337.81462 237.75103,336.63358 242.26315,338.00728 C 248.07092,339.77544 251.26408,340.30339 250.70793,339.40351 C 250.41104,338.92313 251.51203,338.53009 253.15458,338.53009 C 257.45177,338.53009 262.58083,333.19242 264.67191,326.54433 C 265.59702,323.60317 266.79047,321.19676 267.32403,321.19676 C 267.85758,321.19676 268.04591,321.84361 267.74252,322.63421 C 267.43914,323.42481 266.71325,325.78731 266.12943,327.88421 C 264.82071,332.58477 262.72452,335.24744 257.6906,338.60358 C 253.18444,341.60786 246.65424,342.01865 241.17883,339.64227 z M 221.08015,274.19676 C 221.90515,273.6636 222.13015,273.22739 221.58015,273.22739 C 221.03015,273.22739 219.90515,273.6636 219.08015,274.19676 C 218.25515,274.72992 218.03015,275.16613 218.58015,275.16613 C 219.13015,275.16613 220.25515,274.72992 221.08015,274.19676 z M 204.81112,231.50377 C 203.83815,231.25023 202.48815,231.2669 201.81112,231.54082 C 201.13408,231.81475 201.93015,232.02219 203.58015,232.00181 C 205.23015,231.98143 205.78408,231.75731 204.81112,231.50377 z M 204.83512,220.77512 C 205.15322,220.45702 203.98848,220.19676 202.24682,220.19676 C 200.50515,220.19676 199.08015,220.58488 199.08015,221.05925 C 199.08015,221.98033 203.8662,221.74404 204.83512,220.77512 z M 132.35098,347.59259 C 132.68327,347.2603 133.54577,347.22478 134.26765,347.51365 C 135.06538,347.83287 134.82842,348.06983 133.66348,348.11781 C 132.60932,348.16123 132.01869,347.92489 132.35098,347.59259 z M 257.0035,260.66981 C 254.48634,259.88195 248.03266,259.39963 247.02708,258.28848 C 244.6355,255.64581 250.41022,254.52463 253.7428,257.14604 C 256.98613,259.69724 263.69731,260.64621 268.79285,259.27412 L 272.86335,258.17805 L 271.89289,253.9374 C 271.29293,251.3157 271.19214,237.66282 271.62889,218.1751 C 272.26627,189.73537 272.17621,186.52137 270.70775,185.30266 C 269.81257,184.55972 269.08015,183.31415 269.08015,182.53471 C 269.08015,181.75528 267.2919,179.36471 265.10625,177.22235 C 262.12719,174.30226 259.99929,173.15722 256.60625,172.6484 C 251.31986,171.85566 242.78337,172.90754 243.61273,174.24948 C 243.92694,174.75789 243.52447,174.92076 242.71835,174.61142 C 241.78605,174.25366 242.15592,175.34764 240.61347,177.61756 C 237.82865,181.71579 232.81771,185.74537 234.92253,181.52616 C 236.79663,177.76944 243.91455,171.08379 251.22031,170.70881 C 256.16448,170.45505 258.15613,170.89406 262.96707,173.29812 C 267.7385,175.68243 269.25658,177.10493 271.57439,181.36351 L 274.38854,186.53403 L 273.55981,211.61539 C 273.10401,225.41015 272.64396,238.55322 272.53747,240.82222 C 272.29086,246.07702 273.86593,256.23372 275.17137,257.80668 C 277.4387,260.53863 263.56816,262.72454 257.0035,260.66981 z M 212.33015,259.54909 C 210.54265,258.66791 209.08015,257.57122 209.08015,257.112 C 209.08015,256.65277 210.85816,255.74434 213.03127,255.09326 C 216.1274,254.16563 217.96675,254.18507 221.53128,255.18308 C 224.03316,255.88356 226.08015,256.87116 226.08015,257.37775 C 226.08015,258.49247 219.84921,261.20577 217.36227,261.17399 C 216.3821,261.16147 214.11765,260.43026 212.33015,259.54909 z M 220.49262,258.59198 C 221.35944,258.25934 221.81969,257.58434 221.51539,257.09198 C 220.78925,255.91705 214.36129,255.93285 213.63293,257.11135 C 212.62628,258.74015 217.41367,259.77348 220.49262,258.59198 z M 250.11195,252.63789 C 250.09446,252.05551 250.74084,250.70551 251.54835,249.63789 C 252.35585,248.57027 253.03085,248.17325 253.04835,248.75563 C 253.06584,249.33801 252.41946,250.68801 251.61195,251.75563 C 250.80445,252.82325 250.12945,253.22027 250.11195,252.63789 z M 211.19505,248.80384 C 209.88324,248.07671 209.25753,247.20516 209.80458,246.86707 C 210.92456,246.17489 216.0603,248.28866 216.07235,249.44676 C 216.08411,250.57808 213.86921,250.28611 211.19505,248.80384 z M 219.10021,247.67259 C 219.79593,246.8343 220.57109,246.35436 220.82279,246.60606 C 221.51628,247.29956 220.10724,249.19676 218.89869,249.19676 C 218.23559,249.19676 218.31146,248.62298 219.10021,247.67259 z M 247.55085,251.6935 C 247.14745,251.04078 253.97122,244.19676 255.55667,244.19676 C 257.66864,244.19676 258.50035,243.38228 260.02826,239.81782 C 262.82762,233.28717 263.16438,225.19676 260.63685,225.19676 C 258.71256,225.19676 256.08015,229.08035 256.08015,231.91927 C 256.08015,233.53009 255.49471,234.19676 254.08015,234.19676 C 252.98015,234.19676 251.74265,234.30926 251.33015,234.44676 C 250.91765,234.58426 250.53919,233.57176 250.48913,232.19676 C 250.43907,230.82176 250.04737,225.64676 249.6187,220.69676 C 249.47467,219.03357 246.87137,208.57346 246.8108,207.28521 C 246.69111,204.73937 249.23831,212.07223 249.46786,212.28824 C 249.81358,212.61355 250.33312,215.31355 250.6224,218.28824 C 250.91168,221.26292 251.48098,225.94676 251.8875,228.69676 L 252.62664,233.69676 L 255.11595,229.19676 C 257.16829,225.48669 258.17476,224.64166 260.84958,224.38289 C 263.17263,224.15815 264.27828,224.54951 264.74321,225.7611 C 266.00466,229.04837 260.51962,245.19676 258.14161,245.19676 C 257.64777,245.19676 256.57744,245.45244 255.76309,245.76493 C 254.94874,246.07743 247.91395,252.281 247.55085,251.6935 z M 224.67936,232.81558 L 221.89258,231.67648 L 224.05693,229.71778 C 226.2158,227.76402 229.73034,227.51226 236.41372,228.83259 C 239.16063,229.37526 239.19011,229.44566 237.37767,231.13421 C 234.9637,233.38316 228.24453,234.27284 224.67936,232.81558 z M 231.58015,231.19676 C 232.37227,229.91508 228.06341,229.91508 226.08015,231.19676 C 224.93878,231.93437 225.34306,232.16979 227.77113,232.18145 C 229.52617,232.18987 231.24023,231.74676 231.58015,231.19676 z "
       id="path3252"
       sodipodi:nodetypes="csssscccsssssssssssssssssssssssssssssssssssssssssssssssssssssssssssscccsssssssssssssssssssscccsssccccccccsssccssssscccssssccsssscccccsccsssssssccsssssssssccsccccccccsssssssssccsssssssssssccsssscccssssssccssccssssssssscccsssssssssssssssssssssssssssssssssssssssssssssssssssssssssssssssssscccsssscccsscccsssssssssssssssscccssssssssssssssssssssccccccsssssssssssssssssssssssssccsssssccsssssssssssssssssssssssssssssssssccssssssssccsssccssccssccssccsscccssssssssssscccssccsssssccssccsssccssccssccssssssssssscccssssccccssccssc" />
  </g>
</svg>
