<?xml version="1.0" encoding="UTF-8" standalone="no"?>
<!-- Created with Inkscape (http://www.inkscape.org/) -->
<svg
   xmlns:dc="http://purl.org/dc/elements/1.1/"
   xmlns:cc="http://web.resource.org/cc/"
   xmlns:rdf="http://www.w3.org/1999/02/22-rdf-syntax-ns#"
   xmlns:svg="http://www.w3.org/2000/svg"
   xmlns="http://www.w3.org/2000/svg"
   xmlns:sodipodi="http://sodipodi.sourceforge.net/DTD/sodipodi-0.dtd"
   xmlns:inkscape="http://www.inkscape.org/namespaces/inkscape"
   width="1052.3622"
   height="744.09448"
   id="svg2986"
   sodipodi:version="0.32"
   inkscape:version="0.45.1"
   version="1.0"
   sodipodi:docbase="/home/flecox/pyweek/herobot/arte"
   sodipodi:docname="mujer-4.svg"
   inkscape:output_extension="org.inkscape.output.svg.inkscape">
  <defs
     id="defs2988" />
  <sodipodi:namedview
     id="base"
     pagecolor="#ffffff"
     bordercolor="#666666"
     borderopacity="1.0"
     gridtolerance="10000"
     guidetolerance="10"
     objecttolerance="10"
     inkscape:pageopacity="0.0"
     inkscape:pageshadow="2"
     inkscape:zoom="2.8"
     inkscape:cx="180.37989"
     inkscape:cy="514.06404"
     inkscape:document-units="px"
     inkscape:current-layer="layer1"
     width="1052.3622px"
     height="744.09448px"
     inkscape:window-width="1280"
     inkscape:window-height="740"
     inkscape:window-x="0"
     inkscape:window-y="0" />
  <metadata
     id="metadata2991">
    <rdf:RDF>
      <cc:Work
         rdf:about="">
        <dc:format>image/svg+xml</dc:format>
        <dc:type
           rdf:resource="http://purl.org/dc/dcmitype/StillImage" />
      </cc:Work>
    </rdf:RDF>
  </metadata>
  <g
     inkscape:label="Layer 1"
     inkscape:groupmode="layer"
     id="layer1">
    <path
       style="fill:#000000"
       d="M 151.37268,514.49389 C 146.42268,513.44711 140.92947,512.30561 139.16555,511.95723 C 137.40163,511.60885 135.27324,510.5667 134.43579,509.64132 C 133.07746,508.14039 133.07593,507.72642 134.42166,505.80513 C 135.29773,504.55436 137.49029,503.39336 139.65142,503.03586 C 145.6887,502.03718 148.79377,500.49115 151.00819,497.38128 C 152.15418,495.77189 154.37138,493.05416 155.93529,491.34189 C 157.49921,489.62962 158.50276,487.74333 158.1654,487.15013 C 157.82805,486.55693 157.91853,486.40344 158.36647,486.80903 C 158.81441,487.21463 160.56442,485.63963 162.25538,483.30903 C 165.85843,478.34307 167.9853,474.13572 170.05125,474.1338 C 171.22772,474.13271 170.9979,476.85076 169.63508,477.64475 C 168.08963,478.54514 160.18272,488.26412 152.71236,498.44574 L 150.05204,502.07159 L 154.71236,503.74409 C 161.6692,506.24076 168.73778,506.01919 172.18758,503.19631 C 173.73577,501.92947 175.11744,500.10967 175.25795,499.15231 C 175.39846,498.19495 175.95344,497.11014 176.49123,496.74162 C 178.29775,495.50373 181.82016,489.8524 181.1826,489.21484 C 180.83555,488.8678 181.32857,487.72531 182.2782,486.67599 C 184.65518,484.04945 185.23069,477.57159 183.08705,477.57159 C 181.30767,477.57159 173.2375,475.74444 158.32175,471.96454 C 148.27522,469.41858 138.23279,464.41598 139.39464,462.53606 C 139.75931,461.94601 140.56987,462.12592 141.43229,462.98834 C 144.60035,466.1564 154.17857,469.6263 169.37268,473.11027 C 183.25808,476.29417 187.55336,476.84527 201.87268,477.28013 C 217.33707,477.74977 219.09447,477.60958 229.87268,475.04647 C 241.80741,472.20834 255.00422,467.8908 255.87268,466.54018 C 256.14768,466.11249 256.59768,465.78563 256.87268,465.81382 C 258.73155,466.00432 261.94775,464.10597 263.32358,462.00618 C 265.23496,459.08905 265.07154,457.80329 260.34506,438.57159 C 257.48282,426.92531 256.57,421.89702 255.3528,411.07159 C 255.22912,409.97159 255.02069,408.84659 254.88961,408.57159 C 254.75854,408.29659 254.72257,407.1411 254.80967,406.00383 C 254.96228,404.01138 251.51567,401.57159 248.54841,401.57159 C 246.36659,401.57159 248.34382,383.20118 251.40063,375.07159 C 252.84827,371.22159 254.6147,367.39659 255.32603,366.57159 C 257.19363,364.40555 258.24418,358.35006 258.53555,348.07159 C 258.67588,343.12159 258.87705,337.49659 258.9826,335.57159 C 259.262,330.47605 256.36526,316.59643 252.95359,306.68379 C 249.0844,295.44183 247.55543,287.57233 247.68596,279.57159 C 247.77518,274.10293 245.8705,256.92117 244.27719,248.82159 C 243.61541,245.45749 242.24577,246.10057 241.08247,250.32159 C 240.51405,252.38409 239.10001,257.362 237.94014,261.3836 C 236.78028,265.40521 236.04296,269.03809 236.30166,269.45667 C 236.56036,269.87526 237.2247,272.88485 237.77798,276.14466 C 238.33125,279.40447 240.1105,288.59659 241.73187,296.57159 C 244.40265,309.70837 246.12599,321.11475 247.32205,333.57159 C 248.22896,343.017 250.00248,359.3343 250.80012,365.57159 C 251.2573,369.14659 251.46066,372.25909 251.25202,372.48826 C 249.96661,373.90016 249.60594,371.45632 245.31846,332.28285 C 243.88645,319.19904 241.83871,304.34904 240.76791,299.28285 C 239.69712,294.21666 237.93605,284.91617 236.85442,278.61509 L 234.88783,267.15859 L 237.96729,256.11509 C 239.66099,250.04117 241.26376,244.1704 241.529,243.06894 C 241.97375,241.22209 241.12224,238.31085 239.04362,234.57159 C 234.60413,226.58537 234.00045,223.12816 237.84023,227.67993 C 238.94988,228.99534 240.91951,233.44659 242.21718,237.57159 L 244.57658,245.07159 L 248.4231,244.8285 C 253.78349,244.48974 260.7676,241.71797 264.65748,238.3856 C 266.46411,236.83789 268.43171,235.57159 269.02992,235.57159 C 269.75642,235.57159 269.79193,235.15653 269.13686,234.32159 C 268.59746,233.63409 266.47883,227.67159 264.42878,221.07159 C 260.77411,209.30563 258.41652,202.55937 256.91524,199.57159 C 255.06948,195.89823 242.5684,191.57159 233.80063,191.57159 L 229.14878,191.57159 L 228.01073,197.23837 C 227.3848,200.3551 226.87268,204.11036 226.87268,205.58338 C 226.87268,207.94304 224.28913,211.57159 222.60904,211.57159 C 222.27565,211.57159 220.78919,212.03303 219.3058,212.59702 C 216.77281,213.56006 216.70879,213.73301 218.25338,215.43977 C 219.81742,217.16801 219.2601,217.58344 206.88459,223.91434 C 194.10573,230.45158 189.39824,231.97154 190.45436,229.21934 C 190.89954,228.05921 188.81131,225.87316 182.12268,220.49738 C 180.15463,218.91563 180.63539,217.61359 183.86636,215.77508 C 185.51288,214.83816 186.86288,213.84394 186.86636,213.5657 C 186.86984,213.28746 185.54403,212.4717 183.92013,211.75289 C 180.04955,210.0396 179.52434,207.98898 181.42418,202.00792 C 182.28659,199.29294 183.37114,195.87851 183.83432,194.4203 L 184.67645,191.769 L 178.85181,193.73602 C 173.13079,195.66803 172.95641,195.83973 169.04998,203.38731 C 164.80606,211.58693 159.56121,226.33131 158.40179,233.32159 C 157.69901,237.55875 157.70624,237.57159 160.79505,237.57159 C 163.6895,237.57159 164.12502,237.062 167.41863,229.82159 C 171.90204,219.96557 173.45445,217.211 174.77342,216.77134 C 175.92176,216.38856 172.51728,224.32343 167.20696,234.40658 C 162.6264,243.10409 162.21008,247.27054 165.57102,250.77861 C 167.00526,252.27564 168.61018,253.23382 169.13751,252.90792 C 169.66484,252.58201 170.4609,252.90531 170.90653,253.62636 C 171.86905,255.18375 171.25131,268.00572 169.87335,275.07159 C 169.33705,277.82159 168.00452,294.02159 166.91218,311.07159 C 163.97155,356.97066 162.80379,372.95612 162.30995,374.07159 C 161.82908,375.15775 162.6825,346.21247 163.37137,338.07159 L 163.79447,333.07159 L 162.76954,337.57159 C 160.2127,348.79753 156.59012,366.56485 155.83728,371.57159 C 155.38242,374.59659 153.88922,383.82159 152.51906,392.07159 C 151.1489,400.32159 148.83378,416.07159 147.37434,427.07159 C 143.79282,454.06601 141.67921,464.71145 141.15381,464.18605 C 140.69732,463.72956 142.26858,455.53096 146.51958,423.57159 C 150.32371,394.97175 153.2954,376.29364 156.54286,360.57159 C 157.3949,356.44659 158.67549,349.69659 159.38862,345.57159 C 160.10175,341.44659 161.41849,334.52518 162.3147,330.19067 C 163.21091,325.85617 163.707,322.07257 163.41711,321.78268 C 163.12722,321.49279 163.44863,320.56532 164.13136,319.72164 C 165.12151,318.49806 165.11975,318.33963 164.12268,318.93865 C 163.34812,319.40399 162.87268,319.12834 162.87268,318.21394 C 162.87268,317.40231 163.33268,316.58492 163.89491,316.39751 C 165.32465,315.92093 165.64483,313.19571 166.31112,295.83176 C 166.63275,287.44986 167.56568,277.40794 168.38429,273.51638 C 169.20291,269.62483 169.85382,265.23276 169.83076,263.75621 C 169.78952,261.11489 169.75794,261.12804 167.87268,264.57159 C 166.81879,266.49659 165.93765,269.68864 165.9146,271.66504 C 165.85213,277.02071 163.62795,283.05178 150.17934,314.3328 C 146.30405,323.34659 145.79319,325.38005 145.97707,331.0598 C 146.16971,337.01067 145.89234,337.96845 142.49404,343.08666 C 140.38426,346.26421 139.11349,349.16717 139.52915,349.85966 C 140.01208,350.66423 132.20676,351.16165 131.12079,350.28146 C 129.63753,349.07925 137.31879,347.95527 140.56458,343.43737 C 144.21058,338.3624 145.84195,330.83828 143.60361,329.42091 C 142.92894,328.99369 143.12535,327.44824 144.17549,324.92091 C 145.05519,322.80378 148.30113,314.99659 151.3887,307.57159 C 154.47627,300.14659 158.11121,291.14659 159.46633,287.57159 C 160.82146,283.99659 162.43612,280.0725 163.05447,278.8514 C 163.67281,277.63029 164.11017,275.15529 164.02636,273.3514 C 163.9383,271.45604 165.23801,267.18839 167.10541,263.24122 C 169.83079,257.48048 170.10474,256.28096 168.85475,255.58143 C 168.03961,255.12526 167.01911,254.7275 166.58697,254.69752 C 163.18915,254.46182 160.29051,246.355 161.98311,241.82159 C 162.69682,239.91003 162.48796,239.57159 160.59461,239.57159 C 158.74316,239.57159 157.96645,240.71385 156.00476,246.32159 C 153.46176,253.59107 150.68414,263.32323 150.5946,265.2776 C 150.56421,265.94091 150.21374,266.28238 149.81577,266.03642 C 147.52639,264.6215 144.43804,277.49726 139.89269,307.40706 C 138.07094,319.39476 137.49588,321.30033 134.20274,326.26166 C 130.30177,332.13871 130.15289,333.05642 131.27294,344.32159 C 131.67669,348.38235 131.60612,351.57159 131.11252,351.57159 C 130.07931,351.57159 127.80471,337.99402 128.34814,335.07038 C 128.55247,333.97105 128.75409,332.35794 128.79617,331.4857 C 128.83825,330.61346 130.39344,327.91346 132.25215,325.4857 C 135.92299,320.691 137.13449,316.37729 138.96837,301.57159 C 139.61555,296.34659 141.21108,287.1634 142.514,281.1645 C 144.69365,271.12891 145.47994,268.78908 148.59409,263.07159 C 150.67238,259.25592 156.10298,242.05862 156.01498,239.57159 C 155.70143,230.71018 165.85301,202.32485 171.97293,194.95079 C 172.55104,194.25421 176.02749,192.72648 179.69836,191.55584 C 192.78172,187.38355 194.20885,185.57159 184.41163,185.57159 C 177.6702,185.57159 174.76343,183.95346 173.31673,179.3953 C 172.99838,178.39226 172.0632,177.57159 171.23857,177.57159 C 168.1797,177.57159 162.90174,172.40217 161.67779,168.20743 C 160.40234,163.83619 156.9841,158.3847 155.92794,159.03744 C 155.58326,159.25046 155.21104,158.44529 155.10079,157.24817 C 154.57887,151.58127 155.12501,147.89938 156.91781,144.99857 C 159.4443,140.91063 159.38959,140.22993 156.26483,136.87311 C 153.92445,134.35893 153.71393,133.51351 154.2123,128.63042 C 154.54903,125.33116 155.57392,122.18196 156.81587,120.63042 C 160.22492,116.37155 162.59266,111.3137 163.3749,106.61938 C 163.96117,103.10113 165.26981,100.95837 169.61322,96.404753 C 175.02746,90.728491 175.1759,90.651408 179.54033,91.249621 C 181.97721,91.583632 184.9614,91.398853 186.17185,90.839001 C 189.0675,89.499724 198.46182,86.843497 202.87268,86.116871 C 208.11924,85.252576 222.79664,84.796011 222.57022,85.504145 C 222.46157,85.843946 224.06272,88.47771 226.12833,91.356953 C 228.51652,94.68585 232.36918,98.184913 236.70946,100.96696 C 244.5145,105.96987 246.34176,109.09685 246.15371,117.12879 C 246.05263,121.44608 246.47842,122.78906 248.72979,125.254 C 250.9379,127.67157 251.30744,128.79149 250.76775,131.43027 C 250.40518,133.20304 249.41854,135.42257 248.57522,136.36254 C 247.7319,137.30252 246.72356,139.78676 246.33447,141.88309 C 245.71264,145.23332 245.88393,145.76177 247.74985,146.24972 C 250.56664,146.98633 250.43394,147.86276 246.89544,151.89289 C 245.25796,153.75788 244.20796,155.57353 244.56211,155.92768 C 244.91626,156.28183 244.69836,156.57159 244.07789,156.57159 C 243.45742,156.57159 242.43567,158.48409 241.80733,160.82159 C 241.08407,163.51218 239.21988,166.44754 236.72668,168.82159 C 233.26154,172.12112 232.1929,172.57159 227.83057,172.57159 C 224.09022,172.57159 218.94411,169.88179 218.94411,168.75016 C 218.94411,166.98028 222.98569,169.28386 226.27465,170.53432 C 228.08817,171.22382 229.79053,171.08603 232.27288,170.04884 C 236.32274,168.3567 238.52115,165.55546 239.95128,160.26492 C 240.51723,158.17124 242.50966,154.76541 244.37889,152.6964 C 247.70052,149.01975 247.73373,148.8971 245.84553,147.28037 C 243.05409,144.89027 243.47074,137.34813 246.52074,135.05767 C 247.88321,134.0345 248.50729,132.78297 248.13665,131.8171 C 247.7358,130.7725 247.92866,130.48815 248.71033,130.97125 C 249.58227,131.51013 249.56677,130.96879 248.65062,128.88529 C 247.36021,125.95065 245.88031,124.44884 244.88503,125.06395 C 244.56431,125.26217 244.31496,122.41998 244.33093,118.74797 C 244.37247,109.19566 243.0531,106.87723 234.34498,101.20038 C 230.23521,98.521222 226.87268,96.014721 226.87268,95.630382 C 226.87268,95.246043 225.22252,93.003747 223.20566,90.647501 L 219.53865,86.363419 L 211.45567,86.975921 C 202.35061,87.665873 191.46455,89.830126 192.399,90.764572 C 193.34174,91.70731 187.0503,92.891311 180.59264,92.98644 C 175.03025,93.068381 174.65099,93.247594 170.5205,97.745971 C 167.26476,101.29169 165.9036,103.827 164.88328,108.24597 C 164.01564,112.00366 162.28494,115.63687 160.00769,118.48119 C 157.1232,122.08396 156.40448,123.9137 156.07974,128.48119 C 155.72468,133.47503 155.9592,134.33029 158.27747,136.4959 C 161.43459,139.44512 161.43727,139.79671 158.35055,146.07159 C 155.12622,152.62621 155.23905,154.25019 159.27112,159.32171 C 161.12958,161.65928 162.9321,165.07481 163.27672,166.91178 C 163.84577,169.94504 165.45747,171.98271 169.94869,175.34709 C 171.37038,176.41208 171.40769,175.95984 170.32966,170.72861 C 169.67238,167.53911 168.68385,164.06149 168.13292,163.00056 C 167.58199,161.93963 166.81139,156.13599 166.42047,150.10359 C 166.02955,144.07119 165.25148,138.27938 164.69143,137.23291 C 163.97782,135.89952 163.99343,135.52818 164.74359,135.99181 C 165.36858,136.37807 166.07203,135.49196 166.43399,133.86248 C 166.77495,132.32749 168.20103,127.58409 169.60304,123.32159 C 171.92051,116.27585 172.39022,115.57159 174.77187,115.57159 C 176.23538,115.57159 177.9002,116.38601 178.544,117.4169 C 179.23707,118.52668 181.02699,119.33737 183.03455,119.45075 C 184.87052,119.55444 188.62268,119.74559 191.37268,119.87553 C 194.12268,120.00546 197.27268,120.60184 198.37268,121.20083 C 199.47268,121.79981 201.83254,122.56649 203.61681,122.90456 C 205.40109,123.24264 208.63044,124.37417 210.79315,125.41907 C 213.14801,126.55682 215.15604,126.96845 215.79902,126.44525 C 216.51537,125.86234 216.56386,125.94697 215.94474,126.69953 C 215.31619,127.46355 216.58555,129.06749 219.87897,131.67079 C 222.55316,133.78462 225.10823,136.08955 225.55691,136.79285 C 226.83751,138.80021 230.58874,140.57159 233.55911,140.57159 C 235.5696,140.57159 235.98111,140.86316 235.14738,141.69689 C 233.44262,143.40165 227.52694,141.89692 224.88725,139.0871 C 223.61934,137.73747 222.20253,136.86773 221.73877,137.15435 C 221.27502,137.44096 221.11767,137.08959 221.38909,136.37353 C 221.89892,135.02854 216.50304,130.87819 214.82104,131.32159 C 214.29944,131.45909 213.98518,131.01735 214.12268,130.33996 C 214.68907,127.54963 197.97683,122.41836 186.87268,121.97321 C 183.84768,121.85194 180.84471,121.71196 180.19941,121.66215 C 179.5541,121.61234 177.60577,120.37643 175.86977,118.91568 C 173.99373,117.3371 172.82033,116.83006 172.97701,117.66568 C 173.122,118.43893 172.45305,120.87159 171.49044,123.07159 C 168.22597,130.53246 167.09307,136.74337 167.93354,142.57159 C 168.36976,145.59659 168.76642,150.77159 168.81499,154.07159 C 168.9086,160.43105 169.93892,163.26672 171.74942,162.14777 C 172.4413,161.72016 172.6287,162.04382 172.25424,163.01965 C 171.92669,163.87322 172.15685,164.57159 172.76569,164.57159 C 173.37454,164.57159 173.87268,165.49815 173.87268,166.63061 C 173.87268,167.76307 173.42946,168.4157 172.88774,168.0809 C 171.20455,167.04063 172.94219,173.7684 175.53012,178.31166 C 176.93831,180.78381 178.86834,182.74174 180.15901,183.00744 C 185.13192,184.0312 188.87268,184.1737 188.87268,183.33938 C 188.87268,182.85218 189.28937,182.71108 189.79865,183.02584 C 190.82551,183.66047 197.45674,181.58045 204.66887,178.36148 C 207.25597,177.20679 210.25628,176.09484 211.33624,175.8905 C 213.95388,175.39519 218.04683,171.46779 217.48128,169.99401 C 217.2336,169.34854 217.69734,167.53595 218.51183,165.96602 C 219.52262,164.01771 219.64297,162.99502 218.89096,162.74435 C 218.10411,162.48207 219.37195,161.97616 220.20339,160.97434 C 222.05547,158.74272 224.81859,156.10393 224.65975,158.85659 C 224.58044,160.23121 221.54349,161.17764 221.00622,161.89231 C 219.9734,163.26618 218.84602,171.53123 219.47825,178.07159 C 220.18099,185.34138 220.892,186.53056 224.55125,186.55628 C 225.74947,186.5647 227.4868,187.32857 228.412,188.25377 C 229.55377,189.39553 232.22709,190.05256 236.73343,190.29892 C 244.99373,190.75052 254.2272,194.01577 257.1854,197.53139 C 258.41955,198.99809 260.02152,202.19465 260.74533,204.63485 C 261.46915,207.07506 263.10429,211.99659 264.37898,215.57159 C 265.65367,219.14659 267.44854,224.43758 268.36758,227.32935 C 269.28662,230.22111 270.38624,232.37223 270.81117,232.10961 C 272.46962,231.08463 270.5204,236.70493 268.79936,237.9104 C 266.84897,239.2765 266.8517,239.11644 268.42987,259.57159 C 268.79056,264.24659 269.79062,270.99659 270.65223,274.57159 C 271.89136,279.71299 272.16258,285.92727 271.94985,304.30274 L 271.68091,327.53389 L 275.90409,336.01897 C 280.00643,344.26124 280.25094,345.45722 279.69712,354.57159 C 279.61357,355.94659 280.51047,360.67159 281.69023,365.07159 C 282.87,369.47159 284.42836,378.42169 285.15326,384.96071 L 286.47126,396.84983 L 282.62133,399.63871 C 278.17499,402.85962 271.30409,404.57159 262.82346,404.57159 C 258.728,404.57159 256.87356,404.96131 256.8755,405.82159 C 256.88627,410.60124 259.36674,426.72662 261.37484,435.07159 C 262.69835,440.57159 264.53497,448.87006 265.45623,453.51264 L 267.13124,461.95369 L 264.32715,464.18959 C 262.7849,465.41934 259.8827,467.1652 257.87782,468.06927 L 254.23258,469.71305 L 258.80263,474.34868 C 261.31616,476.89828 263.27009,479.22895 263.1447,479.52795 C 263.01932,479.82695 263.35431,481.64659 263.88913,483.57159 C 264.42395,485.49659 264.86404,491.24821 264.8671,496.35297 C 264.8731,506.33115 264.29905,507.39739 259.56114,506.20825 C 257.71937,505.74599 257.29636,505.01835 257.46376,502.6004 C 257.57909,500.93455 257.22525,499.57159 256.67744,499.57159 C 254.22204,499.57159 249.96354,503.93288 248.02981,508.42796 C 245.39859,514.5444 243.63375,514.99624 226.24433,514.00556 C 215.1494,513.37347 213.87268,513.1107 213.87268,511.45922 C 213.87268,509.14046 217.25525,506.9238 222.16235,506.02683 C 226.84215,505.17142 229.01571,502.40475 235.13375,489.51587 C 238.31143,482.82145 239.51539,479.1534 239.15457,477.26587 C 238.8713,475.78402 238.52881,474.57159 238.39348,474.57159 C 238.25816,474.57159 234.37312,475.54066 229.76006,476.72508 C 222.59513,478.56471 218.87595,478.85449 204.24238,478.71334 C 187.98566,478.55653 187.08589,478.64825 186.59854,480.5119 C 186.31609,481.59199 186.56432,482.63547 187.15016,482.83075 C 187.73601,483.02603 188.31954,484.06011 188.44691,485.1287 C 188.57428,486.19729 189.12346,488.47374 189.66732,490.18748 C 190.79766,493.7493 188.18771,503.13685 185.52599,505.08315 C 184.69103,505.69368 183.26802,508.0423 182.36375,510.3023 C 180.92478,513.89864 180.39475,514.35248 178.11622,513.93931 C 174.3744,513.26079 174.15763,512.99017 174.65291,509.61562 C 174.89863,507.9414 174.74601,506.57159 174.31376,506.57159 C 173.8815,506.57159 170.94096,508.82159 167.77921,511.57159 C 164.61747,514.32159 161.65756,516.53234 161.20164,516.48437 C 160.74571,516.4364 156.32268,515.54068 151.37268,514.49389 z M 164.21987,512.74044 C 165.13132,511.73331 165.53856,510.53616 165.12486,510.08011 C 164.71116,509.62407 164.82764,509.50818 165.38371,509.82259 C 165.93977,510.137 167.26328,509.75914 168.32484,508.98291 C 170.10663,507.68003 169.95211,507.57153 166.31381,507.57077 C 161.12253,507.56969 147.46239,504.70589 147.04567,503.53127 C 146.86581,503.02431 144.93788,503.518 142.76137,504.62838 C 140.58487,505.73875 138.40062,506.39787 137.90748,506.0931 C 137.41435,505.78833 136.69713,506.04662 136.31366,506.66708 C 135.31012,508.29085 137.28087,509.21166 145.81646,511.10717 C 149.97238,512.03007 154.49768,513.1516 155.87268,513.59944 C 159.97396,514.93524 162.46567,514.67882 164.21987,512.74044 z M 243.60819,511.42289 C 244.62373,511.27113 245.45412,509.79035 246.26941,506.67729 C 246.5061,505.77355 228.20737,505.96076 226.37268,506.88085 C 225.27268,507.4325 223.54136,508.29477 222.5253,508.79701 C 221.50924,509.29924 220.43758,509.46982 220.14382,509.17606 C 219.85006,508.8823 218.65638,509.18862 217.4912,509.85677 C 215.61937,510.93013 216.12956,511.14454 221.87268,511.69805 C 227.36437,512.22734 239.23023,512.07712 243.60819,511.42289 z M 180.71216,509.02454 C 182.26411,505.61839 182.24596,505.57159 179.37268,505.57159 C 177.26157,505.57159 176.87268,506.03826 176.87268,508.57159 C 176.87268,512.29538 179.10204,512.55838 180.71216,509.02454 z M 247.47495,502.14746 C 249.13084,501.16931 250.99778,499.40208 251.62371,498.22029 C 257.35219,487.40469 260.122,479.35957 258.56058,478.07159 C 257.89382,477.52159 256.82527,475.88752 256.18602,474.44033 C 255.1321,472.05433 254.57398,471.83554 250.19822,472.09307 C 247.54417,472.24927 244.14121,472.8574 242.63608,473.44448 C 240.20003,474.39467 240.00761,474.79627 240.88396,477.10127 C 241.72281,479.3076 241.0085,481.45378 236.0553,491.60936 C 232.65378,498.58353 230.68409,503.70964 231.30742,503.96572 C 233.87701,505.02137 244.66339,503.80829 247.47495,502.14746 z M 262.48026,500.32159 C 262.14889,497.98409 261.92332,495.17159 261.97898,494.07159 C 262.18824,489.9364 261.50474,481.60619 260.99778,482.11316 C 259.69453,483.41641 254.23416,498.51648 255.42289,497.52992 C 256.52559,496.61476 256.87268,496.60955 256.87268,497.50816 C 256.87268,498.15797 257.29994,498.42556 257.82215,498.10282 C 258.34436,497.78007 259.06944,499.10352 259.43344,501.0438 C 259.84002,503.21101 260.67136,504.57159 261.58901,504.57159 C 262.77419,504.57159 262.9583,503.69369 262.48026,500.32159 z M 186.27356,500.47011 C 188.80464,496.18532 188.59051,487.57159 185.95291,487.57159 C 185.12308,487.57159 177.38427,499.07483 176.28247,501.94607 C 175.76496,503.29469 176.40677,503.57159 180.05008,503.57159 C 183.90085,503.57159 184.66701,503.18977 186.27356,500.47011 z M 279.04964,399.41844 C 282.56191,397.48188 283.39776,396.47565 283.50639,394.05322 C 283.74369,388.76141 281.83771,372.12788 280.77719,370.23551 C 280.21126,369.22567 279.60028,366.22457 279.41946,363.56641 C 278.93049,356.37806 278.19838,355.86877 274.00765,359.80167 C 269.79969,363.75074 267.88941,363.98957 266.283,360.76744 L 265.13426,358.4633 L 264.51713,360.76744 C 264.1777,362.03472 263.89384,363.63409 263.88633,364.32159 C 263.85823,366.89419 272.08084,365.16739 274.12268,362.17189 C 274.64179,361.41032 275.16022,361.51867 275.8067,362.52384 C 277.1983,364.68757 276.4866,365.18575 269.92411,366.64164 C 266.39401,367.42479 263.68603,368.60746 263.33093,369.52112 C 262.9995,370.37388 262.48345,375.57159 262.18413,381.07159 C 261.4228,395.06153 260.19692,394.99018 260.29287,380.96151 C 260.36985,369.70627 260.2951,369.27958 258.18843,368.948 C 256.34338,368.6576 255.67111,369.49441 253.85946,374.33647 C 251.28562,381.21567 250.73097,383.98053 250.1512,392.82159 C 249.72342,399.34496 249.78686,399.57266 252.04062,399.60339 C 253.32325,399.62089 255.27268,400.33765 256.37268,401.1962 C 259.48664,403.62666 273.39482,402.53632 279.04964,399.41844 z M 262.72978,361.72498 C 263.89816,356.3431 263.89008,353.57159 262.70601,353.57159 C 261.92803,353.57159 261.48173,355.09558 261.75426,356.82159 C 261.81939,357.23409 261.39612,357.57159 260.81366,357.57159 C 260.2312,357.57159 260.00901,357.98316 260.31989,358.48618 C 260.63078,358.9892 260.50229,359.5517 260.03437,359.73618 C 259.56644,359.92066 258.92532,361.70737 258.60966,363.70665 C 258.10796,366.8842 258.26755,367.28109 259.87764,366.86004 C 261.12036,366.53506 262.04818,364.86459 262.72978,361.72498 z M 277.47311,353.00738 L 279.63049,349.43274 L 277.62329,343.75217 C 276.51933,340.62785 275.05926,337.39659 274.37869,336.57159 C 273.69812,335.74659 272.8043,333.72159 272.39241,332.07159 C 271.7476,329.48853 271.54476,329.33939 270.93296,330.99848 C 269.48394,334.92795 269.0459,329.93572 269.87768,318.9718 C 271.09272,302.95598 270.41038,279.09086 268.56533,273.07159 C 267.05039,268.12928 265.99886,257.50462 265.91558,246.29854 C 265.87301,240.56966 265.85546,240.53613 263.62268,241.91713 C 262.38518,242.68254 257.9189,244.34004 253.69762,245.60047 L 246.02256,247.89215 L 246.4665,251.98187 C 246.71067,254.23122 247.3999,259.44659 247.99813,263.57159 C 248.59636,267.69659 249.22202,275.57159 249.38849,281.07159 C 249.55495,286.57159 250.37078,293.32159 251.20144,296.07159 C 258.44074,320.03808 260.89555,329.06962 260.47109,330.17574 C 260.15899,330.98905 260.51282,331.26317 261.42361,330.91367 C 263.18157,330.23908 263.18484,329.97123 261.36186,335.98052 C 258.96465,343.8827 259.75394,357.53533 262.23431,351.07159 C 262.55089,350.24659 263.52559,349.57159 264.40031,349.57159 C 265.27503,349.57159 265.75381,349.9549 265.46427,350.42339 C 265.17473,350.89188 265.65651,353.80155 266.53491,356.88932 L 268.13199,362.50345 L 271.72386,359.54273 C 273.69939,357.91433 276.28655,354.97342 277.47311,353.00738 z M 208.61447,221.12808 C 215.19417,218.03745 216.63156,216.98598 215.74203,215.91416 C 215.1292,215.17575 214.00789,214.57159 213.25024,214.57159 C 210.20214,214.57159 212.18859,212.94557 217.62268,210.99249 L 223.37268,208.92587 L 225.06449,200.99873 C 225.99499,196.6388 226.78249,192.78868 226.81449,192.44291 C 226.8465,192.09714 225.43982,191.22072 223.68854,190.49532 C 221.23953,189.4809 220.41159,189.45486 220.10237,190.38253 C 219.88124,191.0459 218.10689,193.49588 216.15936,195.82692 C 210.64739,202.42432 205.75457,210.56263 206.50909,211.87839 C 206.88542,212.53465 206.8335,212.7464 206.3937,212.34895 C 205.9539,211.9515 204.18985,213.9765 202.47359,216.84895 C 199.03486,222.60425 195.26185,224.15696 194.3653,220.18578 C 193.34702,215.67537 190.87268,197.05007 190.87268,193.89545 C 190.87268,191.39303 190.439,190.57159 189.11782,190.57159 C 187.80144,190.57159 186.70447,192.62147 184.72752,198.77566 C 183.27802,203.28791 182.27475,207.45041 182.49803,208.02566 C 182.72131,208.60092 184.28029,209.8573 185.96243,210.8176 C 189.36824,212.76193 189.532,215.21544 186.37268,216.96441 C 185.27268,217.57336 184.17608,218.19319 183.93579,218.34182 C 183.26248,218.75827 190.74438,225.57159 191.875,225.57159 C 192.42372,225.57159 192.81939,225.90909 192.75426,226.32159 C 192.34928,228.88647 191.51777,229.15875 208.61447,221.12808 z M 206.12351,207.07159 C 210.45816,199.68398 213.47692,195.48727 217.31629,191.5113 C 218.48258,190.30351 218.71314,188.28655 218.33681,182.58362 C 218.06943,178.53156 217.66966,175.03523 217.44843,174.81401 C 217.22721,174.59279 215.99466,175.06541 214.70944,175.86428 C 213.42422,176.66315 207.72627,179.06161 202.04734,181.19418 L 191.72199,185.07159 L 192.24302,190.57159 C 192.91914,197.70877 195.87373,218.67141 196.45288,220.44027 C 196.96627,222.0083 199.04794,219.1306 206.12351,207.07159 z M 206.62268,254.33296 C 205.11018,253.70186 203.87268,252.77423 203.87268,252.27156 C 203.87268,251.76889 204.66018,251.67762 205.62268,252.06875 C 212.76204,254.96993 216.38561,254.83954 223.10207,251.43974 C 227.13243,249.39962 228.8442,246.72129 230.84698,239.32159 C 231.55407,236.70909 232.57226,234.57159 233.10963,234.57159 C 233.647,234.57159 233.87458,235.13409 233.61538,235.82159 C 233.35617,236.50909 232.40348,239.6315 231.49828,242.76027 C 229.71328,248.93004 228.32534,250.76903 223.61579,253.20443 C 219.74232,255.20748 210.2322,255.83906 206.62268,254.33296 z M 178.87268,172.14051 C 178.87268,171.2776 178.4408,170.57159 177.91294,170.57159 C 177.38508,170.57159 177.04758,169.22248 177.16294,167.57358 C 177.2783,165.92467 177.92393,164.57467 178.59768,164.57358 C 179.44004,164.57221 179.62478,165.56109 179.18911,167.73943 C 178.62158,170.57708 178.75447,170.82259 180.46411,170.09488 C 182.67775,169.15263 183.40803,169.15482 191.12268,170.12688 C 200.85149,171.35273 198.08359,173.01297 185.55379,173.46721 C 180.04834,173.6668 178.87268,173.43335 178.87268,172.14051 z M 198.40807,170.68308 C 198.0784,169.6444 196.72739,167.62785 195.40582,166.20184 C 194.01167,164.69754 193.42334,163.3493 194.00435,162.99022 C 194.55511,162.64982 195.14869,162.52888 195.32341,162.72145 C 196.65216,164.18603 200.87268,171.02317 200.87268,171.71114 C 200.87268,173.34485 199.00571,172.56609 198.40807,170.68308 z M 210.66302,161.88336 C 212.12655,158.13689 213.78495,154.74098 214.34834,154.3369 C 216.13345,153.05657 217.16575,153.51354 215.90904,155.02779 C 215.24434,155.82869 215.03377,157.02322 215.4411,157.68229 C 215.87706,158.38769 215.75888,158.61929 215.1538,158.24533 C 214.56924,157.88405 213.27738,159.84319 212.15854,162.78774 C 211.07649,165.63547 209.69862,168.12961 209.09661,168.33028 C 208.4946,168.53095 209.19948,165.62984 210.66302,161.88336 z M 188.94951,164.30231 C 189.63382,162.80041 190.57148,161.57159 191.0332,161.57159 C 192.50575,161.57159 191.93839,163.20215 189.78899,165.14732 C 187.71055,167.02829 187.70844,167.02616 188.94951,164.30231 z M 182.2244,164.81151 C 182.58781,164.2235 182.31984,163.5145 181.62891,163.23595 C 180.87105,162.93041 181.06693,162.69817 182.12268,162.65054 C 184.10163,162.56126 184.46306,164.08868 182.71817,165.16708 C 182.03579,165.58882 181.83387,165.44341 182.2244,164.81151 z M 223.45613,157.92846 C 222.63689,155.79355 223.72224,154.71014 224.85084,156.53625 C 226.13791,158.61877 228.39668,156.38484 230.45591,150.99282 C 231.38458,148.56114 232.50595,139.25016 233.8407,141.92873 C 234.0906,142.43024 233.89254,144.21997 233.01272,146.7741 C 232.13788,149.31374 230.00304,156.75614 229.07955,157.82159 C 227.1689,160.02593 224.28206,160.08079 223.45613,157.92846 z M 212.01065,147.07548 C 210.3605,146.16726 208.70488,146.04612 206.51726,146.67352 C 201.93067,147.98894 195.52538,147.76934 193.41232,146.22423 C 191.36346,144.72607 191.73457,144.36208 197.06078,142.64578 C 200.06826,141.67666 201.71589,141.74451 205.98881,143.01344 L 211.22875,144.56953 L 214.01007,141.32056 C 217.1639,137.63645 217.93286,138.95407 214.88803,142.82495 L 212.90337,145.34803 L 215.13803,146.90736 C 217.90846,148.84055 215.45708,148.97233 212.01065,147.07548 z M 200.4138,145.50506 C 201.42396,143.87059 200.38356,143.40526 197.39566,144.15518 C 195.40369,144.65513 195.04011,145.06266 196.02766,145.68853 C 197.86917,146.85562 199.62448,146.7822 200.4138,145.50506 z M 169.19558,145.97067 C 168.8577,145.09016 169.20932,143.97205 169.97696,143.48598 C 171.95611,142.23279 178.61367,142.36261 181.11864,143.70323 C 183.16628,144.79909 183.17397,144.87811 181.36177,146.20323 C 178.65683,148.18112 169.98016,148.01527 169.19558,145.97067 z M 178.87268,145.01257 C 178.87268,144.77003 178.42268,144.57159 177.87268,144.57159 C 177.32268,144.57159 176.87268,145.04815 176.87268,145.63061 C 176.87268,146.21307 177.32268,146.41151 177.87268,146.07159 C 178.42268,145.73167 178.87268,145.25511 178.87268,145.01257 z M 175.87268,144.57159 C 175.87268,144.02159 174.99924,143.57159 173.9317,143.57159 C 172.86416,143.57159 171.7126,144.02159 171.37268,144.57159 C 171.02216,145.13875 171.8623,145.57159 173.31366,145.57159 C 174.72112,145.57159 175.87268,145.12159 175.87268,144.57159 z M 172.62268,138.82769 C 170.56018,138.62043 168.87268,137.97988 168.87268,137.40423 C 168.87268,136.82859 169.58448,136.63075 170.45447,136.9646 C 171.32445,137.29844 174.32445,137.57159 177.12113,137.57159 C 179.91782,137.57159 181.96123,137.81637 181.66204,138.11556 C 180.84328,138.93432 176.83006,139.25049 172.62268,138.82769 z M 192.87268,138.78071 C 192.87268,137.67891 204.94662,134.57159 209.2278,134.57159 C 211.16756,134.57159 213.04688,135.04443 213.40405,135.62234 C 213.826,136.30507 212.53322,136.60464 209.71307,136.47764 C 207.32585,136.37015 202.9285,137.02231 199.94118,137.92689 C 193.79765,139.78719 192.87268,139.89892 192.87268,138.78071 z "
       id="path3052"
       sodipodi:nodetypes="cssssssssssscccssssssssssssssssssssssssssssssssssssscccssscccssssscccssssssssssscccsssssssssssscccssssssssssssssssssssssssssssssssssssssssssssssssssssssssssssssssssssssssssssssssssssssssssssssscccsssssssssssssssssssssssssssssssssssssssssssssssssssssssssssssssssssssssscccsscccsssccccccssssssssssssssssssssssssssccssssssssssccssssssccssccssssssssccsssssssccsssccsssscccssssssssssssccsssssssccccssssssscccssssssssscccccsscccsssssssssssssssssccsssscccsccssssssssccsssssssccssssccssssssccssccsssccsssssccsssccccccccssccsssccsssccsssccssssccssssc" />
  </g>
</svg>
