<?xml version="1.0" encoding="UTF-8" standalone="no"?>
<!-- Created with Inkscape (http://www.inkscape.org/) -->
<svg
   xmlns:dc="http://purl.org/dc/elements/1.1/"
   xmlns:cc="http://web.resource.org/cc/"
   xmlns:rdf="http://www.w3.org/1999/02/22-rdf-syntax-ns#"
   xmlns:svg="http://www.w3.org/2000/svg"
   xmlns="http://www.w3.org/2000/svg"
   xmlns:sodipodi="http://sodipodi.sourceforge.net/DTD/sodipodi-0.dtd"
   xmlns:inkscape="http://www.inkscape.org/namespaces/inkscape"
   width="1052.3622"
   height="744.09448"
   id="svg2"
   sodipodi:version="0.32"
   inkscape:version="0.45.1"
   version="1.0"
   sodipodi:docbase="/home/flecox/pyweek/herobot/arte"
   sodipodi:docname="mujer-1.svg"
   inkscape:output_extension="org.inkscape.output.svg.inkscape">
  <defs
     id="defs4" />
  <sodipodi:namedview
     id="base"
     pagecolor="#ffffff"
     bordercolor="#666666"
     borderopacity="1.0"
     gridtolerance="10000"
     guidetolerance="10"
     objecttolerance="10"
     inkscape:pageopacity="0.0"
     inkscape:pageshadow="2"
     inkscape:zoom="0.7"
     inkscape:cx="645.69967"
     inkscape:cy="577.73153"
     inkscape:document-units="px"
     inkscape:current-layer="layer1"
     width="1052.3622px"
     height="744.09448px"
     inkscape:window-width="1280"
     inkscape:window-height="740"
     inkscape:window-x="0"
     inkscape:window-y="0" />
  <metadata
     id="metadata7">
    <rdf:RDF>
      <cc:Work
         rdf:about="">
        <dc:format>image/svg+xml</dc:format>
        <dc:type
           rdf:resource="http://purl.org/dc/dcmitype/StillImage" />
      </cc:Work>
    </rdf:RDF>
  </metadata>
  <g
     inkscape:label="Layer 1"
     inkscape:groupmode="layer"
     id="layer1">
    <path
       style="fill:#000000"
       d="M 154.44695,530.30125 C 155.62942,522.56583 158.35294,520.15808 165.95196,520.13015 C 168.57706,520.12051 170.63099,519.28597 172.95196,517.28598 C 174.7586,515.72919 178.7672,512.60714 181.85996,510.3481 C 186.47396,506.97791 187.40215,505.81693 187.03174,503.87927 C 186.78346,502.58046 187.53483,498.68438 188.70145,495.22132 C 190.288,490.51171 190.54225,488.58706 189.71028,487.58459 C 188.92999,486.6444 188.90668,485.66753 189.63218,484.31191 C 190.201,483.24906 190.37719,482.09026 190.02372,481.7368 C 189.67025,481.38333 190.32152,479.41166 191.47098,477.35531 C 192.62043,475.29897 194.03435,471.03353 194.61302,467.87658 C 195.91793,460.75747 199.45465,451.60629 205.92136,438.6165 C 210.03307,430.35725 211.04792,427.2239 211.75136,420.6165 C 212.21979,416.2165 213.57243,409.51033 214.75722,405.7139 C 216.38109,400.51053 216.65724,398.29499 215.87901,396.7139 C 215.31121,395.56033 214.86557,393.4915 214.8887,392.1165 C 214.91184,390.7415 213.96062,384.2165 212.7749,377.6165 C 211.58918,371.0165 210.1607,362.4665 209.6005,358.6165 C 209.04031,354.7665 207.6334,347.3415 206.47404,342.1165 C 204.23047,332.00524 203.99784,319.18557 205.88428,309.6165 C 206.42641,306.8665 207.08087,303.56505 207.33862,302.27995 C 208.18597,298.05527 210.50674,289.69695 212.1012,285.12738 C 213.52407,281.0496 213.52328,280.08749 212.09267,274.62738 C 211.22646,271.3214 210.56489,266.254 210.62252,263.3665 C 210.68014,260.479 210.54137,258.1165 210.31414,258.1165 C 209.62282,258.1165 204.56465,273.99531 202.69138,282.04618 C 198.77192,298.89105 190.69709,321.25346 188.22034,322.12226 C 186.20799,322.82815 177.63875,320.32577 176.46802,318.69036 C 174.737,316.27229 180.78787,287.14578 187.10502,267.48796 C 192.3792,251.07571 196.55222,234.30846 199.39256,218.1165 C 200.37209,212.53251 201.97984,207.73722 204.19718,203.78625 C 206.67264,199.37534 206.92168,199.25839 218.62362,197.01148 C 222.5015,196.26688 226.03701,194.88054 227.62362,193.48241 L 230.23676,191.1797 L 224.05485,191.1481 C 218.45919,191.1195 217.69125,190.85571 215.95696,188.3665 C 214.90316,186.854 213.7808,184.7165 213.46282,183.6165 C 213.14485,182.5165 211.70343,178.24301 210.25968,174.11985 C 208.81593,169.99669 207.18674,164.62441 206.63927,162.18146 C 206.09179,159.73851 204.76824,157.12642 203.69804,156.37683 C 201.05637,154.52653 199.50893,151.40968 200.18088,149.29255 C 200.6576,147.79054 202.14506,147.53056 210.73628,147.44769 C 217.70699,147.38046 220.73676,147.70239 220.73676,148.51029 C 220.73676,149.25944 222.1514,149.53444 224.73676,149.28789 C 226.93676,149.07809 228.73676,148.52485 228.73676,148.05847 C 228.73676,145.30058 247.82715,143.98334 250.65869,146.54584 C 252.04276,147.79841 252.93038,147.58198 257.83571,144.79584 C 261.52674,142.6994 263.34929,141.05081 263.18661,139.95566 C 262.56368,135.76215 247.31885,125.49235 243.50203,126.69499 C 242.50214,127.01004 240.36993,126.17575 238.46852,124.72547 C 234.97045,122.05737 226.73676,120.07481 226.73676,121.90063 C 226.73676,122.4725 225.49926,122.80227 223.98676,122.63347 C 222.47426,122.46466 220.55887,122.68646 219.73035,123.12635 C 218.87846,123.57863 216.48874,123.3223 214.23035,122.53638 C 210.05363,121.08288 205.93175,120.64482 207.06142,121.77449 C 207.42331,122.13638 207.32587,122.92389 206.84489,123.52449 C 205.78204,124.85167 203.73676,134.23393 203.73676,137.78235 C 203.73676,139.91719 204.09903,140.25503 205.8869,139.78749 C 207.06947,139.47824 210.33197,139.71275 213.1369,140.30864 C 215.94182,140.90452 219.24926,141.44256 220.48676,141.50428 C 221.72426,141.566 222.73676,142.23146 222.73676,142.98308 C 222.73676,143.96876 221.97028,144.16393 219.98676,143.6833 C 213.45761,142.10122 207.53325,141.25736 206.29397,141.73292 C 205.53861,142.02278 205.17778,143.08697 205.4639,144.18108 C 205.77022,145.35246 205.46342,148.01054 204.68673,148.01054 C 203.98091,148.01054 203.69952,145.8204 204.06142,145.45851 C 204.42331,145.09661 204.2442,144.22793 203.66339,143.5281 C 203.08259,142.82827 202.48904,140.31186 202.34441,137.93609 C 202.19977,135.56031 201.52634,132.27727 200.8479,130.64044 C 199.34184,127.00687 199.84763,118.50858 201.54865,118.8665 C 202.24096,119.01217 202.73676,117.95745 202.73676,116.33901 C 202.73676,114.81138 203.35767,112.67388 204.11655,111.58901 C 204.87543,110.50413 205.66293,108.75291 205.86655,107.69741 C 206.07017,106.64192 207.38907,105.06691 208.79746,104.19741 C 210.20584,103.32791 213.50467,101.18683 216.12819,99.439459 C 219.20673,97.389029 221.66746,96.442329 223.06749,96.769759 C 224.26059,97.048799 225.68676,97.247129 226.23676,97.210499 C 226.78676,97.173869 231.94663,96.709829 237.70314,96.179289 L 248.16953,95.214679 L 252.42479,98.033249 C 254.76518,99.583459 258.38031,101.12424 260.4584,101.45721 C 264.61086,102.12254 270.73676,107.00888 270.73676,109.65576 C 270.73676,110.56436 271.57373,112.50223 272.59669,113.96213 C 275.52964,118.14785 275.59847,143.54593 272.86962,143.51954 C 272.51597,143.51612 273.12513,134.81936 272.9887,128.36028 C 272.77819,118.39456 272.46377,116.38637 270.91201,115.09655 C 269.90627,114.26058 269.27274,113.00856 269.50416,112.31429 C 269.73559,111.62002 268.74049,109.4991 267.29283,107.60113 C 265.36387,105.07213 263.22054,103.73159 259.26957,102.58301 C 256.30443,101.72102 252.72814,100.11096 251.32225,99.005089 C 249.91636,97.899209 247.97199,97.041199 247.00143,97.098389 C 246.03086,97.155579 241.63676,97.415209 237.23676,97.675349 C 232.83676,97.935489 227.13588,98.147599 224.56815,98.146709 C 220.67679,98.145359 219.01641,98.808649 214.59506,102.13079 C 211.6776,104.32293 209.02758,106.1165 208.70612,106.1165 C 207.74883,106.1165 204.73676,113.61111 204.73676,115.99301 C 204.73676,117.20547 203.76621,119.51023 202.57997,121.1147 C 200.7543,123.58405 200.57917,124.53736 201.43925,127.32421 C 202.32914,130.20763 202.54542,130.36812 203.18082,128.6165 C 206.28075,120.07084 206.96261,119.13586 209.63091,119.77196 C 211.06413,120.11362 212.99468,120.78091 213.92102,121.25483 C 216.30158,122.47273 216.7577,122.33465 216.09123,120.59785 C 215.60822,119.33915 215.95128,119.24756 218.09543,120.06277 C 219.51826,120.60372 223.61264,120.77269 227.19406,120.43826 C 233.12252,119.88465 234.0685,120.07026 237.75627,122.51071 C 239.98407,123.985 242.24666,124.9194 242.78426,124.58714 C 244.34708,123.62127 254.74492,129.01257 259.92519,133.47475 C 262.58629,135.76696 264.94002,138.76543 265.27482,140.28977 C 265.81289,142.73962 266.10939,142.90384 268.24094,141.93264 C 272.31489,140.07642 273.73676,141.45714 273.73676,147.26939 C 273.73676,153.59539 270.76262,160.24983 266.61544,163.20289 C 263.3585,165.52203 260.69364,165.15215 260.81571,162.39788 C 260.86214,161.35026 261.10241,161.13138 261.39904,161.8665 C 262.31204,164.12914 265.45664,163.17263 267.97418,159.8665 C 270.97626,155.92407 272.05625,152.8476 272.22378,147.76105 C 272.36338,143.52259 270.66375,142.05649 267.73262,143.88701 C 266.50532,144.65347 265.6808,144.66054 264.93128,143.91102 C 263.61195,142.59169 255.80605,146.94166 252.92863,150.5997 C 250.90765,153.16897 241.52523,156.07123 235.14175,156.10172 C 232.08417,156.11632 228.73676,153.60042 228.73676,151.28776 C 228.73676,148.77433 221.14119,150.46196 220.44337,153.13043 C 219.96098,154.9751 214.37884,157.10004 209.98676,157.11092 C 206.42145,157.11976 206.62834,158.61446 212.87045,177.94413 C 216.23016,188.34799 217.16375,189.1165 226.44267,189.1165 C 233.31411,189.1165 234.72359,188.75956 240.65371,185.51771 C 244.27439,183.53838 248.06328,181.18332 249.07348,180.28425 C 251.73008,177.91988 256.73676,170.26419 256.73676,168.56637 C 256.73676,167.76894 260.44222,163.07589 261.26722,163.07589 C 263.61309,163.07589 260.08134,168.36005 254.9784,175.19963 C 250.16036,181.65736 241.26164,188.2407 235.488,189.61878 C 233.97619,189.97963 232.16618,191.09303 231.46576,192.09302 C 229.43086,194.99824 222.79191,197.91468 215.28555,199.20084 C 210.41506,200.03537 207.81733,201.02416 206.60707,202.50419 C 204.22808,205.41349 201.1763,215.52545 198.7264,228.6165 C 196.58812,240.0424 192.2785,256.3803 188.11175,268.85695 C 185.33025,277.1857 179.22189,302.19981 177.88015,310.75595 C 176.85902,317.26761 177.23302,319.24704 179.33225,318.44148 C 180.11874,318.13968 181.319,318.31844 181.9995,318.83872 C 182.67999,319.35901 184.52822,319.74685 186.10667,319.7006 C 188.8082,319.62143 189.17656,319.05915 192.38538,310.1165 C 197.11186,296.94427 200.42719,286.1109 202.78937,276.11981 C 203.8951,271.44299 205.70143,265.19482 206.80344,262.235 C 207.90545,259.27517 208.67877,256.74863 208.52193,256.62045 C 208.36509,256.49228 207.22352,255.86022 205.98511,255.21589 C 203.60957,253.9799 200.68275,248.16238 200.68487,244.68078 C 200.68869,238.40114 202.7868,233.00491 207.02805,228.3665 C 208.15958,227.129 208.72007,226.1165 208.27357,226.1165 C 207.82707,226.1165 209.10898,224.80745 211.12225,223.2075 C 213.38737,221.40741 214.29749,220.1254 213.50976,219.8444 C 212.80961,219.59465 212.59873,219.00423 213.04113,218.53237 C 213.48354,218.0605 214.23503,218.30468 214.71111,219.07499 C 215.32227,220.06387 214.14258,222.08461 210.69783,225.94954 C 204.54945,232.84786 202.63179,236.88406 202.58421,243.02666 C 202.53664,249.16774 203.79399,251.49626 208.8971,254.71772 C 212.91164,257.25199 212.96272,257.35818 212.37752,261.95312 C 212.05086,264.51798 212.26493,268.4165 212.85323,270.6165 C 215.01876,278.7148 214.91765,280.76741 211.8262,291.46629 C 210.12701,297.34683 208.73676,302.54994 208.73676,303.02876 C 208.73676,304.38143 216.48231,307.16013 224.57473,308.71059 C 235.89179,310.87887 270.02954,310.15705 272.48912,307.69747 C 273.25283,306.93376 270.34869,292.8273 268.35499,287.6165 C 266.21147,282.01416 266.32816,273.01871 268.61131,267.8556 C 271.78752,260.67295 275.65446,248.06561 275.11362,246.65621 C 274.83136,245.92063 275.14962,244.97937 275.82088,244.56451 C 278.28184,243.04356 275.99849,252.50942 270.2603,267.6165 C 268.04769,273.4417 267.7131,275.53955 268.26666,280.1165 C 268.63253,283.1415 269.5897,287.1915 270.39371,289.1165 C 271.19773,291.0415 272.5059,295.9915 273.30077,300.1165 C 274.55378,306.61906 274.55577,307.75692 273.31571,308.67238 C 272.1083,309.56374 272.18549,309.91564 273.8111,310.93086 C 275.20294,311.80007 275.73676,313.26918 275.73676,316.23036 C 275.73676,321.19112 269.77144,339.51561 268.30657,339.51561 C 267.70265,339.51561 268.82689,336.37642 269.24189,335.3665 C 272.95851,326.32177 273.89537,316.84469 271.52368,312.28426 C 270.52908,310.3718 269.76415,310.05704 267.27377,310.53547 C 265.60341,310.85637 258.38676,311.39768 251.23676,311.73839 C 236.97645,312.41792 221.73288,310.62675 212.75974,307.21723 L 207.93384,305.38353 L 207.21472,311.00002 C 205.67987,322.98746 205.88996,332.48573 207.86979,340.6165 C 208.94118,345.0165 210.21426,351.9915 210.69885,356.1165 C 211.99781,367.17374 216.68574,392.46548 217.60705,393.38679 C 218.04538,393.82512 218.96582,390.23112 219.65246,385.40013 C 220.3391,380.56913 221.74475,373.6915 222.77612,370.1165 C 223.80749,366.5415 225.35862,360.2415 226.22306,356.1165 C 227.08751,351.9915 228.20238,346.8165 228.70056,344.6165 C 229.22349,342.30719 229.23243,340.48268 228.72173,340.29989 C 226.90979,339.65139 222.73676,335.93604 222.73676,334.97134 C 222.73676,334.42134 223.92245,334.904 225.37162,336.04392 C 228.69897,338.66121 229.36601,338.64227 230.08047,335.91017 C 230.3978,334.69669 230.95505,334.00146 231.31881,334.36522 C 232.1957,335.2421 230.30048,345.55627 226.21955,362.1165 C 224.38981,369.5415 222.3757,378.7665 221.74376,382.6165 C 220.23193,391.827 218.00461,401.15519 216.06748,406.3892 C 215.20698,408.71421 214.18379,414.26428 213.79372,418.72268 C 213.25537,424.87581 212.28225,428.4898 209.75474,433.72268 C 201.48385,450.84643 198.80679,457.43784 196.78134,465.66552 C 195.58734,470.5157 194.11007,475.41383 193.49851,476.55026 C 192.88696,477.68669 192.04954,480.4165 191.63758,482.6165 C 190.98281,486.11323 191.2171,486.9625 193.49976,489.3665 C 194.93591,490.879 197.0846,492.1165 198.27463,492.1165 C 199.46465,492.1165 201.8611,492.61248 203.60005,493.21869 C 205.339,493.82489 207.31866,494.10718 207.99927,493.84601 C 208.67989,493.58483 209.61535,493.33537 210.07806,493.29164 C 211.52931,493.15452 213.93938,489.08691 213.40087,487.68356 C 213.11802,486.94646 214.478,483.92983 216.42305,480.97994 C 222.30714,472.05606 228.15325,460.0449 230.47154,452.1165 C 236.64399,431.00722 239.63111,415.08722 239.73564,411.67163 C 240.12188,406.2443 239.81236,409.16601 239.85064,407.91409 L 239.72414,419.54982 C 240.25516,422.30758 240.0238,424.54911 238.95004,427.04982 C 238.10773,429.01149 236.18697,435.5665 234.6817,441.6165 C 233.17643,447.6665 231.03308,454.98923 229.9187,457.88924 C 227.5229,464.124 220.40759,477.33002 217.08269,481.71287 C 215.79076,483.41588 214.81569,485.89088 214.91585,487.21287 C 215.01873,488.57068 213.62887,491.68529 211.72152,494.37124 L 208.34508,499.12598 L 210.04587,503.87124 C 211.7365,508.58816 212.16752,522.63201 210.73422,522.63142 C 210.32172,522.63126 210.23676,517.56319 210.23676,513.22101 C 210.23676,506.94592 209.85762,504.90723 208.3888,503.28433 C 207.37242,502.16134 206.83648,500.76417 207.19782,500.17951 C 208.20405,498.5514 207.1875,498.86018 200.60953,502.18072 C 197.27093,503.86605 192.12574,505.61739 192.41668,505.14664 C 192.70762,504.67589 198.32765,502.20188 201.66474,500.57481 C 205.00183,498.94774 207.7332,497.29157 207.73446,496.89443 C 207.73573,496.4973 205.14926,495.46514 201.98676,494.60075 C 198.82426,493.73636 195.43096,492.58354 194.44608,492.03894 C 191.87421,490.61676 191.06228,491.48491 189.30235,497.53889 C 187.41119,504.04423 187.40467,504.18116 189.01545,503.56305 C 189.71874,503.29318 191.18124,503.7642 192.26545,504.60977 C 194.16033,506.08757 194.13451,506.12409 191.59957,505.55174 C 189.71565,505.12639 188.57311,505.4791 187.59957,506.78658 C 186.85002,507.79323 182.746,511.21743 178.47952,514.39592 L 170.72228,520.17498 L 174.97952,524.39574 C 179.21411,528.59404 179.26603,528.61282 184.73676,527.92542 C 187.76176,527.54532 194.73571,526.08282 200.23443,524.67542 C 205.73315,523.26801 210.90815,522.12515 211.73443,522.13572 C 212.56071,522.14629 207.61176,524.70018 200.73676,527.81104 L 188.23676,533.46713 L 171.06022,533.72657 L 153.88368,533.98601 L 154.44695,530.30125 z M 186.23676,531.73421 C 188.94857,531.33503 201.06085,526.31171 199.64331,526.17411 C 199.31691,526.14242 196.61691,526.92867 193.64331,527.92132 C 187.57355,529.94753 171.03149,530.64426 161.48676,529.27571 C 156.33959,528.53769 155.73676,528.63706 155.73676,530.22351 C 155.73676,531.5258 156.73118,532.11359 159.48676,532.44006 C 163.54765,532.92117 181.36746,532.45097 186.23676,531.73421 z M 173.89347,524.96836 C 169.76183,521.06992 169.32327,520.90041 164.89347,521.48967 C 160.50858,522.07295 155.77452,525.4876 157.27311,526.98619 C 158.01653,527.72961 166.71107,528.79957 173.23676,528.9507 L 178.23676,529.06649 L 173.89347,524.96836 z M 215.69771,154.47431 C 219.13276,153.7873 220.66742,151.64716 218.95381,149.93355 C 218.22246,149.2022 217.20753,149.37378 215.59852,150.50077 C 212.64653,152.56843 210.63507,152.53904 206.86118,150.37312 C 203.00628,148.16071 200.98591,149.5995 203.30273,152.90723 C 204.93776,155.24156 209.17985,155.77788 215.69771,154.47431 z M 248.65391,151.19935 C 250.34349,149.50977 250.40827,149.08876 249.14053,148.03664 C 247.96242,147.05889 247.2339,147.24028 245.39299,148.96973 C 242.69722,151.50228 236.60881,151.87218 234.73727,149.61711 C 233.66519,148.32534 233.90837,148.20082 236.49354,148.71786 C 238.24045,149.06724 239.77844,148.85807 240.1745,148.21724 C 240.62458,147.489 239.5658,147.12168 237.04578,147.13181 C 232.56367,147.14983 231.33899,147.86935 230.94986,150.71327 C 230.71316,152.44318 231.21228,152.82566 233.80256,152.89931 C 235.52935,152.9484 237.1633,153.20971 237.43358,153.47999 C 238.62543,154.67183 246.85395,152.99931 248.65391,151.19935 z M 213.44353,149.49759 C 213.6785,148.79181 212.88265,148.55712 211.28805,148.86194 C 209.89766,149.12773 209.02178,149.76866 209.34165,150.28622 C 210.09275,151.50151 212.95991,150.95027 213.44353,149.49759 z M 242.7164,530.56296 C 241.9953,528.66631 242.14992,527.21821 243.31388,524.96737 C 245.2051,521.31015 246.31305,521.75758 244.61176,525.4915 C 243.95183,526.9399 243.63238,528.34545 243.90188,528.61496 C 244.17139,528.88446 247.73199,528.67145 251.81433,528.14161 C 255.89666,527.61176 261.37426,527.16436 263.98676,527.14738 C 266.59926,527.13039 268.73676,526.79287 268.73676,526.39731 C 268.73676,526.00176 267.08507,524.05582 265.06633,522.07299 C 261.53803,518.60746 261.2573,518.51427 257.81633,519.66626 C 252.97953,521.28556 242.1308,524.82208 244.07496,523.66058 C 244.89996,523.1677 251.33746,520.06228 253.90499,519.6919 C 256.47252,519.32152 258.9744,518.47803 259.46474,517.81749 C 260.96325,515.7988 265.61777,500.90279 266.29825,495.94799 C 266.87359,491.7587 266.67238,491.04729 264.33808,489.01765 C 262.64842,487.54851 261.73676,485.73414 261.73676,483.84054 C 261.73676,482.23712 260.80145,479.61171 259.65829,478.00629 C 258.51512,476.40087 257.77838,474.53141 258.02108,473.85192 C 258.56892,472.31813 257.11547,469.40143 249.1831,456.1165 C 245.73487,450.3415 242.31656,444.2665 241.58684,442.6165 C 240.85713,440.9665 239.69234,439.02186 238.99842,438.29507 C 237.03224,436.23575 234.86396,430.16322 237.08511,431.55035 C 238.18511,432.23731 241.73676,438.20718 241.73676,438.95224 C 241.73676,440.60066 247.66649,451.54798 253.49194,460.65438 C 254.1823,461.73355 255.73447,464.529 256.94121,466.8665 C 258.14796,469.204 259.5042,471.1165 259.95508,471.1165 C 260.40596,471.1165 260.50874,472.17681 260.18348,473.47274 C 259.80871,474.96596 260.18338,476.42027 261.20643,477.44331 C 262.0943,478.33119 263.03837,480.7574 263.30436,482.83489 C 263.57034,484.91238 264.62852,487.45271 265.65588,488.48006 C 267.45561,490.27979 267.71931,490.28448 272.88027,488.60859 C 279.59164,486.42925 285.47751,483.23447 286.18686,481.38595 C 286.48536,480.60807 286.25124,479.07782 285.6666,477.98541 C 285.08196,476.89299 284.893,474.68163 285.24669,473.07127 C 285.79235,470.58693 285.49943,469.96549 283.31327,468.96941 C 281.25381,468.03105 280.72971,467.07513 280.70163,464.20598 C 280.60676,454.51246 276.53723,443.27398 267.63335,428.1165 C 265.21023,423.9915 262.32972,418.87025 261.23222,416.73595 C 260.13472,414.60165 257.70021,411.25471 255.82219,409.2983 C 253.94418,407.3419 251.39516,403.95873 250.15771,401.78014 L 247.90778,397.81908 L 243.37288,406.71779 C 240.87869,411.61208 238.82835,414.9415 238.81657,414.1165 C 238.80479,413.2915 240.82311,408.7915 243.30173,404.1165 C 245.78034,399.4415 250.72463,387.7415 254.28903,378.1165 C 257.85343,368.4915 262.33733,357.63767 264.25326,353.99689 C 267.98229,346.9107 268.77392,340.95903 266.35504,338.19524 C 264.42586,335.99098 263.35145,332.1165 264.66937,332.1165 C 265.25644,332.1165 265.73676,332.73081 265.73676,333.48164 C 265.73676,334.23247 266.71698,336.09292 267.91502,337.61599 C 269.90934,340.15136 269.99993,340.8302 268.98784,345.65535 C 268.37986,348.55394 266.80177,352.65598 265.48099,354.771 C 264.1602,356.88603 261.00295,364.2415 258.46488,371.1165 C 255.9268,377.9915 252.70122,386.51036 251.29693,390.0473 C 248.40556,397.32968 248.35527,397.14876 255.76326,406.1165 C 261.70934,413.31453 270.60058,427.18121 272.41974,432.09378 C 273.34088,434.58128 274.86263,437.7415 275.8014,439.1165 C 278.48869,443.05252 281.73676,454.8129 281.73676,460.60683 C 281.73676,465.13497 282.09261,466.11964 284.23676,467.52454 C 286.09486,468.74202 286.73676,470.03863 286.73676,472.57445 C 286.73676,474.45097 287.17414,477.13669 287.70871,478.54272 C 289.4443,483.10766 288.98957,483.47752 274.73676,489.09382 C 268.77463,491.44318 268.21083,491.92247 267.9234,494.88581 C 267.72063,496.97639 268.05275,498.1165 268.86453,498.1165 C 269.70462,498.1165 269.60187,498.52942 268.55348,499.3665 C 267.69243,500.054 265.80568,504.35908 264.3607,508.93335 L 261.73347,517.2502 L 266.23511,521.56339 C 268.71102,523.93565 270.73676,525.52187 270.73676,525.08832 C 270.73676,522.59345 286.49714,509.8032 294.44009,505.69574 C 299.37815,503.14217 295.10925,506.57538 287.62553,511.55172 C 278.67717,517.50198 271.73676,523.85409 271.73676,526.09369 C 271.73676,527.57389 269.80279,528.00834 257.98676,529.18248 C 245.12851,530.46019 244.62589,530.58675 250.23676,531.13387 C 253.53676,531.45565 259.73562,531.52491 264.012,531.28777 L 271.78724,530.85661 L 277.98957,523.91194 C 283.43759,517.81186 295.29974,508.1165 297.31509,508.1165 C 297.71105,508.1165 295.13709,510.31029 291.59516,512.9916 C 288.05324,515.6729 282.08337,521.1854 278.32879,525.2416 L 271.50228,532.6165 L 257.59578,532.86916 L 243.68928,533.12182 L 242.7164,530.56296 z M 295.60339,506.3665 C 295.53004,505.954 295.38115,504.2665 295.27252,502.6165 C 295.04778,499.20282 290.6826,490.14637 288.31477,488.18124 C 287.44686,487.46094 285.09526,483.62035 285.09526,483.04182 C 285.09526,482.46329 287.81637,485.78212 289.1359,487.02175 C 293.26997,490.90551 299.4659,507.1165 296.81622,507.1165 C 296.22251,507.1165 295.67675,506.779 295.60339,506.3665 z M 273.23676,498.45019 L 267.2063,495.76085 L 273.48676,497.54502 C 275.27426,497.83183 276.73676,497.64275 276.73676,497.12483 C 276.73676,495.74005 286.12457,486.96807 287.54547,486.98102 C 288.21464,486.98712 284.74686,490.31275 282.92587,491.74772 C 281.04213,493.23214 279.84124,494.94638 280.13988,495.72464 C 280.42858,496.47697 280.26274,496.98541 279.77135,496.8545 C 279.27997,496.7236 278.28366,497.35008 277.55734,498.24667 C 276.3845,499.69448 275.90114,499.71724 273.23676,498.45019 z M 303.97522,370.88335 C 303.14006,369.86051 299.73676,359.81764 299.73676,358.37598 C 299.73676,358.16835 298.67153,347.66998 299.22153,348.0099 C 299.77153,348.34982 301.73676,360.05302 301.73676,361.05339 C 301.73676,362.05377 302.42817,364.52703 303.27322,366.54953 L 304.80969,370.2268 L 308.90016,366.98708 C 313.84082,363.07401 316.72798,358.59131 316.73302,354.82554 C 316.73508,353.29051 315.34465,349.35971 313.64317,346.09044 C 311.05941,341.12591 310.26391,340.29919 308.81615,341.07401 C 306.69855,342.20732 298.75707,346.89222 298.75707,346.05692 C 298.75707,345.72679 298.19926,341.7514 299.98676,341.23528 C 303.11364,340.33243 303.13436,340.29346 300.53376,340.20669 C 297.12802,340.09305 296.78096,338.91147 292.74041,313.67352 C 287.021,277.94914 284.58436,265.62253 280.76992,253.1165 C 276.31707,238.51738 275.55815,235.50184 276.64402,236.72245 C 277.08147,237.21418 278.23605,240.5415 279.20975,244.1165 C 280.18346,247.6915 281.84672,253.3165 282.90588,256.6165 C 285.69638,265.31076 289.3193,283.39321 291.72154,300.6165 C 293.81726,315.64209 296.07258,328.45948 297.81223,335.23085 C 298.67481,338.58838 299.07082,338.89044 303.38519,339.48179 C 306.33679,339.88635 308.53838,339.69611 309.42555,338.95982 C 310.48291,338.08228 311.10232,338.08206 311.97914,338.95888 C 312.61583,339.59557 312.78873,340.1165 312.36337,340.1165 C 311.938,340.1165 312.973,342.53378 314.66337,345.48823 C 319.96851,354.76065 318.45346,361.12961 309.12319,368.7781 C 305.92493,371.39986 304.77945,371.86831 303.97522,370.88335 z M 168.82495,350.84845 C 168.29267,349.44846 167.54937,345.58237 167.17316,342.25714 L 166.48915,336.21126 L 171.73476,329.61902 C 174.61984,325.99328 179.88925,318.51784 180.13323,319.86619 C 180.31773,320.88581 178.32909,323.1264 175.51143,326.4985 C 169.86885,333.25139 166.88965,338.41495 169.15477,347.14723 C 170.65352,352.92505 170.45623,355.13904 168.82495,350.84845 z M 298.93171,348.6165 C 298.40078,342.37152 297.87559,341.29528 298.25628,342.93313 C 298.42163,343.64451 299.68329,348.8745 299.42975,349.84747 C 299.17621,350.82044 299.20463,351.27665 298.93171,348.6165 z M 181.73104,345.3665 C 184.23592,341.28013 184.67768,339.469 184.89303,332.40312 C 185.0307,327.88577 186.23571,317.95326 186.51701,318.23455 C 186.7983,318.51584 186.03494,328.9035 185.87447,333.41457 C 185.64133,339.96871 185.08747,342.47034 183.11759,345.8665 C 181.76176,348.204 170.51729,352.01054 170.01319,352.01054 C 169.50909,352.01054 180.12962,347.979 181.73104,345.3665 z M 311.28138,329.8665 C 310.91928,325.879 310.2217,319.2415 309.73121,315.1165 C 309.24072,310.9915 308.53606,301.7665 308.16531,294.6165 C 307.75351,286.67495 306.77597,279.28183 305.65307,275.6165 C 304.64209,272.3165 303.33626,263.3165 302.75123,255.6165 C 302.16621,247.9165 301.00202,238.0165 300.16417,233.6165 C 299.32631,229.2165 298.16222,223.1415 297.5773,220.1165 C 296.99238,217.0915 295.43972,211.95325 294.12695,208.69817 C 291.25188,201.56934 291.81342,199.79662 294.76528,206.68303 C 296.70086,211.19855 297.74192,214.85551 300.72463,227.6165 C 301.3674,230.3665 302.73274,241.1665 303.7587,251.6165 C 304.78467,262.0665 306.30849,272.8665 307.14498,275.6165 C 307.98147,278.3665 309.13411,287.5915 309.7064,296.1165 C 310.94013,314.49458 312.43589,330.47017 313.2847,334.33475 C 313.62789,335.89729 311.95181,339.64188 311.40248,339.64188 C 310.8646,339.64188 311.64348,333.854 311.28138,329.8665 z M 235.18166,205.10312 C 231.46976,203.95764 225.3616,196.54725 226.35164,194.94534 C 226.82727,194.17575 229.35484,197.72327 230.12015,199.25834 C 231.7946,202.61694 235.43141,204.085 242.11873,204.10176 C 248.98969,204.11898 252.84,202.15036 258.21339,195.87277 C 260.14448,193.61672 262.60555,190.88418 262.91078,191.18942 C 263.73031,192.00895 254.67514,202.097 251.57651,203.69937 C 248.06466,205.51541 239.0256,206.28935 235.18166,205.10312 z M 285.73676,201.18972 C 283.26176,200.16587 278.98676,198.41059 276.23676,197.28911 C 268.77119,194.24456 251.32712,187.30734 254.1358,188.07518 C 255.48039,188.44278 264.07608,190.70154 267.68149,192.323 C 271.28689,193.94447 277.71593,196.61583 281.96825,198.25936 C 286.22058,199.90289 292.73755,202.93079 293.05519,203.44474 C 293.79579,204.64305 291.04841,203.38704 285.73676,201.18972 z M 253.99929,187.95399 C 253.74324,186.61454 253.78262,176.21448 254.24113,175.49143 C 254.77253,174.65343 255.71169,181.97613 255.72145,184.3665 C 255.73895,188.65358 254.68155,191.52302 253.99929,187.95399 z M 219.23676,179.41154 C 217.47163,178.45549 217.90155,175.46324 218.6568,175.21047 C 219.36279,174.97418 219.35137,177.35791 220.02038,177.88407 C 222.39747,179.7536 226.56283,180.09302 229.88649,178.68803 L 233.23676,177.2718 L 230.25771,176.13181 C 228.49737,175.45819 225.32688,175.26027 222.50771,175.648 C 216.82086,176.43014 216.20906,175.58382 221.48676,174.2357 C 224.04168,173.58309 227.04088,173.6541 230.89784,174.45853 C 235.68446,175.45685 236.37957,175.86918 235.39784,177.12787 C 233.99249,178.92968 228.00792,181.13155 224.66576,181.07646 C 223.32981,181.05444 220.88676,180.30523 219.23676,179.41154 z M 220.24384,169.12795 C 219.8935,168.56109 220.2949,168.39345 221.18482,168.73494 C 222.91724,169.39973 223.23421,170.1165 221.79578,170.1165 C 221.27824,170.1165 220.57986,169.67165 220.24384,169.12795 z M 226.73676,169.22349 C 226.73676,167.97339 229.55969,167.02098 230.19899,168.05539 C 230.48845,168.52374 230.01605,169.17908 229.14923,169.51172 C 227.05297,170.31613 226.73676,170.27835 226.73676,169.22349 z M 237.36035,140.96662 C 243.35403,139.28782 245.15448,139.15189 248.7113,140.10964 C 251.03634,140.73571 252.71042,141.47618 252.43147,141.75512 C 252.15253,142.03406 250.28117,141.8086 248.2729,141.25409 C 245.52706,140.49593 243.61258,140.60185 240.5534,141.68119 C 238.31595,142.47061 235.07938,143.08171 233.36103,143.0392 C 231.05943,142.98225 232.11251,142.43651 237.36035,140.96662 z "
       id="path2238"
       sodipodi:nodetypes="cssssssssssssssssssssssssssssssscccsssssssssssssssssssssssssssssssssssssssssscccsssssssssssssssssssssssssssssssssssssssssssssssssssssssssssssssssssssssssssssssssssssssssssssssscccsssssssssssssssssssssssssssscccssssscccssssssssssssssscccsssccccccsssssccssccccssssccsssssssssccssccssssssssssssssssssssssssssssssssssssscccssssssssssssssssssssssscccsssssscccssccccccsssssccccssssssccssscccssssssssssssssssssscccccsssccssccsssssccssssssssssssssccssssssccsssssccssccsscccsssssccssccssccsssssc" />
    <path
       style="fill:#000000"
       d="M 419.69424,541.31524 C 414.92097,540.80872 413.24484,539.99002 412.34676,537.72642 C 411.59282,535.82609 411.72076,534.79382 412.71022,534.79382 C 413.58234,534.79382 413.94664,533.38713 413.55971,531.51364 C 412.95337,528.57782 413.90107,527.73793 422.58732,523.51309 C 432.46214,518.71015 439.25578,512.81316 439.25578,509.0446 C 439.25578,506.62153 436.69073,498.72842 434.77759,495.26446 C 433.93362,493.73635 433.98503,492.29747 434.92088,491.25375 C 436.58289,489.40016 435.96363,478.72049 433.85567,472.88329 C 433.07905,470.73272 432.05428,462.65287 431.57842,454.92808 C 430.70725,440.78631 428.78285,433.82649 426.15883,435.32755 C 425.32283,435.80577 425.17798,435.48232 425.80655,434.54095 C 426.48098,433.5309 424.37361,430.72455 420.08381,426.92005 C 413.37555,420.97071 413.28257,420.93641 412.38685,424.08148 C 411.59972,426.84527 411.34086,426.96172 410.42354,424.96463 C 409.84238,423.69941 409.69606,421.49915 410.09838,420.07515 C 410.5007,418.65116 410.38212,417.7422 409.83488,418.05526 C 409.28763,418.3683 408.0326,417.42795 407.04592,415.96559 C 406.05924,414.50323 405.86061,413.65493 406.60452,414.08048 C 407.34843,414.50602 408.71848,414.00504 409.64907,412.96719 C 411.03531,411.42116 410.70086,410.93145 407.79827,410.25715 C 404.45702,409.48096 401.29647,405.75925 403.97855,405.75925 C 404.66419,405.75925 405.47379,406.44961 405.77767,407.29339 C 406.83626,410.23285 409.88991,406.75671 415.53889,396.18163 L 421.21441,385.55687 L 420.24391,373.17477 C 419.71014,366.36461 419.31597,359.08838 419.36798,357.00535 C 419.42425,354.75175 417.77512,351.09425 415.29563,347.97356 C 413.00383,345.08909 411.45199,342.42986 411.84709,342.06415 C 412.24219,341.69845 413.59464,342.75926 414.85253,344.42151 L 417.13959,347.44379 L 418.93026,343.69119 C 420.59007,340.21282 420.73162,340.65293 420.86724,349.71394 C 421.1281,367.14099 423.68697,391.80677 425.99706,399.1619 C 427.59283,404.24269 427.98203,408.66794 427.3293,414.30951 C 426.54605,421.07915 426.86134,422.99191 429.42282,427.01024 C 431.08143,429.61219 432.08164,432.27544 431.64552,432.92859 C 430.721,434.31317 434.44814,465.84678 436.70165,475.70626 C 437.54807,479.40946 437.91608,485.10422 437.51944,488.36129 C 437.03627,492.32902 437.46247,495.1609 438.81097,496.94289 C 440.35694,498.98584 440.40863,499.60257 439.03388,499.60257 C 437.78325,499.60257 437.92637,500.23405 439.50901,501.69893 C 441.29705,503.35392 443.28735,503.60262 448.96225,502.88021 C 455.44429,502.05504 460.44045,499.66088 455.88481,499.56294 C 454.76097,499.53877 455.0149,498.99878 456.5354,498.17945 C 457.90705,497.44033 458.66623,496.29184 458.22247,495.62725 C 457.77871,494.96267 458.39541,494.76692 459.59293,495.19225 C 460.79044,495.61758 461.41963,496.49065 460.99112,497.13238 C 460.56262,497.77413 460.88309,498.29919 461.70329,498.29919 C 463.41985,498.29919 463.45051,497.38114 461.85564,493.73736 C 461.09494,491.9994 461.42736,490.37855 462.85304,488.87414 C 464.5077,487.1281 464.61956,486.20296 463.34755,484.78433 C 462.15502,483.45435 462.09087,481.35184 463.11389,477.12659 C 465.00876,469.30049 465.25551,445.03284 463.4825,440.87371 C 462.70052,439.03934 461.3071,432.93684 460.38603,427.3126 C 459.46495,421.68837 458.06989,415.78366 457.2859,414.19103 C 456.20644,411.99816 456.42794,410.49371 458.1985,407.99257 C 460.48368,404.76446 460.43925,404.63661 456.2329,402.33675 C 453.86589,401.04257 451.92925,399.45182 451.92925,398.80175 C 451.92925,398.15167 452.80615,398.29339 453.87791,399.11668 C 455.46129,400.333 456.00757,399.69104 456.79223,395.69199 C 457.32335,392.9851 458.71555,388.13104 459.88601,384.90518 C 461.05647,381.67932 460.90906,369.27085 461.52272,364.9697 C 462.45705,358.42094 465.52433,359.24711 465.67234,363.61294 C 465.76954,366.48037 462.99711,379.94676 461.03916,387.42713 C 457.90352,399.40683 457.72649,401.25666 459.5538,402.94799 C 461.38111,404.63934 461.37549,405.32081 459.50666,408.6658 C 458.15658,411.08229 457.85865,413.02186 458.68743,413.99899 C 460.38566,416.00119 461.92882,421.90095 462.66872,429.22008 C 462.99483,432.44595 464.26854,437.92853 465.49918,441.4036 C 467.28785,446.45438 467.53201,450.50173 466.71631,461.5787 C 466.15508,469.19994 465.14081,476.78684 464.46238,478.43848 C 463.66381,480.38257 463.8136,482.30812 464.88719,483.89929 C 466.04359,485.61319 466.10409,486.88225 465.08706,488.09217 C 462.97729,490.60205 463.82348,502.48755 466.37655,506.20428 C 467.57556,507.94978 468.95083,511.724 469.4327,514.59143 C 470.3078,519.79876 470.29887,519.81086 461.91388,524.78172 C 457.29666,527.51894 451.21173,532.3646 448.39181,535.54985 C 445.5719,538.73512 442.71645,541.02762 442.04637,540.6443 C 441.37628,540.26098 437.46433,540.40278 433.35313,540.9594 C 429.24194,541.51602 423.09544,541.67614 419.69424,541.31524 z M 419.80553,539.11698 C 418.78901,538.74047 417.57447,538.78677 417.10655,539.21987 C 416.63863,539.65297 417.47033,539.96102 418.95476,539.90443 C 420.59519,539.8419 420.92887,539.53305 419.80553,539.11698 z M 436.24175,538.72175 C 441.90741,538.70532 443.10182,538.04334 451.73155,530.13668 C 459.67129,522.86221 460.36042,521.89884 456.29834,523.75255 C 453.66716,524.95328 449.98236,527.3537 448.10991,529.08681 C 441.00876,535.65956 437.93217,536.83866 426.85125,537.23424 C 423.88724,537.34005 422.5359,537.91619 423.13772,538.8175 C 423.65809,539.59681 425.43808,539.89808 427.09328,539.48699 C 428.74847,539.0759 432.86529,538.73153 436.24175,538.72175 z M 428.43202,535.42343 C 438.22005,534.45322 440.09457,532.17251 431.07574,532.20684 C 424.66977,532.23123 413.43109,535.22053 414.84056,536.52512 C 415.40894,537.0512 416.58875,537.22777 417.46235,536.91749 C 418.33595,536.60719 423.2723,535.93487 428.43202,535.42343 z M 424.18583,531.364 C 424.67491,530.91131 424.4516,529.46268 423.6896,528.14481 C 422.5217,526.12495 421.75555,525.98004 418.81057,527.22202 C 415.24363,528.72628 414.58919,529.77556 416.25578,531.31813 C 417.44671,532.42045 423.00969,532.45262 424.18583,531.364 z M 447.20067,527.55154 C 450.80927,525.002 456.08495,521.819 458.9244,520.4782 C 467.75066,516.31045 468.40797,514.76196 464.48849,507.37019 C 462.61509,503.83716 460.73136,500.93736 460.30243,500.92622 C 459.87349,500.91507 457.40595,502.92722 454.81901,505.39766 C 451.1266,508.92378 449.3204,509.74217 446.41687,509.20467 C 443.27733,508.62349 442.13729,509.34132 438.87478,513.9536 C 436.76086,516.94208 435.03129,519.97717 435.03129,520.69825 C 435.03129,521.41933 433.76538,523.65482 432.21815,525.66602 L 429.40501,529.32274 L 434.68244,530.62019 C 437.58502,531.33379 440.1128,531.97826 440.29972,532.05235 C 440.48664,532.12644 443.59207,530.10108 447.20067,527.55154 z M 427.99048,525.67016 C 429.58563,522.91137 428.55957,522.3569 425.34579,524.24102 C 424.27845,524.86676 423.84059,526.0308 424.37277,526.82782 C 425.71531,528.83844 426.25917,528.66441 427.99048,525.67016 z M 452.52068,506.23469 C 454.89187,503.80953 454.81327,503.77397 449.57056,504.90021 C 446.60815,505.5366 443.55068,506.14066 442.77619,506.24259 C 442.0017,506.3445 443.26905,506.87562 445.59252,507.42285 C 447.91599,507.97007 449.87722,508.4872 449.9508,508.57202 C 450.02439,508.65684 451.18083,507.60503 452.52068,506.23469 z M 427.2431,427.02093 C 425.42021,424.44587 424.8576,420.99767 424.96384,413.05137 C 425.04141,407.24856 424.28737,399.30331 423.2882,395.39526 L 421.47152,388.28972 L 415.63024,398.97955 C 412.41754,404.85897 410.4678,409.66939 411.29748,409.66939 C 412.20309,409.66939 412.45314,410.97067 411.92312,412.9253 C 411.18061,415.66355 412.44361,417.50253 419.8674,424.49237 C 428.49716,432.6177 432.07282,433.84352 427.2431,427.02093 z M 419.05118,475.0951 C 401.62524,450.12708 393.77427,440.49369 382.92925,430.77232 C 378.18818,420.00504 381.78639,424.07703 380.14354,422.60439 L 383.63334,428.35106 C 390.84142,432.96284 394.69776,439.13635 415.30156,467.4571 C 429.77165,487.34683 437.06884,494.08675 435.25579,493.73086 C 435.06216,493.69285 425.90402,484.9139 419.05118,475.0951 z M 445.26981,492.29821 C 445.73774,491.86511 446.95228,491.81882 447.96879,492.19532 C 449.09213,492.61139 448.75846,492.92024 447.11803,492.98277 C 445.63359,493.03936 444.80189,492.73131 445.26981,492.29821 z M 455.4079,489.19524 C 458.42317,487.77237 461.15073,486.84933 461.46916,487.14406 C 462.23791,487.85562 453.96864,491.78229 451.70144,491.78229 C 450.72473,491.78229 452.39264,490.61812 455.4079,489.19524 z M 399.83421,427.21578 C 399.84401,425.45872 406.46397,417.99877 407.30853,418.79305 C 407.68965,419.15148 406.16226,421.4754 403.91434,423.95734 C 401.66642,426.43926 399.83036,427.90556 399.83421,427.21578 z M 379.63364,423.30549 C 378.09634,417.63618 376.98658,395.12188 380.85445,377.44057 C 382.85397,368.30013 384.05705,359.64204 383.52795,358.20037 C 381.54132,352.78721 377.69525,302.65266 378.37742,291.06186 C 378.52509,288.55286 379.14882,270.07745 379.76349,250.00541 C 380.70378,219.30053 381.26567,212.85131 383.30529,209.35392 C 386.21271,204.36847 390.86646,201.12868 395.1203,201.12868 C 396.83377,201.12868 400.01956,200.4507 402.19983,199.62206 C 404.38009,198.79342 407.05991,198.06027 408.15497,197.99284 C 411.5854,197.78159 407.83904,194.07607 404.40885,194.07607 C 400.19023,194.07607 405.13584,193.70662 410.38844,192.92382 C 420.43919,191.42596 439.58334,180.62243 442.0824,175.03811 C 443.03915,172.90017 444.43043,171.15095 445.17412,171.15095 C 445.91782,171.15095 445.20727,173.12637 443.59512,175.54078 C 440.29275,180.48653 439.59304,190.90287 442.42415,192.97277 C 443.39226,193.68058 449.57058,196.14681 456.15374,198.45329 C 470.97535,203.64619 478.226,207.47618 483.37002,212.82968 L 487.35161,216.97341 L 487.13001,235.44448 C 487.00813,245.60357 486.73251,262.12684 486.51754,272.16286 L 486.12668,290.41017 L 476.03511,317.91558 C 469.48577,335.76634 465.63582,348.47114 465.06685,354.11066 C 464.58467,358.88997 463.8775,362.51093 463.49536,362.15723 C 463.11323,361.80352 460.42175,363.25799 457.51431,365.38938 C 451.44897,369.83576 446.86676,370.37391 445.63592,366.78443 C 445.16816,365.42032 444.74223,360.95535 444.68941,356.86226 C 444.61627,351.19451 445.31536,348.5164 447.62169,345.62904 C 449.28727,343.54387 450.26677,341.26385 449.79836,340.56236 C 448.63634,338.82206 449.51051,338.95446 454.23258,341.23394 C 459.44739,343.75127 461.7864,343.71058 461.7864,341.10252 C 461.7864,339.72709 462.55197,339.27993 464.01631,339.80003 C 465.43737,340.30476 466.02442,340.00077 465.63475,338.96194 C 465.29844,338.06539 466.196,335.93306 467.62933,334.22345 C 469.06265,332.51385 470.23538,330.31591 470.23538,329.33914 C 470.23538,328.36238 472.83193,320.67007 476.00548,312.24514 C 483.1928,293.16476 485.7448,283.82297 484.96154,279.46078 C 483.24747,269.91471 483.19082,265.58551 484.54327,247.49113 C 487.02602,214.27459 484.36044,209.7434 456.85782,200.42885 L 448.40884,197.56736 L 441.5783,203.43313 L 434.74776,209.29889 L 424.8527,208.44768 C 415.47519,207.64098 406.86803,204.5581 406.86803,202.00599 C 406.86803,201.36391 404.49175,201.22648 401.58742,201.7006 C 384.12665,204.55094 382.70321,206.97349 381.82225,235.33881 C 381.43639,247.76287 381.78392,258.0657 382.70279,261.44333 C 383.87117,265.73812 383.74774,269.11585 382.16685,276.10945 C 380.06759,285.39625 379.70423,307.78126 381.3531,326.24079 C 381.99788,333.4593 382.77569,336.09154 384.33742,336.34035 C 389.3656,337.14145 390.0499,334.89462 390.11419,317.37286 C 390.15155,307.19191 390.76051,299.88719 391.61253,299.3998 C 393.77073,298.16521 392.57861,263.53823 390.35061,262.74523 C 389.39817,262.40622 387.25234,260.08225 385.5821,257.58086 C 382.98769,253.69538 382.66862,251.81054 383.39183,244.64215 C 384.1703,236.92609 389.12967,223.37718 390.65782,224.79163 C 391.01729,225.12434 390.12112,228.29603 388.66634,231.83983 C 386.13451,238.00721 385.2931,243.25272 385.60291,250.93759 C 385.68138,252.88401 387.65689,256.4914 389.99293,258.95403 C 394.08044,263.26303 394.26806,264.00836 394.97857,278.76001 C 395.38464,287.19068 396.0481,294.58454 396.45292,295.19084 C 396.85775,295.79712 395.84113,298.0452 394.19375,300.18656 C 392.24603,302.71835 391.35307,305.56413 391.64042,308.32379 L 392.08231,312.56762 L 408.98027,314.73886 C 428.38109,317.2317 444.53142,317.68611 449.65441,315.88329 C 452.23573,314.9749 453.60952,313.12015 454.72274,309.04055 C 455.56268,305.96242 456.86999,302.08034 457.62788,300.41369 C 458.38576,298.74704 458.54088,296.69422 457.97257,295.85186 C 454.526,290.74322 454.87926,274.9944 458.79638,259.1257 C 464.41661,236.35751 465.26879,236.2974 465.58748,258.64674 C 465.74185,269.47276 466.2018,278.63923 466.60957,279.01667 C 467.01735,279.3941 468.47523,278.88619 469.8493,277.88795 C 472.10873,276.24656 472.16714,276.28628 470.46024,278.30343 C 469.4222,279.53017 467.44089,280.86642 466.05733,281.27287 C 464.41299,281.75593 463.21918,283.87921 462.61027,287.40373 C 462.09794,290.36925 459.54442,299.59038 456.93576,307.89512 C 454.32711,316.19987 451.38592,326.51378 450.39978,330.81493 C 449.41363,335.11609 450.346,342.19005 450.0709,341.07852 C 449.7958,339.96698 448.55347,330.83572 449.71097,326.24317 C 450.86847,321.65063 451.60835,317.70135 451.35516,317.46699 C 451.10196,317.23264 447.97673,317.64617 444.41021,318.38599 C 438.08195,319.69865 435.93257,319.53915 400.17925,315.10395 C 394.40113,314.38717 392.7379,314.57939 392.56434,315.984 C 392.44221,316.97243 392.21601,323.35309 392.06166,330.16324 C 391.84739,339.61783 390.5612,346.85959 386.62169,360.79266 C 380.58135,382.15581 379.53312,407.60991 381.0332,418.17265 C 381.85596,423.9661 381.19566,429.06596 379.63364,423.30549 z M 456.15374,364.05111 C 458.64103,361.90053 461.24273,360.14097 461.93532,360.14097 C 462.6279,360.14097 463.19456,356.74302 463.19456,352.58996 L 463.19456,345.03895 L 457.5567,343.64611 C 452.07568,342.292 451.84065,342.37036 449.10772,346.46328 C 445.00498,352.60769 445.52248,367.96125 449.83232,367.96125 C 450.82182,367.96125 453.66646,366.20169 456.15374,364.05111 z M 387.74635,350.05418 C 388.24788,347.35804 389.00374,343.53918 389.42603,341.56781 C 390.10455,338.40037 389.77141,337.98352 386.56155,337.98352 C 383.10419,337.98352 382.92925,338.32364 382.92925,345.0455 C 382.92925,356.71295 385.92774,359.83069 387.74635,350.05418 z M 463.33136,281.22105 C 464.2755,279.47646 464.36703,274.04695 463.59503,265.58049 L 462.41254,252.61217 L 459.98722,262.22155 C 457.4284,272.35989 456.93043,281.32092 458.52036,288.61802 L 459.47882,293.01693 L 460.68201,288.4551 C 461.34377,285.9461 462.53598,282.69078 463.33136,281.22105 z M 437.23037,204.80071 C 439.69745,203.23603 442.46709,200.84259 443.38514,199.48195 C 444.79581,197.3912 444.47364,196.50995 441.30486,193.79176 C 438.32445,191.23514 437.67074,189.66109 438.1177,186.11745 L 438.67999,181.65944 L 434.39136,184.33027 C 432.03261,185.79922 426.4591,188.51626 422.00578,190.36814 C 417.55247,192.22002 413.90885,194.48569 413.90885,195.40296 C 413.90885,196.32023 412.62767,197.90133 411.06178,198.9165 C 408.55587,200.5411 408.4699,200.9583 410.34436,202.3982 C 413.59212,204.89303 422.49455,207.52446 427.90334,207.58837 C 430.65883,207.62093 434.67741,206.41986 437.23037,204.80071 z M 397.01089,293.82246 C 397.01089,293.1056 397.64456,292.1566 398.41905,291.71355 C 399.19354,291.27051 399.82721,291.49454 399.82721,292.2114 C 399.82721,292.92826 399.19354,293.87727 398.41905,294.32031 C 397.64456,294.76335 397.01089,294.53932 397.01089,293.82246 z M 433.62313,260.5372 C 433.62313,260.23638 436.86402,258.9939 440.82511,257.77614 C 445.86923,256.22542 448.71716,254.43917 450.33022,251.81442 C 452.85867,247.70016 455.16857,246.70921 453.78747,250.33125 C 452.2141,254.45754 447.29374,258.45977 442.17668,259.77546 C 436.83111,261.14993 433.62313,261.43562 433.62313,260.5372 z M 397.05167,192.05593 C 393.61656,190.04516 396.01141,189.64839 400.53129,191.47944 C 403.73408,192.77693 407.28894,194.27165 405.15375,194.30109 C 403.60477,194.32244 398.19097,192.72284 397.05167,192.05593 z M 393.92501,182.05934 C 392.26688,176.85051 388.16158,167.14306 387.63942,164.63406 C 387.11726,162.12505 385.52702,159.30582 384.10556,158.3691 C 381.19262,156.44951 380.64188,152.08875 383.21223,151.29573 C 385.14566,150.6992 384.88781,138.7727 382.83334,133.77114 C 381.90691,131.51577 382.4616,128.19632 384.87199,121.57106 C 387.63329,113.98129 389.16207,111.81315 394.07525,108.5189 C 398.90072,105.28346 401.6749,104.47065 409.40228,104.02819 L 418.83742,103.48796 L 409.73059,104.68697 C 396.25434,106.46126 390.44346,110.7518 386.41398,121.90309 C 383.70875,129.38964 383.52704,130.99207 385.15774,132.98181 C 386.94531,135.16298 387.06697,135.12899 387.10896,132.43668 C 387.14308,130.24932 395.83796,130.00418 399.67661,128.59316 C 408.78684,125.24441 407.55483,127.71215 401.16649,129.69164 C 397.02959,130.9735 388.84651,131.64119 387.27247,137.32577 C 384.36192,147.83709 385.56499,149.79381 395.58335,150.84291 C 400.24094,151.33065 404.0517,152.18908 404.0517,152.75054 C 404.0517,154.12281 407.83537,153.73697 414.40018,151.69526 C 417.65304,150.68359 423.5648,150.24203 429.18589,150.59087 C 438.36908,151.16079 446.2966,149.80091 446.2966,147.65572 C 446.2966,147.06019 445.34609,145.69316 444.18436,144.61787 C 443.02262,143.54258 442.07211,142.09515 442.07211,141.40135 C 442.07211,140.70754 439.90886,138.38186 437.26489,136.23317 C 433.54112,133.20695 430.12938,131.9703 422.12714,130.74622 C 408.82821,128.71191 399.50494,126.40632 409.22517,127.06973 C 426.08041,128.22009 441.3763,134.08862 446.15313,144.76277 C 447.59583,147.98658 448.42247,148.39251 452.62094,147.93884 C 456.8581,147.48098 457.54671,147.83198 458.37034,150.86938 C 460.28238,157.92065 452.58556,170.00502 446.33532,169.76496 C 445.05372,169.71573 445.46133,169.20715 447.34382,168.50663 C 454.52571,165.83407 459.9149,148.9935 453.58827,148.9935 C 448.80311,148.9935 437.21422,153.33887 434.87825,156.009 C 431.70042,159.64143 414.18712,160.79529 410.73463,157.59971 C 407.72179,154.81105 405.18092,154.96631 402.26619,158.11716 C 400.705,159.80482 398.1122,160.72392 394.91242,160.72392 C 390.31,160.72392 389.97007,161.0056 389.97007,164.81938 C 389.97007,167.07188 391.28233,172.99328 392.8862,177.97803 C 394.49007,182.96278 397.90449,190.74138 397.53177,190.98201 C 395.20671,192.48305 395.47065,187.33566 393.92501,182.05934 z M 386.66782,154.91492 C 386.2092,153.80872 385.17504,152.90364 384.36968,152.90364 C 383.44289,152.90364 383.53632,153.83875 384.62422,155.45112 C 386.56717,158.33078 387.93517,157.97184 386.66782,154.91492 z M 401.69178,156.28952 C 402.10852,155.28431 402.0707,154.11127 401.60774,153.68276 C 400.2103,152.3893 397.01089,152.80773 397.01089,154.28394 C 397.01089,155.04311 397.74247,155.24575 398.63662,154.73425 C 399.68826,154.13267 399.87816,154.37965 399.17438,155.43364 C 398.53225,156.39533 396.17537,156.85653 393.42293,156.55911 C 390.85802,156.28195 389.06925,156.51913 389.44787,157.08617 C 390.66661,158.9114 400.8803,158.24683 401.69178,156.28952 z M 429.75068,156.74525 C 435.79664,155.19114 436.573,153.31146 431.64204,152.16596 C 427.28447,151.15366 421.05968,153.94929 423.92779,155.63054 C 425.26116,156.41214 424.31896,156.77386 420.94966,156.77386 C 417.25388,156.77386 416.54943,156.45783 418.13334,155.5104 C 419.29507,154.8155 419.92874,154.19437 419.5415,154.13013 C 419.15425,154.06588 417.41165,153.76732 415.66905,153.46665 C 412.61894,152.9404 411.26546,155.23601 413.43946,157.24824 C 414.85139,158.5551 423.78103,158.27974 429.75068,156.74525 z M 426.58231,154.16611 C 426.58231,153.47175 427.53282,152.90364 428.69456,152.90364 C 429.85629,152.90364 430.8068,153.13415 430.8068,153.41588 C 430.8068,153.69762 429.85629,154.26573 428.69456,154.67836 C 427.53282,155.09098 426.58231,154.86048 426.58231,154.16611 z M 389.97007,152.90364 C 389.97007,152.18678 389.299,151.60026 388.4788,151.60026 C 387.6586,151.60026 387.37916,152.18678 387.85783,152.90364 C 388.33649,153.6205 389.00756,154.20702 389.34909,154.20702 C 389.69063,154.20702 389.97007,153.6205 389.97007,152.90364 z M 402.2915,182.84243 C 400.93614,182.07574 399.82721,180.5181 399.82721,179.38099 C 399.82721,177.6479 400.909,177.46974 406.51599,178.27941 C 410.19481,178.81064 414.41795,179.21281 415.90074,179.17311 C 418.28406,179.1093 418.3544,179.3252 416.5073,181.03486 C 413.78294,183.5565 405.43117,184.61844 402.2915,182.84243 z M 410.86996,181.73289 C 412.23121,180.93432 411.64279,180.4267 408.76574,179.91765 C 404.08301,179.0891 401.51545,180.11519 404.2534,181.72095 C 406.66482,183.13521 408.47397,183.13847 410.86996,181.73289 z M 413.25027,149.2087 C 413.99973,148.58485 417.50582,147.35555 421.04158,146.47692 C 426.48633,145.12391 428.21049,145.19634 432.30689,146.95016 C 435.54143,148.33498 435.97742,148.76515 433.62313,148.24878 C 426.9261,146.77992 424.48817,146.83295 418.20135,148.58421 C 414.7288,149.55153 412.50081,149.83255 413.25027,149.2087 z M 392.7864,146.95423 L 386.44966,145.17088 L 392.7864,145.94506 C 396.2716,146.37087 400.39048,147.19378 401.93946,147.77376 C 404.75578,148.82827 404.75578,148.82827 401.93946,148.78293 C 400.39048,148.75799 396.2716,147.93508 392.7864,146.95423 z M 458.22958,139.9976 C 459.86049,134.27516 459.76857,133.02561 457.34869,128.02283 C 455.86269,124.95073 454.96604,121.66738 455.35612,120.72649 C 455.7462,119.7856 455.13473,119.01578 453.9973,119.01578 C 452.73079,119.01578 451.92925,117.75431 451.92925,115.76107 C 451.92925,113.34227 450.75385,112.02523 447.35272,110.63305 C 443.55156,109.07714 436.22977,107.23213 439.15374,107.62194 C 441.08996,107.88007 450.23027,109.742 450.73538,109.79527 C 451.24048,109.84853 452.31644,111.65168 453.12641,113.80226 C 453.93638,115.95283 455.33351,117.7124 456.23115,117.7124 C 457.16485,117.7124 457.48425,118.62648 456.97759,119.84858 C 456.49049,121.02348 457.3839,124.45497 458.96294,127.47412 C 461.5304,132.38311 461.65697,133.67306 460.16015,139.67511 C 459.23957,143.36651 456.94745,149.95817 456.37608,149.95817 C 455.80471,149.95817 457.22807,143.51163 458.22958,139.9976 z M 404.43308,127.35197 C 404.901,126.91887 406.11554,126.87257 407.13206,127.24908 C 408.2554,127.66515 407.92172,127.97399 406.28129,128.03653 C 404.79686,128.09313 403.96516,127.78508 404.43308,127.35197 z M 435.81827,106.59222 C 434.31489,105.53973 431.46336,104.59873 429.48154,104.50111 C 426.37486,104.34807 421.83095,103.53386 424.43958,103.06179 C 426.10368,102.76064 434.36063,104.43459 437.33199,105.90864 C 440.30336,107.3827 441.79336,108.57009 440.64309,108.54729 C 439.49283,108.52449 437.32166,107.64471 435.81827,106.59222 z M 416.12823,103.91093 C 418.85832,102.2779 425.17415,101.74219 425.17415,103.37522 C 425.17415,104.09208 423.74839,104.66962 422.00578,104.65864 C 419.44372,104.64251 414.42019,104.93262 416.12823,103.91093 z "
       id="path3048"
       sodipodi:nodetypes="csssssssssssssssssssssscccssscccssssssssssssssssssssssssssssssssssssssssssssssssccssccssssssccsssccsssccssssssscccsccssccssssccscccssscccccssccssccssccssccsssssssssssssssccccccsssssssssssssssscccccssssssssssssssssssscccssssssssssssssssssssssccscccssccsssccccccccccsscccsssssccsssccssssccssccsssssscccsssssssssssssssssssssssssssssccssccssssssccsssssssccsssccsssccssssccssccssssccccssccsssssssssssssccssccssssccssc" />
    <path
       style="fill:#000000"
       d="M 660.81168,538.43064 C 660.3751,537.75858 659.27034,537.61622 658.35666,538.11428 C 657.44299,538.61235 657.16472,538.52703 657.73829,537.92467 C 658.31186,537.32232 658.06623,536.00995 657.19246,535.0083 C 655.22141,532.74883 658.51052,528.87932 664.36227,526.5733 C 667.9818,525.14694 668.40527,524.22184 669.47256,515.40966 C 670.1126,510.12503 670.67718,501.73602 670.72718,496.76741 C 670.81298,488.24267 670.63817,487.73358 667.62532,487.73358 C 665.35393,487.73358 664.43254,486.949 664.43254,485.01489 C 664.43254,483.51959 663.48299,481.94953 662.32242,481.52583 C 661.16185,481.10213 660.2123,480.15108 660.2123,479.41238 C 660.2123,477.01692 649.86089,457.80573 644.86486,450.92906 C 642.19094,447.24861 640.27724,444.13502 640.61221,444.00998 C 640.94717,443.88494 639.65064,442.07817 637.73102,439.99494 C 635.81141,437.91171 634.41483,435.45444 634.62751,434.53433 C 634.84019,433.61421 634.43667,432.86139 633.73079,432.86139 C 633.02491,432.86139 632.12488,437.22775 631.73072,442.5644 C 630.99645,452.50585 628.61227,460.55559 622.91099,472.3426 C 621.13078,476.02305 619.21923,481.73411 618.66311,485.03385 C 618.10698,488.33358 616.70858,491.68965 615.55556,492.49176 C 613.70563,493.7787 613.72667,494.44232 615.73454,498.13631 C 617.14263,500.72685 618.00992,505.6226 618.00992,510.9806 L 618.00992,519.63877 L 611.17824,521.79754 C 607.42082,522.98488 602.89755,525.42374 601.12653,527.21724 C 599.35552,529.01075 596.1166,533.01783 595.45671,532.62983 C 594.79682,532.24183 594.09888,530.0055 592.37795,531.15229 C 590.60603,532.33303 585.87657,533.33492 581.4732,533.46233 L 573.69741,533.68732 L 582.13789,534.49731 C 589.32317,535.18684 590.9497,534.92617 593.07535,532.74438 C 596.14294,529.59578 597.70219,530.66443 595.57026,534.45429 C 594.12558,537.02246 592.81348,537.2318 578.68648,537.14804 C 566.39034,537.07512 563.20845,536.6589 562.55459,535.03781 C 561.16894,531.60244 561.53334,531.22622 568.86972,528.51771 C 572.79102,527.07001 576.84151,524.9801 577.87081,523.87347 C 583.03628,518.31988 595.92156,493.47724 594.65103,491.52144 C 594.04207,490.58403 594.28613,490.36454 595.28463,490.95164 C 597.5204,492.26625 597.32573,490.40383 594.95927,487.83896 C 593.29744,486.03781 593.30139,484.73872 594.98602,479.03433 C 597.60079,470.18035 603.76879,431.34474 603.31787,426.57452 C 603.12286,424.51163 602.48788,420.6046 601.90678,417.89224 C 601.23562,414.75945 601.52313,411.09824 602.69504,407.85464 C 604.06466,404.06378 604.55347,391.513 604.59282,359.12703 C 604.63016,328.40195 605.12235,314.949 606.25763,313.62327 C 607.14412,312.58808 607.6229,309.33207 607.32159,306.38771 C 607.02028,303.44335 607.68918,298.02305 608.80803,294.34259 C 609.92688,290.66214 611.22198,284.03733 611.68603,279.62079 C 613.58112,261.58437 612.714,256.72623 606.50822,250.61166 C 601.65706,245.8318 601.54843,245.49728 602.66501,238.77726 C 603.297,234.97374 604.37198,231.16469 605.05385,230.3127 C 605.73573,229.46072 606.12907,222.89901 605.92793,215.73113 C 605.72679,208.56325 606.15765,202.34851 606.8854,201.92061 C 607.61316,201.4927 607.83469,200.56704 607.3777,199.86357 C 606.92072,199.16011 607.06865,198.69248 607.70644,198.8244 C 608.34424,198.95633 611.08169,198.13648 613.78968,197.00252 C 616.49767,195.86857 620.72692,194.53233 623.18801,194.03311 C 625.64911,193.53388 628.49777,192.16367 629.51837,190.9882 C 631.15439,189.10392 630.92119,188.93282 627.54802,189.54255 C 625.44374,189.92291 624.05676,189.71887 624.46587,189.08911 C 624.87497,188.45935 623.92252,187.9441 622.3493,187.9441 C 618.08688,187.9441 611.15961,173.11691 608.76452,158.86714 C 608.25102,155.812 606.95598,152.99294 605.88667,152.60255 C 603.67628,151.79559 603.19675,145.11703 605.3492,145.11703 C 606.12291,145.11703 606.82938,144.06308 606.91913,142.77492 C 607.06911,140.62237 607.13338,140.61739 607.71318,142.7133 C 608.57492,145.82836 621.95685,146.37426 637.67486,143.93555 C 646.30177,142.59705 650.67763,142.47091 653.48691,143.47974 C 656.21642,144.45992 658.86708,144.43777 662.40332,143.40524 C 666.51441,142.20486 667.29295,141.43088 666.65661,139.17684 C 666.22821,137.65936 665.86906,135.34893 665.85849,134.04255 C 665.84793,132.73617 664.31819,131.11712 662.45907,130.44465 C 660.59995,129.77218 658.69358,128.62891 658.2227,127.90405 C 657.75181,127.17919 655.31644,126.17163 652.81075,125.66503 C 650.30507,125.15843 647.22819,123.88402 645.97324,122.833 C 643.71541,120.94206 620.3657,118.32525 612.80051,119.11532 C 607.93439,119.62351 606.80309,121.69419 606.77749,130.13962 C 606.76515,134.20883 608.15739,144.41397 607.40301,143.97041 C 606.67853,143.54443 604.12359,134.65381 604.12615,133.38015 C 604.12872,132.10648 603.69395,128.54296 603.15999,125.4612 C 601.21284,114.22309 603.7202,109.47539 617.60363,98.112092 C 621.20728,95.162572 623.79694,94.452312 633.85304,93.655372 C 644.39527,92.819902 646.49661,93.037872 651.55117,95.491132 C 654.70572,97.022212 658.08207,98.274922 659.05417,98.274922 C 660.02626,98.274922 663.4792,99.240509 666.72737,100.42068 C 675.68154,103.67404 681.1685,112.79257 681.34839,124.71874 C 681.42326,129.68103 681.14529,136.15011 680.73071,139.09447 C 680.31611,142.03883 679.60987,146.98171 679.16127,150.07864 C 678.32973,155.81929 673.34667,161.34258 667.3712,163.1469 C 665.88427,163.59589 664.04302,165.66804 663.27954,167.75169 C 661.69562,172.0744 662.12699,183.64716 663.93181,185.25046 C 666.92863,187.91269 690.01295,196.22192 692.61425,195.57475 C 694.57155,195.08779 697.05213,196.22884 700.42283,199.16666 C 707.35527,205.20882 709.0353,216.10057 705.28135,230.66502 C 703.84336,236.24408 701.73444,245.02455 700.59485,250.17718 C 699.45526,255.32981 697.42285,263.15914 696.07836,267.57568 C 694.73388,271.99222 693.47907,276.50914 693.28991,277.61327 C 692.4468,282.53432 687.84517,290.15954 683.55675,293.74174 L 678.88263,297.64611 L 680.77332,308.70864 C 683.62734,325.40781 683.20994,330.85583 677.90914,346.09248 C 675.26303,353.69846 671.70808,364.43846 670.00922,369.95914 C 668.31035,375.47981 664.45054,384.6716 661.43184,390.38533 C 657.90932,397.05269 656.17062,401.96656 656.5779,404.10338 C 656.95898,406.10273 656.54723,407.45061 655.54722,407.47735 C 654.63132,407.50184 655.37221,408.70313 657.19365,410.14687 C 659.0151,411.59061 661.08815,412.42919 661.80043,412.01038 C 662.51272,411.59157 662.95016,411.74536 662.77253,412.35214 C 662.59489,412.95892 664.79487,416.88947 667.66137,421.08669 C 670.52786,425.28392 674.68935,433.85989 676.90912,440.14442 C 679.12889,446.42893 681.75566,452.50001 682.74639,453.63572 C 683.7371,454.77143 684.67047,457.33719 684.82052,459.33741 C 685.29935,465.72013 685.46877,466.01435 689.17474,466.89926 C 691.75709,467.51588 692.42971,468.23906 691.48804,469.38646 C 687.73353,473.96125 688.51309,477.2849 695.27514,485.53265 C 704.35876,496.61211 704.8347,499.79858 698.35607,506.16078 C 695.55919,508.9074 691.41204,515.37042 689.14019,520.52305 C 686.86834,525.67568 684.01968,530.4827 682.80983,531.20531 C 677.72899,534.23997 661.54294,539.55631 660.81168,538.43064 z M 667.98663,534.83416 C 667.5535,534.42209 666.4184,534.8333 665.46415,535.74795 C 664.08517,537.06973 664.24675,537.22345 666.25164,536.49716 C 667.63901,535.99457 668.41975,535.24622 667.98663,534.83416 z M 572.99404,533.75042 C 572.99404,533.46823 571.37409,533.23734 569.39415,533.23734 C 567.41422,533.23734 566.14878,533.78305 566.58206,534.45004 C 567.30279,535.5595 572.99404,534.93851 572.99404,533.75042 z M 671.62104,530.37417 C 676.17818,528.06336 679.90675,525.72457 679.90675,525.17689 C 679.90675,524.17315 675.03827,522.5827 671.8621,522.54884 C 670.91926,522.53879 670.4874,523.37247 670.90245,524.40144 C 671.38348,525.59408 669.58254,527.38158 665.93468,529.3321 C 660.38533,532.29936 658.57903,534.57568 661.77382,534.57568 C 662.63266,534.57568 667.06391,532.685 671.62104,530.37417 z M 587.0615,530.36654 C 587.0615,529.7372 585.83279,529.2223 584.33103,529.2223 C 582.82927,529.2223 581.18384,528.58082 580.67451,527.79677 C 580.07136,526.86831 578.7318,527.21831 576.83281,528.80053 C 575.22921,530.13664 574.34337,530.53317 574.86429,529.6817 C 576.00797,527.81231 570.56569,528.88504 569.34091,530.7704 C 568.88459,531.47285 572.49453,531.89205 577.80331,531.7531 C 582.89532,531.61983 587.0615,530.99588 587.0615,530.36654 z M 599.55074,523.39632 C 600.47956,522.33157 604.6823,520.13104 608.89016,518.50623 C 615.75543,515.8553 616.38791,515.2802 615.05128,512.90412 C 614.23202,511.44777 613.92954,509.90629 614.37908,509.47861 C 614.82862,509.05092 615.19642,509.50401 615.19642,510.48546 C 615.19642,511.46691 615.52426,511.95801 615.92496,511.57681 C 616.32565,511.1956 615.69652,509.13789 614.52688,507.00412 C 613.35724,504.87036 612.39637,502.33619 612.3916,501.37263 C 612.38674,500.39001 611.66977,500.04006 610.75883,500.57566 C 609.74451,501.17207 609.51692,500.94227 610.15266,499.96365 C 610.71253,499.10182 611.75989,498.74317 612.48014,499.16668 C 613.20038,499.59017 613.78968,499.39924 613.78968,498.74238 C 613.78968,496.40369 612.16055,496.07913 607.39951,497.46928 C 603.33162,498.65705 602.84669,499.19431 604.31298,500.88891 C 605.80611,502.61452 605.52299,502.77392 602.31471,502.01391 C 600.25889,501.5269 597.7254,500.81761 596.68474,500.43769 C 595.43194,499.98031 592.89239,503.25685 589.16864,510.13498 C 586.07544,515.84842 582.68771,521.54286 581.64035,522.78929 C 579.95126,524.79941 580.34868,525.33891 585.15721,527.56325 C 590.35879,529.9694 590.72588,529.97501 594.22017,527.70159 C 596.22316,526.39843 598.62192,524.46105 599.55074,523.39632 z M 686.91894,519.93267 C 686.93415,518.57027 686.35751,518.76243 684.95511,520.58708 C 683.86315,522.00781 683.30924,523.69286 683.7242,524.33162 C 684.63499,525.73367 686.88881,522.6303 686.91894,519.93267 z M 683.39936,518.47819 C 683.0162,517.88838 683.18143,517.20381 683.76653,516.95691 C 684.75776,516.53865 688.86192,510.85699 694.51075,502.08299 C 695.82738,500.03795 696.52444,497.7795 696.05976,497.06419 C 695.5951,496.3489 696.21808,495.76365 697.44417,495.76365 C 699.43863,495.76365 699.45603,495.37597 697.60951,492.0832 C 693.94521,485.54899 688.61169,480.65892 686.13528,481.563 C 684.77039,482.06129 684.17389,483.24274 684.66829,484.46851 C 685.12656,485.60467 684.92129,486.1931 684.21215,485.77614 C 683.50301,485.35916 682.49782,486.2919 681.9784,487.84886 C 681.29122,489.9087 680.6123,490.27851 679.48565,489.20664 C 675.96853,485.86053 674.5916,487.90911 673.50418,498.10576 C 672.8958,503.81046 672.30072,511.18809 672.18177,514.50049 C 671.97602,520.22999 672.17582,520.55901 676.28781,521.26219 C 680.66666,522.011 684.67498,520.44184 683.39936,518.47819 z M 689.48228,513.79591 C 689.04916,513.38385 688.26256,514.12663 687.73429,515.44653 C 686.97088,517.35394 687.13246,517.50766 688.52179,516.19574 C 689.48318,515.28788 689.91541,514.20797 689.48228,513.79591 z M 606.05258,495.90505 L 611.67956,493.43996 L 606.38872,492.44256 C 603.47876,491.894 600.70917,490.8468 600.23406,490.11543 C 599.67885,489.26076 601.06651,489.15469 604.11815,489.81852 C 610.11622,491.1233 613.81554,490.92101 615.63642,489.18867 C 616.60166,488.27036 615.50909,488.0646 612.26152,488.5531 C 609.62031,488.95039 605.87673,488.6596 603.94246,487.90692 C 600.57577,486.59683 600.63584,486.53786 605.3492,486.52583 C 612.95052,486.50641 615.14385,486.05869 614.26502,484.70586 C 613.82081,484.02206 611.36092,483.69545 608.79859,483.98004 C 606.23626,484.26464 604.41967,484.06667 604.76173,483.54012 C 605.10378,483.01358 604.26809,482.26757 602.90462,481.88234 C 601.54115,481.4971 603.05567,481.49477 606.27022,481.87715 C 610.64559,482.3976 612.88244,481.95944 615.16829,480.13418 C 618.56261,477.42379 622.17164,472.06106 619.57313,473.58895 C 618.61998,474.14938 618.35717,473.70811 618.87681,472.41979 C 619.33588,471.28165 620.27093,470.6794 620.9547,471.08145 C 621.63848,471.4835 621.82093,470.87778 621.36016,469.73542 C 620.89939,468.59305 621.1341,467.65839 621.88173,467.65839 C 625.64545,467.65839 632.0618,435.07715 628.89198,432.06145 C 628.42944,431.6214 628.38688,430.42862 628.7974,429.41082 C 629.20793,428.39302 627.52369,425.13369 625.05465,422.16785 C 620.98609,417.28064 620.62521,416.10311 621.20288,409.59971 C 621.55344,405.65308 622.29577,401.72284 622.85249,400.86584 C 623.40922,400.00883 624.41762,395.86607 625.09339,391.65971 C 625.76915,387.45334 626.6374,382.50613 627.02283,380.66591 C 627.40826,378.82568 628.05883,374.30876 628.46856,370.62831 C 628.87828,366.94786 630.38637,358.84426 631.81986,352.62029 C 634.82402,339.57684 638.08547,335.99144 646.27059,336.73425 L 651.06845,337.16966 L 645.07251,339.41056 C 641.28127,340.82748 639.41743,341.07354 640.00358,340.07974 C 640.63795,339.0042 640.44425,338.93053 639.39003,339.84636 C 636.70078,342.18259 630.81377,368.60094 628.50448,388.69598 C 628.29301,390.53621 627.00612,396.55876 625.64474,402.07944 C 624.28335,407.60012 623.22802,413.07885 623.29956,414.25441 C 623.42863,416.3754 626.56317,421.19684 633.65956,430.18982 C 637.55234,435.12299 652.02947,458.16699 656.54399,466.61616 C 658.00757,469.35534 659.84601,471.21962 660.6294,470.759 C 661.4128,470.29838 661.65702,470.53222 661.17213,471.27865 C 660.03169,473.03419 663.02454,479.05889 665.8798,480.75532 C 667.47928,481.70565 669.83149,481.20428 674.35208,478.94949 C 677.794,477.2327 682.35097,475.06237 684.47867,474.12651 C 689.34961,471.98404 689.32359,470.93835 684.28787,466.46303 L 680.22853,462.8554 L 676.55077,466.61837 C 674.52801,468.688 672.87302,469.86201 672.87302,469.22729 C 672.87302,468.59257 674.16141,466.96395 675.73612,465.60815 C 677.31082,464.25235 678.29269,462.38308 677.91803,461.4542 C 677.54336,460.52533 678.47058,459.39279 679.97853,458.93746 C 683.17646,457.97183 683.55289,456.20363 680.77633,455.18997 C 679.70717,454.79964 678.05807,451.40946 677.11167,447.65622 C 674.48875,437.25427 671.00016,429.32043 667.24031,425.20648 C 665.3699,423.15991 663.97299,421.33489 664.13605,421.15087 C 664.29912,420.96685 664.43254,420.14028 664.43254,419.31407 C 664.43254,418.28621 663.75605,418.34598 662.29022,419.50336 C 660.50408,420.91365 660.29181,420.83808 661.01351,419.04881 C 661.56036,417.69302 660.46053,415.65195 658.0268,413.50613 C 653.71354,409.7031 649.28303,409.08559 648.0603,412.11703 C 647.61495,413.22117 646.52701,414.1069 645.64265,414.08533 C 644.75829,414.06374 646.10207,412.25697 648.62884,410.07029 C 651.1556,407.88359 652.42168,406.04693 651.44233,405.98881 C 650.0592,405.90675 650.07066,405.72726 651.49366,405.1848 C 652.62856,404.75217 651.5899,403.64658 648.76394,402.27917 C 646.25502,401.06519 643.92188,399.22868 643.57918,398.19808 C 643.09832,396.75195 643.71258,396.82832 646.27023,398.53266 C 648.09299,399.74729 650.55131,400.73793 651.73315,400.73408 C 654.79398,400.72408 663.56248,382.52352 663.33573,376.65087 C 663.17932,372.60003 663.29784,372.41907 664.21226,375.31252 C 665.1679,378.33638 665.45359,378.01439 667.18086,371.96666 C 668.23203,368.28621 670.9134,359.88953 673.1395,353.30737 C 675.36557,346.72521 676.85658,340.52081 676.45283,339.51981 C 676.04908,338.51881 676.22328,337.99648 676.83993,338.35906 C 677.45659,338.72165 678.73695,336.25866 679.68517,332.88577 C 681.01808,328.14446 681.0425,324.36721 679.79277,316.23587 L 678.17634,305.71853 L 672.64132,305.71853 C 667.27301,305.71853 658.8147,308.80574 658.79666,310.7717 C 658.78311,312.24898 650.47874,316.4253 647.55481,316.4253 C 646.13457,316.4253 644.72589,317.1293 644.42442,317.98972 C 644.11707,318.86694 641.43931,317.21942 638.32852,314.23918 L 632.78075,308.92421 L 621.47525,309.42183 C 605.66656,310.11768 605.98728,309.23511 606.28537,351.2223 C 606.4134,369.25651 606.80537,387.92643 607.15642,392.71102 C 607.58231,398.51575 607.1538,402.61276 605.86857,405.02426 C 603.2943,409.85439 603.43961,416.12826 606.29021,423.22952 C 607.92328,427.29773 608.17193,429.35213 607.10704,429.97826 C 605.79178,430.75161 604.64902,436.57378 601.6814,457.62079 C 600.33983,467.13548 598.4119,475.69301 597.07413,478.07112 C 596.05952,479.87476 596.11326,481.08807 597.25592,482.17516 C 598.48109,483.34076 598.46498,483.71854 597.19007,483.71854 C 596.26162,483.71854 595.50198,484.35634 595.50198,485.13587 C 595.50198,485.91541 596.06868,486.21999 596.76132,485.81273 C 598.60643,484.72784 599.50765,487.9825 598.21967,491.07944 C 596.5156,495.17689 596.71518,498.44421 598.66716,498.40525 C 599.6343,498.38594 602.95773,497.26086 606.05258,495.90505 z M 679.64603,469.65331 C 681.43691,468.40595 683.28326,467.74792 683.74903,468.19105 C 684.87549,469.26273 684.10874,469.81567 679.90675,470.96191 L 676.38988,471.92125 L 679.64603,469.65331 z M 674.27976,483.65683 C 674.27976,483.05389 675.70409,482.13756 677.44494,481.62055 C 681.00816,480.56232 688.15446,474.35012 685.80858,474.35012 C 684.97503,474.35012 683.86157,475.01427 683.33425,475.82602 C 682.01955,477.84983 668.4157,483.73712 666.99043,482.89907 C 666.3573,482.52681 665.83929,483.05685 665.83929,484.07693 C 665.83929,485.37644 667.1026,485.75525 670.05952,485.34237 C 672.38065,485.01826 674.27976,484.25977 674.27976,483.65683 z M 681.34171,484.35536 C 684.12192,481.16831 682.08252,480.6814 678.34759,483.64055 C 675.74525,485.70236 675.50177,486.31627 677.2727,486.3507 C 678.53195,486.3752 680.36301,485.4773 681.34171,484.35536 z M 650.38723,313.42275 C 656.54888,311.59322 657.23874,310.53033 653.54197,308.56211 C 652.19443,307.84464 651.54609,306.82552 652.10123,306.29737 C 652.65637,305.76923 654.02719,306.06083 655.14749,306.9454 C 656.76353,308.22138 658.34951,307.9882 662.82315,305.81689 C 669.43089,302.60978 671.39777,300.37385 666.89629,301.1866 C 663.99135,301.7111 663.96208,301.6607 666.54266,300.57783 C 668.09008,299.92849 670.25734,299.71956 671.35881,300.11353 C 672.75361,300.61244 673.09559,300.17069 672.48551,298.65814 C 671.83927,297.05594 672.20464,296.70369 673.8788,297.31489 C 675.52273,297.91504 675.82704,297.64919 674.98313,296.35011 C 674.13737,295.04818 674.44473,294.78561 676.10504,295.39176 C 677.66566,295.96151 679.90893,294.54046 683.16909,290.91688 C 688.02173,285.52332 693.11827,272.2979 696.80557,255.53056 C 697.7768,251.11402 700.13913,241.52338 702.0552,234.21803 C 708.11807,211.10222 705.36595,203.02305 689.68113,197.8925 C 684.69207,196.26057 677.82803,193.71316 674.4277,192.23159 L 668.24527,189.53782 L 664.7552,193.48385 C 654.95822,204.56079 636.55358,205.64089 629.10944,195.57578 C 628.00211,194.07857 616.98218,197.09313 612.21842,200.1964 C 608.09355,202.88347 606.46297,210.42784 608.03295,219.56167 L 608.92452,224.74861 L 610.81699,220.41599 C 611.85785,218.03306 613.24542,216.39852 613.90049,216.78368 C 614.55555,217.16886 613.89392,219.51253 612.43019,221.99187 C 610.96646,224.4712 610.04051,226.85855 610.37253,227.29711 C 610.70454,227.73566 610.54375,227.78344 610.01521,227.40328 C 609.05588,226.71327 604.07359,235.59683 603.99803,238.13207 C 603.8514,243.05207 607.29927,249.70656 610.91735,251.48658 C 613.80878,252.90909 614.74839,254.19479 614.24226,256.03611 C 613.85423,257.44778 614.28047,259.92485 615.18945,261.54071 C 616.49974,263.86998 616.33469,266.44868 614.39277,273.98754 C 612.74074,280.40102 612.43371,283.65193 613.4496,283.97409 C 614.45157,284.29184 614.53878,285.83508 613.71012,288.58396 C 613.025,290.85667 612.86044,293.32573 613.34442,294.07075 C 613.8284,294.81578 613.55987,295.03461 612.74769,294.55706 C 610.87315,293.45487 609.56944,296.64697 609.56944,302.33894 C 609.56944,307.60309 611.1531,308.39523 621.67732,308.39523 C 629.0494,308.39523 629.66128,308.10791 638.09153,300.68775 C 642.90771,296.44863 650.18657,290.31983 654.26679,287.06819 C 659.74707,282.70079 661.21727,280.83512 659.89378,279.92761 C 658.62099,279.05487 658.81438,278.91703 660.56159,279.45166 C 663.418,280.32568 671.46627,273.53462 671.46627,270.25039 C 671.46627,269.09554 672.41565,266.77217 673.57602,265.08734 C 674.73639,263.40251 676.65315,255.44381 677.83551,247.40134 C 679.01787,239.35889 680.57688,230.72731 681.3,228.22008 C 682.02311,225.71283 682.2891,223.16015 681.89106,222.54743 C 681.49304,221.93472 682.1498,221.79207 683.35054,222.23043 C 684.74419,222.73923 685.53373,222.27824 685.53373,220.95575 C 685.53373,218.52953 687.8226,216.83573 688.88703,218.47427 C 689.29085,219.09589 688.08451,221.6653 686.20628,224.18407 C 683.01558,228.46292 681.41867,235.71127 677.75226,262.55688 C 677.33195,265.63442 679.04589,266.63772 680.61012,264.22981 C 681.0883,263.49372 682.46925,262.89147 683.67888,262.89147 C 687.3302,262.89147 683.17168,266.5995 678.40279,267.59599 C 676.13513,268.06983 674.27976,269.11507 674.27976,269.91873 C 674.27976,270.72241 673.17195,272.58345 671.81796,274.05437 C 669.45312,276.62346 669.46697,276.69498 672.16964,275.87032 C 674.85058,275.05227 674.85916,275.08887 672.3517,276.64713 C 661.95417,283.10869 660.9373,284.00058 661.22643,286.40496 C 661.39734,287.8263 661.1918,288.25198 660.76966,287.35093 C 660.19096,286.11572 659.16571,286.23405 656.60243,287.83192 C 654.73259,288.99751 653.56086,290.50247 653.99858,291.17628 C 654.43631,291.8501 653.95609,292.2359 652.93145,292.03365 C 651.9068,291.83139 651.24239,292.46349 651.45499,293.43831 C 651.66759,294.41314 651.27075,294.87512 650.57313,294.46493 C 649.87551,294.05474 645.92729,296.70435 641.79931,300.35295 L 634.29389,306.98678 L 638.37244,311.03687 C 643.03917,315.67104 642.90501,315.6444 650.38723,313.42275 z M 643.33135,311.88428 C 643.33135,311.59498 644.31378,310.99963 645.51453,310.56126 C 646.76643,310.10423 647.33109,310.32859 646.83825,311.08724 C 646.01213,312.35895 643.33135,312.96822 643.33135,311.88428 z M 648.19951,254.77603 C 647.57315,253.81183 648.90549,253.6434 652.32748,254.25416 C 655.10654,254.75016 658.96828,254.77681 660.90913,254.31337 C 664.7421,253.39814 674.27976,245.27651 674.27976,242.92786 C 674.27976,242.1304 674.85353,241.47793 675.55481,241.47793 C 678.24804,241.47793 675.13065,246.99762 669.89669,251.49627 C 665.05182,255.66049 663.54736,256.19974 656.7744,256.19974 C 652.56689,256.19974 648.70819,255.55907 648.19951,254.77603 z M 674.86808,303.56783 C 676.09193,303.12103 677.09325,301.91141 677.09325,300.8798 C 677.09325,299.33915 676.59072,299.30271 674.27976,300.67574 C 670.01178,303.21155 670.41497,305.19356 674.86808,303.56783 z M 652.87207,199.24904 C 658.10921,197.16773 665.83929,191.07714 665.83929,189.03205 C 665.83929,188.43368 664.92709,187.9441 663.81219,187.9441 C 660.81258,187.9441 659.65623,185.36427 660.02083,179.4855 L 660.34596,174.24322 L 654.46174,179.03499 C 651.22542,181.67047 645.02325,184.9509 640.67914,186.32485 C 634.59104,188.25038 632.6754,189.50596 632.32108,191.80304 C 631.1285,199.53464 642.12657,203.51944 652.87207,199.24904 z M 645.61391,181.9917 C 653.89625,178.04969 656.00447,176.2847 660.08858,169.87361 C 662.71778,165.74638 666.63143,161.50246 668.78559,160.44267 C 674.6339,157.56544 677.09325,153.33655 677.09325,146.15758 C 677.09325,140.2088 675.58491,138.01015 673.60001,141.06562 C 673.13483,141.78171 670.09056,143.0348 666.83495,143.85026 C 663.57935,144.66573 659.46572,146.78999 657.69357,148.57084 C 655.92141,150.3517 652.75623,151.89294 650.65983,151.99583 C 642.44253,152.39912 635.49303,151.46496 633.37336,149.67214 C 630.27882,147.05479 626.9393,147.32859 623.6369,150.47041 C 621.73649,152.27842 618.94775,153.1471 615.04392,153.1471 C 609.46116,153.1471 609.29472,153.27238 610.1542,156.82755 C 612.53357,166.66972 618.6906,182.34845 619.89755,181.63879 C 620.68934,181.17323 620.79787,181.54728 620.15716,182.53356 C 618.5315,185.03604 622.0223,186.56189 629.42657,186.58526 C 634.04687,186.59984 638.71566,185.27496 645.61391,181.9917 z M 622.38256,175.89288 C 617.97156,172.30384 619.32545,171.31037 628.6275,171.31037 C 634.27549,171.31037 636.94664,171.96494 638.75942,173.7932 C 640.11342,175.15876 640.484,175.88632 639.58295,175.41 C 638.68189,174.93368 637.73234,175.12168 637.47283,175.82777 C 637.21332,176.53387 634.46885,177.45332 631.37401,177.87099 C 626.96625,178.46585 625.01802,178.03724 622.38256,175.89288 z M 635.59424,174.56064 C 636.11931,173.75237 634.20211,173.22229 630.75365,173.22229 C 627.61315,173.22229 625.04365,173.82455 625.04365,174.56064 C 625.04365,175.29673 627.22191,175.89898 629.88424,175.89898 C 632.54656,175.89898 635.11606,175.29673 635.59424,174.56064 z M 624.34027,165.19222 C 623.86209,164.45613 624.45777,163.85387 625.664,163.85387 C 626.87023,163.85387 627.85714,164.45613 627.85714,165.19222 C 627.85714,165.92831 627.26146,166.53056 626.53342,166.53056 C 625.80537,166.53056 624.81845,165.92831 624.34027,165.19222 z M 631.37401,165.19222 C 631.85219,164.45613 633.19298,163.85387 634.35354,163.85387 C 635.51411,163.85387 636.07242,164.45613 635.59424,165.19222 C 635.11606,165.92831 633.77527,166.53056 632.61471,166.53056 C 631.45414,166.53056 630.89583,165.92831 631.37401,165.19222 z M 608.16269,149.05308 C 608.16269,147.53746 607.55731,146.65336 606.81739,147.08842 C 606.07747,147.52348 605.82868,148.76354 606.26452,149.8441 C 607.38039,152.61061 608.16269,152.2846 608.16269,149.05308 z M 623.6369,148.46289 C 623.6369,147.35876 623.07159,146.45537 622.38066,146.45537 C 621.68973,146.45537 620.76004,147.35876 620.31469,148.46289 C 619.82145,149.68575 620.31247,150.47041 621.57093,150.47041 C 622.70722,150.47041 623.6369,149.56703 623.6369,148.46289 z M 653.97805,148.81757 C 654.22791,148.57986 653.90077,147.56711 653.25108,146.567 C 652.30581,145.11188 651.40775,145.33676 648.75565,147.69272 L 645.44147,150.63681 L 649.48262,149.94329 C 651.70525,149.56185 653.7282,149.05528 653.97805,148.81757 z M 618.71329,147.79372 C 619.74162,146.21075 618.3651,146.21075 614.49305,147.79372 C 611.78051,148.90266 611.79015,148.94731 614.76172,149.038 C 616.4569,149.08974 618.23511,148.52981 618.71329,147.79372 z M 646.72854,146.36131 C 647.43644,145.72858 645.68708,145.82257 642.84109,146.57018 C 639.9951,147.31778 636.94422,147.50474 636.06136,146.98563 C 635.04592,146.38857 634.84365,146.63828 635.51081,147.66529 C 636.62807,149.38516 644.34969,148.48758 646.72854,146.36131 z M 679.03129,135.1079 C 680.49493,129.24014 678.36557,115.30305 675.17046,109.83804 C 672.27992,104.894 670.84551,103.96213 661.5047,100.95997 C 655.76476,99.115149 649.80167,96.911952 648.25338,96.063992 C 646.46768,95.085992 641.33984,94.758702 634.22997,95.168922 C 623.88858,95.765582 622.60986,96.169522 617.69822,100.39113 C 614.77036,102.90767 611.88757,104.96665 611.29203,104.96665 C 609.51277,104.96665 605.62805,113.28081 604.72607,119.01928 C 604.0136,123.55205 604.14017,123.96236 605.55174,121.69597 C 608.33283,117.23074 609.68215,116.98229 626.45039,117.84789 C 638.61299,118.47574 643.71657,119.30599 647.01426,121.19324 C 649.42671,122.57388 652.38841,123.70349 653.59582,123.70349 C 654.80322,123.70349 656.62761,124.46412 657.65001,125.39378 C 658.67242,126.32343 661.22019,128.12564 663.31174,129.39869 C 665.6994,130.85197 667.44195,133.37365 667.99435,136.175 C 668.85802,140.55497 668.96098,140.61083 673.61533,139.22488 C 676.46545,138.37618 678.62565,136.73409 679.03129,135.1079 z M 612.38293,139.76364 C 608.12753,139.26751 605.59538,138.6921 606.75595,138.48496 C 607.91651,138.27781 609.23725,138.14679 609.69092,138.19381 C 610.14459,138.24082 613.46803,138.42468 617.07634,138.60238 C 620.68465,138.78008 623.6369,139.41519 623.6369,140.01373 C 623.6369,140.61227 622.84561,141.00382 621.87847,140.88384 C 620.91133,140.76386 616.63834,140.25977 612.38293,139.76364 z M 639.11111,139.14313 C 645.90344,136.9805 652.24786,136.66542 656.56557,138.27632 C 658.20714,138.88877 656.02218,139.26004 650.93858,139.23245 C 646.36775,139.20764 640.41235,139.6309 637.70436,140.17301 C 634.10775,140.89302 634.4869,140.61545 639.11111,139.14313 z "
       id="path3168"
       sodipodi:nodetypes="csssssssssssssssssssscccssscccssssssssssssssssssssssssssssssssssssssssssssssssssssssssssssssssssscccssssssssssssssssssccssccssccsssssccssssssccsssssssssssssssssssccssccsssssssssssssccssccccsssssssssssssssssssssssssscccsssssssssssscccsssssssssssssssssssssssssssscccssscccsssssssssssssccsccccssssssccssccssssssssssssssscccsscccssssssssssssssssssssssssssssssssssssssssssscccccssccssssssccssccsscccssccssssssssssssssccsssssccsssccsssccsssccssccsssccscccccssccsssccsssssssssssssssccsssssccsssc" />
  </g>
</svg>
