<?xml version="1.0" encoding="UTF-8" standalone="no"?>
<!-- Created with Inkscape (http://www.inkscape.org/) -->
<svg
   xmlns:dc="http://purl.org/dc/elements/1.1/"
   xmlns:cc="http://web.resource.org/cc/"
   xmlns:rdf="http://www.w3.org/1999/02/22-rdf-syntax-ns#"
   xmlns:svg="http://www.w3.org/2000/svg"
   xmlns="http://www.w3.org/2000/svg"
   xmlns:sodipodi="http://sodipodi.sourceforge.net/DTD/sodipodi-0.dtd"
   xmlns:inkscape="http://www.inkscape.org/namespaces/inkscape"
   width="1052.3622"
   height="744.09448"
   id="svg2"
   sodipodi:version="0.32"
   inkscape:version="0.45.1"
   version="1.0"
   sodipodi:docbase="/home/flecox/pyweek/herobot/arte"
   sodipodi:docname="mujer-2.svg"
   inkscape:output_extension="org.inkscape.output.svg.inkscape">
  <defs
     id="defs4" />
  <sodipodi:namedview
     id="base"
     pagecolor="#ffffff"
     bordercolor="#666666"
     borderopacity="1.0"
     gridtolerance="10000"
     guidetolerance="10"
     objecttolerance="10"
     inkscape:pageopacity="0.0"
     inkscape:pageshadow="2"
     inkscape:zoom="0.7"
     inkscape:cx="531.61375"
     inkscape:cy="598.60794"
     inkscape:document-units="px"
     inkscape:current-layer="layer1"
     width="1052.3622px"
     height="744.09448px"
     inkscape:window-width="1280"
     inkscape:window-height="740"
     inkscape:window-x="0"
     inkscape:window-y="0" />
  <metadata
     id="metadata7">
    <rdf:RDF>
      <cc:Work
         rdf:about="">
        <dc:format>image/svg+xml</dc:format>
        <dc:type
           rdf:resource="http://purl.org/dc/dcmitype/StillImage" />
      </cc:Work>
    </rdf:RDF>
  </metadata>
  <g
     inkscape:label="Layer 1"
     inkscape:groupmode="layer"
     id="layer1">
    <path
       style="fill:#000000"
       d="M 125.70389,532.77304 C 124.24467,531.63795 124.31575,531.06339 126.47712,526.52304 C 127.78622,523.77304 128.87334,521.11704 128.89294,520.62082 C 128.91255,520.1246 126.26199,522.2621 123.00282,525.37082 C 119.74365,528.47954 116.3421,531.02304 115.44381,531.02304 C 114.54552,531.02304 114.10455,531.49873 114.46387,532.08013 C 114.8232,532.66153 110.88389,530.90265 105.70985,528.17151 C 100.53581,525.44036 93.405881,521.99486 89.865551,520.51483 C 82.572141,517.46585 79.928591,515.47146 79.928591,513.01805 C 79.928591,511.26465 82.320391,511.16874 92.167481,512.52729 C 94.223871,512.811 98.385061,512.7518 101.41457,512.39574 C 106.84867,511.75707 106.97558,511.66612 110.8473,505.6357 C 113.00579,502.27374 116.56982,497.04923 118.76736,494.02567 C 121.05022,490.88473 122.41467,488.09853 121.95052,487.52567 C 121.50372,486.97423 121.43243,484.72304 121.79209,482.52304 C 122.25588,479.68618 123.1099,478.23226 124.72904,477.52304 C 125.98469,476.97304 127.17718,475.62304 127.37901,474.52304 C 127.77516,472.36409 130.57666,460.41573 131.83753,455.50756 C 132.26359,453.84904 133.33336,450.92404 134.21481,449.00756 C 135.78466,445.59432 139.31247,434.49915 139.45622,432.52304 C 139.49623,431.97304 140.71751,427.92304 142.17019,423.52304 C 144.86249,415.36832 146.33243,398.98859 144.61433,396.28752 C 143.25071,394.14371 141.95796,384.0743 140.85725,367.02304 C 138.63506,332.5988 136.61717,319.43272 135.93067,317.77503 C 135.30496,316.26413 137.1304,323.22256 140.08847,324.08666 C 141.92553,324.6233 152.65359,325.32767 163.92859,325.65192 C 180.6561,326.13297 185.80877,325.94548 191.92859,324.63307 C 196.05359,323.74845 200.62654,323.02431 202.09069,323.02386 C 204.43961,323.02314 204.83988,322.52304 205.493,318.77304 C 206.56408,312.62327 206.13057,307.51572 203.81672,299.02304 C 202.69285,294.89804 201.17725,289.27304 200.44872,286.52304 C 199.7202,283.77304 198.40513,279.55396 197.52636,277.14731 C 196.64759,274.74066 195.92904,272.04066 195.92959,271.14731 C 195.93013,270.25396 198.22956,265.02304 201.03941,259.52304 C 207.25151,247.36353 208.19199,243.93196 206.4754,239.68866 C 204.57505,234.99113 203.77763,231.02304 204.73397,231.02304 C 205.19789,231.02304 206.251,233.16054 207.07422,235.77304 L 208.57099,240.52304 L 215.99979,240.25874 C 226.59923,239.88164 229.52873,238.71009 231.11307,234.21473 C 232.99905,228.86353 232.53046,215.62434 230.22149,209.02469 C 227.66325,201.71255 225.05069,200.18175 217.75392,201.71948 C 212.51054,202.82448 212.2938,202.77435 203.66972,198.46216 L 194.91086,194.08256 L 192.71871,198.8028 C 190.51987,203.53743 178.37508,216.80286 177.26007,215.68785 C 176.93312,215.36091 175.80636,215.55327 174.75616,216.11532 C 173.70595,216.67738 170.20004,217.17476 166.96523,217.22063 C 155.40027,217.38461 147.85986,209.6702 150.66173,200.54089 L 151.72082,197.09005 L 148.0747,197.40383 C 146.06934,197.57641 143.37435,197.24508 142.08584,196.66755 C 140.10416,195.77933 139.44039,195.99552 137.77907,198.07027 C 133.54774,203.35457 127.69261,219.59316 128.52247,223.74248 C 129.02242,226.2422 133.92859,230.13672 133.92859,228.03385 C 133.92859,226.83608 142.85518,217.6163 143.44439,218.20551 C 143.72402,218.48514 142.13693,220.77688 139.91753,223.29827 C 135.52702,228.28614 131.13862,236.95392 130.25876,242.37581 C 129.47057,247.23287 133.00228,251.85128 138.13195,252.67155 C 141.84121,253.26468 143.49282,255.02304 140.34069,255.02304 C 138.59872,255.02304 138.72908,256.74725 141.51256,270.52304 C 143.20265,278.88754 143.29283,283.33726 141.86732,288.02964 C 138.6015,298.77987 137.72413,303.42911 137.35732,311.9283 C 136.78652,325.15413 135.73859,324.79109 136.0237,311.46628 C 136.20959,302.77818 136.82921,298.60839 138.94099,291.83391 C 141.81795,282.6048 141.82716,283.58308 138.68476,264.62742 L 137.37586,256.7318 L 134.64821,265.12742 C 133.148,269.74501 131.90261,275.32304 131.88068,277.52304 C 131.85875,279.72304 131.16025,283.32304 130.32847,285.52304 C 129.49669,287.72304 128.39821,290.87304 127.88741,292.52304 C 127.37661,294.17304 126.5092,296.42304 125.95983,297.52304 C 123.64596,302.1561 115.13267,329.78817 115.09896,332.77479 C 115.07877,334.56325 114.74451,337.02766 114.35615,338.25127 C 113.15617,342.03207 109.50551,346.99843 107.92859,346.99535 C 106.92693,346.99339 100.3768,349.06976 101.13411,348.57916 C 103.60086,346.98115 113.21812,337.29768 113.51153,332.52304 C 113.85214,326.98041 116.47515,318.57209 124.53034,297.20109 C 128.26465,287.29367 129.92859,281.43016 129.92859,278.17828 C 129.92859,275.40993 131.10678,270.40356 132.79455,266.00023 C 137.31871,254.19687 137.29729,254.33485 134.70913,253.66458 C 133.45483,253.33974 131.37288,251.50911 130.08258,249.59651 C 128.13755,246.71342 127.85774,245.40184 128.44551,241.9229 C 128.83542,239.61501 129.76601,236.26304 130.51349,234.47408 C 131.6853,231.66955 131.66641,231.05034 130.3764,229.97973 C 129.55352,229.2968 128.74381,228.91466 128.57704,229.13054 C 127.82745,230.10084 121.92859,255.93205 121.92859,258.24421 C 121.92859,259.66696 119.97505,264.58674 117.58739,269.17704 C 112.73112,278.51327 111.15979,285.15359 107.80346,310.52304 C 106.63923,319.32304 105.37753,326.74804 104.99967,327.02304 C 104.62181,327.29804 103.58627,328.58566 102.69846,329.88442 C 101.11632,332.1989 101.0104,339.60616 102.4105,350.02304 L 102.88092,353.52304 L 101.33986,349.52304 C 99.262541,344.13115 99.730781,330.0177 102.07457,327.37732 C 103.85044,325.37672 105.43775,318.37271 106.46078,308.02304 C 107.22479,300.29389 111.38097,278.59358 112.82446,274.79692 C 113.38417,273.32476 115.00278,270.28166 116.42138,268.03446 C 117.83997,265.78726 118.6899,263.44585 118.3101,262.83133 C 117.91695,262.1952 118.06853,261.99149 118.66206,262.35832 C 119.29989,262.75252 119.97343,261.16277 120.39722,258.26283 C 120.77817,255.65595 122.43536,248.18487 124.07986,241.66044 C 125.72435,235.13601 127.06278,229.06101 127.05414,228.16044 C 127.04551,227.25987 126.97622,224.47909 126.90018,221.98092 C 126.73814,216.65754 132.14991,202.62534 136.4373,197.25213 C 138.51976,194.64227 139.65167,193.9947 141.29085,194.47542 C 145.99272,195.85433 147.62072,195.98987 152.21727,195.38513 C 158.63223,194.54116 157.75397,192.68508 150.56918,191.90212 C 144.06086,191.19287 140.92859,188.97056 140.92859,185.06222 C 140.92859,182.85666 138.5069,174.1421 136.19358,168.02304 C 134.2671,162.92722 133.02771,156.65911 132.38731,148.77304 C 132.04116,144.51054 131.38083,141.02304 130.91991,141.02304 C 130.45899,141.02304 130.69138,139.78554 131.43632,138.27304 C 132.18127,136.76054 132.97519,132.70713 133.20059,129.26546 C 133.42599,125.82379 133.87561,122.74268 134.19974,122.41855 C 134.52387,122.09442 135.69402,123.56034 136.80007,125.67613 C 137.90613,127.79193 140.21033,130.98554 141.92052,132.77304 C 145.05989,136.05432 147.24861,137.3185 144.90853,134.49887 C 144.21281,133.66058 143.99432,132.64808 144.42299,132.24887 C 144.85166,131.84966 145.41576,132.12295 145.67654,132.85618 C 145.93731,133.5894 148.16301,135.0519 150.62254,136.10618 C 156.05105,138.43311 157.61583,138.55604 155.92859,136.52304 C 155.14357,135.57715 155.07654,135.02304 155.74713,135.02304 C 156.33201,135.02304 157.06129,135.42873 157.36773,135.92457 C 157.67418,136.42042 159.32095,137.31277 161.02722,137.90758 C 163.6406,138.81861 164.03984,138.75533 163.56044,137.50604 C 162.82254,135.5831 163.09934,135.62291 167.91315,138.132 C 170.13852,139.29194 173.48731,142.02612 175.35488,144.20797 C 178.62459,148.02789 179.20735,149.63404 183.90501,167.77304 C 184.51038,170.11054 185.43833,172.02304 185.96713,172.02304 C 186.49593,172.02304 186.92859,172.69804 186.92859,173.52304 C 186.92859,174.34804 187.37859,175.02304 187.92859,175.02304 C 188.50349,175.02304 188.92859,178.11125 188.92859,182.28768 L 188.92859,189.55233 L 195.67859,192.86316 C 199.39109,194.68413 204.22859,197.12171 206.42859,198.28002 C 208.96228,199.61402 211.8949,200.29708 214.42859,200.14336 C 226.43473,199.41492 227.01893,199.49135 228.94316,202.04235 C 233.39524,207.94461 235.65054,226.27545 232.93644,234.49926 C 231.1665,239.86224 233.87938,264.14688 238.35712,283.02304 C 239.42512,287.52524 239.90535,294.74807 239.9196,306.52304 C 239.9415,324.62087 240.89411,333.34147 243.33396,337.7798 C 246.26468,343.11105 249.08175,349.55453 249.59046,352.09026 C 250.00224,354.14286 249.19316,355.59619 245.55434,359.34026 C 241.61942,363.38899 232.50002,362.96717 232.50002,361.43518 C 232.50002,361.19043 241.03005,361.14751 243.59851,358.72075 L 248.26843,354.30847 L 246.91038,349.41576 C 246.16345,346.72476 244.24515,342.29478 242.64749,339.57136 C 239.87832,334.85093 239.70202,333.82346 238.87266,317.57136 C 238.39416,308.19478 237.81191,296.92304 237.57877,292.52304 C 237.34563,288.12304 236.03361,278.44804 234.66317,271.02304 C 233.29273,263.59804 231.86192,254.12622 231.48359,249.97456 C 230.5783,240.04016 230.32302,239.69346 224.84355,240.95649 C 222.41532,241.5162 218.62859,241.99204 216.42859,242.01391 C 214.22859,242.03577 211.93912,242.38427 211.34087,242.78835 C 209.86806,243.78315 208.85938,248.01235 210.16016,247.73885 C 210.72471,247.62016 211.29178,248.42304 211.42031,249.52304 C 211.72892,252.16424 216.70047,269.87842 217.96984,272.85979 C 218.51705,274.145 219.63703,280.32491 220.4587,286.59294 C 221.93411,297.84798 226.42001,319.10046 229.2442,328.21525 C 230.5618,332.46765 230.52922,333.41925 228.89667,338.36784 C 226.81803,344.66861 227.2395,347.75962 231.36691,356.48424 C 232.85659,359.63316 233.81738,362.46758 233.502,362.78296 C 232.78373,363.50123 232.94084,363.75568 229.40233,356.14326 C 227.2681,351.55188 226.492,348.46831 226.63374,345.14326 C 226.74207,342.60214 226.92207,338.38554 227.03375,335.77304 C 227.14543,333.16054 227.58738,331.02304 228.01585,331.02304 C 228.44433,331.02304 227.68206,327.08554 226.32193,322.27304 C 223.3446,311.73849 220.46486,297.57059 218.95381,286.02304 C 218.34207,281.34804 217.02063,274.82304 216.01729,271.52304 C 215.01394,268.22304 213.40611,262.84222 212.44434,259.56567 L 210.69565,253.60829 L 208.75048,258.56567 C 207.68064,261.29222 206.54555,266.11054 206.22806,269.27304 C 205.91057,272.43554 205.30331,275.02304 204.87859,275.02304 C 204.45388,275.02304 202.97043,273.67304 201.58204,272.02304 C 200.19366,270.37304 198.80366,269.02304 198.49315,269.02304 C 197.3255,269.02304 197.98807,275.23738 199.459,278.08184 C 200.30072,279.70955 202.39448,286.3247 204.1118,292.78218 C 207.93523,307.15908 208.73942,322.99824 205.68647,323.79661 C 204.01872,324.23273 203.33065,327.29976 203.77004,332.33898 C 203.85713,333.33775 203.42737,335.09106 202.81503,336.23523 C 201.65328,338.40598 196.81634,351.48744 191.80356,366.01562 C 190.19192,370.68654 187.85764,376.08654 186.61629,378.01562 C 178.68879,390.33504 173.63113,405.81387 173.75551,417.37571 C 173.7943,420.98223 173.0602,425.15212 171.84271,428.24093 C 169.5156,434.14486 169.71607,435.03669 174.94611,442.04652 C 177.13647,444.98227 178.92859,447.7579 178.92859,448.21458 C 178.92859,448.67126 181.1561,452.59919 183.87862,456.94331 C 186.60114,461.28743 189.56731,467.10002 190.47011,469.86018 C 191.37292,472.62035 192.9704,475.65589 194.02008,476.60584 C 195.06976,477.55579 195.92859,479.52287 195.92859,480.97714 C 195.92859,483.08647 196.62982,483.87483 199.39565,484.87497 C 201.94659,485.7974 203.39987,485.84118 204.89565,485.04067 C 206.01376,484.44227 206.92859,484.20506 206.92859,484.51354 C 206.92859,485.56803 212.57346,482.1572 215.76981,479.17136 C 218.46546,476.65325 218.81302,475.82699 218.00554,473.85638 C 217.47968,472.57304 216.7708,469.3931 216.43025,466.78985 C 216.08971,464.1866 215.23198,461.7116 214.52418,461.28985 C 213.81638,460.8681 212.95196,459.05002 212.60325,457.24966 C 211.40477,451.06197 203.80701,432.98015 202.69442,433.66776 C 202.08013,434.04741 201.90785,433.86561 202.29236,433.24347 C 203.05842,432.00395 200.11764,423.90201 198.49744,422.78835 C 197.90957,422.38427 197.79595,422.04677 198.24494,422.03835 C 199.04361,422.02337 191.9893,412.61207 187.84544,408.16417 C 186.69532,406.92965 186.01337,405.2445 186.32999,404.41938 C 186.65584,403.57024 186.47667,403.18431 185.91714,403.53012 C 185.37344,403.86614 184.92859,403.43952 184.92859,402.58206 C 184.92859,401.7246 184.36609,401.0089 183.67859,400.99162 C 182.07668,400.95134 177.79639,392.53416 178.70566,391.63322 C 179.08401,391.25833 181.09693,395.76054 182.30579,397.27304 C 183.51465,398.78554 185.01442,400.02304 185.6386,400.02304 C 186.26279,400.02304 187.32983,401.71054 188.00981,403.77304 C 188.68979,405.83554 191.67224,410.56479 194.63748,414.28247 C 198.22405,418.77916 201.54194,424.63736 204.54889,431.78247 C 210.07792,444.92059 213.92859,455.47672 213.92859,457.49579 C 213.92859,458.32645 214.82859,459.56815 215.92859,460.25511 C 217.37227,461.1567 217.92859,462.58714 217.92859,465.39757 C 217.92859,467.53896 218.44081,471.00063 219.06685,473.09019 C 220.04335,476.34945 219.95653,477.13795 218.45596,478.63853 C 216.9894,480.10509 216.9303,480.56019 218.09016,481.45537 C 218.85102,482.04259 221.15092,484.83333 223.20106,487.65702 C 227.13384,493.07368 227.68221,496.00761 225.88743,502.02964 C 225.13987,504.53792 225.19607,507.74168 226.08672,513.39073 C 227.2471,520.7506 227.20515,521.34765 225.43675,522.64073 C 224.39702,523.401 223.22636,524.02304 222.83529,524.02304 C 221.59088,524.02304 220.13772,518.48011 220.52042,515.19325 C 220.72343,513.44963 220.44832,512.02304 219.90906,512.02304 C 219.3698,512.02304 218.92859,511.34804 218.92859,510.52304 C 218.92859,505.89752 214.19234,514.07138 210.96106,524.27349 C 209.46596,528.99395 208.13401,529.35624 191.92859,529.45041 C 176.18882,529.54187 171.15319,529.05072 170.50473,527.36086 C 170.00321,526.05392 170.73632,523.02304 171.55396,523.02304 C 173.00332,523.02304 187.84253,518.76562 189.70998,517.81402 C 190.96474,517.17463 191.89643,515.94759 191.7804,515.08726 C 191.66437,514.22694 192.3273,511.77566 193.25359,509.63997 C 194.17987,507.50429 195.14028,504.80429 195.38783,503.63997 C 195.63538,502.47566 196.14342,500.17304 196.51679,498.52304 C 196.89017,496.87304 197.22236,494.39804 197.25499,493.02304 C 197.28761,491.64804 197.90252,489.9284 198.62145,489.20161 C 200.0385,487.76907 200.39108,485.89203 199.17859,486.23549 C 197.00335,486.85167 193.92859,483.75992 193.92859,480.95647 C 193.92859,479.22383 193.29986,477.719 192.43773,477.38817 C 191.61775,477.07352 190.41992,475.0573 189.77588,472.90768 C 189.13184,470.75807 188.00273,468.49953 187.26674,467.88872 C 186.53076,467.27791 185.92562,466.04575 185.922,465.1506 C 185.91838,464.25544 184.99494,462.17304 183.86993,460.52304 C 182.74491,458.87304 180.48455,454.92198 178.84691,451.74291 C 177.20927,448.56383 174.3077,443.91686 172.39898,441.41631 L 168.92859,436.86985 L 168.92859,439.87378 C 168.92859,441.52594 167.4198,445.72291 165.57572,449.20038 C 152.77798,473.33365 147.70781,483.95132 147.37494,487.31542 C 147.2774,488.30122 146.14547,490.22772 144.85955,491.59652 C 142.82074,493.76673 142.50589,495.15389 142.39945,502.4349 L 142.2774,510.78454 L 137.45777,517.15379 C 134.80698,520.65688 131.54551,525.88554 130.21006,528.77304 C 128.87461,531.66054 127.67597,534.02304 127.54641,534.02304 C 127.41685,534.02304 126.58772,533.46054 125.70389,532.77304 z M 122.21744,524.27304 C 125.59465,521.11054 128.96493,517.96399 129.70696,517.28071 C 130.44899,516.59743 130.77585,515.58493 130.43333,515.03071 C 130.0908,514.47649 130.26958,514.02304 130.83061,514.02304 C 131.39165,514.02304 132.76821,513.03819 133.88963,511.83448 C 136.6964,508.82177 136.46564,509.83249 132.54635,517.71803 C 127.98011,526.9052 127.02428,530.82692 131.00963,524.02304 C 132.78152,520.99804 135.69851,516.80085 137.49183,514.69594 C 140.15376,511.57153 140.82565,509.82726 141.15121,505.19594 C 141.37054,502.07585 141.18518,499.09554 140.73929,498.57304 C 140.2934,498.05054 139.92859,496.875 139.92859,495.96072 C 139.92859,494.68867 138.62347,494.14501 134.36947,493.64504 C 131.31195,493.28569 127.69791,492.26277 126.33826,491.3719 C 124.97861,490.48102 123.73468,489.92558 123.57396,490.13758 C 119.12901,496.00104 113.49557,503.80725 110.3956,508.39871 L 106.42859,514.27439 L 94.649921,513.79058 C 78.810181,513.13997 78.325041,514.21688 91.941781,519.80206 C 96.074031,521.49699 102.12256,524.49009 105.38295,526.4534 C 108.64334,528.4167 112.38331,530.02304 113.694,530.02304 C 115.21652,530.02304 118.29438,527.94669 122.21744,524.27304 z M 206.78997,527.34904 C 208.34419,526.9426 212.42859,517.65194 212.42859,514.52304 C 212.42859,513.97304 212.77663,513.26497 213.20202,512.94955 C 213.6274,512.63412 214.17392,511.34541 214.41651,510.08575 C 214.82521,507.96358 217.48684,505.12874 219.14005,505.05484 C 219.93536,505.01929 221.41788,510.30224 222.44736,516.84042 C 222.82125,519.21499 223.29498,520.98999 223.5001,520.78487 C 223.70521,520.57975 223.17964,515.09032 222.33215,508.58614 C 221.2389,500.19577 221.10172,496.44991 221.85993,495.6917 C 223.6742,493.87743 223.01516,490.638 220.30934,488.06994 C 218.88776,486.72073 217.32242,484.55889 216.83081,483.26585 L 215.93697,480.91487 L 212.59927,483.46066 C 210.76353,484.86084 207.85379,486.288 206.13318,486.63212 C 202.59921,487.33892 200.53456,489.93565 199.44996,495.03771 C 198.24018,500.72857 192.8035,517.44224 191.81057,518.52304 C 191.30528,519.07304 186.7734,520.64804 181.73972,522.02304 C 172.00901,524.68108 169.60758,526.60124 175.11789,527.31779 C 179.60908,527.90181 204.58192,527.92646 206.78997,527.34904 z M 225.92859,494.96402 C 225.92859,494.38156 225.47859,494.18312 224.92859,494.52304 C 224.37859,494.86296 223.92859,495.33952 223.92859,495.58206 C 223.92859,495.8246 224.37859,496.02304 224.92859,496.02304 C 225.47859,496.02304 225.92859,495.54648 225.92859,494.96402 z M 144.31965,490.11586 C 145.09875,489.23981 145.59634,487.3059 145.42541,485.81828 C 145.25448,484.33067 145.74282,482.59218 146.5106,481.95498 C 147.27838,481.31777 147.65996,480.39741 147.35856,479.90973 C 147.05715,479.42205 147.25198,479.02304 147.79151,479.02304 C 148.33103,479.02304 150.4222,475.53554 152.43854,471.27304 C 154.45488,467.01054 158.3241,459.66672 161.03679,454.95343 C 164.73969,448.51968 166.29466,444.5319 167.27575,438.95343 C 167.99449,434.86672 169.35251,430.04981 170.29358,428.24919 C 171.30694,426.31026 172.02046,422.6405 172.04348,419.24919 C 172.12731,406.89677 178.09636,387.87526 184.99184,377.98672 C 186.65608,375.6001 187.99549,372.07433 196.51519,347.65344 C 198.40895,342.22517 200.27679,337.27517 200.66595,336.65344 C 201.0551,336.03172 201.41555,333.12118 201.46693,330.18556 L 201.56035,324.84809 L 197.49447,325.45263 C 195.25824,325.78512 186.53403,326.45655 178.10734,326.94469 C 169.68065,327.43283 162.60107,328.01723 162.37494,328.24335 C 161.52793,329.09036 152.6696,377.00773 151.60096,386.52304 C 151.35389,388.72304 150.16174,392.70287 148.95175,395.36711 C 147.45086,398.67188 146.63633,402.73592 146.38849,408.15634 C 146.17441,412.83852 144.98908,419.47355 143.50227,424.31226 C 142.11465,428.82819 140.10507,435.44804 139.03653,439.02304 C 137.96799,442.59804 136.35766,447.25333 135.45801,449.36813 C 133.19844,454.67969 128.92859,471.41916 128.92859,474.96599 C 128.92859,477.222 128.42274,477.95643 126.69871,478.20349 C 125.35892,478.39549 124.10409,479.56468 123.55505,481.13261 C 121.21637,487.81143 126.36082,492.00516 136.66585,491.82046 C 141.00183,491.74275 143.33491,491.22314 144.31965,490.11586 z M 148.73619,392.2945 C 149.3236,390.7702 150.28049,385.92304 150.86262,381.52304 C 152.6577,367.95503 154.02218,360.27241 157.16762,346.02304 C 157.83536,342.99804 158.36026,338.04804 158.33407,335.02304 C 158.30787,331.99804 158.74495,329.21646 159.30536,328.84175 C 160.67306,327.92724 157.00429,327.22338 147.77052,326.62875 L 140.11245,326.13559 L 140.43983,333.32932 C 140.61989,337.28586 141.05056,346.82304 141.39688,354.52304 C 142.57495,380.71562 144.77434,396.85444 146.98001,395.49126 C 147.3585,395.25734 148.14878,393.8188 148.73619,392.2945 z M 207.57315,258.09472 C 211.09462,247.18986 209.04001,247.10964 203.57855,257.93876 C 201.05873,262.93512 199.35561,267.02304 199.79384,267.02304 C 200.23208,267.02304 201.22649,268.21116 202.00366,269.6633 L 203.41668,272.30356 L 204.29551,268.9133 C 204.77887,267.04866 206.25381,262.1803 207.57315,258.09472 z M 174.29293,214.51945 C 181.31573,212.47787 189.95259,203.29894 192.37138,195.30635 C 192.91789,193.5005 192.56835,192.97073 190.4854,192.44794 C 189.07916,192.095 187.90067,191.06751 187.86656,190.16463 C 187.83244,189.26176 186.84378,190.43554 185.66954,192.77304 C 182.65484,198.77426 181.53453,198.06321 184.09397,191.77304 C 187.126,184.32141 187.61975,180.82059 185.52534,181.62429 C 184.12464,182.16179 184.03633,181.86986 184.90692,179.58004 C 186.04818,176.57829 186.57631,176.39434 177.75834,182.06994 C 174.6397,184.07722 169.3522,186.74269 166.00834,187.99322 C 161.1255,189.81928 159.92859,190.69568 159.92859,192.44497 C 159.92859,195.2475 158.12334,197.02304 155.2739,197.02304 C 153.49866,197.02304 152.88271,197.75067 152.37727,200.44487 C 151.05658,207.48476 153.24721,211.52867 159.95834,214.43957 C 164.40616,216.36877 167.8652,216.38805 174.29293,214.51945 z M 163.42859,186.89794 C 174.69558,181.54634 180.62437,177.80806 182.27411,175.01527 C 183.80588,172.42219 183.84433,171.75386 182.60286,169.30089 C 181.35239,166.83013 179.64407,160.63899 178.47414,154.33794 C 177.60763,149.67112 176.01084,147.96681 173.13858,148.64314 C 171.64809,148.9941 170.00109,149.67316 169.47859,150.15215 C 168.14212,151.37732 164.17881,151.23693 163.37475,149.93592 C 163.00522,149.33801 161.81224,149.08171 160.72368,149.36637 C 158.80413,149.86835 158.79919,149.82351 160.55981,147.87805 C 162.08307,146.19486 163.38524,145.92451 168.65395,146.1976 C 172.10731,146.37659 174.93184,146.25528 174.93069,145.92803 C 174.92953,145.60077 173.98224,144.47658 172.82559,143.42983 C 171.24659,142.00085 169.05677,141.48925 164.03701,141.37659 C 158.15304,141.24454 155.88128,140.63128 148.42859,137.16315 C 147.87859,136.9072 148.05521,137.45685 148.82109,138.38458 C 149.58696,139.31232 149.94401,140.34095 149.61453,140.67043 C 148.78849,141.49647 139.72195,133.40728 138.14665,130.43874 C 136.3413,127.03671 135.28837,127.42956 134.57043,131.77304 C 133.55955,137.8889 133.81291,139.84616 135.67859,140.33371 C 137.27594,140.75115 137.26864,140.80115 135.59481,140.90704 C 133.93603,141.01197 133.80201,141.81492 134.19033,149.32156 C 134.52286,155.74971 135.69372,160.87722 139.38527,172.07156 C 142.00639,180.01987 144.87934,187.34777 145.76962,188.35577 C 147.96225,190.83835 156.6411,190.12187 163.42859,186.89794 z M 145.71059,176.59214 C 144.15861,174.8325 145.87058,172.84167 150.06139,177.09411 C 152.09623,179.15888 158.15448,175.41345 155.81048,173.92888 C 153.91887,172.73084 148.18742,172.79522 147.42859,174.02304 C 146.64094,175.29748 144.92859,175.32497 144.92859,174.06318 C 144.92859,173.53526 146.61609,172.60865 148.67859,172.00405 C 151.58807,171.15117 153.31252,171.21639 156.3723,172.29505 C 161.51332,174.10741 161.75169,175.2601 157.4133,177.32894 C 153.09356,179.38888 147.4463,178.5601 145.71059,176.59214 z M 148.17859,167.9387 C 145.72187,167.00928 145.19818,166.01409 147.17859,166.03835 C 148.7666,166.05781 151.52362,167.77213 150.89963,168.35211 C 150.64055,168.5929 149.41609,168.40687 148.17859,167.9387 z M 154.42859,167.02304 C 157.18107,165.84026 158.15959,165.84026 157.42859,167.02304 C 157.08867,167.57304 155.82461,167.99141 154.61957,167.95275 C 152.5072,167.88499 152.50035,167.85163 154.42859,167.02304 z M 135.90853,149.49887 C 134.12317,147.34764 135.40887,146.52304 140.54839,146.52304 C 144.80127,146.52304 147.51342,148.26774 146.30359,150.22529 C 145.40775,151.67478 137.24071,151.10406 135.90853,149.49887 z M 140.48214,142.12076 C 138.59814,141.38349 138.60297,141.34145 140.63261,140.81069 C 143.2731,140.12018 147.92859,140.96816 147.92859,142.13962 C 147.92859,143.19954 143.20826,143.18758 140.48214,142.12076 z M 194.92859,488.05442 C 194.92859,487.52169 195.60359,487.34483 196.42859,487.66141 C 197.25359,487.978 197.92859,488.41387 197.92859,488.63003 C 197.92859,488.84618 197.25359,489.02304 196.42859,489.02304 C 195.60359,489.02304 194.92859,488.58716 194.92859,488.05442 z M 208.60171,475.95932 C 209.24692,475.16937 211.27192,473.65171 213.10171,472.58676 C 215.18966,471.37154 215.99172,471.18534 215.25547,472.08676 C 214.61026,472.87671 212.58526,474.39437 210.75547,475.45932 C 208.66752,476.67454 207.86546,476.86074 208.60171,475.95932 z M 176.14829,256.54998 C 173.24413,255.86017 170.58163,255.00941 170.23163,254.65941 C 168.78605,253.21384 170.81445,253.18442 175.46339,254.58355 C 181.29956,256.33998 186.1456,255.7841 189.75614,252.94405 C 193.03937,250.36146 197.91864,243.09109 197.92431,240.77304 C 197.92666,239.81054 198.37859,239.02304 198.92859,239.02304 C 200.4381,239.02304 200.14723,240.66705 197.81574,245.31288 C 192.7154,255.47605 186.09093,258.91161 176.14829,256.54998 z M 122.95976,212.27304 C 122.25035,210.76054 121.51231,208.28907 121.31969,206.78087 C 121.12707,205.27268 120.49795,201.08714 119.92166,197.47967 C 119.34536,193.8722 119.0568,190.60617 119.28041,190.22183 C 119.50401,189.8375 120.00119,184.46054 120.38524,178.27304 C 121.09192,166.88766 120.4861,164.74429 117.91777,169.54325 C 117.10444,171.06297 116.20661,171.70107 115.65615,171.15061 C 115.10569,170.60014 115.19542,169.39297 115.88219,168.10973 C 116.50858,166.93932 116.79193,165.61094 116.51186,165.15777 C 115.89326,164.15687 119.59732,154.11507 121.35679,152.02304 C 124.33736,148.4791 126.26105,141.09525 126.95814,130.5229 C 127.92941,115.79235 129.38524,112.92354 142.3477,100.19682 C 148.04693,94.601244 153.15418,90.023044 153.69714,90.023044 C 155.72864,90.023044 162.37898,93.326424 161.19072,93.745284 C 160.50989,93.985274 158.58875,93.501124 156.92152,92.669404 L 153.8902,91.157184 L 143.31256,101.84011 C 137.49486,107.71572 132.07147,113.80012 131.26059,115.36099 C 130.42466,116.97008 129.40121,123.24876 128.89703,129.86099 C 127.94252,142.37907 126.89431,146.52758 123.29728,152.02304 C 121.16794,155.2762 117.92859,163.18104 117.92859,165.12402 C 117.92859,165.59125 119.03766,165.55187 120.39318,165.0365 C 123.14499,163.99027 123.83428,164.57551 123.32183,167.52304 C 121.30426,179.12772 120.7319,192.85343 121.93294,200.83007 C 122.65282,205.6112 123.55149,209.97304 123.92997,210.52304 C 124.30845,211.07304 128.64885,214.63197 128.99197,215.59447 C 130.00008,218.4224 124.3685,215.27651 122.95976,212.27304 z M 216.36938,190.77304 C 216.60582,188.98554 217.13284,185.27304 217.54053,182.52304 C 218.64925,175.0443 218.37954,173.24657 214.83993,164.52304 C 211.88274,157.23491 211.61166,155.67769 211.79353,147.02304 C 211.96445,138.88931 211.57957,136.28511 209.11735,128.91548 C 207.53565,124.18131 205.50001,119.24924 204.5937,117.9553 C 201.08921,112.95194 191.50705,103.95579 189.02962,103.34307 C 187.59905,102.98926 185.84057,101.87251 185.12189,100.8614 C 184.4032,99.850304 183.17389,99.023044 182.39008,99.023044 C 181.60627,99.023044 179.34315,97.448044 177.36093,95.523044 C 173.48794,91.761854 170.88305,91.262464 166.92859,93.523044 C 163.933,95.235474 162.28613,94.003856 161.14288,93.308758 C 159.35717,92.223044 163.51359,93.023044 164.22859,93.023044 C 164.94359,93.023044 166.06248,92.489144 166.71502,91.836604 C 167.36756,91.184074 168.82334,90.509484 169.95009,90.337534 C 172.12412,90.005754 181.32006,94.229404 182.46812,96.087004 C 182.84271,96.693104 185.56031,98.731374 188.50723,100.61649 C 195.13175,104.85415 204.35582,114.20395 207.10816,119.47098 C 208.24284,121.64235 210.25038,127.26735 211.56936,131.97098 C 213.49198,138.82726 213.85179,141.91106 213.3839,147.52304 C 212.78806,154.66979 212.91726,155.24747 218.41599,170.02223 C 219.90085,174.01197 219.94975,175.6255 218.84781,184.27223 C 218.16437,189.63517 215.9804,201.1659 215.52233,201.1659 C 215.06426,201.1659 216.13293,192.56054 216.36938,190.77304 z "
       id="path2641"
       sodipodi:nodetypes="cssssssssssssssssssssssssssssssssssscccssscccssscccsssssssssssssscccssssssssssssssssssssssscccsssssssssssssssssssssssssssssssssssssscccsssssssssscccssssssssssssssssssssssscccssssssssssssssssssssssssssssssssssssssssssssssssssssssssssssssssssssssssssscccssscccssccssssssssssssscccsssccssssssssscccsssssccsssccsssssssssssscccssssssssssssccsssscccssccsscccccsssssssssssssccssssssssssssssssssssssccsssssssccssccssccssccssccsssccsssccssssssccssssssssssssscccsssssssssccssssssssssssssssssssssc" />
    <path
       style="fill:#000000"
       d="M 334.182,523.52939 C 330.91649,523.15569 330.09511,522.53312 330.57628,520.79639 C 331.00817,519.23753 334.0339,517.85342 340.4359,516.28616 C 349.78377,513.99772 354.19129,510.75124 347.35641,511.18868 C 345.1526,511.32972 335.22449,512.70727 336.89005,512.34282 C 340.54898,511.54218 352.35404,508.16039 354.69216,503.89274 L 356.66359,500.29441 L 350.2291,503.97578 C 346.69014,506.00054 342.43185,508.04543 340.76625,508.52 C 337.17551,509.54306 336.74358,511.69894 340.09328,511.87903 C 341.60072,511.96007 341.23731,512.33502 339.08382,512.9205 C 335.76684,513.82233 333.19683,512.27831 334.55708,510.20091 C 334.93076,509.63022 338.37342,507.66387 342.20744,505.83123 C 352.99212,500.67623 358.04288,496.46318 360.85096,490.2799 C 363.10715,485.31187 363.17663,484.46906 361.40703,483.53433 C 360.29026,482.94443 359.74079,481.59043 360.17987,480.51041 C 360.66535,479.3163 359.30655,476.92991 356.69067,474.38249 C 354.33429,472.08779 352.33929,468.83833 352.25733,467.16146 C 352.13586,464.67617 342.28972,450.63162 338.98704,448.23268 C 337.91353,447.45293 322.30457,427.4589 317.18186,420.30172 C 314.8383,417.02741 312.83558,415.42128 311.79809,415.98405 C 310.88947,416.47693 310.59494,416.41247 311.14359,415.84081 C 311.69224,415.26918 309.99167,412.32556 307.36454,409.29945 L 302.58795,403.79745 L 305.53982,388.22084 C 307.16335,379.65369 308.95459,370.07167 309.52035,366.92744 C 310.08612,363.78322 311.55615,356.86823 312.78709,351.56082 C 314.96609,342.16565 314.94972,341.69961 312.16665,333.90192 C 309.50736,326.45103 309.42411,325.1195 310.97215,314.79592 C 312.40974,305.2089 312.30956,301.44859 310.23586,287.15994 C 308.89436,277.91642 308.1894,267.9054 308.63771,264.46481 C 310.97523,246.5254 312.03698,226.62416 310.69821,225.8432 C 308.21133,224.39249 307.91179,206.09178 310.37709,198.67951 C 313.24286,190.06321 314.41169,187.80184 317.8558,187.80184 C 321.52917,187.80184 340.42976,181.17921 340.42976,179.89209 C 340.42976,179.35143 337.9638,178.90908 334.94985,178.90908 C 331.9359,178.90908 328.68902,178.17199 327.73456,177.27111 C 326.78011,176.37022 324.3129,171.08221 322.25188,165.51996 C 320.19086,159.95771 317.97489,154.42315 317.3275,153.22094 C 316.68012,152.01873 315.78982,143.387 315.34906,134.03933 C 314.39498,113.80512 315.2681,112.52653 324.42509,120.74842 C 330.16694,125.90392 335.20351,127.7555 346.16669,128.74121 C 352.33064,129.29542 358.76588,133.86412 359.94005,138.51961 C 360.41712,140.41113 361.98944,144.26787 363.4341,147.09013 C 364.87875,149.91239 367.18545,156.6541 368.56009,162.07171 C 370.76075,170.74475 370.83559,172.43863 369.18636,176.24575 C 366.95294,181.4014 367.41972,182.34434 370.57585,179.05261 C 372.8343,176.69713 373.04972,176.74167 379.63751,180.92608 C 387.15027,185.69803 395.71461,188.34595 399.73781,187.14071 C 403.02959,186.15458 410.69548,190.4407 412.77137,194.42799 C 415.48582,199.64184 415.9028,211.26258 413.61273,217.87659 C 412.11194,222.2111 411.37686,230.17716 411.10459,245.05772 C 410.68078,268.22027 409.2601,273.89526 398.93137,293.68433 C 396.36622,298.59896 394.26747,304.24458 394.26747,306.23013 C 394.26747,309.2103 389.73723,340.69659 386.81384,358.03468 C 382.76902,382.02378 380.71456,391.54784 379.21457,393.26338 C 377.97095,394.6857 377.89334,395.43246 378.95408,395.7698 C 379.89554,396.06921 380.2226,398.28001 379.82187,401.63576 C 379.34371,405.63979 380.11961,409.12954 382.8467,415.24059 C 386.25548,422.87921 386.45655,424.31277 385.69232,435.52874 C 384.51075,452.86947 383.30371,464.16419 382.24369,464.16419 C 381.73609,464.16419 381.88161,457.77652 382.56707,452.36146 C 383.25252,446.94641 383.88761,437.65665 383.97836,431.71756 C 384.12327,422.23507 383.69414,420.11161 380.4568,414.29186 C 378.42917,410.64683 376.77021,406.42228 376.77021,404.90396 C 376.77021,403.38565 375.71028,401.35019 374.41481,400.38073 C 372.19375,398.71858 372.20497,398.63814 374.61167,398.97028 C 376.0154,399.16401 377.42864,398.6079 377.7522,397.73451 C 378.07575,396.86111 377.67037,396.14651 376.85135,396.14651 C 375.92395,396.14651 376.13546,395.03263 377.41205,393.19367 C 378.53946,391.5696 380.35028,384.56655 381.4361,377.63134 C 382.52192,370.69612 384.02398,361.30595 384.774,356.76429 C 385.52403,352.22263 386.14986,346.31721 386.16475,343.64113 L 386.19181,338.77554 L 378.5439,345.2094 C 374.33755,348.74802 370.67379,351.43352 370.40222,351.1772 C 370.13063,350.92086 373.60914,347.37939 378.13223,343.30725 L 386.35602,335.90338 L 386.11241,326.32512 C 385.85264,316.11174 387.61414,310.83801 397.57007,292.02209 C 402.75568,282.22173 407.7552,268.4217 407.72513,263.9914 C 407.71341,262.26336 407.99455,254.10576 408.3499,245.8634 L 408.99601,230.87728 L 400.62228,231.73984 C 396.01674,232.21424 391.99094,232.81741 391.67607,233.08022 C 390.86143,233.7602 391.03472,240.33367 392.14871,251.00971 C 392.94252,258.6172 392.64601,261.39728 390.44994,266.93733 C 388.98672,270.62865 387.46932,275.3424 387.07797,277.41233 C 385.38697,286.35621 379.06574,310.77751 377.23095,315.45506 C 372.64236,327.15306 371.38644,332.11494 371.38644,338.54547 C 371.38644,342.27737 373.12407,349.62389 372.39275,349.62389 C 371.0997,349.62389 369.17984,334.37239 370.73214,327.54522 L 371.45427,324.36923 L 350.89473,324.36923 C 339.58698,324.36923 328.44133,323.96884 326.12662,323.47949 L 321.91805,322.58974 L 319.78732,331.10185 C 313.66167,355.57333 305.43435,395.88499 305.4363,401.418 C 305.4375,404.80947 313.83098,414.42533 315.52489,412.97583 C 316.1351,412.45368 316.25969,412.64787 315.80174,413.4074 C 314.81879,415.03767 318.61002,420.60002 320.10839,419.72595 C 320.67463,419.39563 321.13792,419.84237 321.13792,420.71868 C 321.13792,422.93494 333.21451,439.13834 344.47213,452.02665 C 349.65151,457.95627 353.88919,464.0132 353.88919,465.48649 C 353.88919,466.95978 355.19562,469.25424 356.79238,470.58528 C 359.68383,472.99559 359.69207,472.99254 358.8317,469.82939 C 358.10846,467.17038 355.99709,452.49257 351.74684,420.57702 C 351.34737,417.57736 350.44669,415.49034 349.73164,415.90747 C 349.02053,416.32228 348.60139,416.19043 348.8002,415.61446 C 349.44705,413.7405 342.95792,405.03927 340.91353,405.03927 C 339.81981,405.03927 339.28283,404.49271 339.72024,403.82469 C 340.15766,403.15666 338.95953,401.6478 337.05774,400.47165 C 333.741,398.42042 333.46471,398.45308 330.28514,401.27248 C 328.462,402.88909 326.97033,403.61045 326.97033,402.87549 C 326.97033,402.14053 327.87885,400.82752 328.98925,399.9577 C 332.43589,397.25779 331.48197,394.73956 327.30682,395.51633 C 323.92549,396.14542 323.86743,396.09608 326.63535,394.94575 C 328.30178,394.25319 330.57305,394.01536 331.68263,394.41725 C 332.79221,394.81914 333.70005,394.51511 333.70005,393.74164 C 333.70005,392.96816 332.85634,392.33533 331.82513,392.33533 C 330.79393,392.33533 329.5467,391.33489 329.05351,390.11214 C 328.33452,388.32959 328.49272,388.20369 329.85167,389.47694 C 330.78385,390.35034 332.70155,391.06494 334.11324,391.06494 C 335.84177,391.06494 336.42694,391.68721 335.90521,392.97053 C 335.4791,394.0186 335.75288,394.87612 336.51361,394.87612 C 337.27433,394.87612 337.55596,395.39657 337.13944,396.03269 C 336.72292,396.6688 338.35278,399.10709 340.76134,401.45111 C 343.16991,403.79514 346.50691,407.41935 348.1769,409.5049 L 351.21324,413.29684 L 349.81026,409.59873 C 349.03862,407.56478 348.62483,401.84801 348.89073,396.89479 C 349.15663,391.94158 348.69036,384.45889 347.85457,380.26658 L 346.33497,372.64422 L 344.19637,377.0906 C 343.02014,379.53611 340.11344,383.53785 337.73704,385.98336 C 335.09437,388.70288 329.45737,393.23688 330.7791,391.29436 C 331.96765,389.54757 339.62122,380.68355 341.92255,376.53505 C 345.45749,370.16282 345.9813,368.09288 345.29809,363.19591 C 344.85331,360.00788 343.88058,352.25439 343.13648,345.96594 C 342.39237,339.67748 341.51703,332.67443 341.19128,330.4036 C 340.86553,328.13278 341.0535,326.27482 341.60901,326.27482 C 342.16451,326.27482 343.3189,333.28438 344.17432,341.8516 C 345.02974,350.41882 346.31231,359.1369 347.02448,361.22511 C 347.73664,363.31332 348.72413,369.53723 349.2189,375.05601 C 349.85335,382.13281 350.50573,384.56655 351.43239,383.31357 C 352.3038,382.13531 352.4106,384.31802 351.74951,389.79454 C 350.46113,400.46766 350.85569,407.04436 353.03469,411.21639 C 354.02266,413.10803 354.53638,417.03152 354.21436,420.22609 C 353.57755,426.54347 360.12225,472.73527 362.26024,477.01302 C 363.01267,478.5185 363.21899,480.37536 362.71873,481.13936 C 362.09435,482.09292 363.50008,482.32793 367.20208,481.88891 C 373.6935,481.11908 378.88269,479.36441 380.08124,477.53396 C 380.69435,476.59762 379.88969,476.57381 377.43248,477.45559 C 375.49131,478.1522 371.97408,478.65952 369.61639,478.58295 C 365.77613,478.45826 365.96047,478.31011 371.38644,477.16039 C 374.71765,476.45453 378.80595,475.88501 380.47156,475.8948 C 383.71106,475.91381 384.60451,474.2032 381.8175,473.31783 C 380.49838,472.89877 380.48621,472.38156 381.76117,470.92268 C 382.65552,469.89928 383.0407,467.66253 382.61711,465.95209 L 381.84695,462.84222 L 384.17515,465.80766 C 385.85796,467.95107 386.09594,469.15764 385.03366,470.1603 C 383.97138,471.16295 384.00739,472.05178 385.16357,473.3667 C 386.42813,474.80487 386.28046,475.51906 384.45858,476.77649 C 381.49023,478.82516 381.51448,478.99051 385.62073,484.7001 C 388.60406,488.84831 388.99474,490.49483 388.42242,496.50767 C 387.12266,510.16281 384.62822,520.64516 382.67851,520.64516 C 381.27018,520.64516 380.79904,518.52649 380.77162,512.07 L 380.73521,503.49484 L 376.08392,508.21637 C 373.06615,511.27973 371.12777,514.73745 370.56455,518.06193 C 369.74176,522.91856 369.44204,523.19309 364.82119,523.32284 C 343.83602,523.91207 337.87702,523.95224 334.182,523.52939 z M 369.21845,515.61181 C 371.63636,509.26525 380.30085,500.31885 384.02952,500.31885 C 386.63257,500.31885 387.57977,491.58483 385.41728,487.52239 C 382.24844,481.56938 380.40561,480.88142 372.24536,482.60511 C 366.61382,483.79464 364.74416,484.78286 364.23557,486.83868 C 362.87115,492.35403 352.24872,513.58293 350.08305,515.12245 C 348.84522,516.0024 344.65266,517.35968 340.76625,518.13864 C 336.87984,518.91758 333.70005,520.08605 333.70005,520.73523 C 333.70005,521.39811 340.95917,521.91556 350.25845,521.91556 L 366.81685,521.91556 L 369.21845,515.61181 z M 384.4247,504.43282 C 384.08782,503.21821 383.82441,504.51115 383.83935,507.30602 C 383.85429,510.10089 384.12992,511.09465 384.45186,509.5144 C 384.7738,507.93414 384.76158,505.64743 384.4247,504.43282 z M 318.83397,326.74797 C 318.94033,322.01243 321.47387,321.21945 331.72163,322.71425 C 337.53379,323.56204 347.13392,323.72612 356.95598,323.14555 L 372.80922,322.20847 L 374.72351,317.88407 C 375.77638,315.50566 378.18202,307.13083 380.06938,299.27334 C 381.95675,291.41586 383.86453,283.73566 384.30889,282.20623 C 384.75325,280.6768 384.07237,276.45738 382.7958,272.82973 C 379.99829,264.87997 380.60326,258.49129 385.47854,244.49912 C 387.3946,238.99998 388.59663,233.41328 388.14972,232.08423 C 387.16336,229.15091 388.64782,222.10249 390.25196,222.10249 C 390.88688,222.10249 391.05097,224.16942 390.61665,226.69566 L 389.82695,231.28883 L 398.44044,230.36228 C 403.17785,229.85269 407.46846,229.20438 407.9751,228.92162 C 409.76488,227.92272 413.11057,214.64333 413.10315,208.56782 C 413.09151,199.02063 410.83172,193.0831 406.19726,190.42291 C 402.93359,188.54957 401.40551,188.35658 398.37748,189.43539 C 395.32099,190.52432 393.46362,190.26579 388.48996,188.05912 C 385.12172,186.56473 381.95623,184.71642 381.45554,183.95174 C 380.91034,183.11913 377.57402,185.6604 373.13804,190.28716 C 369.06411,194.53631 364.49628,198.63655 362.98729,199.3988 C 358.71427,201.55729 346.57126,203.30635 347.4613,201.94707 C 347.88941,201.29326 355.11576,200.50578 356.42074,200.50578 C 359.77583,200.50578 368.0032,194.42509 373.46887,187.90582 C 377.77803,182.76599 377.94413,182.24561 375.7601,180.72763 C 373.76959,179.34415 372.93775,179.50346 370.38229,181.75757 C 366.25514,185.39802 365.30518,183.89225 367.35963,176.96636 C 368.76271,172.23634 368.76534,169.77851 367.37364,163.90839 C 365.71543,156.91418 359.22068,140.32444 357.50775,138.70766 C 357.04555,138.2714 354.8304,138.63266 352.58519,139.51045 C 349.51907,140.70919 348.04323,140.7463 346.65588,139.65953 C 345.63998,138.86373 343.67208,138.55499 342.28278,138.97344 C 339.95487,139.67461 339.96788,139.5689 342.44867,137.62553 C 344.42379,136.07829 346.6637,135.70593 350.86082,136.22712 C 357.36119,137.03433 357.85022,136.42606 353.5527,132.87886 C 351.11344,130.86548 349.2722,130.51688 344.08768,131.08685 C 340.14507,131.52029 337.9594,131.32355 338.44686,130.57909 C 338.88456,129.91062 338.60127,129.29224 337.81731,129.2049 C 337.03335,129.11756 335.78626,128.90318 335.04599,128.7285 C 334.30572,128.55382 332.92101,128.33944 331.96885,128.2521 C 331.01669,128.16476 327.53814,125.85495 324.23875,123.11918 C 317.75455,117.74267 316.25948,118.11167 316.2234,125.09748 C 316.20415,128.82506 316.6253,129.17905 322.59602,130.45393 L 328.98925,131.81903 L 322.59602,131.25086 C 316.91808,130.74626 316.20279,130.96425 316.20279,133.19918 C 316.20279,135.17305 317.14601,135.73492 320.57711,135.80496 C 322.98298,135.85407 326.13442,136.33105 327.5803,136.86493 C 329.82953,137.69542 329.58868,137.95274 325.9126,138.64669 C 323.54947,139.09279 320.70087,139.12631 319.58237,138.7212 C 315.85572,137.37141 317.19508,148.12176 322.36542,161.05927 C 329.23775,178.25556 328.71878,177.63868 336.31328,177.63868 C 342.27516,177.63868 342.80375,177.87648 342.14302,180.26128 C 341.74338,181.70372 339.98307,183.77034 338.2312,184.85377 C 335.82386,186.34259 335.04599,187.98089 335.04599,191.56223 C 335.04599,197.2905 338.32865,200.52066 345.48145,201.83074 L 350.52433,202.75438 L 345.37351,202.90047 C 338.06328,203.10782 331.83169,197.26683 332.61413,190.94087 C 333.24265,185.85932 332.26345,185.56963 324.44245,188.52332 C 319.91058,190.23483 318.95951,191.29749 317.6855,196.07304 C 316.87001,199.12987 316.20279,203.37861 316.20279,205.51472 C 316.20279,207.65082 315.59712,209.39854 314.85685,209.39854 C 313.07949,209.39854 313.19408,206.6327 315.37941,196.78491 C 316.8725,190.05656 316.87789,189.02286 315.41004,190.91761 C 311.51225,195.94894 309.03513,218.04897 311.83892,222.77785 C 312.95352,224.65773 313.2672,224.45287 314.0876,221.30929 C 315.21703,216.9816 321.54107,206.39134 322.47151,207.26956 C 322.82771,207.60577 321.74664,210.65195 320.06912,214.03887 C 318.39161,217.42578 317.17024,220.71618 317.35497,221.35087 C 317.53969,221.98556 316.90177,222.97724 315.93735,223.55461 C 314.52249,224.40164 314.54059,224.60812 316.03111,224.62382 C 317.33424,224.63754 317.47893,225.11102 316.52235,226.23127 C 313.97857,229.21027 315.42539,235.54088 319.70027,240.13642 C 327.37091,248.38242 328.05033,260.48684 322.25336,285.6222 C 320.8295,291.79598 320.17503,299.72701 320.39426,308.15125 C 320.58035,315.30186 321.07668,324.82567 320.57125,325.30273 C 319.66514,326.15798 318.4721,311.9651 318.868,298.32615 C 318.97955,294.4832 320.24254,286.22065 321.67463,279.96491 C 325.96677,261.21586 324.59697,248.28005 317.56732,241.17718 L 313.88744,237.45897 L 313.16522,247.4046 C 312.76799,252.8747 311.73437,258.59999 310.86827,260.12746 C 309.28344,262.92252 309.66997,267.70179 313.64935,294.51496 C 314.42708,299.75534 315.21087,305.18628 315.3911,306.58371 C 315.57133,307.98114 314.91919,311.05227 313.94188,313.40842 C 311.76407,318.65885 311.68285,325.26251 313.71331,331.9916 L 315.24665,337.07318 L 317.00996,333.26199 C 317.97978,331.16584 318.80058,328.23453 318.83397,326.74797 z M 352.85773,242.17351 C 353.20655,241.18576 355.84325,240.7704 360.33577,240.99545 C 369.48938,241.45402 374.63864,238.54877 378.50907,230.74195 C 381.50915,224.69066 383.6418,222.76935 382.81084,226.86646 C 382.56285,228.08922 382.3136,229.79385 382.25696,230.65454 C 382.09979,233.04302 373.44142,240.96685 369.40651,242.41481 C 364.23565,244.27041 352.17927,244.09461 352.85773,242.17351 z M 350.89335,173.82275 C 353.31711,172.42793 355.68264,171.28671 356.15007,171.28671 C 356.61751,171.28671 359.02557,169.82842 361.50131,168.04607 C 363.97706,166.26372 366.00267,165.28267 366.00267,165.86596 C 366.00267,167.34384 343.90266,179.638 341.43435,179.64008 C 340.32394,179.64102 348.46958,175.21757 350.89335,173.82275 z M 329.96075,165.90903 C 323.0691,162.77478 331.84966,158.60633 339.27422,161.48759 L 343.79462,163.24182 L 339.48714,165.35867 C 334.55992,167.7801 334.12955,167.80496 329.96075,165.90903 z M 338.31628,163.80878 C 339.28958,162.32233 334.44639,161.17721 330.89438,162.05394 C 328.76125,162.58045 328.51928,163.00406 329.88493,163.82114 C 332.25335,165.2382 337.38524,165.23067 338.31628,163.80878 z M 335.41052,156.54484 C 335.85776,156.1227 337.01864,156.07757 337.99024,156.44455 C 339.06394,156.85009 338.74501,157.15112 337.17707,157.21208 C 335.75822,157.26724 334.96327,156.96698 335.41052,156.54484 z M 390.9763,318.84055 C 391.72816,312.88658 391.57716,311.93954 390.08915,313.27659 C 388.99515,314.2596 388.15888,318.47017 387.94446,324.07494 C 387.54269,334.5767 389.39245,331.38313 390.9763,318.84055 z M 390.07264,259.57912 L 390.12428,255.76794 L 388.15804,260.04257 C 387.07662,262.39363 386.19181,265.7145 386.19181,267.42232 C 386.19181,269.13012 385.67363,270.22514 385.0403,269.85569 C 384.40697,269.48624 384.20353,270.73803 384.58822,272.63745 C 385.2327,275.81959 385.4736,275.592 387.65433,269.74061 C 388.956,266.24794 390.04425,261.67527 390.07264,259.57912 z M 387.7672,256.79524 C 389.68751,252.1237 390.19272,248.97426 389.4994,245.99689 C 388.5229,241.80346 388.51767,241.80104 387.26665,244.96958 C 384.71596,251.42987 382.09807,264.18272 383.03033,265.60648 C 383.71085,266.6458 384.14852,266.53648 384.52448,265.23333 C 384.81692,264.21967 386.27614,260.42252 387.7672,256.79524 z M 367.46078,471.91177 C 367.76922,471.65964 370.74712,471.1132 374.07833,470.69746 C 378.1226,470.19273 379.24064,470.31538 377.44318,471.06659 C 374.87262,472.14089 366.29165,472.86742 367.46078,471.91177 z M 304.64187,199.10485 C 302.30083,196.65875 302.09049,194.46654 302.29468,174.64198 C 302.4622,158.37619 302.15473,153.58928 301.07954,155.72438 C 299.75873,158.34724 297.3596,159.67535 297.3596,157.78367 C 297.3596,156.25586 304.07132,139.43356 306.3045,135.3641 C 307.5404,133.11195 309.041,126.27663 309.63916,120.17448 C 310.97352,106.56196 312.56208,103.53871 322.50648,95.686175 C 326.81227,92.286134 332.07266,87.896616 334.19624,85.931694 C 338.26501,82.166901 341.60115,81.432115 344.06537,83.758016 C 345.79433,85.389922 353.88919,84.079267 353.88919,82.167422 C 353.88919,81.474314 354.83748,81.802286 355.9965,82.896249 C 357.15551,83.990212 362.41978,87.264455 367.69487,90.172345 C 379.807,96.849152 387.73104,103.7166 391.2926,110.62356 C 395.12148,118.04897 399.43608,137.74149 398.66369,144.26653 C 398.25609,147.70994 399.08383,152.92404 400.96711,158.77633 C 403.65029,167.11426 403.76064,168.6404 402.23202,176.26855 C 401.31089,180.86506 398.55007,188.49916 398.25745,187.67737 C 397.96483,186.85557 400.07926,178.59398 400.79559,174.87411 C 401.80394,169.63772 401.64983,166.96343 400.11298,163.02915 C 399.02123,160.23428 397.61703,151.37328 396.99254,143.33803 C 395.83148,128.39876 394.81376,123.81349 392.90601,124.92636 C 392.31235,125.27267 392.14835,124.39479 392.54157,122.97552 C 393.54892,119.33962 389.3074,109.58127 384.45004,104.35958 C 380.95319,100.60044 373.85526,95.794598 358.09419,86.514658 C 356.20304,85.401169 354.55323,85.123692 354.05636,85.835545 C 352.9207,87.462566 344.86627,86.793698 342.40828,84.868249 C 340.10444,83.063557 340.35935,82.908014 325.86641,94.96196 C 320.44751,99.468924 315.23075,104.62257 314.27361,106.41451 C 313.31648,108.20645 312.1983,113.96016 311.78877,119.20054 C 311.24134,126.2055 309.76695,131.5336 306.2208,139.32183 C 301.20256,150.34313 300.47237,152.92037 302.74337,151.5956 C 304.5663,150.5322 304.66331,152.45904 304.11848,178.90908 C 303.81452,193.66599 308.60151,197.01586 311.24119,200.01795 C 313.99494,203.14978 307.58579,202.18092 304.64187,199.10485 z "
       id="path2701"
       sodipodi:nodetypes="csssscccsssssssssssssscccssssssssssssssssssssssssssssssssssssssssssssssscccscccsscccsssssssccccccsssssssssssssssssssssssssssssscccscccsssssssssssssssssssssssscccsssssscccssccsssssssccccssccscccsssssscccssssssssssssssssssssssssssssscccsssssssssscccssssssssssssssssssssscccsssscccccsssssccsssscccccccssccssccssccccssssccssssccssccssssssssssssssssssssssssssssssssc" />
    <path
       style="fill:#000000"
       d="M 541.26288,522.3731 C 541.36772,520.96632 544.4385,517.0303 548.08682,513.62637 C 554.37964,507.75509 555.52199,502.4892 556.33947,494.61849 C 557.74062,481.1283 555.67627,476.61121 559.65153,476.61121 C 560.21186,476.61121 559.42812,483.60979 558.83584,486.63629 C 558.24356,489.66279 557.7333,494.9355 557.70193,498.35343 C 557.63385,505.7706 555.30599,510.65469 549.56145,515.43298 C 544.07985,519.99254 543.31911,523.04384 548.2853,520.55157 C 550.19137,519.59502 555.79287,517.03625 560.73308,514.86543 C 567.22303,512.01361 569.51026,510.39035 568.97641,509.01508 C 568.57002,507.96822 568.8108,506.76144 569.51148,506.33339 C 570.21215,505.90532 570.47033,505.05109 570.08523,504.43514 C 568.82404,502.41789 576.00473,489.37235 579.97243,486.47255 L 583.8501,483.63854 L 581.32147,478.73883 C 576.99889,470.36307 575.64094,469.88632 567.42871,473.86134 C 563.48837,475.76861 560.26445,477.89827 560.26445,478.59394 C 560.26445,479.2896 558.51264,478.31582 556.37155,476.42997 C 554.23045,474.54412 552.80769,472.47485 553.20986,471.8316 C 553.61202,471.18834 553.17658,469.75147 552.24222,468.63853 C 551.30785,467.5256 549.93096,465.53799 549.18245,464.2216 C 545.57718,457.88107 524.26057,428.0484 523.33528,428.0484 C 522.75533,428.0484 522.27427,428.7767 522.26625,429.66685 C 522.25824,430.557 519.87983,437.64347 516.98089,445.41455 C 514.08196,453.18563 511.82304,460.46866 511.96107,461.59905 C 512.32724,464.59762 509.49416,470.77548 507.7529,470.77548 C 506.8579,470.77548 506.56007,471.91758 507.01078,473.62132 C 507.42484,475.18652 507.10967,477.24607 506.3104,478.19808 C 505.24196,479.47071 505.29477,481.73213 506.50987,486.73914 C 507.89478,492.44589 507.84368,494.7986 506.19447,501.26009 C 505.11203,505.50103 503.81633,511.44713 503.31513,514.47363 C 502.65267,518.47393 501.78666,519.97636 500.1433,519.97636 C 498.19042,519.97636 497.96011,518.919 498.45119,512.2078 C 498.76383,507.93509 498.50674,504.4522 497.87987,504.46803 C 495.71259,504.52278 491.13449,508.99129 487.83303,514.27438 C 484.51885,519.57782 484.51872,519.57787 474.38704,520.42449 C 457.03046,521.87485 454.57557,521.64079 453.73288,518.45529 C 452.86059,515.15788 455.55045,512.71891 461.37605,511.52499 C 463.53719,511.08209 466.34331,510.4306 467.61187,510.07723 C 470.27895,509.33432 474.30266,502.37611 473.1403,500.51693 C 472.70816,499.82573 472.97877,499.2602 473.74166,499.2602 C 474.50456,499.2602 475.12874,498.64559 475.12874,497.8944 C 475.12874,497.1432 477.58458,492.95368 480.58616,488.58435 C 483.58774,484.21502 486.04358,479.87716 486.04358,478.94469 C 486.04358,476.96039 486.52472,476.85565 496.30229,476.71138 C 502.91481,476.61382 506.69243,475.53394 505.14454,474.1837 C 504.84438,473.92188 500.6663,473.40999 495.85991,473.04616 C 488.78301,472.51044 487.2528,472.72411 487.81392,474.16957 C 488.195,475.15131 488.37666,479.05555 487.75461,479.05555 C 485.81464,479.05555 482.72781,465.52361 484.20957,463.75867 C 484.93512,462.89447 485.66547,460.18689 485.83259,457.74181 C 485.9997,455.29674 486.6759,452.92825 487.33523,452.4785 C 487.99457,452.02875 488.73534,449.98951 488.98138,447.94684 C 489.22742,445.90417 490.38793,437.82384 491.56029,429.99054 C 492.73265,422.15725 494.17981,410.5044 494.77621,404.09534 C 496.18471,388.959 498.23333,379.5831 501.70734,372.37372 C 505.16431,365.19971 505.09004,365.30657 505.99663,366.20276 C 506.40526,366.6067 505.27363,369.79693 503.48192,373.29217 C 499.64922,380.7689 497.44824,390.27968 496.67281,402.71545 C 496.3649,407.65346 495.51391,414.95936 494.78173,418.95079 C 494.04955,422.94223 492.90543,431.90303 492.23925,438.8637 C 491.57307,445.82437 490.47173,452.21055 489.79183,453.05522 C 489.11193,453.89989 488.242,456.33891 487.85866,458.47526 C 487.47531,460.61162 486.74499,463.6634 486.23572,465.25702 C 485.53705,467.44332 485.90885,468.34045 487.7505,468.91213 C 489.09289,469.32882 491.21467,470.20986 492.46556,470.87 C 495.65118,472.55115 502.89375,472.29262 505.33485,470.41061 C 508.11101,468.27029 509.37491,464.5807 507.53915,463.9758 C 506.57762,463.65896 507.07227,462.05293 508.92251,459.4843 C 510.50655,457.28523 511.80258,455.06627 511.80258,454.55329 C 511.80258,454.04029 514.18543,447.2192 517.09779,439.39529 L 522.393,425.17 L 519.72555,420.11108 C 518.25846,417.32868 517.1756,414.62613 517.3192,414.10542 C 517.4628,413.5847 516.51961,411.18811 515.22323,408.77967 C 513.772,406.08356 513.11125,402.84924 513.50391,400.36373 C 513.85467,398.14341 515.09346,389.6264 516.25677,381.43704 C 517.42009,373.24769 519.50473,360.72088 520.88931,353.5997 C 522.27389,346.47852 523.78442,337.84832 524.24603,334.42147 L 525.08532,328.19084 L 521.12856,330.2135 C 518.95234,331.32597 515.06839,332.23616 512.49756,332.23616 C 508.06029,332.23616 507.86752,332.05566 508.69497,328.67557 C 509.17436,326.71724 510.06969,323.76611 510.68459,322.11748 C 512.71928,316.66219 512.09072,315.40428 507.3301,315.40428 L 502.85762,315.40428 L 501.76354,325.43867 C 501.16179,330.95759 500.66945,343.7757 500.66945,353.92338 C 500.66945,364.12586 502.28021,376.02832 501.62201,376.02832 C 500.91708,376.02832 498.66312,361.68213 499.2067,346.15483 C 500.73015,302.63733 501.04359,297.69908 502.44256,295.1732 C 503.18194,293.83823 505.59042,287.13846 507.79474,280.28483 C 511.85866,267.64935 512.45947,262.23908 510.98204,251.58362 C 510.29378,246.61979 509.54632,245.41385 506.34564,244.10329 C 498.63801,240.94729 496.80737,234.57189 501.39955,226.87798 C 503.71364,223.00086 503.89734,221.63994 502.69993,217.2441 C 501.93302,214.42866 500.38681,211.37139 499.26391,210.45015 C 492.67818,205.04716 490.42484,191.82983 492.29773,169.58904 C 492.66471,165.23122 492.56005,160.57008 492.06516,159.23096 C 491.2631,157.06067 490.98106,157.18696 489.46878,160.39351 C 488.41096,162.63643 487.42631,163.4376 486.85351,162.52143 C 485.92708,161.03962 487.22643,157.06764 494.44438,139.31691 C 496.61614,133.97603 498.82667,125.81905 499.35667,121.19027 C 500.53327,110.91441 502.21587,107.49775 509.14919,101.30575 C 512.10536,98.665643 514.16907,95.937769 513.73519,95.243795 C 513.30132,94.549821 513.8644,93.633773 514.98649,93.208125 C 516.10859,92.782468 516.64428,91.822602 516.17692,91.07508 C 515.70956,90.327546 515.94631,90.094185 516.70301,90.556497 C 517.97852,91.335762 521.45864,89.98716 526.21016,86.872311 C 528.5292,85.352075 534.40518,85.160754 535.46562,86.570954 C 535.87366,87.113572 538.1328,86.894068 540.48593,86.083169 C 544.14677,84.821627 545.2686,84.973913 548.25761,87.13816 C 550.17891,88.529304 555.87668,91.898223 560.91934,94.624634 C 573.56143,101.45985 576.60619,104.6061 581.24993,115.63294 C 585.20455,125.02342 585.50511,127.47609 584.86635,145.14334 C 584.81486,146.56757 586.29765,152.78179 588.16145,158.9527 C 590.80422,167.7028 591.40863,171.96778 590.9072,178.32807 C 590.30014,186.02819 589.69134,188.35596 588.60906,187.11514 C 588.35024,186.81842 588.58853,183.0798 589.13856,178.8071 C 589.97338,172.3223 589.58732,169.21987 586.80239,160.03307 C 584.26966,151.67829 583.43235,145.90918 583.32586,136.08002 C 583.20222,124.66669 582.74119,122.21185 579.43533,115.36386 C 574.38416,104.90056 571.9513,102.55233 558.95467,95.595766 C 552.83144,92.318253 547.52684,89.224564 547.16665,88.720901 C 546.63815,87.981882 530.18132,87.918246 525.73231,88.63802 C 525.1093,88.738808 519.96968,93.275161 514.31094,98.718792 C 503.59248,109.0298 502.15071,111.67898 500.70206,123.72461 C 499.91031,130.30806 493.06741,150.07968 490.62283,152.84716 C 488.93395,154.75912 489.32803,155.9192 491.82844,156.39614 C 493.90083,156.79144 494.12055,158.87951 494.12055,178.1783 C 494.12055,198.57323 494.26629,199.77525 497.395,205.18521 L 500.66945,210.84715 L 502.66309,201.9483 C 504.57303,193.42307 504.82049,193.04508 508.5571,192.94527 C 518.26728,192.68587 533.77317,182.044 524.44094,182.044 C 522.74749,182.044 519.65314,181.44898 517.5646,180.72173 C 514.06608,179.50352 513.42447,178.19696 509.41129,164.1186 C 506.85992,155.1683 505.27544,146.99968 505.58665,144.40101 C 505.87887,141.96082 505.44783,138.36569 504.62878,136.41183 C 503.0059,132.54045 504.74887,116.01123 506.77998,116.01123 C 507.38127,116.01123 507.87324,116.77022 507.87324,117.69786 C 507.87324,119.66151 518.07675,130.18313 520.19278,130.40148 C 520.98101,130.48281 525.48805,130.68534 530.2084,130.85154 C 540.91447,131.2285 544.59961,133.48647 548.89553,142.30157 C 551.9082,148.48349 559.79544,171.47784 559.41869,172.98068 C 559.32943,173.33673 558.85409,174.939 558.36238,176.54126 C 557.74799,178.54328 558.01225,179.45447 559.20723,179.45447 C 560.16361,179.45447 562.41359,180.79525 564.20717,182.43397 C 570.21084,187.91927 582.21622,192.40208 590.9027,192.40208 C 594.74219,192.40208 595.99639,193.94564 598.71734,202.01974 C 601.6401,210.69269 601.424,215.75535 597.75834,224.48639 C 594.47416,232.30883 593.13351,237.62193 589.68215,256.49269 C 588.50997,262.90176 586.94125,269.40092 586.1961,270.93529 C 585.45095,272.46965 585.30002,274.50889 585.86067,275.46695 C 586.42132,276.425 586.4181,276.79707 585.85349,276.29379 C 584.85642,275.40496 576.78931,280.54112 573.88784,283.91206 C 572.83798,285.13178 572.92312,288.06395 574.20255,294.75275 C 576.10745,304.71145 576.19884,304.05317 569.44836,328.99926 C 565.5182,343.52296 562.88102,350.95735 552.49099,376.80318 C 550.22341,382.44391 548.69736,387.9072 549.09976,388.94381 C 549.50216,389.98044 549.15966,391.62869 548.33865,392.60661 C 547.21194,393.94864 547.26604,394.88508 548.55927,396.42547 C 549.97765,398.1149 549.95479,398.66048 548.42653,399.59417 C 546.90399,400.52435 547.06765,401.24464 549.3602,403.70346 C 554.19184,408.88552 564.16344,426.77525 565.70948,433.03518 C 566.52703,436.34546 567.99396,440.62718 568.96931,442.55015 C 569.94466,444.47311 570.74269,448.71168 570.74269,451.96921 C 570.74269,456.98705 571.21084,458.06793 573.80679,459.04358 C 576.33952,459.99548 576.7658,460.90303 576.26489,464.27682 C 575.8011,467.4006 576.44565,469.17378 579.01147,471.83279 C 582.91788,475.88106 584.36064,479.30646 587.12832,491.10361 C 588.24117,495.84708 589.79704,500.49678 590.5858,501.4363 C 591.54143,502.57455 591.56515,503.14448 590.65688,503.14448 C 589.90722,503.14448 588.33745,503.50729 587.16849,503.9507 C 585.99956,504.39413 585.18321,504.24847 585.35441,503.62701 C 585.5256,503.00557 584.29976,499.60716 582.63033,496.075 L 579.59499,489.65292 L 577.2127,492.56119 C 575.90243,494.16074 573.88334,498.7986 572.72584,502.86756 C 571.56833,506.9365 570.38974,510.94927 570.10676,511.78478 C 569.50069,513.5742 547.74755,524.19286 543.79201,524.63017 C 541.80322,524.85003 541.12349,524.24342 541.26288,522.3731 z M 484.61763,515.86064 C 485.87443,514.41535 486.52011,512.62085 486.05248,511.87288 C 485.58485,511.12492 485.77456,510.8626 486.47407,511.28995 C 487.17357,511.71732 488.77931,510.33762 490.04236,508.22396 C 491.67665,505.48906 494.01616,503.93746 498.15588,502.84295 C 503.16862,501.51762 504.14524,500.68809 505.21909,496.84351 C 505.90448,494.3897 506.06235,491.74472 505.56992,490.96578 C 505.07748,490.18682 504.5089,488.38421 504.3064,486.95998 C 503.45006,480.93699 501.17775,478.79327 495.14724,478.31914 C 489.86566,477.9039 489.10141,478.20927 487.43106,481.40231 C 486.41138,483.35155 484.07949,487.12791 482.24909,489.79422 C 480.41869,492.46055 477.19089,498.22582 475.0762,502.60594 C 470.62673,511.82205 469.54828,512.86913 463.34072,514.00017 C 460.8194,514.45956 457.94423,515.34435 456.95146,515.96637 C 453.02447,518.42685 457.20485,519.42942 469.47537,518.96992 C 480.40903,518.56049 482.67439,518.09532 484.61763,515.86064 z M 503.09265,506.73956 C 503.79973,503.91804 503.58049,503.36361 501.99543,503.96488 C 500.59604,504.49571 500.04761,506.48098 500.12714,510.72788 C 500.24279,516.90352 500.69947,516.28934 503.09265,506.73956 z M 586.13216,493.75557 C 585.30998,490.20382 583.97242,487.60736 582.96493,487.60736 C 582.00573,487.60736 581.22093,487.88309 581.22093,488.22011 C 581.22093,489.20441 586.9238,500.52811 587.25476,500.20096 C 587.4201,500.0375 586.91493,497.13708 586.13216,493.75557 z M 571.0051,469.89333 C 574.51743,466.75119 573.85288,465.21897 570.04692,467.68412 C 568.2235,468.86518 566.40481,469.50845 566.00541,469.11364 C 565.60599,468.71881 566.55421,467.72124 568.11253,466.8968 C 569.67087,466.07238 570.64954,464.63452 570.28738,463.70154 C 569.8343,462.5344 570.51761,462.18168 572.47791,462.57083 L 575.32692,463.1364 L 572.37991,460.9716 C 570.75906,459.78095 569.41416,457.85823 569.39126,456.69889 C 569.35625,454.92745 569.04263,454.99217 567.42659,457.10427 C 564.92522,460.37345 564.96707,458.72488 567.50875,453.86615 C 569.38845,450.27289 569.27357,449.32481 565.67307,438.71702 C 560.98388,424.90175 552.5831,409.21968 547.10214,404.04995 L 543.03214,400.21106 L 540.63266,403.12427 C 539.31295,404.72653 537.55453,406.03748 536.72506,406.03748 C 535.8956,406.03748 537.15288,404.28956 539.51903,402.1532 C 541.88517,400.01684 544.55535,398.26892 545.45277,398.26892 C 546.39178,398.26892 546.75213,397.41289 546.30163,396.25237 C 545.85832,395.11037 544.66842,394.55841 543.55793,394.97966 C 541.9141,395.60321 541.94632,395.19652 543.75714,392.46455 C 544.9452,390.67212 545.335,389.2056 544.62336,389.2056 C 543.91172,389.2056 542.63357,387.89466 541.78302,386.29239 C 540.28241,383.46552 540.31322,383.44634 542.82241,385.64501 C 545.87712,388.32169 547.16218,388.51266 547.17867,386.29239 C 547.18528,385.40224 549.77919,378.41054 552.94293,370.75527 C 556.10666,363.10001 558.3115,356.82767 557.84258,356.81678 C 557.37366,356.80588 557.63924,356.36889 558.43277,355.8457 C 561.67169,353.71022 568.32774,328.35187 565.64933,328.35187 C 564.84878,328.35187 564.19379,327.70691 564.19379,326.91859 C 564.19379,326.13029 565.07789,325.82068 566.15846,326.23059 C 567.23903,326.64047 568.19033,326.55715 568.27247,326.04542 C 568.3546,325.53367 568.61399,323.51271 568.84889,321.55439 L 569.27596,317.99379 L 551.6724,317.99379 C 541.99045,317.99379 531.03701,317.42761 531.03533,316.89351 C 531.03365,316.35943 539.22137,316.24525 545.52636,316.48185 C 562.46441,317.1175 570.65033,315.85144 571.99642,312.38793 C 572.5971,310.84239 572.57476,309.03822 571.94678,308.37863 C 571.29329,307.69227 571.40004,306.47069 572.19639,305.52215 C 573.9078,303.48368 572.45314,300.7748 570.32474,302.03672 C 569.43304,302.5654 569.53511,302.031 570.56575,300.77484 C 571.82485,299.24021 572.09159,296.86961 571.46782,292.75774 C 570.98071,289.54674 570.27134,286.91956 569.89141,286.91956 C 568.1836,286.91956 540.12402,303.44249 536.90961,306.34096 C 534.4789,308.53274 532.78342,311.94932 531.6584,316.92267 C 530.7446,320.96233 529.14492,324.9665 528.10355,325.82084 C 527.06219,326.67517 526.21016,329.24726 526.21016,331.53657 C 526.21016,333.82588 524.7664,343.51379 523.0018,353.06526 C 521.2372,362.61675 519.41065,374.21876 518.9428,378.84752 C 518.47495,383.47629 517.2613,390.57156 516.24582,394.61478 L 514.39947,401.96611 L 519.14275,411.30902 C 521.75155,416.44762 527.35334,425.87181 531.59118,432.25167 C 535.82901,438.63152 539.04513,444.25319 538.73811,444.74426 C 538.43109,445.23534 541.08601,449.54939 544.63794,454.33103 C 548.18986,459.11268 551.09599,463.50196 551.09599,464.08499 C 551.09599,464.66802 552.46364,466.41517 554.13522,467.96752 L 557.17446,470.79 L 560.25755,467.54584 C 561.95325,465.76155 563.92553,464.30168 564.6404,464.30168 C 565.35526,464.30168 563.79505,466.4222 561.17324,469.01394 C 558.55144,471.60567 556.70029,474.19638 557.05959,474.77107 C 557.90982,476.13099 567.96326,472.61461 571.0051,469.89333 z M 525.55527,417.69032 C 525.11006,416.9782 525.36997,416.39556 526.13287,416.39556 C 526.89576,416.39556 527.51994,416.9782 527.51994,417.69032 C 527.51994,418.40244 527.26003,418.98508 526.94235,418.98508 C 526.62468,418.98508 526.00049,418.40244 525.55527,417.69032 z M 520.2198,328.26063 C 526.57614,325.48115 527.74004,323.84284 530.20879,314.20002 C 532.10411,306.79698 535.80437,303.51889 552.92807,294.07282 C 560.6416,289.81776 567.95276,285.44795 569.17512,284.36212 C 570.39747,283.2763 573.90253,280.70639 576.96414,278.65122 C 580.02575,276.59604 582.53071,274.41114 582.53071,273.79587 C 582.53071,271.55019 582.77408,270.70934 583.79136,269.4403 C 585.1161,267.7877 588.60286,253.17817 589.58535,245.16354 L 590.33928,239.01343 L 584.79777,238.99576 C 581.74993,238.98604 578.02131,238.65033 576.51191,238.24976 C 573.93987,237.56717 573.63024,238.39902 571.58044,251.49821 C 570.26701,259.89152 568.69043,265.86382 567.63386,266.44832 C 564.19954,268.34823 546.37637,282.27 537.3433,290.10843 C 532.30064,294.48419 525.73969,299.9209 522.76341,302.19 C 519.78713,304.45909 517.02951,307.63228 516.63537,309.2415 C 516.24123,310.85074 514.69791,315.60801 513.20578,319.81323 C 508.83219,332.13912 509.50287,332.94686 520.2198,328.26063 z M 515.15246,309.25417 C 516.6538,305.64348 522.01263,300.45018 536.05688,288.99544 C 546.44393,280.5236 554.57531,273.00488 554.12661,272.2872 C 553.67792,271.56953 553.92199,271.35574 554.66901,271.81213 C 555.92033,272.57662 560.45746,269.73641 565.66454,264.929 C 567.82919,262.93048 572.06012,243.37311 572.05513,235.38855 C 572.0519,230.22114 575.09126,224.03857 578.52882,222.21993 C 581.89819,220.43738 582.53071,220.53364 582.53071,222.82894 C 582.53071,224.01423 581.30926,224.77107 579.39639,224.77107 C 575.97297,224.77107 574.67203,226.9013 574.67203,232.507 C 574.67203,236.6278 576.56813,237.72795 583.62017,237.69886 C 590.41754,237.6708 591.51972,236.603 595.10731,226.57007 C 598.62637,216.72877 599.05687,204.4021 595.8586,205.05808 C 594.90458,205.25374 594.45914,204.87781 594.86874,204.22266 C 595.27834,203.56753 594.73275,202.69741 593.65632,202.28909 C 592.57989,201.88075 591.70819,200.80009 591.71922,199.88758 C 591.73347,198.70928 592.09239,198.78044 592.95779,200.13314 C 594.61645,202.72581 595.69595,201.35265 594.76515,197.83409 C 594.34746,196.25514 592.74999,194.73151 591.21522,194.44827 C 575.78186,191.59991 570.446,189.7456 565.00817,185.34081 C 559.7122,181.05092 559.10141,180.842 558.38439,183.07523 C 557.62343,185.4453 551.07957,189.44375 551.11176,187.51896 C 551.12044,187.00015 552.59394,184.03995 554.38621,180.94076 C 557.75972,175.1073 558.42056,171.01649 556.47877,167.9871 C 555.68464,166.74816 555.08595,166.65719 554.44746,167.67844 C 553.21429,169.65087 540.37609,177.68379 534.72963,180.01597 C 531.50567,181.34759 530.13951,182.73833 530.13951,184.68867 C 530.13951,186.37133 529.11313,187.73079 527.53468,188.13883 C 526.10202,188.50919 525.2527,189.3286 525.64731,189.95975 C 526.04191,190.59092 525.74058,191.10732 524.97768,191.10732 C 524.21479,191.10732 523.5906,193.15513 523.5906,195.65801 C 523.5906,199.40266 524.34458,200.66314 527.84739,202.77435 C 532.73985,205.72312 544.7566,206.23238 549.34419,203.68534 C 555.05347,200.51555 561.6901,193.44781 562.44063,189.73816 C 562.86458,187.64273 563.76689,185.92828 564.44578,185.92828 C 565.12465,185.92828 565.27726,187.23922 564.78492,188.84148 C 563.30771,193.64885 557.77634,200.05613 551.9816,203.67222 C 545.1154,207.95696 533.9444,208.3805 526.88742,204.62365 C 522.72435,202.4074 522.28082,201.63866 522.28082,196.63931 C 522.28082,193.59672 522.03499,191.10732 521.73452,191.10732 C 521.43406,191.10732 518.52037,192.23777 515.25966,193.61944 C 510.12317,195.79597 509.19744,196.79062 508.33072,201.06432 C 507.78051,203.77732 507.36166,208.47328 507.39994,211.49979 C 507.43822,214.52629 506.97097,217.00252 506.36161,217.00252 C 505.75225,217.00252 505.25368,216.03145 505.25368,214.84458 C 505.25368,213.65772 504.89084,213.04534 504.44736,213.48373 C 504.00388,213.92213 504.29119,216.12446 505.08582,218.37781 C 506.28549,221.77973 506.12964,223.054 504.16715,225.88877 C 499.52952,232.58774 501.5591,241.60296 507.70484,241.60296 C 511.52304,241.60296 513.11094,244.41877 513.14438,251.24892 C 513.16199,254.84512 513.77621,260.35979 514.50931,263.50377 C 515.29413,266.86959 515.35612,269.53156 514.66005,269.97758 C 511.13303,272.23754 502.63412,300.35902 502.63412,309.76937 C 502.63412,313.97116 502.80147,314.10952 507.88385,314.10952 C 512.7181,314.10952 513.29335,313.72526 515.15246,309.25417 z M 543.23731,246.90349 C 543.23731,246.08377 545.77266,245.48724 549.25657,245.48724 C 556.83178,245.48724 561.86977,242.11127 564.68909,235.14586 C 565.84577,232.28819 567.37172,229.95012 568.0801,229.95012 C 568.92174,229.95012 568.92503,231.10204 568.08961,233.27418 C 565.82556,239.16078 564.27332,241.37094 560.59456,243.94598 C 556.40441,246.87898 543.23731,249.12254 543.23731,246.90349 z M 506.56346,220.03794 C 506.56346,219.57108 508.01148,217.31242 509.78127,215.0187 C 511.55106,212.725 512.58252,210.39168 512.07339,209.83356 C 511.56426,209.27543 511.88266,209.23682 512.78095,209.74775 C 514.01452,210.44937 513.69399,211.92357 511.47117,215.77177 C 508.8269,220.34961 506.56346,222.31717 506.56346,220.03794 z M 504.81135,203.73123 C 504.448,202.84108 504.15071,203.56938 504.15071,205.34968 C 504.15071,207.12997 504.448,207.85827 504.81135,206.96813 C 505.17469,206.07798 505.17469,204.62138 504.81135,203.73123 z M 508.42947,193.89087 C 507.29037,192.53885 505.26179,195.62251 505.31276,198.62861 L 505.37184,202.11277 L 507.09163,198.2285 C 508.03752,196.09214 508.63955,194.14022 508.42947,193.89087 z M 557.41995,180.72954 C 557.129,179.86672 556.13458,180.82912 555.21012,182.86822 C 553.63668,186.33879 553.67047,186.43902 555.73912,184.43699 C 556.95452,183.26072 557.7109,181.59237 557.41995,180.72954 z M 543.63962,173.51768 C 549.26374,170.27817 554.16895,166.84544 554.54008,165.88938 C 554.91121,164.93331 554.37126,162.49622 553.34019,160.47363 C 552.30913,158.45103 551.13246,154.65833 550.72538,152.04541 C 550.3183,149.43248 549.02198,145.8414 547.84467,144.06519 C 545.98191,141.25485 545.18237,140.98366 541.68385,141.97552 C 539.18284,142.68458 536.72666,142.61961 535.18426,141.80361 C 533.82063,141.08218 532.12771,140.84457 531.42222,141.27559 C 530.71673,141.70661 530.13951,141.46562 530.13951,140.74006 C 530.13951,140.0145 532.47841,138.72814 535.33706,137.8815 C 539.5774,136.62562 540.94333,136.67566 542.75385,138.15321 C 544.67213,139.71869 544.88668,139.70092 544.33592,138.02216 C 543.18966,134.52822 537.59435,133.14135 521.13218,132.27078 C 506.45875,131.49482 504.99897,131.61416 505.74227,133.52897 C 506.19393,134.69247 506.56346,136.17942 506.56346,136.83329 C 506.56346,137.48716 508.28346,138.02216 510.38568,138.02216 C 519.2508,138.02216 521.29668,141.5469 512.78492,142.15568 C 507.90564,142.50465 507.1886,142.95347 506.97737,145.79071 C 506.84483,147.57101 508.12991,153.39743 509.8331,158.73832 C 511.5363,164.0792 513.33964,170.48826 513.84054,172.98068 C 515.01415,178.82055 516.09807,179.41555 525.55527,179.41126 C 532.50679,179.40811 534.59435,178.7278 543.63962,173.51768 z M 518.4538,168.24466 C 515.49375,166.19513 515.46231,166.01964 517.75782,164.36038 C 520.71244,162.22468 525.01102,162.13801 529.42299,164.12519 C 533.8191,166.10522 533.63325,166.96895 528.40929,168.8363 C 522.79085,170.84465 522.15424,170.80682 518.4538,168.24466 z M 528.11655,166.60009 C 528.52972,165.93924 527.6804,165.02602 526.22918,164.5707 C 523.15696,163.6068 518.35148,164.84111 518.35148,166.59413 C 518.35148,168.16502 527.13481,168.17038 528.11655,166.60009 z M 525.55527,158.73832 C 526.00049,158.0262 526.95416,157.44356 527.67454,157.44356 C 528.39492,157.44356 528.62005,158.0262 528.17483,158.73832 C 527.72962,159.45043 526.77595,160.03307 526.05557,160.03307 C 525.33519,160.03307 525.11006,159.45043 525.55527,158.73832 z M 511.73207,125.64958 C 507.28201,121.1105 507.20634,121.08768 506.36658,124.03113 C 504.72488,129.78544 505.05466,130.25359 510.74974,130.25359 L 516.2458,130.25359 L 511.73207,125.64958 z M 491.42389,462.40072 C 490.02554,461.35519 489.47083,460.49976 490.19121,460.49976 C 490.91159,460.49976 492.6451,461.35519 494.04345,462.40072 C 495.4418,463.44624 495.9965,464.30168 495.27612,464.30168 C 494.55574,464.30168 492.82224,463.44624 491.42389,462.40072 z "
       id="path2763"
       sodipodi:nodetypes="cssssssssssscccssssssssssssssssssssssssssssssssssssssssssssssssssssssscccssssscccssscccssssssssssssssssssssssssssssssssssssssssssscccsssssssssssssssssssssssssssssssssssssssssscccsssccssssssssssssssccssccsssccsssscccsssscccssssssssssssssssscccssssssssssssssscccsssscccsssccsssccsssssscccsssssssccsssssssssssssssssssssssssssssssssssssssssssssssssssssccsssssccssssccsscccccccssccssssssssssssssssssssccsssccssccsssccsccccsssc" />
  </g>
</svg>
