<?xml version="1.0" encoding="UTF-8" standalone="no"?>
<!-- Created with Inkscape (http://www.inkscape.org/) -->
<svg
   xmlns:dc="http://purl.org/dc/elements/1.1/"
   xmlns:cc="http://web.resource.org/cc/"
   xmlns:rdf="http://www.w3.org/1999/02/22-rdf-syntax-ns#"
   xmlns:svg="http://www.w3.org/2000/svg"
   xmlns="http://www.w3.org/2000/svg"
   xmlns:sodipodi="http://sodipodi.sourceforge.net/DTD/sodipodi-0.dtd"
   xmlns:inkscape="http://www.inkscape.org/namespaces/inkscape"
   width="1052.3622"
   height="744.09448"
   id="svg2783"
   sodipodi:version="0.32"
   inkscape:version="0.45.1"
   version="1.0"
   sodipodi:docbase="/home/flecox/pyweek/herobot/arte"
   sodipodi:docname="mujer-3.svg"
   inkscape:output_extension="org.inkscape.output.svg.inkscape">
  <defs
     id="defs2785" />
  <sodipodi:namedview
     id="base"
     pagecolor="#ffffff"
     bordercolor="#666666"
     borderopacity="1.0"
     gridtolerance="10000"
     guidetolerance="10"
     objecttolerance="10"
     inkscape:pageopacity="0.0"
     inkscape:pageshadow="2"
     inkscape:zoom="0.7"
     inkscape:cx="574.87633"
     inkscape:cy="552.31961"
     inkscape:document-units="px"
     inkscape:current-layer="layer1"
     width="1052.3622px"
     height="744.09448px"
     inkscape:window-width="1280"
     inkscape:window-height="740"
     inkscape:window-x="0"
     inkscape:window-y="0" />
  <metadata
     id="metadata2788">
    <rdf:RDF>
      <cc:Work
         rdf:about="">
        <dc:format>image/svg+xml</dc:format>
        <dc:type
           rdf:resource="http://purl.org/dc/dcmitype/StillImage" />
      </cc:Work>
    </rdf:RDF>
  </metadata>
  <g
     inkscape:label="Layer 1"
     inkscape:groupmode="layer"
     id="layer1">
    <path
       style="fill:#000000"
       d="M 220.88709,585.22544 C 218.96047,584.10343 218.03829,577.12061 220.54129,572.55877 C 221.84597,570.18093 223.1321,574.00423 222.53084,577.80877 C 222.18315,580.00877 221.84112,582.23204 221.77077,582.74938 C 221.70042,583.26672 222.31786,583.82674 223.14286,583.99389 C 224.46052,584.26085 228.06588,578.42839 228.07006,576.02306 C 228.07081,575.59091 228.78393,574.52484 229.65476,573.65401 C 231.93188,571.37688 231.09107,571.12653 225.32174,572.36383 C 221.09154,573.27104 219.26967,574.42985 214.76959,579.07557 L 209.33041,584.69079 L 205.48663,583.51348 C 203.37255,582.86596 196.91786,581.18384 191.14286,579.77543 C 185.36786,578.36702 179.98393,576.56085 179.17857,575.76173 C 178.20331,574.79401 178.11124,574.30877 178.90289,574.30877 C 179.55662,574.30877 180.79743,572.94364 181.66024,571.27516 C 182.73063,569.20524 184.24774,568.02941 186.43592,567.57375 C 190.99737,566.62391 197.66964,566.81888 197.49594,567.89694 C 197.41513,568.39845 198.99013,570.63831 200.99594,572.87442 C 203.00174,575.11052 205.13994,577.80741 205.74749,578.86751 C 206.69594,580.52245 207.08318,580.60318 208.48648,579.43856 C 209.38537,578.69254 209.83126,577.61362 209.47734,577.04095 C 209.11826,576.45995 209.31358,576.29625 209.91925,576.67057 C 210.51623,577.03952 211.30627,576.85338 211.67491,576.25691 C 212.04355,575.66044 212.99801,575.42295 213.79594,575.72914 C 214.59388,576.03534 214.99407,575.87705 214.68527,575.37739 C 214.37646,574.87773 215.25309,573.58062 216.63333,572.49492 C 218.01357,571.40923 219.14286,569.81485 219.14286,568.95187 C 219.14286,568.08889 220.04286,565.09949 221.14286,562.30877 C 223.85365,555.43143 223.7329,554.30877 220.2824,554.30877 C 218.70916,554.30877 215.84007,553.23527 213.90665,551.92322 C 210.54047,549.63887 210.32593,549.61408 208.84925,551.33871 C 208.0011,552.32927 207.57019,553.40277 207.89167,553.72425 C 208.21316,554.04574 208.01389,554.30877 207.44885,554.30877 C 206.88381,554.30877 204.98242,557.00877 203.22354,560.30877 C 201.46466,563.60877 196.72585,568.27306 196.18492,568.27306 C 195.16814,568.27306 201.43988,559.88986 206.28884,552.68596 C 207.81513,550.41842 208.78168,548.28092 208.43672,547.93596 C 208.09176,547.59101 208.60706,547.30877 209.58183,547.30877 C 210.55661,547.30877 212.69143,548.43402 214.32589,549.80933 C 215.96035,551.18463 219.06281,552.59215 221.22024,552.93714 C 225.85176,553.67775 226.08903,554.83427 223.14286,562.30877 C 220.83325,568.16829 220.50323,570.48781 222.29183,570.83782 C 222.70943,570.91954 223.24251,570.8939 223.89286,570.78088 C 225.40536,570.51804 227.96977,570.15705 229.59155,569.97869 C 233.40134,569.55968 234.14293,566.8833 233.13634,557.18563 C 232.01725,546.40421 232.31812,546.72604 223.55268,546.93436 C 217.87433,547.06931 215.87197,546.76642 215.46706,545.71125 C 215.17106,544.93989 214.25388,544.30877 213.42888,544.30877 C 212.38383,544.30877 207.51145,550.56371 208.02928,549.34448 C 209.19276,546.60511 216.84946,529.17974 221.2409,512.30877 C 223.45992,503.78377 226.37065,493.58318 227.70917,489.6408 C 229.0477,485.69841 230.16261,481.64841 230.18675,480.6408 C 230.21089,479.63318 230.836,477.11213 231.57589,475.03847 C 232.5476,472.31508 232.66251,470.11709 231.98973,467.12275 C 231.2834,463.97915 231.43103,462.04582 232.60058,459.12281 C 233.44883,457.00283 234.14286,455.08539 234.14286,454.86184 C 234.14286,453.34417 221.60824,448.88404 215.64286,448.27907 C 208.14949,447.51915 195.8326,442.63953 196.55136,440.71554 C 196.77599,440.11427 197.26223,436.96427 197.63191,433.71554 C 198.49775,426.10655 201.59844,412.11091 207.9132,387.30877 C 209.52358,380.98377 211.88187,371.30877 213.15385,365.80877 C 214.42582,360.30877 216.54635,352.43377 217.86613,348.30877 C 219.18592,344.18377 220.31663,339.90877 220.37884,338.80877 C 220.44104,337.70877 221.13247,336.04963 221.91535,335.12178 C 222.69824,334.19394 223.01204,332.90613 222.6127,332.25998 C 222.21336,331.61383 222.37053,330.7861 222.96196,330.42057 C 224.24722,329.62624 222.32776,309.30877 220.96745,309.30877 C 220.50131,309.30877 218.70631,312.34627 216.97857,316.05877 C 214.70781,320.9381 213.78444,324.47159 213.64674,328.80877 C 213.50925,333.13929 212.45699,337.17386 209.86497,343.30877 C 207.88977,347.98377 205.07382,354.73377 203.6073,358.30877 C 202.14078,361.88377 199.80733,367.48568 198.42187,370.75747 C 196.42791,375.46623 195.9323,378.22764 196.04416,384.00554 C 196.18595,391.3294 194.8828,395.46778 190.75294,400.80877 C 189.24708,402.75624 179.20563,404.8794 179.17466,402.20163 C 179.1567,400.64896 190.12249,396.32956 191.39286,395.05975 C 193.2743,393.17912 193.74088,391.33635 194.24131,383.80975 C 194.66414,377.45022 195.58596,373.048 197.38248,368.80877 C 198.78097,365.50877 201.79038,358.30877 204.07005,352.80877 C 206.34973,347.30877 208.6079,341.90877 209.08821,340.80877 C 211.0824,336.24172 211.46856,334.56985 211.6289,329.80877 C 211.7288,326.84257 213.09261,321.61379 214.98175,316.95407 L 218.16619,309.09938 L 215.15452,305.66928 C 212.58858,302.74683 212.14286,301.42739 212.14286,296.7541 C 212.14286,290.58563 215.40555,281.45306 219.55095,276.01815 C 220.9765,274.14916 222.14286,271.71065 222.14286,270.59924 C 222.14286,269.48783 222.97114,267.5053 223.98349,266.19363 C 227.47408,261.67096 231.13757,254.63682 230.39118,253.89043 C 229.97961,253.47885 230.31786,253.2921 231.14286,253.47544 C 232.12834,253.69443 232.61934,253.07164 232.57431,251.65978 C 232.53015,250.27532 232.97485,249.6908 233.82431,250.01677 C 234.54951,250.29506 235.14286,250.0101 235.14286,249.38353 C 235.14286,248.75697 236.15536,247.79847 237.39286,247.25355 C 239.31748,246.40605 239.20903,246.35479 236.64286,246.89914 C 234.99286,247.24914 232.06786,247.7376 230.14286,247.9846 C 219.70059,249.3245 217.13749,251.80614 214.3157,263.30877 C 206.90535,293.51601 204.14286,305.19442 204.14286,306.31432 C 204.14286,307.01578 203.28213,309.439 202.23014,311.69924 C 193.68089,330.06751 193.31477,331.20978 190.6615,347.79283 C 187.84525,365.39454 184.27036,379.54415 182.03963,381.91865 C 180.2462,383.82767 179.99216,385.24945 180.15492,392.46692 C 180.40976,403.76798 180.36529,404.20036 179.14286,402.30877 C 178.6097,401.48377 178.16659,396.9058 178.15817,392.1355 C 178.14472,384.51531 178.42577,383.119 180.47291,380.6355 C 182.22653,378.50807 183.57484,373.97426 185.92312,362.30877 C 187.63921,353.78377 189.33055,344.78377 189.68164,342.30877 C 190.65075,335.47717 193.0543,327.4685 196.13418,320.80877 C 197.66032,317.50877 199.67272,313.1532 200.60618,311.12974 C 201.53964,309.10627 202.42885,306.40627 202.5822,305.12974 C 202.73555,303.8532 203.36583,301.00877 203.98283,298.80877 C 205.59351,293.06568 209.05851,278.24854 209.47834,275.30877 C 209.6747,273.93377 210.11776,272.13377 210.46293,271.30877 C 210.80809,270.48377 211.5668,267.55877 212.14895,264.80877 C 214.67401,252.88061 215.86883,250.66919 220.9389,248.54004 C 226.16101,246.34704 229.32083,245.50179 235.48605,244.6487 C 239.37821,244.11014 241.09142,242.98496 241.12754,240.94355 C 241.13597,240.46767 238.67454,240.38672 235.65771,240.76365 C 228.85425,241.61368 223.76362,239.96662 222.13298,236.38775 C 221.4867,234.96931 220.92602,233.58377 220.88704,233.30877 C 220.84805,233.03377 219.76467,228.98693 218.47951,224.3158 C 217.19435,219.64466 216.14286,214.82491 216.14286,213.60523 C 216.14286,212.38554 215.44625,210.80738 214.59485,210.0982 C 210.5246,206.70784 209.22925,204.7796 208.62692,201.21442 C 207.79441,196.28685 209.56299,190.89798 212.78234,188.55285 C 215.00751,186.93193 215.15844,186.43708 214.1217,184.16169 C 212.44782,180.48792 215.17458,170.60647 219.77463,163.67621 C 222.54574,159.50135 224.7382,157.53628 229.02472,155.38548 C 236.25962,151.7553 244.80879,149.30877 250.2592,149.30877 C 253.64328,149.30877 255.00491,148.77289 256.60529,146.81122 C 258.39432,144.61832 259.69015,144.23593 267.22866,143.67632 C 273.93807,143.17825 276.9307,143.40971 280.92208,144.73544 C 293.67628,148.9717 295.80211,155.11071 293.53478,181.15843 C 292.78969,189.71812 292.05921,203.19849 291.91147,211.11481 L 291.64286,225.50812 L 286.95172,224.96253 C 282.11812,224.40037 269.34126,215.43493 272.7086,215.35297 C 273.70726,215.32866 279.08278,220.74143 280.07087,221.27024 C 282.8179,222.74041 287.9522,223.42627 288.58202,222.4072 C 289.17085,221.45446 289.82663,211.63999 290.5968,192.25394 C 290.84927,185.89878 291.27221,180.04878 291.53665,179.25394 C 292.35302,176.80016 293.11698,164.61622 292.49356,163.9928 C 292.16962,163.66886 291.81885,161.63595 291.71406,159.47521 C 291.53904,155.86642 289.08792,151.69705 287.86204,152.92292 C 287.57664,153.20832 287.00354,152.89236 286.58849,152.22079 C 286.1234,151.46827 286.25032,151.25715 286.91925,151.67057 C 287.51623,152.03952 288.28613,151.88597 288.63015,151.32934 C 289.23607,150.34894 287.1054,149.21409 280.14286,146.80877 C 279.86786,146.71377 278.95508,146.32752 278.11447,145.95045 C 276.28544,145.13001 263.8696,145.74159 262.26873,146.73098 C 261.6495,147.11368 261.14286,148.1018 261.14286,148.9268 C 261.14286,149.7518 260.69286,150.14869 260.14286,149.80877 C 259.59286,149.46885 259.14286,149.62327 259.14286,150.15193 C 259.14286,150.68058 260.38036,151.55191 261.89286,152.08821 C 267.28903,154.00157 273.14286,156.79155 273.14286,157.45006 C 273.14286,157.81827 274.70383,159.9879 276.61167,162.27144 C 278.51952,164.55499 280.56976,168.08506 281.16775,170.11606 C 283.08855,176.63971 284.86885,189.1341 284.06331,190.43749 C 283.63382,191.13242 283.75156,192.57762 284.32497,193.64904 C 285.85979,196.51689 284.73924,202.40378 281.76031,207.12273 C 278.97353,211.53726 278.53423,212.80296 280.13141,211.81585 C 280.70916,211.45877 280.85911,211.88464 280.49224,212.84068 C 279.98899,214.15214 279.69386,214.21201 279.0037,213.14262 C 278.3994,212.20628 277.91935,212.13668 277.39286,212.90907 C 276.29352,214.52186 267.86445,220.80418 267.13148,220.07121 C 266.78417,219.72389 271.14286,214.52544 271.14286,213.97544 C 271.14286,213.42544 271.42703,213.2596 271.77434,213.60692 C 272.79602,214.6286 275.87168,212.53086 278.60371,208.94898 C 281.54448,205.09343 283.53805,196.48987 281.93753,194.56136 C 279.32465,191.41304 274.43104,194.66468 273.27494,200.31737 C 272.5138,204.03894 270.77149,204.71709 270.31177,201.47071 C 270.02997,199.48071 269.58421,199.23217 267.31736,199.80111 C 263.99629,200.63464 262.14286,202.12849 262.14286,203.97171 C 262.14286,209.29378 251.81228,215.08779 244.7016,213.75381 C 235.5158,212.03055 230.96436,202.79805 235.79293,195.68277 C 237.08539,193.77822 238.14286,191.97457 238.14286,191.67465 C 238.14286,191.37474 239.15536,190.28469 240.39286,189.25233 C 242.00381,187.90842 244.27023,187.36586 248.37262,187.34204 C 254.14067,187.30855 262.14286,189.7111 262.14286,191.47637 C 262.14286,191.99911 261.58036,192.08887 260.89286,191.67583 C 259.90681,191.08343 259.8983,191.24072 260.85253,192.42068 C 261.51785,193.24339 262.41785,194.82737 262.85253,195.94064 C 263.51907,197.64773 264.13018,197.83623 266.75416,197.14412 C 269.56399,196.40298 269.83869,195.98608 269.58918,192.84145 C 268.66365,181.17683 263.69894,171.65496 256.14286,167.05259 C 254.76786,166.21508 252.74286,165.75559 251.64286,166.03148 C 250.54286,166.30738 245.69528,166.75278 240.87046,167.02127 C 234.21386,167.3917 231.56079,167.1574 229.87046,166.04986 C 227.54564,164.52658 225.46309,164.26946 225.89286,165.55877 C 226.03036,165.97127 225.62459,166.19627 224.99116,166.05877 C 222.90435,165.60578 218.04144,174.78487 217.24019,180.68927 L 216.47761,186.30877 L 219.66101,186.30877 C 225.1785,186.30877 228.90097,188.17612 230.07032,191.53053 C 231.63638,196.02293 231.38511,203.51789 229.58215,206.09198 C 227.35909,209.26585 222.4044,211.59123 219.44663,210.84888 C 217.09358,210.2583 217.00089,210.39572 217.64677,213.5175 C 219.06314,220.36336 224.2992,236.19363 225.46803,237.16367 C 226.742,238.22098 239.22053,238.25864 238.57421,237.20323 C 238.37025,236.87018 239.31735,236.81063 240.67887,237.0709 C 242.04038,237.33117 243.71426,237.10322 244.3986,236.56433 C 245.08294,236.02545 246.80293,235.30836 248.22079,234.97079 C 249.63866,234.63323 251.97339,233.2684 253.40908,231.93785 C 254.84477,230.6073 256.20807,229.70731 256.43864,229.93788 C 256.66921,230.16845 257.42708,229.67123 258.1228,228.83294 C 258.81852,227.99464 259.8994,227.30877 260.52476,227.30877 C 261.15011,227.30877 262.23473,226.39131 262.93502,225.26997 C 263.6685,224.09547 264.72432,223.52754 265.42557,223.93029 C 266.09508,224.31481 266.31235,224.26427 265.9084,223.81797 C 265.50445,223.37168 265.95445,222.36616 266.9084,221.58349 C 267.86235,220.80082 268.12233,220.41945 267.48612,220.73599 C 266.73232,221.11104 266.51169,220.61436 266.85275,219.31015 C 267.14061,218.20939 267.94887,217.30877 268.6489,217.30877 C 269.61523,217.30877 269.79932,219.22531 269.41349,225.26886 C 268.87164,233.7563 269.68337,240.71078 271.11277,239.82737 C 271.59064,239.53203 272.58969,239.89845 273.33288,240.64164 C 275.5637,242.87246 278.84842,244.30877 281.71931,244.30877 C 283.20867,244.30877 287.52585,245.23158 291.31304,246.35945 C 301.08091,249.26845 306.52159,254.44619 309.07797,263.2658 C 311.41178,271.31756 312.09822,274.79457 312.24522,279.30877 C 312.55504,288.8232 314.5207,303.59857 315.23393,301.77419 C 315.69737,300.58872 316.03018,303.0098 316.07257,307.87511 C 316.16499,318.48148 317.70595,326.59693 320.86663,333.12299 C 323.87551,339.33561 324.09161,343.39771 322.75049,368.53476 C 322.10577,380.61891 322.16963,385.6361 322.98059,386.61325 C 323.59795,387.35712 324.26823,388.83042 324.47011,389.88725 C 324.67199,390.94409 325.40171,393.15877 326.09172,394.80877 C 328.71099,401.0722 330.14286,405.63517 330.14286,407.71866 C 330.14286,410.75113 320.28814,420.30877 317.16141,420.30877 C 315.44455,420.30877 313.0888,416.96283 313.84787,416.20376 C 314.43599,415.61564 317.56988,418.06913 318.41128,417.94564 C 320.72027,417.60675 323.20589,415.21978 322.47734,414.04095 C 322.12342,413.46829 322.30238,413.28933 322.87504,413.64325 C 324.08307,414.38985 326.44851,411.94776 325.46752,410.96676 C 325.10562,410.60487 325.62221,410.30877 326.61548,410.30877 C 328.18689,410.30877 328.34702,409.68035 327.84838,405.47019 C 327.5332,402.80897 325.78302,397.51223 323.95909,393.69965 L 320.64286,386.76768 L 321.43096,367.28823 C 322.38266,343.76497 322.07798,339.28249 319.08733,332.80877 C 317.81692,330.05877 316.67238,327.13377 316.54389,326.30877 C 316.41541,325.48377 316.07383,323.68377 315.78482,322.30877 C 314.73359,317.30739 312.17508,296.49219 311.02578,283.59078 C 310.37815,276.32089 309.55295,270.55532 309.19199,270.77841 C 308.83103,271.00149 308.49194,269.64028 308.43846,267.75349 C 308.26155,261.51256 301.12053,251.69266 295.14286,249.47021 C 289.33693,247.3116 284.1293,246.05701 280.5079,245.94445 C 278.38213,245.87837 276.32983,245.38385 275.94723,244.8455 C 273.75202,241.75664 274.86798,246.45239 279.26794,258.81849 C 282.00577,266.51314 284.7671,274.38377 285.40424,276.30877 C 286.04138,278.23377 286.80571,280.03377 287.10277,280.30877 C 287.62044,280.78801 288.1119,283.12927 288.35975,286.29687 C 288.4238,287.11532 289.07619,288.38496 289.80953,289.11829 C 290.54286,289.85163 291.14286,291.34604 291.14286,292.43922 C 291.14286,293.53239 291.58771,294.15187 292.13141,293.81585 C 292.67602,293.47926 292.87784,293.83582 292.58082,294.60985 C 292.2843,295.38258 293.69573,302.26845 295.71734,309.91179 C 298.28774,319.63002 299.62835,327.26676 300.17573,335.30877 C 300.87257,345.54671 303.00449,357.65376 306.2004,369.52246 C 306.79099,371.71575 307.52124,375.60242 307.82318,378.15951 C 308.12512,380.7166 308.96036,384.24194 309.67926,385.9936 C 310.76879,388.64833 310.74971,389.96474 309.5646,393.90253 C 307.37623,401.17394 307.77874,404.46177 311.64286,410.87879 C 315.26403,416.89234 315.76375,418.30877 314.26418,418.30877 C 313.78091,418.30877 312.83148,416.97124 312.15434,415.33648 C 311.4772,413.70171 309.88427,411.15514 308.61451,409.67742 C 306.78412,407.54727 306.39899,406.14315 306.7555,402.89971 C 307.5973,395.24097 307.87039,384.30877 307.21989,384.30877 C 306.86324,384.30877 306.51179,383.52127 306.43888,382.55877 C 306.05391,377.47599 305.25266,373.38246 304.29109,371.58573 C 303.69826,370.47803 303.40723,369.37773 303.64434,369.14062 C 304.43881,368.34616 299.1472,343.92949 298.03107,343.23968 C 297.42511,342.86518 297.31701,342.31917 297.79084,342.02633 C 298.5743,341.54212 298.10852,332.11767 296.86577,323.30877 C 296.08702,317.7888 294.18134,311.45059 293.09937,310.78189 C 292.55535,310.44567 292.37636,309.73998 292.70161,309.21371 C 293.4475,308.00684 289.97335,294.30877 288.92137,294.30877 C 288.49319,294.30877 288.14286,295.04025 288.14286,295.93429 C 288.14286,296.82832 285.66786,304.93151 282.64286,313.94139 C 279.61786,322.95126 277.14286,331.03781 277.14286,331.9115 C 277.14286,332.78519 277.95943,334.6945 278.95745,336.1544 C 282.81189,341.79265 293.6942,388.56795 299.5802,424.79693 C 302.07779,440.16988 302.10973,440.87583 300.4103,443.14347 C 299.43821,444.44058 297.01574,446.05962 295.02705,446.74134 C 293.03835,447.42306 290.33835,449.00692 289.02705,450.26103 C 285.26643,453.85762 281.38502,455.15627 277.26127,454.19764 C 273.39269,453.29833 267.80376,453.12849 269.90169,453.97399 C 271.48512,454.61214 280.64005,466.86818 285.49198,474.84528 C 287.96551,478.91203 289.99849,484.2961 291.72224,491.34528 C 293.12951,497.1002 294.54629,502.48377 294.87064,503.30877 C 295.195,504.13377 295.36874,505.20686 295.25674,505.6934 C 295.14474,506.17995 296.28488,511.80495 297.79039,518.1934 C 300.42666,529.38013 302.02961,533.00223 303.68414,531.51115 C 304.11279,531.12484 304.13984,531.37121 303.74425,532.05864 C 303.29665,532.83644 304.88117,535.10263 307.93947,538.05864 C 310.64243,540.67121 313.36896,543.79169 313.99841,544.99303 C 315.58309,548.01749 315.4294,554.37873 313.66991,558.58978 C 312.53073,561.31623 312.39002,563.66653 313.04896,568.96191 C 313.74958,574.59226 313.62449,576.12402 312.3449,577.5831 C 310.60294,579.56942 308.67101,579.38496 308.61365,577.22685 C 308.59292,576.44691 308.18901,572.88377 307.71608,569.30877 L 306.8562,562.80877 L 303.0086,570.74364 C 300.1148,576.71149 298.60098,578.76883 296.90193,579.04287 C 292.72555,579.71647 270.65076,580.97239 269.89286,580.57951 C 269.48036,580.36569 269.14286,578.42885 269.14286,576.27543 C 269.14286,573.01551 269.60318,572.12216 271.89286,570.93845 C 273.40536,570.15653 275.99286,569.37448 277.64286,569.20057 C 279.29286,569.02665 281.09286,568.57023 281.64286,568.1863 C 282.72515,567.4308 294.60742,572.63339 295.6491,574.31886 C 295.99824,574.88378 297.58883,572.73457 299.18375,569.54285 C 300.77868,566.35112 303.40066,562.47791 305.01038,560.93569 L 307.93714,558.13168 L 308.51324,561.97022 C 308.83009,564.08142 309.37747,567.94627 309.72964,570.55877 C 310.08181,573.17127 310.79918,575.30877 311.32379,575.30877 C 311.84841,575.30877 312.03018,574.52127 311.72772,573.55877 C 310.66483,570.17628 310.87789,557.17374 312.01485,556.03678 C 312.63525,555.41638 313.14286,552.9342 313.14286,550.52083 C 313.14286,546.57041 312.60247,545.57055 307.72321,540.49313 C 302.70471,535.27081 302.16807,534.96637 300.47321,536.38003 C 299.46652,537.2197 296.27145,538.97826 293.37307,540.28794 C 289.78948,541.90724 288.42979,542.9957 289.12372,543.68963 C 289.81765,544.38356 291.2066,544.32589 293.46451,543.50942 C 299.14575,541.45506 299.95152,541.88288 303.339,548.75234 C 305.08661,552.2963 306.8074,555.01609 307.163,554.79633 C 307.51859,554.57656 307.45239,559.15909 307.45239,559.9599 C 307.45239,562.87503 305.27782,557.19418 302.1659,552.34467 C 300.4139,549.61442 299.27051,546.91124 299.62504,546.33761 C 300.68219,544.62709 297.62716,544.10127 293.33962,545.25579 C 289.44856,546.30354 289.3051,546.49529 288.61378,551.57256 C 287.9385,556.53203 283.88043,568.37254 282.27834,569.36269 C 281.09478,570.09417 283.31099,561.0256 284.91231,558.55877 C 285.71562,557.32127 286.00613,556.30877 285.55787,556.30877 C 285.10961,556.30877 285.25969,555.79194 285.89137,555.16026 C 287.19811,553.85352 286.48795,542.09505 284.90382,538.80877 C 284.37356,537.70877 280.23566,531.18377 275.70847,524.30877 C 263.54384,505.83552 260.6544,501.20896 258.68997,497.05877 C 257.71372,494.99627 256.62875,493.33466 256.27892,493.3663 C 255.59767,493.42793 241.444,521.75196 236.99334,531.96018 C 233.93315,538.97917 232.26047,549.14539 233.98993,550.21426 C 234.61156,550.59845 235.18234,554.27135 235.29429,558.60768 C 235.48544,566.01181 235.29777,566.7118 230.5681,576.23568 C 225.65466,586.1296 224.41549,587.28029 220.88709,585.22544 z M 212.14286,579.80877 C 213.4346,578.43377 214.1405,577.30877 213.71153,577.30877 C 213.28255,577.30877 211.59458,578.43377 209.96049,579.80877 C 208.29763,581.20797 207.60692,582.30877 208.39182,582.30877 C 209.16314,582.30877 210.85111,581.18377 212.14286,579.80877 z M 203.58626,578.55877 C 202.60362,577.04627 200.41436,574.12938 198.72125,572.0768 C 195.97375,568.74597 195.14008,568.34288 190.96544,568.3268 C 187.09169,568.31187 185.93191,568.76149 184.21544,570.94363 C 183.07552,572.3928 182.14286,573.93035 182.14286,574.36039 C 182.14286,575.19328 192.66933,578.57845 200.14286,580.14895 C 202.61786,580.66905 204.80711,581.14278 205.00787,581.20168 C 205.20862,581.26058 204.5689,580.07127 203.58626,578.55877 z M 286.81489,578.19461 C 297.5792,577.88409 298.02852,576.79424 289.2245,572.34998 C 284.19356,569.81037 283.02811,569.58842 278.83605,570.37158 C 272.40873,571.57233 270.14286,572.95526 270.14286,575.67729 C 270.14286,578.79152 270.88922,579.32899 274.56098,578.85889 C 276.28439,578.63824 281.79865,578.33931 286.81489,578.19461 z M 301.07199,570.80877 C 301.07199,570.25877 300.42888,570.93377 299.64286,572.30877 C 298.85684,573.68377 298.21373,575.25877 298.21373,575.80877 C 298.21373,576.35877 298.85684,575.68377 299.64286,574.30877 C 300.42888,572.93377 301.07199,571.35877 301.07199,570.80877 z M 231.71872,542.55877 C 233.08545,536.43705 242.70428,514.36343 245.77203,510.30877 C 247.36385,508.20484 253.82319,493.2183 256.05323,486.45498 C 258.54588,478.8952 259.52744,471.66449 258.17452,470.82834 C 257.58916,470.46657 257.45432,469.63917 257.87487,468.98967 C 259.25408,466.85963 258.91437,457.30877 257.45939,457.30877 C 256.7353,457.30877 256.14286,456.69884 256.14286,455.95337 C 256.14286,455.00968 254.09257,454.40434 249.39286,453.96048 C 237.97155,452.88181 237.36042,452.98737 235.62767,456.33814 C 234.76607,458.00429 234.30732,459.76586 234.60822,460.25273 C 234.90912,460.7396 234.60815,461.32034 233.9394,461.54326 C 233.01827,461.8503 232.97396,463.04317 233.75663,466.46345 C 234.61982,470.23562 234.42282,472.28042 232.55904,478.89356 C 231.33212,483.24692 228.3101,494.00877 225.84342,502.80877 C 223.37675,511.60877 220.00564,523.53377 218.35208,529.30877 C 216.69852,535.08377 215.18749,540.40821 214.99423,541.14087 C 214.52296,542.92749 220.46173,545.04036 226.3738,545.18946 C 230.75908,545.30005 231.14961,545.10784 231.71872,542.55877 z M 293.51424,538.27101 C 300.99858,535.47076 301.53178,534.60199 298.95833,529.4006 C 297.793,527.04525 296.75451,523.69853 296.65059,521.96346 C 296.16284,513.82042 288.91989,484.77682 285.89415,478.83113 C 280.91815,469.0531 272.54456,457.94247 270.91181,458.95157 C 270.26216,459.35307 270.12422,459.14795 270.56463,458.43534 C 271.42705,457.03992 267.42213,453.39085 264.97465,453.34204 C 260.35686,453.24995 260.14286,453.86633 260.14286,467.25921 C 260.14286,477.39679 259.73423,481.18337 258.14027,485.8163 C 257.03884,489.01764 256.36384,491.86309 256.64027,492.13951 C 256.91669,492.41594 255.19618,490.26531 255.21771,489.76115 C 255.23924,489.25698 257.86497,492.29069 258.65187,494.10193 C 260.36565,498.04658 270.33511,514.00617 279.69682,527.7917 C 283.42547,533.28231 286.47619,538.34481 286.47619,539.0417 C 286.47619,540.73012 287.13429,540.65805 293.51424,538.27101 z M 265.00744,451.34328 C 265.75796,450.93504 269.35796,451.22885 273.00744,451.9962 C 276.65692,452.76355 280.58069,453.15796 281.72692,452.87267 C 284.04729,452.29515 291.32081,446.82005 290.65379,446.15303 C 290.41997,445.91922 291.10092,445.66221 292.16699,445.58191 C 293.23307,445.5016 295.35126,444.83921 296.87409,444.10993 C 299.99436,442.61563 300.50459,439.85771 299.05738,432.30877 C 298.5829,429.83377 297.4586,423.30877 296.55893,417.80877 C 294.08203,402.6665 288.45395,374.74582 286.17787,366.30877 C 285.06507,362.18377 283.19636,354.98377 282.02519,350.30877 C 279.40925,339.86661 276.85904,334.73375 274.4267,335.01514 C 273.44559,335.12864 269.94286,335.80364 266.64286,336.51514 C 263.34286,337.22664 254.56786,337.80877 247.14286,337.80877 C 235.29671,337.80877 233.1117,337.5433 229.30713,335.64182 L 224.97141,333.47486 L 223.57321,336.8212 C 221.50266,341.77674 217.72408,355.20701 214.13091,370.38211 C 212.38237,377.76677 210.11019,386.91423 209.08162,390.70979 C 208.05305,394.50535 207.44761,397.99285 207.73619,398.45979 C 208.02478,398.92673 207.88574,399.30877 207.42723,399.30877 C 206.80263,399.30877 203.89248,410.17917 202.60839,417.30877 C 202.55886,417.58377 201.99167,420.28377 201.34796,423.30877 C 198.63356,436.06465 198.30752,440.44207 200.03101,440.99008 C 200.91753,441.27197 203.66786,442.52703 206.14286,443.77911 C 208.97436,445.21154 212.66273,446.11196 216.09052,446.20756 C 221.27268,446.35209 222.62362,446.80038 229.64286,450.70462 C 231.86174,451.9388 234.0749,452.23177 238.14286,451.82981 C 241.16786,451.5309 245.89286,451.70134 248.64286,452.20857 C 253.74005,453.14873 262.54408,452.68321 265.00744,451.34328 z M 256.8205,336.29638 C 269.35962,334.67354 271.23244,334.26273 270.61871,333.2697 C 270.29986,332.75379 270.65325,332.56739 271.40402,332.85549 C 273.71945,333.74401 275.90694,330.15516 278.13728,321.80877 C 279.31306,317.40877 281.60649,310.02874 283.23381,305.40869 C 284.86112,300.78865 286.32287,295.8183 286.48213,294.36346 C 286.6414,292.90863 287.14897,291.1079 287.61006,290.36184 C 288.14677,289.49342 287.85933,288.57462 286.81118,287.80819 C 285.9107,287.14974 285.44232,286.34264 285.77034,286.01462 C 286.09836,285.6866 285.13778,281.9061 283.63573,277.6135 C 282.13367,273.3209 279.00315,264.33398 276.67901,257.64256 C 272.5102,245.64015 269.14286,239.65037 269.14286,244.23734 C 269.14286,247.28349 269.03098,247.75742 268.1817,248.30877 C 267.10827,249.00564 262.96802,257.30877 263.69396,257.30877 C 264.01943,257.30877 263.69107,257.90975 262.96429,258.64429 C 262.2375,259.37882 258.94286,263.75979 255.64286,268.37978 C 248.55319,278.30529 241.2915,285.85741 240.04037,284.60628 C 238.7791,283.34502 238.10631,275.66428 238.00602,261.38159 C 237.92235,249.46752 237.84868,249.04731 236.22164,251.20432 C 235.28824,252.44177 233.24373,256.459 231.6783,260.1315 C 228.38901,267.84818 226.7554,270.19944 228.12808,265.24132 C 229.01695,262.03074 228.97875,261.9381 227.53736,263.80877 C 225.19942,266.84298 223.77381,269.65489 224.9383,268.93519 C 225.48554,268.59698 226.22922,269.09146 226.59092,270.03403 C 226.95263,270.97661 226.92639,271.42564 226.53263,271.03188 C 225.88481,270.38406 224.69523,271.81716 220.90728,277.80877 C 220.21185,278.90877 219.33372,280.0428 218.95588,280.32884 C 216.90737,281.87963 214.14603,291.01497 214.17613,296.14168 C 214.21362,302.52876 215.8241,305.19032 220.64286,306.82889 C 222.50167,307.46097 223.70812,308.60215 223.81442,309.82889 C 223.90878,310.91783 224.51829,316.39231 225.1689,321.99441 L 226.35182,332.18005 L 229.85588,333.84283 C 236.58019,337.03373 245.11959,337.81074 256.8205,336.29638 z M 252.17182,310.40741 C 249.85917,308.85118 251.51016,308.19225 254.82593,309.34813 C 257.25447,310.19473 258.96984,309.97826 263.73809,308.22352 C 266.98571,307.02837 270.49391,305.32113 271.53409,304.42965 C 275.78239,300.78865 278.92293,289.06879 275.91865,288.06737 C 275.24534,287.84293 275.69534,287.39756 276.91865,287.07765 C 278.89511,286.5608 279.14286,286.87424 279.14286,289.89166 C 279.14286,291.75927 278.29484,295.51912 277.25837,298.24689 C 276.2219,300.97465 275.6594,303.52663 276.00837,303.91794 C 276.35734,304.30925 276.05026,304.28712 275.32598,303.86874 C 274.40812,303.33856 274.10511,303.66155 274.32598,304.93469 C 274.51222,306.00826 274.02446,306.79619 273.14286,306.84591 C 272.31786,306.89243 269.84286,307.76075 267.64286,308.77551 C 262.98801,310.92259 254.29934,311.83907 252.17182,310.40741 z M 244.42671,277.30451 C 245.69441,274.90724 247.37181,272.73245 248.15425,272.47164 C 249.20117,272.12267 249.0773,272.7648 247.68522,274.9031 C 246.0346,277.43854 246.01535,277.62692 247.53415,276.3816 C 248.49147,275.59666 249.98234,273.57166 250.8472,271.8816 C 251.71206,270.19154 254.09603,266.78377 256.1449,264.30877 C 262.72926,256.35501 269.38905,241.69699 267.06971,240.26356 C 265.85084,239.51026 265.54713,234.42734 266.39941,229.04533 C 266.7272,226.97543 266.69107,225.47362 266.31912,225.70796 C 265.94718,225.9423 262.68692,228.12004 259.07411,230.54738 C 255.4613,232.97472 250.38356,235.82654 247.79024,236.88475 C 244.33994,238.29266 242.92828,239.47939 242.5277,241.30877 C 242.22663,242.68377 241.50647,245.06028 240.92736,246.5899 C 239.27007,250.96732 240.0336,283.75136 241.7528,282.03216 C 241.95575,281.82921 243.15901,279.70177 244.42671,277.30451 z M 254.76552,210.12589 C 257.48572,208.78654 261.47033,202.64765 260.56757,201.18695 C 260.29504,200.74598 258.95465,200.81003 257.58894,201.32927 C 253.08917,203.04008 245.75274,202.75449 242.69256,200.74938 L 239.84973,198.88669 L 244.42628,197.7192 C 249.03773,196.54281 256.7718,197.2415 258.01461,198.94676 C 259.06342,200.38582 261.14286,200.39622 261.14286,198.96241 C 261.14286,198.22191 260.4349,196.19691 259.56962,194.46241 C 258.14185,191.60038 256.41053,190.67547 253.64286,191.29621 C 253.09286,191.41956 251.3692,191.73057 249.81251,191.98733 C 248.25583,192.2441 245.25901,193.06215 243.15293,193.80522 C 241.04684,194.54829 239.0639,194.89648 238.74639,194.57897 C 238.42889,194.26147 237.48216,195.64578 236.64256,197.65523 C 235.3261,200.80597 235.3053,201.75604 236.49142,204.55877 C 239.56814,211.82889 246.81988,214.0381 254.76552,210.12589 z M 226.79885,206.16222 C 228.08805,204.95108 229.14286,202.8611 229.14286,201.51783 C 229.14286,199.47306 228.77661,199.17366 226.89286,199.67848 C 225.65536,200.01012 222.95536,200.28761 220.89286,200.29512 C 217.21407,200.30851 217.14286,200.38157 217.14286,204.1421 C 217.14286,206.25044 217.40534,208.23792 217.72616,208.55874 C 218.93161,209.76419 224.5423,208.28214 226.79885,206.16222 z M 215.46145,198.09871 C 215.2745,194.16919 214.89063,190.72321 214.60839,190.44097 C 214.32616,190.15874 213.34486,190.6782 212.42772,191.59533 C 210.10728,193.91578 210.28364,202.70186 212.70435,205.37672 C 215.22441,208.16135 215.86033,206.48269 215.46145,198.09871 z M 248.56107,200.70178 C 250.95167,199.78442 250.45606,198.27352 247.89286,198.66469 C 246.65536,198.85355 245.75536,199.30073 245.89286,199.65842 C 246.03036,200.01611 246.14286,200.53377 246.14286,200.80877 C 246.14286,201.46136 246.63882,201.43942 248.56107,200.70178 z M 222.64286,197.30877 C 222.30294,196.75877 221.34982,196.30877 220.52482,196.30877 C 219.69982,196.30877 219.30294,196.75877 219.64286,197.30877 C 219.98278,197.85877 220.93589,198.30877 221.76089,198.30877 C 222.58589,198.30877 222.98278,197.85877 222.64286,197.30877 z M 229.11105,196.55877 C 229.02425,194.51165 226.05094,192.29819 222.23663,191.44118 C 216.20653,190.0863 215.94311,189.22769 221.72714,189.78049 C 225.13634,190.10632 226.02992,189.97433 224.64286,189.34982 C 223.54286,188.85456 221.18036,188.41771 219.39286,188.37906 C 216.00298,188.30574 215.50243,189.32394 216.71326,193.82978 C 217.16232,195.50085 217.91888,195.78762 221.08257,195.48591 C 223.18699,195.28522 225.21301,195.61327 225.58484,196.2149 C 226.34455,197.44413 229.16024,197.71871 229.11105,196.55877 z M 281.7808,188.61519 C 283.4502,181.96376 276.967,161.3948 273.60746,162.68398 C 272.7664,163.00673 272.4399,162.69827 272.75458,161.87824 C 273.24422,160.60224 268.80582,156.30877 266.9971,156.30877 C 266.51528,156.30877 263.98847,155.29627 261.38196,154.05877 C 254.4189,150.75289 244.55567,151.01947 235.2516,154.76499 C 231.37636,156.32504 228.43994,157.98044 228.72622,158.44365 C 229.0125,158.90687 228.6066,159.04022 227.82422,158.73999 C 226.95854,158.4078 225.24241,159.68447 223.44009,162.00145 C 218.96799,167.75058 218.40667,169.29358 222.36709,164.95104 C 225.58405,161.42368 226.17471,161.16166 229.26411,161.89153 C 231.12242,162.33056 232.98036,162.60404 233.39286,162.49927 C 233.80536,162.39449 234.03036,162.87127 233.89286,163.55877 C 233.5465,165.29055 244.42584,165.76635 249.82767,164.25568 C 253.73878,163.16189 254.26202,163.26634 257.82767,165.85262 C 266.02201,171.79624 274.14286,184.43779 274.14286,191.25012 C 274.14286,192.92938 274.50485,193.01047 277.66784,192.03972 C 280.04383,191.31051 281.38448,190.19426 281.7808,188.61519 z M 246.48085,190.79564 C 247.66996,190.66825 249.76786,190.47613 251.14286,190.36871 L 253.64286,190.17341 L 251.38552,189.085 C 248.91016,187.89147 241.14286,189.58446 241.14286,191.31753 C 241.14286,191.82819 241.85746,191.97178 242.73085,191.63663 C 243.60425,191.30147 245.29175,190.92303 246.48085,190.79564 z M 230.39286,231.20959 C 229.15536,230.74959 228.14286,230.68385 228.14286,231.0635 C 228.14286,232.03505 225.60973,228.17907 224.81979,226.00505 C 224.30469,224.58742 225.06085,223.79999 228.35247,222.32629 C 231.25159,221.02831 233.07464,220.73708 234.27596,221.38 C 235.23043,221.89082 236.92513,222.30877 238.04193,222.30877 C 239.74498,222.30877 243.01128,225.97177 241.97388,226.71825 C 235.34991,231.48465 233.28604,232.28505 230.39286,231.20959 z M 237.05952,227.3921 C 238.11369,226.33794 239.24244,225.65919 239.56786,225.88377 C 239.89327,226.10835 239.75044,225.80052 239.25045,225.19969 C 238.19886,223.93603 227.6011,223.51585 226.42966,224.69138 C 225.26522,225.85988 229.98881,229.30877 232.75364,229.30877 C 234.06771,229.30877 236.00536,228.44627 237.05952,227.3921 z M 226.40342,216.11775 C 226.23641,213.90068 226.81771,213.84077 228.84322,215.86628 C 229.69985,216.72291 231.01771,217.18703 231.7718,216.89766 C 232.52588,216.6083 233.14286,216.82151 233.14286,217.37148 C 233.14286,217.92145 231.65714,218.27136 229.84127,218.14907 C 227.46501,217.98904 226.5015,217.41973 226.40342,216.11775 z M 234.30921,217.30971 C 234.82751,215.7548 239.14286,214.86679 239.14286,216.31505 C 239.14286,216.86159 238.72966,217.30877 238.22464,217.30877 C 237.71963,217.30877 236.53322,217.60548 235.5882,217.96812 C 234.42112,218.41597 234.01086,218.20477 234.30921,217.30971 z "
       id="path2849"
       sodipodi:nodetypes="cssssssscccsssssssssssssssssssssssssssssssssssssssssssssssssssssssssssssssssssssscccssssssssssssssssssssssssssssssssssssssssssssssssscccsssssssssssssssssssssssssssssssssssssssssssssssssssssscccssssssssssssssssssssssssssssssssssssssssssscccssssssssssssssssssssssssssssssssssssssssssssssssssssssssssssscccsssssssscccsssssssssssssssssssssssssssssccsssccssssssccssssccsssccssssssssssssssssccsssssssssssssccsssssssssssscccssssssssssssccssssssssssssssssssssssssssssscccccssssssssssssccsssssssssssssccsscccsssssssssccsssssccsssccsssccsssccsssssssccsssssssssssssssscccccssccssssssccssssccssssccsssc" />
    <path
       style="fill:#000000"
       d="M 409.63525,580.22085 C 409.30392,576.86866 410.05353,574.76421 412.12401,573.23403 C 414.00127,571.84664 413.82243,571.64611 410.70773,571.64611 C 408.74705,571.64611 407.06834,571.07447 406.97726,570.37578 C 406.31898,565.32544 406.88011,564.4624 412.82339,561.38419 C 418.86055,558.25738 422.99049,554.23403 423.55422,550.93032 C 423.69639,550.09707 425.38454,547.12872 427.30565,544.33399 C 433.26668,535.66217 432.22423,528.53782 423.35758,517.35182 C 421.56308,515.08791 419.47295,513.60421 418.71287,514.0547 C 417.94064,514.51238 417.72297,514.2654 418.21953,513.49493 C 418.70826,512.73657 418.53298,511.7752 417.82996,511.35856 C 416.56571,510.60924 395.57066,487.92964 382.50023,473.19409 C 373.61601,463.17807 372.40148,460.77585 373.46728,455.32776 C 375.10595,446.9513 374.85404,441.4927 372.74998,439.78346 C 371.00251,438.36391 371.15978,438.24828 373.86069,438.96681 C 376.19881,439.58881 376.74176,439.39212 375.9742,438.20114 C 375.29781,437.15161 375.47663,436.91571 376.49226,437.51766 C 377.34529,438.02323 377.72678,438.92786 377.34003,439.52797 C 376.95328,440.12807 377.88263,440.99824 379.40527,441.46168 C 380.92789,441.92512 381.7925,442.66984 381.3266,443.11662 C 380.15526,444.23991 394.24279,446.82859 395.88312,445.79146 C 398.03371,444.43172 404.47555,443.61312 403.7129,444.79649 C 402.65699,446.4349 413.61415,446.1005 418.69299,444.33931 C 422.22726,443.11374 423.69951,443.12709 425.83189,444.40416 C 427.51541,445.4124 430.83356,445.75836 434.72017,445.33089 C 440.66341,444.67723 452.09594,444.95776 447.72226,446.2544 C 443.35366,447.54952 430.00613,447.17494 423.37013,445.20254 C 420.44977,444.33453 420.3896,444.52279 420.3896,454.52999 C 420.3896,463.57088 420.76977,465.17662 423.70129,468.5176 C 426.19103,471.35509 427.03698,473.82282 427.10968,478.46014 C 427.21246,485.01513 427.72046,488.46426 432.1462,512.65513 C 433.68806,521.08301 435.078,529.46638 435.23495,531.28484 C 435.46612,533.96338 436.30252,534.67873 439.63999,535.05238 C 448.74816,536.07208 450.04269,534.95824 451.80089,524.58875 C 454.51259,508.59559 455.48552,478.94598 453.48899,473.14459 C 452.53681,470.37783 451.94555,468.1141 452.17506,468.1141 C 452.40457,468.1141 451.56038,466.20034 450.29906,463.8613 C 447.95877,459.52134 447.16127,457.06604 445.9038,450.32947 C 445.51255,448.23342 444.52965,446.09849 443.71958,445.58518 C 442.84818,445.03299 443.37449,444.64393 445.00849,444.63243 C 446.52745,444.62173 451.29628,443.53589 455.60589,442.21945 C 459.91551,440.903 465.11439,439.45491 467.15899,439.00146 C 470.72062,438.21157 470.84707,437.92589 470.17634,432.18509 L 469.47625,426.19317 L 470.89568,430.95691 C 472.36535,435.88922 475.31783,437.16194 478.41038,434.19626 C 479.64674,433.01062 480,433.15177 480,434.83143 C 480,436.21211 481.70296,435.49033 479.7974,435.51616 C 478.15811,435.53838 472.88185,437.91109 471.46759,438.93688 C 470.05334,439.96268 467.3212,440.80198 465.39616,440.80198 C 463.47113,440.80198 461.45723,441.23072 460.92084,441.75473 C 460.38445,442.27874 457.45361,443.3188 454.40786,444.06597 C 448.90196,445.41665 448.87122,445.45706 449.06008,451.09614 C 449.16456,454.21555 450.48415,459.32073 451.99249,462.44096 C 458.03884,474.94868 458.65571,484.48837 455.29145,513.45937 C 453.44866,529.3284 453.38132,532.85945 454.86575,535.78151 C 456.82954,539.64719 456.70418,539.32069 457.9059,543.69883 C 459.74315,550.3923 459.89142,553.94448 458.5273,558.58527 C 457.75069,561.2273 456.75039,566.53304 456.3044,570.37578 L 455.4935,577.36261 L 450.85713,577.36261 C 447.68689,577.36261 445.9201,578.0656 445.26995,579.58569 C 444.43301,581.54254 442.25173,581.80877 427.05567,581.80877 C 414.21172,581.80877 409.75203,581.40225 409.63525,580.22085 z M 441.54433,579.34234 C 443.15376,578.34674 442.8093,577.55823 439.55733,574.79379 C 435.92872,571.7092 434.9378,571.50014 426.79106,572.10036 C 420.10951,572.5926 417.09573,573.46721 414.41463,575.69199 L 410.87049,578.63295 L 415.96121,579.32218 C 425.11506,580.56154 439.55507,580.57292 441.54433,579.34234 z M 452.67158,575.38399 C 452.97851,575.07487 453.53935,572.82117 453.9179,570.37578 C 454.29643,567.9304 455.02934,564.07177 455.54658,561.80105 C 456.06381,559.53034 456.12289,557.67247 455.67788,557.67247 C 453.93976,557.67247 448.33836,567.4521 447.48436,571.97771 C 446.66404,576.32486 446.832,576.71899 449.34816,576.35074 C 450.86913,576.12815 452.36466,575.69312 452.67158,575.38399 z M 454.82653,554.93444 C 457.67742,552.66176 457.43643,548.31346 454.02169,540.41272 C 452.35589,536.55851 452.19537,536.5012 444.63747,537.06272 C 440.40828,537.37692 436.35194,538.20329 435.62337,538.89906 C 434.74355,539.7393 436.98939,539.99009 442.31101,539.64585 C 449.89492,539.15529 450.33683,539.2842 450.5761,542.05679 C 450.71516,543.66784 451.68419,546.94897 452.72952,549.34818 C 454.24807,552.83347 454.29573,553.97653 452.9666,555.03435 C 450.86816,556.70447 444.82936,567.43972 443.62215,571.64611 C 443.12088,573.39282 444.84327,570.8204 447.44968,565.92963 C 450.0561,561.03885 453.37568,556.09102 454.82653,554.93444 z M 443.307,566.88237 C 444.47547,564.26232 446.7585,560.07352 448.38042,557.57393 C 451.11726,553.35611 451.20472,552.60234 449.59641,547.0937 L 447.86348,541.15817 L 441.5175,541.15817 C 435.54351,541.15817 435.12038,541.38155 434.2987,544.96916 C 433.81864,547.06521 432.84194,548.78015 432.12826,548.78015 C 431.41458,548.78015 431.25598,549.44013 431.77585,550.24676 C 432.40473,551.22258 432.13393,551.3654 430.96657,550.67353 C 429.68202,549.91221 429.44574,550.21754 430.08439,551.81357 C 430.67222,553.2826 430.45624,553.69684 429.42205,553.08389 C 428.38785,552.47096 428.17187,552.8852 428.75971,554.35422 C 429.23946,555.55316 429.13122,556.2373 428.51916,555.87455 C 427.90711,555.5118 426.67922,557.54239 425.7905,560.38696 C 424.90179,563.23153 423.85536,566.35689 423.46508,567.33219 C 422.9367,568.65263 424.06018,569.12826 427.86477,569.19475 C 430.67486,569.24385 434.16623,569.77532 435.62337,570.37578 C 440.14363,572.23853 441.11537,571.7967 443.307,566.88237 z M 420.58025,568.35729 C 422.25935,567.36214 424.21626,560.27574 423.00951,559.56051 C 422.35177,559.17069 418.81074,560.31097 415.14057,562.09449 C 408.88791,565.13298 407.15308,567.42148 409.4399,569.6145 C 410.3374,570.47518 418.57545,569.5455 420.58025,568.35729 z M 427.53967,552.06338 C 431.81602,545.06567 434.14004,539.43937 432.3049,540.52701 C 431.15818,541.20666 423.03896,555.78793 423.03896,557.16767 C 423.03896,558.7011 424.48658,557.05934 427.53967,552.06338 z M 430.90228,518.18023 C 430.1201,514.39907 429.27219,509.59043 429.01804,507.49439 C 426.11936,483.58847 421.72364,471.70514 412.67333,463.30833 C 410.2508,461.06073 407.27029,458.13549 406.04995,456.80781 C 404.82962,455.4801 402.80151,453.34938 401.54302,452.07287 C 400.28456,450.79636 399.6032,448.8815 400.02891,447.81762 C 400.90994,445.61588 400.00378,445.38875 396.78954,447.00563 C 395.43092,447.68909 391.45034,447.50506 386.61038,446.53509 C 382.23896,445.659 378.25612,445.29686 377.75963,445.73033 C 377.26315,446.16381 376.45583,449.96581 375.96559,454.17922 C 375.09638,461.64967 375.19485,461.981 379.9303,467.5177 C 382.60114,470.64045 385.75337,474.33873 386.93525,475.7361 C 391.47384,481.10218 410.55606,501.46464 417.39565,508.24012 C 421.33615,512.14368 426.0645,517.75665 427.90312,520.71337 C 429.7417,523.67009 431.48866,525.85656 431.78523,525.57217 C 432.08178,525.28777 431.68447,521.9614 430.90228,518.18023 z M 423.03896,471.28994 C 422.25912,469.89257 421.32301,468.74928 420.95873,468.74928 C 420.59444,468.74928 420.93444,469.89257 421.71428,471.28994 C 422.49412,472.68731 423.43022,473.8306 423.79451,473.8306 C 424.1588,473.8306 423.81879,472.68731 423.03896,471.28994 z M 419.32986,465.95454 C 418.39415,465.0572 417.74025,460.74619 417.74025,455.47431 L 417.74025,446.51847 L 409.85106,446.51847 C 402.69379,446.51847 402.00394,446.75418 402.41541,449.05913 C 402.66486,450.4565 403.68156,451.40925 404.67474,451.17636 C 405.66793,450.94345 406.01733,451.1971 405.45122,451.73999 C 404.55698,452.59754 418.57963,467.47894 420.28191,467.47894 C 420.63257,467.47894 420.20416,466.79296 419.32986,465.95454 z M 370.31057,435.38433 C 369.33092,434.25234 369.49864,431.1561 370.87829,424.9041 C 375.5901,403.5521 381.66614,365.23407 380.73034,362.77306 C 378.32362,356.44385 376.35457,336.33226 377.27566,327.4878 C 377.80681,322.38776 378.3361,303.54199 378.45185,285.60832 C 378.71268,245.20301 378.09873,246.47103 399.82529,241.46468 C 405.94332,240.05493 408.39714,238.46032 408.44725,235.8617 C 408.4584,235.28305 406.53019,234.93741 404.16233,235.09361 C 394.03575,235.76166 392.77105,235.27666 389.86141,229.60939 C 388.33687,226.63999 386.02979,220.20893 384.73455,215.31815 C 383.02275,208.85451 381.8101,206.46945 380.29453,206.58554 C 379.04095,206.68154 378.48666,206.0526 378.90453,205.00833 C 379.28678,204.05303 378.77633,202.96848 377.77015,202.59822 C 376.05918,201.96859 375.99345,200.88879 376.97963,189.61235 C 377.05511,188.74913 378.20974,187.71021 379.54545,187.30367 C 381.18086,186.8059 381.97402,185.3347 381.97402,182.79903 C 381.97402,176.87353 387.13974,163.58141 390.93359,159.74482 C 395.56364,155.06259 407.41189,150.91152 416.74379,150.70212 C 420.93145,150.60814 424.35904,150.07335 424.36067,149.51368 C 424.3623,148.95403 426.48579,147.6458 429.07954,146.60652 C 436.00921,143.82991 448.18078,146.30354 454.14904,151.70141 C 461.00671,157.90369 461.78678,162.83251 460.03773,188.9084 C 459.20672,201.2979 458.81425,213.88056 459.16561,216.86987 C 459.7746,222.05118 459.64193,222.30367 456.32429,222.27708 C 452.34974,222.24522 437.3174,215.41924 435.93879,213.28012 C 435.43185,212.49351 442.34641,215.73081 445.13133,217.07888 C 451.79048,220.3023 455.78839,221.37136 456.55478,220.13358 C 456.89683,219.58115 457.5639,208.97716 458.03715,196.56917 C 458.51041,184.16117 459.22468,173.19182 459.62444,172.19282 C 460.0242,171.19382 459.66747,167.21774 458.83171,163.35711 C 457.24608,156.03253 452.87006,151.0501 445.73898,148.4501 C 441.39172,146.86508 431.89996,146.73922 429.12254,148.22978 C 427.30377,149.20586 428.25319,150.08985 434.40816,153.15124 C 438.53457,155.20366 443.27453,158.59787 444.94141,160.69391 C 449.42026,166.32598 452.66033,178.28608 451.61649,185.33387 C 451.14013,188.55027 450.79567,193.49657 450.85102,196.32565 C 451.01134,204.51925 444.3912,212.91706 440.53439,209.19173 C 439.15865,207.86286 434.33496,211.62378 436.14893,212.28584 C 437.75965,212.87371 442.54023,209.58465 445.47161,205.70403 C 449.86349,199.88993 450.71135,195.06333 447.54545,193.8983 C 445.19697,193.03408 441.58441,194.15563 441.58441,195.74896 C 441.58441,196.36464 440.54123,196.78457 439.26623,196.68211 C 432.89863,196.17037 431.18712,196.94378 430.32128,200.72417 C 429.81652,202.92807 427.54412,205.94041 424.96111,207.82974 C 421.10686,210.64892 419.69,210.98197 414.87196,210.20137 C 409.40582,209.31574 403.028,204.75036 401.62725,200.7205 C 401.15203,199.35332 399.8297,200.10399 396.70884,203.51265 C 394.18198,206.27251 390.98077,208.33624 388.86305,208.57061 C 385.74111,208.91611 385.34321,209.45164 385.73737,212.7775 C 385.98579,214.87354 387.79983,220.30421 389.76857,224.84565 L 393.3481,233.1028 L 403.06939,233.0139 C 409.83604,232.95203 413.24091,232.37288 414.27196,231.1084 C 415.08666,230.10927 418.09996,228.14851 420.96815,226.75114 C 428.39435,223.13316 434.96104,216.83299 434.96104,213.32618 C 434.96104,211.15891 435.35494,210.74161 436.42869,211.77131 C 437.50245,212.80103 437.48218,214.3822 436.35319,217.66274 C 435.01716,221.54486 435.16867,224.81449 437.05387,232.78522 C 437.17781,233.30922 437.35373,234.81639 437.44481,236.13444 C 437.55076,237.66807 438.92201,238.78767 441.25324,239.244 C 443.25682,239.63619 449.06883,240.7403 454.16883,241.69757 C 459.26883,242.65484 464.93181,244.18522 466.75324,245.09841 C 471.1454,247.30046 476.02396,251.62849 476.03413,253.33195 C 476.03861,254.08352 476.8035,256.12756 477.73387,257.87426 C 478.66424,259.62097 479.35404,263.05086 479.26674,265.49625 C 477.24994,321.99141 476.13091,331.26466 469.24259,348.565 L 465.25114,358.58969 L 467.37176,370.79579 C 469.33987,382.12413 470.01901,391.96216 476.59008,420.79752 C 480.92147,439.80464 479.16349,434.64363 478.24389,432.49704 C 477.94774,431.80574 469.31221,391.3704 467.36025,379.19091 C 465.42379,367.10809 463.80908,361.71371 462.65284,363.46437 C 462.01608,364.42846 461.48598,366.82304 461.47482,368.78565 C 461.46367,370.74826 460.90135,372.02617 460.22524,371.62545 C 458.32884,370.50149 457.36359,374.97116 457.58941,383.8309 L 457.79491,391.89423 L 450.68317,399.20888 C 446.7717,403.23194 442.50903,406.51893 441.21056,406.51329 C 438.99297,406.50366 436.00588,401.75704 437.0934,399.97091 C 437.36652,399.52231 437.87538,397.01773 438.22419,394.40515 C 438.57299,391.79257 439.79457,388.28482 440.93878,386.61015 C 442.083,384.93549 442.60427,382.92148 442.09713,382.13459 C 441.55599,381.29491 441.76747,381.05496 442.60904,381.55374 C 444.32103,382.5684 445.51035,379.38957 446.2015,371.95181 C 447.26833,360.47129 449.69364,345.89936 451.61096,339.45024 C 453.36799,333.54026 453.37342,332.51472 451.65624,330.86799 C 450.58362,329.83937 449.31145,327.8056 448.82921,326.3485 C 448.15832,324.32149 447.28231,323.9039 445.09957,324.57063 C 438.25386,326.66165 407.09961,330.66512 405.98574,329.59695 C 405.65072,329.27568 406.2211,328.96491 407.25323,328.90635 C 408.28538,328.84781 405.55325,328.05588 401.18181,327.14654 C 396.81038,326.23719 393.16042,325.57052 393.0708,325.66508 C 392.91867,325.82554 388.6037,343.58483 385.93001,355.05461 C 385.27855,357.84934 383.81862,365.56661 382.68575,372.20409 C 381.55289,378.84157 380.04259,387.13048 379.32954,390.62389 C 378.6165,394.11731 376.52019,404.62809 374.67106,413.98118 C 372.82194,423.33428 370.98839,431.48432 370.59653,432.09238 C 370.20466,432.70043 370.81597,433.54088 371.955,433.96004 C 374.15443,434.76942 376.20927,440.40025 374.25245,440.40025 C 373.61309,440.40025 371.07532,436.26799 370.31057,435.38433 z M 448.00543,398.65962 C 452.24982,394.1331 454.23312,390.87004 454.37533,388.17938 C 454.48891,386.03045 454.70109,383.98641 454.84686,383.63707 C 454.99262,383.28773 455.00523,381.44283 454.87483,379.53728 C 454.74447,377.63173 457.99764,368.57807 462.10413,359.41801 C 471.10421,339.34219 474.69689,326.55022 474.71439,314.51839 C 474.72161,309.56471 475.3571,297.22277 476.12662,287.09188 C 478.52881,255.46655 475.41656,248.69482 456.61254,244.63248 C 450.89707,243.39773 445.1172,242.09939 443.76838,241.74727 C 441.61407,241.18487 441.43027,241.62424 442.25625,245.36208 C 443.13744,249.34978 447.45473,261.78875 450.66504,269.58938 C 451.44774,271.49127 453.7485,274.7173 455.77783,276.75832 L 459.46753,280.46928 L 459.46753,300.61248 C 459.46753,318.59407 459.08559,322.06657 455.90837,332.97152 C 453.95084,339.69025 451.36209,352.53082 450.15559,361.50612 C 448.47499,374.00841 447.09086,379.47972 444.23716,384.90094 C 440.89364,391.25268 439.72616,396.39459 440.12552,403.00963 C 440.32744,406.35408 441.28753,405.82407 448.00543,398.65962 z M 388.47051,334.25204 C 390.75413,323.94061 390.91702,320.95633 389.68398,312.02123 C 388.46317,303.17483 387.74369,301.30044 384.64676,298.8985 L 381.03378,296.09628 L 379.96222,311.60181 C 378.88632,327.17011 378.85609,341.42741 379.88895,346.1623 C 380.19376,347.55966 380.88427,351.5612 381.42338,355.05461 L 382.40362,361.40627 L 384.11821,353.78428 C 385.06123,349.59219 387.01977,340.80268 388.47051,334.25204 z M 455.93252,323.14894 C 456.78392,320.27315 457.42813,312.27007 457.36408,305.3643 L 457.24765,292.80837 L 452.62064,306.66458 C 448.01526,320.45605 448.00446,320.54377 450.30873,325.4441 C 452.9089,330.97372 453.71313,330.6455 455.93252,323.14894 z M 438.01047,323.87938 C 443.67721,322.33328 447.73274,317.17253 448.9506,309.95785 C 449.36339,307.51246 450.32105,304.08257 451.07875,302.33586 C 453.6743,296.35234 457.33478,281.43901 456.37164,280.77184 C 453.81292,278.99938 446.88311,268.52708 446.88311,266.43281 C 446.88311,265.12715 446.24334,262.91251 445.46141,261.51139 C 443.67628,258.31266 440.25973,245.87057 440.25973,242.56831 C 440.25973,238.8068 436.46069,239.6061 435.43668,243.58303 C 434.94197,245.5044 433.14229,249.20877 431.43743,251.81494 C 429.73255,254.42112 428.33765,256.88877 428.33765,257.29861 C 428.33765,259.62207 413.66711,275.9038 411.61704,275.9038 C 410.88186,275.9038 413.72562,272.53071 415.93022,270.25999 C 422.95408,263.02554 429.19302,253.67684 432.74466,245.0645 C 435.77759,237.71003 436.01419,236.10067 434.70565,231.72602 C 433.88719,228.98984 433.30539,225.46163 433.41276,223.88555 L 433.60795,221.01998 L 428.65462,224.02415 C 425.93028,225.67644 420.74015,228.83169 417.12095,231.03582 C 412.04842,234.12504 410.19563,236.1638 409.03498,239.93338 C 407.17028,245.98969 406.68399,264.80166 408.25927,269.94241 L 409.42709,273.7534 L 411.14695,270.25999 C 412.09287,268.33861 413.38253,266.76658 414.01287,266.76658 C 414.64322,266.76658 414.33127,268.33861 413.31967,270.25999 C 412.30805,272.18137 411.74633,274.46796 412.07136,275.34132 C 412.41883,276.27497 411.55869,276.92923 409.98377,276.92923 C 406.64144,276.92923 405.25443,270.05606 405.26941,253.56757 C 405.27504,247.35615 405.03024,243.06877 404.72541,244.04008 C 403.81383,246.94468 390.85685,268.60655 389.50694,269.4828 C 388.82001,269.92869 388.72451,271.0174 389.2947,271.90216 C 389.90757,272.85311 389.79604,273.19349 389.02192,272.73468 C 386.11671,271.01282 381.08422,289.17814 383.28476,293.44354 C 383.46499,293.79288 383.53626,294.52355 383.44313,295.06725 C 383.35001,295.61095 385.28138,297.19171 387.73506,298.58002 C 391.33103,300.61466 392.07429,301.71639 391.56717,304.26038 C 391.22115,305.99624 391.34481,311.0591 391.84198,315.51115 L 392.74593,323.60582 L 398.28855,324.97666 C 404.80253,326.58776 430.70639,325.87218 438.01047,323.87938 z M 428.33765,301.18446 C 428.33765,300.55118 429.46025,300.31458 430.83227,300.65864 C 434.10207,301.47864 441.95324,297.58421 440.76072,295.73382 C 440.22254,294.89877 440.45085,294.67719 441.31919,295.19184 C 442.25546,295.74676 443.68022,293.27512 445.24902,288.37436 C 447.96619,279.88626 449.92408,279.13712 448.00708,287.31906 C 446.31349,294.54742 444.70729,297.01473 439.84403,299.85842 C 435.49692,302.40029 428.33765,303.22536 428.33765,301.18446 z M 430.02109,297.75737 C 430.46128,297.33525 431.60381,297.29013 432.56006,297.65709 C 433.61679,298.06261 433.30291,298.36362 431.75974,298.42457 C 430.36331,298.47974 429.58092,298.1795 430.02109,297.75737 z M 385.29509,295.99875 C 384.831,295.27864 385.36272,295.06569 386.54159,295.4995 C 388.83648,296.344 389.25635,297.25453 387.35091,297.25453 C 386.66534,297.25453 385.7402,296.68942 385.29509,295.99875 z M 435.3198,296.48704 C 435.75998,296.06492 436.90252,296.0198 437.85876,296.38675 C 438.91549,296.79227 438.60161,297.09329 437.05843,297.15424 C 435.66201,297.2094 434.87962,296.90917 435.3198,296.48704 z M 388.14944,267.80974 C 392.16518,263.55444 402.49396,246.44128 401.04653,246.44128 C 400.57824,246.44128 401.0132,245.47678 402.01313,244.29793 C 403.61461,242.4099 403.54037,242.25923 401.38992,243.03301 C 400.04723,243.51616 397.36476,244.2413 395.42888,244.64446 C 382.40668,247.35636 380.62715,250.29238 380.7113,268.92657 L 380.77327,282.64573 L 383.28848,276.47058 C 384.67183,273.07425 386.85927,269.17687 388.14944,267.80974 z M 425.08619,205.21326 C 428.09897,202.32407 429.07886,199.07708 428.36221,194.35769 C 427.87229,191.1314 425.32001,190.39265 417.74025,191.28319 C 413.73312,191.754 409.39065,192.1892 408.09035,192.25033 C 405.33982,192.37962 403.84743,196.79747 405.02907,201.3124 C 406.82493,208.17416 419.44015,210.62766 425.08619,205.21326 z M 412.05509,199.20248 C 409.08041,198.17219 408.65864,197.57302 409.89912,196.13965 C 411.57166,194.20703 419.99025,193.75074 422.77049,195.44202 C 424.17878,196.29871 424.17878,196.72583 422.77049,197.80776 C 419.87505,200.03225 415.93243,200.54541 412.05509,199.20248 z M 419.72726,196.89836 C 420.17755,196.19967 419.94985,195.62802 419.22129,195.62802 C 418.49271,195.62802 417.5282,196.19967 417.07792,196.89836 C 416.62764,197.59703 416.85533,198.16869 417.5839,198.16869 C 418.31247,198.16869 419.27699,197.59703 419.72726,196.89836 z M 392.87177,204.83792 C 393.99137,203.61523 395.33238,201.27957 395.85179,199.64756 C 396.72428,196.90615 396.57365,196.79449 393.87301,198.18053 C 392.26527,199.00567 389.52641,199.41982 387.78663,199.1009 C 385.08506,198.60564 384.62338,199.02063 384.62338,201.94411 C 384.62338,203.82683 385.02078,205.74834 385.50649,206.21412 C 387.13121,207.77219 390.81523,207.08383 392.87177,204.83792 z M 383.2987,196.10765 C 383.2987,188.77372 383.0439,187.89774 381.31168,189.27636 C 377.93412,191.9645 379.24342,204.52034 382.9013,204.52034 C 383.11986,204.52034 383.2987,200.73462 383.2987,196.10765 z M 403.70877,193.0076 C 406.24512,187.49467 409.78407,185.46218 416.83298,185.47012 C 421.97441,185.4759 429.69959,189.7738 430.61726,193.13897 C 431.14629,195.07899 432.03264,195.433 434.78104,194.80196 C 436.70146,194.36105 438.38911,193.92145 438.53137,193.82509 C 439.43852,193.21063 431.83901,175.42037 428.9784,171.46186 C 424.56589,165.35579 419.97712,163.45487 413.06439,164.86935 C 409.50173,165.59832 405.50456,165.37867 400.67332,164.18843 C 396.75079,163.22205 393.06753,162.89792 392.48828,163.46813 C 389.79268,166.12173 384.62338,177.98739 384.62338,181.52129 C 384.62338,185.12014 385.0002,185.46707 388.92857,185.48482 C 391.29643,185.49552 393.88965,185.92426 394.69131,186.43757 C 396.85411,187.82247 399.19481,192.5558 399.19481,195.54451 C 399.19481,199.70141 401.12935,198.61415 403.70877,193.0076 z M 395.22078,193.72252 C 395.22078,192.3312 393.71948,191.81703 389.65714,191.81703 C 383.79137,191.81703 383.96247,193.68702 389.92208,194.71229 C 391.7435,195.02565 393.68084,195.35988 394.22728,195.45502 C 394.7737,195.55018 395.22078,194.77054 395.22078,193.72252 z M 447.34948,190.85567 C 451.09363,189.82842 449.97531,174.3316 445.53954,165.77524 C 440.69736,156.43487 432.67083,152.50209 418.4026,152.47884 C 409.69202,152.46465 406.50801,153.05289 400.51948,155.78274 L 393.23376,159.10392 L 398.53246,161.53073 C 402.68781,163.4339 405.5924,163.80588 411.99339,163.25459 C 422.34557,162.36303 425.91652,163.91423 430.99977,171.5108 C 434.4038,176.59791 436.09118,180.49049 439.72166,191.63124 C 440.0756,192.71737 441.13204,193.01529 442.58909,192.43987 C 443.85794,191.93878 446.00012,191.22588 447.34948,190.85567 z M 421.47329,187.83633 C 419.00102,186.333 414.45799,186.48791 410.51687,188.20995 C 404.8652,190.67938 406.71911,191.44632 415.18109,190.13946 C 420.36857,189.33832 422.6001,188.52151 421.47329,187.83633 z M 393.75565,188.47891 C 391.84687,186.27331 384.62338,186.1675 384.62338,188.34512 C 384.62338,189.35478 386.60607,190.00441 389.94383,190.08833 C 394.31122,190.19816 394.99404,189.90985 393.75565,188.47891 z M 413.97538,420.47668 C 413.97538,418.72997 414.27605,418.01541 414.64353,418.88876 C 415.01102,419.76212 415.01102,421.19124 414.64353,422.0646 C 414.27605,422.93795 413.97538,422.22339 413.97538,420.47668 z M 381.22118,395.81168 C 379.91842,390.83403 381.34145,388.96151 382.98695,393.48816 C 383.85432,395.87424 383.9665,397.8501 383.25841,398.26975 C 382.59473,398.66312 381.67795,397.55698 381.22118,395.81168 z M 407.14286,383.63707 C 407.14286,382.93839 407.73896,382.36674 408.46753,382.36674 C 409.1961,382.36674 409.79221,382.93839 409.79221,383.63707 C 409.79221,384.33575 409.1961,384.90741 408.46753,384.90741 C 407.73896,384.90741 407.14286,384.33575 407.14286,383.63707 z M 385.02032,377.28541 C 385.02032,373.44266 385.26866,371.87062 385.57218,373.792 C 385.8757,375.71338 385.8757,378.85745 385.57218,380.77882 C 385.26866,382.7002 385.02032,381.12817 385.02032,377.28541 z M 364.31169,314.19228 C 363.82597,313.7265 363.42857,312.75469 363.42857,312.03272 C 363.42857,311.23673 364.04557,311.31173 364.9961,312.22327 C 365.85826,313.05005 366.25565,314.02185 365.87922,314.38283 C 365.50279,314.74383 364.79739,314.65808 364.31169,314.19228 z M 395.10793,224.90206 C 391.9328,222.32591 391.92872,222.29183 394.55844,220.30357 C 397.12168,218.36557 406.1604,218.39873 408.19891,220.35361 C 409.38946,221.49532 406.70433,225.20017 404.42218,225.56459 C 403.36855,225.73284 401.56154,226.23655 400.40663,226.68398 C 399.18743,227.15628 396.9652,226.40897 395.10793,224.90206 z M 404.4935,222.94015 C 405.91399,221.29877 405.38562,221.03465 400.68167,221.03465 C 395.56511,221.03465 394.04163,222.0211 396.1039,223.99875 C 397.69948,225.52889 402.81135,224.88387 404.4935,222.94015 z M 396.54545,214.68299 C 395.49479,214.06029 394.93322,213.26499 395.2975,212.91565 C 395.66178,212.5663 396.81947,212.78995 397.87013,213.41266 C 398.92078,214.03537 399.48236,214.83066 399.11808,215.18001 C 398.75379,215.52935 397.5961,215.3057 396.54545,214.68299 z "
       id="path2924"
       sodipodi:nodetypes="cssssssssssssssssssssssssssssssssssssssssscccssssssssssssscccssccsscccccsssssccsssssssssccscccssssssssssssccsssccssccssssssssssssssccssscccccssssccsssssssssssssssssssssssssssssssssssssssssssssssscccssssssssssssscccsssssscccssssssssssssssssssssssccsssssssssscccssssccscccsccccccccsccssssssssssssscccsscccssssssssssssscccccssssssccssccssccssccsssscccccssssccsssccsssccsssssccssccssssssssssssccsssccsscccssssccssccssccssccssccsssccssccsssccssssccssccsssc" />
    <path
       style="fill:#000000"
       d="M 513.26875,580.12432 C 512.06307,577.13436 516.57857,571.60217 521.489,570.05321 C 524.64933,569.05632 527.46873,566.56912 530.47626,562.12485 C 532.88654,558.56316 536.79528,553.13158 539.16236,550.05467 C 542.71843,545.43221 543.68792,542.57823 544.7426,533.6276 C 547.65028,508.95138 550.45608,470.73163 549.62437,467.12971 C 549.13346,465.00372 549.63524,459.97357 550.73942,455.95158 C 553.05917,447.50191 551.74021,445.18581 545.46212,446.68461 C 540.43594,447.88452 535.18954,445.12412 536.11291,441.76552 C 536.77597,439.35374 536.91312,439.38112 538.44559,442.23111 C 539.71457,444.59108 541.06238,445.18348 544.55453,444.91627 C 547.52589,444.68887 550.52342,445.61946 553.45306,447.67879 C 559.39648,451.8566 561.84244,452.53826 566.42672,451.29434 C 568.55994,450.7155 574.65735,450.66311 579.97653,451.17791 L 594.95106,449.00284 L 581.22386,452.30048 C 573.92794,452.46207 572.61057,452.88299 571.38555,455.44392 C 570.25881,457.7994 570.66974,459.60359 573.40597,464.31454 C 577.58992,471.51805 582.1061,477.77959 584.05478,479.07879 C 584.85127,479.60981 585.04074,480.05335 584.47581,480.06441 C 582.69586,480.09928 595.81847,498.62644 606.82952,511.62451 C 612.64636,518.49103 618.35202,525.41743 619.5088,527.01651 L 621.61202,529.92395 L 626.78233,525.87015 C 630.27085,523.13498 631.67564,521.12974 631.10106,519.70547 C 630.63268,518.54449 629.01583,513.14659 627.50804,507.71018 C 626.00027,502.27374 623.92484,496.05164 622.89598,493.88327 C 621.86712,491.7149 620.57301,487.87097 620.02019,485.3412 C 618.44665,478.14057 614.1001,471.00387 606.84279,463.70491 C 603.16994,460.01097 599.49893,455.32254 598.68497,453.28619 C 597.43513,450.15931 596.65331,449.71542 593.65605,450.43098 C 591.35715,450.9798 590.41987,450.79678 590.99514,449.9114 C 592.2725,447.94549 597.53999,448.22917 600.8626,450.44283 C 602.66409,451.64305 605.69848,452.11579 609.11425,451.72839 C 616.62751,450.87631 628.71228,447.45839 629.72552,445.89895 C 630.82391,444.20847 636.90255,444.22116 638.00393,445.91622 C 638.47356,446.63902 640.73568,447.23039 643.03086,447.23039 C 646.84483,447.23039 647.13908,446.91942 646.45058,443.61644 C 646.03625,441.62876 645.33648,437.63697 644.89552,434.74581 C 643.0455,422.61582 640.98971,411.25171 637.16915,392.03544 C 630.73535,359.6754 630.27164,357.79047 628.93751,358.57475 C 628.2422,358.9835 628.08285,358.30324 628.5833,357.06271 C 629.08625,355.81603 628.92473,355.13928 628.22208,355.54929 C 627.51581,355.96142 626.94653,353.42966 626.94083,349.85113 C 626.93517,346.30922 627.04649,339.00396 627.18819,339.00396 C 629.42067,339.00396 641.84306,401.72649 646.1791,432.56144 C 647.22081,439.96941 648.65201,445.2722 649.79029,445.94133 C 652.5186,447.54522 645.20301,449.0919 640.3962,447.92746 C 634.41875,446.47944 631.6423,446.78197 622.86349,449.83791 C 618.33565,451.41407 611.657,452.80277 608.02203,452.9239 C 604.1766,453.05204 601.40849,453.76475 601.4022,454.62833 C 601.39626,455.44462 604.50001,458.8034 608.29943,462.09229 C 612.09884,465.38116 615.21697,468.8529 615.22861,469.80727 C 615.24437,471.10049 615.62307,471.04037 616.71539,469.57121 C 618.01817,467.81899 618.11407,467.81899 617.57846,469.57121 C 617.24706,470.6554 618.49783,474.43443 620.35795,477.96904 C 623.69766,484.31519 630.61144,507.04769 629.51811,508.08766 C 627.93407,509.59437 634.93453,520.96895 639.47184,524.26081 C 645.42822,528.5822 647.82469,533.28322 649.16355,543.27247 C 649.68841,547.18842 650.69971,551.46568 651.41091,552.77747 C 653.99117,557.5368 653.8703,560.24865 651.07793,560.24865 C 649.37046,560.24865 647.41539,558.3716 645.60275,554.99199 C 644.0521,552.10081 642.44847,549.73532 642.03913,549.73532 C 641.62978,549.73532 641.67911,550.32669 642.14874,551.04949 C 642.61838,551.77227 642.49964,552.38223 641.88488,552.40494 C 641.27012,552.42767 639.62767,553.93438 638.23499,555.75321 C 636.17312,558.44599 636.02412,559.42838 637.43266,561.04273 C 638.84049,562.65625 638.79748,562.95032 637.20159,562.62258 C 635.82913,562.34073 635.10994,563.73232 634.80489,567.26011 C 634.39404,572.01137 633.91885,572.48725 626.51526,575.56153 C 622.19568,577.35519 616.90061,579.73242 614.74844,580.84423 C 611.03265,582.76383 610.7198,582.70973 608.54131,579.77072 C 605.34965,575.46481 605.56115,574.6762 611.2094,569.82242 C 615.55814,566.08537 616.41243,564.31393 617.92673,555.89336 C 620.41411,542.06176 620.52124,535.2438 618.33064,530.189 C 617.2739,527.75061 611.00969,519.39811 604.41014,511.62786 C 597.8106,503.85763 589.92409,493.59451 586.88456,488.82096 C 583.84503,484.0474 580.85515,480.12889 580.2404,480.11314 C 579.62564,480.09741 579.44871,479.58272 579.84722,478.96939 C 580.24573,478.35606 579.50527,476.72978 578.20175,475.35544 C 573.02273,469.895 568.11639,459.2999 569.07843,455.65391 C 569.94418,452.37287 569.75248,452.16918 566.52422,452.93987 C 564.6046,453.39815 561.06341,453.11969 558.6549,452.32105 C 556.24639,451.52242 553.86499,451.25974 553.36291,451.73731 C 552.86082,452.2149 552.36955,459.52761 552.27119,467.9878 C 552.17283,476.44799 551.64258,486.32682 551.09286,489.94077 C 549.21637,502.27714 549.01504,504.41122 548.14843,521.15221 L 547.28106,537.90783 L 554.00895,537.90783 C 559.92646,537.90783 560.76411,537.56361 560.96316,535.05002 C 561.21244,531.90235 562.55629,528.33076 568.29384,515.567 C 572.04384,507.22478 573.91409,502.77197 574.50349,500.78264 C 574.6641,500.24055 574.95095,499.50134 575.14092,499.13994 C 575.33089,498.77854 575.59913,498.03933 575.73702,497.49723 C 575.8749,496.95514 576.5305,494.44179 577.19391,491.91202 C 577.85731,489.38226 578.24401,485.98185 578.05324,484.35558 C 577.86246,482.7293 579.71438,477.76913 580.62533,477.76913 C 583.95818,477.76913 579.70671,494.05609 572.06235,512.31519 C 567.83363,522.41578 564.02583,532.54641 563.60058,534.82768 C 563.16569,537.16064 563.93625,542.66366 565.36166,547.40478 C 567.80413,555.52872 567.80683,556.22464 565.43623,566.61514 C 564.0834,572.5447 562.62443,578.26896 562.19407,579.33574 C 561.24502,581.68818 554.46511,581.94307 554.29813,579.63259 C 553.69235,571.2506 553.39909,569.35584 552.58815,568.58449 C 552.07417,568.09559 551.65364,568.68121 551.65364,569.88585 C 551.65364,571.09051 550.99522,572.07614 550.19049,572.07614 C 549.38577,572.07614 549.1116,572.66751 549.58123,573.39031 C 550.05086,574.11309 549.8285,574.70446 549.0871,574.70446 C 548.34569,574.70446 547.20651,576.22424 546.55557,578.08172 C 545.38425,581.42417 545.21045,581.46139 529.68494,581.69567 C 517.47093,581.87997 513.83641,581.53207 513.26875,580.12432 z M 630.05611,571.10078 C 630.29029,570.4325 627.98887,569.17525 624.94181,568.3069 C 620.25822,566.97215 618.87873,567.054 616.01898,568.83632 C 611.03383,571.94328 607.551,577.39478 609.73206,578.67697 C 611.58515,579.76634 629.33853,573.14842 630.05611,571.10078 z M 540.6008,577.68908 C 539.46098,577.27637 538.21753,576.57017 537.83759,576.11977 C 537.45765,575.66935 535.51561,574.31492 533.52194,573.10991 C 528.56943,570.1165 515.72178,571.49932 517.86332,574.79528 C 518.30051,575.46812 517.99979,576.01863 517.19506,576.01863 C 516.39033,576.01863 515.73192,576.61 515.73192,577.3328 C 515.73192,578.12614 521.07048,578.60584 529.20256,578.54322 C 536.61142,578.48615 541.74062,578.10179 540.6008,577.68908 z M 553.04071,566.16239 C 554.53039,566.16239 555.22624,567.92861 555.53226,572.48652 C 555.87351,577.56894 556.41029,578.72759 558.2661,578.38765 C 562.61778,577.59051 566.29105,555.61171 563.24627,548.5892 C 562.1895,546.15187 561.32487,543.04715 561.32487,541.68984 C 561.32487,539.91841 560.32716,539.22199 557.78932,539.22199 C 555.62206,539.22199 554.60862,539.76814 555.17069,540.63317 C 555.70395,541.45389 554.94751,541.36712 553.36283,540.42577 C 549.6243,538.20499 545.15511,539.80979 547.52239,542.52295 C 548.4609,543.59859 550.33608,544.47865 551.68946,544.47865 C 553.67083,544.47865 554.25143,545.8226 554.67005,551.37803 C 555.15235,557.77846 554.76234,558.83431 549.27698,565.97842 C 546.02484,570.21398 543.37853,574.94498 543.39628,576.49174 C 543.41905,578.47553 544.53997,577.36828 547.20116,572.73322 C 549.2761,569.11925 551.90389,566.16239 553.04071,566.16239 z M 541.45524,572.66497 C 541.00271,571.54323 541.22057,570.97119 541.93939,571.39377 C 542.65821,571.81634 544.14606,570.51646 545.24574,568.50514 C 546.34541,566.49383 548.59561,563.37483 550.24618,561.57403 C 552.43649,559.18435 553.03196,557.27615 552.45042,554.51039 C 552.01219,552.42619 551.65364,549.68105 551.65364,548.41008 C 551.65364,546.9866 550.32263,545.8572 548.18754,545.46899 C 545.20287,544.92628 543.94784,545.94069 539.15161,552.77252 C 536.08819,557.13609 533.89045,561.47144 534.26773,562.40661 C 534.64502,563.3418 534.26307,564.51296 533.41897,565.00918 C 532.42498,565.59353 532.27805,565.30529 533.00197,564.19115 C 533.74158,563.05285 533.58009,562.7881 532.52464,563.40857 C 529.82912,564.99318 530.70572,567.31845 535.40733,571.05516 C 540.49045,575.09509 542.66963,575.67513 541.45524,572.66497 z M 632.39146,563.20552 C 632.89321,560.49505 634.2504,555.48386 635.40745,552.06953 L 637.51115,545.86167 L 632.34631,539.98445 C 626.34953,533.16056 622.70699,533.45666 622.36843,540.79558 C 622.25832,543.18266 621.26785,549.5637 620.1674,554.97564 C 619.06696,560.38761 618.27794,564.89239 618.41403,564.9863 C 618.69646,565.18119 629.25587,567.79142 630.59674,567.99782 C 631.08209,568.07253 631.88971,565.91598 632.39146,563.20552 z M 647.75737,552.01034 C 646.567,550.28229 646.06153,548.37728 646.63411,547.77701 C 647.20669,547.17673 646.92232,547.09671 646.00218,547.59916 C 644.73769,548.28968 644.90636,549.59378 646.69298,552.94018 C 647.99307,555.37528 649.25136,556.86916 649.48922,556.25994 C 649.72706,555.65071 648.94773,553.73839 647.75737,552.01034 z M 644.86017,543.6831 C 647.09328,541.55897 646.94356,539.71728 643.93105,532.25409 C 642.98743,529.91635 641.73374,528.8311 640.49792,529.28217 C 639.42723,529.67298 638.87521,529.49409 639.27119,528.88464 C 639.66719,528.27519 638.52261,526.46426 636.72771,524.86034 L 633.46425,521.94414 L 629.69829,526.64056 C 627.50589,529.37465 624.73081,531.337 623.05678,531.337 C 620.87873,531.337 620.56917,531.70601 621.7806,532.8583 C 622.99202,534.01059 623.92929,533.94596 625.64463,532.59184 C 627.58796,531.05775 628.11114,531.14714 629.33175,533.22176 C 631.37772,536.69926 640.19438,545.79282 641.52002,545.79282 C 642.13721,545.79282 643.64027,544.84344 644.86017,543.6831 z M 535.31221,442.34697 C 535.31221,441.05753 539.97094,425.42269 542.57837,415.2077 C 545.1858,404.99272 548.34022,390.42557 549.5882,382.83627 C 552.54621,364.84776 555.19032,353.62705 559.24773,341.84456 C 561.93136,334.05145 562.19956,332.07555 560.68329,331.26841 C 559.65774,330.72249 559.13092,329.13998 559.51259,327.75172 C 560.39779,324.53195 556.2666,303.48495 553.54225,297.33484 C 551.32984,292.34042 551.43817,282.92282 553.72604,281.35706 C 554.63602,280.73431 554.58349,279.6063 553.57216,278.05264 C 552.72765,276.75527 552.34488,273.69633 552.72158,271.25504 C 553.20028,268.15262 552.93465,267.0937 551.83925,267.73764 C 549.80444,268.93384 549.87675,267.86577 552.35711,260.08868 C 555.5539,250.06521 560.18661,245.23705 568.92631,242.82036 C 573.04933,241.68027 577.84404,239.55926 579.58122,238.10701 L 582.73974,235.46654 L 578.96465,236.23443 C 576.88836,236.65678 572.75416,236.63191 569.77756,236.17916 C 564.54475,235.38324 564.2904,235.1012 562.09561,227.66084 C 560.84714,223.42852 559.26632,219.63689 558.58269,219.235 C 557.89905,218.83311 556.91882,215.70905 556.40441,212.29263 C 555.54942,206.61427 551.04902,199.55778 549.035,200.7376 C 548.57554,201.00675 548.02347,198.84498 547.80818,195.9337 C 547.41645,190.63672 554.84879,182.06396 557.69112,182.06396 C 558.47658,182.06396 553.60569,185.71158 552.42278,187.31799 C 549.4729,191.32395 549.72661,196.63751 553.04505,200.35019 L 555.81806,203.45264 L 555.63917,190.31099 C 555.36702,170.31891 558.17684,160.80237 566.35677,154.01173 C 575.16814,146.69691 601.04884,145.4368 612.22873,151.77826 C 615.4923,153.62941 619.70774,157.30703 621.59636,159.95071 C 625.9959,166.1092 628.50086,178.84853 626.42568,184.51085 C 625.2609,187.68905 625.34761,189.18933 626.81095,191.17655 C 628.44277,193.39259 628.3251,194.48992 625.94477,199.2539 C 622.44612,206.2561 618.19532,210.68056 614.96662,210.68056 C 613.57931,210.68056 612.44657,211.41978 612.44942,212.32327 C 612.45549,214.24971 622.25804,218.32629 629.61493,219.46186 L 634.74902,220.25434 L 633.89802,215.796 C 632.60658,209.03005 632.1958,196.13936 633.25186,195.51854 C 634.62168,194.71326 636.29988,177.25326 636.00057,166.92081 C 635.73319,157.69005 633.17254,149.42512 631.12767,151.19268 C 630.4866,151.7468 630.38872,151.49268 630.91015,150.62796 C 631.48416,149.67602 629.80977,147.73173 626.66612,145.69983 C 620.51337,141.723 609.43494,141.12155 602.359,144.38019 L 595.91708,148.49049 L 601.19906,143.72311 C 603.69675,141.66064 606.37697,141.02978 612.64168,141.02978 C 629.61567,141.02978 636.6559,147.41283 638.12172,164.13137 C 638.70547,170.78922 638.38803,178.23503 637.25562,184.44726 C 636.27247,189.84068 635.41691,200.37992 635.3544,207.86777 L 635.24072,221.48205 L 628.49338,220.72199 C 624.78234,220.30396 619.42024,218.80883 616.5776,217.39948 L 611.40916,214.83704 L 609.73737,217.80833 C 607.96818,220.95274 608.57495,232.59346 610.59625,234.28567 C 612.68507,236.03439 623.80793,239.71631 630.82686,240.98245 C 635.88828,241.89548 639.65211,243.80198 645.04511,248.18447 L 652.37972,254.14475 L 651.92636,267.56659 C 651.67702,274.9486 650.47915,284.83236 649.26445,289.53051 C 648.04974,294.22865 645.8384,303.69064 644.35034,310.55716 C 640.84644,326.7257 639.55058,330.58552 636.42875,334.15234 C 632.8065,338.29093 619.89825,346.49639 602.14738,355.9442 L 586.94518,364.0355 L 585.02993,371.49975 C 583.45675,377.63088 582.07052,379.77784 577.26832,383.52081 C 574.05282,386.02706 569.46097,388.45067 567.06421,388.90664 C 562.82119,389.71381 562.70647,389.61123 562.70647,385.00926 C 562.70647,382.40976 564.25614,376.94985 566.15018,372.87614 C 568.04422,368.80244 569.18798,364.7938 568.69188,363.96806 C 568.19578,363.14232 568.21133,362.82203 568.72643,363.25635 C 569.80148,364.16278 582.75445,352.46138 582.32942,350.96774 C 582.17515,350.42565 582.82609,350.12998 583.77595,350.31066 C 584.7258,350.49136 585.29571,349.75214 585.04242,348.66796 C 584.78912,347.58377 584.9971,347.09166 585.50458,347.57438 C 586.87001,348.87315 591.71976,344.49281 590.73709,342.84833 C 590.27425,342.07378 590.36927,341.84512 590.94827,342.34019 C 592.22161,343.429 598.51962,337.92335 597.65257,336.47936 C 597.31632,335.91937 597.60327,335.62368 598.29023,335.82228 C 598.9772,336.02089 602.34314,334.11358 605.77009,331.5838 L 612.00092,326.98422 L 588.76838,326.98422 L 565.53584,326.98422 L 564.56077,330.92672 C 564.02447,333.09509 563.44891,335.56936 563.28173,336.42509 C 563.11455,337.28081 561.11472,343.78593 558.83766,350.8809 C 556.5606,357.97589 554.28177,366.73774 553.77359,370.35169 C 552.9283,376.36305 546.12683,408.33675 541.37792,428.62367 C 539.39831,437.08036 535.31221,446.60932 535.31221,442.34697 z M 577.80365,380.20794 C 580.26185,378.02476 582.08378,374.41932 583.23422,369.46129 C 584.93379,362.13678 585.12233,361.92139 593.52386,357.7068 C 598.23095,355.34551 604.1028,352.51827 606.57242,351.42403 C 609.04204,350.32981 611.06264,348.96635 611.06264,348.39415 C 611.06264,347.82195 612.03191,347.35379 613.21658,347.35379 C 614.40125,347.35379 615.02284,346.81869 614.59789,346.16467 C 614.17294,345.51065 616.46771,343.47814 619.69738,341.64801 C 627.26628,337.35895 636.58284,329.56722 636.76159,327.37666 C 636.83817,326.43803 638.00976,323.30456 639.36508,320.4134 C 640.72043,317.52223 642.93901,309.24299 644.29529,302.01509 C 645.65157,294.78717 647.47393,285.42535 648.345,281.21104 C 649.21608,276.99674 650.03885,269.78075 650.17338,265.1755 C 650.40466,257.25803 650.15535,256.54268 645.59256,252.0319 C 639.61627,246.12371 637.77978,245.16611 626.58614,242.12126 L 617.63326,239.68595 L 618.52982,245.01911 C 619.02295,247.95234 620.99777,253.90346 622.91835,258.24379 C 624.83892,262.58414 630.70759,272.55613 630.404,273.74957 C 629.93779,275.58222 625.14047,270.06663 624.23918,267.84677 C 618.77658,254.39253 616.77619,248.73216 615.9956,244.52033 C 614.94407,238.84666 612.94854,238.15945 611.08234,242.82833 C 609.08567,247.82362 602.81177,256.6606 596.11926,263.90428 C 582.56332,278.57661 581.77103,279.2785 580.32144,277.89966 C 579.50409,277.12222 578.85398,269.25193 578.79199,259.38399 C 578.73268,249.94409 578.25693,242.22054 577.73476,242.22054 C 577.21259,242.22054 571.7213,252.06781 565.53189,264.10336 C 556.19213,282.2649 554.34893,286.8854 554.69304,291.27403 C 555.03004,295.57202 555.87341,296.96396 559.1984,298.70984 C 562.41204,300.39723 563.33135,301.82719 563.48593,305.37893 C 563.59415,307.86555 564.42478,313.2321 565.33178,317.30458 C 567.28413,326.07077 568.10481,326.39207 588.09346,326.21626 C 607.70192,326.04377 616.57997,324.65335 619.42707,321.30896 C 621.97177,318.31978 624.87868,317.49188 624.87868,319.75631 C 624.87868,320.4791 624.30137,321.07048 623.59577,321.07048 C 622.89015,321.07048 621.49128,321.82231 620.48716,322.74122 C 619.48302,323.66011 616.7963,325.77334 614.51665,327.43729 C 612.237,329.10123 601.86424,337.87935 591.46607,346.94422 C 573.1705,362.89386 572.41869,363.75997 568.17273,373.77908 C 565.75956,379.47338 564.15926,385.05968 564.6165,386.19307 C 565.35769,388.0303 565.91728,387.99565 569.77611,385.87357 C 572.15665,384.56445 575.76904,382.01491 577.80365,380.20794 z M 622.83619,320.87824 C 622.66842,320.15544 624.57972,314.84265 624.61427,314.45877 C 624.64881,314.07488 625.371,304.32122 626.21916,292.78398 C 627.06731,281.24672 628.40012,271.21175 629.18095,270.48405 C 630.14805,269.58272 630.37098,270.20827 629.88023,272.44636 C 629.48401,274.25332 628.77803,283.12395 628.31139,292.15883 C 627.55489,306.80599 623.65801,324.41882 622.83619,320.87824 z M 600.41745,304.33964 C 606.06723,303.78037 617.42797,298.7324 616.84565,297.04002 C 616.65025,296.47211 617.44515,295.09928 618.61213,293.98928 C 619.77908,292.87927 620.73387,290.5698 620.73387,288.85711 C 620.73387,287.14441 621.35559,285.37764 622.11547,284.93092 C 624.39406,283.59142 623.68092,288.33946 620.73375,294.13032 C 617.18782,301.09769 609.54033,305.38507 601.20329,305.07958 L 595.17418,304.85865 L 600.41745,304.33964 z M 563.47056,324.68443 C 563.03968,322.33537 562.28885,316.69826 561.80206,312.15754 C 561.31527,307.6168 560.32583,303.55413 559.60331,303.1294 C 558.19413,302.30098 558.96906,310.22953 561.45319,322.05611 C 563.01216,329.4781 564.76992,331.7682 563.47056,324.68443 z M 565.34628,260.31781 C 569.87861,251.47876 573.41563,244.08391 573.20633,243.88482 C 572.59108,243.29962 563.56177,246.42163 561.56929,247.90849 C 558.38163,250.28726 554.41685,259.03405 554.41685,263.68765 C 554.41685,268.40517 555.80469,276.38885 556.62477,276.38885 C 556.88927,276.38885 560.81395,269.15688 565.34628,260.31781 z M 592.41097,265.13494 C 594.69062,262.36515 597.86468,258.74349 599.46443,257.08682 C 601.06419,255.43015 604.36417,250.52138 606.79772,246.17843 C 610.92959,238.80465 611.07995,238.08878 609.07009,235.35936 C 607.88634,233.75181 606.91782,229.86669 606.91782,226.72573 L 606.91782,221.01491 L 602.58072,223.95245 C 600.19531,225.5681 595.17646,228.34382 591.42772,230.12071 C 587.18632,232.13113 584.06535,234.65414 583.16502,236.80036 C 581.82836,239.98671 581.15934,257.70238 581.96776,268.50385 C 582.28269,272.71177 582.41745,272.84446 583.55039,270.06215 C 584.2315,268.38941 585.40885,267.38536 586.16671,267.83087 C 587.02473,268.33527 586.70662,269.97866 585.32364,272.18634 C 583.1235,275.69845 583.12689,275.70564 585.6844,272.95136 C 587.10437,271.42212 590.13133,267.90473 592.41097,265.13494 z M 582.55908,230.11499 C 582.19957,229.56169 582.83751,229.4492 583.97672,229.86503 C 585.86636,230.55475 599.08152,224.64296 604.21216,220.81274 C 605.38364,219.93818 607.69983,217.10653 609.35925,214.52016 C 611.01867,211.93381 613.92063,209.14843 615.80805,208.33043 C 619.12043,206.89488 624.55484,198.60791 625.61379,193.37754 C 626.68947,188.06466 617.7102,189.4803 615.89872,194.90918 C 614.8607,198.02003 612.44424,198.4264 612.44424,195.4901 C 612.44424,194.36325 611.97795,193.71541 611.40804,194.05044 C 610.83813,194.38547 610.37183,191.86521 610.37183,188.44987 C 610.37183,174.92873 597.53622,159.31204 588.26616,161.5546 C 582.29517,162.99907 570.41111,162.19185 565.79448,160.392 C 559.64122,157.99307 565.82084,157.67693 572.64801,159.88168 C 577.43706,161.42824 579.89398,161.53684 584.37204,160.39993 C 592.84315,158.24922 601.20632,161.61789 605.63945,168.9664 C 610.41611,176.88434 613.65906,184.55677 613.74865,188.1518 C 613.80904,190.57503 614.35215,191.04319 616.24365,190.3025 C 617.57345,189.78177 619.68479,189.07424 620.93551,188.73021 C 623.78386,187.94676 625.39802,176.65437 623.65682,169.69241 C 619.43139,152.79746 599.90774,144.84144 577.80949,151.00926 C 570.93012,152.92935 568.19206,156.52999 566.22423,156.94072 C 564.08674,157.38686 563.66651,161.56361 562.40022,163.37059 C 560.1481,166.58433 557.28099,176.21031 557.21383,180.7833 C 557.19161,182.29648 558.2433,183.08922 560.28867,183.10102 C 565.82618,183.13298 569.50436,184.62523 570.35901,187.18655 C 570.81883,188.56458 571.66938,189.41323 572.24913,189.07241 C 572.82888,188.7316 572.86475,191.2009 572.32884,194.55977 C 571.21702,201.52823 566.13411,206.73806 560.44725,206.73806 C 557.23255,206.73806 557.03734,207.0713 557.94528,211.0091 C 558.48692,213.35817 560.09062,217.34119 561.50907,219.86026 C 562.92753,222.37933 564.0976,225.63189 564.10924,227.08816 C 564.14231,231.22801 566.10438,233.20711 571.16291,234.2031 C 575.8973,235.13525 583.94517,232.24827 582.55908,230.11499 z M 567.5805,223.86259 C 565.54051,221.71846 565.4043,220.88105 566.82978,219.24728 C 568.70007,217.10372 572.23998,216.76523 579.11303,218.07274 C 583.89584,218.98262 584.41478,220.06996 581.42393,222.91482 C 580.32029,223.96458 579.6455,225.04174 579.92439,225.30848 C 580.20328,225.57523 578.10074,225.94837 575.25206,226.13772 C 571.51193,226.38632 569.38013,225.75409 567.5805,223.86259 z M 576.84839,219.40492 C 571.62609,217.9803 567.99074,219.06453 569.06462,221.72641 C 570.20291,224.54796 573.94815,224.92286 577.80697,222.60153 L 581.16383,220.58217 L 576.84839,219.40492 z M 569.6145,213.30889 C 567.84342,212.22021 567.89364,212.03204 569.9599,212.01485 C 571.28969,212.00378 572.37771,212.5861 572.37771,213.30889 C 572.37771,214.91166 572.22188,214.91166 569.6145,213.30889 z M 575.14092,213.18586 C 575.14092,212.53073 576.38436,211.99472 577.90413,211.99472 C 579.42389,211.99472 580.66733,212.22144 580.66733,212.49854 C 580.66733,212.77564 579.42389,213.31164 577.90413,213.68967 C 576.38436,214.06769 575.14092,213.84099 575.14092,213.18586 z M 579.83796,207.04648 C 577.34274,205.4617 574.95899,200.26372 574.83568,196.13858 C 574.62355,189.04176 584.34162,182.24004 592.82295,183.54918 C 605.09745,185.44383 608.03028,197.55446 598.19992,205.75244 C 595.35616,208.12397 582.91496,209.00076 579.83796,207.04648 z M 597.81595,203.20976 C 600.8333,200.33969 601.4484,198.68476 601.11297,194.33913 L 600.7006,188.99682 L 591.09174,189.37555 C 585.80686,189.58386 581.80342,189.44939 582.1952,189.07673 C 582.99683,188.31424 588.24073,187.29097 592.41097,187.08327 C 594.91845,186.95839 594.95516,186.82421 592.80764,185.63343 C 589.56315,183.83441 581.56538,187.12853 578.55009,191.50581 C 575.94506,195.28752 576.66344,200.60173 580.29831,204.43827 C 583.83898,208.1754 593.29249,207.51241 597.81595,203.20976 z M 583.54174,197.47674 C 578.33447,195.40162 582.16903,193.06468 590.46495,193.25745 C 598.38956,193.44161 598.91975,193.64966 597.40508,195.98082 C 595.95028,198.21983 587.6531,199.11512 583.54174,197.47674 z M 564.16461,204.07077 C 565.62655,203.32655 567.82454,200.87485 569.04902,198.62255 C 571.17021,194.72085 571.15457,194.57629 568.71792,195.56195 C 567.31133,196.13093 564.51144,196.86715 562.49594,197.19802 C 557.23994,198.0608 556.17029,204.15476 561.0703,205.32015 C 561.31022,205.37721 562.70266,204.81498 564.16461,204.07077 z M 568.23289,190.82748 C 568.23289,190.02735 567.26802,189.72488 566.08873,190.15534 C 564.8592,190.60412 564.30463,190.3838 564.78866,189.63885 C 565.27388,188.89208 563.8543,188.33975 561.44977,188.33975 C 558.29918,188.33975 557.46306,188.82626 558.06204,190.31099 C 558.99051,192.61245 568.23289,193.08178 568.23289,190.82748 z M 567.42984,187.05021 C 565.36055,185.08193 557.18006,183.81899 557.18006,185.46781 C 557.18006,186.23732 559.51151,187.09889 562.36107,187.38241 C 565.21063,187.66594 567.82187,187.99733 568.16381,188.11882 C 568.50576,188.24033 568.17547,187.75946 567.42984,187.05021 z "
       id="path2984"
       sodipodi:nodetypes="csssssssssssscccssssscccsssssssssssssssssssssssssssssssssssssssssssssssssssssssssssssscccsssssssssssssssssssssccsssccssssssccsssssssssssssccsssssssssssscccccssssccssssccssscccsssssccsssssssssssscccsssssssscccsssssssscccssssscccsssccccccsscccssscccsssssssssssssscccccssssccssssssssssssscccssssssssssssssssssssssssccsssssccsssssccccsssccssssccssscccsssssssccsssssssssssssssssssssssssssssssccsssssccsccccssccsssccssscccccsssssccssccssssccssssccsssc" />
  </g>
</svg>
