<?xml version="1.0" encoding="UTF-8" standalone="no"?>
<!-- Created with Inkscape (http://www.inkscape.org/) -->
<svg
   xmlns:dc="http://purl.org/dc/elements/1.1/"
   xmlns:cc="http://web.resource.org/cc/"
   xmlns:rdf="http://www.w3.org/1999/02/22-rdf-syntax-ns#"
   xmlns:svg="http://www.w3.org/2000/svg"
   xmlns="http://www.w3.org/2000/svg"
   xmlns:sodipodi="http://sodipodi.sourceforge.net/DTD/sodipodi-0.dtd"
   xmlns:inkscape="http://www.inkscape.org/namespaces/inkscape"
   width="210mm"
   height="297mm"
   id="svg2"
   sodipodi:version="0.32"
   inkscape:version="0.45.1"
   sodipodi:docbase="/home/rover/herobot/arte"
   sodipodi:docname="robot-3.svg"
   inkscape:output_extension="org.inkscape.output.svg.inkscape">
  <defs
     id="defs4" />
  <sodipodi:namedview
     id="base"
     pagecolor="#ffffff"
     bordercolor="#666666"
     borderopacity="1.0"
     inkscape:pageopacity="0.0"
     inkscape:pageshadow="2"
     inkscape:zoom="0.71195698"
     inkscape:cx="149.47908"
     inkscape:cy="643.41209"
     inkscape:document-units="px"
     inkscape:current-layer="layer1"
     inkscape:window-width="873"
     inkscape:window-height="706"
     inkscape:window-x="0"
     inkscape:window-y="0" />
  <metadata
     id="metadata7">
    <rdf:RDF>
      <cc:Work
         rdf:about="">
        <dc:format>image/svg+xml</dc:format>
        <dc:type
           rdf:resource="http://purl.org/dc/dcmitype/StillImage" />
      </cc:Work>
    </rdf:RDF>
  </metadata>
  <g
     inkscape:label="Capa 1"
     inkscape:groupmode="layer"
     id="layer1">
    <path
       style="fill:#000000"
       d="M 151.04373,708.90529 C 140.21664,704.19198 138.07171,691.05738 146.39967,680.46708 C 149.80652,676.13473 151.2605,671.37448 151.2605,664.55302 C 151.2605,653.9605 151.66715,653.61877 177.91838,642.15115 C 183.20671,639.841 186.35861,637.23819 185.51694,635.87633 C 184.71087,634.57209 185.08089,634.16858 186.35876,634.95834 C 188.98217,636.5797 219.99887,622.3928 223.77302,617.84524 C 225.15711,616.1775 225.83955,612.13064 225.28955,608.85219 C 223.23036,596.57771 211.68816,555.33535 210.11718,554.63858 C 209.21863,554.24004 208.93072,553.19027 209.47739,552.30573 C 210.02406,551.42121 208.59122,544.45601 206.29329,536.82755 C 202.36896,523.79985 201.544,522.72401 192.7079,519.11077 C 179.49786,513.70891 173.01854,504.22896 173.01854,490.30313 L 173.01854,479.24952 L 162.13952,476.47582 C 145.17648,472.15097 138.5286,467.08786 130.98161,452.74552 C 126.79461,444.78854 121.16601,423.92568 121.56341,417.83626 C 121.70261,415.70341 119.59563,413.6998 116.35941,412.88756 C 105.69363,410.21062 95.005447,394.41547 103.85982,394.41547 C 105.71225,394.41547 106.61041,395.41456 105.85573,396.63564 C 105.10105,397.85673 107.57691,401.7454 111.35763,405.27713 C 116.57621,410.15201 120.28433,411.69845 126.75493,411.69845 C 134.43874,411.69845 135.58649,410.96057 138.40851,404.20654 C 142.19309,395.14877 142.32213,389.96988 139.0365,379.00342 C 136.4367,370.32607 133.53901,369.09102 122.63557,372.01303 C 116.28013,373.71622 116.48924,375.85324 123.3157,378.96358 C 127.70622,380.96404 128.55518,382.49381 127.40458,386.33155 C 124.534,395.9063 121.22167,397.49759 110.44345,394.47987 C 98.922247,391.25413 89.718977,392.91488 89.621187,398.23728 C 89.561037,401.51111 89.224767,401.57324 86.920727,398.73622 C 85.473257,396.95391 81.488957,394.04845 78.066717,392.27962 C 70.875407,388.56272 66.869047,381.26 68.989577,375.73397 C 70.283227,372.36278 71.244247,372.73762 76.944387,378.83676 C 84.561827,386.98742 88.233127,387.50403 92.746437,381.06037 C 97.420707,374.38691 93.515297,370.65138 81.864067,370.65138 C 75.544607,370.65138 72.406917,369.71958 72.406917,367.84289 C 72.406917,356.30486 94.982777,357.59505 106.27389,369.77836 C 110.97523,374.85119 111.62158,374.98742 116.10135,371.84966 C 118.73868,370.0024 122.62452,368.49101 124.73655,368.49101 C 126.84858,368.49101 128.5766,367.64242 128.5766,366.60526 C 128.5766,362.57703 143.23428,336.50354 144.04529,338.90921 C 144.51788,340.31101 137.80681,352.31231 135.56947,356.67334 L 131.50157,364.6025 L 137.26606,370.36699 C 145.27638,378.37731 146.86119,389.12074 142.13458,403.37071 C 138.86198,413.23707 137.34593,415.13726 131.81716,416.30246 C 128.25254,417.05371 126.79429,417.79826 128.5766,417.95705 C 131.23156,418.19356 131.28668,418.58185 128.88164,420.10569 C 123.69822,423.38995 130.93997,450.80933 139.82034,461.52283 C 144.35854,466.99782 154.63401,471.74132 169.62367,475.28103 C 182.84817,478.40389 218.21806,482.88375 230.11409,482.94255 L 235.51502,482.96928 L 229.77751,478.11915 C 221.42228,471.05621 219.09389,465.06608 217.73871,447.14748 C 217.0395,437.90231 215.51928,431.02404 214.13956,430.863 C 212.82581,430.70968 207.31518,430.78559 201.89371,431.03173 C 188.14809,431.65577 185.9456,428.36308 186.59076,408.15416 C 186.8742,399.27583 188.00016,389.87912 189.09289,387.27259 C 192.14061,380.00274 198.06716,373.53059 199.12485,376.31708 C 200.15947,379.04275 218.86055,377.7743 222.74338,374.71509 C 224.03642,373.69633 226.34775,367.26135 227.87967,360.41514 C 229.41159,353.56892 231.18653,346.60786 231.82399,344.94611 C 233.00798,341.85964 231.47217,341.92387 206.22989,346.01652 C 192.10054,348.30737 189.93034,337.35806 202.83752,328.90095 C 205.75498,326.98936 214.76276,324.36765 222.85482,323.07494 C 236.90665,320.83015 240.8096,318.65279 240.88286,313.01752 C 240.92381,309.8684 221.89207,311.29038 203.14271,315.83731 C 191.3205,318.70433 189.9864,318.66181 187.55792,315.34067 C 186.09722,313.34303 184.57356,310.723 184.17201,309.51837 C 183.2412,306.72592 159.09634,324.21359 151.63387,333.08514 C 148.52427,336.7819 146.68207,340.58339 147.54009,341.5329 C 148.39811,342.4824 147.96796,342.61126 146.58418,341.81926 C 145.20041,341.02725 143.57587,341.60052 142.97409,343.09317 C 142.2354,344.92541 141.82453,344.72794 141.70938,342.48533 C 141.43209,337.08463 164.77738,316.37346 184.08571,304.89047 C 184.3165,304.75321 185.5449,296.27509 186.81549,286.05019 C 190.54001,256.07771 202.15745,227.42971 216.75748,212.21479 C 227.07922,201.45834 246.38439,191.65529 254.87043,192.86124 C 269.05136,194.87651 282.11867,202.74745 295.77935,217.50225 C 317.50913,240.97241 329.85838,268.82983 329.84637,294.3505 C 329.84196,303.69948 330.64281,305.42034 337.70703,311.24115 C 342.03311,314.80576 346.5721,317.39821 347.79368,317.00214 C 349.01526,316.60607 349.3456,316.95113 348.5278,317.76895 C 347.70999,318.58676 352.3509,326.20208 358.84096,334.69187 C 365.331,343.18165 371.41955,353.04435 372.37107,356.60896 C 374.03885,362.85685 374.4918,363.06453 384.95791,362.38028 C 396.49566,361.62597 404.34421,366.04643 402.05572,372.01012 C 401.34373,373.86552 402.42163,374.97212 404.9409,374.97212 C 409.94791,374.97212 411.31296,378.35599 409.96841,387.43505 C 408.67742,396.1526 400.40006,403.05696 391.23993,403.05696 L 384.43944,403.05696 L 385.27402,417.82682 C 385.9398,429.60942 385.21119,434.35576 381.67155,441.29401 C 373.74275,456.83575 348.20223,476.50961 335.95478,476.50961 C 332.22373,476.50961 331.54984,477.33027 332.85026,480.29026 C 339.72737,495.94384 334.49285,508.85274 317.66463,517.73973 C 306.89967,523.42473 307.23498,522.6854 300.60091,555.36319 C 298.67114,564.86883 295.29137,581.43588 293.09034,592.17889 L 289.08846,611.7116 L 299.82966,617.70864 C 307.30275,621.88101 317.88609,624.92424 334.61355,627.71068 C 366.21003,632.97398 390.39689,638.50825 393.81105,641.25581 C 395.32314,642.47266 396.00428,645.22007 395.32474,647.36115 C 394.64519,649.50223 396.185,655.36213 398.74653,660.38316 C 402.5387,667.81642 403.06015,671.11317 401.55357,678.13021 C 399.83944,686.11397 398.86438,687.03275 388.30286,690.61599 C 380.77429,693.17022 377.36967,693.60463 378.27819,691.89504 C 379.03486,690.47122 377.35988,691.88815 374.55602,695.04378 C 363.34136,707.66541 352.62561,708.70003 341.52707,698.23275 C 332.39502,689.62012 332.06688,685.96894 339.28944,673.33405 C 342.27345,668.11394 344.1514,663.27944 343.46265,662.59071 C 342.77393,661.90199 338.61947,661.14536 334.23052,660.90934 C 329.84159,660.67332 309.7238,658.80403 289.52432,656.75538 L 260.3181,654.286 L 229.35408,660.64322 C 216.45993,664.8302 206.98129,668.9179 208.29045,669.72701 C 212.4319,672.28655 210.88014,683.42096 205.51226,689.66147 C 201.28384,694.57731 198.55854,695.67018 190.39654,695.72298 C 183.72145,695.76614 180.43703,696.70988 180.43241,698.58603 C 180.42863,700.1253 178.0393,703.77093 175.1228,706.68743 C 169.16194,712.64829 161.30442,713.37203 151.04373,708.90529 z M 174.01835,704.21123 C 179.46954,699.52586 178.94699,689.3679 172.88411,682.16258 C 166.17261,674.18642 165.99675,669.31014 172.32413,666.63499 C 182.13059,662.48892 241.77258,652.63691 257.50063,652.61386 C 277.90008,652.58396 335.09499,655.61323 342.99353,657.16042 C 347.41358,658.02624 348.93455,659.59521 348.93455,663.28892 C 348.93455,666.01955 347.67827,669.29629 346.14281,670.57061 C 344.60737,671.84493 343.11094,676.45322 342.81746,680.81125 C 342.52395,685.16928 342.07893,689.79846 341.82853,691.09831 C 341.57812,692.39817 343.80367,693.72349 346.77418,694.04344 C 349.74469,694.36341 355.63175,695.21404 359.85651,695.93372 C 368.61327,697.4254 371.77383,694.90046 373.64482,684.91842 C 375.15494,676.86159 370.99368,665.98533 366.98895,667.52209 C 365.06722,668.25953 364.047,666.99582 364.02767,663.8541 C 363.9769,655.6074 361.63585,649.78118 357.91641,648.64489 C 348.33055,645.71641 307.4594,626.62588 295.84146,619.65023 C 283.16228,612.0374 282.80627,611.58104 285.38829,606.25 C 286.85846,603.21455 289.59116,591.9815 291.46096,581.28766 C 293.33076,570.59382 296.81378,553.17011 299.20101,542.56832 C 301.58822,531.96654 303.2494,523.00034 302.89251,522.64345 C 302.53561,522.28656 298.4096,523.06557 293.72358,524.3746 C 285.24408,526.74336 224.71436,525.55509 212.60438,522.78215 C 207.04223,521.50854 206.99486,521.60265 208.53519,530.86706 C 210.39018,542.02408 220.43833,579.88452 224.78363,592.08952 C 226.47576,596.84234 228.1243,605.53827 228.44706,611.41381 L 229.0339,622.09663 L 214.99148,627.9932 C 187.49308,639.54013 184.69621,641.02949 186.13597,643.35908 C 186.93938,644.65902 186.57255,645.06716 185.30492,644.28372 C 182.34488,642.4543 171.36448,648.14889 173.43701,650.43856 C 174.31018,651.40321 173.91266,651.55698 172.55364,650.78026 C 171.19461,650.00356 166.50557,650.86268 162.13354,652.68943 C 154.75462,655.77254 154.22684,656.59864 154.77608,664.20555 C 155.19633,670.026 153.99033,674.15145 150.61367,678.44417 C 144.73264,685.92068 144.22912,699.0729 149.64023,703.871 C 156.39787,709.86311 167.26619,710.01479 174.01835,704.21123 z M 204.03282,686.85454 C 209.33213,680.11755 209.7468,674.65868 205.24317,670.921 C 202.95095,669.01862 202.63402,667.41655 204.18112,665.55241 C 205.92191,663.45488 203.80992,663.41146 194.15163,665.34622 C 187.42258,666.69419 180.95736,669.31839 179.78448,671.1778 C 176.69288,676.079 179.81379,689.89907 184.27691,691.07124 C 193.93357,693.60746 199.68693,692.37946 204.03282,686.85454 z M 395.92264,682.38314 C 399.84666,677.11662 399.24056,668.73866 394.22943,658.97775 C 391.8129,654.27075 390.32644,648.41843 390.92616,645.97259 C 391.93386,641.86294 390.06469,641.14954 366.2845,636.56776 C 352.13186,633.84094 339.49671,631.9618 338.20638,632.39191 C 335.89437,633.16258 342.22953,636.79453 358.11613,643.80615 C 365.84975,647.21941 367.19177,649.10131 366.35927,655.36539 C 366.15568,656.8974 368.95699,661.89812 372.58442,666.47813 C 376.859,671.87524 379.17976,677.26167 379.17976,681.78579 C 379.17976,688.50377 379.44369,688.71432 386.20097,687.38684 C 390.06263,686.6282 394.43739,684.37653 395.92264,682.38314 z M 176.16585,670.9431 C 178.73319,666.00276 178.66603,665.79502 175.37829,668.50715 C 173.40145,670.13791 171.78404,672.9734 171.78404,674.80824 C 171.78404,678.73083 172.40212,678.18564 176.16585,670.9431 z M 300.32618,519.58873 C 303.89079,518.08999 307.99887,517.05686 309.45524,517.29286 C 315.42068,518.25956 325.51653,510.47885 329.83783,501.58432 C 333.9151,493.19205 334.05771,491.66592 331.29274,486.0151 C 329.22936,481.79818 326.84485,479.94238 323.99839,480.33811 C 321.67251,480.6615 311.99219,481.519 302.48655,482.24369 C 292.98091,482.96839 284.03328,484.48685 282.60292,485.61809 C 280.15064,487.5575 214.42978,486.2689 208.0509,484.15631 C 201.1488,481.87047 178.39444,481.03378 177.16645,483.02069 C 176.43226,484.20864 177.83737,487.99748 180.28892,491.44035 C 182.74046,494.88325 184.74627,498.33656 184.74627,499.11443 C 184.74627,501.93129 180.07749,497.55907 178.2507,493.03142 C 176.40373,488.45379 176.37683,488.45954 176.24172,493.45926 C 176.0415,500.86861 182.51235,510.54835 190.0599,514.1299 C 195.74739,516.82879 211.01432,519.3882 240.91595,522.65563 C 255.5866,524.25874 293.92625,522.27954 300.32618,519.58873 z M 330.48566,475.379 C 359.23935,468.9819 383.44898,445.35519 382.45525,424.66068 C 381.54926,405.79318 381.51726,405.70175 375.0299,403.44025 C 369.30649,401.44506 367.91789,402.00319 360.09819,409.4419 C 350.23676,418.82284 331.65157,426.56297 331.65157,421.28899 C 331.65157,419.57882 330.75869,418.17956 329.6674,418.17956 C 328.57611,418.17956 325.54669,414.72258 322.93538,410.49737 C 316.5536,400.17146 317.58295,379.43757 324.83726,372.18774 C 330.61189,366.41669 347.81509,365.78627 355.75011,371.05493 C 360.20353,374.01188 361.33003,374.02754 365.65659,371.19267 C 368.78126,369.14531 370.53827,365.83944 370.53827,362.00761 C 370.53827,354.57872 357.0536,334.0495 342.38689,319.14963 C 331.78429,308.37845 326.32973,305.60292 324.7976,310.19936 C 324.3945,311.40868 317.99156,314.23691 310.56887,316.48432 C 303.14618,318.73173 297.61936,319.68662 298.28702,318.6063 C 298.95471,317.52598 297.25314,316.64208 294.50577,316.64208 C 291.75842,316.64208 283.19458,314.85069 275.47503,312.66121 C 257.95305,307.69151 247.12581,308.66563 243.89953,315.50205 C 241.60889,320.35589 241.8703,320.51254 253.68713,321.36729 C 272.79444,322.74939 287.20734,336.29128 275.9712,342.30468 C 273.51546,343.61894 266.16825,343.49493 255.50898,341.95931 C 238.20608,339.46657 236.27328,339.88626 235.61618,346.27882 C 235.39857,348.39578 234.00084,353.04435 232.51011,356.60896 C 231.01939,360.17357 229.26283,365.76354 228.60666,369.0311 L 227.41362,374.97212 L 244.70212,374.97212 C 256.6722,374.97212 262.74332,375.87907 264.43742,377.92034 C 267.87374,382.06084 267.14224,418.00544 263.50325,423.82369 C 260.98762,427.84585 258.3946,428.43729 241.65918,428.80615 C 231.2149,429.03634 222.19014,429.70413 221.60414,430.29014 C 219.80201,432.09225 221.22064,458.28264 223.43599,464.10946 C 226.64136,472.54025 236.62555,480.58209 246.25033,482.48548 C 256.93204,484.59787 308.66634,480.23334 330.48566,475.379 z M 255.65394,424.81022 L 261.43948,423.25624 L 261.2901,402.18363 C 261.17856,386.45035 260.35747,380.58016 258.04954,379.016 C 255.03536,376.97318 233.58373,377.66866 207.7405,380.64704 L 195.08859,382.10515 L 196.29988,389.88059 C 197.37925,396.80919 197.18979,397.22776 194.56033,393.72374 C 191.94555,390.2393 191.52622,391.34647 190.87835,403.44542 C 189.51578,428.89106 187.18487,427.07457 220.71152,426.69463 C 236.7478,426.5129 252.47189,425.66493 255.65394,424.81022 z M 212.7206,411.58795 C 205.96468,404.83201 211.61416,392.2551 221.40481,392.2551 C 227.32139,392.2551 234.43483,398.74183 234.43483,404.13715 C 234.43483,409.68857 227.27259,416.01919 220.9919,416.01919 C 218.87987,416.01919 215.15779,414.02513 212.7206,411.58795 z M 227.84347,406.50351 C 231.28962,400.06433 229.65302,397.11594 222.63259,397.11594 C 215.19639,397.11594 211.84977,401.50737 214.91757,407.23961 C 218.12648,413.23551 224.43282,412.87637 227.84347,406.50351 z M 351.93269,412.31878 C 358.88261,406.48353 364.05716,401.20388 364.05716,399.94805 C 364.05716,399.32701 359.88775,399.39035 354.79179,400.08882 C 338.05889,402.38234 334.54252,388.63369 349.69323,380.15396 C 358.74672,375.08679 358.46858,374.40587 345.94462,370.97684 C 323.35991,364.79319 312.81019,392.67177 329.85224,413.5024 C 334.16463,418.77347 335.79268,419.40921 341.13083,417.90639 C 344.56213,416.9404 349.42297,414.42598 351.93269,412.31878 z M 400.31617,397.11594 C 405.51435,392.57946 407.86198,383.72679 405.04741,379.27492 C 403.32736,376.55425 403.00486,376.65301 402.97693,379.90897 C 402.86822,392.583 388.84775,398.63816 379.58712,390.01056 C 373.38545,384.23282 373.60289,382.37701 381.39451,374.58539 C 386.40091,369.57898 389.16744,368.36048 393.219,369.37735 C 397.35644,370.41578 398.23502,369.99343 397.25423,367.43754 C 394.70281,360.7886 377.57659,365.03261 365.13734,375.39635 C 361.57273,378.3662 356.01083,381.4415 352.77755,382.23035 C 345.3043,384.05368 341.06419,391.21864 344.79683,395.71619 C 346.74374,398.06207 349.86224,398.53787 356.6344,397.52232 C 361.90687,396.73167 367.52429,397.12924 369.80377,398.45437 C 376.35226,402.26123 395.37663,401.4267 400.31617,397.11594 z M 122.09548,386.9578 C 122.09548,382.73953 119.21947,379.85578 113.45399,378.29307 C 106.32278,376.36017 102.48565,373.95963 99.678037,369.67468 C 95.456187,363.23131 85.163927,360.75179 78.474657,364.56653 C 73.751517,367.26003 74.048127,367.46808 84.069637,368.49101 C 95.937047,369.70234 101.04148,374.51352 97.095767,380.76877 C 92.892327,387.43261 88.154437,389.1175 81.103367,386.45601 C 77.508527,385.09913 74.567297,384.84245 74.567297,385.88563 C 74.567297,389.15624 82.432957,392.16432 87.794727,390.94425 C 95.253987,389.24689 107.83326,389.74708 113.73658,391.97581 C 120.21053,394.41994 122.09548,393.28838 122.09548,386.9578 z M 397.33097,385.2866 C 399.93281,377.95794 397.66758,372.81175 391.83982,372.81175 C 386.47285,372.81175 379.17976,378.53444 379.17976,382.74575 C 379.17976,386.46545 387.26093,391.95355 391.77369,391.29855 C 393.75856,391.01047 396.25934,388.30507 397.33097,385.2866 z M 211.71104,335.54533 C 213.23525,331.08956 213.86777,327.44757 213.11663,327.45201 C 209.6146,327.47272 197.7085,336.34516 197.7085,338.93417 C 197.7085,348.39075 208.18418,345.85547 211.71104,335.54533 z M 228.27311,332.30477 L 232.69876,325.28356 L 226.78375,325.28356 C 220.42037,325.28356 215.17112,330.42922 215.06019,336.77577 C 214.94973,343.09566 223.23947,340.29057 228.27311,332.30477 z M 275.4819,338.19682 C 278.22661,336.38157 277.89605,335.41285 273.32153,331.86591 C 268.33777,328.00165 267.80718,327.96116 266.45217,331.34171 C 262.97009,340.02894 267.50552,343.4721 275.4819,338.19682 z M 246.52307,330.59914 L 249.19872,324.03268 L 242.06928,324.865 C 237.0646,325.44927 234.22076,327.27557 232.52697,330.99303 C 229.2926,338.09169 229.17411,337.9181 236.98075,337.51775 C 242.44882,337.23733 244.3924,335.82815 246.52307,330.59914 z M 261.32487,332.53238 C 263.30174,324.65588 259.79744,321.79678 254.12234,326.65596 C 247.81186,332.05916 248.13311,338.2458 254.72416,338.2458 C 258.50897,338.2458 260.27443,336.71765 261.32487,332.53238 z M 217.15185,310.12153 C 236.47392,306.8027 271.07172,306.82824 282.78445,310.17 C 292.90629,313.05785 293.48445,312.98432 297.25344,308.32981 C 300.35696,304.49714 300.92873,301.12653 299.98303,292.23875 C 298.17462,275.24339 287.80388,246.79937 278.434,233.13586 C 269.21135,219.68707 253.07706,205.04968 248.50116,205.98011 C 246.88578,206.30858 244.94258,204.61904 244.18292,202.2256 C 242.81211,197.90654 242.74085,197.90494 234.69027,202.01204 C 224.46497,207.2286 212.34835,220.54336 205.64424,233.93028 C 199.87518,245.45006 192.94557,265.41277 193.70908,268.3129 C 193.98147,269.34755 193.10382,276.99925 191.75874,285.31668 C 190.41367,293.63411 189.31946,303.71602 189.32717,307.72092 C 189.34105,314.92784 189.4229,314.98798 197.3055,313.58249 C 201.68587,312.80146 210.61673,311.24403 217.15185,310.12153 z M 199.56305,289.69166 C 197.49642,287.62503 206.07694,249.45706 210.19226,242.41065 C 214.82949,234.47063 221.04439,232.6485 245.74412,231.98727 C 260.10972,231.60269 265.39221,232.24346 267.565,234.63417 C 272.04464,239.56311 281.81892,263.32332 283.85892,274.2429 C 286.65856,289.22863 284.32789,290.0699 238.66307,290.55652 C 217.85547,290.77826 200.26046,290.38907 199.56305,289.69166 z M 277.56512,283.07101 C 280.33932,280.30394 276.02029,279.91575 242.45907,279.91575 C 204.72138,279.91575 204.18962,279.98039 204.18962,284.5678 C 204.18962,289.20085 204.33308,289.21374 239.29567,287.72307 C 265.63695,286.59997 275.1915,285.43852 277.56512,283.07101 z M 279.80264,273.43463 C 279.80264,269.27849 278.36239,269.11389 241.99613,269.11389 C 205.62987,269.11389 204.18962,269.27849 204.18962,273.43463 C 204.18962,277.59078 205.62987,277.75538 241.99613,277.75538 C 278.36239,277.75538 279.80264,277.59078 279.80264,273.43463 z M 276.79322,263.53627 C 276.07198,261.65678 275.4819,259.2891 275.4819,258.27474 C 275.4819,257.26039 265.51718,256.72693 253.33809,257.08926 C 241.15899,257.4516 225.60431,257.87495 218.77213,258.03004 C 207.88423,258.2772 206.34999,258.84568 206.34999,262.63277 C 206.34999,266.78007 207.79024,266.95352 242.22727,266.95352 C 274.05508,266.95352 277.95654,266.56781 276.79322,263.53627 z M 273.28845,252.26275 C 273.15077,245.96993 268.97216,245.13383 240.17776,245.63766 C 223.9489,245.92163 210.67074,246.86568 210.67074,247.73556 C 210.67074,248.60544 210.17224,250.61188 209.56296,252.19431 C 208.66408,254.52894 214.57099,254.94921 240.88836,254.42312 C 258.7266,254.06653 273.30664,253.09436 273.28845,252.26275 z M 269.00078,241.29358 C 269.00078,235.73795 261.8673,234.1187 240.96534,234.92973 C 224.18773,235.58074 218.49162,236.60304 215.61524,239.47942 C 212.10881,242.98585 213.47173,243.18942 240.45301,243.18942 C 256.15428,243.18942 269.00078,242.33629 269.00078,241.29358 z M 316.54079,309.63051 C 327.796,303.15283 329.28167,294.71285 323.12016,272.25391 C 318.12907,254.06122 307.39572,233.12753 303.53768,234.06137 C 302.18881,234.38786 301.64889,233.74292 302.33785,232.62818 C 304.41697,229.26407 283.11162,207.77494 271.3509,201.37395 C 264.39884,197.59017 257.91529,195.63694 253.72738,196.0647 L 247.10208,196.74142 L 258.65749,206.36782 C 269.10152,215.06837 275.5018,222.90553 286.85526,240.89615 C 294.65855,253.2612 302.02194,278.57966 303.07268,296.65863 C 303.64241,306.46132 305.00926,314.4817 306.1101,314.4817 C 307.21096,314.4817 311.90476,312.29867 316.54079,309.63051 z "
       id="path3069"
       sodipodi:nodetypes="cssssssssssscccsssssssssssssssssssssssssscccsssssscccsssssssssssssssssssssssssssssssssssscccssssscccsssssssssssscccsssssccssssssssssssssssssssssscccssssssssccsssssccsssssssssccssccssssssssssssssccsssssssssssssssssssssscccssssssccccscccsssccsssccssccssssssccsssssssssssccsssssssssccsssccssccccsccssccccssccssccssssssssssssccsssssccsssccsssccsssssccssssccsssccsssscccsssc" />
  </g>
</svg>
