<?xml version="1.0" encoding="UTF-8" standalone="no"?>
<!-- Created with Inkscape (http://www.inkscape.org/) -->
<svg
   xmlns:dc="http://purl.org/dc/elements/1.1/"
   xmlns:cc="http://web.resource.org/cc/"
   xmlns:rdf="http://www.w3.org/1999/02/22-rdf-syntax-ns#"
   xmlns:svg="http://www.w3.org/2000/svg"
   xmlns="http://www.w3.org/2000/svg"
   xmlns:sodipodi="http://sodipodi.sourceforge.net/DTD/sodipodi-0.dtd"
   xmlns:inkscape="http://www.inkscape.org/namespaces/inkscape"
   width="210mm"
   height="297mm"
   id="svg2"
   sodipodi:version="0.32"
   inkscape:version="0.45.1"
   sodipodi:docbase="/home/rover/code/python/herobot/arte"
   sodipodi:docname="robot-3.svg"
   inkscape:output_extension="org.inkscape.output.svg.inkscape">
  <defs
     id="defs4" />
  <sodipodi:namedview
     id="base"
     pagecolor="#ffffff"
     bordercolor="#666666"
     borderopacity="1.0"
     inkscape:pageopacity="0.0"
     inkscape:pageshadow="2"
     inkscape:zoom="0.60079864"
     inkscape:cx="310.83626"
     inkscape:cy="560.85844"
     inkscape:document-units="px"
     inkscape:current-layer="layer1"
     inkscape:window-width="1022"
     inkscape:window-height="713"
     inkscape:window-x="0"
     inkscape:window-y="0"
     showguides="true"
     inkscape:guide-bbox="true" />
  <metadata
     id="metadata7">
    <rdf:RDF>
      <cc:Work
         rdf:about="">
        <dc:format>image/svg+xml</dc:format>
        <dc:type
           rdf:resource="http://purl.org/dc/dcmitype/StillImage" />
      </cc:Work>
    </rdf:RDF>
  </metadata>
  <g
     inkscape:label="Capa 1"
     inkscape:groupmode="layer"
     id="layer1">
    <path
       style="fill:#999999;fill-opacity:1;stroke:#999999;stroke-width:2;stroke-miterlimit:1;stroke-opacity:0"
       d="M 137.76319,527.92867 L 228.68984,527.92867 C 235.60245,527.92867 221.39938,544.40024 221.39938,551.31285 L 208.44787,621.13089 L 232.30592,635.7346 L 312.74162,650.3383 L 318.87654,680.62016 L 319.5582,692.49723 L 298.42679,703.01099 L 276.61372,712.69865 C 259.22651,722.02325 262.98055,705.97835 256.16397,702.61821 L 267.0705,666.77919 C 239.80416,668.23854 190.61299,663.5787 183.70038,663.5787 L 137.76319,675.16689 C 130.85057,675.16689 121.19559,709.81971 121.19559,702.90709 L 101.42749,703.98153 L 95.974234,682.56123 L 100.06418,676.13743 L 89.157644,680.62016 L 98.700864,706.91596 L 88.475984,722.98688 L 67.855824,718.6052 L 60.868824,695.81873 L 66.151674,690.75539 L 72.797844,685.01039 L 71.264114,665.63222 L 77.910284,665.34049 L 145.90571,627.55755 L 125.28554,555.69168 L 125.28554,540.40631 C 125.28554,533.4937 130.85057,527.92867 137.76319,527.92867 z "
       id="rect2360"
       sodipodi:nodetypes="ccccccccccccccccccccccccccccccc"
       inkscape:export-filename="/home/rover/herobot/arte/pre/robot-3-01.png"
       inkscape:export-xdpi="17.20129"
       inkscape:export-ydpi="17.20129" />
    <path
       style="fill:#e6e6e6;fill-opacity:1;stroke:#999999;stroke-width:2;stroke-miterlimit:1;stroke-opacity:0"
       d="M 105.44313,487.56572 L 253.34699,487.56572 C 260.2596,487.56572 253.21395,501.99231 253.21395,508.90493 L 244.01156,521.71144 C 238.55829,528.28323 237.08321,526.00919 230.1706,531.12162 L 125.89288,531.80328 C 118.98027,531.80328 100.46373,524.53411 100.46373,517.62149 L 92.965494,500.04337 C 92.965494,493.13075 98.530524,487.56572 105.44313,487.56572 z "
       id="rect2357"
       sodipodi:nodetypes="ccccccccc"
       inkscape:export-filename="/home/rover/herobot/arte/pre/robot-3-01.png"
       inkscape:export-xdpi="17.20129"
       inkscape:export-ydpi="17.20129" />
    <path
       style="fill:#b3b3b3;fill-opacity:1;stroke:#999999;stroke-width:2;stroke-miterlimit:1;stroke-opacity:0"
       d="M 102.79191,318.41828 L 248.04456,314.17634 C 254.95718,314.17634 271.6573,327.16477 271.6573,334.07739 L 293.39726,369.56977 C 293.39726,371.29792 316.74467,371.54996 318.25248,376.52349 C 319.76029,381.49702 298.75846,390.10327 300.0904,384.23349 C 305.91062,358.58407 303.33052,395.46492 303.96289,399.66151 C 304.11784,400.68979 317.54421,401.89262 317.68551,403.91382 C 317.82681,405.93502 319.50919,384.39169 321.68972,384.44324 C 347.71053,385.03331 320.10345,409.35576 319.95125,410.86282 C 319.79906,412.36988 304.15209,419.16441 303.72005,419.16441 L 302.86264,448.92428 L 273.90236,479.2144 L 234.33723,490.41578 L 203.78622,496.84497 L 172.17473,497.4415 L 138.44227,495.91705 L 95.165444,488.55993 L 60.372494,474.8399 C 58.644344,474.8399 55.608524,471.47633 52.026884,466.32296 C 48.445244,461.1696 49.620214,452.63571 45.708774,445.47653 C 41.797334,438.31735 47.646274,432.00264 44.928714,425.9852 C 42.211154,419.96776 25.624654,415.83831 25.624654,414.11016 L 19.0629,400.99089 L 8.7894471,408.02084 L -8.9074059,393.31084 C -10.430922,388.19732 0.17008007,400.41691 7.2152881,393.87528 L 15.384341,383.30462 L -7.7309299,377.50615 L 5.7405501,370.64719 L 34.705064,381.91909 L 46.171564,379.40467 L 55.517094,368.93661 L 70.695294,339.91006 C 70.695294,332.99744 95.879304,318.41828 102.79191,318.41828 z "
       id="rect2341"
       sodipodi:nodetypes="ccccsssssscccccccccsssccccccccccccc"
       inkscape:export-filename="/home/rover/herobot/arte/pre/robot-3-01.png"
       inkscape:export-xdpi="17.20129"
       inkscape:export-ydpi="17.20129" />
    <path
       style="fill:#ff0000;fill-opacity:1;stroke:#999999;stroke-width:2;stroke-miterlimit:1;stroke-opacity:0"
       d="M 198.36677,352.93078 C 196.2458,348.67399 190.06249,352.79431 184.58046,350.01445 C 180.15526,347.7705 177.68709,352.917 177.6873,346.03762 C 177.68751,339.15931 191.33017,337.31021 196.2458,341.00032 C 201.59,345.01215 197.761,349.08134 198.36677,352.93078 z "
       id="path2355"
       sodipodi:nodetypes="csssc"
       inkscape:export-filename="/home/rover/herobot/arte/pre/robot-3-01.png"
       inkscape:export-xdpi="17.20129"
       inkscape:export-ydpi="17.20129" />
    <path
       style="fill:#ffff00;fill-opacity:1;stroke:#999999;stroke-width:2;stroke-miterlimit:1;stroke-opacity:0"
       d="M 180.86184,349.10736 C 177.75601,355.24453 183.29956,348.96785 177.42095,350.76294 C 167.33748,353.84203 166.89887,345.71973 170.00538,339.58169 C 173.1114,333.44461 176.75125,331.54781 182.23553,334.32324 C 187.71981,337.09867 183.96768,342.97019 180.86184,349.10736 z "
       id="path2351"
       sodipodi:nodetypes="csssc"
       inkscape:export-filename="/home/rover/herobot/arte/pre/robot-3-01.png"
       inkscape:export-xdpi="17.20129"
       inkscape:export-ydpi="17.20129" />
    <path
       style="fill:#00ff00;fill-opacity:1;stroke:#999999;stroke-width:2;stroke-miterlimit:1;stroke-opacity:0"
       d="M 167.54106,346.36799 C 164.43522,352.50517 158.31343,347.28897 152.43483,349.08406 C 142.35135,352.16315 151.98736,341.38963 155.09386,335.2516 C 158.19989,329.11452 161.30949,329.33868 166.79377,332.11411 C 172.27805,334.88954 170.6469,340.23082 167.54106,346.36799 z "
       id="path2353"
       sodipodi:nodetypes="csssc"
       inkscape:export-filename="/home/rover/herobot/arte/pre/robot-3-01.png"
       inkscape:export-xdpi="17.20129"
       inkscape:export-ydpi="17.20129" />
    <path
       style="fill:#ffff00;fill-opacity:1;stroke:#999999;stroke-width:2;stroke-miterlimit:1;stroke-opacity:0"
       d="M 151.70541,344.44689 C 151.70541,351.3252 145.53518,346.81883 141.10055,351.07493 C 133.4939,358.37535 129.435,351.32627 129.43521,344.44689 C 129.43542,337.56858 143.43787,332.51643 149.58444,332.51643 C 155.73101,332.51643 151.70541,337.56858 151.70541,344.44689 z "
       id="path2349"
       sodipodi:nodetypes="csssc"
       inkscape:export-filename="/home/rover/herobot/arte/pre/robot-3-01.png"
       inkscape:export-xdpi="17.20129"
       inkscape:export-ydpi="17.20129" />
    <path
       style="fill:#ff0000;fill-opacity:1;stroke:#999999;stroke-width:2;stroke-miterlimit:1;stroke-opacity:0"
       d="M 136.44539,347.31651 C 136.44539,354.19482 130.27516,349.68845 125.84053,353.94455 C 118.23388,361.24497 114.17498,354.19589 114.17519,347.31651 C 114.1754,340.4382 128.17785,335.38605 134.32442,335.38605 C 140.47099,335.38605 136.44539,340.4382 136.44539,347.31651 z "
       id="path2344"
       sodipodi:nodetypes="csssc"
       inkscape:export-filename="/home/rover/herobot/arte/pre/robot-3-01.png"
       inkscape:export-xdpi="17.20129"
       inkscape:export-ydpi="17.20129" />
    <path
       style="fill:#cccccc;fill-opacity:1;stroke:#999999;stroke-width:2;stroke-miterlimit:1;stroke-opacity:0"
       d="M 167.14872,205.55554 L 195.55053,206.09707 C 196.4146,206.09707 197.879,207.74161 199.78014,210.63306 C 201.68128,213.52451 204.01916,217.66287 206.6302,222.6505 C 209.24123,227.63813 221.6698,230.29357 224.66358,236.58212 C 227.65735,242.87066 232.35143,249.0806 235.40078,255.87478 C 238.45012,262.66897 242.50595,274.81959 245.2837,281.32415 C 248.06146,287.82871 247.97041,302.47353 250.14941,307.8932 C 252.32842,313.31287 244.58188,307.91666 245.83496,311.45617 C 247.08804,314.99567 247.79637,317.39628 247.79637,318.26036 L 222.87496,328.94978 C 222.87496,335.8624 201.93289,320.74797 195.02028,320.74797 L 167.35179,320.21772 C 160.43917,320.21772 108.74302,329.49949 108.74302,322.58687 L 105.03132,312.49111 L 111.39424,286.48807 L 118.28739,254.65237 L 133.60238,230.67441 C 133.60238,223.76179 160.2361,205.55554 167.14872,205.55554 z "
       id="rect2338"
       sodipodi:nodetypes="ccssssssscccccccccc"
       inkscape:export-filename="/home/rover/herobot/arte/pre/robot-3-01.png"
       inkscape:export-xdpi="17.20129"
       inkscape:export-ydpi="17.20129" />
    <path
       style="fill:#000000"
       d="M 71.150074,718.892 C 60.322984,714.17869 58.178054,701.04409 66.506014,690.45379 C 69.912864,686.12144 71.366844,681.36119 71.366844,674.53973 C 71.366844,663.94721 71.773494,663.60548 98.024724,652.13786 C 103.31305,649.82771 106.46495,647.2249 105.62328,645.86304 C 104.81721,644.5588 105.18723,644.15529 106.4651,644.94505 C 109.08851,646.56641 140.10521,632.37951 143.87936,627.83195 C 145.26345,626.16421 145.94589,622.11735 145.39589,618.8389 C 143.3367,606.56442 131.7945,565.32206 130.22352,564.62529 C 129.32497,564.22675 129.03706,563.17698 129.58373,562.29244 C 130.1304,561.40792 128.69756,554.44272 126.39963,546.81426 C 122.4753,533.78656 121.65034,532.71072 112.81424,529.09748 C 99.604204,523.69562 93.124884,514.21567 93.124884,500.28984 L 93.124884,489.23623 L 82.245864,486.46253 C 65.282824,482.13768 58.634944,477.07457 51.087954,462.73223 C 46.900954,454.77525 41.272354,433.91239 41.669754,427.82297 C 41.808954,425.69012 39.701974,423.68651 36.465754,422.87427 C 25.799974,420.19733 15.111791,404.40218 23.966164,404.40218 C 25.818594,404.40218 26.716754,405.40127 25.962074,406.62235 C 25.207394,407.84344 27.683254,411.73211 31.463974,415.26384 C 36.682554,420.13872 40.390674,421.68516 46.861274,421.68516 C 54.545084,421.68516 55.692834,420.94728 58.514854,414.19325 C 62.299434,405.13548 62.428474,399.95659 59.142844,388.99013 C 56.543044,380.31278 53.645354,379.07773 42.741914,381.99974 C 36.386474,383.70293 36.595584,385.83995 43.422044,388.95029 C 47.812564,390.95075 48.661524,392.48052 47.510924,396.31826 C 44.640344,405.89301 41.328014,407.4843 30.549794,404.46658 C 19.028591,401.24084 9.8253211,402.90159 9.7275311,408.22399 C 9.6673811,411.49782 9.3311111,411.55995 7.0270711,408.72293 C 5.5796011,406.94062 1.5953011,404.03516 -1.8269389,402.26633 C -9.0182489,398.54943 -13.024609,391.24671 -10.904079,385.72068 C -9.6104289,382.34949 -8.6494089,382.72433 -2.9492689,388.82347 C 4.6681711,396.97413 8.3394711,397.49074 12.852781,391.04708 C 17.527051,384.37362 13.621641,380.63809 1.9704111,380.63809 C -4.3490489,380.63809 -7.4867389,379.70629 -7.4867389,377.8296 C -7.4867389,366.29157 15.089121,367.58176 26.380234,379.76507 C 31.081574,384.8379 31.727924,384.97413 36.207694,381.83637 C 38.845024,379.98911 42.730864,378.47772 44.842894,378.47772 C 46.954924,378.47772 48.682944,377.62913 48.682944,376.59197 C 48.682944,372.56374 63.340624,346.49025 64.151634,348.89592 C 64.624224,350.29772 57.913154,362.29902 55.675814,366.66005 L 51.607914,374.58921 L 57.372404,380.3537 C 65.382724,388.36402 66.967534,399.10745 62.240924,413.35742 C 58.968324,423.22378 57.452274,425.12397 51.923504,426.28917 C 48.358884,427.04042 46.900634,427.78497 48.682944,427.94376 C 51.337904,428.18027 51.393024,428.56856 48.987984,430.0924 C 43.804564,433.37666 51.046314,460.79604 59.926684,471.50954 C 64.464884,476.98453 74.740354,481.72803 89.730014,485.26774 C 102.95451,488.3906 138.3244,492.87046 150.22043,492.92926 L 155.62136,492.95599 L 149.88385,488.10586 C 141.52862,481.04292 139.20023,475.05279 137.84505,457.13419 C 137.14584,447.88902 135.62562,441.01075 134.2459,440.84971 C 132.93215,440.69639 127.42152,440.7723 122.00005,441.01844 C 108.25443,441.64248 106.05194,438.34979 106.6971,418.14087 C 106.98054,409.26254 108.1065,399.86583 109.19923,397.2593 C 112.24695,389.98945 118.1735,383.5173 119.23119,386.30379 C 120.26581,389.02946 138.96689,387.76101 142.84972,384.7018 C 144.14276,383.68304 146.45409,377.24806 147.98601,370.40185 C 149.51793,363.55563 151.29287,356.59457 151.93033,354.93282 C 153.11432,351.84635 151.57851,351.91058 126.33623,356.00323 C 112.20688,358.29408 110.03668,347.34477 122.94386,338.88766 C 125.86132,336.97607 134.8691,334.35436 142.96116,333.06165 C 157.01299,330.81686 160.91594,328.6395 160.9892,323.00423 C 161.03015,319.85511 141.99841,321.27709 123.24905,325.82402 C 111.42684,328.69104 110.09274,328.64852 107.66426,325.32738 C 106.20356,323.32974 104.6799,320.70971 104.27835,319.50508 C 103.34754,316.71263 79.202684,334.2003 71.740214,343.07185 C 68.630614,346.76861 66.788414,350.5701 67.646434,351.51961 C 68.504454,352.46911 68.074304,352.59797 66.690524,351.80597 C 65.306754,351.01396 63.682214,351.58723 63.080434,353.07988 C 62.341744,354.91212 61.930874,354.71465 61.815724,352.47204 C 61.538434,347.07134 84.883724,326.36017 104.19205,314.87718 C 104.42284,314.73992 105.65124,306.2618 106.92183,296.0369 C 110.64635,266.06442 122.26379,237.41642 136.86382,222.2015 C 147.18556,211.44505 166.49073,201.642 174.97677,202.84795 C 189.1577,204.86322 202.22501,212.73416 215.88569,227.48896 C 237.61547,250.95912 249.96472,278.81654 249.95271,304.33721 C 249.9483,313.68619 250.74915,315.40705 257.81337,321.22786 C 262.13945,324.79247 266.67844,327.38492 267.90002,326.98885 C 269.1216,326.59278 269.45194,326.93784 268.63414,327.75566 C 267.81633,328.57347 272.45724,336.18879 278.9473,344.67858 C 285.43734,353.16836 291.52589,363.03106 292.47741,366.59567 C 294.14519,372.84356 294.59814,373.05124 305.06425,372.36699 C 316.602,371.61268 324.45055,376.03314 322.16206,381.99683 C 321.45007,383.85223 322.52797,384.95883 325.04724,384.95883 C 330.05425,384.95883 331.4193,388.3427 330.07475,397.42176 C 328.78376,406.13931 320.5064,413.04367 311.34627,413.04367 L 304.54578,413.04367 L 305.38036,427.81353 C 306.04614,439.59613 305.31753,444.34247 301.77789,451.28072 C 293.84909,466.82246 268.30857,486.49632 256.06112,486.49632 C 252.33007,486.49632 251.65618,487.31698 252.9566,490.27697 C 259.83371,505.93055 254.59919,518.83945 237.77097,527.72644 C 227.00601,533.41144 227.34132,532.67211 220.70725,565.3499 C 218.77748,574.85554 215.39771,591.42259 213.19668,602.1656 L 209.1948,621.69831 L 219.936,627.69535 C 227.40909,631.86772 237.99243,634.91095 254.71989,637.69739 C 286.31637,642.96069 310.50323,648.49496 313.91739,651.24252 C 315.42948,652.45937 316.11062,655.20678 315.43108,657.34786 C 314.75153,659.48894 316.29134,665.34884 318.85287,670.36987 C 322.64504,677.80313 323.16649,681.09988 321.65991,688.11692 C 319.94578,696.10068 318.97072,697.01946 308.4092,700.6027 C 300.88063,703.15693 297.47601,703.59134 298.38453,701.88175 C 299.1412,700.45793 297.46622,701.87486 294.66236,705.03049 C 283.4477,717.65212 272.73195,718.68674 261.63341,708.21946 C 252.50136,699.60683 252.17322,695.95565 259.39578,683.32076 C 262.37979,678.10065 264.25774,673.26615 263.56899,672.57742 C 262.88027,671.8887 258.72581,671.13207 254.33686,670.89605 C 249.94793,670.66003 229.83014,668.79074 209.63066,666.74209 L 180.42444,664.27271 L 149.46042,670.62993 C 136.56627,674.81691 127.08763,678.90461 128.39679,679.71372 C 132.53824,682.27326 130.98648,693.40767 125.6186,699.64818 C 121.39018,704.56402 118.66488,705.65689 110.50288,705.70969 C 103.82779,705.75285 100.54337,706.69659 100.53875,708.57274 C 100.53497,710.11201 98.145644,713.75764 95.229144,716.67414 C 89.268284,722.635 81.410764,723.35874 71.150074,718.892 z M 94.124694,714.19794 C 99.575884,709.51257 99.053334,699.35461 92.990454,692.14929 C 86.278954,684.17313 86.103094,679.29685 92.430474,676.6217 C 102.23693,672.47563 161.87892,662.62362 177.60697,662.60057 C 198.00642,662.57067 255.20133,665.59994 263.09987,667.14713 C 267.51992,668.01295 269.04089,669.58192 269.04089,673.27563 C 269.04089,676.00626 267.78461,679.283 266.24915,680.55732 C 264.71371,681.83164 263.21728,686.43993 262.9238,690.79796 C 262.63029,695.15599 262.18527,699.78517 261.93487,701.08502 C 261.68446,702.38488 263.91001,703.7102 266.88052,704.03015 C 269.85103,704.35012 275.73809,705.20075 279.96285,705.92043 C 288.71961,707.41211 291.88017,704.88717 293.75116,694.90513 C 295.26128,686.8483 291.10002,675.97204 287.09529,677.5088 C 285.17356,678.24624 284.15334,676.98253 284.13401,673.84081 C 284.08324,665.59411 281.74219,659.76789 278.02275,658.6316 C 268.43689,655.70312 227.56574,636.61259 215.9478,629.63694 C 203.26862,622.02411 202.91261,621.56775 205.49463,616.23671 C 206.9648,613.20126 209.6975,601.96821 211.5673,591.27437 C 213.4371,580.58053 216.92012,563.15682 219.30735,552.55503 C 221.69456,541.95325 223.35574,532.98705 222.99885,532.63016 C 222.64195,532.27327 218.51594,533.05228 213.82992,534.36131 C 205.35042,536.73007 144.8207,535.5418 132.71072,532.76886 C 127.14857,531.49525 127.1012,531.58936 128.64153,540.85377 C 130.49652,552.01079 140.54467,589.87123 144.88997,602.07623 C 146.5821,606.82905 148.23064,615.52498 148.5534,621.40052 L 149.14024,632.08334 L 135.09782,637.97991 C 107.59942,649.52684 104.80255,651.0162 106.24231,653.34579 C 107.04572,654.64573 106.67889,655.05387 105.41126,654.27043 C 102.45122,652.44101 91.470824,658.1356 93.543354,660.42527 C 94.416524,661.38992 94.019004,661.54369 92.659984,660.76697 C 91.300954,659.99027 86.611914,660.84939 82.239884,662.67614 C 74.860964,665.75925 74.333184,666.58535 74.882424,674.19226 C 75.302674,680.01271 74.096674,684.13816 70.720014,688.43088 C 64.838984,695.90739 64.335464,709.05961 69.746574,713.85771 C 76.504214,719.84982 87.372534,720.0015 94.124694,714.19794 z M 124.13916,696.84125 C 129.43847,690.10426 129.85314,684.64539 125.34951,680.90771 C 123.05729,679.00533 122.74036,677.40326 124.28746,675.53912 C 126.02825,673.44159 123.91626,673.39817 114.25797,675.33293 C 107.52892,676.6809 101.0637,679.3051 99.890824,681.16451 C 96.799224,686.06571 99.920134,699.88578 104.38325,701.05795 C 114.03991,703.59417 119.79327,702.36617 124.13916,696.84125 z M 316.02898,692.36985 C 319.953,687.10333 319.3469,678.72537 314.33577,668.96446 C 311.91924,664.25746 310.43278,658.40514 311.0325,655.9593 C 312.0402,651.84965 310.17103,651.13625 286.39084,646.55447 C 272.2382,643.82765 259.60305,641.94851 258.31272,642.37862 C 256.00071,643.14929 262.33587,646.78124 278.22247,653.79286 C 285.95609,657.20612 287.29811,659.08802 286.46561,665.3521 C 286.26202,666.88411 289.06333,671.88483 292.69076,676.46484 C 296.96534,681.86195 299.2861,687.24838 299.2861,691.7725 C 299.2861,698.49048 299.55003,698.70103 306.30731,697.37355 C 310.16897,696.61491 314.54373,694.36324 316.02898,692.36985 z M 96.272194,680.92981 C 98.839534,675.98947 98.772374,675.78173 95.484634,678.49386 C 93.507794,680.12462 91.890384,682.96011 91.890384,684.79495 C 91.890384,688.71754 92.508464,688.17235 96.272194,680.92981 z M 220.43252,529.57544 C 223.99713,528.0767 228.10521,527.04357 229.56158,527.27957 C 235.52702,528.24627 245.62287,520.46556 249.94417,511.57103 C 254.02144,503.17876 254.16405,501.65263 251.39908,496.00181 C 249.3357,491.78489 246.95119,489.92909 244.10473,490.32482 C 241.77885,490.64821 232.09853,491.50571 222.59289,492.2304 C 213.08725,492.9551 204.13962,494.47356 202.70926,495.6048 C 200.25698,497.54421 134.53612,496.25561 128.15724,494.14302 C 121.25514,491.85718 98.500784,491.02049 97.272794,493.0074 C 96.538604,494.19535 97.943714,497.98419 100.39526,501.42706 C 102.8468,504.86996 104.85261,508.32327 104.85261,509.10114 C 104.85261,511.918 100.18383,507.54578 98.357044,503.01813 C 96.510074,498.4405 96.483174,498.44625 96.348064,503.44597 C 96.147844,510.85532 102.61869,520.53506 110.16624,524.11661 C 115.85373,526.8155 131.12066,529.37491 161.02229,532.64234 C 175.69294,534.24545 214.03259,532.26625 220.43252,529.57544 z M 250.592,485.36571 C 279.34569,478.96861 303.55532,455.3419 302.56159,434.64739 C 301.6556,415.77989 301.6236,415.68846 295.13624,413.42696 C 289.41283,411.43177 288.02423,411.9899 280.20453,419.42861 C 270.3431,428.80955 251.75791,436.54968 251.75791,431.2757 C 251.75791,429.56553 250.86503,428.16627 249.77374,428.16627 C 248.68245,428.16627 245.65303,424.70929 243.04172,420.48408 C 236.65994,410.15817 237.68929,389.42428 244.9436,382.17445 C 250.71823,376.4034 267.92143,375.77298 275.85645,381.04164 C 280.30987,383.99859 281.43637,384.01425 285.76293,381.17938 C 288.8876,379.13202 290.64461,375.82615 290.64461,371.99432 C 290.64461,364.56543 277.15994,344.03621 262.49323,329.13634 C 251.89063,318.36516 246.43607,315.58963 244.90394,320.18607 C 244.50084,321.39539 238.0979,324.22362 230.67521,326.47103 C 223.25252,328.71844 217.7257,329.67333 218.39336,328.59301 C 219.06105,327.51269 217.35948,326.62879 214.61211,326.62879 C 211.86476,326.62879 203.30092,324.8374 195.58137,322.64792 C 178.05939,317.67822 167.23215,318.65234 164.00587,325.48876 C 161.71523,330.3426 161.97664,330.49925 173.79347,331.354 C 192.90078,332.7361 207.31368,346.27799 196.07754,352.29139 C 193.6218,353.60565 186.27459,353.48164 175.61532,351.94602 C 158.31242,349.45328 156.37962,349.87297 155.72252,356.26553 C 155.50491,358.38249 154.10718,363.03106 152.61645,366.59567 C 151.12573,370.16028 149.36917,375.75025 148.713,379.01781 L 147.51996,384.95883 L 164.80846,384.95883 C 176.77854,384.95883 182.84966,385.86578 184.54376,387.90705 C 187.98008,392.04755 187.24858,427.99215 183.60959,433.8104 C 181.09396,437.83256 178.50094,438.424 161.76552,438.79286 C 151.32124,439.02305 142.29648,439.69084 141.71048,440.27685 C 139.90835,442.07896 141.32698,468.26935 143.54233,474.09617 C 146.7477,482.52696 156.73189,490.5688 166.35667,492.47219 C 177.03838,494.58458 228.77268,490.22005 250.592,485.36571 z M 175.76028,434.79693 L 181.54582,433.24295 L 181.39644,412.17034 C 181.2849,396.43706 180.46381,390.56687 178.15588,389.00271 C 175.1417,386.95989 153.69007,387.65537 127.84684,390.63375 L 115.19493,392.09186 L 116.40622,399.8673 C 117.48559,406.7959 117.29613,407.21447 114.66667,403.71045 C 112.05189,400.22601 111.63256,401.33318 110.98469,413.43213 C 109.62212,438.87777 107.29121,437.06128 140.81786,436.68134 C 156.85414,436.49961 172.57823,435.65164 175.76028,434.79693 z M 132.82694,421.57466 C 126.07102,414.81872 131.7205,402.24181 141.51115,402.24181 C 147.42773,402.24181 154.54117,408.72854 154.54117,414.12386 C 154.54117,419.67528 147.37893,426.0059 141.09824,426.0059 C 138.98621,426.0059 135.26413,424.01184 132.82694,421.57466 z M 147.94981,416.49022 C 151.39596,410.05104 149.75936,407.10265 142.73893,407.10265 C 135.30273,407.10265 131.95611,411.49408 135.02391,417.22632 C 138.23282,423.22222 144.53916,422.86308 147.94981,416.49022 z M 272.03903,422.30549 C 278.98895,416.47024 284.1635,411.19059 284.1635,409.93476 C 284.1635,409.31372 279.99409,409.37706 274.89813,410.07553 C 258.16523,412.36905 254.64886,398.6204 269.79957,390.14067 C 278.85306,385.0735 278.57492,384.39258 266.05096,380.96355 C 243.46625,374.7799 232.91653,402.65848 249.95858,423.48911 C 254.27097,428.76018 255.89902,429.39592 261.23717,427.8931 C 264.66847,426.92711 269.52931,424.41269 272.03903,422.30549 z M 320.42251,407.10265 C 325.62069,402.56617 327.96832,393.7135 325.15375,389.26163 C 323.4337,386.54096 323.1112,386.63972 323.08327,389.89568 C 322.97456,402.56971 308.95409,408.62487 299.69346,399.99727 C 293.49179,394.21953 293.70923,392.36372 301.50085,384.5721 C 306.50725,379.56569 309.27378,378.34719 313.32534,379.36406 C 317.46278,380.40249 318.34136,379.98014 317.36057,377.42425 C 314.80915,370.77531 297.68293,375.01932 285.24368,385.38306 C 281.67907,388.35291 276.11717,391.42821 272.88389,392.21706 C 265.41064,394.04039 261.17053,401.20535 264.90317,405.7029 C 266.85008,408.04878 269.96858,408.52458 276.74074,407.50903 C 282.01321,406.71838 287.63063,407.11595 289.91011,408.44108 C 296.4586,412.24794 315.48297,411.41341 320.42251,407.10265 z M 42.201824,396.94451 C 42.201824,392.72624 39.325814,389.84249 33.560334,388.27978 C 26.429124,386.34688 22.591994,383.94634 19.784381,379.66139 C 15.562531,373.21802 5.2702711,370.7385 -1.4189989,374.55324 C -6.1421389,377.24674 -5.8455289,377.45479 4.1759811,378.47772 C 16.043391,379.68905 21.147824,384.50023 17.202111,390.75548 C 12.998671,397.41932 8.2607811,399.10421 1.2097111,396.44272 C -2.3851289,395.08584 -5.3263589,394.82916 -5.3263589,395.87234 C -5.3263589,399.14295 2.5393011,402.15103 7.9010711,400.93096 C 15.360331,399.2336 27.939604,399.73379 33.842924,401.96252 C 40.316874,404.40665 42.201824,403.27509 42.201824,396.94451 z M 317.43731,395.27331 C 320.03915,387.94465 317.77392,382.79846 311.94616,382.79846 C 306.57919,382.79846 299.2861,388.52115 299.2861,392.73246 C 299.2861,396.45216 307.36727,401.94026 311.88003,401.28526 C 313.8649,400.99718 316.36568,398.29178 317.43731,395.27331 z M 131.81738,345.53204 C 133.34159,341.07627 133.97411,337.43428 133.22297,337.43872 C 129.72094,337.45943 117.81484,346.33187 117.81484,348.92088 C 117.81484,358.37746 128.29052,355.84218 131.81738,345.53204 z M 148.37945,342.29148 L 152.8051,335.27027 L 146.89009,335.27027 C 140.52671,335.27027 135.27746,340.41593 135.16653,346.76248 C 135.05607,353.08237 143.34581,350.27728 148.37945,342.29148 z M 195.58824,348.18353 C 198.33295,346.36828 198.00239,345.39956 193.42787,341.85262 C 188.44411,337.98836 187.91352,337.94787 186.55851,341.32842 C 183.07643,350.01565 187.61186,353.45881 195.58824,348.18353 z M 166.62941,340.58585 L 169.30506,334.01939 L 162.17562,334.85171 C 157.17094,335.43598 154.3271,337.26228 152.63331,340.97974 C 149.39894,348.0784 149.28045,347.90481 157.08709,347.50446 C 162.55516,347.22404 164.49874,345.81486 166.62941,340.58585 z M 181.43121,342.51909 C 183.40808,334.64259 179.90378,331.78349 174.22868,336.64267 C 167.9182,342.04587 168.23945,348.23251 174.8305,348.23251 C 178.61531,348.23251 180.38077,346.70436 181.43121,342.51909 z M 137.25819,320.10824 C 156.58026,316.78941 191.17806,316.81495 202.89079,320.15671 C 213.01263,323.04456 213.59079,322.97103 217.35978,318.31652 C 220.4633,314.48385 221.03507,311.11324 220.08937,302.22546 C 218.28096,285.2301 207.91022,256.78608 198.54034,243.12257 C 189.31769,229.67378 173.1834,215.03639 168.6075,215.96682 C 166.99212,216.29529 165.04892,214.60575 164.28926,212.21231 C 162.91845,207.89325 162.84719,207.89165 154.79661,211.99875 C 144.57131,217.21531 132.45469,230.53007 125.75058,243.91699 C 119.98152,255.43677 113.05191,275.39948 113.81542,278.29961 C 114.08781,279.33426 113.21016,286.98596 111.86508,295.30339 C 110.52001,303.62082 109.4258,313.70273 109.43351,317.70763 C 109.44739,324.91455 109.52924,324.97469 117.41184,323.5692 C 121.79221,322.78817 130.72307,321.23074 137.25819,320.10824 z M 119.66939,299.67837 C 117.60276,297.61174 126.18328,259.44377 130.2986,252.39736 C 134.93583,244.45734 141.15073,242.63521 165.85046,241.97398 C 180.21606,241.5894 185.49855,242.23017 187.67134,244.62088 C 192.15098,249.54982 201.92526,273.31003 203.96526,284.22961 C 206.7649,299.21534 204.43423,300.05661 158.76941,300.54323 C 137.96181,300.76497 120.3668,300.37578 119.66939,299.67837 z M 197.67146,293.05772 C 200.44566,290.29065 196.12663,289.90246 162.56541,289.90246 C 124.82772,289.90246 124.29596,289.9671 124.29596,294.55451 C 124.29596,299.18756 124.43942,299.20045 159.40201,297.70978 C 185.74329,296.58668 195.29784,295.42523 197.67146,293.05772 z M 199.90898,283.42134 C 199.90898,279.2652 198.46873,279.1006 162.10247,279.1006 C 125.73621,279.1006 124.29596,279.2652 124.29596,283.42134 C 124.29596,287.57749 125.73621,287.74209 162.10247,287.74209 C 198.46873,287.74209 199.90898,287.57749 199.90898,283.42134 z M 196.89956,273.52298 C 196.17832,271.64349 195.58824,269.27581 195.58824,268.26145 C 195.58824,267.2471 185.62352,266.71364 173.44443,267.07597 C 161.26533,267.43831 145.71065,267.86166 138.87847,268.01675 C 127.99057,268.26391 126.45633,268.83239 126.45633,272.61948 C 126.45633,276.76678 127.89658,276.94023 162.33361,276.94023 C 194.16142,276.94023 198.06288,276.55452 196.89956,273.52298 z M 193.39479,262.24946 C 193.25711,255.95664 189.0785,255.12054 160.2841,255.62437 C 144.05524,255.90834 130.77708,256.85239 130.77708,257.72227 C 130.77708,258.59215 130.27858,260.59859 129.6693,262.18102 C 128.77042,264.51565 134.67733,264.93592 160.9947,264.40983 C 178.83294,264.05324 193.41298,263.08107 193.39479,262.24946 z M 189.10712,251.28029 C 189.10712,245.72466 181.97364,244.10541 161.07168,244.91644 C 144.29407,245.56745 138.59796,246.58975 135.72158,249.46613 C 132.21515,252.97256 133.57807,253.17613 160.55935,253.17613 C 176.26062,253.17613 189.10712,252.323 189.10712,251.28029 z M 236.64713,319.61722 C 247.90234,313.13954 249.38801,304.69956 243.2265,282.24062 C 238.23541,264.04793 227.50206,243.11424 223.64402,244.04808 C 222.29515,244.37457 221.75523,243.72963 222.44419,242.61489 C 224.52331,239.25078 203.21796,217.76165 191.45724,211.36066 C 184.50518,207.57688 178.02163,205.62365 173.83372,206.05141 L 167.20842,206.72813 L 178.76383,216.35453 C 189.20786,225.05508 195.60814,232.89224 206.9616,250.88286 C 214.76489,263.24791 222.12828,288.56637 223.17902,306.64534 C 223.74875,316.44803 225.1156,324.46841 226.21644,324.46841 C 227.3173,324.46841 232.0111,322.28538 236.64713,319.61722 z "
       id="path3069"
       sodipodi:nodetypes="cssssssssssscccsssssssssssssssssssssssssscccsssssscccsssssssssssssssssssssssssssssssssssscccssssscccsssssssssssscccsssssccssssssssssssssssssssssscccssssssssccsssssccsssssssssccssccssssssssssssssccsssssssssssssssssssssscccssssssccccscccsssccsssccssccssssssccsssssssssssccsssssssssccsssccssccccsccssccccssccssccssssssssssssccsssssccsssccsssccsssssccssssccsssccsssscccsssc"
       inkscape:export-filename="/home/rover/herobot/arte/pre/robot-3-01.png"
       inkscape:export-xdpi="17.20129"
       inkscape:export-ydpi="17.20129" />
    <path
       style="fill:#999999;fill-opacity:1;stroke:#999999;stroke-width:2;stroke-miterlimit:1;stroke-opacity:0"
       d="M 560.79488,527.70813 L 651.72153,527.70813 C 658.63414,527.70813 644.43107,544.1797 644.43107,551.09231 L 631.47956,620.91035 L 655.33761,635.51404 L 735.77331,650.11774 L 741.90823,680.39964 L 742.58989,692.27664 L 721.45848,702.79044 L 699.64541,712.47814 C 682.2582,721.80274 686.01224,705.75784 679.19566,702.39764 L 690.10219,666.55864 C 662.83585,668.01804 613.64468,663.35814 606.73207,663.35814 L 560.79488,674.94634 C 553.88226,674.94634 544.22728,709.59914 544.22728,702.68654 L 524.45918,703.76094 L 519.00592,682.34064 L 523.09587,675.91684 L 512.18933,680.39964 L 521.73255,706.69544 L 511.50767,722.76634 L 490.88751,718.38464 L 483.90051,695.59814 L 489.18336,690.53484 L 495.82953,684.78984 L 494.2958,665.41164 L 500.94197,665.11994 L 568.9374,627.33704 L 548.31723,555.47114 L 548.31723,540.18577 C 548.31723,533.27316 553.88226,527.70813 560.79488,527.70813 z "
       id="path2363"
       sodipodi:nodetypes="ccccccccccccccccccccccccccccccc"
       inkscape:export-filename="/home/rover/herobot/arte/pre/robot-3-02.png"
       inkscape:export-xdpi="17.201288"
       inkscape:export-ydpi="17.201288" />
    <path
       style="fill:#e6e6e6;fill-opacity:1;stroke:#999999;stroke-width:2;stroke-miterlimit:1;stroke-opacity:0"
       d="M 528.47482,487.34518 L 676.37868,487.34518 C 683.29129,487.34518 676.24564,501.77177 676.24564,508.68439 L 667.04325,521.4909 C 661.58998,528.06269 660.1149,525.78865 653.20229,530.90108 L 548.92457,531.58274 C 542.01196,531.58274 523.49542,524.31357 523.49542,517.40095 L 515.99718,499.82283 C 515.99718,492.91021 521.56221,487.34518 528.47482,487.34518 z "
       id="path2365"
       sodipodi:nodetypes="ccccccccc"
       inkscape:export-filename="/home/rover/herobot/arte/pre/robot-3-02.png"
       inkscape:export-xdpi="17.201288"
       inkscape:export-ydpi="17.201288" />
    <path
       style="fill:#b3b3b3;fill-opacity:1;stroke:#999999;stroke-width:2;stroke-miterlimit:1;stroke-opacity:0"
       d="M 525.8236,318.19774 L 671.07625,313.9558 C 677.98887,313.9558 694.68899,326.94423 694.68899,333.85685 L 716.42895,369.34923 C 716.42895,371.07738 739.77636,371.32942 741.28417,376.30295 C 742.79198,381.27648 721.79015,389.88273 723.12209,384.01295 C 728.94231,358.36353 726.36221,395.24438 726.99458,399.44097 C 727.14953,400.46925 740.5759,401.67208 740.7172,403.69328 C 740.8585,405.71448 742.54088,384.17115 744.72141,384.2227 C 770.74222,384.81277 743.13514,409.13522 742.98294,410.64228 C 742.83075,412.14934 727.18378,418.94387 726.75174,418.94387 L 725.89433,448.70374 L 696.93405,478.99386 L 657.36892,490.19524 L 626.81791,496.62443 L 595.20642,497.22096 L 561.47396,495.69651 L 518.19713,488.33939 L 483.40418,474.61936 C 481.67603,474.61936 478.64021,471.25579 475.05857,466.10242 C 471.47693,460.94906 472.6519,452.41517 468.74046,445.25599 C 464.82902,438.09681 470.67796,431.7821 467.9604,425.76466 C 465.24284,419.74722 448.65634,415.61777 448.65634,413.88962 L 442.09459,400.77035 L 431.82114,407.8003 L 414.12428,393.0903 C 412.60077,387.97678 423.20177,400.19637 430.24698,393.65474 L 438.41603,383.08408 L 415.30076,377.28561 L 428.77224,370.42665 L 457.73675,381.69855 L 469.20325,379.18413 L 478.54878,368.71607 L 493.72698,339.68952 C 493.72698,332.7769 518.91099,318.19774 525.8236,318.19774 z "
       id="path2367"
       sodipodi:nodetypes="ccccsssssscccccccccsssccccccccccccc"
       inkscape:export-filename="/home/rover/herobot/arte/pre/robot-3-02.png"
       inkscape:export-xdpi="17.201288"
       inkscape:export-ydpi="17.201288" />
    <path
       style="fill:#ffff00;fill-opacity:1;stroke:#999999;stroke-width:2;stroke-miterlimit:1;stroke-opacity:0"
       d="M 621.39846,352.71024 C 619.27749,348.45345 613.09418,352.57377 607.61215,349.79391 C 603.18695,347.54996 600.71878,352.69646 600.71899,345.81708 C 600.7192,338.93877 614.36186,337.08967 619.27749,340.77978 C 624.62169,344.79161 620.79269,348.8608 621.39846,352.71024 z "
       id="path2369"
       sodipodi:nodetypes="csssc"
       inkscape:export-filename="/home/rover/herobot/arte/pre/robot-3-02.png"
       inkscape:export-xdpi="17.201288"
       inkscape:export-ydpi="17.201288" />
    <path
       style="fill:#ff0000;fill-opacity:1;stroke:#999999;stroke-width:2;stroke-miterlimit:1;stroke-opacity:0"
       d="M 603.89353,348.88682 C 600.7877,355.02399 606.33125,348.74731 600.45264,350.5424 C 590.36917,353.62149 589.93056,345.49919 593.03707,339.36115 C 596.14309,333.22407 599.78294,331.32727 605.26722,334.1027 C 610.7515,336.87813 606.99937,342.74965 603.89353,348.88682 z "
       id="path2371"
       sodipodi:nodetypes="csssc"
       inkscape:export-filename="/home/rover/herobot/arte/pre/robot-3-02.png"
       inkscape:export-xdpi="17.201288"
       inkscape:export-ydpi="17.201288" />
    <path
       style="fill:#ffff00;fill-opacity:1;stroke:#999999;stroke-width:2;stroke-miterlimit:1;stroke-opacity:0"
       d="M 590.57275,346.14745 C 587.46691,352.28463 581.34512,347.06843 575.46652,348.86352 C 565.38304,351.94261 575.01905,341.16909 578.12555,335.03106 C 581.23158,328.89398 584.34118,329.11814 589.82546,331.89357 C 595.30974,334.669 593.67859,340.01028 590.57275,346.14745 z "
       id="path2373"
       sodipodi:nodetypes="csssc"
       inkscape:export-filename="/home/rover/herobot/arte/pre/robot-3-02.png"
       inkscape:export-xdpi="17.201288"
       inkscape:export-ydpi="17.201288" />
    <path
       style="fill:#00ff00;fill-opacity:1;stroke:#999999;stroke-width:2;stroke-miterlimit:1;stroke-opacity:0"
       d="M 574.7371,344.22635 C 574.7371,351.10466 568.56687,346.59829 564.13224,350.85439 C 556.52559,358.15481 552.46669,351.10573 552.4669,344.22635 C 552.46711,337.34804 566.46956,332.29589 572.61613,332.29589 C 578.7627,332.29589 574.7371,337.34804 574.7371,344.22635 z "
       id="path2375"
       sodipodi:nodetypes="csssc"
       inkscape:export-filename="/home/rover/herobot/arte/pre/robot-3-02.png"
       inkscape:export-xdpi="17.201288"
       inkscape:export-ydpi="17.201288" />
    <path
       style="fill:#ffff00;fill-opacity:1;stroke:#999999;stroke-width:2;stroke-miterlimit:1;stroke-opacity:0"
       d="M 559.47708,347.09597 C 559.47708,353.97428 553.30685,349.46791 548.87222,353.72401 C 541.26557,361.02443 537.20667,353.97535 537.20688,347.09597 C 537.20709,340.21766 551.20954,335.16551 557.35611,335.16551 C 563.50268,335.16551 559.47708,340.21766 559.47708,347.09597 z "
       id="path2377"
       sodipodi:nodetypes="csssc"
       inkscape:export-filename="/home/rover/herobot/arte/pre/robot-3-02.png"
       inkscape:export-xdpi="17.201288"
       inkscape:export-ydpi="17.201288" />
    <path
       style="fill:#cccccc;fill-opacity:1;stroke:#999999;stroke-width:2;stroke-miterlimit:1;stroke-opacity:0"
       d="M 590.18041,205.335 L 618.58222,205.87653 C 619.44629,205.87653 620.91069,207.52107 622.81183,210.41252 C 624.71297,213.30397 627.05085,217.44233 629.66189,222.42996 C 632.27292,227.41759 644.70149,230.07303 647.69527,236.36158 C 650.68904,242.65012 655.38312,248.86006 658.43247,255.65424 C 661.48181,262.44843 665.53764,274.59905 668.31539,281.10361 C 671.09315,287.60817 671.0021,302.25299 673.1811,307.67266 C 675.36011,313.09233 667.61357,307.69612 668.86665,311.23563 C 670.11973,314.77513 670.82806,317.17574 670.82806,318.03982 L 645.90665,328.72924 C 645.90665,335.64186 624.96458,320.52743 618.05197,320.52743 L 590.38348,319.99718 C 583.47086,319.99718 531.77471,329.27895 531.77471,322.36633 L 528.06301,312.27057 L 534.42593,286.26753 L 541.31908,254.43183 L 556.63407,230.45387 C 556.63407,223.54125 583.26779,205.335 590.18041,205.335 z "
       id="path2379"
       sodipodi:nodetypes="ccssssssscccccccccc"
       inkscape:export-filename="/home/rover/herobot/arte/pre/robot-3-02.png"
       inkscape:export-xdpi="17.201288"
       inkscape:export-ydpi="17.201288" />
    <path
       style="fill:#000000"
       d="M 494.18176,718.67144 C 483.35467,713.95814 481.20974,700.82354 489.5377,690.23324 C 492.94455,685.90094 494.39853,681.14064 494.39853,674.31914 C 494.39853,663.72664 494.80518,663.38494 521.05641,651.91734 C 526.34474,649.60714 529.49664,647.00434 528.65497,645.64254 C 527.8489,644.33824 528.21892,643.93474 529.49679,644.72454 C 532.1202,646.34584 563.1369,632.15894 566.91105,627.61144 C 568.29514,625.94364 568.97758,621.89681 568.42758,618.61836 C 566.36839,606.34388 554.82619,565.10152 553.25521,564.40475 C 552.35666,564.00621 552.06875,562.95644 552.61542,562.0719 C 553.16209,561.18738 551.72925,554.22218 549.43132,546.59372 C 545.50699,533.56602 544.68203,532.49018 535.84593,528.87694 C 522.63589,523.47508 516.15657,513.99513 516.15657,500.0693 L 516.15657,489.01569 L 505.27755,486.24199 C 488.31451,481.91714 481.66663,476.85403 474.11964,462.51169 C 469.93264,454.55471 464.30404,433.69185 464.70144,427.60243 C 464.84064,425.46958 462.73366,423.46597 459.49744,422.65373 C 448.83166,419.97679 438.14348,404.18164 446.99785,404.18164 C 448.85028,404.18164 449.74844,405.18073 448.99376,406.40181 C 448.23908,407.6229 450.71494,411.51157 454.49566,415.0433 C 459.71424,419.91818 463.42236,421.46462 469.89296,421.46462 C 477.57677,421.46462 478.72452,420.72674 481.54654,413.97271 C 485.33112,404.91494 485.46016,399.73605 482.17453,388.76959 C 479.57473,380.09224 476.67704,378.85719 465.7736,381.7792 C 459.41816,383.48239 459.62727,385.61941 466.45373,388.72975 C 470.84425,390.73021 471.69321,392.25998 470.54261,396.09772 C 467.67203,405.67247 464.3597,407.26376 453.58148,404.24604 C 442.06028,401.0203 432.85701,402.68105 432.75922,408.00345 C 432.69907,411.27728 432.3628,411.33941 430.05876,408.50239 C 428.61129,406.72008 424.62699,403.81462 421.20475,402.04579 C 414.01344,398.32889 410.00708,391.02617 412.12761,385.50014 C 413.42126,382.12895 414.38228,382.50379 420.08242,388.60293 C 427.69986,396.75359 431.37116,397.2702 435.88447,390.82654 C 440.55874,384.15308 436.65333,380.41755 425.0021,380.41755 C 418.68264,380.41755 415.54495,379.48575 415.54495,377.60906 C 415.54495,366.07103 438.12081,367.36122 449.41192,379.54453 C 454.11326,384.61736 454.75961,384.75359 459.23938,381.61583 C 461.87671,379.76857 465.76255,378.25718 467.87458,378.25718 C 469.98661,378.25718 471.71463,377.40859 471.71463,376.37143 C 471.71463,372.3432 486.37231,346.26971 487.18332,348.67538 C 487.65591,350.07718 480.94484,362.07848 478.7075,366.43951 L 474.6396,374.36867 L 480.40409,380.13316 C 488.41441,388.14348 489.99922,398.88691 485.27261,413.13688 C 482.00001,423.00324 480.48396,424.90343 474.95519,426.06863 C 471.39057,426.81988 469.93232,427.56443 471.71463,427.72322 C 474.36959,427.95973 474.42471,428.34802 472.01967,429.87186 C 466.83625,433.15612 474.078,460.5755 482.95837,471.289 C 487.49657,476.76399 497.77204,481.50749 512.7617,485.0472 C 525.9862,488.17006 561.35609,492.64992 573.25212,492.70872 L 578.65305,492.73545 L 572.91554,487.88532 C 564.56031,480.82238 562.23192,474.83225 560.87674,456.91365 C 560.17753,447.66848 558.65731,440.79021 557.27759,440.62917 C 555.96384,440.47585 550.45321,440.55176 545.03174,440.7979 C 531.28612,441.42194 529.08363,438.12925 529.72879,417.92033 C 530.01223,409.042 531.13819,399.64529 532.23092,397.03876 C 535.27864,389.76891 541.20519,383.29676 542.26288,386.08325 C 543.2975,388.80892 561.99858,387.54047 565.88141,384.48126 C 567.17445,383.4625 569.48578,377.02752 571.0177,370.18131 C 572.54962,363.33509 574.32456,356.37403 574.96202,354.71228 C 576.14601,351.62581 574.6102,351.69004 549.36792,355.78269 C 535.23857,358.07354 533.06837,347.12423 545.97555,338.66712 C 548.89301,336.75553 557.90079,334.13382 565.99285,332.84111 C 580.04468,330.59632 583.94763,328.41896 584.02089,322.78369 C 584.06184,319.63457 565.0301,321.05655 546.28074,325.60348 C 534.45853,328.4705 533.12443,328.42798 530.69595,325.10684 C 529.23525,323.1092 527.71159,320.48917 527.31004,319.28454 C 526.37923,316.49209 502.23437,333.97976 494.7719,342.85131 C 491.6623,346.54807 489.8201,350.34956 490.67812,351.29907 C 491.53614,352.24857 491.10599,352.37743 489.72221,351.58543 C 488.33844,350.79342 486.7139,351.36669 486.11212,352.85934 C 485.37343,354.69158 484.96256,354.49411 484.84741,352.2515 C 484.57012,346.8508 507.91541,326.13963 527.22374,314.65664 C 527.45453,314.51938 528.68293,306.04126 529.95352,295.81636 C 533.67804,265.84388 545.29548,237.19588 559.89551,221.98096 C 570.21725,211.22451 589.52242,201.42146 598.00846,202.62741 C 612.18939,204.64268 625.2567,212.51362 638.91738,227.26842 C 660.64716,250.73858 672.99641,278.596 672.9844,304.11667 C 672.97999,313.46565 673.78084,315.18651 680.84506,321.00732 C 685.17114,324.57193 689.71013,327.16438 690.93171,326.76831 C 692.15329,326.37224 692.48363,326.7173 691.66583,327.53512 C 690.84802,328.35293 695.48893,335.96825 701.97899,344.45804 C 708.46903,352.94782 714.55758,362.81052 715.5091,366.37513 C 717.17688,372.62302 717.62983,372.8307 728.09594,372.14645 C 739.63369,371.39214 747.48224,375.8126 745.19375,381.77629 C 744.48176,383.63169 745.55966,384.73829 748.07893,384.73829 C 753.08594,384.73829 754.45099,388.12216 753.10644,397.20122 C 751.81545,405.91877 743.53809,412.82313 734.37796,412.82313 L 727.57747,412.82313 L 728.41205,427.59299 C 729.07783,439.37559 728.34922,444.12193 724.80958,451.06018 C 716.88078,466.60192 691.34026,486.27578 679.09281,486.27578 C 675.36176,486.27578 674.68787,487.09644 675.98829,490.05643 C 682.8654,505.71001 677.63088,518.61891 660.80266,527.5059 C 650.0377,533.1909 650.37301,532.45157 643.73894,565.12936 C 641.80917,574.635 638.4294,591.20205 636.22837,601.94506 L 632.22649,621.47777 L 642.96769,627.47484 C 650.44078,631.64714 661.02412,634.69044 677.75158,637.47684 C 709.34806,642.74014 733.53492,648.27444 736.94908,651.02194 C 738.46117,652.23884 739.14231,654.98624 738.46277,657.12734 C 737.78322,659.26844 739.32303,665.12834 741.88456,670.14934 C 745.67673,677.58254 746.19818,680.87934 744.6916,687.89634 C 742.97747,695.88014 742.00241,696.79894 731.44089,700.38214 C 723.91232,702.93634 720.5077,703.37084 721.41622,701.66124 C 722.17289,700.23734 720.49791,701.65434 717.69405,704.80994 C 706.47939,717.43154 695.76364,718.46624 684.6651,707.99894 C 675.53305,699.38624 675.20491,695.73514 682.42747,683.10024 C 685.41148,677.88014 687.28943,673.04564 686.60068,672.35684 C 685.91196,671.66814 681.7575,670.91154 677.36855,670.67554 C 672.97962,670.43944 652.86183,668.57024 632.66235,666.52154 L 603.45613,664.05214 L 572.49211,670.40934 C 559.59796,674.59634 550.11932,678.68404 551.42848,679.49314 C 555.56993,682.05274 554.01817,693.18714 548.65029,699.42764 C 544.42187,704.34344 541.69657,705.43634 533.53457,705.48914 C 526.85948,705.53234 523.57506,706.47604 523.57044,708.35224 C 523.56666,709.89144 521.17733,713.53714 518.26083,716.45364 C 512.29997,722.41444 504.44245,723.13824 494.18176,718.67144 z M 517.15638,713.97744 C 522.60757,709.29204 522.08502,699.13404 516.02214,691.92874 C 509.31064,683.95254 509.13478,679.07634 515.46216,676.40114 C 525.26862,672.25504 584.91061,662.40304 600.63866,662.38004 C 621.03811,662.35014 678.23302,665.37944 686.13156,666.92654 C 690.55161,667.79244 692.07258,669.36134 692.07258,673.05504 C 692.07258,675.78574 690.8163,679.06244 689.28084,680.33674 C 687.7454,681.61114 686.24897,686.21934 685.95549,690.57744 C 685.66198,694.93544 685.21696,699.56464 684.96656,700.86444 C 684.71615,702.16434 686.9417,703.48964 689.91221,703.80964 C 692.88272,704.12954 698.76978,704.98024 702.99454,705.69984 C 711.7513,707.19154 714.91186,704.66664 716.78285,694.68454 C 718.29297,686.62774 714.13171,675.75154 710.12698,677.28824 C 708.20525,678.02574 707.18503,676.76194 707.1657,673.62024 C 707.11493,665.37354 704.77388,659.54734 701.05444,658.41104 C 691.46858,655.48254 650.59743,636.39204 638.97949,629.41644 C 626.30031,621.80357 625.9443,621.34721 628.52632,616.01617 C 629.99649,612.98072 632.72919,601.74767 634.59899,591.05383 C 636.46879,580.35999 639.95181,562.93628 642.33904,552.33449 C 644.72625,541.73271 646.38743,532.76651 646.03054,532.40962 C 645.67364,532.05273 641.54763,532.83174 636.86161,534.14077 C 628.38211,536.50953 567.85239,535.32126 555.74241,532.54832 C 550.18026,531.27471 550.13289,531.36882 551.67322,540.63323 C 553.52821,551.79025 563.57636,589.65069 567.92166,601.85569 C 569.61379,606.60851 571.26233,615.30444 571.58509,621.17998 L 572.17193,631.86284 L 558.12951,637.75934 C 530.63111,649.30634 527.83424,650.79564 529.274,653.12524 C 530.07741,654.42514 529.71058,654.83334 528.44295,654.04984 C 525.48291,652.22044 514.50251,657.91504 516.57504,660.20474 C 517.44821,661.16934 517.05069,661.32314 515.69167,660.54644 C 514.33264,659.76974 509.6436,660.62884 505.27157,662.45564 C 497.89265,665.53874 497.36487,666.36484 497.91411,673.97174 C 498.33436,679.79214 497.12836,683.91764 493.7517,688.21034 C 487.87067,695.68684 487.36715,708.83904 492.77826,713.63714 C 499.5359,719.62924 510.40422,719.78094 517.15638,713.97744 z M 547.17085,696.62074 C 552.47016,689.88374 552.88483,684.42484 548.3812,680.68714 C 546.08898,678.78474 545.77205,677.18274 547.31915,675.31854 C 549.05994,673.22104 546.94795,673.17764 537.28966,675.11234 C 530.56061,676.46034 524.09539,679.08454 522.92251,680.94394 C 519.83091,685.84514 522.95182,699.66524 527.41494,700.83744 C 537.0716,703.37364 542.82496,702.14564 547.17085,696.62074 z M 739.06067,692.14934 C 742.98469,686.88274 742.37859,678.50484 737.36746,668.74394 C 734.95093,664.03694 733.46447,658.18464 734.06419,655.73874 C 735.07189,651.62914 733.20272,650.91574 709.42253,646.33394 C 695.26989,643.60714 682.63474,641.72794 681.34441,642.15804 C 679.0324,642.92874 685.36756,646.56074 701.25416,653.57234 C 708.98778,656.98554 710.3298,658.86744 709.4973,665.13154 C 709.29371,666.66354 712.09502,671.66424 715.72245,676.24434 C 719.99703,681.64144 722.31779,687.02784 722.31779,691.55194 C 722.31779,698.26994 722.58172,698.48044 729.339,697.15304 C 733.20066,696.39434 737.57542,694.14274 739.06067,692.14934 z M 519.30388,680.70924 C 521.87122,675.76894 521.80406,675.56114 518.51632,678.27334 C 516.53948,679.90404 514.92207,682.73954 514.92207,684.57444 C 514.92207,688.49704 515.54015,687.95184 519.30388,680.70924 z M 643.46421,529.3549 C 647.02882,527.85616 651.1369,526.82303 652.59327,527.05903 C 658.55871,528.02573 668.65456,520.24502 672.97586,511.35049 C 677.05313,502.95822 677.19574,501.43209 674.43077,495.78127 C 672.36739,491.56435 669.98288,489.70855 667.13642,490.10428 C 664.81054,490.42767 655.13022,491.28517 645.62458,492.00986 C 636.11894,492.73456 627.17131,494.25302 625.74095,495.38426 C 623.28867,497.32367 557.56781,496.03507 551.18893,493.92248 C 544.28683,491.63664 521.53247,490.79995 520.30448,492.78686 C 519.57029,493.97481 520.9754,497.76365 523.42695,501.20652 C 525.87849,504.64942 527.8843,508.10273 527.8843,508.8806 C 527.8843,511.69746 523.21552,507.32524 521.38873,502.79759 C 519.54176,498.21996 519.51486,498.22571 519.37975,503.22543 C 519.17953,510.63478 525.65038,520.31452 533.19793,523.89607 C 538.88542,526.59496 554.15235,529.15437 584.05398,532.4218 C 598.72463,534.02491 637.06428,532.04571 643.46421,529.3549 z M 673.62369,485.14517 C 702.37738,478.74807 726.58701,455.12136 725.59328,434.42685 C 724.68729,415.55935 724.65529,415.46792 718.16793,413.20642 C 712.44452,411.21123 711.05592,411.76936 703.23622,419.20807 C 693.37479,428.58901 674.7896,436.32914 674.7896,431.05516 C 674.7896,429.34499 673.89672,427.94573 672.80543,427.94573 C 671.71414,427.94573 668.68472,424.48875 666.07341,420.26354 C 659.69163,409.93763 660.72098,389.20374 667.97529,381.95391 C 673.74992,376.18286 690.95312,375.55244 698.88814,380.8211 C 703.34156,383.77805 704.46806,383.79371 708.79462,380.95884 C 711.91929,378.91148 713.6763,375.60561 713.6763,371.77378 C 713.6763,364.34489 700.19163,343.81567 685.52492,328.9158 C 674.92232,318.14462 669.46776,315.36909 667.93563,319.96553 C 667.53253,321.17485 661.12959,324.00308 653.7069,326.25049 C 646.28421,328.4979 640.75739,329.45279 641.42505,328.37247 C 642.09274,327.29215 640.39117,326.40825 637.6438,326.40825 C 634.89645,326.40825 626.33261,324.61686 618.61306,322.42738 C 601.09108,317.45768 590.26384,318.4318 587.03756,325.26822 C 584.74692,330.12206 585.00833,330.27871 596.82516,331.13346 C 615.93247,332.51556 630.34537,346.05745 619.10923,352.07085 C 616.65349,353.38511 609.30628,353.2611 598.64701,351.72548 C 581.34411,349.23274 579.41131,349.65243 578.75421,356.04499 C 578.5366,358.16195 577.13887,362.81052 575.64814,366.37513 C 574.15742,369.93974 572.40086,375.52971 571.74469,378.79727 L 570.55165,384.73829 L 587.84015,384.73829 C 599.81023,384.73829 605.88135,385.64524 607.57545,387.68651 C 611.01177,391.82701 610.28027,427.77161 606.64128,433.58986 C 604.12565,437.61202 601.53263,438.20346 584.79721,438.57232 C 574.35293,438.80251 565.32817,439.4703 564.74217,440.05631 C 562.94004,441.85842 564.35867,468.04881 566.57402,473.87563 C 569.77939,482.30642 579.76358,490.34826 589.38836,492.25165 C 600.07007,494.36404 651.80437,489.99951 673.62369,485.14517 z M 598.79197,434.57639 L 604.57751,433.02241 L 604.42813,411.9498 C 604.31659,396.21652 603.4955,390.34633 601.18757,388.78217 C 598.17339,386.73935 576.72176,387.43483 550.87853,390.41321 L 538.22662,391.87132 L 539.43791,399.64676 C 540.51728,406.57536 540.32782,406.99393 537.69836,403.48991 C 535.08358,400.00547 534.66425,401.11264 534.01638,413.21159 C 532.65381,438.65723 530.3229,436.84074 563.84955,436.4608 C 579.88583,436.27907 595.60992,435.4311 598.79197,434.57639 z M 555.85863,421.35412 C 549.10271,414.59818 554.75219,402.02127 564.54284,402.02127 C 570.45942,402.02127 577.57286,408.508 577.57286,413.90332 C 577.57286,419.45474 570.41062,425.78536 564.12993,425.78536 C 562.0179,425.78536 558.29582,423.7913 555.85863,421.35412 z M 570.9815,416.26968 C 574.42765,409.8305 572.79105,406.88211 565.77062,406.88211 C 558.33442,406.88211 554.9878,411.27354 558.0556,417.00578 C 561.26451,423.00168 567.57085,422.64254 570.9815,416.26968 z M 695.07072,422.08495 C 702.02064,416.2497 707.19519,410.97005 707.19519,409.71422 C 707.19519,409.09318 703.02578,409.15652 697.92982,409.85499 C 681.19692,412.14851 677.68055,398.39986 692.83126,389.92013 C 701.88475,384.85296 701.60661,384.17204 689.08265,380.74301 C 666.49794,374.55936 655.94822,402.43794 672.99027,423.26857 C 677.30266,428.53964 678.93071,429.17538 684.26886,427.67256 C 687.70016,426.70657 692.561,424.19215 695.07072,422.08495 z M 743.4542,406.88211 C 748.65238,402.34563 751.00001,393.49296 748.18544,389.04109 C 746.46539,386.32042 746.14289,386.41918 746.11496,389.67514 C 746.00625,402.34917 731.98578,408.40433 722.72515,399.77673 C 716.52348,393.99899 716.74092,392.14318 724.53254,384.35156 C 729.53894,379.34515 732.30547,378.12665 736.35703,379.14352 C 740.49447,380.18195 741.37305,379.7596 740.39226,377.20371 C 737.84084,370.55477 720.71462,374.79878 708.27537,385.16252 C 704.71076,388.13237 699.14886,391.20767 695.91558,391.99652 C 688.44233,393.81985 684.20222,400.98481 687.93486,405.48236 C 689.88177,407.82824 693.00027,408.30404 699.77243,407.28849 C 705.0449,406.49784 710.66232,406.89541 712.9418,408.22054 C 719.49029,412.0274 738.51466,411.19287 743.4542,406.88211 z M 465.23351,396.72397 C 465.23351,392.5057 462.3575,389.62195 456.59202,388.05924 C 449.46081,386.12634 445.62368,383.7258 442.81607,379.44085 C 438.59422,372.99748 428.30196,370.51796 421.61269,374.3327 C 416.88955,377.0262 417.18616,377.23425 427.20767,378.25718 C 439.07508,379.46851 444.17951,384.27969 440.2338,390.53494 C 436.03036,397.19878 431.29247,398.88367 424.2414,396.22218 C 420.64656,394.8653 417.70533,394.60862 417.70533,395.6518 C 417.70533,398.92241 425.57099,401.93049 430.93276,400.71042 C 438.39202,399.01306 450.97129,399.51325 456.87461,401.74198 C 463.34856,404.18611 465.23351,403.05455 465.23351,396.72397 z M 740.469,395.05277 C 743.07084,387.72411 740.80561,382.57792 734.97785,382.57792 C 729.61088,382.57792 722.31779,388.30061 722.31779,392.51192 C 722.31779,396.23162 730.39896,401.71972 734.91172,401.06472 C 736.89659,400.77664 739.39737,398.07124 740.469,395.05277 z M 554.84907,345.3115 C 556.37328,340.85573 557.0058,337.21374 556.25466,337.21818 C 552.75263,337.23889 540.84653,346.11133 540.84653,348.70034 C 540.84653,358.15692 551.32221,355.62164 554.84907,345.3115 z M 571.41114,342.07094 L 575.83679,335.04973 L 569.92178,335.04973 C 563.5584,335.04973 558.30915,340.19539 558.19822,346.54194 C 558.08776,352.86183 566.3775,350.05674 571.41114,342.07094 z M 618.61993,347.96299 C 621.36464,346.14774 621.03408,345.17902 616.45956,341.63208 C 611.4758,337.76782 610.94521,337.72733 609.5902,341.10788 C 606.10812,349.79511 610.64355,353.23827 618.61993,347.96299 z M 589.6611,340.36531 L 592.33675,333.79885 L 585.20731,334.63117 C 580.20263,335.21544 577.35879,337.04174 575.665,340.7592 C 572.43063,347.85786 572.31214,347.68427 580.11878,347.28392 C 585.58685,347.0035 587.53043,345.59432 589.6611,340.36531 z M 604.4629,342.29855 C 606.43977,334.42205 602.93547,331.56295 597.26037,336.42213 C 590.94989,341.82533 591.27114,348.01197 597.86219,348.01197 C 601.647,348.01197 603.41246,346.48382 604.4629,342.29855 z M 560.28988,319.8877 C 579.61195,316.56887 614.20975,316.59441 625.92248,319.93617 C 636.04432,322.82402 636.62248,322.75049 640.39147,318.09598 C 643.49499,314.26331 644.06676,310.8927 643.12106,302.00492 C 641.31265,285.00956 630.94191,256.56554 621.57203,242.90203 C 612.34938,229.45324 596.21509,214.81585 591.63919,215.74628 C 590.02381,216.07475 588.08061,214.38521 587.32095,211.99177 C 585.95014,207.67271 585.87888,207.67111 577.8283,211.77821 C 567.603,216.99477 555.48638,230.30953 548.78227,243.69645 C 543.01321,255.21623 536.0836,275.17894 536.84711,278.07907 C 537.1195,279.11372 536.24185,286.76542 534.89677,295.08285 C 533.5517,303.40028 532.45749,313.48219 532.4652,317.48709 C 532.47908,324.69401 532.56093,324.75415 540.44353,323.34866 C 544.8239,322.56763 553.75476,321.0102 560.28988,319.8877 z M 542.70108,299.45783 C 540.63445,297.3912 549.21497,259.22323 553.33029,252.17682 C 557.96752,244.2368 564.18242,242.41467 588.88215,241.75344 C 603.24775,241.36886 608.53024,242.00963 610.70303,244.40034 C 615.18267,249.32928 624.95695,273.08949 626.99695,284.00907 C 629.79659,298.9948 627.46592,299.83607 581.8011,300.32269 C 560.9935,300.54443 543.39849,300.15524 542.70108,299.45783 z M 620.70315,292.83718 C 623.47735,290.07011 619.15832,289.68192 585.5971,289.68192 C 547.85941,289.68192 547.32765,289.74656 547.32765,294.33397 C 547.32765,298.96702 547.47111,298.97991 582.4337,297.48924 C 608.77498,296.36614 618.32953,295.20469 620.70315,292.83718 z M 622.94067,283.2008 C 622.94067,279.04466 621.50042,278.88006 585.13416,278.88006 C 548.7679,278.88006 547.32765,279.04466 547.32765,283.2008 C 547.32765,287.35695 548.7679,287.52155 585.13416,287.52155 C 621.50042,287.52155 622.94067,287.35695 622.94067,283.2008 z M 619.93125,273.30244 C 619.21001,271.42295 618.61993,269.05527 618.61993,268.04091 C 618.61993,267.02656 608.65521,266.4931 596.47612,266.85543 C 584.29702,267.21777 568.74234,267.64112 561.91016,267.79621 C 551.02226,268.04337 549.48802,268.61185 549.48802,272.39894 C 549.48802,276.54624 550.92827,276.71969 585.3653,276.71969 C 617.19311,276.71969 621.09457,276.33398 619.93125,273.30244 z M 616.42648,262.02892 C 616.2888,255.7361 612.11019,254.9 583.31579,255.40383 C 567.08693,255.6878 553.80877,256.63185 553.80877,257.50173 C 553.80877,258.37161 553.31027,260.37805 552.70099,261.96048 C 551.80211,264.29511 557.70902,264.71538 584.02639,264.18929 C 601.86463,263.8327 616.44467,262.86053 616.42648,262.02892 z M 612.13881,251.05975 C 612.13881,245.50412 605.00533,243.88487 584.10337,244.6959 C 567.32576,245.34691 561.62965,246.36921 558.75327,249.24559 C 555.24684,252.75202 556.60976,252.95559 583.59104,252.95559 C 599.29231,252.95559 612.13881,252.10246 612.13881,251.05975 z M 659.67882,319.39668 C 670.93403,312.919 672.4197,304.47902 666.25819,282.02008 C 661.2671,263.82739 650.53375,242.8937 646.67571,243.82754 C 645.32684,244.15403 644.78692,243.50909 645.47588,242.39435 C 647.555,239.03024 626.24965,217.54111 614.48893,211.14012 C 607.53687,207.35634 601.05332,205.40311 596.86541,205.83087 L 590.24011,206.50759 L 601.79552,216.13399 C 612.23955,224.83454 618.63983,232.6717 629.99329,250.66232 C 637.79658,263.02737 645.15997,288.34583 646.21071,306.4248 C 646.78044,316.22749 648.14729,324.24787 649.24813,324.24787 C 650.34899,324.24787 655.04279,322.06484 659.67882,319.39668 z "
       id="path2381"
       sodipodi:nodetypes="cssssssssssscccsssssssssssssssssssssssssscccsssssscccsssssssssssssssssssssssssssssssssssscccssssscccsssssssssssscccsssssccssssssssssssssssssssssscccssssssssccsssssccsssssssssccssccssssssssssssssccsssssssssssssssssssssscccssssssccccscccsssccsssccssccssssssccsssssssssssccsssssssssccsssccssccccsccssccccssccssccssssssssssssccsssssccsssccsssccsssssccssssccsssccsssscccsssc"
       inkscape:export-filename="/home/rover/herobot/arte/pre/robot-3-02.png"
       inkscape:export-xdpi="17.201288"
       inkscape:export-ydpi="17.201288" />
  </g>
</svg>
