<?xml version="1.0" encoding="UTF-8" standalone="no"?>
<!-- Created with Inkscape (http://www.inkscape.org/) -->
<svg
   xmlns:dc="http://purl.org/dc/elements/1.1/"
   xmlns:cc="http://web.resource.org/cc/"
   xmlns:rdf="http://www.w3.org/1999/02/22-rdf-syntax-ns#"
   xmlns:svg="http://www.w3.org/2000/svg"
   xmlns="http://www.w3.org/2000/svg"
   xmlns:sodipodi="http://sodipodi.sourceforge.net/DTD/sodipodi-0.dtd"
   xmlns:inkscape="http://www.inkscape.org/namespaces/inkscape"
   width="210mm"
   height="297mm"
   id="svg2"
   sodipodi:version="0.32"
   inkscape:version="0.45.1"
   sodipodi:docbase="/home/rover/herobot/arte"
   sodipodi:docname="robot-4.svg"
   inkscape:output_extension="org.inkscape.output.svg.inkscape">
  <defs
     id="defs4" />
  <sodipodi:namedview
     id="base"
     pagecolor="#ffffff"
     bordercolor="#666666"
     borderopacity="1.0"
     inkscape:pageopacity="0.0"
     inkscape:pageshadow="2"
     inkscape:zoom="0.71195698"
     inkscape:cx="226.90661"
     inkscape:cy="643.41209"
     inkscape:document-units="px"
     inkscape:current-layer="layer1"
     inkscape:window-width="873"
     inkscape:window-height="706"
     inkscape:window-x="0"
     inkscape:window-y="0" />
  <metadata
     id="metadata7">
    <rdf:RDF>
      <cc:Work
         rdf:about="">
        <dc:format>image/svg+xml</dc:format>
        <dc:type
           rdf:resource="http://purl.org/dc/dcmitype/StillImage" />
      </cc:Work>
    </rdf:RDF>
  </metadata>
  <g
     inkscape:label="Capa 1"
     inkscape:groupmode="layer"
     id="layer1">
    <path
       style="fill:#000000"
       d="M 351.99557,659.96706 C 344.58109,651.86628 343.28499,645.51532 343.02217,615.9967 L 342.84437,596.02845 L 326.84297,596.83648 C 312.00999,597.58552 310.82312,597.32992 310.58892,593.33601 C 310.44996,590.96633 310.55828,588.06743 310.82964,586.894 C 311.33602,584.70424 311.25219,575.92453 309.85683,485.00299 C 308.90947,423.27294 306.83045,427.94675 335.23679,427.94675 L 353.51197,427.94675 L 353.51197,402.33896 L 353.51197,376.73117 L 344.71974,368.73602 C 339.88402,364.33869 335.04134,360.40676 333.95823,359.9984 C 332.8014,359.56224 332.24774,369.89661 332.61624,385.04774 L 333.24353,410.83957 L 327.05798,412.99259 C 311.75845,418.31799 307.38069,414.30575 306.91745,394.53381 C 306.72943,386.50862 305.9873,373.03302 305.26828,364.58803 C 304.47639,355.28723 304.97275,345.0159 306.52724,338.53604 C 308.79048,329.1018 310.08895,327.38781 317.52322,324.02128 C 325.1272,320.57791 325.88243,319.53078 325.23335,313.33118 C 324.43506,305.70636 325.1282,305.2011 339.30265,303.07551 C 348.51289,301.69435 349.06523,301.24137 348.40921,295.60702 C 347.61012,288.74393 350.60465,287.30662 366.31309,287.01361 C 373.26269,286.88398 374.7356,286.37468 371.64689,285.16932 C 369.30002,284.25346 367.25984,282.40077 367.11316,281.05223 C 366.96648,279.7037 366.7167,277.40025 366.55808,275.93345 C 366.39947,274.46666 362.43912,271.6577 357.75731,269.69133 C 351.13325,266.90921 349.24493,264.96158 349.24493,260.9116 C 349.24493,254.28085 356.88283,244.46403 362.04183,244.46403 C 365.50247,244.46403 365.93731,242.86929 365.5323,231.66291 L 365.06966,218.86179 L 372.62532,218.61853 C 387.41507,218.14235 391.497,216.95265 396.90864,211.54101 C 404.63605,203.8136 418.07017,203.79801 423.12365,211.51059 C 426.35789,216.44667 427.84201,216.90365 438.86443,216.35738 C 449.87634,215.81164 451.98993,216.46035 461.07797,223.1752 C 478.50194,236.04921 483.87142,240.69344 482.69363,241.87124 C 482.06481,242.50006 483.46438,244.3552 485.80379,245.99378 C 490.79863,249.49232 491.40268,258.6619 487.04784,264.8793 C 485.24594,267.45188 484.14453,273.84882 484.30288,280.82204 L 484.56735,292.46823 L 496.37975,300.01932 C 513.32376,310.85078 529.87286,319.13723 534.56067,319.13723 C 543.08551,319.13723 544.41101,324.4957 545.59225,363.73415 C 546.2139,384.38313 546.35338,402.91415 545.90223,404.91419 C 544.9398,409.18087 530.16432,412.0596 518.74158,410.20594 C 514.69956,409.55001 511.40556,409.67305 511.42158,410.47935 C 511.52638,415.75292 514.49944,421.54619 517.10101,421.54619 C 518.95907,421.54619 519.57028,420.48953 518.64363,418.87929 C 517.79953,417.4125 517.67098,416.70057 518.35797,417.2972 C 519.04497,417.89384 520.14145,442.19929 520.7946,471.30929 C 521.44776,500.41929 522.43748,524.97329 522.99396,525.87372 C 523.55047,526.77416 524.14372,541.201 524.31229,557.93336 L 524.61881,588.35586 L 532.40691,587.0186 C 551.78072,583.69195 551.92578,583.62265 552.00495,577.65701 L 552.08054,571.95936 L 555.22407,577.29316 C 558.02476,582.04521 558.24083,575.64608 557.20509,518.62136 C 556.56571,483.41828 555.53972,449.66872 554.92512,443.62232 L 553.80769,432.62889 L 537.40049,428.22172 C 519.75547,423.48204 529.37889,423.43543 548.95837,428.16572 L 559.85528,430.79835 L 560.20204,492.84479 C 560.39276,526.97031 561.1364,560.43602 561.85456,567.21304 C 563.58252,583.51864 560.49689,587.04526 542.70423,589.10031 C 535.45696,589.93736 527.43117,591.41544 524.86914,592.38491 C 521.77103,593.55724 519.924,593.29018 519.35431,591.58755 C 518.88318,590.17953 517.91864,601.02857 517.21089,615.69652 C 515.81254,644.67604 512.49617,655.3396 504.23725,657.41247 C 501.6463,658.06274 493.31553,658.30351 485.7244,657.94749 L 471.92234,657.30016 L 468.07436,645.5658 C 464.38715,634.3217 462.74344,600.99029 465.64466,596.29602 C 466.34667,595.16013 446.52748,594.36132 417.64349,594.36132 L 368.44661,594.36132 L 368.07982,603.42878 C 366.49522,642.60149 373.04909,667.47993 382.47109,658.05792 C 386.44551,654.08352 390.47825,620.35399 388.61999,606.62906 C 387.67114,599.62098 388.00439,596.49484 389.70029,596.49484 C 392.72659,596.49484 392.41076,638.1943 389.29759,649.66235 C 385.9323,662.05915 382.20114,664.76748 368.48785,664.76748 C 358.6654,664.76748 355.56271,663.86438 351.99557,659.96706 z M 368.15418,650.5803 C 364.74264,640.87387 364.04702,634.22559 364.582,616.43947 L 365.24633,594.35231 L 359.91253,594.38594 C 346.00783,594.47363 344.97161,595.71668 345.05284,612.21169 C 345.13277,628.44134 348.98092,649.94216 353.2181,657.83354 C 355.21202,661.54704 357.67437,662.63396 364.09316,662.63396 L 372.3907,662.63396 L 368.15418,650.5803 z M 495.87129,653.26407 C 496.52831,652.60703 495.88006,650.64068 494.43076,648.89435 C 492.83333,646.96957 491.32973,635.60693 490.61253,620.04026 L 489.42941,594.36132 L 479.34718,594.36132 L 469.26495,594.36132 L 468.19076,605.54064 C 466.72999,620.7431 469.9364,644.31308 474.3899,651.10999 C 477.57104,655.96502 479.12516,656.54455 486.36117,655.57399 C 490.93471,654.96056 495.21427,653.92109 495.87129,653.26407 z M 507.89639,648.91809 C 511.93111,642.76033 515.52515,608.75861 513.71949,593.82794 C 513.51663,592.15061 495.71881,591.54447 494.10339,593.15989 C 492.45482,594.80846 496.21005,642.50279 498.45289,648.40193 C 501.13729,655.46243 503.52293,655.59283 507.89639,648.91809 z M 405.78322,591.10546 C 495.12034,588.49905 514.7266,587.75152 517.79302,586.8349 C 521.36314,585.76773 521.65281,570.05984 519.06233,517.99909 C 518.28625,502.40217 517.56966,475.15722 517.46992,457.45475 L 517.28855,425.26844 L 466.86968,426.61625 C 391.03943,428.64335 350.10956,430.0813 330.57663,431.40449 L 312.97509,432.59685 L 312.9807,470.2753 C 312.98378,490.99846 313.61778,527.44429 314.3896,551.26605 L 315.79289,594.57834 L 340.51961,593.43324 C 354.11931,592.80342 383.48793,591.75591 405.78322,591.10546 z M 429.47005,539.24272 C 428.84683,538.23434 428.06277,523.10113 427.72767,505.61337 C 427.12082,473.94299 427.13737,473.81648 431.91884,473.57537 C 434.55907,473.44221 436.71926,474.16228 436.71926,475.17551 C 436.71926,476.18872 437.5901,477.01772 438.65447,477.01772 C 439.71884,477.01772 446.92899,481.18198 454.67703,486.27165 L 468.76438,495.52558 L 463.9428,502.13253 C 451.82008,518.74418 436.13564,537.97119 433.5014,539.44959 C 431.90737,540.3442 430.09327,540.25111 429.47005,539.24272 z M 448.98609,515.95179 C 465.83946,494.58653 465.96722,495.59056 444.88369,483.71159 C 433.1616,477.10709 432.73605,477.02941 431.39675,481.24919 C 430.13623,485.22072 432.21732,534.62276 433.64514,534.62276 C 433.98223,534.62276 440.88565,526.22083 448.98609,515.95179 z M 403.39787,536.34882 C 402.53414,534.95128 402.9635,533.42914 404.35201,532.96631 C 405.74051,532.50347 406.29783,531.18837 405.59048,530.04388 C 404.88314,528.89938 404.42907,515.9417 404.58144,501.24908 L 404.85847,474.53519 L 397.85352,481.23603 C 394.0008,484.92149 386.76822,490.92327 381.78111,494.57332 C 376.79401,498.22337 372.71365,501.92934 372.71365,502.80882 C 372.71365,503.68827 379.5178,510.61784 387.83398,518.20786 C 396.15015,525.79788 402.07833,532.54927 401.00769,533.21096 C 399.93706,533.87265 392.4386,527.74041 384.34445,519.58374 C 376.2503,511.42711 368.33338,504.75348 366.7513,504.75348 C 364.39795,504.75348 364.42086,504.2074 366.87723,501.75104 C 376.76093,491.86734 394.84456,477.25765 396.17612,478.08061 C 397.03934,478.6141 399.46286,477.15309 401.56171,474.83389 C 403.66055,472.51469 406.01259,470.61716 406.78845,470.61716 C 407.56431,470.61716 408.44429,485.9785 408.74396,504.75348 C 409.25929,537.0401 408.09129,543.94293 403.39787,536.34882 z M 405.12752,424.77063 C 420.74282,424.3989 443.0179,424.00139 454.6277,423.88724 L 475.73643,423.67971 L 474.20087,364.47453 C 473.35632,331.91168 472.57816,304.2921 472.47161,303.09769 C 472.36509,301.90327 472.93627,298.30295 473.74093,295.09699 C 475.40012,288.4862 475.60748,288.54373 451.6539,288.96917 C 444.02656,289.10464 418.79755,289.35731 395.58943,289.53065 L 353.39285,289.84582 L 355.05255,344.49503 C 355.96539,374.55209 356.71225,405.6826 356.71225,413.67393 L 356.71225,428.20363 L 366.72416,426.82506 C 372.2307,426.06683 389.51221,425.14233 405.12752,424.77063 z M 411.11702,410.87859 C 411.11702,409.70516 414.80855,408.74507 419.32043,408.74507 C 424.81428,408.74507 428.79931,407.33569 431.38546,404.47803 C 435.21512,400.2463 435.11193,400.21099 418.91501,400.21099 C 402.03864,400.21099 398.92761,402.14966 406.3166,408.06179 C 409.82257,410.86701 409.79331,411.0103 405.8368,410.41161 C 398.13014,409.24545 396.69361,401.6277 396.3255,359.97448 L 395.97307,320.09443 L 402.39189,315.34879 C 409.64355,309.98741 414.83157,309.52329 427.11842,313.13676 C 431.81216,314.51716 436.13254,315.55195 436.71926,315.43631 C 437.30597,315.32067 438.11199,323.54672 438.51041,333.71642 C 441.12966,400.57355 440.70746,404.43959 430.19334,409.87665 C 423.29495,413.44396 411.11702,414.08357 411.11702,410.87859 z M 425.38568,396.12175 C 435.08572,395.96593 436.41433,395.41643 436.13264,391.67691 C 435.77701,386.9558 429.07685,386.19956 410.34803,388.76663 C 397.14726,390.576 396.76528,398.31128 409.95134,396.79995 C 412.35261,396.52472 419.29807,396.21953 425.38568,396.12175 z M 424.9849,385.27635 C 435.51026,385.27635 436.18588,384.95463 436.18588,379.94255 C 436.18588,374.67775 435.95475,374.60875 418.31765,374.60875 L 400.44942,374.60875 L 400.44942,381.276 C 400.44942,387.60545 400.78722,387.87569 407.11667,386.6098 C 410.78365,385.87641 418.82436,385.27635 424.9849,385.27635 z M 436.29122,365.91823 L 436.92994,360.42799 L 418.1563,361.37403 C 407.83079,361.89435 399.18071,362.48672 398.9339,362.69041 C 398.68708,362.89409 399.04872,365.21586 399.73753,367.8499 C 400.92348,372.38497 401.90949,372.60642 418.32121,372.02377 C 435.16652,371.42573 435.67041,371.25452 436.29122,365.91823 z M 424.68712,358.31736 C 432.43757,357.25504 434.58574,356.09751 434.58574,352.98356 C 434.58574,349.4395 432.75458,349.00651 417.76629,349.00651 C 401.5198,349.00651 400.91212,349.18821 399.92723,354.34031 C 398.98737,359.25691 399.5287,359.67411 406.84806,359.67411 C 411.2153,359.67411 419.24288,359.06357 424.68712,358.31736 z M 431.91884,344.98556 C 433.38563,344.85021 434.58574,342.33926 434.58574,339.40567 C 434.58574,334.16454 434.29168,334.07187 417.66135,334.07187 C 402.27928,334.07187 400.60584,334.485 399.29811,338.60527 C 398.47461,341.1999 398.89058,343.77606 400.27078,344.62907 C 402.24306,345.84801 420.36069,346.05209 431.91884,344.98556 z M 429.09457,329.86467 C 433.95614,328.0163 434.29071,327.22457 432.17366,322.57817 C 429.63008,316.99561 424.76182,314.94583 413.93631,314.89933 C 405.85619,314.86461 400.44942,319.61822 400.44942,326.75695 C 400.44942,331.60757 401.18968,331.93835 412.04488,331.93835 C 418.42239,331.93835 426.09475,331.00519 429.09457,329.86467 z M 504.36206,421.54619 C 509.53704,421.54619 509.53721,421.54534 508.86471,400.40435 L 508.19218,379.26251 L 497.52458,372.21965 C 491.6574,368.34608 484.63959,363.23755 481.92944,360.86738 L 477.00191,356.55796 L 477.51577,378.91786 C 477.79839,391.2158 478.43617,406.43492 478.93304,412.73811 L 479.83646,424.19846 L 489.51167,422.87233 C 494.83306,422.14296 501.51573,421.54619 504.36206,421.54619 z M 327.54233,408.98356 C 329.82124,408.79171 330.12521,402.59126 329.09677,377.27565 C 327.29907,333.02452 326.21999,325.53779 321.63964,325.53779 C 310.27035,325.53779 307.21539,340.55966 309.72743,384.11261 L 311.26626,410.79236 L 317.98786,410.0072 C 321.68473,409.57538 325.98425,409.11473 327.54233,408.98356 z M 535.78905,406.66436 L 541.26174,404.58364 L 541.23029,368.79438 C 541.19065,323.68872 540.7095,322.47097 522.73417,321.98187 C 510.9815,321.66209 509.53862,322.09232 508.42367,326.24891 C 506.02491,335.19151 507.17765,340.72459 512.45922,345.61938 C 516.15424,349.0438 517.79302,352.81449 517.79302,357.89192 C 517.79302,361.92306 518.99312,366.51421 520.45992,368.09449 C 522.59344,370.39306 522.59344,370.66657 520.45992,369.46204 C 518.99312,368.63392 517.79302,368.97311 517.79302,370.2158 C 517.79302,371.45849 519.47317,372.50577 521.52668,372.54309 C 525.0322,372.6068 525.02565,372.78892 521.41917,375.5238 C 518.29363,377.89398 517.69742,380.94541 518.21889,391.90252 C 518.80441,404.20491 519.32062,405.49587 524.19358,406.84404 C 527.12717,407.65568 529.70491,408.41545 529.92187,408.53241 C 530.13885,408.64936 532.77908,407.80876 535.78905,406.66436 z M 513.95819,396.66402 C 511.80322,390.68339 511.77873,390.70788 511.93326,398.68893 C 512.03198,403.7859 512.83709,406.02033 514.11464,404.74278 C 515.39217,403.46526 515.33441,400.48346 513.95819,396.66402 z M 513.52598,370.68972 C 513.52598,367.13706 503.1336,359.25218 500.55315,360.84699 C 498.87283,361.88549 498.47845,361.58284 499.45437,360.00376 C 500.51404,358.28916 498.21522,357.54059 491.88999,357.54059 C 481.57903,357.54059 482.36312,359.43279 495.81904,367.02233 C 504.24862,371.77686 513.52598,373.69835 513.52598,370.68972 z M 352.53961,363.94115 C 352.61858,358.00215 352.07975,357.54685 345.06764,357.6273 L 337.51057,357.71401 L 344.8973,364.02786 C 348.96,367.50048 352.32239,370.34171 352.36927,370.34171 C 352.41616,370.34171 352.49281,367.46146 352.53961,363.94115 z M 508.35823,347.90679 C 502.26449,342.2593 501.39606,335.21852 505.4205,324.08913 C 507.17191,319.24571 509.34742,317.00371 512.29577,317.00371 C 517.10931,317.00371 517.07035,316.96652 502.325,307.48467 L 496.45782,303.71184 L 496.45782,310.48369 C 496.45782,314.20821 497.17788,316.80866 498.05796,316.26247 C 498.93803,315.71629 499.47496,323.58032 499.25111,333.7381 L 498.84414,352.20679 L 505.65167,356.55151 C 512.16853,360.71069 512.48909,360.72771 513.15865,356.95006 C 513.5462,354.76356 511.4056,350.73099 508.35823,347.90679 z M 493.25754,353.77426 C 494.5321,352.83786 495.12273,342.54344 494.72459,328.20469 L 494.0581,304.20259 L 485.9868,304.20259 L 477.91548,304.20259 L 477.64625,329.80483 L 477.37702,355.40707 L 484.25052,355.3744 C 488.03095,355.35643 492.0841,354.63637 493.25754,353.77426 z M 351.77874,329.80918 L 351.11226,306.33611 L 341.57756,306.33611 C 334.99819,306.33611 331.65561,307.34526 330.7935,309.59188 C 330.10635,311.38256 330.22608,321.94348 331.05957,333.0606 L 332.57499,353.27355 L 342.5101,353.2779 L 352.44521,353.28225 L 351.77874,329.80918 z M 485.47414,300.17606 C 487.78969,298.70871 487.56614,297.76873 484.3403,295.40831 C 481.84278,293.58081 480.06703,289.23878 479.64779,283.93415 C 478.96044,275.23744 476.10916,271.49318 471.46745,273.19188 C 470.04382,273.71288 466.90803,271.63343 464.49903,268.57088 C 461.1101,264.26256 460.43115,261.26728 461.49845,255.33346 C 463.34784,245.05149 465.85622,242.36219 473.78371,242.16208 C 477.4537,242.06944 479.01629,241.4404 477.25614,240.76423 C 475.49598,240.08806 470.11664,236.32351 465.30204,232.39859 C 460.48744,228.47366 456.03884,225.26235 455.41625,225.26235 C 454.79367,225.26235 454.78428,237.59032 455.39539,252.65785 L 456.5065,280.05335 L 436.68428,281.46037 C 425.78205,282.23423 407.64873,282.94991 396.38799,283.05077 C 381.33806,283.18557 377.54476,283.72236 382.0697,285.07696 C 385.45538,286.0905 407.68077,286.42346 431.45946,285.81687 C 478.37242,284.62012 478.75577,284.70648 477.55012,296.20061 C 476.91531,302.25257 479.8633,303.73157 485.47414,300.17606 z M 443.31495,277.31124 L 453.11093,276.15946 L 452.24177,252.35004 C 451.76374,239.25486 450.71584,228.04303 449.91311,227.43486 C 449.11039,226.8267 448.45362,225.049 448.45362,223.48442 C 448.45362,221.30227 443.60875,220.66043 427.6518,220.72862 C 416.21079,220.77751 398.16296,220.85752 387.54549,220.90641 L 368.241,220.99531 L 368.64974,242.86389 C 368.87455,254.89161 369.51561,268.416 370.07432,272.9181 L 371.09015,281.10372 L 402.30456,279.78337 C 419.47249,279.05718 437.92717,277.94472 443.31495,277.31124 z M 379.37827,253.98818 C 379.31941,246.31866 378.75276,239.20467 378.11905,238.17931 C 377.48534,237.15395 377.4607,235.02827 378.0643,233.45558 C 379.05768,230.86731 406.15938,229.91976 437.25264,231.3862 L 443.11982,231.66291 L 443.11982,248.48224 C 443.11982,264.12098 442.78287,265.39186 438.3194,266.58802 C 428.32573,269.26622 415.66942,268.05502 413.35655,264.19909 C 411.22366,260.64322 411.01037,260.64322 408.87748,264.19909 C 407.11996,267.12917 403.71595,267.93275 393.06162,267.93275 L 379.48529,267.93275 L 379.37827,253.98818 z M 405.59257,260.46543 C 407.20315,254.04836 412.21338,253.52879 415.87919,259.39867 C 417.93763,262.69475 420.85461,263.66571 428.69839,263.66571 L 438.85278,263.66571 L 438.85278,256.19839 C 438.85278,249.00903 436.26507,246.42132 433.51898,250.86459 C 431.5539,254.04415 424.80931,253.44237 421.80232,249.81917 C 419.61916,247.18861 420.03415,246.31088 424.20799,244.73108 C 427.31256,243.55598 430.24976,243.62533 431.8471,244.91144 C 436.01077,248.26385 439.91141,245.64338 440.01958,239.42113 L 440.11963,233.66646 L 411.21706,233.9153 L 382.31449,234.16414 L 383.01643,249.98169 L 383.71837,265.79923 L 393.98612,265.79923 C 403.15906,265.79923 404.39661,265.23051 405.59257,260.46543 z M 389.85938,252.02481 C 386.66092,248.1709 388.71492,244.46403 394.04885,244.46403 C 396.25722,244.46403 398.68342,245.46617 399.44042,246.69101 C 400.85511,248.98004 396.9257,255.13163 394.04885,255.13163 C 393.16278,255.13163 391.27752,253.73356 389.85938,252.02481 z M 396.18238,248.73107 C 396.18238,247.55764 394.68559,246.59755 392.85618,246.59755 C 391.02677,246.59755 390.12335,247.55764 390.84857,248.73107 C 391.5738,249.90451 393.07058,250.86459 394.17477,250.86459 C 395.27895,250.86459 396.18238,249.90451 396.18238,248.73107 z M 430.3187,248.73107 C 430.3187,247.55764 428.82191,246.59755 426.9925,246.59755 C 425.1631,246.59755 424.25967,247.55764 424.9849,248.73107 C 425.71012,249.90451 427.20691,250.86459 428.31109,250.86459 C 429.41527,250.86459 430.3187,249.90451 430.3187,248.73107 z M 482.00911,262.90511 C 487.20609,256.45763 486.66727,251.94912 480.35604,249.07353 C 470.74898,244.69627 467.19488,245.89681 465.66815,254.03497 C 462.85427,269.03426 472.74233,274.40167 482.00911,262.90511 z M 365.89555,256.73848 C 366.52157,247.01001 366.36903,246.7132 361.62851,248.43569 C 358.92457,249.41817 355.42573,252.8378 353.85332,256.03487 C 351.32108,261.18349 351.44297,262.19111 354.92008,264.85293 C 361.86593,270.17017 365.18936,267.71308 365.89555,256.73848 z M 420.06941,214.59475 C 417.46444,207.49269 408.48865,206.04987 402.21755,211.72514 C 396.34606,217.03876 397.2886,217.79503 409.78244,217.79503 C 419.06918,217.79503 421.02057,217.18795 420.06941,214.59475 z "
       id="path3184" />
  </g>
</svg>
