<?xml version="1.0" encoding="UTF-8" standalone="no"?>
<!-- Created with Inkscape (http://www.inkscape.org/) -->
<svg
   xmlns:dc="http://purl.org/dc/elements/1.1/"
   xmlns:cc="http://web.resource.org/cc/"
   xmlns:rdf="http://www.w3.org/1999/02/22-rdf-syntax-ns#"
   xmlns:svg="http://www.w3.org/2000/svg"
   xmlns="http://www.w3.org/2000/svg"
   xmlns:sodipodi="http://sodipodi.sourceforge.net/DTD/sodipodi-0.dtd"
   xmlns:inkscape="http://www.inkscape.org/namespaces/inkscape"
   width="210mm"
   height="297mm"
   id="svg2"
   sodipodi:version="0.32"
   inkscape:version="0.45.1"
   sodipodi:docbase="/home/rover/herobot/arte"
   sodipodi:docname="robot-1.svg"
   inkscape:output_extension="org.inkscape.output.svg.inkscape">
  <defs
     id="defs4" />
  <sodipodi:namedview
     id="base"
     pagecolor="#ffffff"
     bordercolor="#666666"
     borderopacity="1.0"
     inkscape:pageopacity="0.0"
     inkscape:pageshadow="2"
     inkscape:zoom="0.71195698"
     inkscape:cx="226.90661"
     inkscape:cy="643.41209"
     inkscape:document-units="px"
     inkscape:current-layer="layer1"
     inkscape:window-width="873"
     inkscape:window-height="706"
     inkscape:window-x="0"
     inkscape:window-y="0" />
  <metadata
     id="metadata7">
    <rdf:RDF>
      <cc:Work
         rdf:about="">
        <dc:format>image/svg+xml</dc:format>
        <dc:type
           rdf:resource="http://purl.org/dc/dcmitype/StillImage" />
      </cc:Work>
    </rdf:RDF>
  </metadata>
  <g
     inkscape:label="Capa 1"
     inkscape:groupmode="layer"
     id="layer1">
    <path
       style="fill:#000000"
       d="M 337.53141,677.09038 C 337.02434,676.5833 331.61933,675.8877 325.52028,675.54459 C 315.17001,674.96233 314.26374,674.69597 311.91954,671.54728 C 308.85903,667.43644 307.72524,654.64231 309.85073,648.202 C 310.64118,645.80692 313.00295,642.0409 315.09911,639.83307 L 318.91032,635.81882 L 319.40635,558.83687 L 319.90239,481.85492 L 310.32134,478.39241 C 297.75984,473.8528 287.68403,469.04797 285.72561,466.66349 C 284.6207,465.3182 284.34604,462.20102 284.80313,456.19427 C 285.16113,451.48981 285.79241,427.91007 286.20597,403.79484 C 286.97651,358.86403 286.19152,334.0191 284.0433,335.34677 C 283.39007,335.75048 283.18666,336.9435 283.59127,337.99789 C 283.99588,339.0523 283.81781,340.23389 283.19556,340.62365 C 281.29809,341.81218 279.61759,368.23329 278.80835,409.60015 C 278.53519,423.56343 277.8116,434.4001 277.10523,435.10648 C 276.28229,435.92942 276.59215,437.10221 278.04435,438.66097 C 284.3228,445.40009 283.57144,460.17915 276.65447,465.9994 C 270.65899,471.04426 268.96996,469.76769 268.96996,460.19144 C 268.96996,447.86418 264.2394,444.41222 260.29222,453.85914 C 258.79231,457.44894 258.82858,458.45818 260.59025,462.15245 C 263.2722,467.77657 262.10129,470.77793 257.65567,469.67459 C 253.03485,468.52776 248.90159,464.47205 246.17482,458.40915 C 243.39627,452.23111 244.41632,445.70139 249.25305,438.70418 C 250.97402,436.21449 252.50512,432.11131 252.67589,429.53136 C 252.84584,426.96391 253.36374,424.62914 253.8268,424.34295 C 254.28985,424.05677 254.70421,407.55651 254.7476,387.67571 C 254.83263,348.71487 255.36497,338.99912 258.18818,324.88143 C 261.24639,309.58858 262.86576,307.69849 275.33752,304.86502 L 282.41125,303.25793 L 282.18541,285.21426 C 281.94659,266.13424 282.80239,261.90639 287.17895,260.54489 C 288.5891,260.10621 291.72573,258.18758 294.14923,256.28126 C 296.57273,254.37494 300.04252,252.24991 301.85986,251.55895 C 303.6772,250.868 304.85534,249.80305 304.47793,249.19241 C 304.10053,248.58176 304.89225,248.36993 306.23731,248.72167 C 309.19725,249.49571 309.29338,248.7 306.71526,244.7653 C 304.59765,241.53342 304.96502,238.38601 308.34359,230.81479 C 309.40985,228.42535 310.21612,226.11434 310.1353,225.67922 C 310.05448,225.2441 311.09631,225.17783 312.45048,225.53195 C 314.84521,226.15819 314.90261,225.70335 314.5471,208.91785 C 314.32632,198.4939 313.6977,191.64956 312.95964,191.63382 C 312.28758,191.61949 312.56251,191.07473 313.57061,190.42325 C 314.57871,189.77177 314.96002,189.23032 314.41798,189.22002 C 312.24694,189.1788 317.93656,181.87748 321.73287,179.83304 C 323.96427,178.63135 325.78997,177.26701 325.78997,176.80117 C 325.78997,176.33534 327.57705,175.59452 329.76126,175.15491 C 336.83139,173.73194 338.00932,173.1824 338.00932,171.30691 C 338.00932,170.2924 339.61664,167.85504 341.58114,165.89054 C 345.41258,162.0591 351.80921,161.12182 358.01742,163.48217 C 362.0382,165.01087 363.25058,167.5858 363.92011,176.01877 C 364.46297,182.85611 364.40019,183.02398 360.83494,184.26683 C 356.89341,185.64085 344.27523,185.98766 341.19734,184.80656 C 340.15255,184.40564 338.94664,182.20615 338.51754,179.91882 C 337.51255,174.56178 335.54874,174.58998 326.32905,180.09387 C 314.21373,187.32635 313.20533,190.36278 321.81868,193.67509 C 329.01271,196.44159 356.20626,196.84962 364.89191,194.32139 C 390.95723,186.73427 395.05823,184.67266 390.19552,181.60101 C 385.38983,178.56538 373.33829,174.53808 369.05996,174.53808 C 366.76753,174.53808 364.89191,173.98821 364.89191,173.31615 C 364.89191,171.32737 369.94619,171.9026 380.25625,175.06479 C 398.4708,180.65134 399.03473,181.09614 397.94722,189.01845 C 397.82265,189.92598 398.30736,190.30593 399.02438,189.86279 C 399.74139,189.41965 400.32804,189.60695 400.32804,190.27902 C 400.32804,190.95108 399.8324,191.80728 399.2266,192.18168 C 398.62082,192.55608 398.35327,197.50035 398.63207,203.16894 C 398.93733,209.37557 398.64635,213.77994 397.90061,214.24084 C 397.10354,214.73346 396.66224,211.52666 396.66224,205.24191 L 396.66224,195.47763 L 387.65965,200.19152 C 381.05814,203.64817 375.95993,205.29978 368.54444,206.38407 C 355.11128,208.34826 333.43235,207.2763 324.3276,204.19767 L 317.36653,201.8439 L 316.99599,217.21196 C 316.46116,239.39398 315.98237,238.12556 324.61871,237.40626 C 328.5906,237.07546 334.7405,236.25018 338.28515,235.57231 C 344.19406,234.4423 344.90778,234.55733 346.86836,236.95562 C 349.4155,240.07143 349.47032,240.64595 347.47932,243.35818 C 345.57832,245.94781 342.63359,246.61227 329.15029,247.49401 L 318.45835,248.19321 L 318.45835,258.97404 L 318.45835,269.75487 L 323.04061,270.8776 C 336.35452,274.1397 345.7353,275.03341 358.93753,274.29754 C 366.58086,273.8715 374.20917,273.19387 375.88933,272.7917 C 383.38807,270.99672 386.85841,269.56985 386.22357,268.54265 C 385.84644,267.93245 386.25379,267.70755 387.12877,268.04289 C 388.00376,268.37823 390.91914,266.73287 393.6074,264.38653 C 398.66318,259.9738 400.32804,259.20514 400.32804,261.28365 C 400.32804,263.54659 388.74705,270.99968 381.38804,273.47272 C 377.35565,274.82783 370.20733,276.15124 365.50288,276.41363 C 354.15837,277.04636 329.08626,275.37392 321.81868,273.49966 L 316.01448,272.00282 L 316.01448,261.84377 C 316.01448,252.67722 315.7699,251.60709 313.51097,250.89014 C 309.13125,249.50007 298.92286,254.17236 291.95238,260.75732 C 288.35296,264.15767 285.00865,266.63815 284.52058,266.26951 C 284.03251,265.90087 285.50661,267.633 287.79636,270.11869 C 292.69005,275.43117 307.31952,283.07133 316.65389,285.18939 C 323.52871,286.74935 371.07391,287.17521 381.85836,285.77345 C 415.34596,281.42067 433.8242,273.72725 436.51195,263.01838 C 437.45803,259.24891 435.73226,257.15369 427.04025,251.519 C 417.7592,245.50247 407.25235,242.20303 403.22194,244.03941 C 401.57096,244.79165 400.30959,246.09518 400.41888,246.93615 C 401.02058,251.56589 400.14575,258.85165 398.98818,258.85165 C 398.14105,258.85165 397.80402,256.65075 398.07173,252.867 L 398.49514,246.88236 L 394.34062,247.55791 C 389.13096,248.40503 386.89449,245.7724 386.86804,238.76164 C 386.85775,236.03382 386.37979,233.06107 385.80591,232.15552 C 384.47254,230.05155 388.05948,216.36425 390.15495,215.56014 C 391.00528,215.23384 394.44552,216.10743 397.79992,217.50145 C 404.73359,220.38296 406.73457,224.20686 406.96251,235.01126 C 407.0696,240.0872 407.49687,241.1754 409.51379,241.50904 C 416.74597,242.70539 428.33571,248.39539 433.70254,253.38455 C 436.93707,256.39145 439.99767,258.85165 440.50391,258.85165 C 441.3988,258.85165 441.05334,301.31417 440.12365,305.59069 C 439.81149,307.02665 440.40439,307.72908 441.92864,307.72908 C 445.44238,307.72908 457.06549,310.97349 461.18679,313.10469 C 466.31459,315.75638 470.94837,325.80058 473.05901,338.83895 C 476.16408,358.0204 479.70545,386.41332 480.46243,398.19586 C 480.87082,404.55279 481.40067,410.07057 481.63985,410.45757 C 481.87904,410.84458 482.62628,414.58601 483.30038,418.77186 C 484.07389,423.57489 485.39544,427.14818 486.88273,428.45806 C 489.61294,430.86257 492.09098,442.22347 491.06686,447.64072 C 490.02154,453.17011 487.43601,456.40038 481.31913,459.81918 C 475.19355,463.24282 472.42373,463.64955 470.22276,461.44859 C 468.45186,459.67769 468.25955,453.13943 469.97838,453.13943 C 470.65044,453.13943 471.20031,454.78904 471.20031,456.80523 C 471.20031,459.91292 471.67125,460.47104 474.2935,460.47104 C 475.99476,460.47104 477.70199,459.64939 478.08735,458.64515 C 478.47271,457.64092 479.21562,457.08355 479.73828,457.40657 C 481.12855,458.26581 487.23311,453.14494 486.40871,451.81101 C 486.02368,451.18802 486.46658,450.38744 487.39295,450.03196 C 489.69965,449.1468 489.02261,442.27836 485.94221,435.31462 C 483.76158,430.38493 483.15494,429.85195 480.69863,430.70771 C 479.17091,431.23996 473.74428,431.69345 468.63948,431.71548 C 458.52525,431.75914 454.06843,433.66875 456.69485,436.83339 C 457.80797,438.17462 457.71635,438.38312 456.25955,437.82409 C 453.97543,436.94761 452.90779,440.45176 452.89631,448.86265 C 452.88874,454.41139 453.25877,455.22476 456.92653,457.72169 C 459.14774,459.23383 461.61839,460.47104 462.41689,460.47104 C 464.36665,460.47104 464.18057,456.89133 462.0358,453.13943 C 459.71463,449.07897 459.74817,442.11306 462.10508,438.74809 C 464.00971,436.02884 469.09829,435.12128 472.01989,436.97973 C 474.56645,438.59963 475.06093,443.85248 473.0829,448.27203 L 471.17787,452.52846 L 471.91612,448.05244 C 473.01398,441.39604 471.69276,438.4762 467.58289,438.4762 C 465.56168,438.4762 463.82266,439.27757 463.38847,440.40904 C 462.07584,443.82971 462.59572,450.21778 464.4969,454.02878 C 466.89917,458.84424 465.75675,461.69298 461.42332,461.69298 C 456.22274,461.69298 450.42741,455.67017 450.42741,450.26545 C 450.42741,442.48349 452.91612,433.65044 455.49801,432.26866 C 457.30478,431.3017 457.58419,430.57335 456.60223,429.39017 C 455.87919,428.51897 454.76998,423.47101 454.13729,418.17248 C 453.50459,412.87394 452.64075,405.78942 452.21763,402.4291 C 451.79451,399.06877 450.88665,391.09564 450.20014,384.71103 C 449.51364,378.32641 448.59659,372.8277 448.16227,372.49167 C 447.72793,372.15564 447.30304,370.50602 447.21804,368.82586 C 446.79691,360.50014 445.64462,351.41697 444.91795,350.69493 C 444.47012,350.24994 444.4218,366.10706 444.81058,385.93296 C 446.1282,453.12388 446.02447,459.13145 443.49838,461.92701 C 440.87566,464.82954 432.24007,469.50513 421.10095,474.05374 L 413.15837,477.29705 L 412.38971,507.06954 C 411.96694,523.4444 411.60965,550.31386 411.59572,566.77945 C 411.5818,583.24503 411.4709,600.5422 411.34929,605.21761 C 411.01756,617.97132 412.50049,630.32011 414.36378,630.32011 C 417.00567,630.32011 419.77654,635.894 421.86935,645.41828 C 424.25354,656.26868 423.46828,661.99613 418.89705,667.09708 C 414.78932,671.68085 409.56985,672.90227 395.11231,672.66298 C 383.91889,672.47771 383.86108,672.46071 382.019,668.81108 C 379.14794,663.12279 379.48279,645.30109 382.54806,640.65282 C 384.83089,637.19106 384.94305,634.09141 385.24334,566.16848 C 385.41567,527.18873 385.87983,492.64705 386.27479,489.40918 L 386.9929,483.52216 L 381.32504,484.3721 C 378.20771,484.83958 368.35118,485.28925 359.42166,485.37139 L 343.18615,485.52072 L 343.01973,497.12911 C 342.92819,503.51373 342.54316,519.89924 342.1641,533.54136 C 341.65359,551.91448 341.85514,558.80336 342.9415,560.11234 C 345.56791,563.27698 341.44344,567.5865 334.32779,569.11254 C 330.90996,569.84553 326.76593,570.44526 325.11885,570.44526 C 322.30266,570.44526 322.12416,570.84682 322.12416,577.1823 L 322.12416,583.91935 L 326.70642,582.0531 C 331.78733,579.98376 338.48228,573.42101 337.36183,571.60809 C 336.69769,570.53349 338.21965,570.03651 339.98729,570.75074 C 340.4031,570.91876 340.69628,585.95706 340.6388,604.16919 L 340.53429,637.28216 L 343.3919,638.81151 C 346.67743,640.56986 348.98814,647.14956 349.91967,657.39917 C 350.70886,666.08249 349.6905,670.26228 346.54229,671.26149 C 345.18996,671.69069 344.37442,672.51257 344.72997,673.08786 C 345.08552,673.66314 344.13123,674.52248 342.60933,674.99747 C 341.08742,675.47248 339.52973,676.34513 339.14779,676.93672 C 338.76586,677.52831 338.03848,677.59745 337.53141,677.09038 z M 337.99026,672.04064 C 332.58743,669.16121 330.16811,662.75833 331.26506,654.24198 C 331.69122,650.93342 332.57164,647.23284 333.22154,646.01848 C 334.25855,644.08081 333.98823,643.89322 331.01303,644.48586 C 329.14844,644.85727 325.97326,644.48248 323.95706,643.65299 C 321.94087,642.8235 319.83798,642.24724 319.28398,642.37242 C 318.72998,642.4976 318.62496,642.03651 319.05061,641.34781 C 319.47626,640.65909 319.06851,640.09559 318.14451,640.09559 C 317.2205,640.09559 315.2635,642.23248 313.79562,644.84422 C 310.50528,650.69858 310.14592,662.70901 313.07631,668.88436 C 315.02558,672.99213 315.02748,672.99285 324.99019,673.40258 C 330.47055,673.62795 336.59552,673.92427 338.60123,674.06107 L 342.24797,674.30979 L 337.99026,672.04064 z M 402.23423,670.36704 C 402.63886,669.96241 402.30182,668.38301 401.48526,666.85725 C 400.47235,664.96462 400.24067,660.97009 400.75612,654.28591 C 401.35277,646.54861 402.15971,643.5778 404.59399,640.15652 C 408.00146,635.36747 407.00426,634.17055 401.50473,636.44853 C 399.41135,637.31564 395.7485,637.62847 392.70778,637.19985 C 388.04246,636.54223 387.24846,636.80911 385.11373,639.75241 C 380.88262,645.58616 381.03665,665.84125 385.34489,670.14949 C 386.85411,671.65872 389.00472,672.00645 394.411,671.6154 C 398.30915,671.33342 401.82961,670.77168 402.23423,670.36704 z M 345.44167,669.36814 C 347.52514,668.2531 347.75444,667.10801 347.26097,660.28271 C 346.95042,655.98745 345.58034,650.16328 344.21633,647.34012 C 342.85233,644.51695 342.08769,641.63855 342.51715,640.94369 C 343.00222,640.15881 342.48995,639.99035 341.16468,640.4989 C 339.99136,640.94915 338.58619,641.31753 338.04206,641.31753 C 336.20419,641.31753 333.12155,651.10263 333.12615,656.92194 C 333.13438,667.33624 338.70987,672.97089 345.44167,669.36814 z M 416.81777,666.67269 C 421.17295,662.91291 422.17083,653.29008 419.25704,643.15043 C 417.01604,635.35204 414.50828,631.54204 411.61631,631.54204 C 410.48311,631.54204 410.11641,630.82711 410.60137,629.56332 C 411.22825,627.92971 410.77154,627.72743 407.98275,628.40349 C 400.66288,630.17797 392.08534,630.5897 391.23116,629.20759 C 390.61682,628.21359 391.75615,628.03981 395.23763,628.59653 C 398.66366,629.14437 401.58185,628.7218 405.104,627.16783 C 409.90429,625.04995 410.09744,624.74953 409.90637,619.69808 C 409.79687,616.80335 409.271,614.43494 408.73773,614.43494 C 408.20448,614.43494 405.74249,615.80962 403.26663,617.48978 C 400.38788,619.44335 397.06451,620.54462 394.04784,620.54462 C 389.35904,620.54462 389.33062,620.57407 389.33062,625.43236 C 389.33062,628.12062 388.78075,630.32011 388.10869,630.32011 C 387.43662,630.32011 386.88765,631.28238 386.88875,632.45849 C 386.89045,634.2667 388.06968,634.59687 394.52585,634.59677 C 398.72516,634.59672 403.15207,634.00885 404.36344,633.2904 C 407.71072,631.30514 413.76934,632.58311 413.76934,635.27442 C 413.76934,636.50261 413.21946,637.84733 412.5474,638.26269 C 411.87534,638.67805 411.32546,638.16063 411.32546,637.11287 C 411.32546,633.61669 409.30134,635.14906 406.17501,641.01204 C 402.18579,648.49322 400.89373,659.37636 403.3086,665.15597 C 404.86284,668.87578 405.63798,669.42205 409.36207,669.42205 C 412.033,669.42205 414.82616,668.39204 416.81777,666.67269 z M 333.90034,638.27133 C 336.82796,637.0481 338.05233,635.86048 337.60029,634.68249 C 337.2287,633.71414 337.58113,632.65327 338.38345,632.32498 C 339.34527,631.93144 339.42108,631.38419 338.606,630.71862 C 337.18653,629.5595 336.93303,621.76656 338.31481,621.76656 C 338.81886,621.76656 339.23126,620.39188 339.23126,618.71172 C 339.23126,615.02213 338.84006,614.97055 334.59952,618.10101 C 330.43647,621.17426 323.63075,623.2157 322.67949,621.67654 C 322.29473,621.05398 323.13943,620.54462 324.5566,620.54462 C 327.66892,620.54462 333.32146,617.74975 335.48742,615.13994 C 336.3547,614.09493 337.54556,613.53736 338.13378,613.90089 C 338.722,614.26443 338.8758,613.7085 338.47556,612.66551 C 338.07532,611.6225 337.22436,610.76913 336.58454,610.76913 C 335.94471,610.76913 335.7666,610.21029 336.18874,609.52727 C 336.61087,608.84424 337.45937,608.59635 338.0743,608.97638 C 338.72178,609.37656 339.07196,605.78499 338.90632,600.44284 C 338.749,595.36934 338.59909,591.21826 338.57318,591.21822 C 338.54726,591.21819 336.36898,592.3179 333.73255,593.66203 C 331.09612,595.00616 327.81809,596.06365 326.44805,596.012 C 324.93425,595.95492 325.73123,595.35573 328.47966,594.48458 C 336.2991,592.00608 338.81194,588.84548 339.06264,581.1735 L 339.28266,574.44057 L 334.37763,579.10662 C 331.67105,581.68132 327.68888,584.10763 325.4929,584.52005 L 321.51319,585.26743 L 321.51319,595.4703 C 321.51319,601.08188 321.88875,606.04976 322.34777,606.51003 C 323.55117,607.71671 331.17282,604.96551 334.41398,602.15446 C 335.93485,600.83543 337.49523,600.07224 337.88149,600.4585 C 339.90671,602.48373 326.1428,609.19103 322.68473,607.86404 C 321.17801,607.28586 320.9026,609.67905 320.90467,623.33232 L 320.90712,639.48462 L 325.21595,639.79209 C 327.58581,639.96119 331.49379,639.27685 333.90034,638.27133 z M 324.87351,636.7115 C 323.36137,636.46307 322.12416,635.79966 322.12416,635.23726 C 322.12416,634.67485 323.22772,634.50329 324.57651,634.85602 C 327.30224,635.56881 334.34352,633.07281 334.34352,631.3938 C 334.34352,630.80327 334.89339,630.32011 335.56545,630.32011 C 336.23752,630.32011 336.78739,630.8588 336.78739,631.51721 C 336.78739,633.3677 327.95624,637.21797 324.87351,636.7115 z M 401.09374,616.97921 C 403.86711,615.71982 406.51699,614.07332 406.98237,613.3203 C 407.44776,612.5673 408.40994,612.31053 409.12054,612.74972 C 410.0246,613.30846 410.03036,612.86528 409.13973,611.27378 C 408.31686,609.80343 408.27743,608.2322 409.0282,606.82939 C 410.44027,604.19092 410.12127,604.15836 405.66095,606.48575 C 400.63468,609.10846 394.28115,610.09876 392.68988,608.50749 C 391.70993,607.52753 392.48235,607.19904 395.53052,607.29941 C 397.83312,607.37522 401.75898,606.57376 404.25465,605.5184 L 408.79222,603.59956 L 408.73148,595.68434 L 408.67072,587.7691 L 404.32887,590.71557 C 401.16998,592.85925 398.45208,593.6248 394.35333,593.52537 L 388.71965,593.38871 L 394.81515,592.22628 C 401.58199,590.93583 408.21743,586.55825 409.22045,582.72272 C 409.98619,579.79455 409.35278,579.68872 405.21579,582.05364 C 401.82493,583.99204 395.68999,584.39503 393.239,582.84039 C 392.26185,582.22059 393.81119,581.79896 397.25736,581.74687 C 405.26668,581.62578 408.88159,578.91411 408.88159,573.02716 L 408.88159,568.33378 L 403.17579,571.22242 C 397.49938,574.09618 392.42578,574.94304 391.36017,573.19461 C 391.05298,572.69056 392.98403,572.15039 395.6514,571.99424 C 400.62997,571.70279 408.19796,567.41705 407.04066,565.54454 C 406.68442,564.96811 404.61189,564.78552 402.43505,565.13877 C 400.25821,565.49202 396.55666,565.23047 394.20937,564.55755 C 390.14975,563.39372 390.3027,563.32868 397.34514,563.22385 C 406.10473,563.09346 409.16732,561.24925 409.48473,555.91372 C 409.70868,552.14909 409.57964,552.03755 405.93905,552.84908 C 401.7909,553.77373 392.94802,553.69705 391.979,552.72803 C 391.6425,552.39153 394.07072,552.10812 397.37503,552.09821 C 400.67935,552.0883 404.72041,551.40096 406.35517,550.57079 C 409.04249,549.20609 409.37407,548.1544 409.81375,539.60129 L 410.30004,530.1412 L 405.00856,530.79425 C 402.09824,531.15342 398.06746,530.89026 396.05127,530.20943 C 392.4131,528.9809 392.42233,528.97257 397.2732,529.1063 C 408.65767,529.42013 409.59294,528.87541 410.73274,521.26701 L 411.60155,515.4675 L 407.22598,517.29572 C 402.22435,519.38554 392.42966,519.80764 393.61971,517.88209 C 394.04184,517.19906 394.91929,516.96905 395.56958,517.37095 C 397.51538,518.57352 406.11122,516.64247 408.58278,514.44753 C 410.131,513.0726 410.97639,510.48092 411.16484,506.53177 L 411.44504,500.66023 L 408.36547,502.67805 C 404.87546,504.96478 394.25794,505.34226 390.87481,503.29988 C 389.25958,502.32477 390.32264,502.19302 395.11804,502.774 C 402.10647,503.62067 408.88159,501.67124 408.88159,498.81377 C 408.88159,497.88721 409.42479,497.12911 410.08869,497.12911 C 410.75261,497.12911 411.12702,495.34203 410.92075,493.15782 C 410.65944,490.39093 410.01541,489.34331 408.79719,489.70346 C 407.83552,489.98777 402.83106,490.4564 397.67616,490.74487 L 388.30365,491.26934 L 387.54426,496.94858 C 387.12659,500.07217 387.35572,511.42576 388.05342,522.1788 C 388.78076,533.38852 389.01285,557.72899 388.59741,579.23018 C 388.1989,599.8554 388.2333,617.31381 388.67386,618.02664 C 389.89385,620.00063 395.47703,619.52978 401.09374,616.97921 z M 392.40549,543.53026 C 392.83186,542.84037 393.82659,542.35565 394.61599,542.4531 C 399.07574,543.00366 403.05615,542.0565 405.17122,539.94143 C 406.49083,538.62182 407.89273,538.06347 408.28653,538.70067 C 409.47229,540.61926 401.26772,544.77515 396.28463,544.78004 C 393.41176,544.78286 391.92699,544.30449 392.40549,543.53026 z M 331.82851,567.90249 C 338.91317,566.3831 339.42341,565.83246 339.66447,559.44611 L 339.84223,554.7366 L 336.03219,557.09222 C 333.87873,558.42363 330.02688,559.44783 327.17316,559.44783 L 322.12416,559.44783 L 322.12416,564.33558 C 322.12416,569.84201 322.3676,569.93149 331.82851,567.90249 z M 410.10353,563.15199 C 410.10353,562.50102 409.27872,562.28491 408.27062,562.67175 C 407.26253,563.05861 406.43772,563.59121 406.43772,563.85534 C 406.43772,564.11947 407.26253,564.33558 408.27062,564.33558 C 409.27872,564.33558 410.10353,563.80296 410.10353,563.15199 z M 334.37711,556.16127 C 338.62327,553.25955 339.83798,550.96018 339.87059,545.76246 C 339.89721,541.52091 339.76586,541.36206 337.74459,543.19129 C 336.50338,544.31456 332.86578,545.29861 329.16267,545.51289 C 323.31175,545.85145 323.17362,545.80377 327.62287,544.98148 C 330.31113,544.48464 334.16023,543.09978 336.17642,541.90399 C 339.23279,540.09129 339.89288,538.85725 340.14692,534.48123 L 340.45162,529.23263 L 334.7466,532.12088 C 331.60885,533.70941 327.48517,535.00912 325.58288,535.00912 L 322.12416,535.00912 L 322.12416,545.80288 C 322.12416,551.73946 322.49074,556.96324 322.93878,557.41127 C 324.49388,558.96637 331.37228,558.21468 334.37711,556.16127 z M 332.86478,531.44255 C 337.89583,528.84062 340.99021,525.56592 341.20683,522.61435 C 341.3357,520.85854 340.90206,520.84616 336.72622,522.48648 C 333.18345,523.87812 331.00827,524.01433 327.41904,523.06927 L 322.73513,521.83599 L 329.18236,521.86228 C 335.57065,521.88832 341.27599,518.99997 339.7413,516.51677 C 339.38145,515.93453 339.66935,515.45815 340.38108,515.45815 C 341.73157,515.45815 342.26602,500.57118 340.96233,499.2675 C 340.5703,498.87547 339.19562,499.60863 337.9075,500.89674 C 336.139,502.66524 333.99442,503.19881 329.15029,503.07553 L 322.73513,502.91225 L 328.52244,502.10477 C 336.02793,501.05756 340.9512,497.40523 341.43991,492.52194 L 341.81566,488.76736 L 337.16314,491.19604 C 333.81892,492.94177 330.89159,493.48192 326.75313,493.1169 L 320.99566,492.60909 L 321.05575,500.43866 C 321.11165,507.72273 321.33732,508.35245 324.29472,509.47685 C 326.0431,510.14158 329.9816,510.5221 333.04694,510.32245 C 337.48212,510.03357 338.58563,509.52274 338.45058,507.82105 C 338.35724,506.64494 338.80788,505.68266 339.45202,505.68266 C 340.09615,505.68266 340.44746,506.88286 340.2327,508.34976 C 339.6176,512.55115 330.50534,513.994 322.93446,511.08878 C 321.36386,510.48608 320.25651,527.38386 321.59106,531.58865 C 322.50895,534.48067 327.10546,534.4211 332.86478,531.44255 z M 333.6677,491.01943 C 334.53019,491.01943 336.78865,489.79802 338.68648,488.30519 L 342.13708,485.59094 L 334.87998,484.08174 C 330.88857,483.25166 326.07589,482.54852 324.18513,482.5192 C 321.03477,482.47034 320.77939,482.79742 321.13029,486.43184 C 321.44835,489.72621 322.13393,490.52877 325.179,491.17132 C 327.19519,491.59676 329.57712,491.73664 330.47216,491.48214 C 331.36721,491.22765 332.8052,491.01943 333.6677,491.01943 z M 405.05924,488.44704 C 409.03934,487.05956 411.32546,484.18746 411.32546,480.57462 C 411.32546,478.98631 410.56623,478.67599 407.96514,479.20113 C 406.11696,479.57426 401.03066,480.60044 396.66224,481.48153 C 389.37339,482.95164 388.68783,483.3598 388.33301,486.4405 C 387.9534,489.73633 388.06698,489.7975 394.56582,489.7975 C 398.20653,489.7975 402.92857,489.18979 405.05924,488.44704 z M 381.38804,481.32287 C 400.0313,479.78075 429.99003,470.08933 427.67803,466.34842 C 427.15911,465.5088 427.38656,465.32329 428.26739,465.86767 C 429.07991,466.36983 432.29279,464.85218 435.67813,462.36711 C 439.89872,459.26891 441.86171,458.43571 442.35982,459.53103 C 442.74775,460.38406 442.73429,458.60759 442.32991,455.5833 C 441.92552,452.55901 441.47181,449.94474 441.32165,449.7738 C 441.17149,449.60288 439.44723,450.23748 437.48995,451.18402 C 426.70703,456.39872 420.60939,458.65221 410.48639,461.16366 C 370.93308,470.9766 321.6501,469.58865 295.54706,457.92664 C 287.12166,454.16244 287.1883,454.11309 288.66254,463.02496 C 289.30929,466.93458 290.13872,467.75626 296.28739,470.57856 C 323.14617,482.90702 338.6195,484.86059 381.38804,481.32287 z M 259.80544,466.76306 C 259.80544,466.19129 259.19696,463.978 258.45327,461.84463 C 256.06005,454.97944 259.36099,445.80781 264.22504,445.80781 C 265.21568,445.80781 267.39256,447.17417 269.06254,448.84415 C 271.8452,451.62682 272.03339,452.49458 271.315,459.23061 C 270.43109,467.51854 271.56855,468.51741 276.19978,463.52024 C 280.07913,459.33435 280.91666,451.7667 278.35465,444.04948 C 276.53348,438.56379 275.95651,437.91533 273.24673,438.30871 C 269.02568,438.92148 257.24786,438.95103 254.412,438.35596 C 252.78638,438.01484 251.35753,439.07177 249.72532,441.82273 C 246.36854,447.48029 245.90831,452.42045 248.27365,457.40503 C 251.1377,463.44057 259.80544,470.47443 259.80544,466.76306 z M 352.87202,465.84647 C 353.59948,465.39687 358.9385,465.1289 364.73651,465.25097 C 381.34891,465.60073 407.41435,461.00549 424.46127,454.72171 C 427.31755,453.66884 429.6545,452.44498 429.6545,452.002 C 429.6545,451.55904 432.11654,450.18129 435.12572,448.94037 C 438.13488,447.69944 440.83557,445.79963 441.12725,444.71855 C 442.20685,440.71716 441.57137,343.12249 440.46125,342.4364 C 439.83966,342.05224 436.19159,341.54424 432.35442,341.3075 C 426.62158,340.95381 425.36543,340.48194 425.3088,338.66083 C 425.27088,337.44189 424.51123,335.10838 423.62067,333.47525 C 421.86126,330.24883 422.50197,315.51882 424.64713,309.87663 C 425.70993,307.08123 426.32475,306.86483 432.00742,307.28593 C 437.75934,307.71217 438.20961,307.54587 438.22962,304.9879 C 438.24148,303.47125 438.51328,297.64515 438.83362,292.04099 L 439.41605,281.85161 L 435.45173,284.35852 C 415.04157,297.26529 383.65336,304.20382 349.61771,303.33261 C 324.85251,302.6987 308.54655,299.43135 290.19828,291.42629 L 285.76595,289.49253 L 286.35979,298.30533 C 286.6864,303.15235 287.12968,338.46076 287.34486,376.76844 C 287.56004,415.07613 287.77522,447.55797 287.82303,448.95031 C 287.90668,451.38632 292.22066,453.95354 302.99157,457.97703 C 313.88107,462.04483 349.84314,467.71843 352.87202,465.84647 z M 346.56287,433.58846 C 346.56287,432.91639 344.50086,432.34903 341.98061,432.32766 C 335.44983,432.27227 332.68541,429.78226 332.89483,424.14376 C 333.31031,412.95727 335.76717,410.37168 345.98123,410.37168 C 353.24537,410.37168 355.66272,413.75457 354.43637,422.204 C 353.96653,425.44116 353.05798,429.09911 352.41736,430.33279 C 350.69168,433.65605 352.10706,434.15394 355.0146,431.24641 C 357.0962,429.1648 357.55688,427.19707 357.54159,420.45265 C 357.5313,415.91621 356.98985,411.37977 356.33836,410.37168 C 355.68688,409.36358 355.14543,409.01851 355.13513,409.60484 C 355.12484,410.19119 354.29876,409.99231 353.29939,409.16291 C 352.22664,408.27261 350.17555,407.98289 348.29205,408.45562 C 345.97358,409.03752 345.24732,408.82436 345.63444,407.67562 C 346.58579,404.85261 355.24335,405.98624 357.92304,409.2847 C 360.00362,411.84571 360.19658,413.39359 359.49308,421.87871 C 358.9113,428.89564 358.11618,431.98955 356.59823,433.14275 C 354.13014,435.0178 346.56287,435.35388 346.56287,433.58846 z M 348.15069,429.14098 C 351.05071,429.86883 351.26922,429.57414 352.05254,423.8787 C 353.48194,413.48574 351.45605,410.97767 342.75557,412.36894 C 337.53148,413.20431 335.95118,415.04638 335.55851,420.75813 C 335.05824,428.03497 335.36609,428.70071 339.23126,428.70071 C 341.3393,428.70071 342.90502,429.34978 342.91578,430.22813 C 342.92925,431.32829 343.23437,431.28203 344.00656,430.06274 C 344.70192,428.96477 346.1581,428.64087 348.15069,429.14098 z M 334.95448,385.91886 C 332.93829,385.41358 329.36413,384.9087 327.0119,384.7969 C 320.9689,384.5097 314.47638,380.99187 313.9996,377.74647 C 313.78242,376.26818 314.11758,374.74172 314.74439,374.35433 C 315.42043,373.93652 315.63549,363.98994 315.27305,349.90409 C 314.78278,330.85008 315.00504,325.50359 316.39793,322.84517 L 318.1338,319.53213 L 333.26479,320.02553 C 354.178,320.70748 364.00095,320.5493 374.54309,319.36082 C 387.33534,317.91868 387.01862,317.17377 386.18409,346.74025 C 385.81277,359.89543 385.28649,371.78495 385.01457,373.16139 C 384.74233,374.5395 382.18001,376.97927 379.31218,378.59107 C 373.84827,381.66197 369.72628,382.60948 352.67255,384.71467 C 346.96,385.41985 341.46129,386.18598 340.45319,386.41718 C 339.4451,386.64838 336.97068,386.42413 334.95448,385.91886 z M 356.33836,381.74963 C 366.85326,380.56453 372.48168,379.20269 377.11127,376.7234 C 379.46349,375.46372 381.76917,374.5357 382.23499,374.66114 C 383.39211,374.97272 384.06394,344.29033 382.91546,343.58434 C 382.41141,343.27449 381.99901,342.47112 381.99901,341.79905 C 381.99901,341.12699 382.62305,340.9628 383.38578,341.43418 C 384.39736,342.05937 384.50378,340.67388 383.77914,336.31307 C 383.23275,333.02506 382.87836,328.61075 382.9916,326.50348 C 383.3046,320.67874 381.55131,320.11071 369.16868,322.02504 C 363.1201,322.96014 355.69684,323.44111 352.67255,323.09386 C 349.64826,322.74661 340.89694,322.3788 333.22516,322.2765 L 319.27648,322.09052 L 318.68958,328.65657 C 318.36678,332.2679 318.18229,345.09822 318.2796,357.16839 C 318.43692,376.68183 318.69363,379.24922 320.59583,380.33286 C 323.98408,382.26307 340.63686,384.30125 345.34094,383.36148 C 347.69316,382.89155 352.642,382.16622 356.33836,381.74963 z M 331.28868,377.15095 C 327.25629,376.51552 323.22909,375.28443 322.33934,374.41518 C 321.04006,373.14586 320.91979,368.53138 321.72837,350.97385 L 322.73513,329.11295 L 336.05649,329.42954 C 344.39859,329.6278 352.71475,329.05689 358.3053,327.90212 C 368.58803,325.77817 376.63351,325.51847 377.7194,327.27545 C 379.05072,329.42958 379.44528,333.27941 380.14229,350.91607 C 380.5183,360.43042 380.40255,368.82837 379.88506,369.57817 C 377.85887,372.51395 368.59569,376.02214 359.54695,377.2807 C 348.58592,378.80524 341.58262,378.77308 331.28868,377.15095 z M 365.88721,373.78252 C 366.12666,373.06418 366.81412,372.78023 367.41489,373.15153 C 368.77747,373.99365 373.35319,371.67102 376.22377,368.68017 C 378.15507,366.66795 378.31992,364.59024 377.73743,349.60307 C 377.03467,331.52163 376.63382,329.04913 374.25719,328.13714 C 373.41068,327.8123 368.34531,328.346 363.0008,329.32315 C 357.6563,330.30029 346.96,331.15618 339.23126,331.2251 L 325.179,331.35044 L 324.59327,343.06202 C 324.27112,349.50339 323.99619,358.89764 323.98231,363.93812 L 323.95706,373.10264 L 327.38208,372.70123 C 329.26584,372.48045 331.46754,372.84793 332.27473,373.51784 C 334.37949,375.26463 340.63023,375.81782 353.86898,375.42889 C 360.70569,375.22804 365.63025,374.55343 365.88721,373.78252 z M 272.63576,435.44993 L 276.30157,433.78695 L 270.80286,433.6444 C 267.77857,433.566 263.92947,432.66636 262.24931,431.6452 L 259.19447,429.78855 L 262.86028,430.47483 C 264.87647,430.85229 268.37631,431.51451 270.63769,431.94647 C 274.49011,432.68232 274.69368,432.5566 273.8671,429.95228 C 273.26481,428.0546 273.41413,427.438 274.33776,428.00884 C 275.21525,428.55116 275.6906,427.52052 275.6906,425.07565 L 275.6906,421.30634 L 272.08548,423.17062 C 267.91643,425.32652 261.90709,425.59169 258.50317,423.76998 C 256.4125,422.65108 256.13963,422.9249 256.13963,426.14174 C 256.13963,428.14191 255.61378,430.10341 254.97106,430.50064 C 253.69568,431.28887 254.67213,434.96516 256.47979,436.18096 C 258.57931,437.59304 268.94553,437.12399 272.63576,435.44993 z M 476.32467,429.32395 C 481.47547,428.51581 483.21594,425.41021 480.73995,421.44553 C 478.75781,418.27163 474.62656,418.2559 467.70655,421.39593 C 461.61715,424.15907 460.98554,424.29038 462.04723,422.57252 C 463.28255,420.57374 471.34314,417.62955 476.34481,417.35024 C 478.8849,417.20838 480.95847,416.81739 480.95278,416.48136 C 480.94708,416.14532 480.61087,414.63318 480.20562,413.12103 C 479.58003,410.78663 478.63942,410.37168 473.97352,410.37168 C 468.58897,410.37168 458.98096,414.47749 458.98096,416.77848 C 458.98096,417.36645 458.429,417.50639 457.75438,417.08945 C 457.07883,416.67194 458.25696,414.87639 460.37691,413.09259 C 463.43877,410.5162 465.81391,409.75267 471.98993,409.35941 C 479.09228,408.90716 479.75386,408.62961 479.75386,406.10217 C 479.75386,402.23371 477.3192,400.62686 470.17589,399.78084 C 464.4659,399.10457 463.72609,399.32889 460.27103,402.78393 C 458.21736,404.8376 456.53708,405.98531 456.53708,405.33439 C 456.53708,404.68348 457.95832,402.72968 459.69537,400.99262 C 462.60523,398.08277 463.47027,397.88384 470.69279,398.46358 C 478.31487,399.07542 478.53193,399.01215 478.53193,396.17871 C 478.53193,394.57593 477.84459,393.25616 477.00451,393.24587 C 475.98623,393.23339 476.08806,392.83232 477.30999,392.04264 C 478.57129,391.22752 475.83101,390.85229 468.52308,390.83941 C 462.68217,390.82912 457.56341,391.37058 457.14805,392.04264 C 456.73269,392.71471 455.73796,393.24628 454.93755,393.22392 C 454.13713,393.20156 454.85692,392.03939 456.53708,390.64133 C 459.20782,388.41899 460.78496,388.16837 469.08047,388.64808 C 478.14287,389.17213 478.53404,389.08653 477.78999,386.74228 C 476.33329,382.15257 474.78949,381.50279 467.40915,382.373 C 463.15013,382.87518 458.8377,384.29479 456.48747,385.96829 C 452.83825,388.56677 452.6481,389.07337 453.33795,394.35948 C 453.74175,397.45364 454.63518,405.48393 455.32336,412.20458 C 456.01155,418.92523 456.84791,425.2909 457.18194,426.35052 C 457.51595,427.41013 459.84446,428.79967 462.35639,429.43838 C 466.97242,430.61213 468.17718,430.60225 476.32467,429.32395 z M 272.14958,421.01592 C 275.84764,418.52466 276.34162,417.53374 276.66786,411.95212 L 277.03416,405.68538 L 272.39109,408.086 C 269.32877,409.66932 265.92177,410.36305 262.38384,410.12366 L 257.01967,409.76071 L 256.88513,415.21897 C 256.77021,419.88177 257.1958,420.9031 259.80544,422.22708 C 264.25587,424.48499 267.46784,424.16984 272.14958,421.01592 z M 273.21808,405.69917 C 275.4862,404.01291 276.40071,402.07025 276.67648,398.35263 L 277.0514,393.29855 L 273.4058,395.39083 C 269.82243,397.44741 265.56501,397.05584 258.5835,394.02757 C 257.04666,393.36095 256.81691,394.40816 257.16112,400.5108 C 257.47152,406.01392 258.06757,407.93349 259.60499,408.38123 C 263.16987,409.4194 270.03285,408.06724 273.21808,405.69917 z M 273.37315,393.81017 C 275.48876,392.71615 276.95654,391.03362 276.83756,389.83888 C 276.72402,388.69873 276.73965,387.49093 276.87231,387.1549 C 277.00496,386.81887 277.36203,385.03179 277.66579,383.18361 C 278.29458,379.35782 276.7683,378.94455 272.0248,381.65619 C 268.7004,383.55658 262.51035,384.00593 260.16773,382.51692 C 259.35889,382.00281 261.36813,381.52363 264.63269,381.45208 C 271.77172,381.29559 278.74321,377.75232 276.7166,375.31042 C 275.75956,374.15725 275.77243,373.71361 276.76292,373.71361 C 277.51727,373.71361 278.13447,372.2801 278.13447,370.52803 C 278.13447,367.94705 277.72863,367.52267 275.99609,368.29201 C 271.72734,370.18754 263.78305,370.27179 260.26455,368.45884 L 256.7506,366.64824 L 256.86712,377.20706 C 257.0338,392.31229 256.80195,391.64089 262.55479,393.67725 C 269.23499,396.04185 269.06167,396.03973 273.37315,393.81017 z M 458.17868,383.05507 C 460.76171,381.87914 466.12328,380.8084 470.09326,380.67563 C 475.52761,380.49391 477.16026,380.03209 476.69973,378.80689 C 476.36331,377.91185 476.08806,376.12477 476.08806,374.8356 C 476.08806,373.5273 475.24636,372.49167 474.18303,372.49167 C 473.13527,372.49167 472.6079,371.95792 473.01107,371.30556 C 474.2338,369.32715 467.6115,368.41596 462.70152,369.88703 C 454.94849,372.20989 451.64934,375.59756 451.64934,381.23573 C 451.64934,383.93122 452.06175,385.92434 452.56579,385.66487 C 453.06984,385.40542 455.59564,384.231 458.17868,383.05507 z M 468.80466,367.78514 L 475.15039,368.2149 L 474.5044,361.09223 C 474.14911,357.17477 473.53465,353.64579 473.13893,353.25006 C 471.5763,351.68744 458.84279,351.4795 455.27265,352.95831 C 451.07142,354.69851 447.87609,358.57049 448.75375,360.85764 C 449.19519,362.00804 450.44095,361.82286 453.80768,360.1064 C 460.92927,356.4756 472.69494,357.70824 473.39798,362.1588 C 473.6621,363.83087 473.45464,364.08343 472.70751,362.99934 C 470.89726,360.37267 464.54919,359.23876 458.24636,360.41626 C 450.48784,361.8657 449.16977,363.33833 450.02332,369.6034 L 450.71192,374.65773 L 456.58542,371.00657 C 461.54138,367.92577 463.45026,367.42253 468.80466,367.78514 z M 273.8002,367.40778 C 277.18114,365.86734 278.04048,362.71618 275.07964,362.71618 C 274.07154,362.71618 273.24673,362.24256 273.24673,361.66369 C 273.24673,361.08483 274.48394,360.84587 275.99609,361.13267 C 278.50423,361.60838 278.74764,361.18614 278.77052,356.32008 L 278.7956,350.98604 L 274.29245,352.188 C 270.11207,353.30381 266.00596,352.63914 258.83039,349.68511 C 257.60185,349.17934 257.32643,350.91153 257.60846,357.37046 C 257.93558,364.86227 258.28265,365.86514 261.02738,367.2493 C 264.86246,369.18332 269.76971,369.2442 273.8002,367.40778 z M 462.55644,349.27489 C 464.29515,349.27489 467.47846,349.77986 469.63046,350.39704 C 473.52856,351.51501 473.54043,351.50475 472.80719,347.64769 C 472.4024,345.51836 471.86369,343.5355 471.61004,343.24133 C 471.3564,342.94716 467.94939,342.47504 464.0389,342.19217 C 453.51668,341.43107 445.87727,345.93697 447.40048,352.00589 L 448.14459,354.97065 L 453.76986,352.12277 C 456.86377,350.55643 460.81772,349.27489 462.55644,349.27489 z M 279.35641,345.54006 C 279.35641,342.69711 278.72601,342.097 275.00673,341.39925 C 269.52916,340.37166 260.96533,332.85556 261.19378,329.27625 C 261.35069,326.81792 261.39103,326.8086 261.9004,329.11295 C 262.65493,332.52641 271.66518,339.49941 275.32139,339.49941 C 276.98917,339.49941 279.34876,338.27057 280.56494,336.76865 C 282.75259,334.06702 282.72861,334.01156 278.31694,331.57039 C 273.17944,328.72758 268.28257,320.21006 268.50073,314.49629 C 268.59224,312.09982 268.82811,311.65018 269.16617,313.22779 C 270.49523,319.43003 273.55453,326.01211 274.76151,325.26615 C 275.52766,324.79265 275.71234,325.03438 275.20795,325.85049 C 274.30132,327.31745 281.10617,332.1551 284.08771,332.16322 C 285.41836,332.16685 285.35598,331.60065 283.78533,329.41844 C 278.49633,322.07001 276.64514,317.05714 277.24737,311.71415 C 277.73896,307.35281 277.51778,306.48232 276.06015,307.04166 C 275.0749,307.41974 273.25621,307.72908 272.01861,307.72908 C 267.59651,307.72908 262.74896,313.33603 261.24868,320.18616 C 259.60236,327.70313 257.34189,347.21865 258.03701,347.91378 C 258.29686,348.17362 261.41294,349.04125 264.96165,349.84182 C 273.8202,351.8403 279.35641,350.18583 279.35641,345.54006 z M 463.47398,340.11037 C 470.07578,340.11037 471.20031,339.79288 471.20031,337.929 C 471.20031,334.30969 467.56951,329.92578 463.90543,329.12102 C 457.52005,327.71855 444.31773,335.62402 444.31773,340.85001 C 444.31773,346.38305 445.53545,346.86848 450.75321,343.41553 C 454.85916,340.69834 457.12211,340.11037 463.47398,340.11037 z M 443.72249,338.06831 C 444.3859,336.60914 447.04175,333.72231 449.62437,331.65315 C 453.63997,328.43589 455.33386,327.89102 461.31995,327.89102 L 468.31984,327.89102 L 466.63987,323.61419 C 465.06576,319.60692 464.57305,319.31387 458.82214,318.96458 C 452.99385,318.6106 452.412,318.86421 447.28114,323.99507 C 444.18787,327.08835 441.55222,331.02665 441.11612,333.20711 C 440.69716,335.30192 439.87145,336.7174 439.28121,336.35262 C 438.69097,335.98783 438.20805,336.27169 438.20805,336.98342 C 438.20805,337.69514 437.59698,338.27747 436.85012,338.27747 C 435.94066,338.27747 435.78,336.76415 436.36366,333.69521 C 436.84298,331.17497 437.4787,327.79907 437.77639,326.19321 C 438.5852,321.83017 441.70558,314.8281 443.94275,312.35606 C 445.79917,310.30473 445.69107,310.17295 442.15193,310.17295 C 435.63379,310.17295 430.49034,319.87832 430.60728,331.95698 C 430.66828,338.25671 430.79008,338.40932 436.66714,339.54904 C 439.1948,340.03923 441.5449,340.50353 441.88958,340.58082 C 442.23427,340.65811 443.05907,339.52747 443.72249,338.06831 z M 431.97508,315.9593 L 434.4554,310.17295 L 430.91535,310.17295 C 428.605,310.17295 427.15056,310.91575 426.72828,312.31134 C 425.61647,315.98575 425.57004,328.96764 426.65727,332.16779 C 427.55326,334.80503 427.81814,334.30146 428.59495,328.48414 C 429.08984,324.77798 430.6109,319.1418 431.97508,315.9593 z M 444.99347,323.75358 C 449.18928,318.775 455.34087,315.97675 459.9077,316.96938 L 463.25773,317.69753 L 460.20289,315.14276 C 454.99969,310.79132 441.04477,313.19737 443.97618,317.9405 C 444.37171,318.58048 444.1409,318.76145 443.46328,318.34265 C 441.78595,317.30601 439.78519,322.05842 438.86742,329.25919 C 438.12673,335.07062 438.15068,335.12919 439.80695,331.55682 C 440.74173,329.54063 443.07567,326.02917 444.99347,323.75358 z M 284.00713,310.90981 C 283.65269,305.74738 283.50888,305.55463 281.25041,307.21506 C 278.16684,309.48209 278.1745,315.38217 281.26933,321.78134 L 283.63319,326.66908 L 284.00713,321.51272 C 284.21279,318.67673 284.21279,313.90541 284.00713,310.90981 z M 383.31941,299.24398 C 390.32193,297.93751 397.15101,296.60427 398.49514,296.28124 C 417.37996,291.74264 422.11263,290.21549 427.55393,286.90445 C 438.08152,280.49842 439.42998,278.79933 439.42998,271.94058 L 439.42998,265.90455 L 434.95011,270.25584 C 432.48618,272.64905 425.47532,277.0487 419.37043,280.03284 C 405.49303,286.81626 404.64094,287.08786 402.74155,285.33327 C 401.53175,284.21569 401.40894,284.28223 402.18213,285.63641 C 402.89352,286.88232 402.65726,287.17364 401.34412,286.66974 C 400.33834,286.28379 393.51222,286.6974 386.17496,287.58889 C 369.91686,289.56427 325.28068,289.18645 317.23642,287.00537 C 314.21213,286.18537 310.08809,284.80609 308.0719,283.94029 C 306.0557,283.07448 301.78906,281.42687 298.59046,280.27893 C 295.39186,279.13098 291.13036,276.54729 289.12046,274.53738 L 285.46609,270.88301 L 285.46609,278.21913 C 285.46609,286.35226 284.49573,285.31831 298.90738,292.54139 C 315.44098,300.828 357.09978,304.13584 383.31941,299.24398 z M 333.54708,244.05079 C 344.93133,242.56322 346.56287,242.02799 346.56287,239.78091 C 346.56287,238.56422 344.90744,238.08007 340.75868,238.08339 C 334.98072,238.08802 313.76497,241.14288 312.79847,242.10938 C 312.51944,242.3884 312.61588,243.46294 313.01278,244.49723 C 313.7856,246.51117 314.90393,246.48686 333.54708,244.05079 z M 400.61055,242.41827 C 401.20985,241.34739 402.15864,240.75455 402.71898,241.10086 C 403.27931,241.44717 404.06403,240.8803 404.46278,239.84116 C 404.95469,238.55925 404.70122,238.24406 403.67437,238.86081 C 402.48397,239.57579 402.47603,239.38016 403.63723,237.94423 C 404.44918,236.94017 404.80927,234.7726 404.43744,233.12741 C 401.77026,221.32654 399.34786,218.70753 393.77453,221.599 C 391.9582,222.54133 390.79759,222.78567 391.19542,222.14198 C 391.59323,221.4983 391.37009,220.97164 390.69954,220.97164 C 388.85926,220.97164 387.71834,231.09861 388.68604,238.84381 L 389.54312,245.70364 L 394.53202,245.03448 C 397.27592,244.66645 400.01126,243.48916 400.61055,242.41827 z M 312.43366,239.30068 C 314.44771,239.30068 314.79255,238.41314 314.79255,233.22935 C 314.79255,228.33274 314.43765,227.2942 312.95835,227.86187 C 310.6979,228.72928 307.57581,238.94617 308.53865,242.32509 C 309.20853,244.6759 309.26446,244.66217 309.65925,242.05003 C 309.92498,240.29182 310.92515,239.30068 312.43366,239.30068 z M 366.11384,204.37667 C 374.15025,203.60273 386.17839,199.19425 391.77449,194.97171 C 395.1447,192.42872 397.54866,185.27205 394.66036,186.3804 C 393.75292,186.72861 393.3108,187.49948 393.67788,188.09342 C 394.04496,188.68737 393.53635,188.8629 392.54765,188.4835 C 391.55893,188.10409 389.45128,188.64463 387.86396,189.68468 C 386.27664,190.72473 379.49629,193.00002 372.79652,194.74087 C 355.75998,199.16762 330.90036,199.61644 321.20771,195.67227 C 317.57076,194.19231 317.23642,194.24777 317.23642,196.33095 C 317.23642,199.29006 324.41294,202.53097 335.22226,204.45333 C 343.37886,205.90392 350.43729,205.88641 366.11384,204.37667 z M 358.78641,181.86746 C 360.69341,180.84687 361.00365,179.49881 360.65193,173.76131 C 360.16462,165.81193 359.12488,164.8073 351.35813,164.78131 C 344.65813,164.75889 341.00438,168.03282 340.63194,174.3925 C 340.17411,182.21029 341.03908,183.09163 349.16942,183.09163 C 353.2007,183.09163 357.52835,182.54076 358.78641,181.86746 z M 332.92047,265.92541 C 329.34502,264.42927 328.45395,261.69 329.42695,255.18584 L 330.06674,250.90907 L 341.06416,250.73359 C 347.11274,250.63708 355.78845,250.21942 360.34352,249.80546 C 369.39084,248.98325 369.1028,248.7791 370.22517,256.80908 C 370.85857,261.34076 370.71844,261.55748 365.74708,263.73463 C 359.39889,266.51475 337.7773,267.95773 332.92047,265.92541 z M 360.16491,262.2992 C 360.91479,261.11652 361.19368,261.08618 361.20739,262.18577 C 361.22182,263.34343 361.92523,263.36845 364.28094,262.29512 C 365.9611,261.52959 367.33578,260.18609 367.33578,259.30957 C 367.33578,258.0983 365.79645,257.91121 360.92062,258.52988 C 352.48799,259.59985 348.71708,259.60272 339.53674,258.54614 C 332.49698,257.73593 331.89964,257.85212 331.89964,260.0316 C 331.89964,261.33203 332.86192,262.9976 334.03803,263.73287 C 337.06529,265.62541 358.81257,264.43207 360.16491,262.2992 z M 363.36449,255.6106 C 364.87663,255.23127 366.11384,254.13079 366.11384,253.1651 C 366.11384,251.77803 365.15155,251.61338 361.53159,252.38112 C 359.01134,252.91562 351.31315,253.32392 344.42449,253.28846 C 332.31111,253.2261 328.33015,254.35201 335.25997,255.88041 C 337.10815,256.28804 339.17016,256.84027 339.84223,257.10761 C 341.36018,257.71142 359.62325,256.54912 363.36449,255.6106 z M 356.14336,229.13028 C 354.443,226.76015 354.33412,225.48433 355.46928,221.23147 C 358.11065,211.33552 364.05748,214.34099 363.4175,225.24842 C 363.12098,230.30193 362.63653,231.40986 360.61513,231.65754 C 359.2107,231.82962 357.30875,230.75471 356.14336,229.13028 z M 359.86741,222.61156 C 358.46582,218.55595 358.18454,218.30802 357.80135,220.79044 C 357.12378,225.17972 358.65231,230.14388 360.2037,228.5925 C 361.10399,227.69221 361.00309,225.89774 359.86741,222.61156 z M 330.71806,228.96285 C 328.88665,226.75613 329.79087,218.60913 332.02011,217.23138 C 335.75992,214.92005 337.39836,216.83948 337.39836,223.532 C 337.39836,229.29742 337.0744,230.18244 334.84756,230.50061 C 333.44462,230.70106 331.58635,230.00907 330.71806,228.96285 z M 335.81744,227.99777 C 336.60744,225.64772 335.07909,219.13874 333.73728,219.13874 C 332.1596,219.13874 331.49954,222.87697 332.42568,226.567 C 333.22311,229.74422 334.98107,230.48579 335.81744,227.99777 z "
       id="path3268" />
  </g>
</svg>
