<?xml version="1.0" encoding="UTF-8" standalone="no"?>
<!-- Created with Inkscape (http://www.inkscape.org/) -->
<svg
   xmlns:dc="http://purl.org/dc/elements/1.1/"
   xmlns:cc="http://web.resource.org/cc/"
   xmlns:rdf="http://www.w3.org/1999/02/22-rdf-syntax-ns#"
   xmlns:svg="http://www.w3.org/2000/svg"
   xmlns="http://www.w3.org/2000/svg"
   xmlns:sodipodi="http://sodipodi.sourceforge.net/DTD/sodipodi-0.dtd"
   xmlns:inkscape="http://www.inkscape.org/namespaces/inkscape"
   width="210mm"
   height="297mm"
   id="svg2"
   sodipodi:version="0.32"
   inkscape:version="0.45.1"
   sodipodi:docbase="/home/rover/code/python/herobot/arte"
   sodipodi:docname="robot-2.svg"
   inkscape:output_extension="org.inkscape.output.svg.inkscape">
  <defs
     id="defs4" />
  <sodipodi:namedview
     id="base"
     pagecolor="#ffffff"
     bordercolor="#666666"
     borderopacity="1.0"
     inkscape:pageopacity="0.0"
     inkscape:pageshadow="2"
     inkscape:zoom="0.61185141"
     inkscape:cx="524.64522"
     inkscape:cy="564.08095"
     inkscape:document-units="px"
     inkscape:current-layer="layer1"
     inkscape:window-width="1022"
     inkscape:window-height="713"
     inkscape:window-x="0"
     inkscape:window-y="0"
     showguides="true"
     inkscape:guide-bbox="true" />
  <metadata
     id="metadata7">
    <rdf:RDF>
      <cc:Work
         rdf:about="">
        <dc:format>image/svg+xml</dc:format>
        <dc:type
           rdf:resource="http://purl.org/dc/dcmitype/StillImage" />
      </cc:Work>
    </rdf:RDF>
  </metadata>
  <g
     inkscape:label="Capa 1"
     inkscape:groupmode="layer"
     id="layer1">
    <path
       style="fill:#666666;fill-opacity:1;stroke:#999999;stroke-width:2;stroke-miterlimit:1;stroke-opacity:0"
       d="M 223.59735,727.21932 L 267.6435,717.9138 L 255.23613,740.86743 L 232.90287,742.72853 L 223.59735,727.21932 z "
       id="path2336"
       sodipodi:nodetypes="ccccc"
       inkscape:export-filename="/home/rover/code/python/herobot/arte/pre/robot-2-01.png"
       inkscape:export-xdpi="17.845627"
       inkscape:export-ydpi="17.845627" />
    <path
       style="fill:#666666;fill-opacity:1;stroke:#999999;stroke-width:2;stroke-miterlimit:1;stroke-opacity:0"
       d="M 145.12076,731.56189 L 189.16691,722.25637 L 176.75954,745.21 L 154.42628,747.0711 L 145.12076,731.56189 z "
       id="rect2333"
       sodipodi:nodetypes="ccccc"
       inkscape:export-filename="/home/rover/code/python/herobot/arte/pre/robot-2-01.png"
       inkscape:export-xdpi="17.845627"
       inkscape:export-ydpi="17.845627" />
    <path
       style="fill:#999999;fill-opacity:1;stroke:#999999;stroke-width:2;stroke-miterlimit:1;stroke-opacity:0"
       d="M 128.83611,538.39475 L 181.56741,535.91328 L 182.18778,564.7604 L 196.45625,561.96874 L 199.55809,615.01023 L 179.70631,624.00556 L 183.42851,665.26005 L 192.73404,670.53318 L 205.76177,709.92656 L 198.93772,724.50522 L 184.66925,730.08853 L 166.98876,728.77025 L 146.82679,732.41491 C 140.93329,731.68637 138.14163,732.17999 133.48887,730.47626 L 128.83611,709.92656 L 128.83611,685.42202 L 130.07685,673.32483 L 139.38237,641.99625 L 128.83611,611.90838 L 128.83611,587.40384 L 128.83611,562.89929 L 128.83611,538.39475 z "
       id="path2331"
       sodipodi:nodetypes="cccccccccccccccccccccc"
       inkscape:export-filename="/home/rover/code/python/herobot/arte/pre/robot-2-01.png"
       inkscape:export-xdpi="17.845627"
       inkscape:export-ydpi="17.845627" />
    <path
       style="fill:#999999;fill-opacity:1;stroke:#999999;stroke-width:2;stroke-miterlimit:1;stroke-opacity:0"
       d="M 205.29648,535.52551 L 258.02778,533.04404 L 258.64815,561.89116 L 272.91662,559.0995 L 276.01846,612.14099 L 256.16668,621.13632 L 259.88888,662.39081 L 269.19441,667.66394 L 282.22214,707.05732 L 275.39809,721.63598 L 261.12962,727.21929 L 243.44913,725.90101 L 223.28716,729.54567 C 217.39366,728.81713 205.29648,726.20891 200.64372,724.50518 L 205.29648,707.05732 L 205.29648,682.55278 L 206.53722,670.45559 L 213.36127,658.35842 L 205.29648,609.03914 L 205.29648,584.5346 L 205.29648,560.03005 L 205.29648,535.52551 z "
       id="rect2328"
       sodipodi:nodetypes="cccccccccccccccccccccc"
       inkscape:export-filename="/home/rover/code/python/herobot/arte/pre/robot-2-01.png"
       inkscape:export-xdpi="17.845627"
       inkscape:export-ydpi="17.845627" />
    <path
       style="fill:#00ff00;fill-opacity:1;stroke:#999999;stroke-width:2;stroke-miterlimit:1;stroke-opacity:0"
       d="M 226.73523,247.88784 L 241.44145,249.09657 L 246.07493,253.42787 L 244.8662,268.83922 L 220.08719,264.60865 L 219.98646,252.72277 L 226.73523,247.88784 z "
       id="path2326"
       sodipodi:nodetypes="ccccccc"
       inkscape:export-filename="/home/rover/code/python/herobot/arte/pre/robot-2-01.png"
       inkscape:export-xdpi="17.845627"
       inkscape:export-ydpi="17.845627" />
    <path
       style="fill:#ffff00;fill-opacity:1;stroke:#999999;stroke-width:2;stroke-miterlimit:1;stroke-opacity:0"
       d="M 188.86158,246.67911 L 206.38818,246.47765 L 208.20128,249.39876 L 209.61147,261.98973 L 185.03392,261.98973 L 184.93319,250.10385 L 188.86158,246.67911 z "
       id="path2324"
       sodipodi:nodetypes="ccccccc"
       inkscape:export-filename="/home/rover/code/python/herobot/arte/pre/robot-2-01.png"
       inkscape:export-xdpi="17.845627"
       inkscape:export-ydpi="17.845627" />
    <path
       style="fill:#ff0000;fill-opacity:1;stroke:#999999;stroke-width:2;stroke-miterlimit:1;stroke-opacity:0"
       d="M 149.72882,247.38419 L 167.25542,247.18273 L 169.06852,250.10384 L 170.47871,262.69481 L 145.90116,262.69481 L 145.80043,250.80893 L 149.72882,247.38419 z "
       id="rect2321"
       sodipodi:nodetypes="ccccccc"
       inkscape:export-filename="/home/rover/code/python/herobot/arte/pre/robot-2-01.png"
       inkscape:export-xdpi="17.845627"
       inkscape:export-ydpi="17.845627" />
    <path
       style="fill:#999999;fill-opacity:1;stroke:#999999;stroke-width:2;stroke-miterlimit:1;stroke-opacity:0"
       d="M 135.67446,265.92716 L 233.53206,265.05343 L 267.60747,277.94093 L 267.60747,330.14621 L 262.80197,337.02682 L 217.80495,322.93795 L 214.74689,349.47745 L 192.46682,346.31019 L 171.93419,338.88349 L 136.54819,320.97206 L 135.67446,265.92716 z "
       id="rect2252"
       sodipodi:nodetypes="ccccccccccc"
       inkscape:export-filename="/home/rover/code/python/herobot/arte/pre/robot-2-01.png"
       inkscape:export-xdpi="17.845627"
       inkscape:export-ydpi="17.845627" />
    <path
       style="fill:#cccccc;fill-opacity:1;stroke:#999999;stroke-width:2;stroke-miterlimit:1;stroke-opacity:0"
       d="M 96.847133,337.29129 C 152.1769,342.55034 240.76764,330.97083 266.02746,330.30146 C 278.18136,339.24311 305.89597,342.53366 305.89597,342.53366 L 305.02224,532.20546 L 100.80431,538.98919 C 100.80431,538.98919 66.855493,361.73901 96.847133,337.29129 z "
       id="rect2234"
       sodipodi:nodetypes="cccccc"
       inkscape:export-filename="/home/rover/code/python/herobot/arte/pre/robot-2-01.png"
       inkscape:export-xdpi="17.845627"
       inkscape:export-ydpi="17.845627" />
    <path
       style="fill:#ffdd55;fill-opacity:1;stroke:#999999;stroke-width:2;stroke-miterlimit:1;stroke-opacity:0"
       d="M 168.78868,467.76152 L 160.41853,465.99416 L 156.2541,458.63897 L 151.06444,426.77229 L 164.22855,420.69144 L 181.86319,419.90016 L 197.92345,411.37002 L 199.71374,395.20634 L 214.42385,401.67168 L 220.93002,409.7234 L 217.03851,442.78836 L 211.0854,445.78109 L 203.6545,446.39266 L 202.67483,451.84606 L 200.2691,461.16002 L 180.74368,467.1073 L 168.78868,467.76152 z "
       id="path2245"
       sodipodi:nodetypes="ccccccccccccccccc"
       inkscape:export-filename="/home/rover/code/python/herobot/arte/pre/robot-2-01.png"
       inkscape:export-xdpi="17.845627"
       inkscape:export-ydpi="17.845627" />
    <path
       style="fill:#5555ff;fill-opacity:1;stroke:#999999;stroke-width:2;stroke-miterlimit:1;stroke-opacity:0"
       d="M 179.74682,376.73492 L 188.22648,377.86554 L 197.83677,382.2467 L 199.5327,403.30453 L 192.74897,420.68784 L 175.22434,422.80775 L 155.43845,426.6236 L 154.87314,442.87629 L 144.13224,443.4416 L 132.82602,440.19107 L 133.39133,403.58719 L 144.13223,399.20603 L 156.56907,397.65142 L 157.13438,392.13964 L 158.83032,382.67068 L 167.87529,378.28952 L 179.74682,376.73492 z "
       id="rect2242"
       sodipodi:nodetypes="ccccccccccccccccc"
       inkscape:export-filename="/home/rover/code/python/herobot/arte/pre/robot-2-01.png"
       inkscape:export-xdpi="17.845627"
       inkscape:export-ydpi="17.845627" />
    <path
       style="fill:#cccccc;fill-opacity:1;stroke:#999999;stroke-width:0.85663116;stroke-miterlimit:1;stroke-opacity:0"
       d="M 303.67796,344.78846 L 338.28521,353.37364 L 339.41583,406.13884 L 328.10961,414.80979 L 333.19741,524.6714 L 333.48007,556.98976 L 342.8077,564.43445 L 339.51885,583.07029 L 339.57161,610.03505 L 337.41509,611.17525 L 335.25858,612.31545 L 333.10206,613.45565 L 330.94555,614.59585 L 328.78904,615.73605 L 326.63252,616.87625 L 324.47601,618.01645 L 322.31949,619.15665 L 320.37497,618.95424 L 318.43044,618.75183 L 316.48592,618.54941 L 314.54139,618.347 L 312.59687,618.14459 L 310.65235,617.94217 L 308.70782,617.73976 L 306.7633,617.53735 L 304.75236,593.97265 C 304.27049,582.34902 303.58606,584.529 309.52516,561.36298 L 311.4714,516.88178 L 311.1564,477.48838 L 309.14546,432.44187 L 298.08955,408.31187 L 296.64392,373.44095 L 303.67796,344.78846 z "
       id="path2239"
       sodipodi:nodetypes="ccccccccccccccccccccccccccccccccc"
       inkscape:export-filename="/home/rover/code/python/herobot/arte/pre/robot-2-01.png"
       inkscape:export-xdpi="17.845627"
       inkscape:export-ydpi="17.845627" />
    <path
       style="fill:#cccccc;fill-opacity:1;stroke:#999999;stroke-width:0.85663116;stroke-miterlimit:1;stroke-opacity:0"
       d="M 68.826483,351.5232 L 97.109783,346.58866 L 99.577053,563.0463 L 113.14703,565.1826 L 111.91339,616.66426 L 74.994653,622.83243 L 68.826483,351.5232 z "
       id="rect2236"
       sodipodi:nodetypes="ccccccc"
       inkscape:export-filename="/home/rover/code/python/herobot/arte/pre/robot-2-01.png"
       inkscape:export-xdpi="17.845627"
       inkscape:export-ydpi="17.845627" />
    <path
       style="fill:#000000"
       d="M 150.91989,743.27991 C 149.36368,740.78801 148.09041,737.10001 148.09041,735.08434 C 148.09041,732.15358 146.26291,731.63059 138.96706,732.47333 C 133.20892,733.13845 129.7504,732.58592 129.59073,730.97535 C 128.9634,724.64753 130.41969,696.28739 131.95165,684.99832 C 133.09778,676.55245 132.847,672.52071 131.17258,672.47368 C 129.81448,672.43555 130.49946,671.35817 132.69476,670.07951 C 136.06999,668.11363 136.68623,664.27533 136.68623,645.2183 C 136.68623,623.58375 136.48087,622.65274 131.55434,621.95307 C 126.57163,621.24542 126.40064,620.34585 125.67172,591.00545 C 125.00628,564.22004 125.33021,560.94371 128.52277,562.16882 C 131.54068,563.32689 132.12455,561.47782 132.12455,550.76233 L 132.12455,537.97371 L 116.1587,537.97371 L 100.19284,537.97371 L 100.19284,549.37789 C 100.19284,560.23278 100.49495,560.79507 106.46514,561.05217 C 109.91491,561.20072 113.47814,561.21041 114.38343,561.07372 C 115.28872,560.93701 115.03212,563.44823 113.81322,566.6542 C 110.87562,574.38067 110.92769,606.39879 113.87786,606.39879 C 118.94877,606.39879 115.57046,610.14716 105.32241,615.89143 C 93.485243,622.52643 80.044413,625.75655 75.869603,622.96957 C 73.955063,621.69148 72.791793,592.90352 71.699783,519.77722 C 70.866803,463.99634 69.587913,417.39093 68.857823,416.20962 C 68.127733,415.0283 67.196473,399.39593 66.788363,381.47102 L 66.046333,348.88027 L 80.245643,348.20208 C 92.162683,347.6329 94.579813,346.81662 95.284043,343.12352 C 96.706323,335.66493 101.32078,332.6978 108.49565,334.62836 C 120.16466,337.76817 166.3371,338.02497 166.3371,334.95006 C 166.3371,333.41113 164.78573,332.80572 162.79738,333.56873 C 160.85054,334.3158 159.81232,334.0296 160.49023,332.93272 C 161.16813,331.83584 155.83297,329.02506 148.6343,326.68655 L 135.54581,322.43469 L 134.40539,293.40494 L 133.26497,264.37519 L 139.64203,262.97963 C 145.21726,261.75954 145.88508,260.73372 144.95325,254.82116 C 144.0564,249.1306 144.84976,247.69236 149.95663,245.75073 C 153.29471,244.4816 159.37227,244.071 163.46232,244.8383 C 170.0983,246.08322 170.89877,247.05529 170.89877,253.86894 C 170.89877,258.72751 172.21089,262.008 174.50657,262.88893 C 181.05419,265.40149 182.30295,264.35745 182.30295,256.37069 C 182.30295,247.72312 186.86749,243.74585 196.7919,243.74585 C 206.93572,243.74585 209.67299,246.03064 209.67299,254.49766 C 209.67299,260.83998 210.41445,262.19606 213.28079,261.09614 C 215.26508,260.3347 217.28562,259.7117 217.77088,259.7117 C 218.25614,259.7117 218.05737,258.15906 217.32917,256.2614 C 214.87479,249.86539 221.13759,245.69263 232.31289,246.27809 C 247.26597,247.06146 247.74382,247.43526 249.35918,259.61245 C 250.64937,269.3384 251.74787,271.08006 258.66114,274.36061 C 262.97258,276.40653 267.14245,279.11975 267.92749,280.39 C 269.71519,283.28253 269.82237,324.92008 268.04949,327.78861 C 267.33156,328.95029 268.01581,330.84649 269.57006,332.00238 C 274.38787,335.58536 296.96959,341.51179 307.74896,342.0222 C 313.98714,342.31757 322.74742,345.0865 330.08446,349.08194 C 336.72393,352.69751 343.39537,354.95844 344.90989,354.10623 C 346.9033,352.98458 346.87641,353.40485 344.81255,355.62838 C 342.86633,357.72517 341.9615,367.24151 341.9615,385.61385 L 341.9615,412.52772 L 336.22782,412.52772 L 330.49412,412.52772 L 331.09594,486.08469 L 331.69774,559.64165 L 338.19516,560.38509 L 344.69255,561.12851 L 343.61326,582.50644 C 342.54693,603.62742 342.43327,603.97935 334.15785,611.78408 C 327.20867,618.33799 323.76047,619.81497 313.91684,620.45399 L 302.05195,621.22423 L 302.62982,600.6967 C 303.3271,575.92844 305.14757,563.06291 307.95501,563.06291 C 309.16449,563.06291 309.93051,540.30272 309.77815,508.89305 C 309.47386,446.16419 308.00254,417.08939 305.13252,417.08939 C 303.99438,417.08939 303.20977,441.7235 303.34706,473.14769 C 303.48174,503.97976 303.08825,529.70967 302.47265,530.32527 C 301.85705,530.94086 291.75886,532.37261 280.03219,533.5069 C 268.30552,534.6412 258.63765,535.59708 258.54801,535.63106 C 258.34828,535.70683 259.18005,553.94214 259.56991,558.03437 C 259.77191,560.15443 262.10582,560.56585 267.83432,559.49116 L 275.81725,557.99357 L 275.81725,584.29047 C 275.81725,598.75377 276.392,612.08512 277.09445,613.9157 C 278.05258,616.41258 275.80853,617.62835 268.11114,618.78266 C 256.30874,620.55254 255.58198,622.48683 257.6097,646.73271 C 258.91011,662.28202 259.5206,663.50648 266.22464,664.01148 C 269.85831,664.28518 271.58844,667.27356 274.40689,678.14436 C 276.3727,685.72655 278.57975,696.03565 279.31142,701.05349 C 280.04309,706.07133 281.04978,712.22959 281.54853,714.73851 C 282.44342,719.2404 274.48928,725.00227 267.37961,725.00227 C 265.74802,725.00227 264.41307,727.39715 264.41307,730.32422 C 264.41307,733.2513 263.64328,736.41596 262.70244,737.35681 C 261.76159,738.29765 260.99181,740.26487 260.99181,741.7284 C 260.99181,743.41831 255.52326,744.63208 246.00641,745.05445 C 231.03839,745.71874 231.01615,745.71049 226.82228,737.92291 C 223.0723,730.95966 221.37699,729.99767 210.9608,728.92262 C 193.20294,727.08985 188.06466,728.77954 184.91591,737.48725 C 181.95568,745.6736 177.55672,747.72955 162.89428,747.7795 C 156.21817,747.80222 152.98552,746.58749 150.91989,743.27991 z M 162.91585,740.96812 C 163.69115,739.71367 162.46875,738.56823 160.19941,738.42271 C 156.3862,738.17818 156.376,738.07904 160.0648,737.11504 C 165.89112,735.59247 164.94501,731.84478 158.73431,731.84478 C 151.68394,731.84478 150.04683,733.81935 152.81258,738.98717 C 155.27805,743.59394 160.6429,744.64584 162.91585,740.96812 z M 181.88795,735.26603 C 184.71538,729.0605 183.46372,728.39798 173.80431,730.98728 C 169.63909,732.10379 169.14131,733.1226 171.03351,736.65821 C 174.22934,742.62967 178.79995,742.04345 181.88795,735.26603 z M 244.45575,739.45757 C 242.88767,738.82485 241.6047,735.82673 241.6047,732.79514 C 241.6047,728.19122 240.47739,727.28311 234.76219,727.28311 C 227.4976,727.28311 226.46329,729.42338 230.28077,736.55639 C 231.90347,739.58845 234.93494,740.91181 239.97432,740.78805 C 244.00718,740.68902 246.02382,740.0903 244.45575,739.45757 z M 259.9257,731.81716 C 261.38138,726.33642 261.06591,726.12383 252.66652,726.92483 C 247.83698,727.3854 243.88554,728.6808 243.88554,729.80352 C 243.88554,730.92622 244.91191,731.84478 246.16637,731.84478 C 247.42083,731.84478 248.32567,732.61456 248.17711,733.55541 C 246.93312,741.43401 257.79843,739.82645 259.9257,731.81716 z M 182.47633,727.05252 C 188.97036,726.02596 194.66441,724.80528 195.12977,724.33992 C 196.42815,723.04153 191.58287,697.9365 187.44401,684.51743 L 183.75073,672.54304 L 160.5285,672.54304 L 137.30627,672.54304 L 135.92432,682.62541 C 135.16426,688.17071 133.8452,701.06757 132.99309,711.28507 L 131.44381,729.86239 L 151.0564,729.39069 C 161.84333,729.13127 175.98229,728.0791 182.47633,727.05252 z M 196.86988,689.0791 C 194.62796,679.98427 191.56726,672.54304 190.06832,672.54304 C 188.10673,672.54304 188.47328,676.21838 191.37629,685.65785 C 193.59462,692.87099 196.28625,704.93091 197.35769,712.45767 L 199.30577,726.14269 L 200.12593,715.87893 C 200.57702,710.23386 199.1118,698.17394 196.86988,689.0791 z M 269.18168,720.18385 C 271.71833,716.17831 271.83409,712.97134 269.38743,714.48344 C 268.35996,715.11845 267.98467,712.4673 268.55344,708.59198 C 269.21717,704.06978 268.73703,702.07161 267.21304,703.01348 C 265.73189,703.92887 265.3069,702.68983 266.08346,699.72023 C 266.76819,697.10181 266.0024,689.43186 264.38166,682.67591 L 261.43489,670.39239 L 233.27311,671.8197 C 212.68483,672.86316 205.11132,672.53896 205.11132,670.61418 C 205.11132,669.16615 206.70587,667.98137 208.65476,667.98137 C 211.66553,667.98137 212.12307,664.3813 211.69847,644.03259 C 211.26172,623.10174 210.70459,620.08381 207.27742,620.08381 C 204.23711,620.08381 203.00563,617.27881 201.79622,607.59904 C 199.38116,588.26952 200.94135,560.78207 204.45355,560.78207 C 207.68442,560.78207 208.14602,555.99827 205.96663,545.10132 C 204.63071,538.42173 203.91388,537.97371 194.56245,537.97371 L 184.58379,537.97371 L 184.58379,549.43491 C 184.58379,560.3449 184.91287,560.96194 191.4263,562.26461 L 198.26881,563.63312 L 198.26881,591.71395 L 198.26881,619.79478 L 190.85609,620.5095 C 182.64025,621.30166 182.66715,621.16442 184.57013,652.58572 C 185.22931,663.46974 186.07233,665.70053 189.5262,665.70053 C 192.68371,665.70053 194.63519,669.10742 197.61325,679.81893 L 201.53851,693.93731 L 204.38814,683.81039 L 207.23777,673.68346 L 206.17847,687.36848 C 205.59586,694.89523 204.56004,706.58003 203.87664,713.33468 L 202.6341,725.61584 L 234.90587,724.4821 C 258.97817,723.63642 267.68682,722.54433 269.18168,720.18385 z M 278.0438,713.02788 C 277.94176,707.66785 269.70465,672.51268 268.19773,671.00576 C 264.64886,667.45687 264.38077,672.9064 267.54509,684.27226 C 269.41619,690.99302 271.61989,700.85392 272.44223,706.18537 C 273.26456,711.51683 274.87353,715.87893 276.01773,715.87893 C 277.16191,715.87893 278.07366,714.59596 278.0438,713.02788 z M 180.55925,648.02405 C 180.13152,635.79307 179.45352,624.75952 179.05257,623.50506 C 178.64529,622.23078 171.90407,621.43461 163.7772,621.70095 C 155.7767,621.96313 146.82076,622.21972 143.87512,622.27115 C 138.63517,622.36262 138.54716,622.72203 139.80341,638.90071 C 140.5096,647.99554 141.12351,658.77249 141.16765,662.84949 L 141.2479,670.2622 L 161.29242,670.2622 L 181.33693,670.2622 L 180.55925,648.02405 z M 255.04732,656.00698 C 254.10934,649.42106 253.26697,638.64411 253.17539,632.0582 L 253.00888,620.08381 L 233.62177,620.08381 L 214.23466,620.08381 L 214.23466,644.03259 L 214.23466,667.98137 L 235.4937,667.98137 L 256.75274,667.98137 L 255.04732,656.00698 z M 88.794013,617.80012 C 92.577053,615.77549 92.960213,613.25268 92.171513,595.56197 C 91.682223,584.58702 91.234113,574.32453 91.175703,572.75646 C 91.111763,571.03993 87.898583,569.90541 83.100883,569.90541 C 76.074253,569.90541 75.245353,570.51207 76.088883,575.0373 C 76.615023,577.85983 77.121773,589.14997 77.214993,600.12649 C 77.394883,621.30787 78.652613,623.22762 88.794013,617.80012 z M 186.86463,591.57336 L 186.86463,565.34374 L 158.35417,565.34374 C 134.60451,565.34374 129.81651,565.91505 129.6808,568.765 C 129.5912,570.64669 129.51788,576.80494 129.51788,582.45001 C 129.51788,588.09508 129.5912,598.35885 129.6808,605.25837 L 129.84372,617.80297 L 158.35417,617.80297 L 186.86463,617.80297 L 186.86463,591.57336 z M 264.01449,604.11796 C 264.42251,597.21843 264.07828,585.10292 263.24952,577.1946 L 261.74268,562.81585 L 237.69901,563.22865 C 201.86429,563.84391 204.33133,561.83928 205.91052,589.05862 C 206.64579,601.73186 207.27994,613.41544 207.31976,615.02213 C 207.37545,617.26944 213.83805,617.79563 235.3324,617.30297 L 263.27265,616.66256 L 264.01449,604.11796 z M 313.57909,613.89296 C 312.96019,612.28009 313.44797,610.96047 314.66304,610.96047 C 315.87813,610.96047 316.8723,612.32897 316.8723,614.00157 C 316.8723,615.6742 318.15527,617.04245 319.72335,617.04218 C 321.83267,617.04179 322.57439,610.46507 322.57439,591.76292 L 322.57439,566.48416 L 315.30201,565.77991 L 308.02964,565.07565 L 307.31909,590.95518 C 306.67297,614.48764 306.97566,616.8343 310.65648,616.83008 C 313.01666,616.82739 314.23522,615.60279 313.57909,613.89296 z M 103.68603,611.84402 C 108.92966,608.40826 109.28619,606.92925 109.09665,589.39869 C 108.86027,567.53558 107.42131,563.75603 100.70283,567.35165 C 96.508473,569.59638 96.081403,571.98823 96.181033,592.67632 C 96.241533,605.24152 96.691873,615.52214 97.181773,615.52214 C 97.671673,615.52214 100.59859,613.86698 103.68603,611.84402 z M 192.80431,609.29735 C 192.0464,608.53945 191.50733,609.88658 191.60637,612.29095 C 191.71581,614.94801 192.25627,615.48845 192.98437,613.66896 C 193.64324,612.02247 193.56221,610.05527 192.80431,609.29735 z M 272.65571,589.6903 C 271.4135,560.95181 271.7187,563.06291 268.80637,563.06291 C 267.136,563.06291 266.75323,570.8596 267.60263,587.58189 C 268.28764,601.06734 268.87659,612.93124 268.91142,613.94613 C 268.94625,614.96101 270.02864,615.14001 271.31677,614.3439 C 272.78063,613.43919 273.28267,604.19525 272.65571,589.6903 z M 340.09005,583.5444 C 340.69769,566.51144 340.24358,563.05921 337.39983,563.0926 C 330.32338,563.17567 328.85151,567.09782 327.24089,590.16339 L 325.58742,613.8426 L 332.47322,608.93948 C 339.14088,604.1917 339.3822,603.38715 340.09005,583.5444 z M 192.80431,597.89317 C 192.0464,597.13527 191.50733,598.4824 191.60637,600.88676 C 191.71581,603.54382 192.25627,604.08427 192.98437,602.26478 C 193.64324,600.61829 193.56221,598.65109 192.80431,597.89317 z M 193.70714,580.30379 C 193.70714,574.73276 192.67567,569.53715 191.41498,568.75799 C 189.96821,567.86384 189.3373,571.59677 189.70435,578.87939 C 190.42072,593.09262 193.70714,594.2621 193.70714,580.30379 z M 92.143513,562.2531 C 96.166773,559.3112 96.296383,555.50031 94.835913,483.0837 C 93.992033,441.24039 92.416693,406.12007 91.335153,405.03853 C 90.253613,403.95699 85.902483,403.40345 81.665973,403.80844 L 73.963233,404.54479 L 73.963233,443.31901 C 73.963233,505.5422 75.643493,557.04622 77.813933,561.35228 C 80.218943,566.12367 86.325203,566.50754 92.143513,562.2531 z M 325.99565,560.93721 C 329.03676,560.73723 329.03676,560.46656 325.99565,558.50123 C 323.62622,556.96999 323.46832,556.27952 325.48205,556.25532 C 327.77986,556.22772 328.35257,541.16366 328.21262,484.43421 C 328.1056,441.05279 327.16599,412.11061 325.83797,411.28985 C 324.62931,410.54286 324.27597,408.90332 325.05277,407.64643 C 325.91456,406.25201 323.62552,405.64661 319.18067,406.0934 L 311.8962,406.82563 L 312.36688,449.0211 C 312.62575,472.22861 312.97561,507.18634 313.1443,526.70499 C 313.43862,560.75541 313.63589,562.17251 318.01272,561.6778 C 320.52164,561.39422 324.11396,561.06097 325.99565,560.93721 z M 316.8723,418.36442 C 316.8723,417.81122 317.89868,416.72427 319.15314,415.94898 C 320.4076,415.17368 321.43398,415.62629 321.43398,416.95479 C 321.43398,418.28328 320.4076,419.37023 319.15314,419.37023 C 317.89868,419.37023 316.8723,418.91762 316.8723,418.36442 z M 180.02212,549.37789 L 180.02212,537.97371 L 156.96973,537.97371 C 136.88603,537.97371 134.09563,538.43831 135.30178,541.58151 C 136.06323,543.56579 136.68623,548.69768 136.68623,552.98569 L 136.68623,560.78207 L 158.35417,560.78207 L 180.02212,560.78207 L 180.02212,549.37789 z M 254.97709,548.15851 L 254.68607,535.53497 L 232.74974,536.18412 L 210.81341,536.83329 L 210.124,548.80768 L 209.4346,560.78207 L 232.35135,560.78207 L 255.26811,560.78207 L 254.97709,548.15851 z M 198.26881,533.41746 C 245.31106,532.19028 287.77079,530.54988 292.62377,529.77212 L 301.44735,528.35802 L 300.10622,513.20855 C 299.36859,504.87634 298.55203,480.61068 298.29163,459.28486 C 298.03123,437.95904 297.41184,419.31887 296.91521,417.86226 C 296.41861,416.40565 291.66089,413.92908 286.34258,412.35876 L 276.6729,409.50364 L 276.26812,376.80314 C 275.88116,345.54293 276.06324,344.10264 280.40196,344.10264 C 282.89822,344.10264 284.94059,343.18753 284.94059,342.06906 C 284.94059,339.655 273.57687,336.45939 271.69267,338.34358 C 269.17155,340.8647 267.03042,393.5923 267.66141,437.61692 C 268.01202,462.07889 267.55654,492.87017 266.64922,506.042 C 265.66967,520.26263 265.13217,491.30983 265.32599,434.76587 L 265.65243,339.54096 L 246.21585,339.46867 C 216.72525,339.35898 113.66523,340.02337 105.89494,340.37327 L 99.052433,340.68138 L 98.974443,412.52772 C 98.931553,452.04321 99.252173,495.92079 99.686943,510.03347 L 100.47742,535.69287 L 106.60743,535.67079 C 109.97894,535.65864 151.22656,534.64465 198.26881,533.41746 z M 156.45534,463.44483 C 153.1258,457.0062 152.65208,455.5047 152.65208,451.38985 C 152.65208,450.18374 148.56403,448.09613 143.56752,446.75071 C 132.14216,443.67418 129.84372,439.33194 129.84372,420.82351 C 129.84372,403.23799 132.40414,399.76435 146.97724,397.57898 C 156.23229,396.1911 157.21375,395.44659 157.21375,389.81389 C 157.21375,379.67978 164.31731,375.24888 180.86831,375.05918 C 196.67755,374.87797 203.06438,378.06852 201.19583,385.21383 C 200.41319,388.20665 201.42394,390.11647 204.28234,391.04586 C 218.76924,395.75615 221.09894,397.41723 223.03069,404.41348 C 224.14339,408.44333 224.80322,414.22696 224.49698,417.26598 C 224.19074,420.30501 223.8092,426.14229 223.6491,430.23772 C 223.42387,435.99931 221.7174,438.68168 216.10644,442.09391 C 212.11808,444.51938 207.92905,445.93166 206.79749,445.23232 C 205.66593,444.53298 204.94182,445.86914 205.18836,448.20157 C 205.4349,450.534 205.40003,453.46873 205.11087,454.72319 C 204.82171,455.97765 204.44693,458.54094 204.27802,460.41937 C 204.1091,462.29782 202.68793,463.96569 201.11986,464.12573 C 199.55178,464.2858 197.18186,464.54504 195.85337,464.70185 C 194.52487,464.85866 193.91316,465.75673 194.49401,466.69758 C 195.07486,467.63842 187.50318,468.74064 177.66806,469.14692 C 160.04653,469.87488 159.73749,469.79181 156.45534,463.44483 z M 177.61208,463.45222 C 180.6082,461.35367 182.35395,460.77838 181.49154,462.17377 C 180.5194,463.74672 181.67579,464.57889 184.5345,464.36353 C 190.01033,463.95106 190.38953,462.01632 185.74932,458.16529 C 183.88144,456.61509 182.98336,454.32708 183.75359,453.08083 C 184.60891,451.69689 186.01456,452.01943 187.36489,453.90947 C 189.0489,456.26657 189.26979,456.05283 188.29179,453.01256 C 187.45603,450.41449 188.20213,449.0211 190.42905,449.0211 C 195.09068,449.0211 197.39429,455.86566 193.53534,458.25062 C 191.8208,459.31027 191.13324,460.89251 192.00744,461.76671 C 194.50346,464.26272 199.93191,458.59409 201.15058,452.219 C 202.17944,446.83689 201.67947,446.45903 193.99044,446.80756 C 178.62148,447.50421 171.86353,446.78182 175.02026,444.77975 C 176.65984,443.73988 184.72052,442.67155 192.93287,442.40569 C 213.14476,441.75137 216.85673,439.20826 214.82201,427.40923 C 213.95138,422.36055 213.22959,413.94994 213.21804,408.71898 C 213.19876,399.99104 212.65674,399.12886 206.6333,398.24481 C 200.34668,397.32213 200.12108,397.59892 201.28977,404.80072 C 202.15785,410.15007 201.24638,413.9264 198.13133,417.88654 C 194.39235,422.63989 191.08376,423.68934 175.48322,425.0703 L 157.21375,426.68752 L 157.2449,440.70536 C 157.29306,462.38283 158.91373,465.77179 169.82106,467.00321 C 171.11001,467.14873 174.61597,465.5508 177.61208,463.45222 z M 166.3371,464.09056 C 166.3371,463.59754 167.92997,462.58293 169.87682,461.83584 C 171.90659,461.05696 172.82211,461.43932 172.02304,462.73223 C 170.68361,464.8995 166.3371,465.93783 166.3371,464.09056 z M 152.65208,436.4765 C 152.65208,433.34035 151.39733,430.77441 149.86375,430.77441 C 148.33016,430.77441 149.39766,429.14784 152.23596,427.15982 C 155.07427,425.17179 165.01237,422.81776 174.32063,421.92864 C 183.6289,421.03952 191.91777,419.63904 192.74034,418.81647 C 195.44397,416.11284 197.14235,403.46522 196.34229,391.99335 C 195.60122,381.36741 195.14392,380.6462 188.35936,379.40348 C 178.78071,377.64896 163.52716,381.036 162.14237,385.22495 C 161.19715,388.08421 161.58868,388.12076 164.79672,385.47273 C 170.46663,380.79258 176.25295,383.97041 174.53375,390.82027 C 173.42863,395.22341 173.87013,396.15372 176.57266,395.11667 C 178.46986,394.38864 180.02212,394.85212 180.02212,396.14661 C 180.02212,397.47062 171.05851,399.20146 159.53215,400.10315 C 147.31359,401.05899 138.04957,402.90207 136.58328,404.66884 C 133.09602,408.87073 131.63796,429.19761 134.31816,436.24706 C 136.15822,441.08679 138.05311,442.17859 144.6127,442.17859 C 151.66748,442.17859 152.65208,441.48024 152.65208,436.4765 z M 166.3371,393.14061 C 164.77544,391.25892 162.34042,389.80039 160.92594,389.89942 C 159.32359,390.01162 159.43421,390.51492 161.21943,391.23465 C 162.79532,391.86999 163.50453,393.32852 162.79545,394.47584 C 162.08637,395.62316 163.23202,396.56187 165.34135,396.56187 C 168.49176,396.56187 168.66954,395.95103 166.3371,393.14061 z M 306.29294,411.3873 C 307.33809,408.66368 305.64377,408.00382 297.98383,408.1513 L 288.36185,408.33654 L 295.20436,411.46968 C 303.99664,415.4956 304.71848,415.49024 306.29294,411.3873 z M 339.462,386.11096 C 339.77051,357.57762 339.56859,357.11985 323.1446,349.11763 C 322.20376,348.65923 321.43398,360.02455 321.43398,374.37391 L 321.43398,400.46365 L 328.84669,402.84158 C 332.92369,404.14945 336.93237,405.3243 337.75489,405.45237 C 338.5774,405.58043 339.34561,396.8768 339.462,386.11096 z M 307.12143,401.93322 L 319.0385,400.50172 L 318.1823,391.11907 C 317.7114,385.95862 317.22401,373.88962 317.0992,364.29907 L 316.8723,346.8617 L 298.62561,346.74203 L 280.37892,346.62236 L 280.37892,375.01337 L 280.37892,403.40438 L 287.79164,403.38455 C 291.86863,403.37365 300.56704,402.72055 307.12143,401.93322 z M 96.036053,384.01727 C 96.440593,375.23605 96.407193,364.20251 95.961813,359.49828 C 95.168013,351.11389 94.965513,350.94583 85.698053,350.98007 C 70.807913,351.03508 69.773783,352.53217 71.327983,371.7834 C 72.073743,381.02095 72.715173,391.3613 72.753363,394.76196 C 72.820123,400.70568 73.257793,400.92637 84.061653,400.46405 L 95.300503,399.98312 L 96.036053,384.01727 z M 212.52404,335.16202 C 213.46488,335.06152 214.23466,332.63825 214.23466,329.77698 C 214.23466,324.9152 213.18223,324.53169 198.1568,323.91826 C 189.31397,323.55725 179.0502,323.92709 175.34843,324.74013 C 168.02641,326.34832 166.17511,330.30742 172.6094,330.59769 C 174.99387,330.70526 175.45301,331.24092 173.74982,331.92817 C 163.25354,336.16351 185.65647,338.03196 212.52404,335.16202 z M 245.97631,334.04847 C 245.45361,333.53652 239.12429,331.5812 231.91115,329.70332 C 219.33992,326.43051 218.79634,326.46909 218.79634,330.63414 C 218.79634,334.43737 220.55052,334.97929 232.8615,334.97929 C 240.59733,334.97929 246.499,334.56042 245.97631,334.04847 z M 267.26411,333.46874 C 265.69604,332.83601 263.13009,332.83601 261.56202,333.46874 C 259.99394,334.10147 261.27692,334.61916 264.41307,334.61916 C 267.54922,334.61916 268.83219,334.10147 267.26411,333.46874 z M 257.09947,329.18626 C 253.09665,325.18343 231.16305,319.39154 224.82173,320.66284 L 217.65592,322.09943 L 224.49843,324.00846 C 228.26181,325.05843 234.93325,326.51463 239.32386,327.24447 C 243.71447,327.97431 247.73445,328.98684 248.25714,329.49453 C 248.77983,330.00223 251.26024,330.41762 253.76916,330.41762 C 256.27808,330.41762 257.77672,329.86351 257.09947,329.18626 z M 164.05626,326.02319 C 164.05626,324.86071 165.85242,323.51059 168.04773,323.02293 C 170.24303,322.53526 166.05817,322.17151 158.74804,322.2146 C 145.66953,322.29168 145.57831,322.3369 153.04595,325.04134 C 162.6206,328.50883 164.05626,328.63685 164.05626,326.02319 z M 265.52262,308.17947 C 264.94327,297.20294 264.45658,286.55313 264.44114,284.51321 C 264.42413,282.26481 258.3082,277.59626 248.9102,272.65775 L 233.40733,264.51122 L 233.79331,280.92836 C 234.72249,320.45003 232.92599,315.60088 249.01742,322.02162 C 256.85779,325.15006 264.0159,327.80579 264.92434,327.92324 C 265.83277,328.04069 266.102,319.15599 265.52262,308.17947 z M 229.76096,315.18008 C 230.62995,313.78343 231.02441,302.01465 230.63753,289.02725 L 229.93412,265.41379 L 183.31017,266.07379 L 136.68623,266.73379 L 136.71133,284.32048 C 136.72514,293.99316 137.39185,305.87458 138.19291,310.72363 L 139.64939,319.54008 L 183.91518,318.62977 C 213.03593,318.03091 228.72155,316.85064 229.76096,315.18008 z M 151.95561,303.64117 C 148.7725,302.88616 147.99596,300.8449 148.53436,294.64775 L 149.23083,286.63103 L 184.58379,286.28617 L 219.93676,285.94132 L 220.65147,293.35403 C 221.04457,297.43103 220.53138,300.83149 219.51106,300.91061 C 218.49073,300.98973 206.36578,301.50575 192.56672,302.05732 C 178.76766,302.60889 164.91158,303.41065 161.77543,303.83902 C 158.63928,304.26739 154.22036,304.17836 151.95561,303.64117 z M 160.3619,295.63487 L 159.37543,290.50299 L 162.06439,295.63487 C 165.63239,302.4444 168.68182,302.15606 168.09492,295.06466 C 167.69534,290.23659 166.47563,289.36257 160.13754,289.36257 C 153.67361,289.36257 152.65208,290.14072 152.65208,295.06466 C 152.65208,299.15285 153.88276,300.76675 157.00022,300.76675 C 160.28114,300.76675 161.10624,299.50716 160.3619,295.63487 z M 177.74128,295.06466 C 177.74128,291.51669 176.44881,289.36257 174.32003,289.36257 C 172.19125,289.36257 170.89877,291.51669 170.89877,295.06466 C 170.89877,298.61263 172.19125,300.76675 174.32003,300.76675 C 176.44881,300.76675 177.74128,298.61263 177.74128,295.06466 z M 186.86463,297.91571 C 186.86463,296.97486 186.86463,294.66551 186.86463,292.78382 C 186.86463,290.90213 185.41588,289.36257 183.64519,289.36257 C 181.80854,289.36257 180.75394,291.07694 181.18985,293.35403 C 181.61009,295.54934 182.03247,298.20081 182.12845,299.24619 C 182.3424,301.57652 186.86463,300.30614 186.86463,297.91571 z M 198.26881,293.92424 C 198.26881,290.9578 196.74825,289.36257 193.92067,289.36257 C 190.69545,289.36257 189.8806,290.54064 190.76543,293.92424 C 191.42153,296.43316 193.37819,298.48591 195.11357,298.48591 C 196.84895,298.48591 198.26881,296.43316 198.26881,293.92424 z M 207.39216,295.19927 C 207.39216,291.56674 203.2539,288.17887 201.25655,290.17623 C 199.38024,292.05253 202.30919,298.48591 205.03973,298.48591 C 206.33357,298.48591 207.39216,297.00692 207.39216,295.19927 z M 216.5155,293.92424 C 216.5155,291.38998 214.99494,289.36257 213.09425,289.36257 C 209.25548,289.36257 209.10122,289.7803 211.05743,294.87812 C 213.01307,299.97442 216.5155,299.36232 216.5155,293.92424 z M 243.88554,258.82512 C 243.88554,251.76648 243.17807,250.96331 235.72972,249.56599 C 226.21997,247.78195 221.00926,250.97641 222.72527,257.53845 C 223.66391,261.12779 225.45195,261.86922 231.54908,261.19733 C 235.75472,260.73387 238.70495,261.14872 238.10515,262.11922 C 237.21286,263.56297 238.97796,265.00445 243.31533,266.37414 C 243.62894,266.47318 243.88554,263.07612 243.88554,258.82512 z M 168.61794,255.15003 C 168.61794,248.56095 168.2378,248.30752 158.35417,248.30752 C 148.47055,248.30752 148.09041,248.56095 148.09041,255.15003 C 148.09041,261.73911 148.47055,261.99254 158.35417,261.99254 C 168.2378,261.99254 168.61794,261.73911 168.61794,255.15003 z M 206.71287,255.36538 C 207.07899,250.11096 206.05891,248.46742 201.76223,247.38902 C 191.83287,244.89691 184.24462,249.93911 186.26978,257.68335 C 187.14564,261.03263 189.49672,261.99153 196.8242,261.988 C 205.60052,261.98378 206.28359,261.52632 206.71287,255.36538 z "
       id="path2878"
       inkscape:export-filename="/home/rover/code/python/herobot/arte/pre/robot-2-01.png"
       inkscape:export-xdpi="17.845627"
       inkscape:export-ydpi="17.845627" />
    <path
       style="fill:#fff6d5;fill-opacity:1;stroke:#999999;stroke-width:1.49491251;stroke-miterlimit:1;stroke-opacity:0"
       d="M 173.09717,388.85514 C 173.73227,390.90429 172.97466,391.37754 172.75316,391.80808 C 172.53167,393.86166 171.43495,393.19092 171.03899,393.51663 C 169.313,394.10132 168.64325,394.80102 168.29857,393.23034 C 167.69479,393.23034 167.54286,392.35333 167.01947,392.17113 C 166.49609,391.98893 166.37749,391.65474 165.98155,391.32903 C 165.58559,391.00332 164.91227,390.68611 164.69078,390.25559 C 164.46929,389.82506 164.34678,389.3518 164.34678,388.85514 C 164.34678,388.35849 164.46929,387.88523 164.69078,387.45471 C 164.91227,387.02418 165.23275,386.6364 165.6287,386.31068 C 166.02466,385.98498 167.34289,384.80398 167.86627,384.62179 C 168.38966,384.43959 169.67068,384.26824 170.27446,384.26824 C 170.87824,384.26824 171.38301,384.93356 171.90639,385.11576 C 172.42977,385.29795 172.76007,386.26725 173.15603,386.59295 C 173.12857,386.98923 173.59018,388.08269 173.24714,387.87811 C 174.03316,388.87317 173.09717,388.35849 173.09717,388.85514 z "
       id="path2247"
       sodipodi:nodetypes="cccccccccccccccc"
       inkscape:export-filename="/home/rover/code/python/herobot/arte/pre/robot-2-01.png"
       inkscape:export-xdpi="17.845627"
       inkscape:export-ydpi="17.845627" />
    <path
       style="fill:#fff6d5;fill-opacity:1;stroke:#999999;stroke-width:1.61687326;stroke-miterlimit:1;stroke-opacity:0"
       d="M 186.91974,458.05893 C 185.7322,456.62126 185.16894,456.739 184.85563,456.28146 C 184.38964,454.36633 183.6994,453.57826 185.4244,453.35611 C 185.48176,452.7056 188.83513,457.1044 189.08115,456.55781 C 189.32718,456.01122 189.6985,454.91123 189.00585,453.12549 C 189.39438,452.72982 188.48723,449.94938 188.97212,449.75164 C 189.45701,449.55391 189.97854,449.46686 190.51365,449.51404 C 191.04874,449.56122 191.547,449.73818 191.98981,450.01771 C 192.43262,450.29724 192.81997,450.67936 193.13329,451.1369 C 193.44659,451.59444 194.59378,453.1269 194.74036,453.7081 C 194.88694,454.28931 194.33205,455.60853 194.27469,456.25904 C 194.21734,456.90956 193.45257,457.3902 193.20655,457.93678 C 191.81197,458.47466 191.60249,458.6877 190.25748,459.27337 C 188.82872,459.43602 187.72192,459.3158 186.91974,458.05893 z "
       id="path2250"
       sodipodi:nodetypes="cccccccccccccc"
       inkscape:export-filename="/home/rover/code/python/herobot/arte/pre/robot-2-01.png"
       inkscape:export-xdpi="17.845627"
       inkscape:export-ydpi="17.845627" />
    <path
       style="fill:#666666;fill-opacity:1;stroke:#999999;stroke-width:2;stroke-miterlimit:1;stroke-opacity:0"
       d="M 578.87586,720.42514 L 622.92201,711.11964 L 610.51464,734.07324 L 588.18138,735.93434 L 578.87586,720.42514 z "
       id="path2338"
       sodipodi:nodetypes="ccccc"
       inkscape:export-filename="/home/rover/code/python/herobot/arte/pre/robot-2-02.png"
       inkscape:export-xdpi="17.845625"
       inkscape:export-ydpi="17.845625" />
    <path
       style="fill:#666666;fill-opacity:1;stroke:#999999;stroke-width:2;stroke-miterlimit:1;stroke-opacity:0"
       d="M 500.39927,724.76774 L 544.44542,715.46224 L 532.03805,738.41584 L 509.70479,740.27694 L 500.39927,724.76774 z "
       id="path2340"
       sodipodi:nodetypes="ccccc"
       inkscape:export-filename="/home/rover/code/python/herobot/arte/pre/robot-2-02.png"
       inkscape:export-xdpi="17.845625"
       inkscape:export-ydpi="17.845625" />
    <path
       style="fill:#999999;fill-opacity:1;stroke:#999999;stroke-width:2;stroke-miterlimit:1;stroke-opacity:0"
       d="M 484.11462,531.60058 L 536.84592,529.11911 L 537.46629,557.96623 L 551.73476,555.17457 L 554.8366,608.21606 L 534.98482,617.21139 L 538.70702,658.46584 L 548.01255,663.73904 L 561.04028,703.13234 L 554.21623,717.71104 L 539.94776,723.29434 L 522.26727,721.97604 L 502.1053,725.62074 C 496.2118,724.89224 493.42014,725.38584 488.76738,723.68204 L 484.11462,703.13234 L 484.11462,678.62784 L 485.35536,666.53064 L 494.66088,635.20208 L 484.11462,605.11421 L 484.11462,580.60967 L 484.11462,556.10512 L 484.11462,531.60058 z "
       id="path2342"
       sodipodi:nodetypes="cccccccccccccccccccccc"
       inkscape:export-filename="/home/rover/code/python/herobot/arte/pre/robot-2-02.png"
       inkscape:export-xdpi="17.845625"
       inkscape:export-ydpi="17.845625" />
    <path
       style="fill:#999999;fill-opacity:1;stroke:#999999;stroke-width:2;stroke-miterlimit:1;stroke-opacity:0"
       d="M 560.57499,528.73134 L 613.30629,526.24987 L 613.92666,555.09699 L 628.19513,552.30533 L 631.29697,605.34682 L 611.44519,614.34215 L 615.16739,655.59664 L 624.47292,660.86974 L 637.50065,700.26314 L 630.6766,714.84184 L 616.40813,720.42514 L 598.72764,719.10684 L 578.56567,722.75154 C 572.67217,722.02294 560.57499,719.41474 555.92223,717.71104 L 560.57499,700.26314 L 560.57499,675.75864 L 561.81573,663.66144 L 568.63978,651.56425 L 560.57499,602.24497 L 560.57499,577.74043 L 560.57499,553.23588 L 560.57499,528.73134 z "
       id="path2344"
       sodipodi:nodetypes="cccccccccccccccccccccc"
       inkscape:export-filename="/home/rover/code/python/herobot/arte/pre/robot-2-02.png"
       inkscape:export-xdpi="17.845625"
       inkscape:export-ydpi="17.845625" />
    <path
       style="fill:#ff0000;fill-opacity:1;stroke:#999999;stroke-width:2;stroke-miterlimit:1;stroke-opacity:0"
       d="M 582.01374,241.09367 L 596.71996,242.3024 L 601.35344,246.6337 L 600.14471,262.04505 L 575.3657,257.81448 L 575.26497,245.9286 L 582.01374,241.09367 z "
       id="path2346"
       sodipodi:nodetypes="ccccccc"
       inkscape:export-filename="/home/rover/code/python/herobot/arte/pre/robot-2-02.png"
       inkscape:export-xdpi="17.845625"
       inkscape:export-ydpi="17.845625" />
    <path
       style="fill:#00ff00;fill-opacity:1;stroke:#999999;stroke-width:2;stroke-miterlimit:1;stroke-opacity:0"
       d="M 544.14009,239.88494 L 561.66669,239.68348 L 563.47979,242.60459 L 564.88998,255.19556 L 540.31243,255.19556 L 540.2117,243.30968 L 544.14009,239.88494 z "
       id="path2348"
       sodipodi:nodetypes="ccccccc"
       inkscape:export-filename="/home/rover/code/python/herobot/arte/pre/robot-2-02.png"
       inkscape:export-xdpi="17.845625"
       inkscape:export-ydpi="17.845625" />
    <path
       style="fill:#ffff00;fill-opacity:1;stroke:#999999;stroke-width:2;stroke-miterlimit:1;stroke-opacity:0"
       d="M 505.00733,240.59002 L 522.53393,240.38856 L 524.34703,243.30967 L 525.75722,255.90064 L 501.17967,255.90064 L 501.07894,244.01476 L 505.00733,240.59002 z "
       id="path2350"
       sodipodi:nodetypes="ccccccc"
       inkscape:export-filename="/home/rover/code/python/herobot/arte/pre/robot-2-02.png"
       inkscape:export-xdpi="17.845625"
       inkscape:export-ydpi="17.845625" />
    <path
       style="fill:#999999;fill-opacity:1;stroke:#999999;stroke-width:2;stroke-miterlimit:1;stroke-opacity:0"
       d="M 490.95297,259.13299 L 588.81057,258.25926 L 622.88598,271.14676 L 622.88598,323.35204 L 618.08048,330.23265 L 573.08346,316.14378 L 570.0254,342.68328 L 547.74533,339.51602 L 527.2127,332.08932 L 491.8267,314.17789 L 490.95297,259.13299 z "
       id="path2352"
       sodipodi:nodetypes="ccccccccccc"
       inkscape:export-filename="/home/rover/code/python/herobot/arte/pre/robot-2-02.png"
       inkscape:export-xdpi="17.845625"
       inkscape:export-ydpi="17.845625" />
    <path
       style="fill:#cccccc;fill-opacity:1;stroke:#999999;stroke-width:2;stroke-miterlimit:1;stroke-opacity:0"
       d="M 452.12564,330.49712 C 507.45541,335.75617 596.04615,324.17666 621.30597,323.50729 C 633.45987,332.44894 661.17448,335.73949 661.17448,335.73949 L 660.30075,525.41129 L 456.08282,532.19502 C 456.08282,532.19502 422.134,354.94484 452.12564,330.49712 z "
       id="path2354"
       sodipodi:nodetypes="cccccc"
       inkscape:export-filename="/home/rover/code/python/herobot/arte/pre/robot-2-02.png"
       inkscape:export-xdpi="17.845625"
       inkscape:export-ydpi="17.845625" />
    <path
       style="fill:#ffdd55;fill-opacity:1;stroke:#999999;stroke-width:2;stroke-miterlimit:1;stroke-opacity:0"
       d="M 524.06719,460.96735 L 515.69704,459.19999 L 511.53261,451.8448 L 506.34295,419.97812 L 519.50706,413.89727 L 537.1417,413.10599 L 553.20196,404.57585 L 554.99225,388.41217 L 569.70236,394.87751 L 576.20853,402.92923 L 572.31702,435.99419 L 566.36391,438.98692 L 558.93301,439.59849 L 557.95334,445.05189 L 555.54761,454.36585 L 536.02219,460.31313 L 524.06719,460.96735 z "
       id="path2356"
       sodipodi:nodetypes="ccccccccccccccccc"
       inkscape:export-filename="/home/rover/code/python/herobot/arte/pre/robot-2-02.png"
       inkscape:export-xdpi="17.845625"
       inkscape:export-ydpi="17.845625" />
    <path
       style="fill:#5555ff;fill-opacity:1;stroke:#999999;stroke-width:2;stroke-miterlimit:1;stroke-opacity:0"
       d="M 535.02533,369.94075 L 543.50499,371.07137 L 553.11528,375.45253 L 554.81121,396.51036 L 548.02748,413.89367 L 530.50285,416.01358 L 510.71696,419.82943 L 510.15165,436.08212 L 499.41075,436.64743 L 488.10453,433.3969 L 488.66984,396.79302 L 499.41074,392.41186 L 511.84758,390.85725 L 512.41289,385.34547 L 514.10883,375.87651 L 523.1538,371.49535 L 535.02533,369.94075 z "
       id="path2358"
       sodipodi:nodetypes="ccccccccccccccccc"
       inkscape:export-filename="/home/rover/code/python/herobot/arte/pre/robot-2-02.png"
       inkscape:export-xdpi="17.845625"
       inkscape:export-ydpi="17.845625" />
    <path
       style="fill:#cccccc;fill-opacity:1;stroke:#999999;stroke-width:0.85663116;stroke-miterlimit:1;stroke-opacity:0"
       d="M 658.95647,337.99429 L 693.56372,346.57947 L 694.69434,399.34467 L 683.38812,408.01562 L 688.47592,517.87723 L 688.75858,550.19559 L 698.08621,557.64028 L 694.79736,576.27612 L 694.85012,603.24088 L 692.6936,604.38108 L 690.53709,605.52128 L 688.38057,606.66148 L 686.22406,607.80168 L 684.06755,608.94188 L 681.91103,610.08208 L 679.75452,611.22228 L 677.598,612.36248 L 675.65348,612.16007 L 673.70895,611.95766 L 671.76443,611.75524 L 669.8199,611.55283 L 667.87538,611.35042 L 665.93086,611.148 L 663.98633,610.94559 L 662.04181,610.74318 L 660.03087,587.17848 C 659.549,575.55485 658.86457,577.73483 664.80367,554.56881 L 666.74991,510.08761 L 666.43491,470.69421 L 664.42397,425.6477 L 653.36806,401.5177 L 651.92243,366.64678 L 658.95647,337.99429 z "
       id="path2360"
       sodipodi:nodetypes="ccccccccccccccccccccccccccccccccc"
       inkscape:export-filename="/home/rover/code/python/herobot/arte/pre/robot-2-02.png"
       inkscape:export-xdpi="17.845625"
       inkscape:export-ydpi="17.845625" />
    <path
       style="fill:#cccccc;fill-opacity:1;stroke:#999999;stroke-width:0.85663116;stroke-miterlimit:1;stroke-opacity:0"
       d="M 424.10499,344.72903 L 452.38829,339.79449 L 454.85556,556.25213 L 468.42554,558.38843 L 467.1919,609.87009 L 430.27316,616.03826 L 424.10499,344.72903 z "
       id="path2362"
       sodipodi:nodetypes="ccccccc"
       inkscape:export-filename="/home/rover/code/python/herobot/arte/pre/robot-2-02.png"
       inkscape:export-xdpi="17.845625"
       inkscape:export-ydpi="17.845625" />
    <path
       style="fill:#000000"
       d="M 506.1984,736.48574 C 504.64219,733.99384 503.36892,730.30584 503.36892,728.29014 C 503.36892,725.35944 501.54142,724.83644 494.24557,725.67914 C 488.48743,726.34424 485.02891,725.79174 484.86924,724.18114 C 484.24191,717.85334 485.6982,689.49324 487.23016,678.20414 C 488.37629,669.75824 488.12551,665.72654 486.45109,665.67954 C 485.09299,665.64134 485.77797,664.56404 487.97327,663.28534 C 491.3485,661.31944 491.96474,657.48114 491.96474,638.42413 C 491.96474,616.78958 491.75938,615.85857 486.83285,615.1589 C 481.85014,614.45125 481.67915,613.55168 480.95023,584.21128 C 480.28479,557.42587 480.60872,554.14954 483.80128,555.37465 C 486.81919,556.53272 487.40306,554.68365 487.40306,543.96816 L 487.40306,531.17954 L 471.43721,531.17954 L 455.47135,531.17954 L 455.47135,542.58372 C 455.47135,553.43861 455.77346,554.0009 461.74365,554.258 C 465.19342,554.40655 468.75665,554.41624 469.66194,554.27955 C 470.56723,554.14284 470.31063,556.65406 469.09173,559.86003 C 466.15413,567.5865 466.2062,599.60462 469.15637,599.60462 C 474.22728,599.60462 470.84897,603.35299 460.60092,609.09726 C 448.76375,615.73226 435.32292,618.96238 431.14811,616.1754 C 429.23357,614.89731 428.0703,586.10935 426.97829,512.98305 C 426.14531,457.20217 424.86642,410.59676 424.13633,409.41545 C 423.40624,408.23413 422.47498,392.60176 422.06687,374.67685 L 421.32484,342.0861 L 435.52415,341.40791 C 447.44119,340.83873 449.85832,340.02245 450.56255,336.32935 C 451.98483,328.87076 456.59929,325.90363 463.77416,327.83419 C 475.44317,330.974 521.61561,331.2308 521.61561,328.15589 C 521.61561,326.61696 520.06424,326.01155 518.07589,326.77456 C 516.12905,327.52163 515.09083,327.23543 515.76874,326.13855 C 516.44664,325.04167 511.11148,322.23089 503.91281,319.89238 L 490.82432,315.64052 L 489.6839,286.61077 L 488.54348,257.58102 L 494.92054,256.18546 C 500.49577,254.96537 501.16359,253.93955 500.23176,248.02699 C 499.33491,242.33643 500.12827,240.89819 505.23514,238.95656 C 508.57322,237.68743 514.65078,237.27683 518.74083,238.04413 C 525.37681,239.28905 526.17728,240.26112 526.17728,247.07477 C 526.17728,251.93334 527.4894,255.21383 529.78508,256.09476 C 536.3327,258.60732 537.58146,257.56328 537.58146,249.57652 C 537.58146,240.92895 542.146,236.95168 552.07041,236.95168 C 562.21423,236.95168 564.9515,239.23647 564.9515,247.70349 C 564.9515,254.04581 565.69296,255.40189 568.5593,254.30197 C 570.54359,253.54053 572.56413,252.91753 573.04939,252.91753 C 573.53465,252.91753 573.33588,251.36489 572.60768,249.46723 C 570.1533,243.07122 576.4161,238.89846 587.5914,239.48392 C 602.54448,240.26729 603.02233,240.64109 604.63769,252.81828 C 605.92788,262.54423 607.02638,264.28589 613.93965,267.56644 C 618.25109,269.61236 622.42096,272.32558 623.206,273.59583 C 624.9937,276.48836 625.10088,318.12591 623.328,320.99444 C 622.61007,322.15612 623.29432,324.05232 624.84857,325.20821 C 629.66638,328.79119 652.2481,334.71762 663.02747,335.22803 C 669.26565,335.5234 678.02593,338.29233 685.36297,342.28777 C 692.00244,345.90334 698.67388,348.16427 700.1884,347.31206 C 702.18181,346.19041 702.15492,346.61068 700.09106,348.83421 C 698.14484,350.931 697.24001,360.44734 697.24001,378.81968 L 697.24001,405.73355 L 691.50633,405.73355 L 685.77263,405.73355 L 686.37445,479.29052 L 686.97625,552.84748 L 693.47367,553.59092 L 699.97106,554.33434 L 698.89177,575.71227 C 697.82544,596.83325 697.71178,597.18518 689.43636,604.98991 C 682.48718,611.54382 679.03898,613.0208 669.19535,613.65982 L 657.33046,614.43006 L 657.90833,593.90253 C 658.60561,569.13427 660.42608,556.26874 663.23352,556.26874 C 664.443,556.26874 665.20902,533.50855 665.05666,502.09888 C 664.75237,439.37002 663.28105,410.29522 660.41103,410.29522 C 659.27289,410.29522 658.48828,434.92933 658.62557,466.35352 C 658.76025,497.18559 658.36676,522.9155 657.75116,523.5311 C 657.13556,524.14669 647.03737,525.57844 635.3107,526.71273 C 623.58403,527.84703 613.91616,528.80291 613.82652,528.83689 C 613.62679,528.91266 614.45856,547.14797 614.84842,551.2402 C 615.05042,553.36026 617.38433,553.77168 623.11283,552.69699 L 631.09576,551.1994 L 631.09576,577.4963 C 631.09576,591.9596 631.67051,605.29095 632.37296,607.12153 C 633.33109,609.61841 631.08704,610.83418 623.38965,611.98849 C 611.58725,613.75837 610.86049,615.69266 612.88821,639.93854 C 614.18862,655.48784 614.79911,656.71234 621.50315,657.21734 C 625.13682,657.49104 626.86695,660.47934 629.6854,671.35014 C 631.65121,678.93234 633.85826,689.24144 634.58993,694.25934 C 635.3216,699.27714 636.32829,705.43544 636.82704,707.94434 C 637.72193,712.44624 629.76779,718.20814 622.65812,718.20814 C 621.02653,718.20814 619.69158,720.60294 619.69158,723.53004 C 619.69158,726.45714 618.92179,729.62174 617.98095,730.56264 C 617.0401,731.50344 616.27032,733.47074 616.27032,734.93424 C 616.27032,736.62414 610.80177,737.83794 601.28492,738.26024 C 586.3169,738.92454 586.29466,738.91634 582.10079,731.12874 C 578.35081,724.16544 576.6555,723.20354 566.23931,722.12844 C 548.48145,720.29564 543.34317,721.98534 540.19442,730.69304 C 537.23419,738.87944 532.83523,740.93534 518.17279,740.98534 C 511.49668,741.00804 508.26403,739.79334 506.1984,736.48574 z M 518.19436,734.17394 C 518.96966,732.91954 517.74726,731.77404 515.47792,731.62854 C 511.66471,731.38404 511.65451,731.28484 515.34331,730.32084 C 521.16963,728.79834 520.22352,725.05064 514.01282,725.05064 C 506.96245,725.05064 505.32534,727.02514 508.09109,732.19304 C 510.55656,736.79974 515.92141,737.85164 518.19436,734.17394 z M 537.16646,728.47184 C 539.99389,722.26634 538.74223,721.60384 529.08282,724.19314 C 524.9176,725.30964 524.41982,726.32844 526.31202,729.86404 C 529.50785,735.83554 534.07846,735.24924 537.16646,728.47184 z M 599.73426,732.66344 C 598.16618,732.03064 596.88321,729.03254 596.88321,726.00094 C 596.88321,721.39704 595.7559,720.48894 590.0407,720.48894 C 582.77611,720.48894 581.7418,722.62924 585.55928,729.76224 C 587.18198,732.79424 590.21345,734.11764 595.25283,733.99384 C 599.28569,733.89484 601.30233,733.29614 599.73426,732.66344 z M 615.20421,725.02294 C 616.65989,719.54224 616.34442,719.32964 607.94503,720.13064 C 603.11549,720.59124 599.16405,721.88664 599.16405,723.00934 C 599.16405,724.13204 600.19042,725.05064 601.44488,725.05064 C 602.69934,725.05064 603.60418,725.82034 603.45562,726.76124 C 602.21163,734.63984 613.07694,733.03224 615.20421,725.02294 z M 537.75484,720.25834 C 544.24887,719.23174 549.94292,718.01114 550.40828,717.54574 C 551.70666,716.24734 546.86138,691.14234 542.72252,677.72324 L 539.02924,665.74884 L 515.80701,665.74884 L 492.58478,665.74884 L 491.20283,675.83124 C 490.44277,681.37654 489.12371,694.27344 488.2716,704.49094 L 486.72232,723.06824 L 506.33491,722.59654 C 517.12184,722.33714 531.2608,721.28494 537.75484,720.25834 z M 552.14839,682.28494 C 549.90647,673.19014 546.84577,665.74884 545.34683,665.74884 C 543.38524,665.74884 543.75179,669.42424 546.6548,678.86364 C 548.87313,686.07684 551.56476,698.13674 552.6362,705.66354 L 554.58428,719.34854 L 555.40444,709.08474 C 555.85553,703.43964 554.39031,691.37974 552.14839,682.28494 z M 624.46019,713.38964 C 626.99684,709.38414 627.1126,706.17714 624.66594,707.68924 C 623.63847,708.32424 623.26318,705.67314 623.83195,701.79784 C 624.49568,697.27564 624.01554,695.27744 622.49155,696.21934 C 621.0104,697.13474 620.58541,695.89564 621.36197,692.92604 C 622.0467,690.30764 621.28091,682.63764 619.66017,675.88174 L 616.7134,663.59824 L 588.55162,665.02554 C 567.96334,666.06894 560.38983,665.74474 560.38983,663.82004 C 560.38983,662.37194 561.98438,661.18724 563.93327,661.18724 C 566.94404,661.18724 567.40158,657.58714 566.97698,637.23842 C 566.54023,616.30757 565.9831,613.28964 562.55593,613.28964 C 559.51562,613.28964 558.28414,610.48464 557.07473,600.80487 C 554.65967,581.47535 556.21986,553.9879 559.73206,553.9879 C 562.96293,553.9879 563.42453,549.2041 561.24514,538.30715 C 559.90922,531.62756 559.19239,531.17954 549.84096,531.17954 L 539.8623,531.17954 L 539.8623,542.64074 C 539.8623,553.55073 540.19138,554.16777 546.70481,555.47044 L 553.54732,556.83895 L 553.54732,584.91978 L 553.54732,613.00061 L 546.1346,613.71533 C 537.91876,614.50749 537.94566,614.37025 539.84864,645.79155 C 540.50782,656.67554 541.35084,658.90634 544.80471,658.90634 C 547.96222,658.90634 549.9137,662.31324 552.89176,673.02474 L 556.81702,687.14314 L 559.66665,677.01624 L 562.51628,666.88924 L 561.45698,680.57434 C 560.87437,688.10104 559.83855,699.78584 559.15515,706.54054 L 557.91261,718.82164 L 590.18438,717.68794 C 614.25668,716.84224 622.96533,715.75014 624.46019,713.38964 z M 633.32231,706.23374 C 633.22027,700.87364 624.98316,665.71854 623.47624,664.21154 C 619.92737,660.66274 619.65928,666.11224 622.8236,677.47804 C 624.6947,684.19884 626.8984,694.05974 627.72074,699.39124 C 628.54307,704.72264 630.15204,709.08474 631.29624,709.08474 C 632.44042,709.08474 633.35217,707.80174 633.32231,706.23374 z M 535.83776,641.22988 C 535.41003,628.9989 534.73203,617.96535 534.33108,616.71089 C 533.9238,615.43661 527.18258,614.64044 519.05571,614.90678 C 511.05521,615.16896 502.09927,615.42555 499.15363,615.47698 C 493.91368,615.56845 493.82567,615.92786 495.08192,632.10654 C 495.78811,641.20137 496.40202,651.97832 496.44616,656.05534 L 496.52641,663.46804 L 516.57093,663.46804 L 536.61544,663.46804 L 535.83776,641.22988 z M 610.32583,649.21281 C 609.38785,642.62689 608.54548,631.84994 608.4539,625.26403 L 608.28739,613.28964 L 588.90028,613.28964 L 569.51317,613.28964 L 569.51317,637.23842 L 569.51317,661.18724 L 590.77221,661.18724 L 612.03125,661.18724 L 610.32583,649.21281 z M 444.07252,611.00595 C 447.85556,608.98132 448.23872,606.45851 447.45002,588.7678 C 446.96073,577.79285 446.51262,567.53036 446.45421,565.96229 C 446.39027,564.24576 443.17709,563.11124 438.37939,563.11124 C 431.35276,563.11124 430.52386,563.7179 431.36739,568.24313 C 431.89353,571.06566 432.40028,582.3558 432.4935,593.33232 C 432.67339,614.5137 433.93112,616.43345 444.07252,611.00595 z M 542.14314,584.77919 L 542.14314,558.54957 L 513.63268,558.54957 C 489.88302,558.54957 485.09502,559.12088 484.95931,561.97083 C 484.86971,563.85252 484.79639,570.01077 484.79639,575.65584 C 484.79639,581.30091 484.86971,591.56468 484.95931,598.4642 L 485.12223,611.0088 L 513.63268,611.0088 L 542.14314,611.0088 L 542.14314,584.77919 z M 619.293,597.32379 C 619.70102,590.42426 619.35679,578.30875 618.52803,570.40043 L 617.02119,556.02168 L 592.97752,556.43448 C 557.1428,557.04974 559.60984,555.04511 561.18903,582.26445 C 561.9243,594.93769 562.55845,606.62127 562.59827,608.22796 C 562.65396,610.47527 569.11656,611.00146 590.61091,610.5088 L 618.55116,609.86839 L 619.293,597.32379 z M 668.8576,607.09879 C 668.2387,605.48592 668.72648,604.1663 669.94155,604.1663 C 671.15664,604.1663 672.15081,605.5348 672.15081,607.2074 C 672.15081,608.88003 673.43378,610.24828 675.00186,610.24801 C 677.11118,610.24762 677.8529,603.6709 677.8529,584.96875 L 677.8529,559.68999 L 670.58052,558.98574 L 663.30815,558.28148 L 662.5976,584.16101 C 661.95148,607.69347 662.25417,610.04013 665.93499,610.03591 C 668.29517,610.03322 669.51373,608.80862 668.8576,607.09879 z M 458.96454,605.04985 C 464.20817,601.61409 464.5647,600.13508 464.37516,582.60452 C 464.13878,560.74141 462.69982,556.96186 455.98134,560.55748 C 451.78698,562.80221 451.35991,565.19406 451.45954,585.88215 C 451.52004,598.44735 451.97038,608.72797 452.46028,608.72797 C 452.95018,608.72797 455.8771,607.07281 458.96454,605.04985 z M 548.08282,602.50318 C 547.32491,601.74528 546.78584,603.09241 546.88488,605.49678 C 546.99432,608.15384 547.53478,608.69428 548.26288,606.87479 C 548.92175,605.2283 548.84072,603.2611 548.08282,602.50318 z M 627.93422,582.89613 C 626.69201,554.15764 626.99721,556.26874 624.08488,556.26874 C 622.41451,556.26874 622.03174,564.06543 622.88114,580.78772 C 623.56615,594.27317 624.1551,606.13707 624.18993,607.15196 C 624.22476,608.16684 625.30715,608.34584 626.59528,607.54973 C 628.05914,606.64502 628.56118,597.40108 627.93422,582.89613 z M 695.36856,576.75023 C 695.9762,559.71727 695.52209,556.26504 692.67834,556.29843 C 685.60189,556.3815 684.13002,560.30365 682.5194,583.36922 L 680.86593,607.04843 L 687.75173,602.14531 C 694.41939,597.39753 694.66071,596.59298 695.36856,576.75023 z M 548.08282,591.099 C 547.32491,590.3411 546.78584,591.68823 546.88488,594.09259 C 546.99432,596.74965 547.53478,597.2901 548.26288,595.47061 C 548.92175,593.82412 548.84072,591.85692 548.08282,591.099 z M 548.98565,573.50962 C 548.98565,567.93859 547.95418,562.74298 546.69349,561.96382 C 545.24672,561.06967 544.61581,564.8026 544.98286,572.08522 C 545.69923,586.29845 548.98565,587.46793 548.98565,573.50962 z M 447.42202,555.45893 C 451.44528,552.51703 451.57489,548.70614 450.11442,476.28953 C 449.27054,434.44622 447.6952,399.3259 446.61366,398.24436 C 445.53212,397.16282 441.18099,396.60928 436.94448,397.01427 L 429.24174,397.75062 L 429.24174,436.52484 C 429.24174,498.74803 430.922,550.25205 433.09244,554.55811 C 435.49745,559.3295 441.60371,559.71337 447.42202,555.45893 z M 681.27416,554.14304 C 684.31527,553.94306 684.31527,553.67239 681.27416,551.70706 C 678.90473,550.17582 678.74683,549.48535 680.76056,549.46115 C 683.05837,549.43355 683.63108,534.36949 683.49113,477.64004 C 683.38411,434.25862 682.4445,405.31644 681.11648,404.49568 C 679.90782,403.74869 679.55448,402.10915 680.33128,400.85226 C 681.19307,399.45784 678.90403,398.85244 674.45918,399.29923 L 667.17471,400.03146 L 667.64539,442.22693 C 667.90426,465.43444 668.25412,500.39217 668.42281,519.91082 C 668.71713,553.96124 668.9144,555.37834 673.29123,554.88363 C 675.80015,554.60005 679.39247,554.2668 681.27416,554.14304 z M 672.15081,411.57025 C 672.15081,411.01705 673.17719,409.9301 674.43165,409.15481 C 675.68611,408.37951 676.71249,408.83212 676.71249,410.16062 C 676.71249,411.48911 675.68611,412.57606 674.43165,412.57606 C 673.17719,412.57606 672.15081,412.12345 672.15081,411.57025 z M 535.30063,542.58372 L 535.30063,531.17954 L 512.24824,531.17954 C 492.16454,531.17954 489.37414,531.64414 490.58029,534.78734 C 491.34174,536.77162 491.96474,541.90351 491.96474,546.19152 L 491.96474,553.9879 L 513.63268,553.9879 L 535.30063,553.9879 L 535.30063,542.58372 z M 610.2556,541.36434 L 609.96458,528.7408 L 588.02825,529.38995 L 566.09192,530.03912 L 565.40251,542.01351 L 564.71311,553.9879 L 587.62986,553.9879 L 610.54662,553.9879 L 610.2556,541.36434 z M 553.54732,526.62329 C 600.58957,525.39611 643.0493,523.75571 647.90228,522.97795 L 656.72586,521.56385 L 655.38473,506.41438 C 654.6471,498.08217 653.83054,473.81651 653.57014,452.49069 C 653.30974,431.16487 652.69035,412.5247 652.19372,411.06809 C 651.69712,409.61148 646.9394,407.13491 641.62109,405.56459 L 631.95141,402.70947 L 631.54663,370.00897 C 631.15967,338.74876 631.34175,337.30847 635.68047,337.30847 C 638.17673,337.30847 640.2191,336.39336 640.2191,335.27489 C 640.2191,332.86083 628.85538,329.66522 626.97118,331.54941 C 624.45006,334.07053 622.30893,386.79813 622.93992,430.82275 C 623.29053,455.28472 622.83505,486.076 621.92773,499.24783 C 620.94818,513.46846 620.41068,484.51566 620.6045,427.9717 L 620.93094,332.74679 L 601.49436,332.6745 C 572.00376,332.56481 468.94374,333.2292 461.17345,333.5791 L 454.33094,333.88721 L 454.25295,405.73355 C 454.21006,445.24904 454.53068,489.12662 454.96545,503.2393 L 455.75593,528.8987 L 461.88594,528.87662 C 465.25745,528.86447 506.50507,527.85048 553.54732,526.62329 z M 511.73385,456.65066 C 508.40431,450.21203 507.93059,448.71053 507.93059,444.59568 C 507.93059,443.38957 503.84254,441.30196 498.84603,439.95654 C 487.42067,436.88001 485.12223,432.53777 485.12223,414.02934 C 485.12223,396.44382 487.68265,392.97018 502.25575,390.78481 C 511.5108,389.39693 512.49226,388.65242 512.49226,383.01972 C 512.49226,372.88561 519.59582,368.45471 536.14682,368.26501 C 551.95606,368.0838 558.34289,371.27435 556.47434,378.41966 C 555.6917,381.41248 556.70245,383.3223 559.56085,384.25169 C 574.04775,388.96198 576.37745,390.62306 578.3092,397.61931 C 579.4219,401.64916 580.08173,407.43279 579.77549,410.47181 C 579.46925,413.51084 579.08771,419.34812 578.92761,423.44355 C 578.70238,429.20514 576.99591,431.88751 571.38495,435.29974 C 567.39659,437.72521 563.20756,439.13749 562.076,438.43815 C 560.94444,437.73881 560.22033,439.07497 560.46687,441.4074 C 560.71341,443.73983 560.67854,446.67456 560.38938,447.92902 C 560.10022,449.18348 559.72544,451.74677 559.55653,453.6252 C 559.38761,455.50365 557.96644,457.17152 556.39837,457.33156 C 554.83029,457.49163 552.46037,457.75087 551.13188,457.90768 C 549.80338,458.06449 549.19167,458.96256 549.77252,459.90341 C 550.35337,460.84425 542.78169,461.94647 532.94657,462.35275 C 515.32504,463.08071 515.016,462.99764 511.73385,456.65066 z M 532.89059,456.65805 C 535.88671,454.5595 537.63246,453.98421 536.77005,455.3796 C 535.79791,456.95255 536.9543,457.78472 539.81301,457.56936 C 545.28884,457.15689 545.66804,455.22215 541.02783,451.37112 C 539.15995,449.82092 538.26187,447.53291 539.0321,446.28666 C 539.88742,444.90272 541.29307,445.22526 542.6434,447.1153 C 544.32741,449.4724 544.5483,449.25866 543.5703,446.21839 C 542.73454,443.62032 543.48064,442.22693 545.70756,442.22693 C 550.36919,442.22693 552.6728,449.07149 548.81385,451.45645 C 547.09931,452.5161 546.41175,454.09834 547.28595,454.97254 C 549.78197,457.46855 555.21042,451.79992 556.42909,445.42483 C 557.45795,440.04272 556.95798,439.66486 549.26895,440.01339 C 533.89999,440.71004 527.14204,439.98765 530.29877,437.98558 C 531.93835,436.94571 539.99903,435.87738 548.21138,435.61152 C 568.42327,434.9572 572.13524,432.41409 570.10052,420.61506 C 569.22989,415.56638 568.5081,407.15577 568.49655,401.92481 C 568.47727,393.19687 567.93525,392.33469 561.91181,391.45064 C 555.62519,390.52796 555.39959,390.80475 556.56828,398.00655 C 557.43636,403.3559 556.52489,407.13223 553.40984,411.09237 C 549.67086,415.84572 546.36227,416.89517 530.76173,418.27613 L 512.49226,419.89335 L 512.52341,433.91119 C 512.57157,455.58866 514.19224,458.97762 525.09957,460.20904 C 526.38852,460.35456 529.89448,458.75663 532.89059,456.65805 z M 521.61561,457.29639 C 521.61561,456.80337 523.20848,455.78876 525.15533,455.04167 C 527.1851,454.26279 528.10062,454.64515 527.30155,455.93806 C 525.96212,458.10533 521.61561,459.14366 521.61561,457.29639 z M 507.93059,429.68233 C 507.93059,426.54618 506.67584,423.98024 505.14226,423.98024 C 503.60867,423.98024 504.67617,422.35367 507.51447,420.36565 C 510.35278,418.37762 520.29088,416.02359 529.59914,415.13447 C 538.90741,414.24535 547.19628,412.84487 548.01885,412.0223 C 550.72248,409.31867 552.42086,396.67105 551.6208,385.19918 C 550.87973,374.57324 550.42243,373.85203 543.63787,372.60931 C 534.05922,370.85479 518.80567,374.24183 517.42088,378.43078 C 516.47566,381.29004 516.86719,381.32659 520.07523,378.67856 C 525.74514,373.99841 531.53146,377.17624 529.81226,384.0261 C 528.70714,388.42924 529.14864,389.35955 531.85117,388.3225 C 533.74837,387.59447 535.30063,388.05795 535.30063,389.35244 C 535.30063,390.67645 526.33702,392.40729 514.81066,393.30898 C 502.5921,394.26482 493.32808,396.1079 491.86179,397.87467 C 488.37453,402.07656 486.91647,422.40344 489.59667,429.45289 C 491.43673,434.29262 493.33162,435.38442 499.89121,435.38442 C 506.94599,435.38442 507.93059,434.68607 507.93059,429.68233 z M 521.61561,386.34644 C 520.05395,384.46475 517.61893,383.00622 516.20445,383.10525 C 514.6021,383.21745 514.71272,383.72075 516.49794,384.44048 C 518.07383,385.07582 518.78304,386.53435 518.07396,387.68167 C 517.36488,388.82899 518.51053,389.7677 520.61986,389.7677 C 523.77027,389.7677 523.94805,389.15686 521.61561,386.34644 z M 661.57145,404.59313 C 662.6166,401.86951 660.92228,401.20965 653.26234,401.35713 L 643.64036,401.54237 L 650.48287,404.67551 C 659.27515,408.70143 659.99699,408.69607 661.57145,404.59313 z M 694.74051,379.31679 C 695.04902,350.78345 694.8471,350.32568 678.42311,342.32346 C 677.48227,341.86506 676.71249,353.23038 676.71249,367.57974 L 676.71249,393.66948 L 684.1252,396.04741 C 688.2022,397.35528 692.21088,398.53013 693.0334,398.6582 C 693.85591,398.78626 694.62412,390.08263 694.74051,379.31679 z M 662.39994,395.13905 L 674.31701,393.70755 L 673.46081,384.3249 C 672.98991,379.16445 672.50252,367.09545 672.37771,357.5049 L 672.15081,340.06753 L 653.90412,339.94786 L 635.65743,339.82819 L 635.65743,368.2192 L 635.65743,396.61021 L 643.07015,396.59038 C 647.14714,396.57948 655.84555,395.92638 662.39994,395.13905 z M 451.31456,377.2231 C 451.7191,368.44188 451.6857,357.40834 451.24032,352.70411 C 450.44652,344.31972 450.24402,344.15166 440.97656,344.1859 C 426.08642,344.24091 425.05229,345.738 426.60649,364.98923 C 427.35225,374.22678 427.99368,384.56713 428.03187,387.96779 C 428.09863,393.91151 428.5363,394.1322 439.34016,393.66988 L 450.57901,393.18895 L 451.31456,377.2231 z M 567.80255,328.36785 C 568.74339,328.26735 569.51317,325.84408 569.51317,322.98281 C 569.51317,318.12103 568.46074,317.73752 553.43531,317.12409 C 544.59248,316.76308 534.32871,317.13292 530.62694,317.94596 C 523.30492,319.55415 521.45362,323.51325 527.88791,323.80352 C 530.27238,323.91109 530.73152,324.44675 529.02833,325.134 C 518.53205,329.36934 540.93498,331.23779 567.80255,328.36785 z M 601.25482,327.2543 C 600.73212,326.74235 594.4028,324.78703 587.18966,322.90915 C 574.61843,319.63634 574.07485,319.67492 574.07485,323.83997 C 574.07485,327.6432 575.82903,328.18512 588.14001,328.18512 C 595.87584,328.18512 601.77751,327.76625 601.25482,327.2543 z M 622.54262,326.67457 C 620.97455,326.04184 618.4086,326.04184 616.84053,326.67457 C 615.27245,327.3073 616.55543,327.82499 619.69158,327.82499 C 622.82773,327.82499 624.1107,327.3073 622.54262,326.67457 z M 612.37798,322.39209 C 608.37516,318.38926 586.44156,312.59737 580.10024,313.86867 L 572.93443,315.30526 L 579.77694,317.21429 C 583.54032,318.26426 590.21176,319.72046 594.60237,320.4503 C 598.99298,321.18014 603.01296,322.19267 603.53565,322.70036 C 604.05834,323.20806 606.53875,323.62345 609.04767,323.62345 C 611.55659,323.62345 613.05523,323.06934 612.37798,322.39209 z M 519.33477,319.22902 C 519.33477,318.06654 521.13093,316.71642 523.32624,316.22876 C 525.52154,315.74109 521.33668,315.37734 514.02655,315.42043 C 500.94804,315.49751 500.85682,315.54273 508.32446,318.24717 C 517.89911,321.71466 519.33477,321.84268 519.33477,319.22902 z M 620.80113,301.3853 C 620.22178,290.40877 619.73509,279.75896 619.71965,277.71904 C 619.70264,275.47064 613.58671,270.80209 604.18871,265.86358 L 588.68584,257.71705 L 589.07182,274.13419 C 590.001,313.65586 588.2045,308.80671 604.29593,315.22745 C 612.1363,318.35589 619.29441,321.01162 620.20285,321.12907 C 621.11128,321.24652 621.38051,312.36182 620.80113,301.3853 z M 585.03947,308.38591 C 585.90846,306.98926 586.30292,295.22048 585.91604,282.23308 L 585.21263,258.61962 L 538.58868,259.27962 L 491.96474,259.93962 L 491.98984,277.52631 C 492.00365,287.19899 492.67036,299.08041 493.47142,303.92946 L 494.9279,312.74591 L 539.19369,311.8356 C 568.31444,311.23674 584.00006,310.05647 585.03947,308.38591 z M 507.23412,296.847 C 504.05101,296.09199 503.27447,294.05073 503.81287,287.85358 L 504.50934,279.83686 L 539.8623,279.492 L 575.21527,279.14715 L 575.92998,286.55986 C 576.32308,290.63686 575.80989,294.03732 574.78957,294.11644 C 573.76924,294.19556 561.64429,294.71158 547.84523,295.26315 C 534.04617,295.81472 520.19009,296.61648 517.05394,297.04485 C 513.91779,297.47322 509.49887,297.38419 507.23412,296.847 z M 515.64041,288.8407 L 514.65394,283.70882 L 517.3429,288.8407 C 520.9109,295.65023 523.96033,295.36189 523.37343,288.27049 C 522.97385,283.44242 521.75414,282.5684 515.41605,282.5684 C 508.95212,282.5684 507.93059,283.34655 507.93059,288.27049 C 507.93059,292.35868 509.16127,293.97258 512.27873,293.97258 C 515.55965,293.97258 516.38475,292.71299 515.64041,288.8407 z M 533.01979,288.27049 C 533.01979,284.72252 531.72732,282.5684 529.59854,282.5684 C 527.46976,282.5684 526.17728,284.72252 526.17728,288.27049 C 526.17728,291.81846 527.46976,293.97258 529.59854,293.97258 C 531.72732,293.97258 533.01979,291.81846 533.01979,288.27049 z M 542.14314,291.12154 C 542.14314,290.18069 542.14314,287.87134 542.14314,285.98965 C 542.14314,284.10796 540.69439,282.5684 538.9237,282.5684 C 537.08705,282.5684 536.03245,284.28277 536.46836,286.55986 C 536.8886,288.75517 537.31098,291.40664 537.40696,292.45202 C 537.62091,294.78235 542.14314,293.51197 542.14314,291.12154 z M 553.54732,287.13007 C 553.54732,284.16363 552.02676,282.5684 549.19918,282.5684 C 545.97396,282.5684 545.15911,283.74647 546.04394,287.13007 C 546.70004,289.63899 548.6567,291.69174 550.39208,291.69174 C 552.12746,291.69174 553.54732,289.63899 553.54732,287.13007 z M 562.67067,288.4051 C 562.67067,284.77257 558.53241,281.3847 556.53506,283.38206 C 554.65875,285.25836 557.5877,291.69174 560.31824,291.69174 C 561.61208,291.69174 562.67067,290.21275 562.67067,288.4051 z M 571.79401,287.13007 C 571.79401,284.59581 570.27345,282.5684 568.37276,282.5684 C 564.53399,282.5684 564.37973,282.98613 566.33594,288.08395 C 568.29158,293.18025 571.79401,292.56815 571.79401,287.13007 z M 599.16405,252.03095 C 599.16405,244.97231 598.45658,244.16914 591.00823,242.77182 C 581.49848,240.98778 576.28777,244.18224 578.00378,250.74428 C 578.94242,254.33362 580.73046,255.07505 586.82759,254.40316 C 591.03323,253.9397 593.98346,254.35455 593.38366,255.32505 C 592.49137,256.7688 594.25647,258.21028 598.59384,259.57997 C 598.90745,259.67901 599.16405,256.28195 599.16405,252.03095 z M 523.89645,248.35586 C 523.89645,241.76678 523.51631,241.51335 513.63268,241.51335 C 503.74906,241.51335 503.36892,241.76678 503.36892,248.35586 C 503.36892,254.94494 503.74906,255.19837 513.63268,255.19837 C 523.51631,255.19837 523.89645,254.94494 523.89645,248.35586 z M 561.99138,248.57121 C 562.3575,243.31679 561.33742,241.67325 557.04074,240.59485 C 547.11138,238.10274 539.52313,243.14494 541.54829,250.88918 C 542.42415,254.23846 544.77523,255.19736 552.10271,255.19383 C 560.87903,255.18961 561.5621,254.73215 561.99138,248.57121 z "
       id="path2364"
       inkscape:export-filename="/home/rover/code/python/herobot/arte/pre/robot-2-02.png"
       inkscape:export-xdpi="17.845625"
       inkscape:export-ydpi="17.845625" />
    <path
       style="fill:#fff6d5;fill-opacity:1;stroke:#999999;stroke-width:1.49491251;stroke-miterlimit:1;stroke-opacity:0"
       d="M 528.37568,382.06097 C 529.01078,384.11012 528.25317,384.58337 528.03167,385.01391 C 527.81018,387.06749 526.71346,386.39675 526.3175,386.72246 C 524.59151,387.30715 523.92176,388.00685 523.57708,386.43617 C 522.9733,386.43617 522.82137,385.55916 522.29798,385.37696 C 521.7746,385.19476 521.656,384.86057 521.26006,384.53486 C 520.8641,384.20915 520.19078,383.89194 519.96929,383.46142 C 519.7478,383.03089 519.62529,382.55763 519.62529,382.06097 C 519.62529,381.56432 519.7478,381.09106 519.96929,380.66054 C 520.19078,380.23001 520.51126,379.84223 520.90721,379.51651 C 521.30317,379.19081 522.6214,378.00981 523.14478,377.82762 C 523.66817,377.64542 524.94919,377.47407 525.55297,377.47407 C 526.15675,377.47407 526.66152,378.13939 527.1849,378.32159 C 527.70828,378.50378 528.03858,379.47308 528.43454,379.79878 C 528.40708,380.19506 528.86869,381.28852 528.52565,381.08394 C 529.31167,382.079 528.37568,381.56432 528.37568,382.06097 z "
       id="path2366"
       sodipodi:nodetypes="cccccccccccccccc"
       inkscape:export-filename="/home/rover/code/python/herobot/arte/pre/robot-2-02.png"
       inkscape:export-xdpi="17.845625"
       inkscape:export-ydpi="17.845625" />
    <path
       style="fill:#fff6d5;fill-opacity:1;stroke:#999999;stroke-width:1.61687326;stroke-miterlimit:1;stroke-opacity:0"
       d="M 542.19825,451.26476 C 541.01071,449.82709 540.44745,449.94483 540.13414,449.48729 C 539.66815,447.57216 538.97791,446.78409 540.70291,446.56194 C 540.76027,445.91143 544.11364,450.31023 544.35966,449.76364 C 544.60569,449.21705 544.97701,448.11706 544.28436,446.33132 C 544.67289,445.93565 543.76574,443.15521 544.25063,442.95747 C 544.73552,442.75974 545.25705,442.67269 545.79216,442.71987 C 546.32725,442.76705 546.82551,442.94401 547.26832,443.22354 C 547.71113,443.50307 548.09848,443.88519 548.4118,444.34273 C 548.7251,444.80027 549.87229,446.33273 550.01887,446.91393 C 550.16545,447.49514 549.61056,448.81436 549.5532,449.46487 C 549.49585,450.11539 548.73108,450.59603 548.48506,451.14261 C 547.09048,451.68049 546.881,451.89353 545.53599,452.4792 C 544.10723,452.64185 543.00043,452.52163 542.19825,451.26476 z "
       id="path2368"
       sodipodi:nodetypes="cccccccccccccc"
       inkscape:export-filename="/home/rover/code/python/herobot/arte/pre/robot-2-02.png"
       inkscape:export-xdpi="17.845625"
       inkscape:export-ydpi="17.845625" />
  </g>
</svg>
