<?xml version="1.0" encoding="UTF-8" standalone="no"?>
<!-- Created with Inkscape (http://www.inkscape.org/) -->
<svg
   xmlns:dc="http://purl.org/dc/elements/1.1/"
   xmlns:cc="http://web.resource.org/cc/"
   xmlns:rdf="http://www.w3.org/1999/02/22-rdf-syntax-ns#"
   xmlns:svg="http://www.w3.org/2000/svg"
   xmlns="http://www.w3.org/2000/svg"
   xmlns:sodipodi="http://sodipodi.sourceforge.net/DTD/sodipodi-0.dtd"
   xmlns:inkscape="http://www.inkscape.org/namespaces/inkscape"
   width="210mm"
   height="297mm"
   id="svg2"
   sodipodi:version="0.32"
   inkscape:version="0.45.1"
   sodipodi:docbase="/home/rover/herobot/arte"
   sodipodi:docname="robot-2.svg"
   inkscape:output_extension="org.inkscape.output.svg.inkscape">
  <defs
     id="defs4" />
  <sodipodi:namedview
     id="base"
     pagecolor="#ffffff"
     bordercolor="#666666"
     borderopacity="1.0"
     inkscape:pageopacity="0.0"
     inkscape:pageshadow="2"
     inkscape:zoom="0.35"
     inkscape:cx="350"
     inkscape:cy="520"
     inkscape:document-units="px"
     inkscape:current-layer="layer1"
     inkscape:window-width="873"
     inkscape:window-height="706"
     inkscape:window-x="0"
     inkscape:window-y="0" />
  <metadata
     id="metadata7">
    <rdf:RDF>
      <cc:Work
         rdf:about="">
        <dc:format>image/svg+xml</dc:format>
        <dc:type
           rdf:resource="http://purl.org/dc/dcmitype/StillImage" />
      </cc:Work>
    </rdf:RDF>
  </metadata>
  <g
     inkscape:label="Capa 1"
     inkscape:groupmode="layer"
     id="layer1">
    <path
       style="fill:#000000"
       d="M 303.57586,762.58124 C 302.01965,760.08934 300.74638,756.40134 300.74638,754.38567 C 300.74638,751.45491 298.91888,750.93192 291.62303,751.77466 C 285.86489,752.43978 282.40637,751.88725 282.2467,750.27668 C 281.61937,743.94886 283.07566,715.58872 284.60762,704.29965 C 285.75375,695.85378 285.50297,691.82204 283.82855,691.77501 C 282.47045,691.73688 283.15543,690.6595 285.35073,689.38084 C 288.72596,687.41496 289.3422,683.57666 289.3422,664.51963 C 289.3422,642.88508 289.13684,641.95407 284.21031,641.2544 C 279.2276,640.54675 279.05661,639.64718 278.32769,610.30678 C 277.66225,583.52137 277.98618,580.24504 281.17874,581.47015 C 284.19665,582.62822 284.78052,580.77915 284.78052,570.06366 L 284.78052,557.27504 L 268.81467,557.27504 L 252.84881,557.27504 L 252.84881,568.67922 C 252.84881,579.53411 253.15092,580.0964 259.12111,580.3535 C 262.57088,580.50205 266.13411,580.51174 267.0394,580.37505 C 267.94469,580.23834 267.68809,582.74956 266.46919,585.95553 C 263.53159,593.682 263.58366,625.70012 266.53383,625.70012 C 271.60474,625.70012 268.22643,629.44849 257.97838,635.19276 C 246.14121,641.82776 232.70038,645.05788 228.52557,642.2709 C 226.61103,640.99281 225.44776,612.20485 224.35575,539.07855 C 223.52277,483.29767 222.24388,436.69226 221.51379,435.51095 C 220.7837,434.32963 219.85244,418.69726 219.44433,400.77235 L 218.7023,368.1816 L 232.90161,367.50341 C 244.81865,366.93423 247.23578,366.11795 247.94001,362.42485 C 249.36229,354.96626 253.97675,351.99913 261.15162,353.92969 C 272.82063,357.0695 318.99307,357.3263 318.99307,354.25139 C 318.99307,352.71246 317.4417,352.10705 315.45335,352.87006 C 313.50651,353.61713 312.46829,353.33093 313.1462,352.23405 C 313.8241,351.13717 308.48894,348.32639 301.29027,345.98788 L 288.20178,341.73602 L 287.06136,312.70627 L 285.92094,283.67652 L 292.298,282.28096 C 297.87323,281.06087 298.54105,280.03505 297.60922,274.12249 C 296.71237,268.43193 297.50573,266.99369 302.6126,265.05206 C 305.95068,263.78293 312.02824,263.37233 316.11829,264.13963 C 322.75427,265.38455 323.55474,266.35662 323.55474,273.17027 C 323.55474,278.02884 324.86686,281.30933 327.16254,282.19026 C 333.71016,284.70282 334.95892,283.65878 334.95892,275.67202 C 334.95892,267.02445 339.52346,263.04718 349.44787,263.04718 C 359.59169,263.04718 362.32896,265.33197 362.32896,273.79899 C 362.32896,280.14131 363.07042,281.49739 365.93676,280.39747 C 367.92105,279.63603 369.94159,279.01303 370.42685,279.01303 C 370.91211,279.01303 370.71334,277.46039 369.98514,275.56273 C 367.53076,269.16672 373.79356,264.99396 384.96886,265.57942 C 399.92194,266.36279 400.39979,266.73659 402.01515,278.91378 C 403.30534,288.63973 404.40384,290.38139 411.31711,293.66194 C 415.62855,295.70786 419.79842,298.42108 420.58346,299.69133 C 422.37116,302.58386 422.47834,344.22141 420.70546,347.08994 C 419.98753,348.25162 420.67178,350.14782 422.22603,351.30371 C 427.04384,354.88669 449.62556,360.81312 460.40493,361.32353 C 466.64311,361.6189 475.40339,364.38783 482.74043,368.38327 C 489.3799,371.99884 496.05134,374.25977 497.56586,373.40756 C 499.55927,372.28591 499.53238,372.70618 497.46852,374.92971 C 495.5223,377.0265 494.61747,386.54284 494.61747,404.91518 L 494.61747,431.82905 L 488.88379,431.82905 L 483.15009,431.82905 L 483.75191,505.38602 L 484.35371,578.94298 L 490.85113,579.68642 L 497.34852,580.42984 L 496.26923,601.80777 C 495.2029,622.92875 495.08924,623.28068 486.81382,631.08541 C 479.86464,637.63932 476.41644,639.1163 466.57281,639.75532 L 454.70792,640.52556 L 455.28579,619.99803 C 455.98307,595.22977 457.80354,582.36424 460.61098,582.36424 C 461.82046,582.36424 462.58648,559.60405 462.43412,528.19438 C 462.12983,465.46552 460.65851,436.39072 457.78849,436.39072 C 456.65035,436.39072 455.86574,461.02483 456.00303,492.44902 C 456.13771,523.28109 455.74422,549.011 455.12862,549.6266 C 454.51302,550.24219 444.41483,551.67394 432.68816,552.80823 C 420.96149,553.94253 411.29362,554.89841 411.20398,554.93239 C 411.00425,555.00816 411.83602,573.24347 412.22588,577.3357 C 412.42788,579.45576 414.76179,579.86718 420.49029,578.79249 L 428.47322,577.2949 L 428.47322,603.5918 C 428.47322,618.0551 429.04797,631.38645 429.75042,633.21703 C 430.70855,635.71391 428.4645,636.92968 420.76711,638.08399 C 408.96471,639.85387 408.23795,641.78816 410.26567,666.03404 C 411.56608,681.58335 412.17657,682.80781 418.88061,683.31281 C 422.51428,683.58651 424.24441,686.57489 427.06286,697.44569 C 429.02867,705.02788 431.23572,715.33698 431.96739,720.35482 C 432.69906,725.37266 433.70575,731.53092 434.2045,734.03984 C 435.09939,738.54173 427.14525,744.3036 420.03558,744.3036 C 418.40399,744.3036 417.06904,746.69848 417.06904,749.62555 C 417.06904,752.55263 416.29925,755.71729 415.35841,756.65814 C 414.41756,757.59898 413.64778,759.5662 413.64778,761.02973 C 413.64778,762.71964 408.17923,763.93341 398.66238,764.35578 C 383.69436,765.02007 383.67212,765.01182 379.47825,757.22424 C 375.72827,750.26099 374.03296,749.299 363.61677,748.22395 C 345.85891,746.39118 340.72063,748.08087 337.57188,756.78858 C 334.61165,764.97493 330.21269,767.03088 315.55025,767.08083 C 308.87414,767.10355 305.64149,765.88882 303.57586,762.58124 z M 315.57182,760.26945 C 316.34712,759.015 315.12472,757.86956 312.85538,757.72404 C 309.04217,757.47951 309.03197,757.38037 312.72077,756.41637 C 318.54709,754.8938 317.60098,751.14611 311.39028,751.14611 C 304.33991,751.14611 302.7028,753.12068 305.46855,758.2885 C 307.93402,762.89527 313.29887,763.94717 315.57182,760.26945 z M 334.54392,754.56736 C 337.37135,748.36183 336.11969,747.69931 326.46028,750.28861 C 322.29506,751.40512 321.79728,752.42393 323.68948,755.95954 C 326.88531,761.931 331.45592,761.34478 334.54392,754.56736 z M 397.11172,758.7589 C 395.54364,758.12618 394.26067,755.12806 394.26067,752.09647 C 394.26067,747.49255 393.13336,746.58444 387.41816,746.58444 C 380.15357,746.58444 379.11926,748.72471 382.93674,755.85772 C 384.55944,758.88978 387.59091,760.21314 392.63029,760.08938 C 396.66315,759.99035 398.67979,759.39163 397.11172,758.7589 z M 412.58167,751.11849 C 414.03735,745.63775 413.72188,745.42516 405.32249,746.22616 C 400.49295,746.68673 396.54151,747.98213 396.54151,749.10485 C 396.54151,750.22755 397.56788,751.14611 398.82234,751.14611 C 400.0768,751.14611 400.98164,751.91589 400.83308,752.85674 C 399.58909,760.73534 410.4544,759.12778 412.58167,751.11849 z M 335.1323,746.35385 C 341.62633,745.32729 347.32038,744.10661 347.78574,743.64125 C 349.08412,742.34286 344.23884,717.23783 340.09998,703.81876 L 336.4067,691.84437 L 313.18447,691.84437 L 289.96224,691.84437 L 288.58029,701.92674 C 287.82023,707.47204 286.50117,720.3689 285.64906,730.5864 L 284.09978,749.16372 L 303.71237,748.69202 C 314.4993,748.4326 328.63826,747.38043 335.1323,746.35385 z M 349.52585,708.38043 C 347.28393,699.2856 344.22323,691.84437 342.72429,691.84437 C 340.7627,691.84437 341.12925,695.51971 344.03226,704.95918 C 346.25059,712.17232 348.94222,724.23224 350.01366,731.759 L 351.96174,745.44402 L 352.7819,735.18026 C 353.23299,729.53519 351.76777,717.47527 349.52585,708.38043 z M 421.83765,739.48518 C 424.3743,735.47964 424.49006,732.27267 422.0434,733.78477 C 421.01593,734.41978 420.64064,731.76863 421.20941,727.89331 C 421.87314,723.37111 421.393,721.37294 419.86901,722.31481 C 418.38786,723.2302 417.96287,721.99116 418.73943,719.02156 C 419.42416,716.40314 418.65837,708.73319 417.03763,701.97724 L 414.09086,689.69372 L 385.92908,691.12103 C 365.3408,692.16449 357.76729,691.84029 357.76729,689.91551 C 357.76729,688.46748 359.36184,687.2827 361.31073,687.2827 C 364.3215,687.2827 364.77904,683.68263 364.35444,663.33392 C 363.91769,642.40307 363.36056,639.38514 359.93339,639.38514 C 356.89308,639.38514 355.6616,636.58014 354.45219,626.90037 C 352.03713,607.57085 353.59732,580.0834 357.10952,580.0834 C 360.34039,580.0834 360.80199,575.2996 358.6226,564.40265 C 357.28668,557.72306 356.56985,557.27504 347.21842,557.27504 L 337.23976,557.27504 L 337.23976,568.73624 C 337.23976,579.64623 337.56884,580.26327 344.08227,581.56594 L 350.92478,582.93445 L 350.92478,611.01528 L 350.92478,639.09611 L 343.51206,639.81083 C 335.29622,640.60299 335.32312,640.46575 337.2261,671.88705 C 337.88528,682.77107 338.7283,685.00186 342.18217,685.00186 C 345.33968,685.00186 347.29116,688.40875 350.26922,699.12026 L 354.19448,713.23864 L 357.04411,703.11172 L 359.89374,692.98479 L 358.83444,706.66981 C 358.25183,714.19656 357.21601,725.88136 356.53261,732.63601 L 355.29007,744.91717 L 387.56184,743.78343 C 411.63414,742.93775 420.34279,741.84566 421.83765,739.48518 z M 430.69977,732.32921 C 430.59773,726.96918 422.36062,691.81401 420.8537,690.30709 C 417.30483,686.7582 417.03674,692.20773 420.20106,703.57359 C 422.07216,710.29435 424.27586,720.15525 425.0982,725.4867 C 425.92053,730.81816 427.5295,735.18026 428.6737,735.18026 C 429.81788,735.18026 430.72963,733.89729 430.69977,732.32921 z M 333.21522,667.32538 C 332.78749,655.0944 332.10949,644.06085 331.70854,642.80639 C 331.30126,641.53211 324.56004,640.73594 316.43317,641.00228 C 308.43267,641.26446 299.47673,641.52105 296.53109,641.57248 C 291.29114,641.66395 291.20313,642.02336 292.45938,658.20204 C 293.16557,667.29687 293.77948,678.07382 293.82362,682.15082 L 293.90387,689.56353 L 313.94839,689.56353 L 333.9929,689.56353 L 333.21522,667.32538 z M 407.70329,675.30831 C 406.76531,668.72239 405.92294,657.94544 405.83136,651.35953 L 405.66485,639.38514 L 386.27774,639.38514 L 366.89063,639.38514 L 366.89063,663.33392 L 366.89063,687.2827 L 388.14967,687.2827 L 409.40871,687.2827 L 407.70329,675.30831 z M 241.44998,637.10145 C 245.23302,635.07682 245.61618,632.55401 244.82748,614.8633 C 244.33819,603.88835 243.89008,593.62586 243.83167,592.05779 C 243.76773,590.34126 240.55455,589.20674 235.75685,589.20674 C 228.73022,589.20674 227.90132,589.8134 228.74485,594.33863 C 229.27099,597.16116 229.77774,608.4513 229.87096,619.42782 C 230.05085,640.6092 231.30858,642.52895 241.44998,637.10145 z M 339.5206,610.87469 L 339.5206,584.64507 L 311.01014,584.64507 C 287.26048,584.64507 282.47248,585.21638 282.33677,588.06633 C 282.24717,589.94802 282.17385,596.10627 282.17385,601.75134 C 282.17385,607.39641 282.24717,617.66018 282.33677,624.5597 L 282.49969,637.1043 L 311.01014,637.1043 L 339.5206,637.1043 L 339.5206,610.87469 z M 416.67046,623.41929 C 417.07848,616.51976 416.73425,604.40425 415.90549,596.49593 L 414.39865,582.11718 L 390.35498,582.52998 C 354.52026,583.14524 356.9873,581.14061 358.56649,608.35995 C 359.30176,621.03319 359.93591,632.71677 359.97573,634.32346 C 360.03142,636.57077 366.49402,637.09696 387.98837,636.6043 L 415.92862,635.96389 L 416.67046,623.41929 z M 466.23506,633.19429 C 465.61616,631.58142 466.10394,630.2618 467.31901,630.2618 C 468.5341,630.2618 469.52827,631.6303 469.52827,633.3029 C 469.52827,634.97553 470.81124,636.34378 472.37932,636.34351 C 474.48864,636.34312 475.23036,629.7664 475.23036,611.06425 L 475.23036,585.78549 L 467.95798,585.08124 L 460.68561,584.37698 L 459.97506,610.25651 C 459.32894,633.78897 459.63163,636.13563 463.31245,636.13141 C 465.67263,636.12872 466.89119,634.90412 466.23506,633.19429 z M 256.342,631.14535 C 261.58563,627.70959 261.94216,626.23058 261.75262,608.70002 C 261.51624,586.83691 260.07728,583.05736 253.3588,586.65298 C 249.16444,588.89771 248.73737,591.28956 248.837,611.97765 C 248.8975,624.54285 249.34784,634.82347 249.83774,634.82347 C 250.32764,634.82347 253.25456,633.16831 256.342,631.14535 z M 345.46028,628.59868 C 344.70237,627.84078 344.1633,629.18791 344.26234,631.59228 C 344.37178,634.24934 344.91224,634.78978 345.64034,632.97029 C 346.29921,631.3238 346.21818,629.3566 345.46028,628.59868 z M 425.31168,608.99163 C 424.06947,580.25314 424.37467,582.36424 421.46234,582.36424 C 419.79197,582.36424 419.4092,590.16093 420.2586,606.88322 C 420.94361,620.36867 421.53256,632.23257 421.56739,633.24746 C 421.60222,634.26234 422.68461,634.44134 423.97274,633.64523 C 425.4366,632.74052 425.93864,623.49658 425.31168,608.99163 z M 492.74602,602.84573 C 493.35366,585.81277 492.89955,582.36054 490.0558,582.39393 C 482.97935,582.477 481.50748,586.39915 479.89686,609.46472 L 478.24339,633.14393 L 485.12919,628.24081 C 491.79685,623.49303 492.03817,622.68848 492.74602,602.84573 z M 345.46028,617.1945 C 344.70237,616.4366 344.1633,617.78373 344.26234,620.18809 C 344.37178,622.84515 344.91224,623.3856 345.64034,621.56611 C 346.29921,619.91962 346.21818,617.95242 345.46028,617.1945 z M 346.36311,599.60512 C 346.36311,594.03409 345.33164,588.83848 344.07095,588.05932 C 342.62418,587.16517 341.99327,590.8981 342.36032,598.18072 C 343.07669,612.39395 346.36311,613.56343 346.36311,599.60512 z M 244.79948,581.55443 C 248.82274,578.61253 248.95235,574.80164 247.49188,502.38503 C 246.648,460.54172 245.07266,425.4214 243.99112,424.33986 C 242.90958,423.25832 238.55845,422.70478 234.32194,423.10977 L 226.6192,423.84612 L 226.6192,462.62034 C 226.6192,524.84353 228.29946,576.34755 230.4699,580.65361 C 232.87491,585.425 238.98117,585.80887 244.79948,581.55443 z M 478.65162,580.23854 C 481.69273,580.03856 481.69273,579.76789 478.65162,577.80256 C 476.28219,576.27132 476.12429,575.58085 478.13802,575.55665 C 480.43583,575.52905 481.00854,560.46499 480.86859,503.73554 C 480.76157,460.35412 479.82196,431.41194 478.49394,430.59118 C 477.28528,429.84419 476.93194,428.20465 477.70874,426.94776 C 478.57053,425.55334 476.28149,424.94794 471.83664,425.39473 L 464.55217,426.12696 L 465.02285,468.32243 C 465.28172,491.52994 465.63158,526.48767 465.80027,546.00632 C 466.09459,580.05674 466.29186,581.47384 470.66869,580.97913 C 473.17761,580.69555 476.76993,580.3623 478.65162,580.23854 z M 469.52827,437.66575 C 469.52827,437.11255 470.55465,436.0256 471.80911,435.25031 C 473.06357,434.47501 474.08995,434.92762 474.08995,436.25612 C 474.08995,437.58461 473.06357,438.67156 471.80911,438.67156 C 470.55465,438.67156 469.52827,438.21895 469.52827,437.66575 z M 332.67809,568.67922 L 332.67809,557.27504 L 309.6257,557.27504 C 289.542,557.27504 286.7516,557.73964 287.95775,560.88284 C 288.7192,562.86712 289.3422,567.99901 289.3422,572.28702 L 289.3422,580.0834 L 311.01014,580.0834 L 332.67809,580.0834 L 332.67809,568.67922 z M 407.63306,567.45984 L 407.34204,554.8363 L 385.40571,555.48545 L 363.46938,556.13462 L 362.77997,568.10901 L 362.09057,580.0834 L 385.00732,580.0834 L 407.92408,580.0834 L 407.63306,567.45984 z M 350.92478,552.71879 C 397.96703,551.49161 440.42676,549.85121 445.27974,549.07345 L 454.10332,547.65935 L 452.76219,532.50988 C 452.02456,524.17767 451.208,499.91201 450.9476,478.58619 C 450.6872,457.26037 450.06781,438.6202 449.57118,437.16359 C 449.07458,435.70698 444.31686,433.23041 438.99855,431.66009 L 429.32887,428.80497 L 428.92409,396.10447 C 428.53713,364.84426 428.71921,363.40397 433.05793,363.40397 C 435.55419,363.40397 437.59656,362.48886 437.59656,361.37039 C 437.59656,358.95633 426.23284,355.76072 424.34864,357.64491 C 421.82752,360.16603 419.68639,412.89363 420.31738,456.91825 C 420.66799,481.38022 420.21251,512.1715 419.30519,525.34333 C 418.32564,539.56396 417.78814,510.61116 417.98196,454.0672 L 418.3084,358.84229 L 398.87182,358.77 C 369.38122,358.66031 266.3212,359.3247 258.55091,359.6746 L 251.7084,359.98271 L 251.63041,431.82905 C 251.58752,471.34454 251.90814,515.22212 252.34291,529.3348 L 253.13339,554.9942 L 259.2634,554.97212 C 262.63491,554.95997 303.88253,553.94598 350.92478,552.71879 z M 309.11131,482.74616 C 305.78177,476.30753 305.30805,474.80603 305.30805,470.69118 C 305.30805,469.48507 301.22,467.39746 296.22349,466.05204 C 284.79813,462.97551 282.49969,458.63327 282.49969,440.12484 C 282.49969,422.53932 285.06011,419.06568 299.63321,416.88031 C 308.88826,415.49243 309.86972,414.74792 309.86972,409.11522 C 309.86972,398.98111 316.97328,394.55021 333.52428,394.36051 C 349.33352,394.1793 355.72035,397.36985 353.8518,404.51516 C 353.06916,407.50798 354.07991,409.4178 356.93831,410.34719 C 371.42521,415.05748 373.75491,416.71856 375.68666,423.71481 C 376.79936,427.74466 377.45919,433.52829 377.15295,436.56731 C 376.84671,439.60634 376.46517,445.44362 376.30507,449.53905 C 376.07984,455.30064 374.37337,457.98301 368.76241,461.39524 C 364.77405,463.82071 360.58502,465.23299 359.45346,464.53365 C 358.3219,463.83431 357.59779,465.17047 357.84433,467.5029 C 358.09087,469.83533 358.056,472.77006 357.76684,474.02452 C 357.47768,475.27898 357.1029,477.84227 356.93399,479.7207 C 356.76507,481.59915 355.3439,483.26702 353.77583,483.42706 C 352.20775,483.58713 349.83783,483.84637 348.50934,484.00318 C 347.18084,484.15999 346.56913,485.05806 347.14998,485.99891 C 347.73083,486.93975 340.15915,488.04197 330.32403,488.44825 C 312.7025,489.17621 312.39346,489.09314 309.11131,482.74616 z M 330.26805,482.75355 C 333.26417,480.655 335.00992,480.07971 334.14751,481.4751 C 333.17537,483.04805 334.33176,483.88022 337.19047,483.66486 C 342.6663,483.25239 343.0455,481.31765 338.40529,477.46662 C 336.53741,475.91642 335.63933,473.62841 336.40956,472.38216 C 337.26488,470.99822 338.67053,471.32076 340.02086,473.2108 C 341.70487,475.5679 341.92576,475.35416 340.94776,472.31389 C 340.112,469.71582 340.8581,468.32243 343.08502,468.32243 C 347.74665,468.32243 350.05026,475.16699 346.19131,477.55195 C 344.47677,478.6116 343.78921,480.19384 344.66341,481.06804 C 347.15943,483.56405 352.58788,477.89542 353.80655,471.52033 C 354.83541,466.13822 354.33544,465.76036 346.64641,466.10889 C 331.27745,466.80554 324.5195,466.08315 327.67623,464.08108 C 329.31581,463.04121 337.37649,461.97288 345.58884,461.70702 C 365.80073,461.0527 369.5127,458.50959 367.47798,446.71056 C 366.60735,441.66188 365.88556,433.25127 365.87401,428.02031 C 365.85473,419.29237 365.31271,418.43019 359.28927,417.54614 C 353.00265,416.62346 352.77705,416.90025 353.94574,424.10205 C 354.81382,429.4514 353.90235,433.22773 350.7873,437.18787 C 347.04832,441.94122 343.73973,442.99067 328.13919,444.37163 L 309.86972,445.98885 L 309.90087,460.00669 C 309.94903,481.68416 311.5697,485.07312 322.47703,486.30454 C 323.76598,486.45006 327.27194,484.85213 330.26805,482.75355 z M 318.99307,483.39189 C 318.99307,482.89887 320.58594,481.88426 322.53279,481.13717 C 324.56256,480.35829 325.47808,480.74065 324.67901,482.03356 C 323.33958,484.20083 318.99307,485.23916 318.99307,483.39189 z M 305.30805,455.77783 C 305.30805,452.64168 304.0533,450.07574 302.51972,450.07574 C 300.98613,450.07574 302.05363,448.44917 304.89193,446.46115 C 307.73024,444.47312 317.66834,442.11909 326.9766,441.22997 C 336.28487,440.34085 344.57374,438.94037 345.39631,438.1178 C 348.09994,435.41417 349.79832,422.76655 348.99826,411.29468 C 348.25719,400.66874 347.79989,399.94753 341.01533,398.70481 C 331.43668,396.95029 316.18313,400.33733 314.79834,404.52628 C 313.85312,407.38554 314.24465,407.42209 317.45269,404.77406 C 323.1226,400.09391 328.90892,403.27174 327.18972,410.1216 C 326.0846,414.52474 326.5261,415.45505 329.22863,414.418 C 331.12583,413.68997 332.67809,414.15345 332.67809,415.44794 C 332.67809,416.77195 323.71448,418.50279 312.18812,419.40448 C 299.96956,420.36032 290.70554,422.2034 289.23925,423.97017 C 285.75199,428.17206 284.29393,448.49894 286.97413,455.54839 C 288.81419,460.38812 290.70908,461.47992 297.26867,461.47992 C 304.32345,461.47992 305.30805,460.78157 305.30805,455.77783 z M 318.99307,412.44194 C 317.43141,410.56025 314.99639,409.10172 313.58191,409.20075 C 311.97956,409.31295 312.09018,409.81625 313.8754,410.53598 C 315.45129,411.17132 316.1605,412.62985 315.45142,413.77717 C 314.74234,414.92449 315.88799,415.8632 317.99732,415.8632 C 321.14773,415.8632 321.32551,415.25236 318.99307,412.44194 z M 458.94891,430.68863 C 459.99406,427.96501 458.29974,427.30515 450.6398,427.45263 L 441.01782,427.63787 L 447.86033,430.77101 C 456.65261,434.79693 457.37445,434.79157 458.94891,430.68863 z M 492.11797,405.41229 C 492.42648,376.87895 492.22456,376.42118 475.80057,368.41896 C 474.85973,367.96056 474.08995,379.32588 474.08995,393.67524 L 474.08995,419.76498 L 481.50266,422.14291 C 485.57966,423.45078 489.58834,424.62563 490.41086,424.7537 C 491.23337,424.88176 492.00158,416.17813 492.11797,405.41229 z M 459.7774,421.23455 L 471.69447,419.80305 L 470.83827,410.4204 C 470.36737,405.25995 469.87998,393.19095 469.75517,383.6004 L 469.52827,366.16303 L 451.28158,366.04336 L 433.03489,365.92369 L 433.03489,394.3147 L 433.03489,422.70571 L 440.44761,422.68588 C 444.5246,422.67498 453.22301,422.02188 459.7774,421.23455 z M 248.69202,403.3186 C 249.09656,394.53738 249.06316,383.50384 248.61778,378.79961 C 247.82398,370.41522 247.62148,370.24716 238.35402,370.2814 C 223.46388,370.33641 222.42975,371.8335 223.98395,391.08473 C 224.72971,400.32228 225.37114,410.66263 225.40933,414.06329 C 225.47609,420.00701 225.91376,420.2277 236.71762,419.76538 L 247.95647,419.28445 L 248.69202,403.3186 z M 365.18001,354.46335 C 366.12085,354.36285 366.89063,351.93958 366.89063,349.07831 C 366.89063,344.21653 365.8382,343.83302 350.81277,343.21959 C 341.96994,342.85858 331.70617,343.22842 328.0044,344.04146 C 320.68238,345.64965 318.83108,349.60875 325.26537,349.89902 C 327.64984,350.00659 328.10898,350.54225 326.40579,351.2295 C 315.90951,355.46484 338.31244,357.33329 365.18001,354.46335 z M 398.63228,353.3498 C 398.10958,352.83785 391.78026,350.88253 384.56712,349.00465 C 371.99589,345.73184 371.45231,345.77042 371.45231,349.93547 C 371.45231,353.7387 373.20649,354.28062 385.51747,354.28062 C 393.2533,354.28062 399.15497,353.86175 398.63228,353.3498 z M 419.92008,352.77007 C 418.35201,352.13734 415.78606,352.13734 414.21799,352.77007 C 412.64991,353.4028 413.93289,353.92049 417.06904,353.92049 C 420.20519,353.92049 421.48816,353.4028 419.92008,352.77007 z M 409.75544,348.48759 C 405.75262,344.48476 383.81902,338.69287 377.4777,339.96417 L 370.31189,341.40076 L 377.1544,343.30979 C 380.91778,344.35976 387.58922,345.81596 391.97983,346.5458 C 396.37044,347.27564 400.39042,348.28817 400.91311,348.79586 C 401.4358,349.30356 403.91621,349.71895 406.42513,349.71895 C 408.93405,349.71895 410.43269,349.16484 409.75544,348.48759 z M 316.71223,345.32452 C 316.71223,344.16204 318.50839,342.81192 320.7037,342.32426 C 322.899,341.83659 318.71414,341.47284 311.40401,341.51593 C 298.3255,341.59301 298.23428,341.63823 305.70192,344.34267 C 315.27657,347.81016 316.71223,347.93818 316.71223,345.32452 z M 418.17859,327.4808 C 417.59924,316.50427 417.11255,305.85446 417.09711,303.81454 C 417.0801,301.56614 410.96417,296.89759 401.56617,291.95908 L 386.0633,283.81255 L 386.44928,300.22969 C 387.37846,339.75136 385.58196,334.90221 401.67339,341.32295 C 409.51376,344.45139 416.67187,347.10712 417.58031,347.22457 C 418.48874,347.34202 418.75797,338.45732 418.17859,327.4808 z M 382.41693,334.48141 C 383.28592,333.08476 383.68038,321.31598 383.2935,308.32858 L 382.59009,284.71512 L 335.96614,285.37512 L 289.3422,286.03512 L 289.3673,303.62181 C 289.38111,313.29449 290.04782,325.17591 290.84888,330.02496 L 292.30536,338.84141 L 336.57115,337.9311 C 365.6919,337.33224 381.37752,336.15197 382.41693,334.48141 z M 304.61158,322.9425 C 301.42847,322.18749 300.65193,320.14623 301.19033,313.94908 L 301.8868,305.93236 L 337.23976,305.5875 L 372.59273,305.24265 L 373.30744,312.65536 C 373.70054,316.73236 373.18735,320.13282 372.16703,320.21194 C 371.1467,320.29106 359.02175,320.80708 345.22269,321.35865 C 331.42363,321.91022 317.56755,322.71198 314.4314,323.14035 C 311.29525,323.56872 306.87633,323.47969 304.61158,322.9425 z M 313.01787,314.9362 L 312.0314,309.80432 L 314.72036,314.9362 C 318.28836,321.74573 321.33779,321.45739 320.75089,314.36599 C 320.35131,309.53792 319.1316,308.6639 312.79351,308.6639 C 306.32958,308.6639 305.30805,309.44205 305.30805,314.36599 C 305.30805,318.45418 306.53873,320.06808 309.65619,320.06808 C 312.93711,320.06808 313.76221,318.80849 313.01787,314.9362 z M 330.39725,314.36599 C 330.39725,310.81802 329.10478,308.6639 326.976,308.6639 C 324.84722,308.6639 323.55474,310.81802 323.55474,314.36599 C 323.55474,317.91396 324.84722,320.06808 326.976,320.06808 C 329.10478,320.06808 330.39725,317.91396 330.39725,314.36599 z M 339.5206,317.21704 C 339.5206,316.27619 339.5206,313.96684 339.5206,312.08515 C 339.5206,310.20346 338.07185,308.6639 336.30116,308.6639 C 334.46451,308.6639 333.40991,310.37827 333.84582,312.65536 C 334.26606,314.85067 334.68844,317.50214 334.78442,318.54752 C 334.99837,320.87785 339.5206,319.60747 339.5206,317.21704 z M 350.92478,313.22557 C 350.92478,310.25913 349.40422,308.6639 346.57664,308.6639 C 343.35142,308.6639 342.53657,309.84197 343.4214,313.22557 C 344.0775,315.73449 346.03416,317.78724 347.76954,317.78724 C 349.50492,317.78724 350.92478,315.73449 350.92478,313.22557 z M 360.04813,314.5006 C 360.04813,310.86807 355.90987,307.4802 353.91252,309.47756 C 352.03621,311.35386 354.96516,317.78724 357.6957,317.78724 C 358.98954,317.78724 360.04813,316.30825 360.04813,314.5006 z M 369.17147,313.22557 C 369.17147,310.69131 367.65091,308.6639 365.75022,308.6639 C 361.91145,308.6639 361.75719,309.08163 363.7134,314.17945 C 365.66904,319.27575 369.17147,318.66365 369.17147,313.22557 z M 396.54151,278.12645 C 396.54151,271.06781 395.83404,270.26464 388.38569,268.86732 C 378.87594,267.08328 373.66523,270.27774 375.38124,276.83978 C 376.31988,280.42912 378.10792,281.17055 384.20505,280.49866 C 388.41069,280.0352 391.36092,280.45005 390.76112,281.42055 C 389.86883,282.8643 391.63393,284.30578 395.9713,285.67547 C 396.28491,285.77451 396.54151,282.37745 396.54151,278.12645 z M 321.27391,274.45136 C 321.27391,267.86228 320.89377,267.60885 311.01014,267.60885 C 301.12652,267.60885 300.74638,267.86228 300.74638,274.45136 C 300.74638,281.04044 301.12652,281.29387 311.01014,281.29387 C 320.89377,281.29387 321.27391,281.04044 321.27391,274.45136 z M 359.36884,274.66671 C 359.73496,269.41229 358.71488,267.76875 354.4182,266.69035 C 344.48884,264.19824 336.90059,269.24044 338.92575,276.98468 C 339.80161,280.33396 342.15269,281.29286 349.48017,281.28933 C 358.25649,281.28511 358.93956,280.82765 359.36884,274.66671 z "
       id="path2878" />
  </g>
</svg>
