<?xml version="1.0" encoding="UTF-8" standalone="no"?>
<!-- Created with Inkscape (http://www.inkscape.org/) -->
<svg
   xmlns:dc="http://purl.org/dc/elements/1.1/"
   xmlns:cc="http://web.resource.org/cc/"
   xmlns:rdf="http://www.w3.org/1999/02/22-rdf-syntax-ns#"
   xmlns:svg="http://www.w3.org/2000/svg"
   xmlns="http://www.w3.org/2000/svg"
   xmlns:sodipodi="http://sodipodi.sourceforge.net/DTD/sodipodi-0.dtd"
   xmlns:inkscape="http://www.inkscape.org/namespaces/inkscape"
   width="210mm"
   height="297mm"
   id="svg2"
   sodipodi:version="0.32"
   inkscape:version="0.45.1"
   sodipodi:docbase="/home/rover/code/python/herobot/arte"
   sodipodi:docname="robot-4.svg"
   inkscape:output_extension="org.inkscape.output.svg.inkscape">
  <defs
     id="defs4" />
  <sodipodi:namedview
     id="base"
     pagecolor="#ffffff"
     bordercolor="#666666"
     borderopacity="1.0"
     inkscape:pageopacity="0.0"
     inkscape:pageshadow="2"
     inkscape:zoom="0.63897264"
     inkscape:cx="410.04629"
     inkscape:cy="600.71748"
     inkscape:document-units="px"
     inkscape:current-layer="layer1"
     inkscape:window-width="873"
     inkscape:window-height="706"
     inkscape:window-x="50"
     inkscape:window-y="0"
     showguides="true"
     inkscape:guide-bbox="true" />
  <metadata
     id="metadata7">
    <rdf:RDF>
      <cc:Work
         rdf:about="">
        <dc:format>image/svg+xml</dc:format>
        <dc:type
           rdf:resource="http://purl.org/dc/dcmitype/StillImage" />
      </cc:Work>
    </rdf:RDF>
  </metadata>
  <g
     inkscape:label="Capa 1"
     inkscape:groupmode="layer"
     id="layer1">
    <path
       style="fill:#999999;fill-opacity:1;stroke:#999999;stroke-width:2;stroke-miterlimit:1;stroke-opacity:0"
       d="M 70.425549,417.74971 L 136.35169,412.27217 L 194.45277,412.27217 L 279.15906,407.57713 L 324.74004,417.74971 L 324.74004,572.68593 L 75.120589,585.20603 L 70.425549,417.74971 z "
       id="rect2532"
       sodipodi:nodetypes="cccccccc"
       inkscape:export-filename="/home/rover/code/python/herobot/arte/pre/robot-4-01.png"
       inkscape:export-xdpi="19.606489"
       inkscape:export-ydpi="19.606489" />
    <path
       style="fill:#999999;fill-opacity:1;stroke:#999999;stroke-width:2;stroke-miterlimit:1;stroke-opacity:0"
       d="M 71.949229,314.61176 L 96.201869,308.35301 L 93.072499,392.8461 L 88.769609,400.66953 L 73.513909,399.10484 L 66.472819,379.15509 L 67.255169,355.29361 L 68.819849,332.99683 L 71.949229,314.61176 z "
       id="rect2528"
       sodipodi:nodetypes="ccccccccc"
       inkscape:export-filename="/home/rover/code/python/herobot/arte/pre/robot-4-01.png"
       inkscape:export-xdpi="19.606489"
       inkscape:export-ydpi="19.606489" />
    <path
       style="fill:#999999;fill-opacity:1;stroke:#999999;stroke-width:2;stroke-miterlimit:1;stroke-opacity:0"
       d="M 91.516929,294.55661 L 129.06029,289.57677 L 122.14385,361.99927 L 86.813749,345.12315 L 91.516929,294.55661 z "
       id="rect2526"
       sodipodi:nodetypes="ccccc"
       inkscape:export-filename="/home/rover/code/python/herobot/arte/pre/robot-4-01.png"
       inkscape:export-xdpi="19.606489"
       inkscape:export-ydpi="19.606489" />
    <path
       style="fill:#999999;fill-opacity:1;stroke:#999999;stroke-width:2;stroke-miterlimit:1;stroke-opacity:0"
       d="M 112.63107,275.49458 L 243.28241,275.49458 L 297.66659,310.06975 L 304.31789,320.77848 L 304.70914,393.30519 L 273.80015,397.75388 L 271.45263,408.07136 L 243.28241,412.01276 L 112.63107,415.53404 L 112.63107,275.49458 z "
       id="rect2523"
       sodipodi:nodetypes="cccccccccc"
       inkscape:export-filename="/home/rover/code/python/herobot/arte/pre/robot-4-01.png"
       inkscape:export-xdpi="19.606489"
       inkscape:export-ydpi="19.606489" />
    <path
       style="fill:#e6e6e6;fill-opacity:1;stroke:#999999;stroke-width:2;stroke-miterlimit:1;stroke-opacity:0"
       d="M 146.62316,204.14053 L 229.63125,217.0492 C 236.54387,217.0492 246.02062,229.26414 246.02062,236.17675 L 246.80297,279.28534 C 246.80297,286.19796 243.19379,290.58947 236.28117,290.58947 L 234.24561,276.50728 C 227.333,276.50728 139.62192,280.72155 139.62192,273.80893 L 125.53974,214.66231 C 125.53974,207.7497 139.71055,204.14053 146.62316,204.14053 z "
       id="path2521"
       sodipodi:nodetypes="ccccccccc"
       inkscape:export-filename="/home/rover/code/python/herobot/arte/pre/robot-4-01.png"
       inkscape:export-xdpi="19.606489"
       inkscape:export-ydpi="19.606489" />
    <path
       style="fill:#e6e6e6;fill-opacity:1;stroke:#999999;stroke-width:2;stroke-miterlimit:1;stroke-opacity:0"
       d="M 139.1909,206.25719 L 206.55213,206.25719 C 213.46475,206.25719 213.55338,211.82222 213.55338,218.73483 L 215.90041,256.36701 C 215.90041,263.27963 212.68241,265.71528 205.76979,265.71528 L 153.27308,268.45348 C 146.36047,268.45348 126.71326,266.409 126.71326,259.49638 L 127.10443,209.73788 C 127.10443,202.82527 132.27829,206.25719 139.1909,206.25719 z "
       id="rect2504"
       sodipodi:nodetypes="ccccccccc"
       inkscape:export-filename="/home/rover/code/python/herobot/arte/pre/robot-4-01.png"
       inkscape:export-xdpi="19.606489"
       inkscape:export-ydpi="19.606489" />
    <path
       style="fill:#666666;fill-opacity:1;stroke:#999999;stroke-width:2;stroke-miterlimit:1;stroke-opacity:0"
       d="M 140.01309,219.55702 L 204.55642,219.55702 L 201.42705,251.24193 L 180.40157,253.78454 L 172.28475,244.20084 L 164.55911,253.0022 L 142.36012,253.98013 L 140.01309,219.55702 z "
       id="rect2507"
       sodipodi:nodetypes="cccccccc"
       inkscape:export-filename="/home/rover/code/python/herobot/arte/pre/robot-4-01.png"
       inkscape:export-xdpi="19.606489"
       inkscape:export-ydpi="19.606489" />
    <rect
       style="opacity:1;fill:#666666;fill-opacity:1;stroke:#999999;stroke-width:2;stroke-miterlimit:1;stroke-dasharray:none;stroke-opacity:0"
       id="rect2510"
       width="8.2146053"
       height="8.2146053"
       x="149.79239"
       y="232.07452"
       ry="3.9117169"
       inkscape:export-filename="/home/rover/code/python/herobot/arte/pre/robot-4-01.png"
       inkscape:export-xdpi="19.606489"
       inkscape:export-ydpi="19.606489" />
    <rect
       style="opacity:1;fill:#666666;fill-opacity:1;stroke:#999999;stroke-width:2;stroke-miterlimit:1;stroke-dasharray:none;stroke-opacity:0"
       id="rect2512"
       width="8.2146053"
       height="8.2146053"
       x="184.0199"
       y="230.70541"
       ry="3.9117169"
       inkscape:export-filename="/home/rover/code/python/herobot/arte/pre/robot-4-01.png"
       inkscape:export-xdpi="19.606489"
       inkscape:export-ydpi="19.606489" />
    <path
       style="fill:#b3b3b3;fill-opacity:1;stroke:#999999;stroke-width:2;stroke-miterlimit:1;stroke-opacity:0"
       d="M 162.70107,195.30439 L 179.52144,194.52204 L 185.78019,207.03953 L 154.09529,206.64836 L 162.70107,195.30439 z "
       id="rect2514"
       sodipodi:nodetypes="ccccc"
       inkscape:export-filename="/home/rover/code/python/herobot/arte/pre/robot-4-01.png"
       inkscape:export-xdpi="19.606489"
       inkscape:export-ydpi="19.606489" />
    <path
       style="fill:#666666;fill-opacity:1;stroke:#999999;stroke-width:2;stroke-miterlimit:1;stroke-opacity:0"
       d="M 110.89553,249.49898 L 115.34809,237.14944 L 128.84219,231.09179 L 128.95958,261.3161 L 110.89553,249.49898 z "
       id="path2517"
       sodipodi:nodetypes="ccccc"
       inkscape:export-filename="/home/rover/code/python/herobot/arte/pre/robot-4-01.png"
       inkscape:export-xdpi="19.606489"
       inkscape:export-ydpi="19.606489" />
    <path
       style="fill:#666666;fill-opacity:1;stroke:#999999;stroke-width:1.94896364;stroke-miterlimit:1;stroke-opacity:0"
       d="M 246.77414,247.88705 L 248.80467,235.92868 L 229.73172,229.47986 L 225.79214,240.2631 L 225.3731,251.82869 L 229.64812,256.35319 L 234.31431,258.53065 L 246.77414,247.88705 z "
       id="path2519"
       sodipodi:nodetypes="cccccccc"
       inkscape:export-filename="/home/rover/code/python/herobot/arte/pre/robot-4-01.png"
       inkscape:export-xdpi="19.606489"
       inkscape:export-ydpi="19.606489" />
    <path
       style="fill:#00ff00;fill-opacity:1;stroke:#999999;stroke-width:2;stroke-miterlimit:1;stroke-opacity:0"
       d="M 129.11351,491.3053 L 166.67381,460.00505 L 169.80383,528.08308 L 129.11351,491.3053 z "
       id="rect2535"
       sodipodi:nodetypes="cccc"
       inkscape:export-filename="/home/rover/code/python/herobot/arte/pre/robot-4-01.png"
       inkscape:export-xdpi="19.606489"
       inkscape:export-ydpi="19.606489" />
    <path
       style="fill:#ff0000;fill-opacity:1;stroke:#999999;stroke-width:2;stroke-miterlimit:1;stroke-opacity:0"
       d="M 227.03086,479.59878 L 193.23306,524.94538 L 190.30931,463.98598 L 227.03086,479.59878 z "
       id="path2538"
       sodipodi:nodetypes="cccc"
       inkscape:export-filename="/home/rover/code/python/herobot/arte/pre/robot-4-01.png"
       inkscape:export-xdpi="19.606489"
       inkscape:export-ydpi="19.606489" />
    <path
       style="fill:#4d4d4d;fill-opacity:1;stroke:#999999;stroke-width:2;stroke-miterlimit:1;stroke-opacity:0"
       d="M 153.2116,629.8191 C 153.2116,651.19921 133.20371,649.73846 119.45935,649.73846 C 105.715,649.73846 106.7331,612.46713 106.7331,591.08702 C 106.7331,569.70692 117.88794,578.91409 131.63229,578.91409 C 145.37665,578.91409 153.2116,555.32072 153.2116,629.8191 z "
       id="path2540"
       sodipodi:nodetypes="csssc"
       inkscape:export-filename="/home/rover/code/python/herobot/arte/pre/robot-4-01.png"
       inkscape:export-xdpi="19.606489"
       inkscape:export-ydpi="19.606489" />
    <path
       style="fill:#4d4d4d;fill-opacity:1;stroke:#999999;stroke-width:2;stroke-miterlimit:1;stroke-opacity:0"
       d="M 272.7362,627.1559 C 272.7362,648.53601 252.72831,647.07526 238.98395,647.07526 C 225.2396,647.07526 226.2577,609.80393 226.2577,588.42382 C 226.2577,567.04372 237.4904,577.71177 251.15689,576.25089 C 292.56702,571.82437 272.7362,552.65752 272.7362,627.1559 z "
       id="path2543"
       sodipodi:nodetypes="csssc"
       inkscape:export-filename="/home/rover/code/python/herobot/arte/pre/robot-4-01.png"
       inkscape:export-xdpi="19.606489"
       inkscape:export-ydpi="19.606489" />
    <path
       style="fill:#000000"
       d="M 112.86324,647.00499 C 105.44876,638.90421 104.15266,632.55325 103.88984,603.03463 L 103.71204,583.06638 L 87.710639,583.87441 C 72.877659,584.62345 71.690789,584.36785 71.456589,580.37394 C 71.317629,578.00426 71.425949,575.10536 71.697309,573.93193 C 72.203689,571.74217 72.119859,562.96246 70.724499,472.04092 C 69.777139,410.31087 67.698119,414.98468 96.104459,414.98468 L 114.37964,414.98468 L 114.37964,389.37689 L 114.37964,363.7691 L 105.58741,355.77395 C 100.75169,351.37662 95.909009,347.44469 94.825899,347.03633 C 93.669069,346.60017 93.115409,356.93454 93.483909,372.08567 L 94.111199,397.8775 L 87.925649,400.03052 C 72.626119,405.35592 68.248359,401.34368 67.785119,381.57174 C 67.597099,373.54655 66.854969,360.07095 66.135949,351.62596 C 65.344059,342.32516 65.840419,332.05383 67.394909,325.57397 C 69.658149,316.13973 70.956619,314.42574 78.390889,311.05921 C 85.994869,307.61584 86.750099,306.56871 86.101019,300.36911 C 85.302729,292.74429 85.995869,292.23903 100.17032,290.11344 C 109.38056,288.73228 109.9329,288.2793 109.27688,282.64495 C 108.47779,275.78186 111.47232,274.34455 127.18076,274.05154 C 134.13036,273.92191 135.60327,273.41261 132.51456,272.20725 C 130.16769,271.29139 128.12751,269.4387 127.98083,268.09016 C 127.83415,266.74163 127.58437,264.43818 127.42575,262.97138 C 127.26714,261.50459 123.30679,258.69563 118.62498,256.72926 C 112.00092,253.94714 110.1126,251.99951 110.1126,247.94953 C 110.1126,241.31878 117.7505,231.50196 122.9095,231.50196 C 126.37014,231.50196 126.80498,229.90722 126.39997,218.70084 L 125.93733,205.89972 L 133.49299,205.65646 C 148.28274,205.18028 152.36467,203.99058 157.77631,198.57894 C 165.50372,190.85153 178.93784,190.83594 183.99132,198.54852 C 187.22556,203.4846 188.70968,203.94158 199.7321,203.39531 C 210.74401,202.84957 212.8576,203.49828 221.94564,210.21313 C 239.36961,223.08714 244.73909,227.73137 243.5613,228.90917 C 242.93248,229.53799 244.33205,231.39313 246.67146,233.03171 C 251.6663,236.53025 252.27035,245.69983 247.91551,251.91723 C 246.11361,254.48981 245.0122,260.88675 245.17055,267.85997 L 245.43502,279.50616 L 257.24742,287.05725 C 274.19143,297.88871 290.74053,306.17516 295.42834,306.17516 C 303.95318,306.17516 305.27868,311.53363 306.45992,350.77208 C 307.08157,371.42106 307.22105,389.95208 306.7699,391.95212 C 305.80747,396.2188 291.03199,399.09753 279.60925,397.24387 C 275.56723,396.58794 272.27323,396.71098 272.28925,397.51728 C 272.39405,402.79085 275.36711,408.58412 277.96868,408.58412 C 279.82674,408.58412 280.43795,407.52746 279.5113,405.91722 C 278.6672,404.45043 278.53865,403.7385 279.22564,404.33513 C 279.91264,404.93177 281.00912,429.23722 281.66227,458.34722 C 282.31543,487.45722 283.30515,512.01122 283.86163,512.91165 C 284.41814,513.81209 285.01139,528.23893 285.17996,544.97129 L 285.48648,575.39379 L 293.27458,574.05653 C 312.64839,570.72988 312.79345,570.66058 312.87262,564.69494 L 312.94821,558.99729 L 316.09174,564.33109 C 318.89243,569.08314 319.1085,562.68401 318.07276,505.65929 C 317.43338,470.45621 316.40739,436.70665 315.79279,430.66025 L 314.67536,419.66682 L 298.26816,415.25965 C 280.62314,410.51997 290.24656,410.47336 309.82604,415.20365 L 320.72295,417.83628 L 321.06971,479.88272 C 321.26043,514.00824 322.00407,547.47395 322.72223,554.25097 C 324.45019,570.55657 321.36456,574.08319 303.5719,576.13824 C 296.32463,576.97529 288.29884,578.45337 285.73681,579.42284 C 282.6387,580.59517 280.79167,580.32811 280.22198,578.62548 C 279.75085,577.21746 278.78631,588.0665 278.07856,602.73445 C 276.68021,631.71397 273.36384,642.37753 265.10492,644.4504 C 262.51397,645.10067 254.1832,645.34144 246.59207,644.98542 L 232.79001,644.33809 L 228.94203,632.60373 C 225.25482,621.35963 223.61111,588.02822 226.51233,583.33395 C 227.21434,582.19806 207.39515,581.39925 178.51116,581.39925 L 129.31428,581.39925 L 128.94749,590.46671 C 127.36289,629.63942 133.91676,654.51786 143.33876,645.09585 C 147.31318,641.12145 151.34592,607.39192 149.48766,593.66699 C 148.53881,586.65891 148.87206,583.53277 150.56796,583.53277 C 153.59426,583.53277 153.27843,625.23223 150.16526,636.70028 C 146.79997,649.09708 143.06881,651.80541 129.35552,651.80541 C 119.53307,651.80541 116.43038,650.90231 112.86324,647.00499 z M 129.02185,637.61823 C 125.61031,627.9118 124.91469,621.26352 125.44967,603.4774 L 126.114,581.39024 L 120.7802,581.42387 C 106.8755,581.51156 105.83928,582.75461 105.92051,599.24962 C 106.00044,615.47927 109.84859,636.98009 114.08577,644.87147 C 116.07969,648.58497 118.54204,649.67189 124.96083,649.67189 L 133.25837,649.67189 L 129.02185,637.61823 z M 256.73896,640.302 C 257.39598,639.64496 256.74773,637.67861 255.29843,635.93228 C 253.701,634.0075 252.1974,622.64486 251.4802,607.07819 L 250.29708,581.39925 L 240.21485,581.39925 L 230.13262,581.39925 L 229.05843,592.57857 C 227.59766,607.78103 230.80407,631.35101 235.25757,638.14792 C 238.43871,643.00295 239.99283,643.58248 247.22884,642.61192 C 251.80238,641.99849 256.08194,640.95902 256.73896,640.302 z M 268.76406,635.95602 C 272.79878,629.79826 276.39282,595.79654 274.58716,580.86587 C 274.3843,579.18854 256.58648,578.5824 254.97106,580.19782 C 253.32249,581.84639 257.07772,629.54072 259.32056,635.43986 C 262.00496,642.50036 264.3906,642.63076 268.76406,635.95602 z M 166.65089,578.14339 C 255.98801,575.53698 275.59427,574.78945 278.66069,573.87283 C 282.23081,572.80566 282.52048,557.09777 279.93,505.03702 C 279.15392,489.4401 278.43733,462.19515 278.33759,444.49268 L 278.15622,412.30637 L 227.73735,413.65418 C 151.9071,415.68128 110.97723,417.11923 91.444299,418.44242 L 73.842759,419.63478 L 73.848369,457.31323 C 73.851449,478.03639 74.485449,514.48222 75.257269,538.30398 L 76.660559,581.61627 L 101.38728,580.47117 C 114.98698,579.84135 144.3556,578.79384 166.65089,578.14339 z M 190.33772,526.28065 C 189.7145,525.27227 188.93044,510.13906 188.59534,492.6513 C 187.98849,460.98092 188.00504,460.85441 192.78651,460.6133 C 195.42674,460.48014 197.58693,461.20021 197.58693,462.21344 C 197.58693,463.22665 198.45777,464.05565 199.52214,464.05565 C 200.58651,464.05565 207.79666,468.21991 215.5447,473.30958 L 229.63205,482.56351 L 224.81047,489.17046 C 212.68775,505.78211 197.00331,525.00912 194.36907,526.48752 C 192.77504,527.38213 190.96094,527.28904 190.33772,526.28065 z M 209.85376,502.98972 C 226.70713,481.62446 226.83489,482.62849 205.75136,470.74952 C 194.02927,464.14502 193.60372,464.06734 192.26442,468.28712 C 191.0039,472.25865 193.08499,521.66069 194.51281,521.66069 C 194.8499,521.66069 201.75332,513.25876 209.85376,502.98972 z M 164.26554,523.38675 C 163.40181,521.98921 163.83117,520.46707 165.21968,520.00424 C 166.60818,519.5414 167.1655,518.2263 166.45815,517.08181 C 165.75081,515.93731 165.29674,502.97963 165.44911,488.28701 L 165.72614,461.57312 L 158.72119,468.27396 C 154.86847,471.95942 147.63589,477.9612 142.64878,481.61125 C 137.66168,485.2613 133.58132,488.96727 133.58132,489.84675 C 133.58132,490.7262 140.38547,497.65577 148.70165,505.24579 C 157.01782,512.83581 162.946,519.5872 161.87536,520.24889 C 160.80473,520.91058 153.30627,514.77834 145.21212,506.62167 C 137.11797,498.46504 129.20105,491.79141 127.61897,491.79141 C 125.26562,491.79141 125.28853,491.24533 127.7449,488.78897 C 137.6286,478.90527 155.71223,464.29558 157.04379,465.11854 C 157.90701,465.65203 160.33053,464.19102 162.42938,461.87182 C 164.52822,459.55262 166.88026,457.65509 167.65612,457.65509 C 168.43198,457.65509 169.31196,473.01643 169.61163,491.79141 C 170.12696,524.07803 168.95896,530.98086 164.26554,523.38675 z M 165.99519,411.80856 C 181.61049,411.43683 203.88557,411.03932 215.49537,410.92517 L 236.6041,410.71764 L 235.06854,351.51246 C 234.22399,318.94961 233.44583,291.33003 233.33928,290.13562 C 233.23276,288.9412 233.80394,285.34088 234.6086,282.13492 C 236.26779,275.52413 236.47515,275.58166 212.52157,276.0071 C 204.89423,276.14257 179.66522,276.39524 156.4571,276.56858 L 114.26052,276.88375 L 115.92022,331.53296 C 116.83306,361.59002 117.57992,392.72053 117.57992,400.71186 L 117.57992,415.24156 L 127.59183,413.86299 C 133.09837,413.10476 150.37988,412.18026 165.99519,411.80856 z M 171.98469,397.91652 C 171.98469,396.74309 175.67622,395.783 180.1881,395.783 C 185.68195,395.783 189.66698,394.37362 192.25313,391.51596 C 196.08279,387.28423 195.9796,387.24892 179.78268,387.24892 C 162.90631,387.24892 159.79528,389.18759 167.18427,395.09972 C 170.69024,397.90494 170.66098,398.04823 166.70447,397.44954 C 158.99781,396.28338 157.56128,388.66563 157.19317,347.01241 L 156.84074,307.13236 L 163.25956,302.38672 C 170.51122,297.02534 175.69924,296.56122 187.98609,300.17469 C 192.67983,301.55509 197.00021,302.58988 197.58693,302.47424 C 198.17364,302.3586 198.97966,310.58465 199.37808,320.75435 C 201.99733,387.61148 201.57513,391.47752 191.06101,396.91458 C 184.16262,400.48189 171.98469,401.1215 171.98469,397.91652 z M 186.25335,383.15968 C 195.95339,383.00386 197.282,382.45436 197.00031,378.71484 C 196.64468,373.99373 189.94452,373.23749 171.2157,375.80456 C 158.01493,377.61393 157.63295,385.34921 170.81901,383.83788 C 173.22028,383.56265 180.16574,383.25746 186.25335,383.15968 z M 185.85257,372.31428 C 196.37793,372.31428 197.05355,371.99256 197.05355,366.98048 C 197.05355,361.71568 196.82242,361.64668 179.18532,361.64668 L 161.31709,361.64668 L 161.31709,368.31393 C 161.31709,374.64338 161.65489,374.91362 167.98434,373.64773 C 171.65132,372.91434 179.69203,372.31428 185.85257,372.31428 z M 197.15889,352.95616 L 197.79761,347.46592 L 179.02397,348.41196 C 168.69846,348.93228 160.04838,349.52465 159.80157,349.72834 C 159.55475,349.93202 159.91639,352.25379 160.6052,354.88783 C 161.79115,359.4229 162.77716,359.64435 179.18888,359.0617 C 196.03419,358.46366 196.53808,358.29245 197.15889,352.95616 z M 185.55479,345.35529 C 193.30524,344.29297 195.45341,343.13544 195.45341,340.02149 C 195.45341,336.47743 193.62225,336.04444 178.63396,336.04444 C 162.38747,336.04444 161.77979,336.22614 160.7949,341.37824 C 159.85504,346.29484 160.39637,346.71204 167.71573,346.71204 C 172.08297,346.71204 180.11055,346.1015 185.55479,345.35529 z M 192.78651,332.02349 C 194.2533,331.88814 195.45341,329.37719 195.45341,326.4436 C 195.45341,321.20247 195.15935,321.1098 178.52902,321.1098 C 163.14695,321.1098 161.47351,321.52293 160.16578,325.6432 C 159.34228,328.23783 159.75825,330.81399 161.13845,331.667 C 163.11073,332.88594 181.22836,333.09002 192.78651,332.02349 z M 189.96224,316.9026 C 194.82381,315.05423 195.15838,314.2625 193.04133,309.6161 C 190.49775,304.03354 185.62949,301.98376 174.80398,301.93726 C 166.72386,301.90254 161.31709,306.65615 161.31709,313.79488 C 161.31709,318.6455 162.05735,318.97628 172.91255,318.97628 C 179.29006,318.97628 186.96242,318.04312 189.96224,316.9026 z M 265.22973,408.58412 C 270.40471,408.58412 270.40488,408.58327 269.73238,387.44228 L 269.05985,366.30044 L 258.39225,359.25758 C 252.52507,355.38401 245.50726,350.27548 242.79711,347.90531 L 237.86958,343.59589 L 238.38344,365.95579 C 238.66606,378.25373 239.30384,393.47285 239.80071,399.77604 L 240.70413,411.23639 L 250.37934,409.91026 C 255.70073,409.18089 262.3834,408.58412 265.22973,408.58412 z M 88.409999,396.02149 C 90.688909,395.82964 90.992879,389.62919 89.964439,364.31358 C 88.166739,320.06245 87.087659,312.57572 82.507309,312.57572 C 71.138019,312.57572 68.083059,327.59759 70.595099,371.15054 L 72.133929,397.83029 L 78.855529,397.04513 C 82.552399,396.61331 86.851919,396.15266 88.409999,396.02149 z M 296.65672,393.70229 L 302.12941,391.62157 L 302.09796,355.83231 C 302.05832,310.72665 301.57717,309.5089 283.60184,309.0198 C 271.84917,308.70002 270.40629,309.13025 269.29134,313.28684 C 266.89258,322.22944 268.04532,327.76252 273.32689,332.65731 C 277.02191,336.08173 278.66069,339.85242 278.66069,344.92985 C 278.66069,348.96099 279.86079,353.55214 281.32759,355.13242 C 283.46111,357.43099 283.46111,357.7045 281.32759,356.49997 C 279.86079,355.67185 278.66069,356.01104 278.66069,357.25373 C 278.66069,358.49642 280.34084,359.5437 282.39435,359.58102 C 285.89987,359.64473 285.89332,359.82685 282.28684,362.56173 C 279.1613,364.93191 278.56509,367.98334 279.08656,378.94045 C 279.67208,391.24284 280.18829,392.5338 285.06125,393.88197 C 287.99484,394.69361 290.57258,395.45338 290.78954,395.57034 C 291.00652,395.68729 293.64675,394.84669 296.65672,393.70229 z M 274.82586,383.70195 C 272.67089,377.72132 272.6464,377.74581 272.80093,385.72686 C 272.89965,390.82383 273.70476,393.05826 274.98231,391.78071 C 276.25984,390.50319 276.20208,387.52139 274.82586,383.70195 z M 274.39365,357.72765 C 274.39365,354.17499 264.00127,346.29011 261.42082,347.88492 C 259.7405,348.92342 259.34612,348.62077 260.32204,347.04169 C 261.38171,345.32709 259.08289,344.57852 252.75766,344.57852 C 242.4467,344.57852 243.23079,346.47072 256.68671,354.06026 C 265.11629,358.81479 274.39365,360.73628 274.39365,357.72765 z M 113.40728,350.97908 C 113.48625,345.04008 112.94742,344.58478 105.93531,344.66523 L 98.378239,344.75194 L 105.76497,351.06579 C 109.82767,354.53841 113.19006,357.37964 113.23694,357.37964 C 113.28383,357.37964 113.36048,354.49939 113.40728,350.97908 z M 269.2259,334.94472 C 263.13216,329.29723 262.26373,322.25645 266.28817,311.12706 C 268.03958,306.28364 270.21509,304.04164 273.16344,304.04164 C 277.97698,304.04164 277.93802,304.00445 263.19267,294.5226 L 257.32549,290.74977 L 257.32549,297.52162 C 257.32549,301.24614 258.04555,303.84659 258.92563,303.3004 C 259.8057,302.75422 260.34263,310.61825 260.11878,320.77603 L 259.71181,339.24472 L 266.51934,343.58944 C 273.0362,347.74862 273.35676,347.76564 274.02632,343.98799 C 274.41387,341.80149 272.27327,337.76892 269.2259,334.94472 z M 254.12521,340.81219 C 255.39977,339.87579 255.9904,329.58137 255.59226,315.24262 L 254.92577,291.24052 L 246.85447,291.24052 L 238.78315,291.24052 L 238.51392,316.84276 L 238.24469,342.445 L 245.11819,342.41233 C 248.89862,342.39436 252.95177,341.6743 254.12521,340.81219 z M 112.64641,316.84711 L 111.97993,293.37404 L 102.44523,293.37404 C 95.865859,293.37404 92.523279,294.38319 91.661169,296.62981 C 90.974019,298.42049 91.093749,308.98141 91.927239,320.09853 L 93.442659,340.31148 L 103.37777,340.31583 L 113.31288,340.32018 L 112.64641,316.84711 z M 246.34181,287.21399 C 248.65736,285.74664 248.43381,284.80666 245.20797,282.44624 C 242.71045,280.61874 240.9347,276.27671 240.51546,270.97208 C 239.82811,262.27537 236.97683,258.53111 232.33512,260.22981 C 230.91149,260.75081 227.7757,258.67136 225.3667,255.60881 C 221.97777,251.30049 221.29882,248.30521 222.36612,242.37139 C 224.21551,232.08942 226.72389,229.40012 234.65138,229.20001 C 238.32137,229.10737 239.88396,228.47833 238.12381,227.80216 C 236.36365,227.12599 230.98431,223.36144 226.16971,219.43652 C 221.35511,215.51159 216.90651,212.30028 216.28392,212.30028 C 215.66134,212.30028 215.65195,224.62825 216.26306,239.69578 L 217.37417,267.09128 L 197.55195,268.4983 C 186.64972,269.27216 168.5164,269.98784 157.25566,270.0887 C 142.20573,270.2235 138.41243,270.76029 142.93737,272.11489 C 146.32305,273.12843 168.54844,273.46139 192.32713,272.8548 C 239.24009,271.65805 239.62344,271.74441 238.41779,283.23854 C 237.78298,289.2905 240.73097,290.7695 246.34181,287.21399 z M 204.18262,264.34917 L 213.9786,263.19739 L 213.10944,239.38797 C 212.63141,226.29279 211.58351,215.08096 210.78078,214.47279 C 209.97806,213.86463 209.32129,212.08693 209.32129,210.52235 C 209.32129,208.3402 204.47642,207.69836 188.51947,207.76655 C 177.07846,207.81544 159.03063,207.89545 148.41316,207.94434 L 129.10867,208.03324 L 129.51741,229.90182 C 129.74222,241.92954 130.38328,255.45393 130.94199,259.95603 L 131.95782,268.14165 L 163.17223,266.8213 C 180.34016,266.09511 198.79484,264.98265 204.18262,264.34917 z M 140.24594,241.02611 C 140.18708,233.35659 139.62043,226.2426 138.98672,225.21724 C 138.35301,224.19188 138.32837,222.0662 138.93197,220.49351 C 139.92535,217.90524 167.02705,216.95769 198.12031,218.42413 L 203.98749,218.70084 L 203.98749,235.52017 C 203.98749,251.15891 203.65054,252.42979 199.18707,253.62595 C 189.1934,256.30415 176.53709,255.09295 174.22422,251.23702 C 172.09133,247.68115 171.87804,247.68115 169.74515,251.23702 C 167.98763,254.1671 164.58362,254.97068 153.92929,254.97068 L 140.35296,254.97068 L 140.24594,241.02611 z M 166.46024,247.50336 C 168.07082,241.08629 173.08105,240.56672 176.74686,246.4366 C 178.8053,249.73268 181.72228,250.70364 189.56606,250.70364 L 199.72045,250.70364 L 199.72045,243.23632 C 199.72045,236.04696 197.13274,233.45925 194.38665,237.90252 C 192.42157,241.08208 185.67698,240.4803 182.66999,236.8571 C 180.48683,234.22654 180.90182,233.34881 185.07566,231.76901 C 188.18023,230.59391 191.11743,230.66326 192.71477,231.94937 C 196.87844,235.30178 200.77908,232.68131 200.88725,226.45906 L 200.9873,220.70439 L 172.08473,220.95323 L 143.18216,221.20207 L 143.8841,237.01962 L 144.58604,252.83716 L 154.85379,252.83716 C 164.02673,252.83716 165.26428,252.26844 166.46024,247.50336 z M 150.72705,239.06274 C 147.52859,235.20883 149.58259,231.50196 154.91652,231.50196 C 157.12489,231.50196 159.55109,232.5041 160.30809,233.72894 C 161.72278,236.01797 157.79337,242.16956 154.91652,242.16956 C 154.03045,242.16956 152.14519,240.77149 150.72705,239.06274 z M 157.05005,235.769 C 157.05005,234.59557 155.55326,233.63548 153.72385,233.63548 C 151.89444,233.63548 150.99102,234.59557 151.71624,235.769 C 152.44147,236.94244 153.93825,237.90252 155.04244,237.90252 C 156.14662,237.90252 157.05005,236.94244 157.05005,235.769 z M 191.18637,235.769 C 191.18637,234.59557 189.68958,233.63548 187.86017,233.63548 C 186.03077,233.63548 185.12734,234.59557 185.85257,235.769 C 186.57779,236.94244 188.07458,237.90252 189.17876,237.90252 C 190.28294,237.90252 191.18637,236.94244 191.18637,235.769 z M 242.87678,249.94304 C 248.07376,243.49556 247.53494,238.98705 241.22371,236.11146 C 231.61665,231.7342 228.06255,232.93474 226.53582,241.0729 C 223.72194,256.07219 233.61,261.4396 242.87678,249.94304 z M 126.76322,243.77641 C 127.38924,234.04794 127.2367,233.75113 122.49618,235.47362 C 119.79224,236.4561 116.2934,239.87573 114.72099,243.0728 C 112.18875,248.22142 112.31064,249.22904 115.78775,251.89086 C 122.7336,257.2081 126.05703,254.75101 126.76322,243.77641 z M 180.93708,201.63268 C 178.33211,194.53062 169.35632,193.0878 163.08522,198.76307 C 157.21373,204.07669 158.15627,204.83296 170.65011,204.83296 C 179.93685,204.83296 181.88824,204.22588 180.93708,201.63268 z "
       id="path3184"
       inkscape:export-filename="/home/rover/code/python/herobot/arte/pre/robot-4-01.png"
       inkscape:export-xdpi="19.606489"
       inkscape:export-ydpi="19.606489" />
    <path
       style="fill:#999999;fill-opacity:1;stroke:#999999;stroke-width:2;stroke-miterlimit:1;stroke-opacity:0"
       d="M 408.48829,420.25241 L 474.41443,414.77487 L 532.51551,414.77487 L 617.2218,410.07983 L 662.80278,420.25241 L 662.80278,575.18863 L 413.18333,587.70873 L 408.48829,420.25241 z "
       id="path2545"
       sodipodi:nodetypes="cccccccc"
       inkscape:export-filename="/home/rover/code/python/herobot/arte/pre/robot-4-02.png"
       inkscape:export-xdpi="19.606491"
       inkscape:export-ydpi="19.606491" />
    <path
       style="fill:#999999;fill-opacity:1;stroke:#999999;stroke-width:2;stroke-miterlimit:1;stroke-opacity:0"
       d="M 410.01197,317.11446 L 434.26461,310.85571 L 431.13524,395.3488 L 426.83235,403.17223 L 411.57665,401.60754 L 404.53556,381.65779 L 405.31791,357.79631 L 406.88259,335.49953 L 410.01197,317.11446 z "
       id="path2547"
       sodipodi:nodetypes="ccccccccc"
       inkscape:export-filename="/home/rover/code/python/herobot/arte/pre/robot-4-02.png"
       inkscape:export-xdpi="19.606491"
       inkscape:export-ydpi="19.606491" />
    <path
       style="fill:#999999;fill-opacity:1;stroke:#999999;stroke-width:2;stroke-miterlimit:1;stroke-opacity:0"
       d="M 429.57967,297.05931 L 467.12303,292.07947 L 460.20659,364.50197 L 424.87649,347.62585 L 429.57967,297.05931 z "
       id="path2549"
       sodipodi:nodetypes="ccccc"
       inkscape:export-filename="/home/rover/code/python/herobot/arte/pre/robot-4-02.png"
       inkscape:export-xdpi="19.606491"
       inkscape:export-ydpi="19.606491" />
    <path
       style="fill:#999999;fill-opacity:1;stroke:#999999;stroke-width:2;stroke-miterlimit:1;stroke-opacity:0"
       d="M 450.69381,277.99728 L 581.34515,277.99728 L 635.72933,312.57245 L 642.38063,323.28118 L 642.77188,395.80789 L 611.86289,400.25658 L 609.51537,410.57406 L 581.34515,414.51546 L 450.69381,418.03674 L 450.69381,277.99728 z "
       id="path2551"
       sodipodi:nodetypes="cccccccccc"
       inkscape:export-filename="/home/rover/code/python/herobot/arte/pre/robot-4-02.png"
       inkscape:export-xdpi="19.606491"
       inkscape:export-ydpi="19.606491" />
    <path
       style="fill:#e6e6e6;fill-opacity:1;stroke:#999999;stroke-width:2;stroke-miterlimit:1;stroke-opacity:0"
       d="M 484.6859,206.64323 L 567.69399,219.5519 C 574.60661,219.5519 584.08336,231.76684 584.08336,238.67945 L 584.86571,281.78804 C 584.86571,288.70066 581.25653,293.09217 574.34391,293.09217 L 572.30835,279.00998 C 565.39574,279.00998 477.68466,283.22425 477.68466,276.31163 L 463.60248,217.16501 C 463.60248,210.2524 477.77329,206.64323 484.6859,206.64323 z "
       id="path2553"
       sodipodi:nodetypes="ccccccccc"
       inkscape:export-filename="/home/rover/code/python/herobot/arte/pre/robot-4-02.png"
       inkscape:export-xdpi="19.606491"
       inkscape:export-ydpi="19.606491" />
    <path
       style="fill:#e6e6e6;fill-opacity:1;stroke:#999999;stroke-width:2;stroke-miterlimit:1;stroke-opacity:0"
       d="M 477.25364,208.75989 L 544.61487,208.75989 C 551.52749,208.75989 551.61612,214.32492 551.61612,221.23753 L 553.96315,258.86971 C 553.96315,265.78233 550.74515,268.21798 543.83253,268.21798 L 491.33582,270.95618 C 484.42321,270.95618 464.776,268.9117 464.776,261.99908 L 465.16717,212.24058 C 465.16717,205.32797 470.34103,208.75989 477.25364,208.75989 z "
       id="path2555"
       sodipodi:nodetypes="ccccccccc"
       inkscape:export-filename="/home/rover/code/python/herobot/arte/pre/robot-4-02.png"
       inkscape:export-xdpi="19.606491"
       inkscape:export-ydpi="19.606491" />
    <path
       style="fill:#666666;fill-opacity:1;stroke:#999999;stroke-width:2;stroke-miterlimit:1;stroke-opacity:0"
       d="M 478.07583,222.05972 L 542.61916,222.05972 L 539.48979,253.74463 L 518.46431,256.28724 L 510.34749,246.70354 L 502.62185,255.5049 L 480.42286,256.48283 L 478.07583,222.05972 z "
       id="path2557"
       sodipodi:nodetypes="cccccccc"
       inkscape:export-filename="/home/rover/code/python/herobot/arte/pre/robot-4-02.png"
       inkscape:export-xdpi="19.606491"
       inkscape:export-ydpi="19.606491" />
    <rect
       style="opacity:1;fill:#666666;fill-opacity:1;stroke:#999999;stroke-width:2;stroke-miterlimit:1;stroke-dasharray:none;stroke-opacity:0"
       id="rect2559"
       width="8.2146053"
       height="8.2146053"
       x="487.85513"
       y="234.57722"
       ry="3.9117169"
       inkscape:export-filename="/home/rover/code/python/herobot/arte/pre/robot-4-02.png"
       inkscape:export-xdpi="19.606491"
       inkscape:export-ydpi="19.606491" />
    <rect
       style="opacity:1;fill:#666666;fill-opacity:1;stroke:#999999;stroke-width:2;stroke-miterlimit:1;stroke-dasharray:none;stroke-opacity:0"
       id="rect2561"
       width="8.2146053"
       height="8.2146053"
       x="522.08264"
       y="233.20808"
       ry="3.9117169"
       inkscape:export-filename="/home/rover/code/python/herobot/arte/pre/robot-4-02.png"
       inkscape:export-xdpi="19.606491"
       inkscape:export-ydpi="19.606491" />
    <path
       style="fill:#b3b3b3;fill-opacity:1;stroke:#999999;stroke-width:2;stroke-miterlimit:1;stroke-opacity:0"
       d="M 500.76381,197.80709 L 517.58418,197.02474 L 523.84293,209.54223 L 492.15803,209.15106 L 500.76381,197.80709 z "
       id="path2563"
       sodipodi:nodetypes="ccccc"
       inkscape:export-filename="/home/rover/code/python/herobot/arte/pre/robot-4-02.png"
       inkscape:export-xdpi="19.606491"
       inkscape:export-ydpi="19.606491" />
    <path
       style="fill:#666666;fill-opacity:1;stroke:#999999;stroke-width:2;stroke-miterlimit:1;stroke-opacity:0"
       d="M 448.95827,252.00168 L 453.41083,239.65214 L 466.90493,233.59449 L 467.02232,263.8188 L 448.95827,252.00168 z "
       id="path2565"
       sodipodi:nodetypes="ccccc"
       inkscape:export-filename="/home/rover/code/python/herobot/arte/pre/robot-4-02.png"
       inkscape:export-xdpi="19.606491"
       inkscape:export-ydpi="19.606491" />
    <path
       style="fill:#666666;fill-opacity:1;stroke:#999999;stroke-width:1.94896364;stroke-miterlimit:1;stroke-opacity:0"
       d="M 584.83688,250.38975 L 586.86741,238.43138 L 567.79446,231.98256 L 563.85488,242.7658 L 563.43584,254.33139 L 567.71086,258.85589 L 572.37705,261.03335 L 584.83688,250.38975 z "
       id="path2567"
       sodipodi:nodetypes="cccccccc"
       inkscape:export-filename="/home/rover/code/python/herobot/arte/pre/robot-4-02.png"
       inkscape:export-xdpi="19.606491"
       inkscape:export-ydpi="19.606491" />
    <path
       style="fill:#ff0000;fill-opacity:1;stroke:#999999;stroke-width:2;stroke-miterlimit:1;stroke-opacity:0"
       d="M 467.17625,493.808 L 504.73655,462.50775 L 507.86657,530.58578 L 467.17625,493.808 z "
       id="path2569"
       sodipodi:nodetypes="cccc"
       inkscape:export-filename="/home/rover/code/python/herobot/arte/pre/robot-4-02.png"
       inkscape:export-xdpi="19.606491"
       inkscape:export-ydpi="19.606491" />
    <path
       style="fill:#00ff00;fill-opacity:1;stroke:#999999;stroke-width:2;stroke-miterlimit:1;stroke-opacity:0"
       d="M 565.0936,482.10148 L 531.2958,527.44808 L 528.37205,466.48868 L 565.0936,482.10148 z "
       id="path2571"
       sodipodi:nodetypes="cccc"
       inkscape:export-filename="/home/rover/code/python/herobot/arte/pre/robot-4-02.png"
       inkscape:export-xdpi="19.606491"
       inkscape:export-ydpi="19.606491" />
    <path
       style="fill:#4d4d4d;fill-opacity:1;stroke:#999999;stroke-width:2;stroke-miterlimit:1;stroke-opacity:0"
       d="M 491.27434,632.32178 C 491.27434,653.70188 471.26645,652.24118 457.52209,652.24118 C 443.77774,652.24118 444.79584,614.96978 444.79584,593.58972 C 444.79584,572.20962 455.95068,581.41679 469.69503,581.41679 C 483.43939,581.41679 491.27434,557.82342 491.27434,632.32178 z "
       id="path2573"
       sodipodi:nodetypes="csssc"
       inkscape:export-filename="/home/rover/code/python/herobot/arte/pre/robot-4-02.png"
       inkscape:export-xdpi="19.606491"
       inkscape:export-ydpi="19.606491" />
    <path
       style="fill:#4d4d4d;fill-opacity:1;stroke:#999999;stroke-width:2;stroke-miterlimit:1;stroke-opacity:0"
       d="M 610.79894,629.65858 C 610.79894,651.03868 590.79105,649.57798 577.04669,649.57798 C 563.30234,649.57798 564.32044,612.30663 564.32044,590.92652 C 564.32044,569.54642 575.55314,580.21447 589.21963,578.75359 C 630.62976,574.32707 610.79894,555.16022 610.79894,629.65858 z "
       id="path2575"
       sodipodi:nodetypes="csssc"
       inkscape:export-filename="/home/rover/code/python/herobot/arte/pre/robot-4-02.png"
       inkscape:export-xdpi="19.606491"
       inkscape:export-ydpi="19.606491" />
    <path
       style="fill:#000000"
       d="M 450.92598,649.50768 C 443.5115,641.40688 442.2154,635.05598 441.95258,605.53733 L 441.77478,585.56908 L 425.77338,586.37711 C 410.9404,587.12615 409.75353,586.87055 409.51933,582.87664 C 409.38037,580.50696 409.48869,577.60806 409.76005,576.43463 C 410.26643,574.24487 410.1826,565.46516 408.78724,474.54362 C 407.83988,412.81357 405.76086,417.48738 434.1672,417.48738 L 452.44238,417.48738 L 452.44238,391.87959 L 452.44238,366.2718 L 443.65015,358.27665 C 438.81443,353.87932 433.97175,349.94739 432.88864,349.53903 C 431.73181,349.10287 431.17815,359.43724 431.54665,374.58837 L 432.17394,400.3802 L 425.98839,402.53322 C 410.68886,407.85862 406.3111,403.84638 405.84786,384.07444 C 405.65984,376.04925 404.91771,362.57365 404.19869,354.12866 C 403.4068,344.82786 403.90316,334.55653 405.45765,328.07667 C 407.72089,318.64243 409.01936,316.92844 416.45363,313.56191 C 424.05761,310.11854 424.81284,309.07141 424.16376,302.87181 C 423.36547,295.24699 424.05861,294.74173 438.23306,292.61614 C 447.4433,291.23498 447.99564,290.782 447.33962,285.14765 C 446.54053,278.28456 449.53506,276.84725 465.2435,276.55424 C 472.1931,276.42461 473.66601,275.91531 470.5773,274.70995 C 468.23043,273.79409 466.19025,271.9414 466.04357,270.59286 C 465.89689,269.24433 465.64711,266.94088 465.48849,265.47408 C 465.32988,264.00729 461.36953,261.19833 456.68772,259.23196 C 450.06366,256.44984 448.17534,254.50221 448.17534,250.45223 C 448.17534,243.82148 455.81324,234.00466 460.97224,234.00466 C 464.43288,234.00466 464.86772,232.40992 464.46271,221.20354 L 464.00007,208.40242 L 471.55573,208.15916 C 486.34548,207.68298 490.42741,206.49328 495.83905,201.08164 C 503.56646,193.35423 517.00058,193.33864 522.05406,201.05122 C 525.2883,205.9873 526.77242,206.44428 537.79484,205.89801 C 548.80675,205.35227 550.92034,206.00098 560.00838,212.71583 C 577.43235,225.58984 582.80183,230.23407 581.62404,231.41187 C 580.99522,232.04069 582.39479,233.89583 584.7342,235.53441 C 589.72904,239.03295 590.33309,248.20253 585.97825,254.41993 C 584.17635,256.99251 583.07494,263.38945 583.23329,270.36267 L 583.49776,282.00886 L 595.31016,289.55995 C 612.25417,300.39141 628.80327,308.67786 633.49108,308.67786 C 642.01592,308.67786 643.34142,314.03633 644.52266,353.27478 C 645.14431,373.92376 645.28379,392.45478 644.83264,394.45482 C 643.87021,398.7215 629.09473,401.60023 617.67199,399.74657 C 613.62997,399.09064 610.33597,399.21368 610.35199,400.01998 C 610.45679,405.29355 613.42985,411.08682 616.03142,411.08682 C 617.88948,411.08682 618.50069,410.03016 617.57404,408.41992 C 616.72994,406.95313 616.60139,406.2412 617.28838,406.83783 C 617.97538,407.43447 619.07186,431.73992 619.72501,460.84992 C 620.37817,489.95992 621.36789,514.51392 621.92437,515.41435 C 622.48088,516.31479 623.07413,530.74163 623.2427,547.47399 L 623.54922,577.89649 L 631.33732,576.55923 C 650.71113,573.23258 650.85619,573.16328 650.93536,567.19764 L 651.01095,561.49999 L 654.15448,566.83379 C 656.95517,571.58584 657.17124,565.18671 656.1355,508.16199 C 655.49612,472.95891 654.47013,439.20935 653.85553,433.16295 L 652.7381,422.16952 L 636.3309,417.76235 C 618.68588,413.02267 628.3093,412.97606 647.88878,417.70635 L 658.78569,420.33898 L 659.13245,482.38542 C 659.32317,516.51094 660.06681,549.97665 660.78497,556.75367 C 662.51293,573.05927 659.4273,576.58589 641.63464,578.64094 C 634.38737,579.47799 626.36158,580.95607 623.79955,581.92554 C 620.70144,583.09787 618.85441,582.83081 618.28472,581.12818 C 617.81359,579.72016 616.84905,590.5692 616.1413,605.23715 C 614.74295,634.21668 611.42658,644.88018 603.16766,646.95308 C 600.57671,647.60338 592.24594,647.84418 584.65481,647.48808 L 570.85275,646.84078 L 567.00477,635.10638 C 563.31756,623.86228 561.67385,590.53092 564.57507,585.83665 C 565.27708,584.70076 545.45789,583.90195 516.5739,583.90195 L 467.37702,583.90195 L 467.01023,592.96941 C 465.42563,632.14208 471.9795,657.02058 481.4015,647.59858 C 485.37592,643.62418 489.40866,609.89462 487.5504,596.16969 C 486.60155,589.16161 486.9348,586.03547 488.6307,586.03547 C 491.657,586.03547 491.34117,627.73488 488.228,639.20298 C 484.86271,651.59978 481.13155,654.30808 467.41826,654.30808 C 457.59581,654.30808 454.49312,653.40498 450.92598,649.50768 z M 467.08459,640.12088 C 463.67305,630.41448 462.97743,623.76618 463.51241,605.9801 L 464.17674,583.89294 L 458.84294,583.92657 C 444.93824,584.01426 443.90202,585.25731 443.98325,601.75232 C 444.06318,617.98198 447.91133,639.48278 452.14851,647.37418 C 454.14243,651.08768 456.60478,652.17458 463.02357,652.17458 L 471.32111,652.17458 L 467.08459,640.12088 z M 594.8017,642.80468 C 595.45872,642.14768 594.81047,640.18128 593.36117,638.43498 C 591.76374,636.51018 590.26014,625.14758 589.54294,609.58089 L 588.35982,583.90195 L 578.27759,583.90195 L 568.19536,583.90195 L 567.12117,595.08127 C 565.6604,610.28373 568.86681,633.85368 573.32031,640.65058 C 576.50145,645.50568 578.05557,646.08518 585.29158,645.11458 C 589.86512,644.50118 594.14468,643.46168 594.8017,642.80468 z M 606.8268,638.45868 C 610.86152,632.30098 614.45556,598.29924 612.6499,583.36857 C 612.44704,581.69124 594.64922,581.0851 593.0338,582.70052 C 591.38523,584.34909 595.14046,632.04338 597.3833,637.94258 C 600.0677,645.00308 602.45334,645.13348 606.8268,638.45868 z M 504.71363,580.64609 C 594.05075,578.03968 613.65701,577.29215 616.72343,576.37553 C 620.29355,575.30836 620.58322,559.60047 617.99274,507.53972 C 617.21666,491.9428 616.50007,464.69785 616.40033,446.99538 L 616.21896,414.80907 L 565.80009,416.15688 C 489.96984,418.18398 449.03997,419.62193 429.50704,420.94512 L 411.9055,422.13748 L 411.91111,459.81593 C 411.91419,480.53909 412.54819,516.98492 413.32001,540.80668 L 414.7233,584.11897 L 439.45002,582.97387 C 453.04972,582.34405 482.41834,581.29654 504.71363,580.64609 z M 528.40046,528.78335 C 527.77724,527.77497 526.99318,512.64176 526.65808,495.154 C 526.05123,463.48362 526.06778,463.35711 530.84925,463.116 C 533.48948,462.98284 535.64967,463.70291 535.64967,464.71614 C 535.64967,465.72935 536.52051,466.55835 537.58488,466.55835 C 538.64925,466.55835 545.8594,470.72261 553.60744,475.81228 L 567.69479,485.06621 L 562.87321,491.67316 C 550.75049,508.28481 535.06605,527.51182 532.43181,528.99022 C 530.83778,529.88483 529.02368,529.79174 528.40046,528.78335 z M 547.9165,505.49242 C 564.76987,484.12716 564.89763,485.13119 543.8141,473.25222 C 532.09201,466.64772 531.66646,466.57004 530.32716,470.78982 C 529.06664,474.76135 531.14773,524.16339 532.57555,524.16339 C 532.91264,524.16339 539.81606,515.76146 547.9165,505.49242 z M 502.32828,525.88945 C 501.46455,524.49191 501.89391,522.96977 503.28242,522.50694 C 504.67092,522.0441 505.22824,520.729 504.52089,519.58451 C 503.81355,518.44001 503.35948,505.48233 503.51185,490.78971 L 503.78888,464.07582 L 496.78393,470.77666 C 492.93121,474.46212 485.69863,480.4639 480.71152,484.11395 C 475.72442,487.764 471.64406,491.46997 471.64406,492.34945 C 471.64406,493.2289 478.44821,500.15847 486.76439,507.74849 C 495.08056,515.33851 501.00874,522.0899 499.9381,522.75159 C 498.86747,523.41328 491.36901,517.28104 483.27486,509.12437 C 475.18071,500.96774 467.26379,494.29411 465.68171,494.29411 C 463.32836,494.29411 463.35127,493.74803 465.80764,491.29167 C 475.69134,481.40797 493.77497,466.79828 495.10653,467.62124 C 495.96975,468.15473 498.39327,466.69372 500.49212,464.37452 C 502.59096,462.05532 504.943,460.15779 505.71886,460.15779 C 506.49472,460.15779 507.3747,475.51913 507.67437,494.29411 C 508.1897,526.58073 507.0217,533.48356 502.32828,525.88945 z M 504.05793,414.31126 C 519.67323,413.93953 541.94831,413.54202 553.55811,413.42787 L 574.66684,413.22034 L 573.13128,354.01516 C 572.28673,321.45231 571.50857,293.83273 571.40202,292.63832 C 571.2955,291.4439 571.86668,287.84358 572.67134,284.63762 C 574.33053,278.02683 574.53789,278.08436 550.58431,278.5098 C 542.95697,278.64527 517.72796,278.89794 494.51984,279.07128 L 452.32326,279.38645 L 453.98296,334.03566 C 454.8958,364.09272 455.64266,395.22323 455.64266,403.21456 L 455.64266,417.74426 L 465.65457,416.36569 C 471.16111,415.60746 488.44262,414.68296 504.05793,414.31126 z M 510.04743,400.41922 C 510.04743,399.24579 513.73896,398.2857 518.25084,398.2857 C 523.74469,398.2857 527.72972,396.87632 530.31587,394.01866 C 534.14553,389.78693 534.04234,389.75162 517.84542,389.75162 C 500.96905,389.75162 497.85802,391.69029 505.24701,397.60242 C 508.75298,400.40764 508.72372,400.55093 504.76721,399.95224 C 497.06055,398.78608 495.62402,391.16833 495.25591,349.51511 L 494.90348,309.63506 L 501.3223,304.88942 C 508.57396,299.52804 513.76198,299.06392 526.04883,302.67739 C 530.74257,304.05779 535.06295,305.09258 535.64967,304.97694 C 536.23638,304.8613 537.0424,313.08735 537.44082,323.25705 C 540.06007,390.11418 539.63787,393.98022 529.12375,399.41728 C 522.22536,402.98459 510.04743,403.6242 510.04743,400.41922 z M 524.31609,385.66238 C 534.01613,385.50656 535.34474,384.95706 535.06305,381.21754 C 534.70742,376.49643 528.00726,375.74019 509.27844,378.30726 C 496.07767,380.11663 495.69569,387.85191 508.88175,386.34058 C 511.28302,386.06535 518.22848,385.76016 524.31609,385.66238 z M 523.91531,374.81698 C 534.44067,374.81698 535.11629,374.49526 535.11629,369.48318 C 535.11629,364.21838 534.88516,364.14938 517.24806,364.14938 L 499.37983,364.14938 L 499.37983,370.81663 C 499.37983,377.14608 499.71763,377.41632 506.04708,376.15043 C 509.71406,375.41704 517.75477,374.81698 523.91531,374.81698 z M 535.22163,355.45886 L 535.86035,349.96862 L 517.08671,350.91466 C 506.7612,351.43498 498.11112,352.02735 497.86431,352.23104 C 497.61749,352.43472 497.97913,354.75649 498.66794,357.39053 C 499.85389,361.9256 500.8399,362.14705 517.25162,361.5644 C 534.09693,360.96636 534.60082,360.79515 535.22163,355.45886 z M 523.61753,347.85799 C 531.36798,346.79567 533.51615,345.63814 533.51615,342.52419 C 533.51615,338.98013 531.68499,338.54714 516.6967,338.54714 C 500.45021,338.54714 499.84253,338.72884 498.85764,343.88094 C 497.91778,348.79754 498.45911,349.21474 505.77847,349.21474 C 510.14571,349.21474 518.17329,348.6042 523.61753,347.85799 z M 530.84925,334.52619 C 532.31604,334.39084 533.51615,331.87989 533.51615,328.9463 C 533.51615,323.70517 533.22209,323.6125 516.59176,323.6125 C 501.20969,323.6125 499.53625,324.02563 498.22852,328.1459 C 497.40502,330.74053 497.82099,333.31669 499.20119,334.1697 C 501.17347,335.38864 519.2911,335.59272 530.84925,334.52619 z M 528.02498,319.4053 C 532.88655,317.55693 533.22112,316.7652 531.10407,312.1188 C 528.56049,306.53624 523.69223,304.48646 512.86672,304.43996 C 504.7866,304.40524 499.37983,309.15885 499.37983,316.29758 C 499.37983,321.1482 500.12009,321.47898 510.97529,321.47898 C 517.3528,321.47898 525.02516,320.54582 528.02498,319.4053 z M 603.29247,411.08682 C 608.46745,411.08682 608.46762,411.08597 607.79512,389.94498 L 607.12259,368.80314 L 596.45499,361.76028 C 590.58781,357.88671 583.57,352.77818 580.85985,350.40801 L 575.93232,346.09859 L 576.44618,368.45849 C 576.7288,380.75643 577.36658,395.97555 577.86345,402.27874 L 578.76687,413.73909 L 588.44208,412.41296 C 593.76347,411.68359 600.44614,411.08682 603.29247,411.08682 z M 426.47274,398.52419 C 428.75165,398.33234 429.05562,392.13189 428.02718,366.81628 C 426.22948,322.56515 425.1504,315.07842 420.57005,315.07842 C 409.20076,315.07842 406.1458,330.10029 408.65784,373.65324 L 410.19667,400.33299 L 416.91827,399.54783 C 420.61514,399.11601 424.91466,398.65536 426.47274,398.52419 z M 634.71946,396.20499 L 640.19215,394.12427 L 640.1607,358.33501 C 640.12106,313.22935 639.63991,312.0116 621.66458,311.5225 C 609.91191,311.20272 608.46903,311.63295 607.35408,315.78954 C 604.95532,324.73214 606.10806,330.26522 611.38963,335.16001 C 615.08465,338.58443 616.72343,342.35512 616.72343,347.43255 C 616.72343,351.46369 617.92353,356.05484 619.39033,357.63512 C 621.52385,359.93369 621.52385,360.2072 619.39033,359.00267 C 617.92353,358.17455 616.72343,358.51374 616.72343,359.75643 C 616.72343,360.99912 618.40358,362.0464 620.45709,362.08372 C 623.96261,362.14743 623.95606,362.32955 620.34958,365.06443 C 617.22404,367.43461 616.62783,370.48604 617.1493,381.44315 C 617.73482,393.74554 618.25103,395.0365 623.12399,396.38467 C 626.05758,397.19631 628.63532,397.95608 628.85228,398.07304 C 629.06926,398.18999 631.70949,397.34939 634.71946,396.20499 z M 612.8886,386.20465 C 610.73363,380.22402 610.70914,380.24851 610.86367,388.22956 C 610.96239,393.32653 611.7675,395.56096 613.04505,394.28341 C 614.32258,393.00589 614.26482,390.02409 612.8886,386.20465 z M 612.45639,360.23035 C 612.45639,356.67769 602.06401,348.79281 599.48356,350.38762 C 597.80324,351.42612 597.40886,351.12347 598.38478,349.54439 C 599.44445,347.82979 597.14563,347.08122 590.8204,347.08122 C 580.50944,347.08122 581.29353,348.97342 594.74945,356.56296 C 603.17903,361.31749 612.45639,363.23898 612.45639,360.23035 z M 451.47002,353.48178 C 451.54899,347.54278 451.01016,347.08748 443.99805,347.16793 L 436.44098,347.25464 L 443.82771,353.56849 C 447.89041,357.04111 451.2528,359.88234 451.29968,359.88234 C 451.34657,359.88234 451.42322,357.00209 451.47002,353.48178 z M 607.28864,337.44742 C 601.1949,331.79993 600.32647,324.75915 604.35091,313.62976 C 606.10232,308.78634 608.27783,306.54434 611.22618,306.54434 C 616.03972,306.54434 616.00076,306.50715 601.25541,297.0253 L 595.38823,293.25247 L 595.38823,300.02432 C 595.38823,303.74884 596.10829,306.34929 596.98837,305.8031 C 597.86844,305.25692 598.40537,313.12095 598.18152,323.27873 L 597.77455,341.74742 L 604.58208,346.09214 C 611.09894,350.25132 611.4195,350.26834 612.08906,346.49069 C 612.47661,344.30419 610.33601,340.27162 607.28864,337.44742 z M 592.18795,343.31489 C 593.46251,342.37849 594.05314,332.08407 593.655,317.74532 L 592.98851,293.74322 L 584.91721,293.74322 L 576.84589,293.74322 L 576.57666,319.34546 L 576.30743,344.9477 L 583.18093,344.91503 C 586.96136,344.89706 591.01451,344.177 592.18795,343.31489 z M 450.70915,319.34981 L 450.04267,295.87674 L 440.50797,295.87674 C 433.9286,295.87674 430.58602,296.88589 429.72391,299.13251 C 429.03676,300.92319 429.15649,311.48411 429.98998,322.60123 L 431.5054,342.81418 L 441.44051,342.81853 L 451.37562,342.82288 L 450.70915,319.34981 z M 584.40455,289.71669 C 586.7201,288.24934 586.49655,287.30936 583.27071,284.94894 C 580.77319,283.12144 578.99744,278.77941 578.5782,273.47478 C 577.89085,264.77807 575.03957,261.03381 570.39786,262.73251 C 568.97423,263.25351 565.83844,261.17406 563.42944,258.11151 C 560.04051,253.80319 559.36156,250.80791 560.42886,244.87409 C 562.27825,234.59212 564.78663,231.90282 572.71412,231.70271 C 576.38411,231.61007 577.9467,230.98103 576.18655,230.30486 C 574.42639,229.62869 569.04705,225.86414 564.23245,221.93922 C 559.41785,218.01429 554.96925,214.80298 554.34666,214.80298 C 553.72408,214.80298 553.71469,227.13095 554.3258,242.19848 L 555.43691,269.59398 L 535.61469,271.001 C 524.71246,271.77486 506.57914,272.49054 495.3184,272.5914 C 480.26847,272.7262 476.47517,273.26299 481.00011,274.61759 C 484.38579,275.63113 506.61118,275.96409 530.38987,275.3575 C 577.30283,274.16075 577.68618,274.24711 576.48053,285.74124 C 575.84572,291.7932 578.79371,293.2722 584.40455,289.71669 z M 542.24536,266.85187 L 552.04134,265.70009 L 551.17218,241.89067 C 550.69415,228.79549 549.64625,217.58366 548.84352,216.97549 C 548.0408,216.36733 547.38403,214.58963 547.38403,213.02505 C 547.38403,210.8429 542.53916,210.20106 526.58221,210.26925 C 515.1412,210.31814 497.09337,210.39815 486.4759,210.44704 L 467.17141,210.53594 L 467.58015,232.40452 C 467.80496,244.43224 468.44602,257.95663 469.00473,262.45873 L 470.02056,270.64435 L 501.23497,269.324 C 518.4029,268.59781 536.85758,267.48535 542.24536,266.85187 z M 478.30868,243.52881 C 478.24982,235.85929 477.68317,228.7453 477.04946,227.71994 C 476.41575,226.69458 476.39111,224.5689 476.99471,222.99621 C 477.98809,220.40794 505.08979,219.46039 536.18305,220.92683 L 542.05023,221.20354 L 542.05023,238.02287 C 542.05023,253.66161 541.71328,254.93249 537.24981,256.12865 C 527.25614,258.80685 514.59983,257.59565 512.28696,253.73972 C 510.15407,250.18385 509.94078,250.18385 507.80789,253.73972 C 506.05037,256.6698 502.64636,257.47338 491.99203,257.47338 L 478.4157,257.47338 L 478.30868,243.52881 z M 504.52298,250.00606 C 506.13356,243.58899 511.14379,243.06942 514.8096,248.9393 C 516.86804,252.23538 519.78502,253.20634 527.6288,253.20634 L 537.78319,253.20634 L 537.78319,245.73902 C 537.78319,238.54966 535.19548,235.96195 532.44939,240.40522 C 530.48431,243.58478 523.73972,242.983 520.73273,239.3598 C 518.54957,236.72924 518.96456,235.85151 523.1384,234.27171 C 526.24297,233.09661 529.18017,233.16596 530.77751,234.45207 C 534.94118,237.80448 538.84182,235.18401 538.94999,228.96176 L 539.05004,223.20709 L 510.14747,223.45593 L 481.2449,223.70477 L 481.94684,239.52232 L 482.64878,255.33986 L 492.91653,255.33986 C 502.08947,255.33986 503.32702,254.77114 504.52298,250.00606 z M 488.78979,241.56544 C 485.59133,237.71153 487.64533,234.00466 492.97926,234.00466 C 495.18763,234.00466 497.61383,235.0068 498.37083,236.23164 C 499.78552,238.52067 495.85611,244.67226 492.97926,244.67226 C 492.09319,244.67226 490.20793,243.27419 488.78979,241.56544 z M 495.11279,238.2717 C 495.11279,237.09827 493.616,236.13818 491.78659,236.13818 C 489.95718,236.13818 489.05376,237.09827 489.77898,238.2717 C 490.50421,239.44514 492.00099,240.40522 493.10518,240.40522 C 494.20936,240.40522 495.11279,239.44514 495.11279,238.2717 z M 529.24911,238.2717 C 529.24911,237.09827 527.75232,236.13818 525.92291,236.13818 C 524.09351,236.13818 523.19008,237.09827 523.91531,238.2717 C 524.64053,239.44514 526.13732,240.40522 527.2415,240.40522 C 528.34568,240.40522 529.24911,239.44514 529.24911,238.2717 z M 580.93952,252.44574 C 586.1365,245.99826 585.59768,241.48975 579.28645,238.61416 C 569.67939,234.2369 566.12529,235.43744 564.59856,243.5756 C 561.78468,258.57489 571.67274,263.9423 580.93952,252.44574 z M 464.82596,246.27911 C 465.45198,236.55064 465.29944,236.25383 460.55892,237.97632 C 457.85498,238.9588 454.35614,242.37843 452.78373,245.5755 C 450.25149,250.72412 450.37338,251.73174 453.85049,254.39356 C 460.79634,259.7108 464.11977,257.25371 464.82596,246.27911 z M 518.99982,204.13538 C 516.39485,197.03332 507.41906,195.5905 501.14796,201.26577 C 495.27647,206.57939 496.21901,207.33566 508.71285,207.33566 C 517.99959,207.33566 519.95098,206.72858 518.99982,204.13538 z "
       id="path2577"
       inkscape:export-filename="/home/rover/code/python/herobot/arte/pre/robot-4-02.png"
       inkscape:export-xdpi="19.606491"
       inkscape:export-ydpi="19.606491" />
  </g>
</svg>
